G04 #@! TF.GenerationSoftware,KiCad,Pcbnew,6.0.6+dfsg-1~bpo11+1*
G04 #@! TF.CreationDate,2023-02-08T18:04:52+00:00*
G04 #@! TF.ProjectId,CIDER,43494445-522e-46b6-9963-61645f706362,rev?*
G04 #@! TF.SameCoordinates,Original*
G04 #@! TF.FileFunction,Soldermask,Top*
G04 #@! TF.FilePolarity,Negative*
%FSLAX46Y46*%
G04 Gerber Fmt 4.6, Leading zero omitted, Abs format (unit mm)*
G04 Created by KiCad (PCBNEW 6.0.6+dfsg-1~bpo11+1) date 2023-02-08 18:04:52*
%MOMM*%
%LPD*%
G01*
G04 APERTURE LIST*
%ADD10R,0.900000X1.300000*%
%ADD11R,0.800000X0.500000*%
%ADD12R,0.800000X0.400000*%
%ADD13R,1.650000X1.950000*%
%ADD14R,0.760000X1.250000*%
%ADD15R,0.458000X1.510000*%
%ADD16R,0.500000X0.800000*%
%ADD17R,0.400000X0.800000*%
%ADD18R,1.100000X0.250000*%
%ADD19R,1.700000X1.700000*%
%ADD20O,1.700000X1.700000*%
%ADD21R,1.350000X1.350000*%
%ADD22O,1.350000X1.350000*%
%ADD23C,4.000000*%
%ADD24C,1.500000*%
G04 APERTURE END LIST*
G36*
G01*
X157304808Y-131525608D02*
X157304808Y-130975608D01*
G75*
G02*
X157504808Y-130775608I200000J0D01*
G01*
X157904808Y-130775608D01*
G75*
G02*
X158104808Y-130975608I0J-200000D01*
G01*
X158104808Y-131525608D01*
G75*
G02*
X157904808Y-131725608I-200000J0D01*
G01*
X157504808Y-131725608D01*
G75*
G02*
X157304808Y-131525608I0J200000D01*
G01*
G37*
G36*
G01*
X158954808Y-131525608D02*
X158954808Y-130975608D01*
G75*
G02*
X159154808Y-130775608I200000J0D01*
G01*
X159554808Y-130775608D01*
G75*
G02*
X159754808Y-130975608I0J-200000D01*
G01*
X159754808Y-131525608D01*
G75*
G02*
X159554808Y-131725608I-200000J0D01*
G01*
X159154808Y-131725608D01*
G75*
G02*
X158954808Y-131525608I0J200000D01*
G01*
G37*
G36*
G01*
X146094100Y-148260900D02*
X146094100Y-148460900D01*
G75*
G02*
X145994100Y-148560900I-100000J0D01*
G01*
X144719100Y-148560900D01*
G75*
G02*
X144619100Y-148460900I0J100000D01*
G01*
X144619100Y-148260900D01*
G75*
G02*
X144719100Y-148160900I100000J0D01*
G01*
X145994100Y-148160900D01*
G75*
G02*
X146094100Y-148260900I0J-100000D01*
G01*
G37*
G36*
G01*
X146094100Y-147610900D02*
X146094100Y-147810900D01*
G75*
G02*
X145994100Y-147910900I-100000J0D01*
G01*
X144719100Y-147910900D01*
G75*
G02*
X144619100Y-147810900I0J100000D01*
G01*
X144619100Y-147610900D01*
G75*
G02*
X144719100Y-147510900I100000J0D01*
G01*
X145994100Y-147510900D01*
G75*
G02*
X146094100Y-147610900I0J-100000D01*
G01*
G37*
G36*
G01*
X146094100Y-146960900D02*
X146094100Y-147160900D01*
G75*
G02*
X145994100Y-147260900I-100000J0D01*
G01*
X144719100Y-147260900D01*
G75*
G02*
X144619100Y-147160900I0J100000D01*
G01*
X144619100Y-146960900D01*
G75*
G02*
X144719100Y-146860900I100000J0D01*
G01*
X145994100Y-146860900D01*
G75*
G02*
X146094100Y-146960900I0J-100000D01*
G01*
G37*
G36*
G01*
X146094100Y-146310900D02*
X146094100Y-146510900D01*
G75*
G02*
X145994100Y-146610900I-100000J0D01*
G01*
X144719100Y-146610900D01*
G75*
G02*
X144619100Y-146510900I0J100000D01*
G01*
X144619100Y-146310900D01*
G75*
G02*
X144719100Y-146210900I100000J0D01*
G01*
X145994100Y-146210900D01*
G75*
G02*
X146094100Y-146310900I0J-100000D01*
G01*
G37*
G36*
G01*
X146094100Y-145660900D02*
X146094100Y-145860900D01*
G75*
G02*
X145994100Y-145960900I-100000J0D01*
G01*
X144719100Y-145960900D01*
G75*
G02*
X144619100Y-145860900I0J100000D01*
G01*
X144619100Y-145660900D01*
G75*
G02*
X144719100Y-145560900I100000J0D01*
G01*
X145994100Y-145560900D01*
G75*
G02*
X146094100Y-145660900I0J-100000D01*
G01*
G37*
G36*
G01*
X146094100Y-145010900D02*
X146094100Y-145210900D01*
G75*
G02*
X145994100Y-145310900I-100000J0D01*
G01*
X144719100Y-145310900D01*
G75*
G02*
X144619100Y-145210900I0J100000D01*
G01*
X144619100Y-145010900D01*
G75*
G02*
X144719100Y-144910900I100000J0D01*
G01*
X145994100Y-144910900D01*
G75*
G02*
X146094100Y-145010900I0J-100000D01*
G01*
G37*
G36*
G01*
X146094100Y-144360900D02*
X146094100Y-144560900D01*
G75*
G02*
X145994100Y-144660900I-100000J0D01*
G01*
X144719100Y-144660900D01*
G75*
G02*
X144619100Y-144560900I0J100000D01*
G01*
X144619100Y-144360900D01*
G75*
G02*
X144719100Y-144260900I100000J0D01*
G01*
X145994100Y-144260900D01*
G75*
G02*
X146094100Y-144360900I0J-100000D01*
G01*
G37*
G36*
G01*
X146094100Y-143710900D02*
X146094100Y-143910900D01*
G75*
G02*
X145994100Y-144010900I-100000J0D01*
G01*
X144719100Y-144010900D01*
G75*
G02*
X144619100Y-143910900I0J100000D01*
G01*
X144619100Y-143710900D01*
G75*
G02*
X144719100Y-143610900I100000J0D01*
G01*
X145994100Y-143610900D01*
G75*
G02*
X146094100Y-143710900I0J-100000D01*
G01*
G37*
G36*
G01*
X146094100Y-143060900D02*
X146094100Y-143260900D01*
G75*
G02*
X145994100Y-143360900I-100000J0D01*
G01*
X144719100Y-143360900D01*
G75*
G02*
X144619100Y-143260900I0J100000D01*
G01*
X144619100Y-143060900D01*
G75*
G02*
X144719100Y-142960900I100000J0D01*
G01*
X145994100Y-142960900D01*
G75*
G02*
X146094100Y-143060900I0J-100000D01*
G01*
G37*
G36*
G01*
X146094100Y-142410900D02*
X146094100Y-142610900D01*
G75*
G02*
X145994100Y-142710900I-100000J0D01*
G01*
X144719100Y-142710900D01*
G75*
G02*
X144619100Y-142610900I0J100000D01*
G01*
X144619100Y-142410900D01*
G75*
G02*
X144719100Y-142310900I100000J0D01*
G01*
X145994100Y-142310900D01*
G75*
G02*
X146094100Y-142410900I0J-100000D01*
G01*
G37*
G36*
G01*
X140369100Y-142410900D02*
X140369100Y-142610900D01*
G75*
G02*
X140269100Y-142710900I-100000J0D01*
G01*
X138994100Y-142710900D01*
G75*
G02*
X138894100Y-142610900I0J100000D01*
G01*
X138894100Y-142410900D01*
G75*
G02*
X138994100Y-142310900I100000J0D01*
G01*
X140269100Y-142310900D01*
G75*
G02*
X140369100Y-142410900I0J-100000D01*
G01*
G37*
G36*
G01*
X140369100Y-143060900D02*
X140369100Y-143260900D01*
G75*
G02*
X140269100Y-143360900I-100000J0D01*
G01*
X138994100Y-143360900D01*
G75*
G02*
X138894100Y-143260900I0J100000D01*
G01*
X138894100Y-143060900D01*
G75*
G02*
X138994100Y-142960900I100000J0D01*
G01*
X140269100Y-142960900D01*
G75*
G02*
X140369100Y-143060900I0J-100000D01*
G01*
G37*
G36*
G01*
X140369100Y-143710900D02*
X140369100Y-143910900D01*
G75*
G02*
X140269100Y-144010900I-100000J0D01*
G01*
X138994100Y-144010900D01*
G75*
G02*
X138894100Y-143910900I0J100000D01*
G01*
X138894100Y-143710900D01*
G75*
G02*
X138994100Y-143610900I100000J0D01*
G01*
X140269100Y-143610900D01*
G75*
G02*
X140369100Y-143710900I0J-100000D01*
G01*
G37*
G36*
G01*
X140369100Y-144360900D02*
X140369100Y-144560900D01*
G75*
G02*
X140269100Y-144660900I-100000J0D01*
G01*
X138994100Y-144660900D01*
G75*
G02*
X138894100Y-144560900I0J100000D01*
G01*
X138894100Y-144360900D01*
G75*
G02*
X138994100Y-144260900I100000J0D01*
G01*
X140269100Y-144260900D01*
G75*
G02*
X140369100Y-144360900I0J-100000D01*
G01*
G37*
G36*
G01*
X140369100Y-145010900D02*
X140369100Y-145210900D01*
G75*
G02*
X140269100Y-145310900I-100000J0D01*
G01*
X138994100Y-145310900D01*
G75*
G02*
X138894100Y-145210900I0J100000D01*
G01*
X138894100Y-145010900D01*
G75*
G02*
X138994100Y-144910900I100000J0D01*
G01*
X140269100Y-144910900D01*
G75*
G02*
X140369100Y-145010900I0J-100000D01*
G01*
G37*
G36*
G01*
X140369100Y-145660900D02*
X140369100Y-145860900D01*
G75*
G02*
X140269100Y-145960900I-100000J0D01*
G01*
X138994100Y-145960900D01*
G75*
G02*
X138894100Y-145860900I0J100000D01*
G01*
X138894100Y-145660900D01*
G75*
G02*
X138994100Y-145560900I100000J0D01*
G01*
X140269100Y-145560900D01*
G75*
G02*
X140369100Y-145660900I0J-100000D01*
G01*
G37*
G36*
G01*
X140369100Y-146310900D02*
X140369100Y-146510900D01*
G75*
G02*
X140269100Y-146610900I-100000J0D01*
G01*
X138994100Y-146610900D01*
G75*
G02*
X138894100Y-146510900I0J100000D01*
G01*
X138894100Y-146310900D01*
G75*
G02*
X138994100Y-146210900I100000J0D01*
G01*
X140269100Y-146210900D01*
G75*
G02*
X140369100Y-146310900I0J-100000D01*
G01*
G37*
G36*
G01*
X140369100Y-146960900D02*
X140369100Y-147160900D01*
G75*
G02*
X140269100Y-147260900I-100000J0D01*
G01*
X138994100Y-147260900D01*
G75*
G02*
X138894100Y-147160900I0J100000D01*
G01*
X138894100Y-146960900D01*
G75*
G02*
X138994100Y-146860900I100000J0D01*
G01*
X140269100Y-146860900D01*
G75*
G02*
X140369100Y-146960900I0J-100000D01*
G01*
G37*
G36*
G01*
X140369100Y-147610900D02*
X140369100Y-147810900D01*
G75*
G02*
X140269100Y-147910900I-100000J0D01*
G01*
X138994100Y-147910900D01*
G75*
G02*
X138894100Y-147810900I0J100000D01*
G01*
X138894100Y-147610900D01*
G75*
G02*
X138994100Y-147510900I100000J0D01*
G01*
X140269100Y-147510900D01*
G75*
G02*
X140369100Y-147610900I0J-100000D01*
G01*
G37*
G36*
G01*
X140369100Y-148260900D02*
X140369100Y-148460900D01*
G75*
G02*
X140269100Y-148560900I-100000J0D01*
G01*
X138994100Y-148560900D01*
G75*
G02*
X138894100Y-148460900I0J100000D01*
G01*
X138894100Y-148260900D01*
G75*
G02*
X138994100Y-148160900I100000J0D01*
G01*
X140269100Y-148160900D01*
G75*
G02*
X140369100Y-148260900I0J-100000D01*
G01*
G37*
G36*
G01*
X146094100Y-141199700D02*
X146094100Y-141399700D01*
G75*
G02*
X145994100Y-141499700I-100000J0D01*
G01*
X144719100Y-141499700D01*
G75*
G02*
X144619100Y-141399700I0J100000D01*
G01*
X144619100Y-141199700D01*
G75*
G02*
X144719100Y-141099700I100000J0D01*
G01*
X145994100Y-141099700D01*
G75*
G02*
X146094100Y-141199700I0J-100000D01*
G01*
G37*
G36*
G01*
X146094100Y-140549700D02*
X146094100Y-140749700D01*
G75*
G02*
X145994100Y-140849700I-100000J0D01*
G01*
X144719100Y-140849700D01*
G75*
G02*
X144619100Y-140749700I0J100000D01*
G01*
X144619100Y-140549700D01*
G75*
G02*
X144719100Y-140449700I100000J0D01*
G01*
X145994100Y-140449700D01*
G75*
G02*
X146094100Y-140549700I0J-100000D01*
G01*
G37*
G36*
G01*
X146094100Y-139899700D02*
X146094100Y-140099700D01*
G75*
G02*
X145994100Y-140199700I-100000J0D01*
G01*
X144719100Y-140199700D01*
G75*
G02*
X144619100Y-140099700I0J100000D01*
G01*
X144619100Y-139899700D01*
G75*
G02*
X144719100Y-139799700I100000J0D01*
G01*
X145994100Y-139799700D01*
G75*
G02*
X146094100Y-139899700I0J-100000D01*
G01*
G37*
G36*
G01*
X146094100Y-139249700D02*
X146094100Y-139449700D01*
G75*
G02*
X145994100Y-139549700I-100000J0D01*
G01*
X144719100Y-139549700D01*
G75*
G02*
X144619100Y-139449700I0J100000D01*
G01*
X144619100Y-139249700D01*
G75*
G02*
X144719100Y-139149700I100000J0D01*
G01*
X145994100Y-139149700D01*
G75*
G02*
X146094100Y-139249700I0J-100000D01*
G01*
G37*
G36*
G01*
X146094100Y-138599700D02*
X146094100Y-138799700D01*
G75*
G02*
X145994100Y-138899700I-100000J0D01*
G01*
X144719100Y-138899700D01*
G75*
G02*
X144619100Y-138799700I0J100000D01*
G01*
X144619100Y-138599700D01*
G75*
G02*
X144719100Y-138499700I100000J0D01*
G01*
X145994100Y-138499700D01*
G75*
G02*
X146094100Y-138599700I0J-100000D01*
G01*
G37*
G36*
G01*
X146094100Y-137949700D02*
X146094100Y-138149700D01*
G75*
G02*
X145994100Y-138249700I-100000J0D01*
G01*
X144719100Y-138249700D01*
G75*
G02*
X144619100Y-138149700I0J100000D01*
G01*
X144619100Y-137949700D01*
G75*
G02*
X144719100Y-137849700I100000J0D01*
G01*
X145994100Y-137849700D01*
G75*
G02*
X146094100Y-137949700I0J-100000D01*
G01*
G37*
G36*
G01*
X146094100Y-137299700D02*
X146094100Y-137499700D01*
G75*
G02*
X145994100Y-137599700I-100000J0D01*
G01*
X144719100Y-137599700D01*
G75*
G02*
X144619100Y-137499700I0J100000D01*
G01*
X144619100Y-137299700D01*
G75*
G02*
X144719100Y-137199700I100000J0D01*
G01*
X145994100Y-137199700D01*
G75*
G02*
X146094100Y-137299700I0J-100000D01*
G01*
G37*
G36*
G01*
X146094100Y-136649700D02*
X146094100Y-136849700D01*
G75*
G02*
X145994100Y-136949700I-100000J0D01*
G01*
X144719100Y-136949700D01*
G75*
G02*
X144619100Y-136849700I0J100000D01*
G01*
X144619100Y-136649700D01*
G75*
G02*
X144719100Y-136549700I100000J0D01*
G01*
X145994100Y-136549700D01*
G75*
G02*
X146094100Y-136649700I0J-100000D01*
G01*
G37*
G36*
G01*
X146094100Y-135999700D02*
X146094100Y-136199700D01*
G75*
G02*
X145994100Y-136299700I-100000J0D01*
G01*
X144719100Y-136299700D01*
G75*
G02*
X144619100Y-136199700I0J100000D01*
G01*
X144619100Y-135999700D01*
G75*
G02*
X144719100Y-135899700I100000J0D01*
G01*
X145994100Y-135899700D01*
G75*
G02*
X146094100Y-135999700I0J-100000D01*
G01*
G37*
G36*
G01*
X146094100Y-135349700D02*
X146094100Y-135549700D01*
G75*
G02*
X145994100Y-135649700I-100000J0D01*
G01*
X144719100Y-135649700D01*
G75*
G02*
X144619100Y-135549700I0J100000D01*
G01*
X144619100Y-135349700D01*
G75*
G02*
X144719100Y-135249700I100000J0D01*
G01*
X145994100Y-135249700D01*
G75*
G02*
X146094100Y-135349700I0J-100000D01*
G01*
G37*
G36*
G01*
X140369100Y-135349700D02*
X140369100Y-135549700D01*
G75*
G02*
X140269100Y-135649700I-100000J0D01*
G01*
X138994100Y-135649700D01*
G75*
G02*
X138894100Y-135549700I0J100000D01*
G01*
X138894100Y-135349700D01*
G75*
G02*
X138994100Y-135249700I100000J0D01*
G01*
X140269100Y-135249700D01*
G75*
G02*
X140369100Y-135349700I0J-100000D01*
G01*
G37*
G36*
G01*
X140369100Y-135999700D02*
X140369100Y-136199700D01*
G75*
G02*
X140269100Y-136299700I-100000J0D01*
G01*
X138994100Y-136299700D01*
G75*
G02*
X138894100Y-136199700I0J100000D01*
G01*
X138894100Y-135999700D01*
G75*
G02*
X138994100Y-135899700I100000J0D01*
G01*
X140269100Y-135899700D01*
G75*
G02*
X140369100Y-135999700I0J-100000D01*
G01*
G37*
G36*
G01*
X140369100Y-136649700D02*
X140369100Y-136849700D01*
G75*
G02*
X140269100Y-136949700I-100000J0D01*
G01*
X138994100Y-136949700D01*
G75*
G02*
X138894100Y-136849700I0J100000D01*
G01*
X138894100Y-136649700D01*
G75*
G02*
X138994100Y-136549700I100000J0D01*
G01*
X140269100Y-136549700D01*
G75*
G02*
X140369100Y-136649700I0J-100000D01*
G01*
G37*
G36*
G01*
X140369100Y-137299700D02*
X140369100Y-137499700D01*
G75*
G02*
X140269100Y-137599700I-100000J0D01*
G01*
X138994100Y-137599700D01*
G75*
G02*
X138894100Y-137499700I0J100000D01*
G01*
X138894100Y-137299700D01*
G75*
G02*
X138994100Y-137199700I100000J0D01*
G01*
X140269100Y-137199700D01*
G75*
G02*
X140369100Y-137299700I0J-100000D01*
G01*
G37*
G36*
G01*
X140369100Y-137949700D02*
X140369100Y-138149700D01*
G75*
G02*
X140269100Y-138249700I-100000J0D01*
G01*
X138994100Y-138249700D01*
G75*
G02*
X138894100Y-138149700I0J100000D01*
G01*
X138894100Y-137949700D01*
G75*
G02*
X138994100Y-137849700I100000J0D01*
G01*
X140269100Y-137849700D01*
G75*
G02*
X140369100Y-137949700I0J-100000D01*
G01*
G37*
G36*
G01*
X140369100Y-138599700D02*
X140369100Y-138799700D01*
G75*
G02*
X140269100Y-138899700I-100000J0D01*
G01*
X138994100Y-138899700D01*
G75*
G02*
X138894100Y-138799700I0J100000D01*
G01*
X138894100Y-138599700D01*
G75*
G02*
X138994100Y-138499700I100000J0D01*
G01*
X140269100Y-138499700D01*
G75*
G02*
X140369100Y-138599700I0J-100000D01*
G01*
G37*
G36*
G01*
X140369100Y-139249700D02*
X140369100Y-139449700D01*
G75*
G02*
X140269100Y-139549700I-100000J0D01*
G01*
X138994100Y-139549700D01*
G75*
G02*
X138894100Y-139449700I0J100000D01*
G01*
X138894100Y-139249700D01*
G75*
G02*
X138994100Y-139149700I100000J0D01*
G01*
X140269100Y-139149700D01*
G75*
G02*
X140369100Y-139249700I0J-100000D01*
G01*
G37*
G36*
G01*
X140369100Y-139899700D02*
X140369100Y-140099700D01*
G75*
G02*
X140269100Y-140199700I-100000J0D01*
G01*
X138994100Y-140199700D01*
G75*
G02*
X138894100Y-140099700I0J100000D01*
G01*
X138894100Y-139899700D01*
G75*
G02*
X138994100Y-139799700I100000J0D01*
G01*
X140269100Y-139799700D01*
G75*
G02*
X140369100Y-139899700I0J-100000D01*
G01*
G37*
G36*
G01*
X140369100Y-140549700D02*
X140369100Y-140749700D01*
G75*
G02*
X140269100Y-140849700I-100000J0D01*
G01*
X138994100Y-140849700D01*
G75*
G02*
X138894100Y-140749700I0J100000D01*
G01*
X138894100Y-140549700D01*
G75*
G02*
X138994100Y-140449700I100000J0D01*
G01*
X140269100Y-140449700D01*
G75*
G02*
X140369100Y-140549700I0J-100000D01*
G01*
G37*
G36*
G01*
X140369100Y-141199700D02*
X140369100Y-141399700D01*
G75*
G02*
X140269100Y-141499700I-100000J0D01*
G01*
X138994100Y-141499700D01*
G75*
G02*
X138894100Y-141399700I0J100000D01*
G01*
X138894100Y-141199700D01*
G75*
G02*
X138994100Y-141099700I100000J0D01*
G01*
X140269100Y-141099700D01*
G75*
G02*
X140369100Y-141199700I0J-100000D01*
G01*
G37*
G36*
G01*
X143140908Y-120201700D02*
X143140908Y-119351700D01*
G75*
G02*
X143390908Y-119101700I250000J0D01*
G01*
X144290908Y-119101700D01*
G75*
G02*
X144540908Y-119351700I0J-250000D01*
G01*
X144540908Y-120201700D01*
G75*
G02*
X144290908Y-120451700I-250000J0D01*
G01*
X143390908Y-120451700D01*
G75*
G02*
X143140908Y-120201700I0J250000D01*
G01*
G37*
G36*
G01*
X145840908Y-120201700D02*
X145840908Y-119351700D01*
G75*
G02*
X146090908Y-119101700I250000J0D01*
G01*
X146990908Y-119101700D01*
G75*
G02*
X147240908Y-119351700I0J-250000D01*
G01*
X147240908Y-120201700D01*
G75*
G02*
X146990908Y-120451700I-250000J0D01*
G01*
X146090908Y-120451700D01*
G75*
G02*
X145840908Y-120201700I0J250000D01*
G01*
G37*
G36*
G01*
X154601283Y-117752229D02*
X154247729Y-118105783D01*
G75*
G02*
X153929531Y-118105783I-159099J159099D01*
G01*
X153611333Y-117787585D01*
G75*
G02*
X153611333Y-117469387I159099J159099D01*
G01*
X153964887Y-117115833D01*
G75*
G02*
X154283085Y-117115833I159099J-159099D01*
G01*
X154601283Y-117434031D01*
G75*
G02*
X154601283Y-117752229I-159099J-159099D01*
G01*
G37*
G36*
G01*
X153505267Y-116656213D02*
X153151713Y-117009767D01*
G75*
G02*
X152833515Y-117009767I-159099J159099D01*
G01*
X152515317Y-116691569D01*
G75*
G02*
X152515317Y-116373371I159099J159099D01*
G01*
X152868871Y-116019817D01*
G75*
G02*
X153187069Y-116019817I159099J-159099D01*
G01*
X153505267Y-116338015D01*
G75*
G02*
X153505267Y-116656213I-159099J-159099D01*
G01*
G37*
G36*
G01*
X114637800Y-95272400D02*
X114637800Y-95822400D01*
G75*
G02*
X114437800Y-96022400I-200000J0D01*
G01*
X114037800Y-96022400D01*
G75*
G02*
X113837800Y-95822400I0J200000D01*
G01*
X113837800Y-95272400D01*
G75*
G02*
X114037800Y-95072400I200000J0D01*
G01*
X114437800Y-95072400D01*
G75*
G02*
X114637800Y-95272400I0J-200000D01*
G01*
G37*
G36*
G01*
X112987800Y-95272400D02*
X112987800Y-95822400D01*
G75*
G02*
X112787800Y-96022400I-200000J0D01*
G01*
X112387800Y-96022400D01*
G75*
G02*
X112187800Y-95822400I0J200000D01*
G01*
X112187800Y-95272400D01*
G75*
G02*
X112387800Y-95072400I200000J0D01*
G01*
X112787800Y-95072400D01*
G75*
G02*
X112987800Y-95272400I0J-200000D01*
G01*
G37*
G36*
G01*
X119909100Y-139190200D02*
X119909100Y-139690200D01*
G75*
G02*
X119684100Y-139915200I-225000J0D01*
G01*
X119234100Y-139915200D01*
G75*
G02*
X119009100Y-139690200I0J225000D01*
G01*
X119009100Y-139190200D01*
G75*
G02*
X119234100Y-138965200I225000J0D01*
G01*
X119684100Y-138965200D01*
G75*
G02*
X119909100Y-139190200I0J-225000D01*
G01*
G37*
G36*
G01*
X118359100Y-139190200D02*
X118359100Y-139690200D01*
G75*
G02*
X118134100Y-139915200I-225000J0D01*
G01*
X117684100Y-139915200D01*
G75*
G02*
X117459100Y-139690200I0J225000D01*
G01*
X117459100Y-139190200D01*
G75*
G02*
X117684100Y-138965200I225000J0D01*
G01*
X118134100Y-138965200D01*
G75*
G02*
X118359100Y-139190200I0J-225000D01*
G01*
G37*
G36*
G01*
X163226200Y-134065200D02*
X163226200Y-134565200D01*
G75*
G02*
X163001200Y-134790200I-225000J0D01*
G01*
X162551200Y-134790200D01*
G75*
G02*
X162326200Y-134565200I0J225000D01*
G01*
X162326200Y-134065200D01*
G75*
G02*
X162551200Y-133840200I225000J0D01*
G01*
X163001200Y-133840200D01*
G75*
G02*
X163226200Y-134065200I0J-225000D01*
G01*
G37*
G36*
G01*
X161676200Y-134065200D02*
X161676200Y-134565200D01*
G75*
G02*
X161451200Y-134790200I-225000J0D01*
G01*
X161001200Y-134790200D01*
G75*
G02*
X160776200Y-134565200I0J225000D01*
G01*
X160776200Y-134065200D01*
G75*
G02*
X161001200Y-133840200I225000J0D01*
G01*
X161451200Y-133840200D01*
G75*
G02*
X161676200Y-134065200I0J-225000D01*
G01*
G37*
G36*
G01*
X178049000Y-143595700D02*
X177199000Y-143595700D01*
G75*
G02*
X176949000Y-143345700I0J250000D01*
G01*
X176949000Y-142445700D01*
G75*
G02*
X177199000Y-142195700I250000J0D01*
G01*
X178049000Y-142195700D01*
G75*
G02*
X178299000Y-142445700I0J-250000D01*
G01*
X178299000Y-143345700D01*
G75*
G02*
X178049000Y-143595700I-250000J0D01*
G01*
G37*
G36*
G01*
X178049000Y-140895700D02*
X177199000Y-140895700D01*
G75*
G02*
X176949000Y-140645700I0J250000D01*
G01*
X176949000Y-139745700D01*
G75*
G02*
X177199000Y-139495700I250000J0D01*
G01*
X178049000Y-139495700D01*
G75*
G02*
X178299000Y-139745700I0J-250000D01*
G01*
X178299000Y-140645700D01*
G75*
G02*
X178049000Y-140895700I-250000J0D01*
G01*
G37*
G36*
G01*
X117763600Y-149423400D02*
X117763600Y-148573400D01*
G75*
G02*
X118013600Y-148323400I250000J0D01*
G01*
X118913600Y-148323400D01*
G75*
G02*
X119163600Y-148573400I0J-250000D01*
G01*
X119163600Y-149423400D01*
G75*
G02*
X118913600Y-149673400I-250000J0D01*
G01*
X118013600Y-149673400D01*
G75*
G02*
X117763600Y-149423400I0J250000D01*
G01*
G37*
G36*
G01*
X120463600Y-149423400D02*
X120463600Y-148573400D01*
G75*
G02*
X120713600Y-148323400I250000J0D01*
G01*
X121613600Y-148323400D01*
G75*
G02*
X121863600Y-148573400I0J-250000D01*
G01*
X121863600Y-149423400D01*
G75*
G02*
X121613600Y-149673400I-250000J0D01*
G01*
X120713600Y-149673400D01*
G75*
G02*
X120463600Y-149423400I0J250000D01*
G01*
G37*
G36*
G01*
X160105700Y-149663600D02*
X160105700Y-149163600D01*
G75*
G02*
X160330700Y-148938600I225000J0D01*
G01*
X160780700Y-148938600D01*
G75*
G02*
X161005700Y-149163600I0J-225000D01*
G01*
X161005700Y-149663600D01*
G75*
G02*
X160780700Y-149888600I-225000J0D01*
G01*
X160330700Y-149888600D01*
G75*
G02*
X160105700Y-149663600I0J225000D01*
G01*
G37*
G36*
G01*
X161655700Y-149663600D02*
X161655700Y-149163600D01*
G75*
G02*
X161880700Y-148938600I225000J0D01*
G01*
X162330700Y-148938600D01*
G75*
G02*
X162555700Y-149163600I0J-225000D01*
G01*
X162555700Y-149663600D01*
G75*
G02*
X162330700Y-149888600I-225000J0D01*
G01*
X161880700Y-149888600D01*
G75*
G02*
X161655700Y-149663600I0J225000D01*
G01*
G37*
G36*
G01*
X147240908Y-127606700D02*
X147240908Y-128456700D01*
G75*
G02*
X146990908Y-128706700I-250000J0D01*
G01*
X146090908Y-128706700D01*
G75*
G02*
X145840908Y-128456700I0J250000D01*
G01*
X145840908Y-127606700D01*
G75*
G02*
X146090908Y-127356700I250000J0D01*
G01*
X146990908Y-127356700D01*
G75*
G02*
X147240908Y-127606700I0J-250000D01*
G01*
G37*
G36*
G01*
X144540908Y-127606700D02*
X144540908Y-128456700D01*
G75*
G02*
X144290908Y-128706700I-250000J0D01*
G01*
X143390908Y-128706700D01*
G75*
G02*
X143140908Y-128456700I0J250000D01*
G01*
X143140908Y-127606700D01*
G75*
G02*
X143390908Y-127356700I250000J0D01*
G01*
X144290908Y-127356700D01*
G75*
G02*
X144540908Y-127606700I0J-250000D01*
G01*
G37*
D10*
X146843308Y-122285408D03*
G36*
X144476808Y-126235408D02*
G01*
X144476808Y-123110408D01*
X144893308Y-123110408D01*
X144893308Y-121635408D01*
X145793308Y-121635408D01*
X145793308Y-123110408D01*
X146209808Y-123110408D01*
X146209808Y-126235408D01*
X144476808Y-126235408D01*
G37*
X143843308Y-122285408D03*
G36*
G01*
X120206400Y-120163600D02*
X120206400Y-120663600D01*
G75*
G02*
X119981400Y-120888600I-225000J0D01*
G01*
X119531400Y-120888600D01*
G75*
G02*
X119306400Y-120663600I0J225000D01*
G01*
X119306400Y-120163600D01*
G75*
G02*
X119531400Y-119938600I225000J0D01*
G01*
X119981400Y-119938600D01*
G75*
G02*
X120206400Y-120163600I0J-225000D01*
G01*
G37*
G36*
G01*
X118656400Y-120163600D02*
X118656400Y-120663600D01*
G75*
G02*
X118431400Y-120888600I-225000J0D01*
G01*
X117981400Y-120888600D01*
G75*
G02*
X117756400Y-120663600I0J225000D01*
G01*
X117756400Y-120163600D01*
G75*
G02*
X117981400Y-119938600I225000J0D01*
G01*
X118431400Y-119938600D01*
G75*
G02*
X118656400Y-120163600I0J-225000D01*
G01*
G37*
G36*
G01*
X111697200Y-131314100D02*
X111147200Y-131314100D01*
G75*
G02*
X110947200Y-131114100I0J200000D01*
G01*
X110947200Y-130714100D01*
G75*
G02*
X111147200Y-130514100I200000J0D01*
G01*
X111697200Y-130514100D01*
G75*
G02*
X111897200Y-130714100I0J-200000D01*
G01*
X111897200Y-131114100D01*
G75*
G02*
X111697200Y-131314100I-200000J0D01*
G01*
G37*
G36*
G01*
X111697200Y-129664100D02*
X111147200Y-129664100D01*
G75*
G02*
X110947200Y-129464100I0J200000D01*
G01*
X110947200Y-129064100D01*
G75*
G02*
X111147200Y-128864100I200000J0D01*
G01*
X111697200Y-128864100D01*
G75*
G02*
X111897200Y-129064100I0J-200000D01*
G01*
X111897200Y-129464100D01*
G75*
G02*
X111697200Y-129664100I-200000J0D01*
G01*
G37*
G36*
G01*
X140498700Y-125984000D02*
X139998700Y-125984000D01*
G75*
G02*
X139773700Y-125759000I0J225000D01*
G01*
X139773700Y-125309000D01*
G75*
G02*
X139998700Y-125084000I225000J0D01*
G01*
X140498700Y-125084000D01*
G75*
G02*
X140723700Y-125309000I0J-225000D01*
G01*
X140723700Y-125759000D01*
G75*
G02*
X140498700Y-125984000I-225000J0D01*
G01*
G37*
G36*
G01*
X140498700Y-124434000D02*
X139998700Y-124434000D01*
G75*
G02*
X139773700Y-124209000I0J225000D01*
G01*
X139773700Y-123759000D01*
G75*
G02*
X139998700Y-123534000I225000J0D01*
G01*
X140498700Y-123534000D01*
G75*
G02*
X140723700Y-123759000I0J-225000D01*
G01*
X140723700Y-124209000D01*
G75*
G02*
X140498700Y-124434000I-225000J0D01*
G01*
G37*
G36*
G01*
X119883700Y-130198600D02*
X119883700Y-130698600D01*
G75*
G02*
X119658700Y-130923600I-225000J0D01*
G01*
X119208700Y-130923600D01*
G75*
G02*
X118983700Y-130698600I0J225000D01*
G01*
X118983700Y-130198600D01*
G75*
G02*
X119208700Y-129973600I225000J0D01*
G01*
X119658700Y-129973600D01*
G75*
G02*
X119883700Y-130198600I0J-225000D01*
G01*
G37*
G36*
G01*
X118333700Y-130198600D02*
X118333700Y-130698600D01*
G75*
G02*
X118108700Y-130923600I-225000J0D01*
G01*
X117658700Y-130923600D01*
G75*
G02*
X117433700Y-130698600I0J225000D01*
G01*
X117433700Y-130198600D01*
G75*
G02*
X117658700Y-129973600I225000J0D01*
G01*
X118108700Y-129973600D01*
G75*
G02*
X118333700Y-130198600I0J-225000D01*
G01*
G37*
D11*
X150511200Y-138693500D03*
D12*
X150511200Y-139493500D03*
X150511200Y-140293500D03*
D11*
X150511200Y-141093500D03*
X152311200Y-141093500D03*
D12*
X152311200Y-140293500D03*
X152311200Y-139493500D03*
D11*
X152311200Y-138693500D03*
G36*
G01*
X110832200Y-110958500D02*
X110832200Y-110408500D01*
G75*
G02*
X111032200Y-110208500I200000J0D01*
G01*
X111432200Y-110208500D01*
G75*
G02*
X111632200Y-110408500I0J-200000D01*
G01*
X111632200Y-110958500D01*
G75*
G02*
X111432200Y-111158500I-200000J0D01*
G01*
X111032200Y-111158500D01*
G75*
G02*
X110832200Y-110958500I0J200000D01*
G01*
G37*
G36*
G01*
X112482200Y-110958500D02*
X112482200Y-110408500D01*
G75*
G02*
X112682200Y-110208500I200000J0D01*
G01*
X113082200Y-110208500D01*
G75*
G02*
X113282200Y-110408500I0J-200000D01*
G01*
X113282200Y-110958500D01*
G75*
G02*
X113082200Y-111158500I-200000J0D01*
G01*
X112682200Y-111158500D01*
G75*
G02*
X112482200Y-110958500I0J200000D01*
G01*
G37*
G36*
G01*
X111578200Y-149857600D02*
X111578200Y-149307600D01*
G75*
G02*
X111778200Y-149107600I200000J0D01*
G01*
X112178200Y-149107600D01*
G75*
G02*
X112378200Y-149307600I0J-200000D01*
G01*
X112378200Y-149857600D01*
G75*
G02*
X112178200Y-150057600I-200000J0D01*
G01*
X111778200Y-150057600D01*
G75*
G02*
X111578200Y-149857600I0J200000D01*
G01*
G37*
G36*
G01*
X113228200Y-149857600D02*
X113228200Y-149307600D01*
G75*
G02*
X113428200Y-149107600I200000J0D01*
G01*
X113828200Y-149107600D01*
G75*
G02*
X114028200Y-149307600I0J-200000D01*
G01*
X114028200Y-149857600D01*
G75*
G02*
X113828200Y-150057600I-200000J0D01*
G01*
X113428200Y-150057600D01*
G75*
G02*
X113228200Y-149857600I0J200000D01*
G01*
G37*
X147387000Y-145757000D03*
D12*
X147387000Y-146557000D03*
X147387000Y-147357000D03*
D11*
X147387000Y-148157000D03*
X149187000Y-148157000D03*
D12*
X149187000Y-147357000D03*
X149187000Y-146557000D03*
D11*
X149187000Y-145757000D03*
G36*
G01*
X170676317Y-126914371D02*
X171029871Y-126560817D01*
G75*
G02*
X171348069Y-126560817I159099J-159099D01*
G01*
X171666267Y-126879015D01*
G75*
G02*
X171666267Y-127197213I-159099J-159099D01*
G01*
X171312713Y-127550767D01*
G75*
G02*
X170994515Y-127550767I-159099J159099D01*
G01*
X170676317Y-127232569D01*
G75*
G02*
X170676317Y-126914371I159099J159099D01*
G01*
G37*
G36*
G01*
X171772333Y-128010387D02*
X172125887Y-127656833D01*
G75*
G02*
X172444085Y-127656833I159099J-159099D01*
G01*
X172762283Y-127975031D01*
G75*
G02*
X172762283Y-128293229I-159099J-159099D01*
G01*
X172408729Y-128646783D01*
G75*
G02*
X172090531Y-128646783I-159099J159099D01*
G01*
X171772333Y-128328585D01*
G75*
G02*
X171772333Y-128010387I159099J159099D01*
G01*
G37*
G36*
G01*
X111578200Y-148359000D02*
X111578200Y-147809000D01*
G75*
G02*
X111778200Y-147609000I200000J0D01*
G01*
X112178200Y-147609000D01*
G75*
G02*
X112378200Y-147809000I0J-200000D01*
G01*
X112378200Y-148359000D01*
G75*
G02*
X112178200Y-148559000I-200000J0D01*
G01*
X111778200Y-148559000D01*
G75*
G02*
X111578200Y-148359000I0J200000D01*
G01*
G37*
G36*
G01*
X113228200Y-148359000D02*
X113228200Y-147809000D01*
G75*
G02*
X113428200Y-147609000I200000J0D01*
G01*
X113828200Y-147609000D01*
G75*
G02*
X114028200Y-147809000I0J-200000D01*
G01*
X114028200Y-148359000D01*
G75*
G02*
X113828200Y-148559000I-200000J0D01*
G01*
X113428200Y-148559000D01*
G75*
G02*
X113228200Y-148359000I0J200000D01*
G01*
G37*
G36*
G01*
X124521200Y-104111700D02*
X124521200Y-104961700D01*
G75*
G02*
X124271200Y-105211700I-250000J0D01*
G01*
X123371200Y-105211700D01*
G75*
G02*
X123121200Y-104961700I0J250000D01*
G01*
X123121200Y-104111700D01*
G75*
G02*
X123371200Y-103861700I250000J0D01*
G01*
X124271200Y-103861700D01*
G75*
G02*
X124521200Y-104111700I0J-250000D01*
G01*
G37*
G36*
G01*
X121821200Y-104111700D02*
X121821200Y-104961700D01*
G75*
G02*
X121571200Y-105211700I-250000J0D01*
G01*
X120671200Y-105211700D01*
G75*
G02*
X120421200Y-104961700I0J250000D01*
G01*
X120421200Y-104111700D01*
G75*
G02*
X120671200Y-103861700I250000J0D01*
G01*
X121571200Y-103861700D01*
G75*
G02*
X121821200Y-104111700I0J-250000D01*
G01*
G37*
D13*
X153670608Y-128714100D03*
X153670608Y-131464100D03*
X155870608Y-131464100D03*
X155870608Y-128714100D03*
D14*
X174879000Y-131446600D03*
X176149000Y-131446600D03*
X177419000Y-131446600D03*
X178689000Y-131446600D03*
X178689000Y-125296600D03*
X177419000Y-125296600D03*
X176149000Y-125296600D03*
X174879000Y-125296600D03*
D11*
X150511200Y-142709000D03*
D12*
X150511200Y-143509000D03*
X150511200Y-144309000D03*
D11*
X150511200Y-145109000D03*
X152311200Y-145109000D03*
D12*
X152311200Y-144309000D03*
X152311200Y-143509000D03*
D11*
X152311200Y-142709000D03*
G36*
G01*
X154884900Y-123772400D02*
X154884900Y-124272400D01*
G75*
G02*
X154659900Y-124497400I-225000J0D01*
G01*
X154209900Y-124497400D01*
G75*
G02*
X153984900Y-124272400I0J225000D01*
G01*
X153984900Y-123772400D01*
G75*
G02*
X154209900Y-123547400I225000J0D01*
G01*
X154659900Y-123547400D01*
G75*
G02*
X154884900Y-123772400I0J-225000D01*
G01*
G37*
G36*
G01*
X153334900Y-123772400D02*
X153334900Y-124272400D01*
G75*
G02*
X153109900Y-124497400I-225000J0D01*
G01*
X152659900Y-124497400D01*
G75*
G02*
X152434900Y-124272400I0J225000D01*
G01*
X152434900Y-123772400D01*
G75*
G02*
X152659900Y-123547400I225000J0D01*
G01*
X153109900Y-123547400D01*
G75*
G02*
X153334900Y-123772400I0J-225000D01*
G01*
G37*
G36*
G01*
X154580100Y-149163600D02*
X154580100Y-149663600D01*
G75*
G02*
X154355100Y-149888600I-225000J0D01*
G01*
X153905100Y-149888600D01*
G75*
G02*
X153680100Y-149663600I0J225000D01*
G01*
X153680100Y-149163600D01*
G75*
G02*
X153905100Y-148938600I225000J0D01*
G01*
X154355100Y-148938600D01*
G75*
G02*
X154580100Y-149163600I0J-225000D01*
G01*
G37*
G36*
G01*
X153030100Y-149163600D02*
X153030100Y-149663600D01*
G75*
G02*
X152805100Y-149888600I-225000J0D01*
G01*
X152355100Y-149888600D01*
G75*
G02*
X152130100Y-149663600I0J225000D01*
G01*
X152130100Y-149163600D01*
G75*
G02*
X152355100Y-148938600I225000J0D01*
G01*
X152805100Y-148938600D01*
G75*
G02*
X153030100Y-149163600I0J-225000D01*
G01*
G37*
G36*
G01*
X158614483Y-113739029D02*
X158260929Y-114092583D01*
G75*
G02*
X157942731Y-114092583I-159099J159099D01*
G01*
X157624533Y-113774385D01*
G75*
G02*
X157624533Y-113456187I159099J159099D01*
G01*
X157978087Y-113102633D01*
G75*
G02*
X158296285Y-113102633I159099J-159099D01*
G01*
X158614483Y-113420831D01*
G75*
G02*
X158614483Y-113739029I-159099J-159099D01*
G01*
G37*
G36*
G01*
X157518467Y-112643013D02*
X157164913Y-112996567D01*
G75*
G02*
X156846715Y-112996567I-159099J159099D01*
G01*
X156528517Y-112678369D01*
G75*
G02*
X156528517Y-112360171I159099J159099D01*
G01*
X156882071Y-112006617D01*
G75*
G02*
X157200269Y-112006617I159099J-159099D01*
G01*
X157518467Y-112324815D01*
G75*
G02*
X157518467Y-112643013I-159099J-159099D01*
G01*
G37*
G36*
G01*
X112712500Y-121888329D02*
X112712500Y-121688329D01*
G75*
G02*
X112812500Y-121588329I100000J0D01*
G01*
X114087500Y-121588329D01*
G75*
G02*
X114187500Y-121688329I0J-100000D01*
G01*
X114187500Y-121888329D01*
G75*
G02*
X114087500Y-121988329I-100000J0D01*
G01*
X112812500Y-121988329D01*
G75*
G02*
X112712500Y-121888329I0J100000D01*
G01*
G37*
G36*
G01*
X112712500Y-122538329D02*
X112712500Y-122338329D01*
G75*
G02*
X112812500Y-122238329I100000J0D01*
G01*
X114087500Y-122238329D01*
G75*
G02*
X114187500Y-122338329I0J-100000D01*
G01*
X114187500Y-122538329D01*
G75*
G02*
X114087500Y-122638329I-100000J0D01*
G01*
X112812500Y-122638329D01*
G75*
G02*
X112712500Y-122538329I0J100000D01*
G01*
G37*
G36*
G01*
X112712500Y-123188329D02*
X112712500Y-122988329D01*
G75*
G02*
X112812500Y-122888329I100000J0D01*
G01*
X114087500Y-122888329D01*
G75*
G02*
X114187500Y-122988329I0J-100000D01*
G01*
X114187500Y-123188329D01*
G75*
G02*
X114087500Y-123288329I-100000J0D01*
G01*
X112812500Y-123288329D01*
G75*
G02*
X112712500Y-123188329I0J100000D01*
G01*
G37*
G36*
G01*
X112712500Y-123838329D02*
X112712500Y-123638329D01*
G75*
G02*
X112812500Y-123538329I100000J0D01*
G01*
X114087500Y-123538329D01*
G75*
G02*
X114187500Y-123638329I0J-100000D01*
G01*
X114187500Y-123838329D01*
G75*
G02*
X114087500Y-123938329I-100000J0D01*
G01*
X112812500Y-123938329D01*
G75*
G02*
X112712500Y-123838329I0J100000D01*
G01*
G37*
G36*
G01*
X112712500Y-124488329D02*
X112712500Y-124288329D01*
G75*
G02*
X112812500Y-124188329I100000J0D01*
G01*
X114087500Y-124188329D01*
G75*
G02*
X114187500Y-124288329I0J-100000D01*
G01*
X114187500Y-124488329D01*
G75*
G02*
X114087500Y-124588329I-100000J0D01*
G01*
X112812500Y-124588329D01*
G75*
G02*
X112712500Y-124488329I0J100000D01*
G01*
G37*
G36*
G01*
X112712500Y-125138329D02*
X112712500Y-124938329D01*
G75*
G02*
X112812500Y-124838329I100000J0D01*
G01*
X114087500Y-124838329D01*
G75*
G02*
X114187500Y-124938329I0J-100000D01*
G01*
X114187500Y-125138329D01*
G75*
G02*
X114087500Y-125238329I-100000J0D01*
G01*
X112812500Y-125238329D01*
G75*
G02*
X112712500Y-125138329I0J100000D01*
G01*
G37*
G36*
G01*
X112712500Y-125788329D02*
X112712500Y-125588329D01*
G75*
G02*
X112812500Y-125488329I100000J0D01*
G01*
X114087500Y-125488329D01*
G75*
G02*
X114187500Y-125588329I0J-100000D01*
G01*
X114187500Y-125788329D01*
G75*
G02*
X114087500Y-125888329I-100000J0D01*
G01*
X112812500Y-125888329D01*
G75*
G02*
X112712500Y-125788329I0J100000D01*
G01*
G37*
G36*
G01*
X112712500Y-126438329D02*
X112712500Y-126238329D01*
G75*
G02*
X112812500Y-126138329I100000J0D01*
G01*
X114087500Y-126138329D01*
G75*
G02*
X114187500Y-126238329I0J-100000D01*
G01*
X114187500Y-126438329D01*
G75*
G02*
X114087500Y-126538329I-100000J0D01*
G01*
X112812500Y-126538329D01*
G75*
G02*
X112712500Y-126438329I0J100000D01*
G01*
G37*
G36*
G01*
X112712500Y-127088329D02*
X112712500Y-126888329D01*
G75*
G02*
X112812500Y-126788329I100000J0D01*
G01*
X114087500Y-126788329D01*
G75*
G02*
X114187500Y-126888329I0J-100000D01*
G01*
X114187500Y-127088329D01*
G75*
G02*
X114087500Y-127188329I-100000J0D01*
G01*
X112812500Y-127188329D01*
G75*
G02*
X112712500Y-127088329I0J100000D01*
G01*
G37*
G36*
G01*
X112712500Y-127738329D02*
X112712500Y-127538329D01*
G75*
G02*
X112812500Y-127438329I100000J0D01*
G01*
X114087500Y-127438329D01*
G75*
G02*
X114187500Y-127538329I0J-100000D01*
G01*
X114187500Y-127738329D01*
G75*
G02*
X114087500Y-127838329I-100000J0D01*
G01*
X112812500Y-127838329D01*
G75*
G02*
X112712500Y-127738329I0J100000D01*
G01*
G37*
G36*
G01*
X118437500Y-127738329D02*
X118437500Y-127538329D01*
G75*
G02*
X118537500Y-127438329I100000J0D01*
G01*
X119812500Y-127438329D01*
G75*
G02*
X119912500Y-127538329I0J-100000D01*
G01*
X119912500Y-127738329D01*
G75*
G02*
X119812500Y-127838329I-100000J0D01*
G01*
X118537500Y-127838329D01*
G75*
G02*
X118437500Y-127738329I0J100000D01*
G01*
G37*
G36*
G01*
X118437500Y-127088329D02*
X118437500Y-126888329D01*
G75*
G02*
X118537500Y-126788329I100000J0D01*
G01*
X119812500Y-126788329D01*
G75*
G02*
X119912500Y-126888329I0J-100000D01*
G01*
X119912500Y-127088329D01*
G75*
G02*
X119812500Y-127188329I-100000J0D01*
G01*
X118537500Y-127188329D01*
G75*
G02*
X118437500Y-127088329I0J100000D01*
G01*
G37*
G36*
G01*
X118437500Y-126438329D02*
X118437500Y-126238329D01*
G75*
G02*
X118537500Y-126138329I100000J0D01*
G01*
X119812500Y-126138329D01*
G75*
G02*
X119912500Y-126238329I0J-100000D01*
G01*
X119912500Y-126438329D01*
G75*
G02*
X119812500Y-126538329I-100000J0D01*
G01*
X118537500Y-126538329D01*
G75*
G02*
X118437500Y-126438329I0J100000D01*
G01*
G37*
G36*
G01*
X118437500Y-125788329D02*
X118437500Y-125588329D01*
G75*
G02*
X118537500Y-125488329I100000J0D01*
G01*
X119812500Y-125488329D01*
G75*
G02*
X119912500Y-125588329I0J-100000D01*
G01*
X119912500Y-125788329D01*
G75*
G02*
X119812500Y-125888329I-100000J0D01*
G01*
X118537500Y-125888329D01*
G75*
G02*
X118437500Y-125788329I0J100000D01*
G01*
G37*
G36*
G01*
X118437500Y-125138329D02*
X118437500Y-124938329D01*
G75*
G02*
X118537500Y-124838329I100000J0D01*
G01*
X119812500Y-124838329D01*
G75*
G02*
X119912500Y-124938329I0J-100000D01*
G01*
X119912500Y-125138329D01*
G75*
G02*
X119812500Y-125238329I-100000J0D01*
G01*
X118537500Y-125238329D01*
G75*
G02*
X118437500Y-125138329I0J100000D01*
G01*
G37*
G36*
G01*
X118437500Y-124488329D02*
X118437500Y-124288329D01*
G75*
G02*
X118537500Y-124188329I100000J0D01*
G01*
X119812500Y-124188329D01*
G75*
G02*
X119912500Y-124288329I0J-100000D01*
G01*
X119912500Y-124488329D01*
G75*
G02*
X119812500Y-124588329I-100000J0D01*
G01*
X118537500Y-124588329D01*
G75*
G02*
X118437500Y-124488329I0J100000D01*
G01*
G37*
G36*
G01*
X118437500Y-123838329D02*
X118437500Y-123638329D01*
G75*
G02*
X118537500Y-123538329I100000J0D01*
G01*
X119812500Y-123538329D01*
G75*
G02*
X119912500Y-123638329I0J-100000D01*
G01*
X119912500Y-123838329D01*
G75*
G02*
X119812500Y-123938329I-100000J0D01*
G01*
X118537500Y-123938329D01*
G75*
G02*
X118437500Y-123838329I0J100000D01*
G01*
G37*
G36*
G01*
X118437500Y-123188329D02*
X118437500Y-122988329D01*
G75*
G02*
X118537500Y-122888329I100000J0D01*
G01*
X119812500Y-122888329D01*
G75*
G02*
X119912500Y-122988329I0J-100000D01*
G01*
X119912500Y-123188329D01*
G75*
G02*
X119812500Y-123288329I-100000J0D01*
G01*
X118537500Y-123288329D01*
G75*
G02*
X118437500Y-123188329I0J100000D01*
G01*
G37*
G36*
G01*
X118437500Y-122538329D02*
X118437500Y-122338329D01*
G75*
G02*
X118537500Y-122238329I100000J0D01*
G01*
X119812500Y-122238329D01*
G75*
G02*
X119912500Y-122338329I0J-100000D01*
G01*
X119912500Y-122538329D01*
G75*
G02*
X119812500Y-122638329I-100000J0D01*
G01*
X118537500Y-122638329D01*
G75*
G02*
X118437500Y-122538329I0J100000D01*
G01*
G37*
G36*
G01*
X118437500Y-121888329D02*
X118437500Y-121688329D01*
G75*
G02*
X118537500Y-121588329I100000J0D01*
G01*
X119812500Y-121588329D01*
G75*
G02*
X119912500Y-121688329I0J-100000D01*
G01*
X119912500Y-121888329D01*
G75*
G02*
X119812500Y-121988329I-100000J0D01*
G01*
X118537500Y-121988329D01*
G75*
G02*
X118437500Y-121888329I0J100000D01*
G01*
G37*
G36*
G01*
X121815800Y-123832800D02*
X121265800Y-123832800D01*
G75*
G02*
X121065800Y-123632800I0J200000D01*
G01*
X121065800Y-123232800D01*
G75*
G02*
X121265800Y-123032800I200000J0D01*
G01*
X121815800Y-123032800D01*
G75*
G02*
X122015800Y-123232800I0J-200000D01*
G01*
X122015800Y-123632800D01*
G75*
G02*
X121815800Y-123832800I-200000J0D01*
G01*
G37*
G36*
G01*
X121815800Y-122182800D02*
X121265800Y-122182800D01*
G75*
G02*
X121065800Y-121982800I0J200000D01*
G01*
X121065800Y-121582800D01*
G75*
G02*
X121265800Y-121382800I200000J0D01*
G01*
X121815800Y-121382800D01*
G75*
G02*
X122015800Y-121582800I0J-200000D01*
G01*
X122015800Y-121982800D01*
G75*
G02*
X121815800Y-122182800I-200000J0D01*
G01*
G37*
G36*
G01*
X111213000Y-103463200D02*
X112463000Y-103463200D01*
G75*
G02*
X112713000Y-103713200I0J-250000D01*
G01*
X112713000Y-104463200D01*
G75*
G02*
X112463000Y-104713200I-250000J0D01*
G01*
X111213000Y-104713200D01*
G75*
G02*
X110963000Y-104463200I0J250000D01*
G01*
X110963000Y-103713200D01*
G75*
G02*
X111213000Y-103463200I250000J0D01*
G01*
G37*
G36*
G01*
X111213000Y-106263200D02*
X112463000Y-106263200D01*
G75*
G02*
X112713000Y-106513200I0J-250000D01*
G01*
X112713000Y-107263200D01*
G75*
G02*
X112463000Y-107513200I-250000J0D01*
G01*
X111213000Y-107513200D01*
G75*
G02*
X110963000Y-107263200I0J250000D01*
G01*
X110963000Y-106513200D01*
G75*
G02*
X111213000Y-106263200I250000J0D01*
G01*
G37*
G36*
G01*
X154411896Y-122171489D02*
X154305830Y-122065423D01*
G75*
G02*
X154305830Y-121959357I53033J53033D01*
G01*
X155242746Y-121022441D01*
G75*
G02*
X155348812Y-121022441I53033J-53033D01*
G01*
X155454878Y-121128507D01*
G75*
G02*
X155454878Y-121234573I-53033J-53033D01*
G01*
X154517962Y-122171489D01*
G75*
G02*
X154411896Y-122171489I-53033J53033D01*
G01*
G37*
G36*
G01*
X154765449Y-122525042D02*
X154659383Y-122418976D01*
G75*
G02*
X154659383Y-122312910I53033J53033D01*
G01*
X155596299Y-121375994D01*
G75*
G02*
X155702365Y-121375994I53033J-53033D01*
G01*
X155808431Y-121482060D01*
G75*
G02*
X155808431Y-121588126I-53033J-53033D01*
G01*
X154871515Y-122525042D01*
G75*
G02*
X154765449Y-122525042I-53033J53033D01*
G01*
G37*
G36*
G01*
X155119002Y-122878596D02*
X155012936Y-122772530D01*
G75*
G02*
X155012936Y-122666464I53033J53033D01*
G01*
X155949852Y-121729548D01*
G75*
G02*
X156055918Y-121729548I53033J-53033D01*
G01*
X156161984Y-121835614D01*
G75*
G02*
X156161984Y-121941680I-53033J-53033D01*
G01*
X155225068Y-122878596D01*
G75*
G02*
X155119002Y-122878596I-53033J53033D01*
G01*
G37*
G36*
G01*
X155472556Y-123232149D02*
X155366490Y-123126083D01*
G75*
G02*
X155366490Y-123020017I53033J53033D01*
G01*
X156303406Y-122083101D01*
G75*
G02*
X156409472Y-122083101I53033J-53033D01*
G01*
X156515538Y-122189167D01*
G75*
G02*
X156515538Y-122295233I-53033J-53033D01*
G01*
X155578622Y-123232149D01*
G75*
G02*
X155472556Y-123232149I-53033J53033D01*
G01*
G37*
G36*
G01*
X155826109Y-123585703D02*
X155720043Y-123479637D01*
G75*
G02*
X155720043Y-123373571I53033J53033D01*
G01*
X156656959Y-122436655D01*
G75*
G02*
X156763025Y-122436655I53033J-53033D01*
G01*
X156869091Y-122542721D01*
G75*
G02*
X156869091Y-122648787I-53033J-53033D01*
G01*
X155932175Y-123585703D01*
G75*
G02*
X155826109Y-123585703I-53033J53033D01*
G01*
G37*
G36*
G01*
X156179663Y-123939256D02*
X156073597Y-123833190D01*
G75*
G02*
X156073597Y-123727124I53033J53033D01*
G01*
X157010513Y-122790208D01*
G75*
G02*
X157116579Y-122790208I53033J-53033D01*
G01*
X157222645Y-122896274D01*
G75*
G02*
X157222645Y-123002340I-53033J-53033D01*
G01*
X156285729Y-123939256D01*
G75*
G02*
X156179663Y-123939256I-53033J53033D01*
G01*
G37*
G36*
G01*
X156533216Y-124292809D02*
X156427150Y-124186743D01*
G75*
G02*
X156427150Y-124080677I53033J53033D01*
G01*
X157364066Y-123143761D01*
G75*
G02*
X157470132Y-123143761I53033J-53033D01*
G01*
X157576198Y-123249827D01*
G75*
G02*
X157576198Y-123355893I-53033J-53033D01*
G01*
X156639282Y-124292809D01*
G75*
G02*
X156533216Y-124292809I-53033J53033D01*
G01*
G37*
G36*
G01*
X156886769Y-124646363D02*
X156780703Y-124540297D01*
G75*
G02*
X156780703Y-124434231I53033J53033D01*
G01*
X157717619Y-123497315D01*
G75*
G02*
X157823685Y-123497315I53033J-53033D01*
G01*
X157929751Y-123603381D01*
G75*
G02*
X157929751Y-123709447I-53033J-53033D01*
G01*
X156992835Y-124646363D01*
G75*
G02*
X156886769Y-124646363I-53033J53033D01*
G01*
G37*
G36*
G01*
X157240323Y-124999916D02*
X157134257Y-124893850D01*
G75*
G02*
X157134257Y-124787784I53033J53033D01*
G01*
X158071173Y-123850868D01*
G75*
G02*
X158177239Y-123850868I53033J-53033D01*
G01*
X158283305Y-123956934D01*
G75*
G02*
X158283305Y-124063000I-53033J-53033D01*
G01*
X157346389Y-124999916D01*
G75*
G02*
X157240323Y-124999916I-53033J53033D01*
G01*
G37*
G36*
G01*
X157593876Y-125353470D02*
X157487810Y-125247404D01*
G75*
G02*
X157487810Y-125141338I53033J53033D01*
G01*
X158424726Y-124204422D01*
G75*
G02*
X158530792Y-124204422I53033J-53033D01*
G01*
X158636858Y-124310488D01*
G75*
G02*
X158636858Y-124416554I-53033J-53033D01*
G01*
X157699942Y-125353470D01*
G75*
G02*
X157593876Y-125353470I-53033J53033D01*
G01*
G37*
G36*
G01*
X157947430Y-125707023D02*
X157841364Y-125600957D01*
G75*
G02*
X157841364Y-125494891I53033J53033D01*
G01*
X158778280Y-124557975D01*
G75*
G02*
X158884346Y-124557975I53033J-53033D01*
G01*
X158990412Y-124664041D01*
G75*
G02*
X158990412Y-124770107I-53033J-53033D01*
G01*
X158053496Y-125707023D01*
G75*
G02*
X157947430Y-125707023I-53033J53033D01*
G01*
G37*
G36*
G01*
X158300983Y-126060576D02*
X158194917Y-125954510D01*
G75*
G02*
X158194917Y-125848444I53033J53033D01*
G01*
X159131833Y-124911528D01*
G75*
G02*
X159237899Y-124911528I53033J-53033D01*
G01*
X159343965Y-125017594D01*
G75*
G02*
X159343965Y-125123660I-53033J-53033D01*
G01*
X158407049Y-126060576D01*
G75*
G02*
X158300983Y-126060576I-53033J53033D01*
G01*
G37*
G36*
G01*
X158654536Y-126414130D02*
X158548470Y-126308064D01*
G75*
G02*
X158548470Y-126201998I53033J53033D01*
G01*
X159485386Y-125265082D01*
G75*
G02*
X159591452Y-125265082I53033J-53033D01*
G01*
X159697518Y-125371148D01*
G75*
G02*
X159697518Y-125477214I-53033J-53033D01*
G01*
X158760602Y-126414130D01*
G75*
G02*
X158654536Y-126414130I-53033J53033D01*
G01*
G37*
G36*
G01*
X159008090Y-126767683D02*
X158902024Y-126661617D01*
G75*
G02*
X158902024Y-126555551I53033J53033D01*
G01*
X159838940Y-125618635D01*
G75*
G02*
X159945006Y-125618635I53033J-53033D01*
G01*
X160051072Y-125724701D01*
G75*
G02*
X160051072Y-125830767I-53033J-53033D01*
G01*
X159114156Y-126767683D01*
G75*
G02*
X159008090Y-126767683I-53033J53033D01*
G01*
G37*
G36*
G01*
X159361643Y-127121236D02*
X159255577Y-127015170D01*
G75*
G02*
X159255577Y-126909104I53033J53033D01*
G01*
X160192493Y-125972188D01*
G75*
G02*
X160298559Y-125972188I53033J-53033D01*
G01*
X160404625Y-126078254D01*
G75*
G02*
X160404625Y-126184320I-53033J-53033D01*
G01*
X159467709Y-127121236D01*
G75*
G02*
X159361643Y-127121236I-53033J53033D01*
G01*
G37*
G36*
G01*
X159715196Y-127474790D02*
X159609130Y-127368724D01*
G75*
G02*
X159609130Y-127262658I53033J53033D01*
G01*
X160546046Y-126325742D01*
G75*
G02*
X160652112Y-126325742I53033J-53033D01*
G01*
X160758178Y-126431808D01*
G75*
G02*
X160758178Y-126537874I-53033J-53033D01*
G01*
X159821262Y-127474790D01*
G75*
G02*
X159715196Y-127474790I-53033J53033D01*
G01*
G37*
G36*
G01*
X160068750Y-127828343D02*
X159962684Y-127722277D01*
G75*
G02*
X159962684Y-127616211I53033J53033D01*
G01*
X160899600Y-126679295D01*
G75*
G02*
X161005666Y-126679295I53033J-53033D01*
G01*
X161111732Y-126785361D01*
G75*
G02*
X161111732Y-126891427I-53033J-53033D01*
G01*
X160174816Y-127828343D01*
G75*
G02*
X160068750Y-127828343I-53033J53033D01*
G01*
G37*
G36*
G01*
X160422303Y-128181897D02*
X160316237Y-128075831D01*
G75*
G02*
X160316237Y-127969765I53033J53033D01*
G01*
X161253153Y-127032849D01*
G75*
G02*
X161359219Y-127032849I53033J-53033D01*
G01*
X161465285Y-127138915D01*
G75*
G02*
X161465285Y-127244981I-53033J-53033D01*
G01*
X160528369Y-128181897D01*
G75*
G02*
X160422303Y-128181897I-53033J53033D01*
G01*
G37*
G36*
G01*
X160775857Y-128535450D02*
X160669791Y-128429384D01*
G75*
G02*
X160669791Y-128323318I53033J53033D01*
G01*
X161606707Y-127386402D01*
G75*
G02*
X161712773Y-127386402I53033J-53033D01*
G01*
X161818839Y-127492468D01*
G75*
G02*
X161818839Y-127598534I-53033J-53033D01*
G01*
X160881923Y-128535450D01*
G75*
G02*
X160775857Y-128535450I-53033J53033D01*
G01*
G37*
G36*
G01*
X161129410Y-128889003D02*
X161023344Y-128782937D01*
G75*
G02*
X161023344Y-128676871I53033J53033D01*
G01*
X161960260Y-127739955D01*
G75*
G02*
X162066326Y-127739955I53033J-53033D01*
G01*
X162172392Y-127846021D01*
G75*
G02*
X162172392Y-127952087I-53033J-53033D01*
G01*
X161235476Y-128889003D01*
G75*
G02*
X161129410Y-128889003I-53033J53033D01*
G01*
G37*
G36*
G01*
X161482963Y-129242557D02*
X161376897Y-129136491D01*
G75*
G02*
X161376897Y-129030425I53033J53033D01*
G01*
X162313813Y-128093509D01*
G75*
G02*
X162419879Y-128093509I53033J-53033D01*
G01*
X162525945Y-128199575D01*
G75*
G02*
X162525945Y-128305641I-53033J-53033D01*
G01*
X161589029Y-129242557D01*
G75*
G02*
X161482963Y-129242557I-53033J53033D01*
G01*
G37*
G36*
G01*
X161836517Y-129596110D02*
X161730451Y-129490044D01*
G75*
G02*
X161730451Y-129383978I53033J53033D01*
G01*
X162667367Y-128447062D01*
G75*
G02*
X162773433Y-128447062I53033J-53033D01*
G01*
X162879499Y-128553128D01*
G75*
G02*
X162879499Y-128659194I-53033J-53033D01*
G01*
X161942583Y-129596110D01*
G75*
G02*
X161836517Y-129596110I-53033J53033D01*
G01*
G37*
G36*
G01*
X162190070Y-129949664D02*
X162084004Y-129843598D01*
G75*
G02*
X162084004Y-129737532I53033J53033D01*
G01*
X163020920Y-128800616D01*
G75*
G02*
X163126986Y-128800616I53033J-53033D01*
G01*
X163233052Y-128906682D01*
G75*
G02*
X163233052Y-129012748I-53033J-53033D01*
G01*
X162296136Y-129949664D01*
G75*
G02*
X162190070Y-129949664I-53033J53033D01*
G01*
G37*
G36*
G01*
X162543624Y-130303217D02*
X162437558Y-130197151D01*
G75*
G02*
X162437558Y-130091085I53033J53033D01*
G01*
X163374474Y-129154169D01*
G75*
G02*
X163480540Y-129154169I53033J-53033D01*
G01*
X163586606Y-129260235D01*
G75*
G02*
X163586606Y-129366301I-53033J-53033D01*
G01*
X162649690Y-130303217D01*
G75*
G02*
X162543624Y-130303217I-53033J53033D01*
G01*
G37*
G36*
G01*
X162897177Y-130656770D02*
X162791111Y-130550704D01*
G75*
G02*
X162791111Y-130444638I53033J53033D01*
G01*
X163728027Y-129507722D01*
G75*
G02*
X163834093Y-129507722I53033J-53033D01*
G01*
X163940159Y-129613788D01*
G75*
G02*
X163940159Y-129719854I-53033J-53033D01*
G01*
X163003243Y-130656770D01*
G75*
G02*
X162897177Y-130656770I-53033J53033D01*
G01*
G37*
G36*
G01*
X166079157Y-130656770D02*
X165142241Y-129719854D01*
G75*
G02*
X165142241Y-129613788I53033J53033D01*
G01*
X165248307Y-129507722D01*
G75*
G02*
X165354373Y-129507722I53033J-53033D01*
G01*
X166291289Y-130444638D01*
G75*
G02*
X166291289Y-130550704I-53033J-53033D01*
G01*
X166185223Y-130656770D01*
G75*
G02*
X166079157Y-130656770I-53033J53033D01*
G01*
G37*
G36*
G01*
X166432710Y-130303217D02*
X165495794Y-129366301D01*
G75*
G02*
X165495794Y-129260235I53033J53033D01*
G01*
X165601860Y-129154169D01*
G75*
G02*
X165707926Y-129154169I53033J-53033D01*
G01*
X166644842Y-130091085D01*
G75*
G02*
X166644842Y-130197151I-53033J-53033D01*
G01*
X166538776Y-130303217D01*
G75*
G02*
X166432710Y-130303217I-53033J53033D01*
G01*
G37*
G36*
G01*
X166786264Y-129949664D02*
X165849348Y-129012748D01*
G75*
G02*
X165849348Y-128906682I53033J53033D01*
G01*
X165955414Y-128800616D01*
G75*
G02*
X166061480Y-128800616I53033J-53033D01*
G01*
X166998396Y-129737532D01*
G75*
G02*
X166998396Y-129843598I-53033J-53033D01*
G01*
X166892330Y-129949664D01*
G75*
G02*
X166786264Y-129949664I-53033J53033D01*
G01*
G37*
G36*
G01*
X167139817Y-129596110D02*
X166202901Y-128659194D01*
G75*
G02*
X166202901Y-128553128I53033J53033D01*
G01*
X166308967Y-128447062D01*
G75*
G02*
X166415033Y-128447062I53033J-53033D01*
G01*
X167351949Y-129383978D01*
G75*
G02*
X167351949Y-129490044I-53033J-53033D01*
G01*
X167245883Y-129596110D01*
G75*
G02*
X167139817Y-129596110I-53033J53033D01*
G01*
G37*
G36*
G01*
X167493371Y-129242557D02*
X166556455Y-128305641D01*
G75*
G02*
X166556455Y-128199575I53033J53033D01*
G01*
X166662521Y-128093509D01*
G75*
G02*
X166768587Y-128093509I53033J-53033D01*
G01*
X167705503Y-129030425D01*
G75*
G02*
X167705503Y-129136491I-53033J-53033D01*
G01*
X167599437Y-129242557D01*
G75*
G02*
X167493371Y-129242557I-53033J53033D01*
G01*
G37*
G36*
G01*
X167846924Y-128889003D02*
X166910008Y-127952087D01*
G75*
G02*
X166910008Y-127846021I53033J53033D01*
G01*
X167016074Y-127739955D01*
G75*
G02*
X167122140Y-127739955I53033J-53033D01*
G01*
X168059056Y-128676871D01*
G75*
G02*
X168059056Y-128782937I-53033J-53033D01*
G01*
X167952990Y-128889003D01*
G75*
G02*
X167846924Y-128889003I-53033J53033D01*
G01*
G37*
G36*
G01*
X168200477Y-128535450D02*
X167263561Y-127598534D01*
G75*
G02*
X167263561Y-127492468I53033J53033D01*
G01*
X167369627Y-127386402D01*
G75*
G02*
X167475693Y-127386402I53033J-53033D01*
G01*
X168412609Y-128323318D01*
G75*
G02*
X168412609Y-128429384I-53033J-53033D01*
G01*
X168306543Y-128535450D01*
G75*
G02*
X168200477Y-128535450I-53033J53033D01*
G01*
G37*
G36*
G01*
X168554031Y-128181897D02*
X167617115Y-127244981D01*
G75*
G02*
X167617115Y-127138915I53033J53033D01*
G01*
X167723181Y-127032849D01*
G75*
G02*
X167829247Y-127032849I53033J-53033D01*
G01*
X168766163Y-127969765D01*
G75*
G02*
X168766163Y-128075831I-53033J-53033D01*
G01*
X168660097Y-128181897D01*
G75*
G02*
X168554031Y-128181897I-53033J53033D01*
G01*
G37*
G36*
G01*
X168907584Y-127828343D02*
X167970668Y-126891427D01*
G75*
G02*
X167970668Y-126785361I53033J53033D01*
G01*
X168076734Y-126679295D01*
G75*
G02*
X168182800Y-126679295I53033J-53033D01*
G01*
X169119716Y-127616211D01*
G75*
G02*
X169119716Y-127722277I-53033J-53033D01*
G01*
X169013650Y-127828343D01*
G75*
G02*
X168907584Y-127828343I-53033J53033D01*
G01*
G37*
G36*
G01*
X169261138Y-127474790D02*
X168324222Y-126537874D01*
G75*
G02*
X168324222Y-126431808I53033J53033D01*
G01*
X168430288Y-126325742D01*
G75*
G02*
X168536354Y-126325742I53033J-53033D01*
G01*
X169473270Y-127262658D01*
G75*
G02*
X169473270Y-127368724I-53033J-53033D01*
G01*
X169367204Y-127474790D01*
G75*
G02*
X169261138Y-127474790I-53033J53033D01*
G01*
G37*
G36*
G01*
X169614691Y-127121236D02*
X168677775Y-126184320D01*
G75*
G02*
X168677775Y-126078254I53033J53033D01*
G01*
X168783841Y-125972188D01*
G75*
G02*
X168889907Y-125972188I53033J-53033D01*
G01*
X169826823Y-126909104D01*
G75*
G02*
X169826823Y-127015170I-53033J-53033D01*
G01*
X169720757Y-127121236D01*
G75*
G02*
X169614691Y-127121236I-53033J53033D01*
G01*
G37*
G36*
G01*
X169968244Y-126767683D02*
X169031328Y-125830767D01*
G75*
G02*
X169031328Y-125724701I53033J53033D01*
G01*
X169137394Y-125618635D01*
G75*
G02*
X169243460Y-125618635I53033J-53033D01*
G01*
X170180376Y-126555551D01*
G75*
G02*
X170180376Y-126661617I-53033J-53033D01*
G01*
X170074310Y-126767683D01*
G75*
G02*
X169968244Y-126767683I-53033J53033D01*
G01*
G37*
G36*
G01*
X170321798Y-126414130D02*
X169384882Y-125477214D01*
G75*
G02*
X169384882Y-125371148I53033J53033D01*
G01*
X169490948Y-125265082D01*
G75*
G02*
X169597014Y-125265082I53033J-53033D01*
G01*
X170533930Y-126201998D01*
G75*
G02*
X170533930Y-126308064I-53033J-53033D01*
G01*
X170427864Y-126414130D01*
G75*
G02*
X170321798Y-126414130I-53033J53033D01*
G01*
G37*
G36*
G01*
X170675351Y-126060576D02*
X169738435Y-125123660D01*
G75*
G02*
X169738435Y-125017594I53033J53033D01*
G01*
X169844501Y-124911528D01*
G75*
G02*
X169950567Y-124911528I53033J-53033D01*
G01*
X170887483Y-125848444D01*
G75*
G02*
X170887483Y-125954510I-53033J-53033D01*
G01*
X170781417Y-126060576D01*
G75*
G02*
X170675351Y-126060576I-53033J53033D01*
G01*
G37*
G36*
G01*
X171028904Y-125707023D02*
X170091988Y-124770107D01*
G75*
G02*
X170091988Y-124664041I53033J53033D01*
G01*
X170198054Y-124557975D01*
G75*
G02*
X170304120Y-124557975I53033J-53033D01*
G01*
X171241036Y-125494891D01*
G75*
G02*
X171241036Y-125600957I-53033J-53033D01*
G01*
X171134970Y-125707023D01*
G75*
G02*
X171028904Y-125707023I-53033J53033D01*
G01*
G37*
G36*
G01*
X171382458Y-125353470D02*
X170445542Y-124416554D01*
G75*
G02*
X170445542Y-124310488I53033J53033D01*
G01*
X170551608Y-124204422D01*
G75*
G02*
X170657674Y-124204422I53033J-53033D01*
G01*
X171594590Y-125141338D01*
G75*
G02*
X171594590Y-125247404I-53033J-53033D01*
G01*
X171488524Y-125353470D01*
G75*
G02*
X171382458Y-125353470I-53033J53033D01*
G01*
G37*
G36*
G01*
X171736011Y-124999916D02*
X170799095Y-124063000D01*
G75*
G02*
X170799095Y-123956934I53033J53033D01*
G01*
X170905161Y-123850868D01*
G75*
G02*
X171011227Y-123850868I53033J-53033D01*
G01*
X171948143Y-124787784D01*
G75*
G02*
X171948143Y-124893850I-53033J-53033D01*
G01*
X171842077Y-124999916D01*
G75*
G02*
X171736011Y-124999916I-53033J53033D01*
G01*
G37*
G36*
G01*
X172089565Y-124646363D02*
X171152649Y-123709447D01*
G75*
G02*
X171152649Y-123603381I53033J53033D01*
G01*
X171258715Y-123497315D01*
G75*
G02*
X171364781Y-123497315I53033J-53033D01*
G01*
X172301697Y-124434231D01*
G75*
G02*
X172301697Y-124540297I-53033J-53033D01*
G01*
X172195631Y-124646363D01*
G75*
G02*
X172089565Y-124646363I-53033J53033D01*
G01*
G37*
G36*
G01*
X172443118Y-124292809D02*
X171506202Y-123355893D01*
G75*
G02*
X171506202Y-123249827I53033J53033D01*
G01*
X171612268Y-123143761D01*
G75*
G02*
X171718334Y-123143761I53033J-53033D01*
G01*
X172655250Y-124080677D01*
G75*
G02*
X172655250Y-124186743I-53033J-53033D01*
G01*
X172549184Y-124292809D01*
G75*
G02*
X172443118Y-124292809I-53033J53033D01*
G01*
G37*
G36*
G01*
X172796671Y-123939256D02*
X171859755Y-123002340D01*
G75*
G02*
X171859755Y-122896274I53033J53033D01*
G01*
X171965821Y-122790208D01*
G75*
G02*
X172071887Y-122790208I53033J-53033D01*
G01*
X173008803Y-123727124D01*
G75*
G02*
X173008803Y-123833190I-53033J-53033D01*
G01*
X172902737Y-123939256D01*
G75*
G02*
X172796671Y-123939256I-53033J53033D01*
G01*
G37*
G36*
G01*
X173150225Y-123585703D02*
X172213309Y-122648787D01*
G75*
G02*
X172213309Y-122542721I53033J53033D01*
G01*
X172319375Y-122436655D01*
G75*
G02*
X172425441Y-122436655I53033J-53033D01*
G01*
X173362357Y-123373571D01*
G75*
G02*
X173362357Y-123479637I-53033J-53033D01*
G01*
X173256291Y-123585703D01*
G75*
G02*
X173150225Y-123585703I-53033J53033D01*
G01*
G37*
G36*
G01*
X173503778Y-123232149D02*
X172566862Y-122295233D01*
G75*
G02*
X172566862Y-122189167I53033J53033D01*
G01*
X172672928Y-122083101D01*
G75*
G02*
X172778994Y-122083101I53033J-53033D01*
G01*
X173715910Y-123020017D01*
G75*
G02*
X173715910Y-123126083I-53033J-53033D01*
G01*
X173609844Y-123232149D01*
G75*
G02*
X173503778Y-123232149I-53033J53033D01*
G01*
G37*
G36*
G01*
X173857332Y-122878596D02*
X172920416Y-121941680D01*
G75*
G02*
X172920416Y-121835614I53033J53033D01*
G01*
X173026482Y-121729548D01*
G75*
G02*
X173132548Y-121729548I53033J-53033D01*
G01*
X174069464Y-122666464D01*
G75*
G02*
X174069464Y-122772530I-53033J-53033D01*
G01*
X173963398Y-122878596D01*
G75*
G02*
X173857332Y-122878596I-53033J53033D01*
G01*
G37*
G36*
G01*
X174210885Y-122525042D02*
X173273969Y-121588126D01*
G75*
G02*
X173273969Y-121482060I53033J53033D01*
G01*
X173380035Y-121375994D01*
G75*
G02*
X173486101Y-121375994I53033J-53033D01*
G01*
X174423017Y-122312910D01*
G75*
G02*
X174423017Y-122418976I-53033J-53033D01*
G01*
X174316951Y-122525042D01*
G75*
G02*
X174210885Y-122525042I-53033J53033D01*
G01*
G37*
G36*
G01*
X174564438Y-122171489D02*
X173627522Y-121234573D01*
G75*
G02*
X173627522Y-121128507I53033J53033D01*
G01*
X173733588Y-121022441D01*
G75*
G02*
X173839654Y-121022441I53033J-53033D01*
G01*
X174776570Y-121959357D01*
G75*
G02*
X174776570Y-122065423I-53033J-53033D01*
G01*
X174670504Y-122171489D01*
G75*
G02*
X174564438Y-122171489I-53033J53033D01*
G01*
G37*
G36*
G01*
X173733588Y-119820359D02*
X173627522Y-119714293D01*
G75*
G02*
X173627522Y-119608227I53033J53033D01*
G01*
X174564438Y-118671311D01*
G75*
G02*
X174670504Y-118671311I53033J-53033D01*
G01*
X174776570Y-118777377D01*
G75*
G02*
X174776570Y-118883443I-53033J-53033D01*
G01*
X173839654Y-119820359D01*
G75*
G02*
X173733588Y-119820359I-53033J53033D01*
G01*
G37*
G36*
G01*
X173380035Y-119466806D02*
X173273969Y-119360740D01*
G75*
G02*
X173273969Y-119254674I53033J53033D01*
G01*
X174210885Y-118317758D01*
G75*
G02*
X174316951Y-118317758I53033J-53033D01*
G01*
X174423017Y-118423824D01*
G75*
G02*
X174423017Y-118529890I-53033J-53033D01*
G01*
X173486101Y-119466806D01*
G75*
G02*
X173380035Y-119466806I-53033J53033D01*
G01*
G37*
G36*
G01*
X173026482Y-119113252D02*
X172920416Y-119007186D01*
G75*
G02*
X172920416Y-118901120I53033J53033D01*
G01*
X173857332Y-117964204D01*
G75*
G02*
X173963398Y-117964204I53033J-53033D01*
G01*
X174069464Y-118070270D01*
G75*
G02*
X174069464Y-118176336I-53033J-53033D01*
G01*
X173132548Y-119113252D01*
G75*
G02*
X173026482Y-119113252I-53033J53033D01*
G01*
G37*
G36*
G01*
X172672928Y-118759699D02*
X172566862Y-118653633D01*
G75*
G02*
X172566862Y-118547567I53033J53033D01*
G01*
X173503778Y-117610651D01*
G75*
G02*
X173609844Y-117610651I53033J-53033D01*
G01*
X173715910Y-117716717D01*
G75*
G02*
X173715910Y-117822783I-53033J-53033D01*
G01*
X172778994Y-118759699D01*
G75*
G02*
X172672928Y-118759699I-53033J53033D01*
G01*
G37*
G36*
G01*
X172319375Y-118406145D02*
X172213309Y-118300079D01*
G75*
G02*
X172213309Y-118194013I53033J53033D01*
G01*
X173150225Y-117257097D01*
G75*
G02*
X173256291Y-117257097I53033J-53033D01*
G01*
X173362357Y-117363163D01*
G75*
G02*
X173362357Y-117469229I-53033J-53033D01*
G01*
X172425441Y-118406145D01*
G75*
G02*
X172319375Y-118406145I-53033J53033D01*
G01*
G37*
G36*
G01*
X171965821Y-118052592D02*
X171859755Y-117946526D01*
G75*
G02*
X171859755Y-117840460I53033J53033D01*
G01*
X172796671Y-116903544D01*
G75*
G02*
X172902737Y-116903544I53033J-53033D01*
G01*
X173008803Y-117009610D01*
G75*
G02*
X173008803Y-117115676I-53033J-53033D01*
G01*
X172071887Y-118052592D01*
G75*
G02*
X171965821Y-118052592I-53033J53033D01*
G01*
G37*
G36*
G01*
X171612268Y-117699039D02*
X171506202Y-117592973D01*
G75*
G02*
X171506202Y-117486907I53033J53033D01*
G01*
X172443118Y-116549991D01*
G75*
G02*
X172549184Y-116549991I53033J-53033D01*
G01*
X172655250Y-116656057D01*
G75*
G02*
X172655250Y-116762123I-53033J-53033D01*
G01*
X171718334Y-117699039D01*
G75*
G02*
X171612268Y-117699039I-53033J53033D01*
G01*
G37*
G36*
G01*
X171258715Y-117345485D02*
X171152649Y-117239419D01*
G75*
G02*
X171152649Y-117133353I53033J53033D01*
G01*
X172089565Y-116196437D01*
G75*
G02*
X172195631Y-116196437I53033J-53033D01*
G01*
X172301697Y-116302503D01*
G75*
G02*
X172301697Y-116408569I-53033J-53033D01*
G01*
X171364781Y-117345485D01*
G75*
G02*
X171258715Y-117345485I-53033J53033D01*
G01*
G37*
G36*
G01*
X170905161Y-116991932D02*
X170799095Y-116885866D01*
G75*
G02*
X170799095Y-116779800I53033J53033D01*
G01*
X171736011Y-115842884D01*
G75*
G02*
X171842077Y-115842884I53033J-53033D01*
G01*
X171948143Y-115948950D01*
G75*
G02*
X171948143Y-116055016I-53033J-53033D01*
G01*
X171011227Y-116991932D01*
G75*
G02*
X170905161Y-116991932I-53033J53033D01*
G01*
G37*
G36*
G01*
X170551608Y-116638378D02*
X170445542Y-116532312D01*
G75*
G02*
X170445542Y-116426246I53033J53033D01*
G01*
X171382458Y-115489330D01*
G75*
G02*
X171488524Y-115489330I53033J-53033D01*
G01*
X171594590Y-115595396D01*
G75*
G02*
X171594590Y-115701462I-53033J-53033D01*
G01*
X170657674Y-116638378D01*
G75*
G02*
X170551608Y-116638378I-53033J53033D01*
G01*
G37*
G36*
G01*
X170198054Y-116284825D02*
X170091988Y-116178759D01*
G75*
G02*
X170091988Y-116072693I53033J53033D01*
G01*
X171028904Y-115135777D01*
G75*
G02*
X171134970Y-115135777I53033J-53033D01*
G01*
X171241036Y-115241843D01*
G75*
G02*
X171241036Y-115347909I-53033J-53033D01*
G01*
X170304120Y-116284825D01*
G75*
G02*
X170198054Y-116284825I-53033J53033D01*
G01*
G37*
G36*
G01*
X169844501Y-115931272D02*
X169738435Y-115825206D01*
G75*
G02*
X169738435Y-115719140I53033J53033D01*
G01*
X170675351Y-114782224D01*
G75*
G02*
X170781417Y-114782224I53033J-53033D01*
G01*
X170887483Y-114888290D01*
G75*
G02*
X170887483Y-114994356I-53033J-53033D01*
G01*
X169950567Y-115931272D01*
G75*
G02*
X169844501Y-115931272I-53033J53033D01*
G01*
G37*
G36*
G01*
X169490948Y-115577718D02*
X169384882Y-115471652D01*
G75*
G02*
X169384882Y-115365586I53033J53033D01*
G01*
X170321798Y-114428670D01*
G75*
G02*
X170427864Y-114428670I53033J-53033D01*
G01*
X170533930Y-114534736D01*
G75*
G02*
X170533930Y-114640802I-53033J-53033D01*
G01*
X169597014Y-115577718D01*
G75*
G02*
X169490948Y-115577718I-53033J53033D01*
G01*
G37*
G36*
G01*
X169137394Y-115224165D02*
X169031328Y-115118099D01*
G75*
G02*
X169031328Y-115012033I53033J53033D01*
G01*
X169968244Y-114075117D01*
G75*
G02*
X170074310Y-114075117I53033J-53033D01*
G01*
X170180376Y-114181183D01*
G75*
G02*
X170180376Y-114287249I-53033J-53033D01*
G01*
X169243460Y-115224165D01*
G75*
G02*
X169137394Y-115224165I-53033J53033D01*
G01*
G37*
G36*
G01*
X168783841Y-114870612D02*
X168677775Y-114764546D01*
G75*
G02*
X168677775Y-114658480I53033J53033D01*
G01*
X169614691Y-113721564D01*
G75*
G02*
X169720757Y-113721564I53033J-53033D01*
G01*
X169826823Y-113827630D01*
G75*
G02*
X169826823Y-113933696I-53033J-53033D01*
G01*
X168889907Y-114870612D01*
G75*
G02*
X168783841Y-114870612I-53033J53033D01*
G01*
G37*
G36*
G01*
X168430288Y-114517058D02*
X168324222Y-114410992D01*
G75*
G02*
X168324222Y-114304926I53033J53033D01*
G01*
X169261138Y-113368010D01*
G75*
G02*
X169367204Y-113368010I53033J-53033D01*
G01*
X169473270Y-113474076D01*
G75*
G02*
X169473270Y-113580142I-53033J-53033D01*
G01*
X168536354Y-114517058D01*
G75*
G02*
X168430288Y-114517058I-53033J53033D01*
G01*
G37*
G36*
G01*
X168076734Y-114163505D02*
X167970668Y-114057439D01*
G75*
G02*
X167970668Y-113951373I53033J53033D01*
G01*
X168907584Y-113014457D01*
G75*
G02*
X169013650Y-113014457I53033J-53033D01*
G01*
X169119716Y-113120523D01*
G75*
G02*
X169119716Y-113226589I-53033J-53033D01*
G01*
X168182800Y-114163505D01*
G75*
G02*
X168076734Y-114163505I-53033J53033D01*
G01*
G37*
G36*
G01*
X167723181Y-113809951D02*
X167617115Y-113703885D01*
G75*
G02*
X167617115Y-113597819I53033J53033D01*
G01*
X168554031Y-112660903D01*
G75*
G02*
X168660097Y-112660903I53033J-53033D01*
G01*
X168766163Y-112766969D01*
G75*
G02*
X168766163Y-112873035I-53033J-53033D01*
G01*
X167829247Y-113809951D01*
G75*
G02*
X167723181Y-113809951I-53033J53033D01*
G01*
G37*
G36*
G01*
X167369627Y-113456398D02*
X167263561Y-113350332D01*
G75*
G02*
X167263561Y-113244266I53033J53033D01*
G01*
X168200477Y-112307350D01*
G75*
G02*
X168306543Y-112307350I53033J-53033D01*
G01*
X168412609Y-112413416D01*
G75*
G02*
X168412609Y-112519482I-53033J-53033D01*
G01*
X167475693Y-113456398D01*
G75*
G02*
X167369627Y-113456398I-53033J53033D01*
G01*
G37*
G36*
G01*
X167016074Y-113102845D02*
X166910008Y-112996779D01*
G75*
G02*
X166910008Y-112890713I53033J53033D01*
G01*
X167846924Y-111953797D01*
G75*
G02*
X167952990Y-111953797I53033J-53033D01*
G01*
X168059056Y-112059863D01*
G75*
G02*
X168059056Y-112165929I-53033J-53033D01*
G01*
X167122140Y-113102845D01*
G75*
G02*
X167016074Y-113102845I-53033J53033D01*
G01*
G37*
G36*
G01*
X166662521Y-112749291D02*
X166556455Y-112643225D01*
G75*
G02*
X166556455Y-112537159I53033J53033D01*
G01*
X167493371Y-111600243D01*
G75*
G02*
X167599437Y-111600243I53033J-53033D01*
G01*
X167705503Y-111706309D01*
G75*
G02*
X167705503Y-111812375I-53033J-53033D01*
G01*
X166768587Y-112749291D01*
G75*
G02*
X166662521Y-112749291I-53033J53033D01*
G01*
G37*
G36*
G01*
X166308967Y-112395738D02*
X166202901Y-112289672D01*
G75*
G02*
X166202901Y-112183606I53033J53033D01*
G01*
X167139817Y-111246690D01*
G75*
G02*
X167245883Y-111246690I53033J-53033D01*
G01*
X167351949Y-111352756D01*
G75*
G02*
X167351949Y-111458822I-53033J-53033D01*
G01*
X166415033Y-112395738D01*
G75*
G02*
X166308967Y-112395738I-53033J53033D01*
G01*
G37*
G36*
G01*
X165955414Y-112042184D02*
X165849348Y-111936118D01*
G75*
G02*
X165849348Y-111830052I53033J53033D01*
G01*
X166786264Y-110893136D01*
G75*
G02*
X166892330Y-110893136I53033J-53033D01*
G01*
X166998396Y-110999202D01*
G75*
G02*
X166998396Y-111105268I-53033J-53033D01*
G01*
X166061480Y-112042184D01*
G75*
G02*
X165955414Y-112042184I-53033J53033D01*
G01*
G37*
G36*
G01*
X165601860Y-111688631D02*
X165495794Y-111582565D01*
G75*
G02*
X165495794Y-111476499I53033J53033D01*
G01*
X166432710Y-110539583D01*
G75*
G02*
X166538776Y-110539583I53033J-53033D01*
G01*
X166644842Y-110645649D01*
G75*
G02*
X166644842Y-110751715I-53033J-53033D01*
G01*
X165707926Y-111688631D01*
G75*
G02*
X165601860Y-111688631I-53033J53033D01*
G01*
G37*
G36*
G01*
X165248307Y-111335078D02*
X165142241Y-111229012D01*
G75*
G02*
X165142241Y-111122946I53033J53033D01*
G01*
X166079157Y-110186030D01*
G75*
G02*
X166185223Y-110186030I53033J-53033D01*
G01*
X166291289Y-110292096D01*
G75*
G02*
X166291289Y-110398162I-53033J-53033D01*
G01*
X165354373Y-111335078D01*
G75*
G02*
X165248307Y-111335078I-53033J53033D01*
G01*
G37*
G36*
G01*
X163728027Y-111335078D02*
X162791111Y-110398162D01*
G75*
G02*
X162791111Y-110292096I53033J53033D01*
G01*
X162897177Y-110186030D01*
G75*
G02*
X163003243Y-110186030I53033J-53033D01*
G01*
X163940159Y-111122946D01*
G75*
G02*
X163940159Y-111229012I-53033J-53033D01*
G01*
X163834093Y-111335078D01*
G75*
G02*
X163728027Y-111335078I-53033J53033D01*
G01*
G37*
G36*
G01*
X163374474Y-111688631D02*
X162437558Y-110751715D01*
G75*
G02*
X162437558Y-110645649I53033J53033D01*
G01*
X162543624Y-110539583D01*
G75*
G02*
X162649690Y-110539583I53033J-53033D01*
G01*
X163586606Y-111476499D01*
G75*
G02*
X163586606Y-111582565I-53033J-53033D01*
G01*
X163480540Y-111688631D01*
G75*
G02*
X163374474Y-111688631I-53033J53033D01*
G01*
G37*
G36*
G01*
X163020920Y-112042184D02*
X162084004Y-111105268D01*
G75*
G02*
X162084004Y-110999202I53033J53033D01*
G01*
X162190070Y-110893136D01*
G75*
G02*
X162296136Y-110893136I53033J-53033D01*
G01*
X163233052Y-111830052D01*
G75*
G02*
X163233052Y-111936118I-53033J-53033D01*
G01*
X163126986Y-112042184D01*
G75*
G02*
X163020920Y-112042184I-53033J53033D01*
G01*
G37*
G36*
G01*
X162667367Y-112395738D02*
X161730451Y-111458822D01*
G75*
G02*
X161730451Y-111352756I53033J53033D01*
G01*
X161836517Y-111246690D01*
G75*
G02*
X161942583Y-111246690I53033J-53033D01*
G01*
X162879499Y-112183606D01*
G75*
G02*
X162879499Y-112289672I-53033J-53033D01*
G01*
X162773433Y-112395738D01*
G75*
G02*
X162667367Y-112395738I-53033J53033D01*
G01*
G37*
G36*
G01*
X162313813Y-112749291D02*
X161376897Y-111812375D01*
G75*
G02*
X161376897Y-111706309I53033J53033D01*
G01*
X161482963Y-111600243D01*
G75*
G02*
X161589029Y-111600243I53033J-53033D01*
G01*
X162525945Y-112537159D01*
G75*
G02*
X162525945Y-112643225I-53033J-53033D01*
G01*
X162419879Y-112749291D01*
G75*
G02*
X162313813Y-112749291I-53033J53033D01*
G01*
G37*
G36*
G01*
X161960260Y-113102845D02*
X161023344Y-112165929D01*
G75*
G02*
X161023344Y-112059863I53033J53033D01*
G01*
X161129410Y-111953797D01*
G75*
G02*
X161235476Y-111953797I53033J-53033D01*
G01*
X162172392Y-112890713D01*
G75*
G02*
X162172392Y-112996779I-53033J-53033D01*
G01*
X162066326Y-113102845D01*
G75*
G02*
X161960260Y-113102845I-53033J53033D01*
G01*
G37*
G36*
G01*
X161606707Y-113456398D02*
X160669791Y-112519482D01*
G75*
G02*
X160669791Y-112413416I53033J53033D01*
G01*
X160775857Y-112307350D01*
G75*
G02*
X160881923Y-112307350I53033J-53033D01*
G01*
X161818839Y-113244266D01*
G75*
G02*
X161818839Y-113350332I-53033J-53033D01*
G01*
X161712773Y-113456398D01*
G75*
G02*
X161606707Y-113456398I-53033J53033D01*
G01*
G37*
G36*
G01*
X161253153Y-113809951D02*
X160316237Y-112873035D01*
G75*
G02*
X160316237Y-112766969I53033J53033D01*
G01*
X160422303Y-112660903D01*
G75*
G02*
X160528369Y-112660903I53033J-53033D01*
G01*
X161465285Y-113597819D01*
G75*
G02*
X161465285Y-113703885I-53033J-53033D01*
G01*
X161359219Y-113809951D01*
G75*
G02*
X161253153Y-113809951I-53033J53033D01*
G01*
G37*
G36*
G01*
X160899600Y-114163505D02*
X159962684Y-113226589D01*
G75*
G02*
X159962684Y-113120523I53033J53033D01*
G01*
X160068750Y-113014457D01*
G75*
G02*
X160174816Y-113014457I53033J-53033D01*
G01*
X161111732Y-113951373D01*
G75*
G02*
X161111732Y-114057439I-53033J-53033D01*
G01*
X161005666Y-114163505D01*
G75*
G02*
X160899600Y-114163505I-53033J53033D01*
G01*
G37*
G36*
G01*
X160546046Y-114517058D02*
X159609130Y-113580142D01*
G75*
G02*
X159609130Y-113474076I53033J53033D01*
G01*
X159715196Y-113368010D01*
G75*
G02*
X159821262Y-113368010I53033J-53033D01*
G01*
X160758178Y-114304926D01*
G75*
G02*
X160758178Y-114410992I-53033J-53033D01*
G01*
X160652112Y-114517058D01*
G75*
G02*
X160546046Y-114517058I-53033J53033D01*
G01*
G37*
G36*
G01*
X160192493Y-114870612D02*
X159255577Y-113933696D01*
G75*
G02*
X159255577Y-113827630I53033J53033D01*
G01*
X159361643Y-113721564D01*
G75*
G02*
X159467709Y-113721564I53033J-53033D01*
G01*
X160404625Y-114658480D01*
G75*
G02*
X160404625Y-114764546I-53033J-53033D01*
G01*
X160298559Y-114870612D01*
G75*
G02*
X160192493Y-114870612I-53033J53033D01*
G01*
G37*
G36*
G01*
X159838940Y-115224165D02*
X158902024Y-114287249D01*
G75*
G02*
X158902024Y-114181183I53033J53033D01*
G01*
X159008090Y-114075117D01*
G75*
G02*
X159114156Y-114075117I53033J-53033D01*
G01*
X160051072Y-115012033D01*
G75*
G02*
X160051072Y-115118099I-53033J-53033D01*
G01*
X159945006Y-115224165D01*
G75*
G02*
X159838940Y-115224165I-53033J53033D01*
G01*
G37*
G36*
G01*
X159485386Y-115577718D02*
X158548470Y-114640802D01*
G75*
G02*
X158548470Y-114534736I53033J53033D01*
G01*
X158654536Y-114428670D01*
G75*
G02*
X158760602Y-114428670I53033J-53033D01*
G01*
X159697518Y-115365586D01*
G75*
G02*
X159697518Y-115471652I-53033J-53033D01*
G01*
X159591452Y-115577718D01*
G75*
G02*
X159485386Y-115577718I-53033J53033D01*
G01*
G37*
G36*
G01*
X159131833Y-115931272D02*
X158194917Y-114994356D01*
G75*
G02*
X158194917Y-114888290I53033J53033D01*
G01*
X158300983Y-114782224D01*
G75*
G02*
X158407049Y-114782224I53033J-53033D01*
G01*
X159343965Y-115719140D01*
G75*
G02*
X159343965Y-115825206I-53033J-53033D01*
G01*
X159237899Y-115931272D01*
G75*
G02*
X159131833Y-115931272I-53033J53033D01*
G01*
G37*
G36*
G01*
X158778280Y-116284825D02*
X157841364Y-115347909D01*
G75*
G02*
X157841364Y-115241843I53033J53033D01*
G01*
X157947430Y-115135777D01*
G75*
G02*
X158053496Y-115135777I53033J-53033D01*
G01*
X158990412Y-116072693D01*
G75*
G02*
X158990412Y-116178759I-53033J-53033D01*
G01*
X158884346Y-116284825D01*
G75*
G02*
X158778280Y-116284825I-53033J53033D01*
G01*
G37*
G36*
G01*
X158424726Y-116638378D02*
X157487810Y-115701462D01*
G75*
G02*
X157487810Y-115595396I53033J53033D01*
G01*
X157593876Y-115489330D01*
G75*
G02*
X157699942Y-115489330I53033J-53033D01*
G01*
X158636858Y-116426246D01*
G75*
G02*
X158636858Y-116532312I-53033J-53033D01*
G01*
X158530792Y-116638378D01*
G75*
G02*
X158424726Y-116638378I-53033J53033D01*
G01*
G37*
G36*
G01*
X158071173Y-116991932D02*
X157134257Y-116055016D01*
G75*
G02*
X157134257Y-115948950I53033J53033D01*
G01*
X157240323Y-115842884D01*
G75*
G02*
X157346389Y-115842884I53033J-53033D01*
G01*
X158283305Y-116779800D01*
G75*
G02*
X158283305Y-116885866I-53033J-53033D01*
G01*
X158177239Y-116991932D01*
G75*
G02*
X158071173Y-116991932I-53033J53033D01*
G01*
G37*
G36*
G01*
X157717619Y-117345485D02*
X156780703Y-116408569D01*
G75*
G02*
X156780703Y-116302503I53033J53033D01*
G01*
X156886769Y-116196437D01*
G75*
G02*
X156992835Y-116196437I53033J-53033D01*
G01*
X157929751Y-117133353D01*
G75*
G02*
X157929751Y-117239419I-53033J-53033D01*
G01*
X157823685Y-117345485D01*
G75*
G02*
X157717619Y-117345485I-53033J53033D01*
G01*
G37*
G36*
G01*
X157364066Y-117699039D02*
X156427150Y-116762123D01*
G75*
G02*
X156427150Y-116656057I53033J53033D01*
G01*
X156533216Y-116549991D01*
G75*
G02*
X156639282Y-116549991I53033J-53033D01*
G01*
X157576198Y-117486907D01*
G75*
G02*
X157576198Y-117592973I-53033J-53033D01*
G01*
X157470132Y-117699039D01*
G75*
G02*
X157364066Y-117699039I-53033J53033D01*
G01*
G37*
G36*
G01*
X157010513Y-118052592D02*
X156073597Y-117115676D01*
G75*
G02*
X156073597Y-117009610I53033J53033D01*
G01*
X156179663Y-116903544D01*
G75*
G02*
X156285729Y-116903544I53033J-53033D01*
G01*
X157222645Y-117840460D01*
G75*
G02*
X157222645Y-117946526I-53033J-53033D01*
G01*
X157116579Y-118052592D01*
G75*
G02*
X157010513Y-118052592I-53033J53033D01*
G01*
G37*
G36*
G01*
X156656959Y-118406145D02*
X155720043Y-117469229D01*
G75*
G02*
X155720043Y-117363163I53033J53033D01*
G01*
X155826109Y-117257097D01*
G75*
G02*
X155932175Y-117257097I53033J-53033D01*
G01*
X156869091Y-118194013D01*
G75*
G02*
X156869091Y-118300079I-53033J-53033D01*
G01*
X156763025Y-118406145D01*
G75*
G02*
X156656959Y-118406145I-53033J53033D01*
G01*
G37*
G36*
G01*
X156303406Y-118759699D02*
X155366490Y-117822783D01*
G75*
G02*
X155366490Y-117716717I53033J53033D01*
G01*
X155472556Y-117610651D01*
G75*
G02*
X155578622Y-117610651I53033J-53033D01*
G01*
X156515538Y-118547567D01*
G75*
G02*
X156515538Y-118653633I-53033J-53033D01*
G01*
X156409472Y-118759699D01*
G75*
G02*
X156303406Y-118759699I-53033J53033D01*
G01*
G37*
G36*
G01*
X155949852Y-119113252D02*
X155012936Y-118176336D01*
G75*
G02*
X155012936Y-118070270I53033J53033D01*
G01*
X155119002Y-117964204D01*
G75*
G02*
X155225068Y-117964204I53033J-53033D01*
G01*
X156161984Y-118901120D01*
G75*
G02*
X156161984Y-119007186I-53033J-53033D01*
G01*
X156055918Y-119113252D01*
G75*
G02*
X155949852Y-119113252I-53033J53033D01*
G01*
G37*
G36*
G01*
X155596299Y-119466806D02*
X154659383Y-118529890D01*
G75*
G02*
X154659383Y-118423824I53033J53033D01*
G01*
X154765449Y-118317758D01*
G75*
G02*
X154871515Y-118317758I53033J-53033D01*
G01*
X155808431Y-119254674D01*
G75*
G02*
X155808431Y-119360740I-53033J-53033D01*
G01*
X155702365Y-119466806D01*
G75*
G02*
X155596299Y-119466806I-53033J53033D01*
G01*
G37*
G36*
G01*
X155242746Y-119820359D02*
X154305830Y-118883443D01*
G75*
G02*
X154305830Y-118777377I53033J53033D01*
G01*
X154411896Y-118671311D01*
G75*
G02*
X154517962Y-118671311I53033J-53033D01*
G01*
X155454878Y-119608227D01*
G75*
G02*
X155454878Y-119714293I-53033J-53033D01*
G01*
X155348812Y-119820359D01*
G75*
G02*
X155242746Y-119820359I-53033J53033D01*
G01*
G37*
G36*
G01*
X138209000Y-148105600D02*
X138209000Y-148605600D01*
G75*
G02*
X137984000Y-148830600I-225000J0D01*
G01*
X137534000Y-148830600D01*
G75*
G02*
X137309000Y-148605600I0J225000D01*
G01*
X137309000Y-148105600D01*
G75*
G02*
X137534000Y-147880600I225000J0D01*
G01*
X137984000Y-147880600D01*
G75*
G02*
X138209000Y-148105600I0J-225000D01*
G01*
G37*
G36*
G01*
X136659000Y-148105600D02*
X136659000Y-148605600D01*
G75*
G02*
X136434000Y-148830600I-225000J0D01*
G01*
X135984000Y-148830600D01*
G75*
G02*
X135759000Y-148605600I0J225000D01*
G01*
X135759000Y-148105600D01*
G75*
G02*
X135984000Y-147880600I225000J0D01*
G01*
X136434000Y-147880600D01*
G75*
G02*
X136659000Y-148105600I0J-225000D01*
G01*
G37*
G36*
G01*
X154874108Y-126460900D02*
X154874108Y-126960900D01*
G75*
G02*
X154649108Y-127185900I-225000J0D01*
G01*
X154199108Y-127185900D01*
G75*
G02*
X153974108Y-126960900I0J225000D01*
G01*
X153974108Y-126460900D01*
G75*
G02*
X154199108Y-126235900I225000J0D01*
G01*
X154649108Y-126235900D01*
G75*
G02*
X154874108Y-126460900I0J-225000D01*
G01*
G37*
G36*
G01*
X153324108Y-126460900D02*
X153324108Y-126960900D01*
G75*
G02*
X153099108Y-127185900I-225000J0D01*
G01*
X152649108Y-127185900D01*
G75*
G02*
X152424108Y-126960900I0J225000D01*
G01*
X152424108Y-126460900D01*
G75*
G02*
X152649108Y-126235900I225000J0D01*
G01*
X153099108Y-126235900D01*
G75*
G02*
X153324108Y-126460900I0J-225000D01*
G01*
G37*
G36*
G01*
X110832200Y-109434500D02*
X110832200Y-108884500D01*
G75*
G02*
X111032200Y-108684500I200000J0D01*
G01*
X111432200Y-108684500D01*
G75*
G02*
X111632200Y-108884500I0J-200000D01*
G01*
X111632200Y-109434500D01*
G75*
G02*
X111432200Y-109634500I-200000J0D01*
G01*
X111032200Y-109634500D01*
G75*
G02*
X110832200Y-109434500I0J200000D01*
G01*
G37*
G36*
G01*
X112482200Y-109434500D02*
X112482200Y-108884500D01*
G75*
G02*
X112682200Y-108684500I200000J0D01*
G01*
X113082200Y-108684500D01*
G75*
G02*
X113282200Y-108884500I0J-200000D01*
G01*
X113282200Y-109434500D01*
G75*
G02*
X113082200Y-109634500I-200000J0D01*
G01*
X112682200Y-109634500D01*
G75*
G02*
X112482200Y-109434500I0J200000D01*
G01*
G37*
G36*
G01*
X114637800Y-100352400D02*
X114637800Y-100902400D01*
G75*
G02*
X114437800Y-101102400I-200000J0D01*
G01*
X114037800Y-101102400D01*
G75*
G02*
X113837800Y-100902400I0J200000D01*
G01*
X113837800Y-100352400D01*
G75*
G02*
X114037800Y-100152400I200000J0D01*
G01*
X114437800Y-100152400D01*
G75*
G02*
X114637800Y-100352400I0J-200000D01*
G01*
G37*
G36*
G01*
X112987800Y-100352400D02*
X112987800Y-100902400D01*
G75*
G02*
X112787800Y-101102400I-200000J0D01*
G01*
X112387800Y-101102400D01*
G75*
G02*
X112187800Y-100902400I0J200000D01*
G01*
X112187800Y-100352400D01*
G75*
G02*
X112387800Y-100152400I200000J0D01*
G01*
X112787800Y-100152400D01*
G75*
G02*
X112987800Y-100352400I0J-200000D01*
G01*
G37*
D15*
X154141200Y-147609000D03*
X154941200Y-147609000D03*
X155741200Y-147609000D03*
X156541200Y-147609000D03*
X157341200Y-147609000D03*
X158141200Y-147609000D03*
X158941200Y-147609000D03*
X159741200Y-147609000D03*
X160541200Y-147609000D03*
X161341200Y-147609000D03*
X162141200Y-147609000D03*
X162941200Y-147609000D03*
X163741200Y-147609000D03*
X164541200Y-147609000D03*
X165341200Y-147609000D03*
X166141200Y-147609000D03*
X166941200Y-147609000D03*
X167741200Y-147609000D03*
X168541200Y-147609000D03*
X169341200Y-147609000D03*
X170141200Y-147609000D03*
X170941200Y-147609000D03*
X171741200Y-147609000D03*
X172541200Y-147609000D03*
X173341200Y-147609000D03*
X174141200Y-147609000D03*
X174941200Y-147609000D03*
X174941200Y-136109000D03*
X174141200Y-136109000D03*
X173341200Y-136109000D03*
X172541200Y-136109000D03*
X171741200Y-136109000D03*
X170941200Y-136109000D03*
X170141200Y-136109000D03*
X169341200Y-136109000D03*
X168541200Y-136109000D03*
X167741200Y-136109000D03*
X166941200Y-136109000D03*
X166141200Y-136109000D03*
X165341200Y-136109000D03*
X164541200Y-136109000D03*
X163741200Y-136109000D03*
X162941200Y-136109000D03*
X162141200Y-136109000D03*
X161341200Y-136109000D03*
X160541200Y-136109000D03*
X159741200Y-136109000D03*
X158941200Y-136109000D03*
X158141200Y-136109000D03*
X157341200Y-136109000D03*
X156541200Y-136109000D03*
X155741200Y-136109000D03*
X154941200Y-136109000D03*
X154141200Y-136109000D03*
G36*
G01*
X155355900Y-149663600D02*
X155355900Y-149163600D01*
G75*
G02*
X155580900Y-148938600I225000J0D01*
G01*
X156030900Y-148938600D01*
G75*
G02*
X156255900Y-149163600I0J-225000D01*
G01*
X156255900Y-149663600D01*
G75*
G02*
X156030900Y-149888600I-225000J0D01*
G01*
X155580900Y-149888600D01*
G75*
G02*
X155355900Y-149663600I0J225000D01*
G01*
G37*
G36*
G01*
X156905900Y-149663600D02*
X156905900Y-149163600D01*
G75*
G02*
X157130900Y-148938600I225000J0D01*
G01*
X157580900Y-148938600D01*
G75*
G02*
X157805900Y-149163600I0J-225000D01*
G01*
X157805900Y-149663600D01*
G75*
G02*
X157580900Y-149888600I-225000J0D01*
G01*
X157130900Y-149888600D01*
G75*
G02*
X156905900Y-149663600I0J225000D01*
G01*
G37*
G36*
G01*
X173036471Y-116251583D02*
X172682917Y-115898029D01*
G75*
G02*
X172682917Y-115579831I159099J159099D01*
G01*
X173001115Y-115261633D01*
G75*
G02*
X173319313Y-115261633I159099J-159099D01*
G01*
X173672867Y-115615187D01*
G75*
G02*
X173672867Y-115933385I-159099J-159099D01*
G01*
X173354669Y-116251583D01*
G75*
G02*
X173036471Y-116251583I-159099J159099D01*
G01*
G37*
G36*
G01*
X174132487Y-115155567D02*
X173778933Y-114802013D01*
G75*
G02*
X173778933Y-114483815I159099J159099D01*
G01*
X174097131Y-114165617D01*
G75*
G02*
X174415329Y-114165617I159099J-159099D01*
G01*
X174768883Y-114519171D01*
G75*
G02*
X174768883Y-114837369I-159099J-159099D01*
G01*
X174450685Y-115155567D01*
G75*
G02*
X174132487Y-115155567I-159099J159099D01*
G01*
G37*
G36*
G01*
X174828417Y-119664171D02*
X175181971Y-119310617D01*
G75*
G02*
X175500169Y-119310617I159099J-159099D01*
G01*
X175818367Y-119628815D01*
G75*
G02*
X175818367Y-119947013I-159099J-159099D01*
G01*
X175464813Y-120300567D01*
G75*
G02*
X175146615Y-120300567I-159099J159099D01*
G01*
X174828417Y-119982369D01*
G75*
G02*
X174828417Y-119664171I159099J159099D01*
G01*
G37*
G36*
G01*
X175924433Y-120760187D02*
X176277987Y-120406633D01*
G75*
G02*
X176596185Y-120406633I159099J-159099D01*
G01*
X176914383Y-120724831D01*
G75*
G02*
X176914383Y-121043029I-159099J-159099D01*
G01*
X176560829Y-121396583D01*
G75*
G02*
X176242631Y-121396583I-159099J159099D01*
G01*
X175924433Y-121078385D01*
G75*
G02*
X175924433Y-120760187I159099J159099D01*
G01*
G37*
G36*
G01*
X142528900Y-112258200D02*
X142528900Y-111758200D01*
G75*
G02*
X142753900Y-111533200I225000J0D01*
G01*
X143203900Y-111533200D01*
G75*
G02*
X143428900Y-111758200I0J-225000D01*
G01*
X143428900Y-112258200D01*
G75*
G02*
X143203900Y-112483200I-225000J0D01*
G01*
X142753900Y-112483200D01*
G75*
G02*
X142528900Y-112258200I0J225000D01*
G01*
G37*
G36*
G01*
X144078900Y-112258200D02*
X144078900Y-111758200D01*
G75*
G02*
X144303900Y-111533200I225000J0D01*
G01*
X144753900Y-111533200D01*
G75*
G02*
X144978900Y-111758200I0J-225000D01*
G01*
X144978900Y-112258200D01*
G75*
G02*
X144753900Y-112483200I-225000J0D01*
G01*
X144303900Y-112483200D01*
G75*
G02*
X144078900Y-112258200I0J225000D01*
G01*
G37*
G36*
G01*
X158593300Y-134053600D02*
X158593300Y-134553600D01*
G75*
G02*
X158368300Y-134778600I-225000J0D01*
G01*
X157918300Y-134778600D01*
G75*
G02*
X157693300Y-134553600I0J225000D01*
G01*
X157693300Y-134053600D01*
G75*
G02*
X157918300Y-133828600I225000J0D01*
G01*
X158368300Y-133828600D01*
G75*
G02*
X158593300Y-134053600I0J-225000D01*
G01*
G37*
G36*
G01*
X157043300Y-134053600D02*
X157043300Y-134553600D01*
G75*
G02*
X156818300Y-134778600I-225000J0D01*
G01*
X156368300Y-134778600D01*
G75*
G02*
X156143300Y-134553600I0J225000D01*
G01*
X156143300Y-134053600D01*
G75*
G02*
X156368300Y-133828600I225000J0D01*
G01*
X156818300Y-133828600D01*
G75*
G02*
X157043300Y-134053600I0J-225000D01*
G01*
G37*
D11*
X147387000Y-135645500D03*
D12*
X147387000Y-136445500D03*
X147387000Y-137245500D03*
D11*
X147387000Y-138045500D03*
X149187000Y-138045500D03*
D12*
X149187000Y-137245500D03*
X149187000Y-136445500D03*
D11*
X149187000Y-135645500D03*
G36*
G01*
X175382700Y-149163600D02*
X175382700Y-149663600D01*
G75*
G02*
X175157700Y-149888600I-225000J0D01*
G01*
X174707700Y-149888600D01*
G75*
G02*
X174482700Y-149663600I0J225000D01*
G01*
X174482700Y-149163600D01*
G75*
G02*
X174707700Y-148938600I225000J0D01*
G01*
X175157700Y-148938600D01*
G75*
G02*
X175382700Y-149163600I0J-225000D01*
G01*
G37*
G36*
G01*
X173832700Y-149163600D02*
X173832700Y-149663600D01*
G75*
G02*
X173607700Y-149888600I-225000J0D01*
G01*
X173157700Y-149888600D01*
G75*
G02*
X172932700Y-149663600I0J225000D01*
G01*
X172932700Y-149163600D01*
G75*
G02*
X173157700Y-148938600I225000J0D01*
G01*
X173607700Y-148938600D01*
G75*
G02*
X173832700Y-149163600I0J-225000D01*
G01*
G37*
D16*
X179050800Y-133186600D03*
D17*
X178250800Y-133186600D03*
X177450800Y-133186600D03*
D16*
X176650800Y-133186600D03*
X176650800Y-134986600D03*
D17*
X177450800Y-134986600D03*
X178250800Y-134986600D03*
D16*
X179050800Y-134986600D03*
D18*
X121744000Y-106848800D03*
X121744000Y-107348800D03*
X121744000Y-107848800D03*
X121744000Y-108348800D03*
X121744000Y-108848800D03*
X121744000Y-109348800D03*
X121744000Y-109848800D03*
X121744000Y-110348800D03*
X121744000Y-110848800D03*
X121744000Y-111348800D03*
X121744000Y-111848800D03*
X121744000Y-112348800D03*
X121744000Y-112848800D03*
X121744000Y-113348800D03*
X121744000Y-113848800D03*
X121744000Y-114348800D03*
X121744000Y-114848800D03*
X121744000Y-115348800D03*
X121744000Y-115848800D03*
X121744000Y-116348800D03*
X121744000Y-116848800D03*
X121744000Y-117348800D03*
X121744000Y-117848800D03*
X121744000Y-118348800D03*
X141244000Y-118348800D03*
X141244000Y-117848800D03*
X141244000Y-117348800D03*
X141244000Y-116848800D03*
X141244000Y-116348800D03*
X141244000Y-115848800D03*
X141244000Y-115348800D03*
X141244000Y-114848800D03*
X141244000Y-114348800D03*
X141244000Y-113848800D03*
X141244000Y-113348800D03*
X141244000Y-112848800D03*
X141244000Y-112348800D03*
X141244000Y-111848800D03*
X141244000Y-111348800D03*
X141244000Y-110848800D03*
X141244000Y-110348800D03*
X141244000Y-109848800D03*
X141244000Y-109348800D03*
X141244000Y-108848800D03*
X141244000Y-108348800D03*
X141244000Y-107848800D03*
X141244000Y-107348800D03*
X141244000Y-106848800D03*
G36*
G01*
X138694000Y-129455800D02*
X138694000Y-129605800D01*
G75*
G02*
X138619000Y-129680800I-75000J0D01*
G01*
X137219000Y-129680800D01*
G75*
G02*
X137144000Y-129605800I0J75000D01*
G01*
X137144000Y-129455800D01*
G75*
G02*
X137219000Y-129380800I75000J0D01*
G01*
X138619000Y-129380800D01*
G75*
G02*
X138694000Y-129455800I0J-75000D01*
G01*
G37*
G36*
G01*
X138694000Y-128955800D02*
X138694000Y-129105800D01*
G75*
G02*
X138619000Y-129180800I-75000J0D01*
G01*
X137219000Y-129180800D01*
G75*
G02*
X137144000Y-129105800I0J75000D01*
G01*
X137144000Y-128955800D01*
G75*
G02*
X137219000Y-128880800I75000J0D01*
G01*
X138619000Y-128880800D01*
G75*
G02*
X138694000Y-128955800I0J-75000D01*
G01*
G37*
G36*
G01*
X138694000Y-128455800D02*
X138694000Y-128605800D01*
G75*
G02*
X138619000Y-128680800I-75000J0D01*
G01*
X137219000Y-128680800D01*
G75*
G02*
X137144000Y-128605800I0J75000D01*
G01*
X137144000Y-128455800D01*
G75*
G02*
X137219000Y-128380800I75000J0D01*
G01*
X138619000Y-128380800D01*
G75*
G02*
X138694000Y-128455800I0J-75000D01*
G01*
G37*
G36*
G01*
X138694000Y-127955800D02*
X138694000Y-128105800D01*
G75*
G02*
X138619000Y-128180800I-75000J0D01*
G01*
X137219000Y-128180800D01*
G75*
G02*
X137144000Y-128105800I0J75000D01*
G01*
X137144000Y-127955800D01*
G75*
G02*
X137219000Y-127880800I75000J0D01*
G01*
X138619000Y-127880800D01*
G75*
G02*
X138694000Y-127955800I0J-75000D01*
G01*
G37*
G36*
G01*
X138694000Y-127455800D02*
X138694000Y-127605800D01*
G75*
G02*
X138619000Y-127680800I-75000J0D01*
G01*
X137219000Y-127680800D01*
G75*
G02*
X137144000Y-127605800I0J75000D01*
G01*
X137144000Y-127455800D01*
G75*
G02*
X137219000Y-127380800I75000J0D01*
G01*
X138619000Y-127380800D01*
G75*
G02*
X138694000Y-127455800I0J-75000D01*
G01*
G37*
G36*
G01*
X138694000Y-126955800D02*
X138694000Y-127105800D01*
G75*
G02*
X138619000Y-127180800I-75000J0D01*
G01*
X137219000Y-127180800D01*
G75*
G02*
X137144000Y-127105800I0J75000D01*
G01*
X137144000Y-126955800D01*
G75*
G02*
X137219000Y-126880800I75000J0D01*
G01*
X138619000Y-126880800D01*
G75*
G02*
X138694000Y-126955800I0J-75000D01*
G01*
G37*
G36*
G01*
X138694000Y-126455800D02*
X138694000Y-126605800D01*
G75*
G02*
X138619000Y-126680800I-75000J0D01*
G01*
X137219000Y-126680800D01*
G75*
G02*
X137144000Y-126605800I0J75000D01*
G01*
X137144000Y-126455800D01*
G75*
G02*
X137219000Y-126380800I75000J0D01*
G01*
X138619000Y-126380800D01*
G75*
G02*
X138694000Y-126455800I0J-75000D01*
G01*
G37*
G36*
G01*
X138694000Y-125955800D02*
X138694000Y-126105800D01*
G75*
G02*
X138619000Y-126180800I-75000J0D01*
G01*
X137219000Y-126180800D01*
G75*
G02*
X137144000Y-126105800I0J75000D01*
G01*
X137144000Y-125955800D01*
G75*
G02*
X137219000Y-125880800I75000J0D01*
G01*
X138619000Y-125880800D01*
G75*
G02*
X138694000Y-125955800I0J-75000D01*
G01*
G37*
G36*
G01*
X138694000Y-125455800D02*
X138694000Y-125605800D01*
G75*
G02*
X138619000Y-125680800I-75000J0D01*
G01*
X137219000Y-125680800D01*
G75*
G02*
X137144000Y-125605800I0J75000D01*
G01*
X137144000Y-125455800D01*
G75*
G02*
X137219000Y-125380800I75000J0D01*
G01*
X138619000Y-125380800D01*
G75*
G02*
X138694000Y-125455800I0J-75000D01*
G01*
G37*
G36*
G01*
X138694000Y-124955800D02*
X138694000Y-125105800D01*
G75*
G02*
X138619000Y-125180800I-75000J0D01*
G01*
X137219000Y-125180800D01*
G75*
G02*
X137144000Y-125105800I0J75000D01*
G01*
X137144000Y-124955800D01*
G75*
G02*
X137219000Y-124880800I75000J0D01*
G01*
X138619000Y-124880800D01*
G75*
G02*
X138694000Y-124955800I0J-75000D01*
G01*
G37*
G36*
G01*
X138694000Y-124455800D02*
X138694000Y-124605800D01*
G75*
G02*
X138619000Y-124680800I-75000J0D01*
G01*
X137219000Y-124680800D01*
G75*
G02*
X137144000Y-124605800I0J75000D01*
G01*
X137144000Y-124455800D01*
G75*
G02*
X137219000Y-124380800I75000J0D01*
G01*
X138619000Y-124380800D01*
G75*
G02*
X138694000Y-124455800I0J-75000D01*
G01*
G37*
G36*
G01*
X138694000Y-123955800D02*
X138694000Y-124105800D01*
G75*
G02*
X138619000Y-124180800I-75000J0D01*
G01*
X137219000Y-124180800D01*
G75*
G02*
X137144000Y-124105800I0J75000D01*
G01*
X137144000Y-123955800D01*
G75*
G02*
X137219000Y-123880800I75000J0D01*
G01*
X138619000Y-123880800D01*
G75*
G02*
X138694000Y-123955800I0J-75000D01*
G01*
G37*
G36*
G01*
X138694000Y-123455800D02*
X138694000Y-123605800D01*
G75*
G02*
X138619000Y-123680800I-75000J0D01*
G01*
X137219000Y-123680800D01*
G75*
G02*
X137144000Y-123605800I0J75000D01*
G01*
X137144000Y-123455800D01*
G75*
G02*
X137219000Y-123380800I75000J0D01*
G01*
X138619000Y-123380800D01*
G75*
G02*
X138694000Y-123455800I0J-75000D01*
G01*
G37*
G36*
G01*
X138694000Y-122955800D02*
X138694000Y-123105800D01*
G75*
G02*
X138619000Y-123180800I-75000J0D01*
G01*
X137219000Y-123180800D01*
G75*
G02*
X137144000Y-123105800I0J75000D01*
G01*
X137144000Y-122955800D01*
G75*
G02*
X137219000Y-122880800I75000J0D01*
G01*
X138619000Y-122880800D01*
G75*
G02*
X138694000Y-122955800I0J-75000D01*
G01*
G37*
G36*
G01*
X138694000Y-122455800D02*
X138694000Y-122605800D01*
G75*
G02*
X138619000Y-122680800I-75000J0D01*
G01*
X137219000Y-122680800D01*
G75*
G02*
X137144000Y-122605800I0J75000D01*
G01*
X137144000Y-122455800D01*
G75*
G02*
X137219000Y-122380800I75000J0D01*
G01*
X138619000Y-122380800D01*
G75*
G02*
X138694000Y-122455800I0J-75000D01*
G01*
G37*
G36*
G01*
X138694000Y-121955800D02*
X138694000Y-122105800D01*
G75*
G02*
X138619000Y-122180800I-75000J0D01*
G01*
X137219000Y-122180800D01*
G75*
G02*
X137144000Y-122105800I0J75000D01*
G01*
X137144000Y-121955800D01*
G75*
G02*
X137219000Y-121880800I75000J0D01*
G01*
X138619000Y-121880800D01*
G75*
G02*
X138694000Y-121955800I0J-75000D01*
G01*
G37*
G36*
G01*
X125844000Y-121955800D02*
X125844000Y-122105800D01*
G75*
G02*
X125769000Y-122180800I-75000J0D01*
G01*
X124369000Y-122180800D01*
G75*
G02*
X124294000Y-122105800I0J75000D01*
G01*
X124294000Y-121955800D01*
G75*
G02*
X124369000Y-121880800I75000J0D01*
G01*
X125769000Y-121880800D01*
G75*
G02*
X125844000Y-121955800I0J-75000D01*
G01*
G37*
G36*
G01*
X125844000Y-122455800D02*
X125844000Y-122605800D01*
G75*
G02*
X125769000Y-122680800I-75000J0D01*
G01*
X124369000Y-122680800D01*
G75*
G02*
X124294000Y-122605800I0J75000D01*
G01*
X124294000Y-122455800D01*
G75*
G02*
X124369000Y-122380800I75000J0D01*
G01*
X125769000Y-122380800D01*
G75*
G02*
X125844000Y-122455800I0J-75000D01*
G01*
G37*
G36*
G01*
X125844000Y-122955800D02*
X125844000Y-123105800D01*
G75*
G02*
X125769000Y-123180800I-75000J0D01*
G01*
X124369000Y-123180800D01*
G75*
G02*
X124294000Y-123105800I0J75000D01*
G01*
X124294000Y-122955800D01*
G75*
G02*
X124369000Y-122880800I75000J0D01*
G01*
X125769000Y-122880800D01*
G75*
G02*
X125844000Y-122955800I0J-75000D01*
G01*
G37*
G36*
G01*
X125844000Y-123455800D02*
X125844000Y-123605800D01*
G75*
G02*
X125769000Y-123680800I-75000J0D01*
G01*
X124369000Y-123680800D01*
G75*
G02*
X124294000Y-123605800I0J75000D01*
G01*
X124294000Y-123455800D01*
G75*
G02*
X124369000Y-123380800I75000J0D01*
G01*
X125769000Y-123380800D01*
G75*
G02*
X125844000Y-123455800I0J-75000D01*
G01*
G37*
G36*
G01*
X125844000Y-123955800D02*
X125844000Y-124105800D01*
G75*
G02*
X125769000Y-124180800I-75000J0D01*
G01*
X124369000Y-124180800D01*
G75*
G02*
X124294000Y-124105800I0J75000D01*
G01*
X124294000Y-123955800D01*
G75*
G02*
X124369000Y-123880800I75000J0D01*
G01*
X125769000Y-123880800D01*
G75*
G02*
X125844000Y-123955800I0J-75000D01*
G01*
G37*
G36*
G01*
X125844000Y-124455800D02*
X125844000Y-124605800D01*
G75*
G02*
X125769000Y-124680800I-75000J0D01*
G01*
X124369000Y-124680800D01*
G75*
G02*
X124294000Y-124605800I0J75000D01*
G01*
X124294000Y-124455800D01*
G75*
G02*
X124369000Y-124380800I75000J0D01*
G01*
X125769000Y-124380800D01*
G75*
G02*
X125844000Y-124455800I0J-75000D01*
G01*
G37*
G36*
G01*
X125844000Y-124955800D02*
X125844000Y-125105800D01*
G75*
G02*
X125769000Y-125180800I-75000J0D01*
G01*
X124369000Y-125180800D01*
G75*
G02*
X124294000Y-125105800I0J75000D01*
G01*
X124294000Y-124955800D01*
G75*
G02*
X124369000Y-124880800I75000J0D01*
G01*
X125769000Y-124880800D01*
G75*
G02*
X125844000Y-124955800I0J-75000D01*
G01*
G37*
G36*
G01*
X125844000Y-125455800D02*
X125844000Y-125605800D01*
G75*
G02*
X125769000Y-125680800I-75000J0D01*
G01*
X124369000Y-125680800D01*
G75*
G02*
X124294000Y-125605800I0J75000D01*
G01*
X124294000Y-125455800D01*
G75*
G02*
X124369000Y-125380800I75000J0D01*
G01*
X125769000Y-125380800D01*
G75*
G02*
X125844000Y-125455800I0J-75000D01*
G01*
G37*
G36*
G01*
X125844000Y-125955800D02*
X125844000Y-126105800D01*
G75*
G02*
X125769000Y-126180800I-75000J0D01*
G01*
X124369000Y-126180800D01*
G75*
G02*
X124294000Y-126105800I0J75000D01*
G01*
X124294000Y-125955800D01*
G75*
G02*
X124369000Y-125880800I75000J0D01*
G01*
X125769000Y-125880800D01*
G75*
G02*
X125844000Y-125955800I0J-75000D01*
G01*
G37*
G36*
G01*
X125844000Y-126455800D02*
X125844000Y-126605800D01*
G75*
G02*
X125769000Y-126680800I-75000J0D01*
G01*
X124369000Y-126680800D01*
G75*
G02*
X124294000Y-126605800I0J75000D01*
G01*
X124294000Y-126455800D01*
G75*
G02*
X124369000Y-126380800I75000J0D01*
G01*
X125769000Y-126380800D01*
G75*
G02*
X125844000Y-126455800I0J-75000D01*
G01*
G37*
G36*
G01*
X125844000Y-126955800D02*
X125844000Y-127105800D01*
G75*
G02*
X125769000Y-127180800I-75000J0D01*
G01*
X124369000Y-127180800D01*
G75*
G02*
X124294000Y-127105800I0J75000D01*
G01*
X124294000Y-126955800D01*
G75*
G02*
X124369000Y-126880800I75000J0D01*
G01*
X125769000Y-126880800D01*
G75*
G02*
X125844000Y-126955800I0J-75000D01*
G01*
G37*
G36*
G01*
X125844000Y-127455800D02*
X125844000Y-127605800D01*
G75*
G02*
X125769000Y-127680800I-75000J0D01*
G01*
X124369000Y-127680800D01*
G75*
G02*
X124294000Y-127605800I0J75000D01*
G01*
X124294000Y-127455800D01*
G75*
G02*
X124369000Y-127380800I75000J0D01*
G01*
X125769000Y-127380800D01*
G75*
G02*
X125844000Y-127455800I0J-75000D01*
G01*
G37*
G36*
G01*
X125844000Y-127955800D02*
X125844000Y-128105800D01*
G75*
G02*
X125769000Y-128180800I-75000J0D01*
G01*
X124369000Y-128180800D01*
G75*
G02*
X124294000Y-128105800I0J75000D01*
G01*
X124294000Y-127955800D01*
G75*
G02*
X124369000Y-127880800I75000J0D01*
G01*
X125769000Y-127880800D01*
G75*
G02*
X125844000Y-127955800I0J-75000D01*
G01*
G37*
G36*
G01*
X125844000Y-128455800D02*
X125844000Y-128605800D01*
G75*
G02*
X125769000Y-128680800I-75000J0D01*
G01*
X124369000Y-128680800D01*
G75*
G02*
X124294000Y-128605800I0J75000D01*
G01*
X124294000Y-128455800D01*
G75*
G02*
X124369000Y-128380800I75000J0D01*
G01*
X125769000Y-128380800D01*
G75*
G02*
X125844000Y-128455800I0J-75000D01*
G01*
G37*
G36*
G01*
X125844000Y-128955800D02*
X125844000Y-129105800D01*
G75*
G02*
X125769000Y-129180800I-75000J0D01*
G01*
X124369000Y-129180800D01*
G75*
G02*
X124294000Y-129105800I0J75000D01*
G01*
X124294000Y-128955800D01*
G75*
G02*
X124369000Y-128880800I75000J0D01*
G01*
X125769000Y-128880800D01*
G75*
G02*
X125844000Y-128955800I0J-75000D01*
G01*
G37*
G36*
G01*
X125844000Y-129455800D02*
X125844000Y-129605800D01*
G75*
G02*
X125769000Y-129680800I-75000J0D01*
G01*
X124369000Y-129680800D01*
G75*
G02*
X124294000Y-129605800I0J75000D01*
G01*
X124294000Y-129455800D01*
G75*
G02*
X124369000Y-129380800I75000J0D01*
G01*
X125769000Y-129380800D01*
G75*
G02*
X125844000Y-129455800I0J-75000D01*
G01*
G37*
G36*
G01*
X112712500Y-140862800D02*
X112712500Y-140662800D01*
G75*
G02*
X112812500Y-140562800I100000J0D01*
G01*
X114087500Y-140562800D01*
G75*
G02*
X114187500Y-140662800I0J-100000D01*
G01*
X114187500Y-140862800D01*
G75*
G02*
X114087500Y-140962800I-100000J0D01*
G01*
X112812500Y-140962800D01*
G75*
G02*
X112712500Y-140862800I0J100000D01*
G01*
G37*
G36*
G01*
X112712500Y-141512800D02*
X112712500Y-141312800D01*
G75*
G02*
X112812500Y-141212800I100000J0D01*
G01*
X114087500Y-141212800D01*
G75*
G02*
X114187500Y-141312800I0J-100000D01*
G01*
X114187500Y-141512800D01*
G75*
G02*
X114087500Y-141612800I-100000J0D01*
G01*
X112812500Y-141612800D01*
G75*
G02*
X112712500Y-141512800I0J100000D01*
G01*
G37*
G36*
G01*
X112712500Y-142162800D02*
X112712500Y-141962800D01*
G75*
G02*
X112812500Y-141862800I100000J0D01*
G01*
X114087500Y-141862800D01*
G75*
G02*
X114187500Y-141962800I0J-100000D01*
G01*
X114187500Y-142162800D01*
G75*
G02*
X114087500Y-142262800I-100000J0D01*
G01*
X112812500Y-142262800D01*
G75*
G02*
X112712500Y-142162800I0J100000D01*
G01*
G37*
G36*
G01*
X112712500Y-142812800D02*
X112712500Y-142612800D01*
G75*
G02*
X112812500Y-142512800I100000J0D01*
G01*
X114087500Y-142512800D01*
G75*
G02*
X114187500Y-142612800I0J-100000D01*
G01*
X114187500Y-142812800D01*
G75*
G02*
X114087500Y-142912800I-100000J0D01*
G01*
X112812500Y-142912800D01*
G75*
G02*
X112712500Y-142812800I0J100000D01*
G01*
G37*
G36*
G01*
X112712500Y-143462800D02*
X112712500Y-143262800D01*
G75*
G02*
X112812500Y-143162800I100000J0D01*
G01*
X114087500Y-143162800D01*
G75*
G02*
X114187500Y-143262800I0J-100000D01*
G01*
X114187500Y-143462800D01*
G75*
G02*
X114087500Y-143562800I-100000J0D01*
G01*
X112812500Y-143562800D01*
G75*
G02*
X112712500Y-143462800I0J100000D01*
G01*
G37*
G36*
G01*
X112712500Y-144112800D02*
X112712500Y-143912800D01*
G75*
G02*
X112812500Y-143812800I100000J0D01*
G01*
X114087500Y-143812800D01*
G75*
G02*
X114187500Y-143912800I0J-100000D01*
G01*
X114187500Y-144112800D01*
G75*
G02*
X114087500Y-144212800I-100000J0D01*
G01*
X112812500Y-144212800D01*
G75*
G02*
X112712500Y-144112800I0J100000D01*
G01*
G37*
G36*
G01*
X112712500Y-144762800D02*
X112712500Y-144562800D01*
G75*
G02*
X112812500Y-144462800I100000J0D01*
G01*
X114087500Y-144462800D01*
G75*
G02*
X114187500Y-144562800I0J-100000D01*
G01*
X114187500Y-144762800D01*
G75*
G02*
X114087500Y-144862800I-100000J0D01*
G01*
X112812500Y-144862800D01*
G75*
G02*
X112712500Y-144762800I0J100000D01*
G01*
G37*
G36*
G01*
X112712500Y-145412800D02*
X112712500Y-145212800D01*
G75*
G02*
X112812500Y-145112800I100000J0D01*
G01*
X114087500Y-145112800D01*
G75*
G02*
X114187500Y-145212800I0J-100000D01*
G01*
X114187500Y-145412800D01*
G75*
G02*
X114087500Y-145512800I-100000J0D01*
G01*
X112812500Y-145512800D01*
G75*
G02*
X112712500Y-145412800I0J100000D01*
G01*
G37*
G36*
G01*
X112712500Y-146062800D02*
X112712500Y-145862800D01*
G75*
G02*
X112812500Y-145762800I100000J0D01*
G01*
X114087500Y-145762800D01*
G75*
G02*
X114187500Y-145862800I0J-100000D01*
G01*
X114187500Y-146062800D01*
G75*
G02*
X114087500Y-146162800I-100000J0D01*
G01*
X112812500Y-146162800D01*
G75*
G02*
X112712500Y-146062800I0J100000D01*
G01*
G37*
G36*
G01*
X112712500Y-146712800D02*
X112712500Y-146512800D01*
G75*
G02*
X112812500Y-146412800I100000J0D01*
G01*
X114087500Y-146412800D01*
G75*
G02*
X114187500Y-146512800I0J-100000D01*
G01*
X114187500Y-146712800D01*
G75*
G02*
X114087500Y-146812800I-100000J0D01*
G01*
X112812500Y-146812800D01*
G75*
G02*
X112712500Y-146712800I0J100000D01*
G01*
G37*
G36*
G01*
X118437500Y-146712800D02*
X118437500Y-146512800D01*
G75*
G02*
X118537500Y-146412800I100000J0D01*
G01*
X119812500Y-146412800D01*
G75*
G02*
X119912500Y-146512800I0J-100000D01*
G01*
X119912500Y-146712800D01*
G75*
G02*
X119812500Y-146812800I-100000J0D01*
G01*
X118537500Y-146812800D01*
G75*
G02*
X118437500Y-146712800I0J100000D01*
G01*
G37*
G36*
G01*
X118437500Y-146062800D02*
X118437500Y-145862800D01*
G75*
G02*
X118537500Y-145762800I100000J0D01*
G01*
X119812500Y-145762800D01*
G75*
G02*
X119912500Y-145862800I0J-100000D01*
G01*
X119912500Y-146062800D01*
G75*
G02*
X119812500Y-146162800I-100000J0D01*
G01*
X118537500Y-146162800D01*
G75*
G02*
X118437500Y-146062800I0J100000D01*
G01*
G37*
G36*
G01*
X118437500Y-145412800D02*
X118437500Y-145212800D01*
G75*
G02*
X118537500Y-145112800I100000J0D01*
G01*
X119812500Y-145112800D01*
G75*
G02*
X119912500Y-145212800I0J-100000D01*
G01*
X119912500Y-145412800D01*
G75*
G02*
X119812500Y-145512800I-100000J0D01*
G01*
X118537500Y-145512800D01*
G75*
G02*
X118437500Y-145412800I0J100000D01*
G01*
G37*
G36*
G01*
X118437500Y-144762800D02*
X118437500Y-144562800D01*
G75*
G02*
X118537500Y-144462800I100000J0D01*
G01*
X119812500Y-144462800D01*
G75*
G02*
X119912500Y-144562800I0J-100000D01*
G01*
X119912500Y-144762800D01*
G75*
G02*
X119812500Y-144862800I-100000J0D01*
G01*
X118537500Y-144862800D01*
G75*
G02*
X118437500Y-144762800I0J100000D01*
G01*
G37*
G36*
G01*
X118437500Y-144112800D02*
X118437500Y-143912800D01*
G75*
G02*
X118537500Y-143812800I100000J0D01*
G01*
X119812500Y-143812800D01*
G75*
G02*
X119912500Y-143912800I0J-100000D01*
G01*
X119912500Y-144112800D01*
G75*
G02*
X119812500Y-144212800I-100000J0D01*
G01*
X118537500Y-144212800D01*
G75*
G02*
X118437500Y-144112800I0J100000D01*
G01*
G37*
G36*
G01*
X118437500Y-143462800D02*
X118437500Y-143262800D01*
G75*
G02*
X118537500Y-143162800I100000J0D01*
G01*
X119812500Y-143162800D01*
G75*
G02*
X119912500Y-143262800I0J-100000D01*
G01*
X119912500Y-143462800D01*
G75*
G02*
X119812500Y-143562800I-100000J0D01*
G01*
X118537500Y-143562800D01*
G75*
G02*
X118437500Y-143462800I0J100000D01*
G01*
G37*
G36*
G01*
X118437500Y-142812800D02*
X118437500Y-142612800D01*
G75*
G02*
X118537500Y-142512800I100000J0D01*
G01*
X119812500Y-142512800D01*
G75*
G02*
X119912500Y-142612800I0J-100000D01*
G01*
X119912500Y-142812800D01*
G75*
G02*
X119812500Y-142912800I-100000J0D01*
G01*
X118537500Y-142912800D01*
G75*
G02*
X118437500Y-142812800I0J100000D01*
G01*
G37*
G36*
G01*
X118437500Y-142162800D02*
X118437500Y-141962800D01*
G75*
G02*
X118537500Y-141862800I100000J0D01*
G01*
X119812500Y-141862800D01*
G75*
G02*
X119912500Y-141962800I0J-100000D01*
G01*
X119912500Y-142162800D01*
G75*
G02*
X119812500Y-142262800I-100000J0D01*
G01*
X118537500Y-142262800D01*
G75*
G02*
X118437500Y-142162800I0J100000D01*
G01*
G37*
G36*
G01*
X118437500Y-141512800D02*
X118437500Y-141312800D01*
G75*
G02*
X118537500Y-141212800I100000J0D01*
G01*
X119812500Y-141212800D01*
G75*
G02*
X119912500Y-141312800I0J-100000D01*
G01*
X119912500Y-141512800D01*
G75*
G02*
X119812500Y-141612800I-100000J0D01*
G01*
X118537500Y-141612800D01*
G75*
G02*
X118437500Y-141512800I0J100000D01*
G01*
G37*
G36*
G01*
X118437500Y-140862800D02*
X118437500Y-140662800D01*
G75*
G02*
X118537500Y-140562800I100000J0D01*
G01*
X119812500Y-140562800D01*
G75*
G02*
X119912500Y-140662800I0J-100000D01*
G01*
X119912500Y-140862800D01*
G75*
G02*
X119812500Y-140962800I-100000J0D01*
G01*
X118537500Y-140962800D01*
G75*
G02*
X118437500Y-140862800I0J100000D01*
G01*
G37*
G36*
G01*
X138209000Y-141044400D02*
X138209000Y-141544400D01*
G75*
G02*
X137984000Y-141769400I-225000J0D01*
G01*
X137534000Y-141769400D01*
G75*
G02*
X137309000Y-141544400I0J225000D01*
G01*
X137309000Y-141044400D01*
G75*
G02*
X137534000Y-140819400I225000J0D01*
G01*
X137984000Y-140819400D01*
G75*
G02*
X138209000Y-141044400I0J-225000D01*
G01*
G37*
G36*
G01*
X136659000Y-141044400D02*
X136659000Y-141544400D01*
G75*
G02*
X136434000Y-141769400I-225000J0D01*
G01*
X135984000Y-141769400D01*
G75*
G02*
X135759000Y-141544400I0J225000D01*
G01*
X135759000Y-141044400D01*
G75*
G02*
X135984000Y-140819400I225000J0D01*
G01*
X136434000Y-140819400D01*
G75*
G02*
X136659000Y-141044400I0J-225000D01*
G01*
G37*
D19*
X178411400Y-105513600D03*
D20*
X178411400Y-108053600D03*
X178411400Y-110593600D03*
X178411400Y-113133600D03*
X178411400Y-115673600D03*
X178411400Y-118213600D03*
G36*
G01*
X112712500Y-131871200D02*
X112712500Y-131671200D01*
G75*
G02*
X112812500Y-131571200I100000J0D01*
G01*
X114087500Y-131571200D01*
G75*
G02*
X114187500Y-131671200I0J-100000D01*
G01*
X114187500Y-131871200D01*
G75*
G02*
X114087500Y-131971200I-100000J0D01*
G01*
X112812500Y-131971200D01*
G75*
G02*
X112712500Y-131871200I0J100000D01*
G01*
G37*
G36*
G01*
X112712500Y-132521200D02*
X112712500Y-132321200D01*
G75*
G02*
X112812500Y-132221200I100000J0D01*
G01*
X114087500Y-132221200D01*
G75*
G02*
X114187500Y-132321200I0J-100000D01*
G01*
X114187500Y-132521200D01*
G75*
G02*
X114087500Y-132621200I-100000J0D01*
G01*
X112812500Y-132621200D01*
G75*
G02*
X112712500Y-132521200I0J100000D01*
G01*
G37*
G36*
G01*
X112712500Y-133171200D02*
X112712500Y-132971200D01*
G75*
G02*
X112812500Y-132871200I100000J0D01*
G01*
X114087500Y-132871200D01*
G75*
G02*
X114187500Y-132971200I0J-100000D01*
G01*
X114187500Y-133171200D01*
G75*
G02*
X114087500Y-133271200I-100000J0D01*
G01*
X112812500Y-133271200D01*
G75*
G02*
X112712500Y-133171200I0J100000D01*
G01*
G37*
G36*
G01*
X112712500Y-133821200D02*
X112712500Y-133621200D01*
G75*
G02*
X112812500Y-133521200I100000J0D01*
G01*
X114087500Y-133521200D01*
G75*
G02*
X114187500Y-133621200I0J-100000D01*
G01*
X114187500Y-133821200D01*
G75*
G02*
X114087500Y-133921200I-100000J0D01*
G01*
X112812500Y-133921200D01*
G75*
G02*
X112712500Y-133821200I0J100000D01*
G01*
G37*
G36*
G01*
X112712500Y-134471200D02*
X112712500Y-134271200D01*
G75*
G02*
X112812500Y-134171200I100000J0D01*
G01*
X114087500Y-134171200D01*
G75*
G02*
X114187500Y-134271200I0J-100000D01*
G01*
X114187500Y-134471200D01*
G75*
G02*
X114087500Y-134571200I-100000J0D01*
G01*
X112812500Y-134571200D01*
G75*
G02*
X112712500Y-134471200I0J100000D01*
G01*
G37*
G36*
G01*
X112712500Y-135121200D02*
X112712500Y-134921200D01*
G75*
G02*
X112812500Y-134821200I100000J0D01*
G01*
X114087500Y-134821200D01*
G75*
G02*
X114187500Y-134921200I0J-100000D01*
G01*
X114187500Y-135121200D01*
G75*
G02*
X114087500Y-135221200I-100000J0D01*
G01*
X112812500Y-135221200D01*
G75*
G02*
X112712500Y-135121200I0J100000D01*
G01*
G37*
G36*
G01*
X112712500Y-135771200D02*
X112712500Y-135571200D01*
G75*
G02*
X112812500Y-135471200I100000J0D01*
G01*
X114087500Y-135471200D01*
G75*
G02*
X114187500Y-135571200I0J-100000D01*
G01*
X114187500Y-135771200D01*
G75*
G02*
X114087500Y-135871200I-100000J0D01*
G01*
X112812500Y-135871200D01*
G75*
G02*
X112712500Y-135771200I0J100000D01*
G01*
G37*
G36*
G01*
X112712500Y-136421200D02*
X112712500Y-136221200D01*
G75*
G02*
X112812500Y-136121200I100000J0D01*
G01*
X114087500Y-136121200D01*
G75*
G02*
X114187500Y-136221200I0J-100000D01*
G01*
X114187500Y-136421200D01*
G75*
G02*
X114087500Y-136521200I-100000J0D01*
G01*
X112812500Y-136521200D01*
G75*
G02*
X112712500Y-136421200I0J100000D01*
G01*
G37*
G36*
G01*
X112712500Y-137071200D02*
X112712500Y-136871200D01*
G75*
G02*
X112812500Y-136771200I100000J0D01*
G01*
X114087500Y-136771200D01*
G75*
G02*
X114187500Y-136871200I0J-100000D01*
G01*
X114187500Y-137071200D01*
G75*
G02*
X114087500Y-137171200I-100000J0D01*
G01*
X112812500Y-137171200D01*
G75*
G02*
X112712500Y-137071200I0J100000D01*
G01*
G37*
G36*
G01*
X112712500Y-137721200D02*
X112712500Y-137521200D01*
G75*
G02*
X112812500Y-137421200I100000J0D01*
G01*
X114087500Y-137421200D01*
G75*
G02*
X114187500Y-137521200I0J-100000D01*
G01*
X114187500Y-137721200D01*
G75*
G02*
X114087500Y-137821200I-100000J0D01*
G01*
X112812500Y-137821200D01*
G75*
G02*
X112712500Y-137721200I0J100000D01*
G01*
G37*
G36*
G01*
X118437500Y-137721200D02*
X118437500Y-137521200D01*
G75*
G02*
X118537500Y-137421200I100000J0D01*
G01*
X119812500Y-137421200D01*
G75*
G02*
X119912500Y-137521200I0J-100000D01*
G01*
X119912500Y-137721200D01*
G75*
G02*
X119812500Y-137821200I-100000J0D01*
G01*
X118537500Y-137821200D01*
G75*
G02*
X118437500Y-137721200I0J100000D01*
G01*
G37*
G36*
G01*
X118437500Y-137071200D02*
X118437500Y-136871200D01*
G75*
G02*
X118537500Y-136771200I100000J0D01*
G01*
X119812500Y-136771200D01*
G75*
G02*
X119912500Y-136871200I0J-100000D01*
G01*
X119912500Y-137071200D01*
G75*
G02*
X119812500Y-137171200I-100000J0D01*
G01*
X118537500Y-137171200D01*
G75*
G02*
X118437500Y-137071200I0J100000D01*
G01*
G37*
G36*
G01*
X118437500Y-136421200D02*
X118437500Y-136221200D01*
G75*
G02*
X118537500Y-136121200I100000J0D01*
G01*
X119812500Y-136121200D01*
G75*
G02*
X119912500Y-136221200I0J-100000D01*
G01*
X119912500Y-136421200D01*
G75*
G02*
X119812500Y-136521200I-100000J0D01*
G01*
X118537500Y-136521200D01*
G75*
G02*
X118437500Y-136421200I0J100000D01*
G01*
G37*
G36*
G01*
X118437500Y-135771200D02*
X118437500Y-135571200D01*
G75*
G02*
X118537500Y-135471200I100000J0D01*
G01*
X119812500Y-135471200D01*
G75*
G02*
X119912500Y-135571200I0J-100000D01*
G01*
X119912500Y-135771200D01*
G75*
G02*
X119812500Y-135871200I-100000J0D01*
G01*
X118537500Y-135871200D01*
G75*
G02*
X118437500Y-135771200I0J100000D01*
G01*
G37*
G36*
G01*
X118437500Y-135121200D02*
X118437500Y-134921200D01*
G75*
G02*
X118537500Y-134821200I100000J0D01*
G01*
X119812500Y-134821200D01*
G75*
G02*
X119912500Y-134921200I0J-100000D01*
G01*
X119912500Y-135121200D01*
G75*
G02*
X119812500Y-135221200I-100000J0D01*
G01*
X118537500Y-135221200D01*
G75*
G02*
X118437500Y-135121200I0J100000D01*
G01*
G37*
G36*
G01*
X118437500Y-134471200D02*
X118437500Y-134271200D01*
G75*
G02*
X118537500Y-134171200I100000J0D01*
G01*
X119812500Y-134171200D01*
G75*
G02*
X119912500Y-134271200I0J-100000D01*
G01*
X119912500Y-134471200D01*
G75*
G02*
X119812500Y-134571200I-100000J0D01*
G01*
X118537500Y-134571200D01*
G75*
G02*
X118437500Y-134471200I0J100000D01*
G01*
G37*
G36*
G01*
X118437500Y-133821200D02*
X118437500Y-133621200D01*
G75*
G02*
X118537500Y-133521200I100000J0D01*
G01*
X119812500Y-133521200D01*
G75*
G02*
X119912500Y-133621200I0J-100000D01*
G01*
X119912500Y-133821200D01*
G75*
G02*
X119812500Y-133921200I-100000J0D01*
G01*
X118537500Y-133921200D01*
G75*
G02*
X118437500Y-133821200I0J100000D01*
G01*
G37*
G36*
G01*
X118437500Y-133171200D02*
X118437500Y-132971200D01*
G75*
G02*
X118537500Y-132871200I100000J0D01*
G01*
X119812500Y-132871200D01*
G75*
G02*
X119912500Y-132971200I0J-100000D01*
G01*
X119912500Y-133171200D01*
G75*
G02*
X119812500Y-133271200I-100000J0D01*
G01*
X118537500Y-133271200D01*
G75*
G02*
X118437500Y-133171200I0J100000D01*
G01*
G37*
G36*
G01*
X118437500Y-132521200D02*
X118437500Y-132321200D01*
G75*
G02*
X118537500Y-132221200I100000J0D01*
G01*
X119812500Y-132221200D01*
G75*
G02*
X119912500Y-132321200I0J-100000D01*
G01*
X119912500Y-132521200D01*
G75*
G02*
X119812500Y-132621200I-100000J0D01*
G01*
X118537500Y-132621200D01*
G75*
G02*
X118437500Y-132521200I0J100000D01*
G01*
G37*
G36*
G01*
X118437500Y-131871200D02*
X118437500Y-131671200D01*
G75*
G02*
X118537500Y-131571200I100000J0D01*
G01*
X119812500Y-131571200D01*
G75*
G02*
X119912500Y-131671200I0J-100000D01*
G01*
X119912500Y-131871200D01*
G75*
G02*
X119812500Y-131971200I-100000J0D01*
G01*
X118537500Y-131971200D01*
G75*
G02*
X118437500Y-131871200I0J100000D01*
G01*
G37*
G36*
G01*
X164093500Y-149663600D02*
X164093500Y-149163600D01*
G75*
G02*
X164318500Y-148938600I225000J0D01*
G01*
X164768500Y-148938600D01*
G75*
G02*
X164993500Y-149163600I0J-225000D01*
G01*
X164993500Y-149663600D01*
G75*
G02*
X164768500Y-149888600I-225000J0D01*
G01*
X164318500Y-149888600D01*
G75*
G02*
X164093500Y-149663600I0J225000D01*
G01*
G37*
G36*
G01*
X165643500Y-149663600D02*
X165643500Y-149163600D01*
G75*
G02*
X165868500Y-148938600I225000J0D01*
G01*
X166318500Y-148938600D01*
G75*
G02*
X166543500Y-149163600I0J-225000D01*
G01*
X166543500Y-149663600D01*
G75*
G02*
X166318500Y-149888600I-225000J0D01*
G01*
X165868500Y-149888600D01*
G75*
G02*
X165643500Y-149663600I0J225000D01*
G01*
G37*
G36*
G01*
X119032000Y-112757000D02*
X119032000Y-113307000D01*
G75*
G02*
X118832000Y-113507000I-200000J0D01*
G01*
X118432000Y-113507000D01*
G75*
G02*
X118232000Y-113307000I0J200000D01*
G01*
X118232000Y-112757000D01*
G75*
G02*
X118432000Y-112557000I200000J0D01*
G01*
X118832000Y-112557000D01*
G75*
G02*
X119032000Y-112757000I0J-200000D01*
G01*
G37*
G36*
G01*
X117382000Y-112757000D02*
X117382000Y-113307000D01*
G75*
G02*
X117182000Y-113507000I-200000J0D01*
G01*
X116782000Y-113507000D01*
G75*
G02*
X116582000Y-113307000I0J200000D01*
G01*
X116582000Y-112757000D01*
G75*
G02*
X116782000Y-112557000I200000J0D01*
G01*
X117182000Y-112557000D01*
G75*
G02*
X117382000Y-112757000I0J-200000D01*
G01*
G37*
G36*
G01*
X165756100Y-131494000D02*
X165756100Y-131994000D01*
G75*
G02*
X165531100Y-132219000I-225000J0D01*
G01*
X165081100Y-132219000D01*
G75*
G02*
X164856100Y-131994000I0J225000D01*
G01*
X164856100Y-131494000D01*
G75*
G02*
X165081100Y-131269000I225000J0D01*
G01*
X165531100Y-131269000D01*
G75*
G02*
X165756100Y-131494000I0J-225000D01*
G01*
G37*
G36*
G01*
X164206100Y-131494000D02*
X164206100Y-131994000D01*
G75*
G02*
X163981100Y-132219000I-225000J0D01*
G01*
X163531100Y-132219000D01*
G75*
G02*
X163306100Y-131994000I0J225000D01*
G01*
X163306100Y-131494000D01*
G75*
G02*
X163531100Y-131269000I225000J0D01*
G01*
X163981100Y-131269000D01*
G75*
G02*
X164206100Y-131494000I0J-225000D01*
G01*
G37*
D21*
X107723200Y-100611400D03*
D22*
X107723200Y-102611400D03*
D21*
X107723200Y-95547400D03*
D22*
X107723200Y-97547400D03*
D23*
X176530000Y-99060000D03*
X118110000Y-99060000D03*
D24*
X122555000Y-100012500D03*
X122555000Y-96202500D03*
X123825000Y-101917500D03*
X123825000Y-98107500D03*
X125095000Y-100012500D03*
X125095000Y-96202500D03*
X126365000Y-101917500D03*
X126365000Y-98107500D03*
X127635000Y-100012500D03*
X127635000Y-96202500D03*
X128905000Y-101917500D03*
X128905000Y-98107500D03*
X130175000Y-100012500D03*
X130175000Y-96202500D03*
X131445000Y-101917500D03*
X131445000Y-98107500D03*
X132715000Y-100012500D03*
X132715000Y-96202500D03*
X133985000Y-101917500D03*
X133985000Y-98107500D03*
X135255000Y-100012500D03*
X135255000Y-96202500D03*
X136525000Y-101917500D03*
X136525000Y-98107500D03*
X137795000Y-100012500D03*
X137795000Y-96202500D03*
X139065000Y-101917500D03*
X139065000Y-98107500D03*
X140335000Y-100012500D03*
X140335000Y-96202500D03*
X141605000Y-101917500D03*
X141605000Y-98107500D03*
X142875000Y-100012500D03*
X142875000Y-96202500D03*
X144145000Y-101917500D03*
X144145000Y-98107500D03*
X145415000Y-100012500D03*
X145415000Y-96202500D03*
X146685000Y-101917500D03*
X146685000Y-98107500D03*
X147955000Y-100012500D03*
X147955000Y-96202500D03*
X149225000Y-101917500D03*
X149225000Y-98107500D03*
X150495000Y-100012500D03*
X150495000Y-96202500D03*
X151765000Y-101917500D03*
X151765000Y-98107500D03*
X153035000Y-100012500D03*
X153035000Y-96202500D03*
X154305000Y-101917500D03*
X154305000Y-98107500D03*
X155575000Y-100012500D03*
X155575000Y-96202500D03*
X156845000Y-101917500D03*
X156845000Y-98107500D03*
X158115000Y-100012500D03*
X158115000Y-96202500D03*
X159385000Y-101917500D03*
X159385000Y-98107500D03*
X160655000Y-100012500D03*
X160655000Y-96202500D03*
X161925000Y-101917500D03*
X161925000Y-98107500D03*
X163195000Y-100012500D03*
X163195000Y-96202500D03*
X164465000Y-101917500D03*
X164465000Y-98107500D03*
X165735000Y-100012500D03*
X165735000Y-96202500D03*
X167005000Y-101917500D03*
X167005000Y-98107500D03*
X168275000Y-100012500D03*
X168275000Y-96202500D03*
X169545000Y-101917500D03*
X169545000Y-98107500D03*
X170815000Y-100012500D03*
X170815000Y-96202500D03*
X172085000Y-101917500D03*
X172085000Y-98107500D03*
D21*
X107692500Y-148000000D03*
D22*
X109692500Y-148000000D03*
X107692500Y-146000000D03*
X109692500Y-146000000D03*
X107692500Y-144000000D03*
X109692500Y-144000000D03*
X107692500Y-142000000D03*
X109692500Y-142000000D03*
X107692500Y-140000000D03*
X109692500Y-140000000D03*
X107692500Y-138000000D03*
X109692500Y-138000000D03*
X107692500Y-136000000D03*
X109692500Y-136000000D03*
X107692500Y-134000000D03*
X109692500Y-134000000D03*
X107692500Y-132000000D03*
X109692500Y-132000000D03*
X107692500Y-130000000D03*
X109692500Y-130000000D03*
X107692500Y-128000000D03*
X109692500Y-128000000D03*
X107692500Y-126000000D03*
X109692500Y-126000000D03*
X107692500Y-124000000D03*
X109692500Y-124000000D03*
X107692500Y-122000000D03*
X109692500Y-122000000D03*
X107692500Y-120000000D03*
X109692500Y-120000000D03*
X107692500Y-118000000D03*
X109692500Y-118000000D03*
X107692500Y-116000000D03*
X109692500Y-116000000D03*
X107692500Y-114000000D03*
X109692500Y-114000000D03*
X107692500Y-112000000D03*
X109692500Y-112000000D03*
X107692500Y-110000000D03*
X109692500Y-110000000D03*
X107692500Y-108000000D03*
X109692500Y-108000000D03*
X107692500Y-106000000D03*
X109692500Y-106000000D03*
M02*
