G04 #@! TF.GenerationSoftware,KiCad,Pcbnew,6.0.6+dfsg-1~bpo11+1*
G04 #@! TF.CreationDate,2023-01-30T14:54:24+00:00*
G04 #@! TF.ProjectId,CIDER,43494445-522e-46b6-9963-61645f706362,rev?*
G04 #@! TF.SameCoordinates,Original*
G04 #@! TF.FileFunction,Legend,Top*
G04 #@! TF.FilePolarity,Positive*
%FSLAX46Y46*%
G04 Gerber Fmt 4.6, Leading zero omitted, Abs format (unit mm)*
G04 Created by KiCad (PCBNEW 6.0.6+dfsg-1~bpo11+1) date 2023-01-30 14:54:24*
%MOMM*%
%LPD*%
G01*
G04 APERTURE LIST*
%ADD10C,0.150000*%
%ADD11C,0.127000*%
%ADD12C,0.120000*%
%ADD13C,0.100000*%
%ADD14R,1.350000X1.350000*%
%ADD15O,1.350000X1.350000*%
%ADD16R,0.900000X1.300000*%
%ADD17R,1.650000X1.950000*%
%ADD18R,0.760000X1.250000*%
%ADD19R,0.458000X1.510000*%
%ADD20R,0.500000X0.800000*%
%ADD21R,0.400000X0.800000*%
%ADD22R,1.100000X0.250000*%
%ADD23R,1.700000X1.700000*%
%ADD24O,1.700000X1.700000*%
%ADD25C,5.000000*%
%ADD26C,1.524000*%
G04 APERTURE END LIST*
D10*
X176089114Y-111665657D02*
X176089114Y-111230228D01*
X176851114Y-111447942D02*
X176089114Y-111447942D01*
X176851114Y-110976228D02*
X176089114Y-110976228D01*
X176089114Y-110794800D01*
X176125400Y-110685942D01*
X176197971Y-110613371D01*
X176270542Y-110577085D01*
X176415685Y-110540800D01*
X176524542Y-110540800D01*
X176669685Y-110577085D01*
X176742257Y-110613371D01*
X176814828Y-110685942D01*
X176851114Y-110794800D01*
X176851114Y-110976228D01*
X176089114Y-110069085D02*
X176089114Y-109923942D01*
X176125400Y-109851371D01*
X176197971Y-109778800D01*
X176343114Y-109742514D01*
X176597114Y-109742514D01*
X176742257Y-109778800D01*
X176814828Y-109851371D01*
X176851114Y-109923942D01*
X176851114Y-110069085D01*
X176814828Y-110141657D01*
X176742257Y-110214228D01*
X176597114Y-110250514D01*
X176343114Y-110250514D01*
X176197971Y-110214228D01*
X176125400Y-110141657D01*
X176089114Y-110069085D01*
X176560828Y-118864742D02*
X176560828Y-118284171D01*
X176851114Y-118574457D02*
X176270542Y-118574457D01*
X176089114Y-117993885D02*
X176089114Y-117522171D01*
X176379400Y-117776171D01*
X176379400Y-117667314D01*
X176415685Y-117594742D01*
X176451971Y-117558457D01*
X176524542Y-117522171D01*
X176705971Y-117522171D01*
X176778542Y-117558457D01*
X176814828Y-117594742D01*
X176851114Y-117667314D01*
X176851114Y-117885028D01*
X176814828Y-117957600D01*
X176778542Y-117993885D01*
X176089114Y-106476800D02*
X176089114Y-106041371D01*
X176851114Y-106259085D02*
X176089114Y-106259085D01*
X176851114Y-105787371D02*
X176089114Y-105787371D01*
X176633400Y-105533371D01*
X176089114Y-105279371D01*
X176851114Y-105279371D01*
X176814828Y-104952800D02*
X176851114Y-104843942D01*
X176851114Y-104662514D01*
X176814828Y-104589942D01*
X176778542Y-104553657D01*
X176705971Y-104517371D01*
X176633400Y-104517371D01*
X176560828Y-104553657D01*
X176524542Y-104589942D01*
X176488257Y-104662514D01*
X176451971Y-104807657D01*
X176415685Y-104880228D01*
X176379400Y-104916514D01*
X176306828Y-104952800D01*
X176234257Y-104952800D01*
X176161685Y-104916514D01*
X176125400Y-104880228D01*
X176089114Y-104807657D01*
X176089114Y-104626228D01*
X176125400Y-104517371D01*
X176089114Y-114113314D02*
X176089114Y-113677885D01*
X176851114Y-113895600D02*
X176089114Y-113895600D01*
X176778542Y-112988457D02*
X176814828Y-113024742D01*
X176851114Y-113133600D01*
X176851114Y-113206171D01*
X176814828Y-113315028D01*
X176742257Y-113387600D01*
X176669685Y-113423885D01*
X176524542Y-113460171D01*
X176415685Y-113460171D01*
X176270542Y-113423885D01*
X176197971Y-113387600D01*
X176125400Y-113315028D01*
X176089114Y-113206171D01*
X176089114Y-113133600D01*
X176125400Y-113024742D01*
X176161685Y-112988457D01*
X176851114Y-112661885D02*
X176089114Y-112661885D01*
X176851114Y-112226457D02*
X176415685Y-112553028D01*
X176089114Y-112226457D02*
X176524542Y-112661885D01*
X176125400Y-116252171D02*
X176089114Y-116324742D01*
X176089114Y-116433600D01*
X176125400Y-116542457D01*
X176197971Y-116615028D01*
X176270542Y-116651314D01*
X176415685Y-116687600D01*
X176524542Y-116687600D01*
X176669685Y-116651314D01*
X176742257Y-116615028D01*
X176814828Y-116542457D01*
X176851114Y-116433600D01*
X176851114Y-116361028D01*
X176814828Y-116252171D01*
X176778542Y-116215885D01*
X176524542Y-116215885D01*
X176524542Y-116361028D01*
X176851114Y-115889314D02*
X176089114Y-115889314D01*
X176851114Y-115453885D01*
X176089114Y-115453885D01*
X176851114Y-115091028D02*
X176089114Y-115091028D01*
X176089114Y-114909600D01*
X176125400Y-114800742D01*
X176197971Y-114728171D01*
X176270542Y-114691885D01*
X176415685Y-114655600D01*
X176524542Y-114655600D01*
X176669685Y-114691885D01*
X176742257Y-114728171D01*
X176814828Y-114800742D01*
X176851114Y-114909600D01*
X176851114Y-115091028D01*
X176089114Y-108780942D02*
X176089114Y-108345514D01*
X176851114Y-108563228D02*
X176089114Y-108563228D01*
X176851114Y-108091514D02*
X176089114Y-108091514D01*
X176089114Y-107910085D01*
X176125400Y-107801228D01*
X176197971Y-107728657D01*
X176270542Y-107692371D01*
X176415685Y-107656085D01*
X176524542Y-107656085D01*
X176669685Y-107692371D01*
X176742257Y-107728657D01*
X176814828Y-107801228D01*
X176851114Y-107910085D01*
X176851114Y-108091514D01*
X176851114Y-107329514D02*
X176089114Y-107329514D01*
X158363141Y-130272988D02*
X158029808Y-129796798D01*
X157791712Y-130272988D02*
X157791712Y-129272988D01*
X158172665Y-129272988D01*
X158267903Y-129320608D01*
X158315522Y-129368227D01*
X158363141Y-129463465D01*
X158363141Y-129606322D01*
X158315522Y-129701560D01*
X158267903Y-129749179D01*
X158172665Y-129796798D01*
X157791712Y-129796798D01*
X159315522Y-130272988D02*
X158744093Y-130272988D01*
X159029808Y-130272988D02*
X159029808Y-129272988D01*
X158934569Y-129415846D01*
X158839331Y-129511084D01*
X158744093Y-129558703D01*
X143803095Y-149088280D02*
X143803095Y-149897804D01*
X143850714Y-149993042D01*
X143898333Y-150040661D01*
X143993571Y-150088280D01*
X144184047Y-150088280D01*
X144279285Y-150040661D01*
X144326904Y-149993042D01*
X144374523Y-149897804D01*
X144374523Y-149088280D01*
X144755476Y-149088280D02*
X145422142Y-149088280D01*
X144993571Y-150088280D01*
X143803095Y-133534480D02*
X143803095Y-134344004D01*
X143850714Y-134439242D01*
X143898333Y-134486861D01*
X143993571Y-134534480D01*
X144184047Y-134534480D01*
X144279285Y-134486861D01*
X144326904Y-134439242D01*
X144374523Y-134344004D01*
X144374523Y-133534480D01*
X145279285Y-133534480D02*
X145088809Y-133534480D01*
X144993571Y-133582100D01*
X144945952Y-133629719D01*
X144850714Y-133772576D01*
X144803095Y-133963052D01*
X144803095Y-134344004D01*
X144850714Y-134439242D01*
X144898333Y-134486861D01*
X144993571Y-134534480D01*
X145184047Y-134534480D01*
X145279285Y-134486861D01*
X145326904Y-134439242D01*
X145374523Y-134344004D01*
X145374523Y-134105909D01*
X145326904Y-134010671D01*
X145279285Y-133963052D01*
X145184047Y-133915433D01*
X144993571Y-133915433D01*
X144898333Y-133963052D01*
X144850714Y-134010671D01*
X144803095Y-134105909D01*
X145024241Y-118884950D02*
X144976622Y-118932569D01*
X144833765Y-118980188D01*
X144738527Y-118980188D01*
X144595669Y-118932569D01*
X144500431Y-118837331D01*
X144452812Y-118742093D01*
X144405193Y-118551617D01*
X144405193Y-118408760D01*
X144452812Y-118218284D01*
X144500431Y-118123046D01*
X144595669Y-118027808D01*
X144738527Y-117980188D01*
X144833765Y-117980188D01*
X144976622Y-118027808D01*
X145024241Y-118075427D01*
X145929003Y-117980188D02*
X145452812Y-117980188D01*
X145405193Y-118456379D01*
X145452812Y-118408760D01*
X145548050Y-118361141D01*
X145786146Y-118361141D01*
X145881384Y-118408760D01*
X145929003Y-118456379D01*
X145976622Y-118551617D01*
X145976622Y-118789712D01*
X145929003Y-118884950D01*
X145881384Y-118932569D01*
X145786146Y-118980188D01*
X145548050Y-118980188D01*
X145452812Y-118932569D01*
X145405193Y-118884950D01*
X152176747Y-118208650D02*
X152109404Y-118208650D01*
X151974717Y-118141306D01*
X151907373Y-118073963D01*
X151840030Y-117939275D01*
X151840030Y-117804588D01*
X151873701Y-117703573D01*
X151974717Y-117535214D01*
X152075732Y-117434199D01*
X152244091Y-117333184D01*
X152345106Y-117299512D01*
X152479793Y-117299512D01*
X152614480Y-117366856D01*
X152681824Y-117434199D01*
X152749167Y-117568886D01*
X152749167Y-117636230D01*
X153052213Y-117804588D02*
X153489946Y-118242321D01*
X152984869Y-118275993D01*
X153085885Y-118377008D01*
X153119556Y-118478024D01*
X153119556Y-118545367D01*
X153085885Y-118646382D01*
X152917526Y-118814741D01*
X152816511Y-118848413D01*
X152749167Y-118848413D01*
X152648152Y-118814741D01*
X152446121Y-118612711D01*
X152412449Y-118511695D01*
X152412449Y-118444352D01*
X124650733Y-75833980D02*
X124317400Y-75357790D01*
X124079304Y-75833980D02*
X124079304Y-74833980D01*
X124460257Y-74833980D01*
X124555495Y-74881600D01*
X124603114Y-74929219D01*
X124650733Y-75024457D01*
X124650733Y-75167314D01*
X124603114Y-75262552D01*
X124555495Y-75310171D01*
X124460257Y-75357790D01*
X124079304Y-75357790D01*
X125507876Y-74833980D02*
X125317400Y-74833980D01*
X125222161Y-74881600D01*
X125174542Y-74929219D01*
X125079304Y-75072076D01*
X125031685Y-75262552D01*
X125031685Y-75643504D01*
X125079304Y-75738742D01*
X125126923Y-75786361D01*
X125222161Y-75833980D01*
X125412638Y-75833980D01*
X125507876Y-75786361D01*
X125555495Y-75738742D01*
X125603114Y-75643504D01*
X125603114Y-75405409D01*
X125555495Y-75310171D01*
X125507876Y-75262552D01*
X125412638Y-75214933D01*
X125222161Y-75214933D01*
X125126923Y-75262552D01*
X125079304Y-75310171D01*
X125031685Y-75405409D01*
X121268542Y-139360742D02*
X121220923Y-139408361D01*
X121078066Y-139455980D01*
X120982828Y-139455980D01*
X120839971Y-139408361D01*
X120744733Y-139313123D01*
X120697114Y-139217885D01*
X120649495Y-139027409D01*
X120649495Y-138884552D01*
X120697114Y-138694076D01*
X120744733Y-138598838D01*
X120839971Y-138503600D01*
X120982828Y-138455980D01*
X121078066Y-138455980D01*
X121220923Y-138503600D01*
X121268542Y-138551219D01*
X122220923Y-139455980D02*
X121649495Y-139455980D01*
X121935209Y-139455980D02*
X121935209Y-138455980D01*
X121839971Y-138598838D01*
X121744733Y-138694076D01*
X121649495Y-138741695D01*
X123078066Y-138789314D02*
X123078066Y-139455980D01*
X122839971Y-138408361D02*
X122601876Y-139122647D01*
X123220923Y-139122647D01*
X161126242Y-133341142D02*
X161078623Y-133388761D01*
X160935766Y-133436380D01*
X160840528Y-133436380D01*
X160697671Y-133388761D01*
X160602433Y-133293523D01*
X160554814Y-133198285D01*
X160507195Y-133007809D01*
X160507195Y-132864952D01*
X160554814Y-132674476D01*
X160602433Y-132579238D01*
X160697671Y-132484000D01*
X160840528Y-132436380D01*
X160935766Y-132436380D01*
X161078623Y-132484000D01*
X161126242Y-132531619D01*
X161507195Y-132531619D02*
X161554814Y-132484000D01*
X161650052Y-132436380D01*
X161888147Y-132436380D01*
X161983385Y-132484000D01*
X162031004Y-132531619D01*
X162078623Y-132626857D01*
X162078623Y-132722095D01*
X162031004Y-132864952D01*
X161459576Y-133436380D01*
X162078623Y-133436380D01*
X162697671Y-132436380D02*
X162792909Y-132436380D01*
X162888147Y-132484000D01*
X162935766Y-132531619D01*
X162983385Y-132626857D01*
X163031004Y-132817333D01*
X163031004Y-133055428D01*
X162983385Y-133245904D01*
X162935766Y-133341142D01*
X162888147Y-133388761D01*
X162792909Y-133436380D01*
X162697671Y-133436380D01*
X162602433Y-133388761D01*
X162554814Y-133341142D01*
X162507195Y-133245904D01*
X162459576Y-133055428D01*
X162459576Y-132817333D01*
X162507195Y-132626857D01*
X162554814Y-132531619D01*
X162602433Y-132484000D01*
X162697671Y-132436380D01*
X179759142Y-142137757D02*
X179806761Y-142185376D01*
X179854380Y-142328233D01*
X179854380Y-142423471D01*
X179806761Y-142566328D01*
X179711523Y-142661566D01*
X179616285Y-142709185D01*
X179425809Y-142756804D01*
X179282952Y-142756804D01*
X179092476Y-142709185D01*
X178997238Y-142661566D01*
X178902000Y-142566328D01*
X178854380Y-142423471D01*
X178854380Y-142328233D01*
X178902000Y-142185376D01*
X178949619Y-142137757D01*
X179854380Y-141185376D02*
X179854380Y-141756804D01*
X179854380Y-141471090D02*
X178854380Y-141471090D01*
X178997238Y-141566328D01*
X179092476Y-141661566D01*
X179140095Y-141756804D01*
X178854380Y-140280614D02*
X178854380Y-140756804D01*
X179330571Y-140804423D01*
X179282952Y-140756804D01*
X179235333Y-140661566D01*
X179235333Y-140423471D01*
X179282952Y-140328233D01*
X179330571Y-140280614D01*
X179425809Y-140232995D01*
X179663904Y-140232995D01*
X179759142Y-140280614D01*
X179806761Y-140328233D01*
X179854380Y-140423471D01*
X179854380Y-140661566D01*
X179806761Y-140756804D01*
X179759142Y-140804423D01*
X107440666Y-94188780D02*
X107440666Y-94903066D01*
X107393047Y-95045923D01*
X107297809Y-95141161D01*
X107154952Y-95188780D01*
X107059714Y-95188780D01*
X107869238Y-94284019D02*
X107916857Y-94236400D01*
X108012095Y-94188780D01*
X108250190Y-94188780D01*
X108345428Y-94236400D01*
X108393047Y-94284019D01*
X108440666Y-94379257D01*
X108440666Y-94474495D01*
X108393047Y-94617352D01*
X107821619Y-95188780D01*
X108440666Y-95188780D01*
X123609333Y-149380942D02*
X123561714Y-149428561D01*
X123418857Y-149476180D01*
X123323619Y-149476180D01*
X123180761Y-149428561D01*
X123085523Y-149333323D01*
X123037904Y-149238085D01*
X122990285Y-149047609D01*
X122990285Y-148904752D01*
X123037904Y-148714276D01*
X123085523Y-148619038D01*
X123180761Y-148523800D01*
X123323619Y-148476180D01*
X123418857Y-148476180D01*
X123561714Y-148523800D01*
X123609333Y-148571419D01*
X123990285Y-148571419D02*
X124037904Y-148523800D01*
X124133142Y-148476180D01*
X124371238Y-148476180D01*
X124466476Y-148523800D01*
X124514095Y-148571419D01*
X124561714Y-148666657D01*
X124561714Y-148761895D01*
X124514095Y-148904752D01*
X123942666Y-149476180D01*
X124561714Y-149476180D01*
X160840842Y-150943142D02*
X160804557Y-150979428D01*
X160695700Y-151015714D01*
X160623128Y-151015714D01*
X160514271Y-150979428D01*
X160441700Y-150906857D01*
X160405414Y-150834285D01*
X160369128Y-150689142D01*
X160369128Y-150580285D01*
X160405414Y-150435142D01*
X160441700Y-150362571D01*
X160514271Y-150290000D01*
X160623128Y-150253714D01*
X160695700Y-150253714D01*
X160804557Y-150290000D01*
X160840842Y-150326285D01*
X161131128Y-150326285D02*
X161167414Y-150290000D01*
X161239985Y-150253714D01*
X161421414Y-150253714D01*
X161493985Y-150290000D01*
X161530271Y-150326285D01*
X161566557Y-150398857D01*
X161566557Y-150471428D01*
X161530271Y-150580285D01*
X161094842Y-151015714D01*
X161566557Y-151015714D01*
X161820557Y-150253714D02*
X162292271Y-150253714D01*
X162038271Y-150544000D01*
X162147128Y-150544000D01*
X162219700Y-150580285D01*
X162255985Y-150616571D01*
X162292271Y-150689142D01*
X162292271Y-150870571D01*
X162255985Y-150943142D01*
X162219700Y-150979428D01*
X162147128Y-151015714D01*
X161929414Y-151015714D01*
X161856842Y-150979428D01*
X161820557Y-150943142D01*
X145024241Y-129700150D02*
X144976622Y-129747769D01*
X144833765Y-129795388D01*
X144738527Y-129795388D01*
X144595669Y-129747769D01*
X144500431Y-129652531D01*
X144452812Y-129557293D01*
X144405193Y-129366817D01*
X144405193Y-129223960D01*
X144452812Y-129033484D01*
X144500431Y-128938246D01*
X144595669Y-128843008D01*
X144738527Y-128795388D01*
X144833765Y-128795388D01*
X144976622Y-128843008D01*
X145024241Y-128890627D01*
X145500431Y-129795388D02*
X145690908Y-129795388D01*
X145786146Y-129747769D01*
X145833765Y-129700150D01*
X145929003Y-129557293D01*
X145976622Y-129366817D01*
X145976622Y-128985865D01*
X145929003Y-128890627D01*
X145881384Y-128843008D01*
X145786146Y-128795388D01*
X145595669Y-128795388D01*
X145500431Y-128843008D01*
X145452812Y-128890627D01*
X145405193Y-128985865D01*
X145405193Y-129223960D01*
X145452812Y-129319198D01*
X145500431Y-129366817D01*
X145595669Y-129414436D01*
X145786146Y-129414436D01*
X145881384Y-129366817D01*
X145929003Y-129319198D01*
X145976622Y-129223960D01*
X148295688Y-124997312D02*
X149105212Y-124997312D01*
X149200450Y-124949693D01*
X149248069Y-124902074D01*
X149295688Y-124806836D01*
X149295688Y-124616360D01*
X149248069Y-124521122D01*
X149200450Y-124473503D01*
X149105212Y-124425884D01*
X148295688Y-124425884D01*
X149295688Y-123425884D02*
X149295688Y-123997312D01*
X149295688Y-123711598D02*
X148295688Y-123711598D01*
X148438546Y-123806836D01*
X148533784Y-123902074D01*
X148581403Y-123997312D01*
X121261042Y-120782542D02*
X121213423Y-120830161D01*
X121070566Y-120877780D01*
X120975328Y-120877780D01*
X120832471Y-120830161D01*
X120737233Y-120734923D01*
X120689614Y-120639685D01*
X120641995Y-120449209D01*
X120641995Y-120306352D01*
X120689614Y-120115876D01*
X120737233Y-120020638D01*
X120832471Y-119925400D01*
X120975328Y-119877780D01*
X121070566Y-119877780D01*
X121213423Y-119925400D01*
X121261042Y-119973019D01*
X122213423Y-120877780D02*
X121641995Y-120877780D01*
X121927709Y-120877780D02*
X121927709Y-119877780D01*
X121832471Y-120020638D01*
X121737233Y-120115876D01*
X121641995Y-120163495D01*
X122594376Y-119973019D02*
X122641995Y-119925400D01*
X122737233Y-119877780D01*
X122975328Y-119877780D01*
X123070566Y-119925400D01*
X123118185Y-119973019D01*
X123165804Y-120068257D01*
X123165804Y-120163495D01*
X123118185Y-120306352D01*
X122546757Y-120877780D01*
X123165804Y-120877780D01*
X140656642Y-128373657D02*
X140704261Y-128421276D01*
X140751880Y-128564133D01*
X140751880Y-128659371D01*
X140704261Y-128802228D01*
X140609023Y-128897466D01*
X140513785Y-128945085D01*
X140323309Y-128992704D01*
X140180452Y-128992704D01*
X139989976Y-128945085D01*
X139894738Y-128897466D01*
X139799500Y-128802228D01*
X139751880Y-128659371D01*
X139751880Y-128564133D01*
X139799500Y-128421276D01*
X139847119Y-128373657D01*
X139847119Y-127992704D02*
X139799500Y-127945085D01*
X139751880Y-127849847D01*
X139751880Y-127611752D01*
X139799500Y-127516514D01*
X139847119Y-127468895D01*
X139942357Y-127421276D01*
X140037595Y-127421276D01*
X140180452Y-127468895D01*
X140751880Y-128040323D01*
X140751880Y-127421276D01*
X139751880Y-127087942D02*
X139751880Y-126421276D01*
X140751880Y-126849847D01*
X120768542Y-130860742D02*
X120720923Y-130908361D01*
X120578066Y-130955980D01*
X120482828Y-130955980D01*
X120339971Y-130908361D01*
X120244733Y-130813123D01*
X120197114Y-130717885D01*
X120149495Y-130527409D01*
X120149495Y-130384552D01*
X120197114Y-130194076D01*
X120244733Y-130098838D01*
X120339971Y-130003600D01*
X120482828Y-129955980D01*
X120578066Y-129955980D01*
X120720923Y-130003600D01*
X120768542Y-130051219D01*
X121720923Y-130955980D02*
X121149495Y-130955980D01*
X121435209Y-130955980D02*
X121435209Y-129955980D01*
X121339971Y-130098838D01*
X121244733Y-130194076D01*
X121149495Y-130241695D01*
X122054257Y-129955980D02*
X122673304Y-129955980D01*
X122339971Y-130336933D01*
X122482828Y-130336933D01*
X122578066Y-130384552D01*
X122625685Y-130432171D01*
X122673304Y-130527409D01*
X122673304Y-130765504D01*
X122625685Y-130860742D01*
X122578066Y-130908361D01*
X122482828Y-130955980D01*
X122197114Y-130955980D01*
X122101876Y-130908361D01*
X122054257Y-130860742D01*
X114979742Y-150111180D02*
X114646409Y-149634990D01*
X114408314Y-150111180D02*
X114408314Y-149111180D01*
X114789266Y-149111180D01*
X114884504Y-149158800D01*
X114932123Y-149206419D01*
X114979742Y-149301657D01*
X114979742Y-149444514D01*
X114932123Y-149539752D01*
X114884504Y-149587371D01*
X114789266Y-149634990D01*
X114408314Y-149634990D01*
X115932123Y-150111180D02*
X115360695Y-150111180D01*
X115646409Y-150111180D02*
X115646409Y-149111180D01*
X115551171Y-149254038D01*
X115455933Y-149349276D01*
X115360695Y-149396895D01*
X116551171Y-149111180D02*
X116646409Y-149111180D01*
X116741647Y-149158800D01*
X116789266Y-149206419D01*
X116836885Y-149301657D01*
X116884504Y-149492133D01*
X116884504Y-149730228D01*
X116836885Y-149920704D01*
X116789266Y-150015942D01*
X116741647Y-150063561D01*
X116646409Y-150111180D01*
X116551171Y-150111180D01*
X116455933Y-150063561D01*
X116408314Y-150015942D01*
X116360695Y-149920704D01*
X116313076Y-149730228D01*
X116313076Y-149492133D01*
X116360695Y-149301657D01*
X116408314Y-149206419D01*
X116455933Y-149158800D01*
X116551171Y-149111180D01*
X170266810Y-128658687D02*
X170199467Y-128658687D01*
X170064780Y-128591343D01*
X169997436Y-128524000D01*
X169930093Y-128389312D01*
X169930093Y-128254625D01*
X169963764Y-128153610D01*
X170064780Y-127985251D01*
X170165795Y-127884236D01*
X170334154Y-127783221D01*
X170435169Y-127749549D01*
X170569856Y-127749549D01*
X170704543Y-127816893D01*
X170771887Y-127884236D01*
X170839230Y-128018923D01*
X170839230Y-128086267D01*
X171007589Y-128726030D02*
X170973917Y-128625015D01*
X170973917Y-128557671D01*
X171007589Y-128456656D01*
X171041261Y-128422984D01*
X171142276Y-128389312D01*
X171209619Y-128389312D01*
X171310635Y-128422984D01*
X171445322Y-128557671D01*
X171478993Y-128658687D01*
X171478993Y-128726030D01*
X171445322Y-128827045D01*
X171411650Y-128860717D01*
X171310635Y-128894389D01*
X171243291Y-128894389D01*
X171142276Y-128860717D01*
X171007589Y-128726030D01*
X170906574Y-128692358D01*
X170839230Y-128692358D01*
X170738215Y-128726030D01*
X170603528Y-128860717D01*
X170569856Y-128961732D01*
X170569856Y-129029076D01*
X170603528Y-129130091D01*
X170738215Y-129264778D01*
X170839230Y-129298450D01*
X170906574Y-129298450D01*
X171007589Y-129264778D01*
X171142276Y-129130091D01*
X171175948Y-129029076D01*
X171175948Y-128961732D01*
X171142276Y-128860717D01*
X114973333Y-148612580D02*
X114640000Y-148136390D01*
X114401904Y-148612580D02*
X114401904Y-147612580D01*
X114782857Y-147612580D01*
X114878095Y-147660200D01*
X114925714Y-147707819D01*
X114973333Y-147803057D01*
X114973333Y-147945914D01*
X114925714Y-148041152D01*
X114878095Y-148088771D01*
X114782857Y-148136390D01*
X114401904Y-148136390D01*
X115449523Y-148612580D02*
X115640000Y-148612580D01*
X115735238Y-148564961D01*
X115782857Y-148517342D01*
X115878095Y-148374485D01*
X115925714Y-148184009D01*
X115925714Y-147803057D01*
X115878095Y-147707819D01*
X115830476Y-147660200D01*
X115735238Y-147612580D01*
X115544761Y-147612580D01*
X115449523Y-147660200D01*
X115401904Y-147707819D01*
X115354285Y-147803057D01*
X115354285Y-148041152D01*
X115401904Y-148136390D01*
X115449523Y-148184009D01*
X115544761Y-148231628D01*
X115735238Y-148231628D01*
X115830476Y-148184009D01*
X115878095Y-148136390D01*
X115925714Y-148041152D01*
X152585584Y-132176188D02*
X153252250Y-133176188D01*
X153252250Y-132176188D02*
X152585584Y-133176188D01*
X154157012Y-133176188D02*
X153585584Y-133176188D01*
X153871298Y-133176188D02*
X153871298Y-132176188D01*
X153776060Y-132319046D01*
X153680822Y-132414284D01*
X153585584Y-132461903D01*
X177355666Y-124255161D02*
X177498523Y-124302780D01*
X177736619Y-124302780D01*
X177831857Y-124255161D01*
X177879476Y-124207542D01*
X177927095Y-124112304D01*
X177927095Y-124017066D01*
X177879476Y-123921828D01*
X177831857Y-123874209D01*
X177736619Y-123826590D01*
X177546142Y-123778971D01*
X177450904Y-123731352D01*
X177403285Y-123683733D01*
X177355666Y-123588495D01*
X177355666Y-123493257D01*
X177403285Y-123398019D01*
X177450904Y-123350400D01*
X177546142Y-123302780D01*
X177784238Y-123302780D01*
X177927095Y-123350400D01*
X178260428Y-123302780D02*
X178498523Y-124302780D01*
X178689000Y-123588495D01*
X178879476Y-124302780D01*
X179117571Y-123302780D01*
X180022333Y-124302780D02*
X179450904Y-124302780D01*
X179736619Y-124302780D02*
X179736619Y-123302780D01*
X179641380Y-123445638D01*
X179546142Y-123540876D01*
X179450904Y-123588495D01*
X152041050Y-123073350D02*
X151993431Y-123120969D01*
X151850574Y-123168588D01*
X151755336Y-123168588D01*
X151612479Y-123120969D01*
X151517241Y-123025731D01*
X151469622Y-122930493D01*
X151422003Y-122740017D01*
X151422003Y-122597160D01*
X151469622Y-122406684D01*
X151517241Y-122311446D01*
X151612479Y-122216208D01*
X151755336Y-122168588D01*
X151850574Y-122168588D01*
X151993431Y-122216208D01*
X152041050Y-122263827D01*
X152993431Y-123168588D02*
X152422003Y-123168588D01*
X152707717Y-123168588D02*
X152707717Y-122168588D01*
X152612479Y-122311446D01*
X152517241Y-122406684D01*
X152422003Y-122454303D01*
X153945812Y-123168588D02*
X153374384Y-123168588D01*
X153660098Y-123168588D02*
X153660098Y-122168588D01*
X153564860Y-122311446D01*
X153469622Y-122406684D01*
X153374384Y-122454303D01*
D11*
X152865242Y-150892342D02*
X152828957Y-150928628D01*
X152720100Y-150964914D01*
X152647528Y-150964914D01*
X152538671Y-150928628D01*
X152466100Y-150856057D01*
X152429814Y-150783485D01*
X152393528Y-150638342D01*
X152393528Y-150529485D01*
X152429814Y-150384342D01*
X152466100Y-150311771D01*
X152538671Y-150239200D01*
X152647528Y-150202914D01*
X152720100Y-150202914D01*
X152828957Y-150239200D01*
X152865242Y-150275485D01*
X153155528Y-150275485D02*
X153191814Y-150239200D01*
X153264385Y-150202914D01*
X153445814Y-150202914D01*
X153518385Y-150239200D01*
X153554671Y-150275485D01*
X153590957Y-150348057D01*
X153590957Y-150420628D01*
X153554671Y-150529485D01*
X153119242Y-150964914D01*
X153590957Y-150964914D01*
X154316671Y-150964914D02*
X153881242Y-150964914D01*
X154098957Y-150964914D02*
X154098957Y-150202914D01*
X154026385Y-150311771D01*
X153953814Y-150384342D01*
X153881242Y-150420628D01*
D10*
X156058110Y-114352688D02*
X155990767Y-114352688D01*
X155856080Y-114285344D01*
X155788736Y-114218001D01*
X155721393Y-114083313D01*
X155721393Y-113948626D01*
X155755064Y-113847611D01*
X155856080Y-113679252D01*
X155957095Y-113578237D01*
X156125454Y-113477222D01*
X156226469Y-113443550D01*
X156361156Y-113443550D01*
X156495843Y-113510894D01*
X156563187Y-113578237D01*
X156630530Y-113712924D01*
X156630530Y-113780268D01*
X157068263Y-114554718D02*
X156596858Y-115026123D01*
X157169278Y-114116985D02*
X156495843Y-114453703D01*
X156933576Y-114891436D01*
X114149495Y-119955980D02*
X114149495Y-120765504D01*
X114197114Y-120860742D01*
X114244733Y-120908361D01*
X114339971Y-120955980D01*
X114530447Y-120955980D01*
X114625685Y-120908361D01*
X114673304Y-120860742D01*
X114720923Y-120765504D01*
X114720923Y-119955980D01*
X115673304Y-119955980D02*
X115197114Y-119955980D01*
X115149495Y-120432171D01*
X115197114Y-120384552D01*
X115292352Y-120336933D01*
X115530447Y-120336933D01*
X115625685Y-120384552D01*
X115673304Y-120432171D01*
X115720923Y-120527409D01*
X115720923Y-120765504D01*
X115673304Y-120860742D01*
X115625685Y-120908361D01*
X115530447Y-120955980D01*
X115292352Y-120955980D01*
X115197114Y-120908361D01*
X115149495Y-120860742D01*
X123466380Y-122622066D02*
X122990190Y-122955400D01*
X123466380Y-123193495D02*
X122466380Y-123193495D01*
X122466380Y-122812542D01*
X122514000Y-122717304D01*
X122561619Y-122669685D01*
X122656857Y-122622066D01*
X122799714Y-122622066D01*
X122894952Y-122669685D01*
X122942571Y-122717304D01*
X122990190Y-122812542D01*
X122990190Y-123193495D01*
X122466380Y-121717304D02*
X122466380Y-122193495D01*
X122942571Y-122241114D01*
X122894952Y-122193495D01*
X122847333Y-122098257D01*
X122847333Y-121860161D01*
X122894952Y-121764923D01*
X122942571Y-121717304D01*
X123037809Y-121669685D01*
X123275904Y-121669685D01*
X123371142Y-121717304D01*
X123418761Y-121764923D01*
X123466380Y-121860161D01*
X123466380Y-122098257D01*
X123418761Y-122193495D01*
X123371142Y-122241114D01*
X113586571Y-105821533D02*
X113586571Y-106154866D01*
X114110380Y-106154866D02*
X113110380Y-106154866D01*
X113110380Y-105678676D01*
X114110380Y-104773914D02*
X114110380Y-105345342D01*
X114110380Y-105059628D02*
X113110380Y-105059628D01*
X113253238Y-105154866D01*
X113348476Y-105250104D01*
X113396095Y-105345342D01*
X152685426Y-120355122D02*
X153257846Y-120927542D01*
X153358861Y-120961214D01*
X153426205Y-120961214D01*
X153527220Y-120927542D01*
X153661907Y-120792855D01*
X153695579Y-120691840D01*
X153695579Y-120624496D01*
X153661907Y-120523481D01*
X153089487Y-119951061D01*
X153459877Y-119715359D02*
X153459877Y-119648016D01*
X153493548Y-119547000D01*
X153661907Y-119378642D01*
X153762922Y-119344970D01*
X153830266Y-119344970D01*
X153931281Y-119378642D01*
X153998625Y-119445985D01*
X154065968Y-119580672D01*
X154065968Y-120388794D01*
X154503701Y-119951061D01*
X138412042Y-150142742D02*
X138364423Y-150190361D01*
X138221566Y-150237980D01*
X138126328Y-150237980D01*
X137983471Y-150190361D01*
X137888233Y-150095123D01*
X137840614Y-149999885D01*
X137792995Y-149809409D01*
X137792995Y-149666552D01*
X137840614Y-149476076D01*
X137888233Y-149380838D01*
X137983471Y-149285600D01*
X138126328Y-149237980D01*
X138221566Y-149237980D01*
X138364423Y-149285600D01*
X138412042Y-149333219D01*
X139364423Y-150237980D02*
X138792995Y-150237980D01*
X139078709Y-150237980D02*
X139078709Y-149237980D01*
X138983471Y-149380838D01*
X138888233Y-149476076D01*
X138792995Y-149523695D01*
X139935852Y-149666552D02*
X139840614Y-149618933D01*
X139792995Y-149571314D01*
X139745376Y-149476076D01*
X139745376Y-149428457D01*
X139792995Y-149333219D01*
X139840614Y-149285600D01*
X139935852Y-149237980D01*
X140126328Y-149237980D01*
X140221566Y-149285600D01*
X140269185Y-149333219D01*
X140316804Y-149428457D01*
X140316804Y-149476076D01*
X140269185Y-149571314D01*
X140221566Y-149618933D01*
X140126328Y-149666552D01*
X139935852Y-149666552D01*
X139840614Y-149714171D01*
X139792995Y-149761790D01*
X139745376Y-149857028D01*
X139745376Y-150047504D01*
X139792995Y-150142742D01*
X139840614Y-150190361D01*
X139935852Y-150237980D01*
X140126328Y-150237980D01*
X140221566Y-150190361D01*
X140269185Y-150142742D01*
X140316804Y-150047504D01*
X140316804Y-149857028D01*
X140269185Y-149761790D01*
X140221566Y-149714171D01*
X140126328Y-149666552D01*
X150688441Y-126248350D02*
X150640822Y-126295969D01*
X150497965Y-126343588D01*
X150402727Y-126343588D01*
X150259869Y-126295969D01*
X150164631Y-126200731D01*
X150117012Y-126105493D01*
X150069393Y-125915017D01*
X150069393Y-125772160D01*
X150117012Y-125581684D01*
X150164631Y-125486446D01*
X150259869Y-125391208D01*
X150402727Y-125343588D01*
X150497965Y-125343588D01*
X150640822Y-125391208D01*
X150688441Y-125438827D01*
X151640822Y-126343588D02*
X151069393Y-126343588D01*
X151355108Y-126343588D02*
X151355108Y-125343588D01*
X151259869Y-125486446D01*
X151164631Y-125581684D01*
X151069393Y-125629303D01*
X151493580Y-142620904D02*
X152303104Y-142620904D01*
X152398342Y-142573285D01*
X152445961Y-142525666D01*
X152493580Y-142430428D01*
X152493580Y-142239952D01*
X152445961Y-142144714D01*
X152398342Y-142097095D01*
X152303104Y-142049476D01*
X151493580Y-142049476D01*
X151922152Y-141430428D02*
X151874533Y-141525666D01*
X151826914Y-141573285D01*
X151731676Y-141620904D01*
X151684057Y-141620904D01*
X151588819Y-141573285D01*
X151541200Y-141525666D01*
X151493580Y-141430428D01*
X151493580Y-141239952D01*
X151541200Y-141144714D01*
X151588819Y-141097095D01*
X151684057Y-141049476D01*
X151731676Y-141049476D01*
X151826914Y-141097095D01*
X151874533Y-141144714D01*
X151922152Y-141239952D01*
X151922152Y-141430428D01*
X151969771Y-141525666D01*
X152017390Y-141573285D01*
X152112628Y-141620904D01*
X152303104Y-141620904D01*
X152398342Y-141573285D01*
X152445961Y-141525666D01*
X152493580Y-141430428D01*
X152493580Y-141239952D01*
X152445961Y-141144714D01*
X152398342Y-141097095D01*
X152303104Y-141049476D01*
X152112628Y-141049476D01*
X152017390Y-141097095D01*
X151969771Y-141144714D01*
X151922152Y-141239952D01*
D11*
X155950462Y-150892342D02*
X155914177Y-150928628D01*
X155805320Y-150964914D01*
X155732748Y-150964914D01*
X155623891Y-150928628D01*
X155551320Y-150856057D01*
X155515034Y-150783485D01*
X155478748Y-150638342D01*
X155478748Y-150529485D01*
X155515034Y-150384342D01*
X155551320Y-150311771D01*
X155623891Y-150239200D01*
X155732748Y-150202914D01*
X155805320Y-150202914D01*
X155914177Y-150239200D01*
X155950462Y-150275485D01*
X156240748Y-150275485D02*
X156277034Y-150239200D01*
X156349605Y-150202914D01*
X156531034Y-150202914D01*
X156603605Y-150239200D01*
X156639891Y-150275485D01*
X156676177Y-150348057D01*
X156676177Y-150420628D01*
X156639891Y-150529485D01*
X156204462Y-150964914D01*
X156676177Y-150964914D01*
X156966462Y-150275485D02*
X157002748Y-150239200D01*
X157075320Y-150202914D01*
X157256748Y-150202914D01*
X157329320Y-150239200D01*
X157365605Y-150275485D01*
X157401891Y-150348057D01*
X157401891Y-150420628D01*
X157365605Y-150529485D01*
X156930177Y-150964914D01*
X157401891Y-150964914D01*
D10*
X172849424Y-114567826D02*
X172849424Y-114635169D01*
X172782080Y-114769856D01*
X172714737Y-114837200D01*
X172580049Y-114904543D01*
X172445362Y-114904543D01*
X172344347Y-114870872D01*
X172175988Y-114769856D01*
X172074973Y-114668841D01*
X171973958Y-114500482D01*
X171940286Y-114399467D01*
X171940286Y-114264780D01*
X172007630Y-114130093D01*
X172074973Y-114062749D01*
X172209660Y-113995406D01*
X172277004Y-113995406D01*
X172815752Y-113321971D02*
X172681065Y-113456658D01*
X172647393Y-113557673D01*
X172647393Y-113625017D01*
X172681065Y-113793375D01*
X172782080Y-113961734D01*
X173051454Y-114231108D01*
X173152469Y-114264780D01*
X173219813Y-114264780D01*
X173320828Y-114231108D01*
X173455515Y-114096421D01*
X173489187Y-113995406D01*
X173489187Y-113928062D01*
X173455515Y-113827047D01*
X173287156Y-113658688D01*
X173186141Y-113625017D01*
X173118798Y-113625017D01*
X173017782Y-113658688D01*
X172883095Y-113793375D01*
X172849424Y-113894391D01*
X172849424Y-113961734D01*
X172883095Y-114062749D01*
X175823395Y-123075797D02*
X175823395Y-123143140D01*
X175756051Y-123277827D01*
X175688708Y-123345171D01*
X175554020Y-123412514D01*
X175419333Y-123412514D01*
X175318318Y-123378843D01*
X175149959Y-123277827D01*
X175048944Y-123176812D01*
X174947929Y-123008453D01*
X174914257Y-122907438D01*
X174914257Y-122772751D01*
X174981601Y-122638064D01*
X175048944Y-122570720D01*
X175183631Y-122503377D01*
X175250975Y-122503377D01*
X175419333Y-122200331D02*
X175890738Y-121728927D01*
X176294799Y-122739079D01*
X143111042Y-110560742D02*
X143063423Y-110608361D01*
X142920566Y-110655980D01*
X142825328Y-110655980D01*
X142682471Y-110608361D01*
X142587233Y-110513123D01*
X142539614Y-110417885D01*
X142491995Y-110227409D01*
X142491995Y-110084552D01*
X142539614Y-109894076D01*
X142587233Y-109798838D01*
X142682471Y-109703600D01*
X142825328Y-109655980D01*
X142920566Y-109655980D01*
X143063423Y-109703600D01*
X143111042Y-109751219D01*
X143491995Y-109751219D02*
X143539614Y-109703600D01*
X143634852Y-109655980D01*
X143872947Y-109655980D01*
X143968185Y-109703600D01*
X144015804Y-109751219D01*
X144063423Y-109846457D01*
X144063423Y-109941695D01*
X144015804Y-110084552D01*
X143444376Y-110655980D01*
X144063423Y-110655980D01*
X144920566Y-109655980D02*
X144730090Y-109655980D01*
X144634852Y-109703600D01*
X144587233Y-109751219D01*
X144491995Y-109894076D01*
X144444376Y-110084552D01*
X144444376Y-110465504D01*
X144491995Y-110560742D01*
X144539614Y-110608361D01*
X144634852Y-110655980D01*
X144825328Y-110655980D01*
X144920566Y-110608361D01*
X144968185Y-110560742D01*
X145015804Y-110465504D01*
X145015804Y-110227409D01*
X144968185Y-110132171D01*
X144920566Y-110084552D01*
X144825328Y-110036933D01*
X144634852Y-110036933D01*
X144539614Y-110084552D01*
X144491995Y-110132171D01*
X144444376Y-110227409D01*
X156584862Y-133329542D02*
X156537243Y-133377161D01*
X156394386Y-133424780D01*
X156299148Y-133424780D01*
X156156291Y-133377161D01*
X156061053Y-133281923D01*
X156013434Y-133186685D01*
X155965815Y-132996209D01*
X155965815Y-132853352D01*
X156013434Y-132662876D01*
X156061053Y-132567638D01*
X156156291Y-132472400D01*
X156299148Y-132424780D01*
X156394386Y-132424780D01*
X156537243Y-132472400D01*
X156584862Y-132520019D01*
X157537243Y-133424780D02*
X156965815Y-133424780D01*
X157251529Y-133424780D02*
X157251529Y-132424780D01*
X157156291Y-132567638D01*
X157061053Y-132662876D01*
X156965815Y-132710495D01*
X158013434Y-133424780D02*
X158203910Y-133424780D01*
X158299148Y-133377161D01*
X158346767Y-133329542D01*
X158442005Y-133186685D01*
X158489624Y-132996209D01*
X158489624Y-132615257D01*
X158442005Y-132520019D01*
X158394386Y-132472400D01*
X158299148Y-132424780D01*
X158108672Y-132424780D01*
X158013434Y-132472400D01*
X157965815Y-132520019D01*
X157918196Y-132615257D01*
X157918196Y-132853352D01*
X157965815Y-132948590D01*
X158013434Y-132996209D01*
X158108672Y-133043828D01*
X158299148Y-133043828D01*
X158394386Y-132996209D01*
X158442005Y-132948590D01*
X158489624Y-132853352D01*
X173667842Y-150917742D02*
X173631557Y-150954028D01*
X173522700Y-150990314D01*
X173450128Y-150990314D01*
X173341271Y-150954028D01*
X173268700Y-150881457D01*
X173232414Y-150808885D01*
X173196128Y-150663742D01*
X173196128Y-150554885D01*
X173232414Y-150409742D01*
X173268700Y-150337171D01*
X173341271Y-150264600D01*
X173450128Y-150228314D01*
X173522700Y-150228314D01*
X173631557Y-150264600D01*
X173667842Y-150300885D01*
X173958128Y-150300885D02*
X173994414Y-150264600D01*
X174066985Y-150228314D01*
X174248414Y-150228314D01*
X174320985Y-150264600D01*
X174357271Y-150300885D01*
X174393557Y-150373457D01*
X174393557Y-150446028D01*
X174357271Y-150554885D01*
X173921842Y-150990314D01*
X174393557Y-150990314D01*
X175082985Y-150228314D02*
X174720128Y-150228314D01*
X174683842Y-150591171D01*
X174720128Y-150554885D01*
X174792700Y-150518600D01*
X174974128Y-150518600D01*
X175046700Y-150554885D01*
X175082985Y-150591171D01*
X175119271Y-150663742D01*
X175119271Y-150845171D01*
X175082985Y-150917742D01*
X175046700Y-150954028D01*
X174974128Y-150990314D01*
X174792700Y-150990314D01*
X174720128Y-150954028D01*
X174683842Y-150917742D01*
X177236523Y-137409180D02*
X176903190Y-136932990D01*
X176665095Y-137409180D02*
X176665095Y-136409180D01*
X177046047Y-136409180D01*
X177141285Y-136456800D01*
X177188904Y-136504419D01*
X177236523Y-136599657D01*
X177236523Y-136742514D01*
X177188904Y-136837752D01*
X177141285Y-136885371D01*
X177046047Y-136932990D01*
X176665095Y-136932990D01*
X177665095Y-137409180D02*
X177665095Y-136409180D01*
X178236523Y-137409180D01*
X178236523Y-136409180D01*
X179236523Y-137409180D02*
X178665095Y-137409180D01*
X178950809Y-137409180D02*
X178950809Y-136409180D01*
X178855571Y-136552038D01*
X178760333Y-136647276D01*
X178665095Y-136694895D01*
X130732095Y-105051180D02*
X130732095Y-105860704D01*
X130779714Y-105955942D01*
X130827333Y-106003561D01*
X130922571Y-106051180D01*
X131113047Y-106051180D01*
X131208285Y-106003561D01*
X131255904Y-105955942D01*
X131303523Y-105860704D01*
X131303523Y-105051180D01*
X131827333Y-106051180D02*
X132017809Y-106051180D01*
X132113047Y-106003561D01*
X132160666Y-105955942D01*
X132255904Y-105813085D01*
X132303523Y-105622609D01*
X132303523Y-105241657D01*
X132255904Y-105146419D01*
X132208285Y-105098800D01*
X132113047Y-105051180D01*
X131922571Y-105051180D01*
X131827333Y-105098800D01*
X131779714Y-105146419D01*
X131732095Y-105241657D01*
X131732095Y-105479752D01*
X131779714Y-105574990D01*
X131827333Y-105622609D01*
X131922571Y-105670228D01*
X132113047Y-105670228D01*
X132208285Y-105622609D01*
X132255904Y-105574990D01*
X132303523Y-105479752D01*
X130255904Y-130183180D02*
X130255904Y-130992704D01*
X130303523Y-131087942D01*
X130351142Y-131135561D01*
X130446380Y-131183180D01*
X130636857Y-131183180D01*
X130732095Y-131135561D01*
X130779714Y-131087942D01*
X130827333Y-130992704D01*
X130827333Y-130183180D01*
X131827333Y-131183180D02*
X131255904Y-131183180D01*
X131541619Y-131183180D02*
X131541619Y-130183180D01*
X131446380Y-130326038D01*
X131351142Y-130421276D01*
X131255904Y-130468895D01*
X132446380Y-130183180D02*
X132541619Y-130183180D01*
X132636857Y-130230800D01*
X132684476Y-130278419D01*
X132732095Y-130373657D01*
X132779714Y-130564133D01*
X132779714Y-130802228D01*
X132732095Y-130992704D01*
X132684476Y-131087942D01*
X132636857Y-131135561D01*
X132541619Y-131183180D01*
X132446380Y-131183180D01*
X132351142Y-131135561D01*
X132303523Y-131087942D01*
X132255904Y-130992704D01*
X132208285Y-130802228D01*
X132208285Y-130564133D01*
X132255904Y-130373657D01*
X132303523Y-130278419D01*
X132351142Y-130230800D01*
X132446380Y-130183180D01*
X114149495Y-138955980D02*
X114149495Y-139765504D01*
X114197114Y-139860742D01*
X114244733Y-139908361D01*
X114339971Y-139955980D01*
X114530447Y-139955980D01*
X114625685Y-139908361D01*
X114673304Y-139860742D01*
X114720923Y-139765504D01*
X114720923Y-138955980D01*
X115625685Y-139289314D02*
X115625685Y-139955980D01*
X115387590Y-138908361D02*
X115149495Y-139622647D01*
X115768542Y-139622647D01*
X138412042Y-143081542D02*
X138364423Y-143129161D01*
X138221566Y-143176780D01*
X138126328Y-143176780D01*
X137983471Y-143129161D01*
X137888233Y-143033923D01*
X137840614Y-142938685D01*
X137792995Y-142748209D01*
X137792995Y-142605352D01*
X137840614Y-142414876D01*
X137888233Y-142319638D01*
X137983471Y-142224400D01*
X138126328Y-142176780D01*
X138221566Y-142176780D01*
X138364423Y-142224400D01*
X138412042Y-142272019D01*
X139364423Y-143176780D02*
X138792995Y-143176780D01*
X139078709Y-143176780D02*
X139078709Y-142176780D01*
X138983471Y-142319638D01*
X138888233Y-142414876D01*
X138792995Y-142462495D01*
X139697757Y-142176780D02*
X140364423Y-142176780D01*
X139935852Y-143176780D01*
X114149495Y-129948580D02*
X114149495Y-130758104D01*
X114197114Y-130853342D01*
X114244733Y-130900961D01*
X114339971Y-130948580D01*
X114530447Y-130948580D01*
X114625685Y-130900961D01*
X114673304Y-130853342D01*
X114720923Y-130758104D01*
X114720923Y-129948580D01*
X115101876Y-129948580D02*
X115720923Y-129948580D01*
X115387590Y-130329533D01*
X115530447Y-130329533D01*
X115625685Y-130377152D01*
X115673304Y-130424771D01*
X115720923Y-130520009D01*
X115720923Y-130758104D01*
X115673304Y-130853342D01*
X115625685Y-130900961D01*
X115530447Y-130948580D01*
X115244733Y-130948580D01*
X115149495Y-130900961D01*
X115101876Y-130853342D01*
X164828642Y-150892342D02*
X164792357Y-150928628D01*
X164683500Y-150964914D01*
X164610928Y-150964914D01*
X164502071Y-150928628D01*
X164429500Y-150856057D01*
X164393214Y-150783485D01*
X164356928Y-150638342D01*
X164356928Y-150529485D01*
X164393214Y-150384342D01*
X164429500Y-150311771D01*
X164502071Y-150239200D01*
X164610928Y-150202914D01*
X164683500Y-150202914D01*
X164792357Y-150239200D01*
X164828642Y-150275485D01*
X165118928Y-150275485D02*
X165155214Y-150239200D01*
X165227785Y-150202914D01*
X165409214Y-150202914D01*
X165481785Y-150239200D01*
X165518071Y-150275485D01*
X165554357Y-150348057D01*
X165554357Y-150420628D01*
X165518071Y-150529485D01*
X165082642Y-150964914D01*
X165554357Y-150964914D01*
X166207500Y-150456914D02*
X166207500Y-150964914D01*
X166026071Y-150166628D02*
X165844642Y-150710914D01*
X166316357Y-150710914D01*
X117164142Y-114914380D02*
X116830809Y-114438190D01*
X116592714Y-114914380D02*
X116592714Y-113914380D01*
X116973666Y-113914380D01*
X117068904Y-113962000D01*
X117116523Y-114009619D01*
X117164142Y-114104857D01*
X117164142Y-114247714D01*
X117116523Y-114342952D01*
X117068904Y-114390571D01*
X116973666Y-114438190D01*
X116592714Y-114438190D01*
X118116523Y-114914380D02*
X117545095Y-114914380D01*
X117830809Y-114914380D02*
X117830809Y-113914380D01*
X117735571Y-114057238D01*
X117640333Y-114152476D01*
X117545095Y-114200095D01*
X119068904Y-114914380D02*
X118497476Y-114914380D01*
X118783190Y-114914380D02*
X118783190Y-113914380D01*
X118687952Y-114057238D01*
X118592714Y-114152476D01*
X118497476Y-114200095D01*
X166768542Y-132110742D02*
X166720923Y-132158361D01*
X166578066Y-132205980D01*
X166482828Y-132205980D01*
X166339971Y-132158361D01*
X166244733Y-132063123D01*
X166197114Y-131967885D01*
X166149495Y-131777409D01*
X166149495Y-131634552D01*
X166197114Y-131444076D01*
X166244733Y-131348838D01*
X166339971Y-131253600D01*
X166482828Y-131205980D01*
X166578066Y-131205980D01*
X166720923Y-131253600D01*
X166768542Y-131301219D01*
X167720923Y-132205980D02*
X167149495Y-132205980D01*
X167435209Y-132205980D02*
X167435209Y-131205980D01*
X167339971Y-131348838D01*
X167244733Y-131444076D01*
X167149495Y-131491695D01*
X168339971Y-131205980D02*
X168435209Y-131205980D01*
X168530447Y-131253600D01*
X168578066Y-131301219D01*
X168625685Y-131396457D01*
X168673304Y-131586933D01*
X168673304Y-131825028D01*
X168625685Y-132015504D01*
X168578066Y-132110742D01*
X168530447Y-132158361D01*
X168435209Y-132205980D01*
X168339971Y-132205980D01*
X168244733Y-132158361D01*
X168197114Y-132110742D01*
X168149495Y-132015504D01*
X168101876Y-131825028D01*
X168101876Y-131586933D01*
X168149495Y-131396457D01*
X168197114Y-131301219D01*
X168244733Y-131253600D01*
X168339971Y-131205980D01*
D12*
X158292550Y-130728108D02*
X158767066Y-130728108D01*
X158292550Y-131773108D02*
X158767066Y-131773108D01*
X144565000Y-142050900D02*
X146765000Y-142050900D01*
X144565000Y-148820900D02*
X148165000Y-148820900D01*
X144565000Y-148820900D02*
X142365000Y-148820900D01*
X144565000Y-142050900D02*
X142365000Y-142050900D01*
X148679800Y-148382300D02*
G75*
G03*
X148679800Y-148382300I-50800J0D01*
G01*
X148742592Y-148382300D02*
G75*
G03*
X148742592Y-148382300I-113592J0D01*
G01*
X144565000Y-134989700D02*
X142365000Y-134989700D01*
X144565000Y-141759700D02*
X148165000Y-141759700D01*
X144565000Y-134989700D02*
X146765000Y-134989700D01*
X144565000Y-141759700D02*
X142365000Y-141759700D01*
X148742592Y-141321100D02*
G75*
G03*
X148742592Y-141321100I-113592J0D01*
G01*
X148679800Y-141321100D02*
G75*
G03*
X148679800Y-141321100I-50800J0D01*
G01*
X146790908Y-119342808D02*
X142880908Y-119342808D01*
X142880908Y-119342808D02*
X142880908Y-121212808D01*
X143158908Y-118499808D02*
X143158908Y-119007808D01*
X143412908Y-118753808D02*
X142904908Y-118753808D01*
X142880908Y-121212808D02*
X146790908Y-121212808D01*
X153297081Y-117522830D02*
X153098270Y-117324019D01*
X154018330Y-116801581D02*
X153819519Y-116602770D01*
X124580142Y-77334100D02*
X125054658Y-77334100D01*
X124580142Y-76289100D02*
X125054658Y-76289100D01*
X118824680Y-138930200D02*
X118543520Y-138930200D01*
X118824680Y-139950200D02*
X118543520Y-139950200D01*
X162141780Y-133805200D02*
X161860620Y-133805200D01*
X162141780Y-134825200D02*
X161860620Y-134825200D01*
X177624000Y-144644500D02*
X177624000Y-144136500D01*
X176689000Y-143855700D02*
X178559000Y-143855700D01*
X178559000Y-143855700D02*
X178559000Y-139945700D01*
X176689000Y-139945700D02*
X176689000Y-143855700D01*
X177370000Y-144390500D02*
X177878000Y-144390500D01*
X106714000Y-95736400D02*
X107774000Y-95736400D01*
X106714000Y-99856400D02*
X108834000Y-99856400D01*
X108834000Y-97796400D02*
X108834000Y-99856400D01*
X106714000Y-97796400D02*
X106714000Y-99856400D01*
X106714000Y-96796400D02*
X106714000Y-95736400D01*
X106714000Y-97796400D02*
X108834000Y-97796400D01*
X117527600Y-147626800D02*
X118035600Y-147626800D01*
X117781600Y-147372800D02*
X117781600Y-147880800D01*
X117503600Y-148063400D02*
X117503600Y-149933400D01*
X117503600Y-149933400D02*
X121413600Y-149933400D01*
X121413600Y-148063400D02*
X117503600Y-148063400D01*
X161190120Y-149923600D02*
X161471280Y-149923600D01*
X161190120Y-148903600D02*
X161471280Y-148903600D01*
X147222908Y-129371008D02*
X147222908Y-128863008D01*
X147476908Y-129117008D02*
X146968908Y-129117008D01*
X147500908Y-126658008D02*
X143590908Y-126658008D01*
X143590908Y-128528008D02*
X147500908Y-128528008D01*
X147500908Y-128528008D02*
X147500908Y-126658008D01*
X147703308Y-122875408D02*
X147473308Y-122875408D01*
X147703308Y-125595408D02*
X146393308Y-125595408D01*
X147473308Y-121735408D02*
X147473308Y-122875408D01*
X147703308Y-122875408D02*
X147703308Y-125595408D01*
X142983308Y-125595408D02*
X142983308Y-122875408D01*
X142983308Y-122875408D02*
X143213308Y-122875408D01*
X144293308Y-125595408D02*
X142983308Y-125595408D01*
X119121980Y-119903600D02*
X118840820Y-119903600D01*
X119121980Y-120923600D02*
X118840820Y-120923600D01*
X139738700Y-124899580D02*
X139738700Y-124618420D01*
X140758700Y-124899580D02*
X140758700Y-124618420D01*
X118799280Y-129938600D02*
X118518120Y-129938600D01*
X118799280Y-130958600D02*
X118518120Y-130958600D01*
X112565942Y-149060100D02*
X113040458Y-149060100D01*
X112565942Y-150105100D02*
X113040458Y-150105100D01*
X171259270Y-127865019D02*
X171458081Y-128063830D01*
X171980519Y-127143770D02*
X172179330Y-127342581D01*
X112565942Y-148606500D02*
X113040458Y-148606500D01*
X112565942Y-147561500D02*
X113040458Y-147561500D01*
X152645608Y-126846408D02*
X152645608Y-131946408D01*
X156895608Y-126846408D02*
X152645608Y-126846408D01*
X152254592Y-128024808D02*
G75*
G03*
X152254592Y-128024808I-113592J0D01*
G01*
X152191800Y-128024808D02*
G75*
G03*
X152191800Y-128024808I-50800J0D01*
G01*
X173549000Y-130680600D02*
X174199000Y-130680600D01*
X179309000Y-130680600D02*
X180019000Y-130680600D01*
X180019000Y-130680600D02*
X180019000Y-126061600D01*
X179309000Y-126061600D02*
X180019000Y-126061600D01*
X173549000Y-130680600D02*
X173549000Y-126061600D01*
X174199000Y-132071600D02*
X174199000Y-130680600D01*
X173549000Y-126061600D02*
X174259000Y-126061600D01*
X153800480Y-124532400D02*
X153519320Y-124532400D01*
X153800480Y-123512400D02*
X153519320Y-123512400D01*
X153495680Y-148903600D02*
X153214520Y-148903600D01*
X153495680Y-149923600D02*
X153214520Y-149923600D01*
X158031530Y-112788381D02*
X157832719Y-112589570D01*
X157310281Y-113509630D02*
X157111470Y-113310819D01*
X116312500Y-121328329D02*
X118512500Y-121328329D01*
X116312500Y-121328329D02*
X112712500Y-121328329D01*
X116312500Y-128098329D02*
X114112500Y-128098329D01*
X116312500Y-128098329D02*
X118512500Y-128098329D01*
X112362092Y-121766929D02*
G75*
G03*
X112362092Y-121766929I-113592J0D01*
G01*
X112299300Y-121766929D02*
G75*
G03*
X112299300Y-121766929I-50800J0D01*
G01*
X121018300Y-122845058D02*
X121018300Y-122370542D01*
X122063300Y-122845058D02*
X122063300Y-122370542D01*
X112748000Y-104886136D02*
X112748000Y-106090264D01*
X110928000Y-104886136D02*
X110928000Y-106090264D01*
X154981116Y-119926425D02*
X154486142Y-120421400D01*
X174101284Y-120916375D02*
X174596258Y-120421400D01*
X154486142Y-120421400D02*
X154981116Y-120916375D01*
X174596258Y-120421400D02*
X174101284Y-119926425D01*
X165036175Y-129981484D02*
X164541200Y-130476458D01*
X164046225Y-110861316D02*
X164541200Y-110366342D01*
X164541200Y-110366342D02*
X165036175Y-110861316D01*
X154981116Y-120916375D02*
X154068949Y-121828542D01*
X164541200Y-130476458D02*
X164046225Y-129981484D01*
X154022169Y-121427189D02*
G75*
G03*
X154022169Y-121427189I-113592J0D01*
G01*
X153959377Y-121427189D02*
G75*
G03*
X153959377Y-121427189I-50800J0D01*
G01*
X139195480Y-148865600D02*
X138914320Y-148865600D01*
X139195480Y-147845600D02*
X138914320Y-147845600D01*
X153789688Y-125508208D02*
X153508528Y-125508208D01*
X153789688Y-126528208D02*
X153508528Y-126528208D01*
X175441200Y-136559000D02*
X175841200Y-136559000D01*
X153641200Y-147159000D02*
X153241200Y-147159000D01*
X153641200Y-148359000D02*
X153641200Y-147159000D01*
X153241200Y-147159000D02*
X153241200Y-136559000D01*
X153241200Y-136559000D02*
X153641200Y-136559000D01*
X175441200Y-147159000D02*
X175841200Y-147159000D01*
X175841200Y-147159000D02*
X175841200Y-136559000D01*
X153377192Y-147802600D02*
G75*
G03*
X153377192Y-147802600I-113592J0D01*
G01*
X153314400Y-147802600D02*
G75*
G03*
X153314400Y-147802600I-50800J0D01*
G01*
X156440320Y-148903600D02*
X156721480Y-148903600D01*
X156440320Y-149923600D02*
X156721480Y-149923600D01*
X173265870Y-114947381D02*
X173464681Y-114748570D01*
X173987119Y-115668630D02*
X174185930Y-115469819D01*
X176132619Y-119893570D02*
X176331430Y-120092381D01*
X175411370Y-120614819D02*
X175610181Y-120813630D01*
X143613320Y-111498200D02*
X143894480Y-111498200D01*
X143613320Y-112518200D02*
X143894480Y-112518200D01*
X157508880Y-133793600D02*
X157227720Y-133793600D01*
X157508880Y-134813600D02*
X157227720Y-134813600D01*
X174298280Y-149923600D02*
X174017120Y-149923600D01*
X174298280Y-148903600D02*
X174017120Y-148903600D01*
X179530800Y-134586600D02*
X179530800Y-133586600D01*
X176170800Y-134586600D02*
X176170800Y-133586600D01*
X122294000Y-118718800D02*
X140694000Y-118718800D01*
D13*
X140694000Y-106478800D02*
X121294000Y-106478800D01*
D12*
X120927600Y-106858400D02*
G75*
G03*
X120927600Y-106858400I-50800J0D01*
G01*
X120990392Y-106858400D02*
G75*
G03*
X120990392Y-106858400I-113592J0D01*
G01*
X131494000Y-121620800D02*
X137394000Y-121620800D01*
X131494000Y-121620800D02*
X125594000Y-121620800D01*
X131494000Y-129940800D02*
X125594000Y-129940800D01*
X131494000Y-129940800D02*
X138694000Y-129940800D01*
X139278392Y-129540000D02*
G75*
G03*
X139278392Y-129540000I-113592J0D01*
G01*
X139215600Y-129540000D02*
G75*
G03*
X139215600Y-129540000I-50800J0D01*
G01*
X116312500Y-140302800D02*
X112712500Y-140302800D01*
X116312500Y-147072800D02*
X118512500Y-147072800D01*
X116312500Y-147072800D02*
X114112500Y-147072800D01*
X116312500Y-140302800D02*
X118512500Y-140302800D01*
X112362092Y-140741400D02*
G75*
G03*
X112362092Y-140741400I-113592J0D01*
G01*
X112299300Y-140741400D02*
G75*
G03*
X112299300Y-140741400I-50800J0D01*
G01*
X139195480Y-141804400D02*
X138914320Y-141804400D01*
X139195480Y-140784400D02*
X138914320Y-140784400D01*
X116312500Y-131311200D02*
X118512500Y-131311200D01*
X116312500Y-138081200D02*
X118512500Y-138081200D01*
X116312500Y-138081200D02*
X114112500Y-138081200D01*
X116312500Y-131311200D02*
X112712500Y-131311200D01*
X112362092Y-131749800D02*
G75*
G03*
X112362092Y-131749800I-113592J0D01*
G01*
X112299300Y-131749800D02*
G75*
G03*
X112299300Y-131749800I-50800J0D01*
G01*
X165177920Y-149923600D02*
X165459080Y-149923600D01*
X165177920Y-148903600D02*
X165459080Y-148903600D01*
X118044258Y-113554500D02*
X117569742Y-113554500D01*
X118044258Y-112509500D02*
X117569742Y-112509500D01*
X164671680Y-131234000D02*
X164390520Y-131234000D01*
X164671680Y-132254000D02*
X164390520Y-132254000D01*
%LPC*%
G36*
G01*
X157304808Y-131525608D02*
X157304808Y-130975608D01*
G75*
G02*
X157504808Y-130775608I200000J0D01*
G01*
X157904808Y-130775608D01*
G75*
G02*
X158104808Y-130975608I0J-200000D01*
G01*
X158104808Y-131525608D01*
G75*
G02*
X157904808Y-131725608I-200000J0D01*
G01*
X157504808Y-131725608D01*
G75*
G02*
X157304808Y-131525608I0J200000D01*
G01*
G37*
G36*
G01*
X158954808Y-131525608D02*
X158954808Y-130975608D01*
G75*
G02*
X159154808Y-130775608I200000J0D01*
G01*
X159554808Y-130775608D01*
G75*
G02*
X159754808Y-130975608I0J-200000D01*
G01*
X159754808Y-131525608D01*
G75*
G02*
X159554808Y-131725608I-200000J0D01*
G01*
X159154808Y-131725608D01*
G75*
G02*
X158954808Y-131525608I0J200000D01*
G01*
G37*
G36*
G01*
X148165000Y-148260900D02*
X148165000Y-148460900D01*
G75*
G02*
X148065000Y-148560900I-100000J0D01*
G01*
X146790000Y-148560900D01*
G75*
G02*
X146690000Y-148460900I0J100000D01*
G01*
X146690000Y-148260900D01*
G75*
G02*
X146790000Y-148160900I100000J0D01*
G01*
X148065000Y-148160900D01*
G75*
G02*
X148165000Y-148260900I0J-100000D01*
G01*
G37*
G36*
G01*
X148165000Y-147610900D02*
X148165000Y-147810900D01*
G75*
G02*
X148065000Y-147910900I-100000J0D01*
G01*
X146790000Y-147910900D01*
G75*
G02*
X146690000Y-147810900I0J100000D01*
G01*
X146690000Y-147610900D01*
G75*
G02*
X146790000Y-147510900I100000J0D01*
G01*
X148065000Y-147510900D01*
G75*
G02*
X148165000Y-147610900I0J-100000D01*
G01*
G37*
G36*
G01*
X148165000Y-146960900D02*
X148165000Y-147160900D01*
G75*
G02*
X148065000Y-147260900I-100000J0D01*
G01*
X146790000Y-147260900D01*
G75*
G02*
X146690000Y-147160900I0J100000D01*
G01*
X146690000Y-146960900D01*
G75*
G02*
X146790000Y-146860900I100000J0D01*
G01*
X148065000Y-146860900D01*
G75*
G02*
X148165000Y-146960900I0J-100000D01*
G01*
G37*
G36*
G01*
X148165000Y-146310900D02*
X148165000Y-146510900D01*
G75*
G02*
X148065000Y-146610900I-100000J0D01*
G01*
X146790000Y-146610900D01*
G75*
G02*
X146690000Y-146510900I0J100000D01*
G01*
X146690000Y-146310900D01*
G75*
G02*
X146790000Y-146210900I100000J0D01*
G01*
X148065000Y-146210900D01*
G75*
G02*
X148165000Y-146310900I0J-100000D01*
G01*
G37*
G36*
G01*
X148165000Y-145660900D02*
X148165000Y-145860900D01*
G75*
G02*
X148065000Y-145960900I-100000J0D01*
G01*
X146790000Y-145960900D01*
G75*
G02*
X146690000Y-145860900I0J100000D01*
G01*
X146690000Y-145660900D01*
G75*
G02*
X146790000Y-145560900I100000J0D01*
G01*
X148065000Y-145560900D01*
G75*
G02*
X148165000Y-145660900I0J-100000D01*
G01*
G37*
G36*
G01*
X148165000Y-145010900D02*
X148165000Y-145210900D01*
G75*
G02*
X148065000Y-145310900I-100000J0D01*
G01*
X146790000Y-145310900D01*
G75*
G02*
X146690000Y-145210900I0J100000D01*
G01*
X146690000Y-145010900D01*
G75*
G02*
X146790000Y-144910900I100000J0D01*
G01*
X148065000Y-144910900D01*
G75*
G02*
X148165000Y-145010900I0J-100000D01*
G01*
G37*
G36*
G01*
X148165000Y-144360900D02*
X148165000Y-144560900D01*
G75*
G02*
X148065000Y-144660900I-100000J0D01*
G01*
X146790000Y-144660900D01*
G75*
G02*
X146690000Y-144560900I0J100000D01*
G01*
X146690000Y-144360900D01*
G75*
G02*
X146790000Y-144260900I100000J0D01*
G01*
X148065000Y-144260900D01*
G75*
G02*
X148165000Y-144360900I0J-100000D01*
G01*
G37*
G36*
G01*
X148165000Y-143710900D02*
X148165000Y-143910900D01*
G75*
G02*
X148065000Y-144010900I-100000J0D01*
G01*
X146790000Y-144010900D01*
G75*
G02*
X146690000Y-143910900I0J100000D01*
G01*
X146690000Y-143710900D01*
G75*
G02*
X146790000Y-143610900I100000J0D01*
G01*
X148065000Y-143610900D01*
G75*
G02*
X148165000Y-143710900I0J-100000D01*
G01*
G37*
G36*
G01*
X148165000Y-143060900D02*
X148165000Y-143260900D01*
G75*
G02*
X148065000Y-143360900I-100000J0D01*
G01*
X146790000Y-143360900D01*
G75*
G02*
X146690000Y-143260900I0J100000D01*
G01*
X146690000Y-143060900D01*
G75*
G02*
X146790000Y-142960900I100000J0D01*
G01*
X148065000Y-142960900D01*
G75*
G02*
X148165000Y-143060900I0J-100000D01*
G01*
G37*
G36*
G01*
X148165000Y-142410900D02*
X148165000Y-142610900D01*
G75*
G02*
X148065000Y-142710900I-100000J0D01*
G01*
X146790000Y-142710900D01*
G75*
G02*
X146690000Y-142610900I0J100000D01*
G01*
X146690000Y-142410900D01*
G75*
G02*
X146790000Y-142310900I100000J0D01*
G01*
X148065000Y-142310900D01*
G75*
G02*
X148165000Y-142410900I0J-100000D01*
G01*
G37*
G36*
G01*
X142440000Y-142410900D02*
X142440000Y-142610900D01*
G75*
G02*
X142340000Y-142710900I-100000J0D01*
G01*
X141065000Y-142710900D01*
G75*
G02*
X140965000Y-142610900I0J100000D01*
G01*
X140965000Y-142410900D01*
G75*
G02*
X141065000Y-142310900I100000J0D01*
G01*
X142340000Y-142310900D01*
G75*
G02*
X142440000Y-142410900I0J-100000D01*
G01*
G37*
G36*
G01*
X142440000Y-143060900D02*
X142440000Y-143260900D01*
G75*
G02*
X142340000Y-143360900I-100000J0D01*
G01*
X141065000Y-143360900D01*
G75*
G02*
X140965000Y-143260900I0J100000D01*
G01*
X140965000Y-143060900D01*
G75*
G02*
X141065000Y-142960900I100000J0D01*
G01*
X142340000Y-142960900D01*
G75*
G02*
X142440000Y-143060900I0J-100000D01*
G01*
G37*
G36*
G01*
X142440000Y-143710900D02*
X142440000Y-143910900D01*
G75*
G02*
X142340000Y-144010900I-100000J0D01*
G01*
X141065000Y-144010900D01*
G75*
G02*
X140965000Y-143910900I0J100000D01*
G01*
X140965000Y-143710900D01*
G75*
G02*
X141065000Y-143610900I100000J0D01*
G01*
X142340000Y-143610900D01*
G75*
G02*
X142440000Y-143710900I0J-100000D01*
G01*
G37*
G36*
G01*
X142440000Y-144360900D02*
X142440000Y-144560900D01*
G75*
G02*
X142340000Y-144660900I-100000J0D01*
G01*
X141065000Y-144660900D01*
G75*
G02*
X140965000Y-144560900I0J100000D01*
G01*
X140965000Y-144360900D01*
G75*
G02*
X141065000Y-144260900I100000J0D01*
G01*
X142340000Y-144260900D01*
G75*
G02*
X142440000Y-144360900I0J-100000D01*
G01*
G37*
G36*
G01*
X142440000Y-145010900D02*
X142440000Y-145210900D01*
G75*
G02*
X142340000Y-145310900I-100000J0D01*
G01*
X141065000Y-145310900D01*
G75*
G02*
X140965000Y-145210900I0J100000D01*
G01*
X140965000Y-145010900D01*
G75*
G02*
X141065000Y-144910900I100000J0D01*
G01*
X142340000Y-144910900D01*
G75*
G02*
X142440000Y-145010900I0J-100000D01*
G01*
G37*
G36*
G01*
X142440000Y-145660900D02*
X142440000Y-145860900D01*
G75*
G02*
X142340000Y-145960900I-100000J0D01*
G01*
X141065000Y-145960900D01*
G75*
G02*
X140965000Y-145860900I0J100000D01*
G01*
X140965000Y-145660900D01*
G75*
G02*
X141065000Y-145560900I100000J0D01*
G01*
X142340000Y-145560900D01*
G75*
G02*
X142440000Y-145660900I0J-100000D01*
G01*
G37*
G36*
G01*
X142440000Y-146310900D02*
X142440000Y-146510900D01*
G75*
G02*
X142340000Y-146610900I-100000J0D01*
G01*
X141065000Y-146610900D01*
G75*
G02*
X140965000Y-146510900I0J100000D01*
G01*
X140965000Y-146310900D01*
G75*
G02*
X141065000Y-146210900I100000J0D01*
G01*
X142340000Y-146210900D01*
G75*
G02*
X142440000Y-146310900I0J-100000D01*
G01*
G37*
G36*
G01*
X142440000Y-146960900D02*
X142440000Y-147160900D01*
G75*
G02*
X142340000Y-147260900I-100000J0D01*
G01*
X141065000Y-147260900D01*
G75*
G02*
X140965000Y-147160900I0J100000D01*
G01*
X140965000Y-146960900D01*
G75*
G02*
X141065000Y-146860900I100000J0D01*
G01*
X142340000Y-146860900D01*
G75*
G02*
X142440000Y-146960900I0J-100000D01*
G01*
G37*
G36*
G01*
X142440000Y-147610900D02*
X142440000Y-147810900D01*
G75*
G02*
X142340000Y-147910900I-100000J0D01*
G01*
X141065000Y-147910900D01*
G75*
G02*
X140965000Y-147810900I0J100000D01*
G01*
X140965000Y-147610900D01*
G75*
G02*
X141065000Y-147510900I100000J0D01*
G01*
X142340000Y-147510900D01*
G75*
G02*
X142440000Y-147610900I0J-100000D01*
G01*
G37*
G36*
G01*
X142440000Y-148260900D02*
X142440000Y-148460900D01*
G75*
G02*
X142340000Y-148560900I-100000J0D01*
G01*
X141065000Y-148560900D01*
G75*
G02*
X140965000Y-148460900I0J100000D01*
G01*
X140965000Y-148260900D01*
G75*
G02*
X141065000Y-148160900I100000J0D01*
G01*
X142340000Y-148160900D01*
G75*
G02*
X142440000Y-148260900I0J-100000D01*
G01*
G37*
G36*
G01*
X148165000Y-141199700D02*
X148165000Y-141399700D01*
G75*
G02*
X148065000Y-141499700I-100000J0D01*
G01*
X146790000Y-141499700D01*
G75*
G02*
X146690000Y-141399700I0J100000D01*
G01*
X146690000Y-141199700D01*
G75*
G02*
X146790000Y-141099700I100000J0D01*
G01*
X148065000Y-141099700D01*
G75*
G02*
X148165000Y-141199700I0J-100000D01*
G01*
G37*
G36*
G01*
X148165000Y-140549700D02*
X148165000Y-140749700D01*
G75*
G02*
X148065000Y-140849700I-100000J0D01*
G01*
X146790000Y-140849700D01*
G75*
G02*
X146690000Y-140749700I0J100000D01*
G01*
X146690000Y-140549700D01*
G75*
G02*
X146790000Y-140449700I100000J0D01*
G01*
X148065000Y-140449700D01*
G75*
G02*
X148165000Y-140549700I0J-100000D01*
G01*
G37*
G36*
G01*
X148165000Y-139899700D02*
X148165000Y-140099700D01*
G75*
G02*
X148065000Y-140199700I-100000J0D01*
G01*
X146790000Y-140199700D01*
G75*
G02*
X146690000Y-140099700I0J100000D01*
G01*
X146690000Y-139899700D01*
G75*
G02*
X146790000Y-139799700I100000J0D01*
G01*
X148065000Y-139799700D01*
G75*
G02*
X148165000Y-139899700I0J-100000D01*
G01*
G37*
G36*
G01*
X148165000Y-139249700D02*
X148165000Y-139449700D01*
G75*
G02*
X148065000Y-139549700I-100000J0D01*
G01*
X146790000Y-139549700D01*
G75*
G02*
X146690000Y-139449700I0J100000D01*
G01*
X146690000Y-139249700D01*
G75*
G02*
X146790000Y-139149700I100000J0D01*
G01*
X148065000Y-139149700D01*
G75*
G02*
X148165000Y-139249700I0J-100000D01*
G01*
G37*
G36*
G01*
X148165000Y-138599700D02*
X148165000Y-138799700D01*
G75*
G02*
X148065000Y-138899700I-100000J0D01*
G01*
X146790000Y-138899700D01*
G75*
G02*
X146690000Y-138799700I0J100000D01*
G01*
X146690000Y-138599700D01*
G75*
G02*
X146790000Y-138499700I100000J0D01*
G01*
X148065000Y-138499700D01*
G75*
G02*
X148165000Y-138599700I0J-100000D01*
G01*
G37*
G36*
G01*
X148165000Y-137949700D02*
X148165000Y-138149700D01*
G75*
G02*
X148065000Y-138249700I-100000J0D01*
G01*
X146790000Y-138249700D01*
G75*
G02*
X146690000Y-138149700I0J100000D01*
G01*
X146690000Y-137949700D01*
G75*
G02*
X146790000Y-137849700I100000J0D01*
G01*
X148065000Y-137849700D01*
G75*
G02*
X148165000Y-137949700I0J-100000D01*
G01*
G37*
G36*
G01*
X148165000Y-137299700D02*
X148165000Y-137499700D01*
G75*
G02*
X148065000Y-137599700I-100000J0D01*
G01*
X146790000Y-137599700D01*
G75*
G02*
X146690000Y-137499700I0J100000D01*
G01*
X146690000Y-137299700D01*
G75*
G02*
X146790000Y-137199700I100000J0D01*
G01*
X148065000Y-137199700D01*
G75*
G02*
X148165000Y-137299700I0J-100000D01*
G01*
G37*
G36*
G01*
X148165000Y-136649700D02*
X148165000Y-136849700D01*
G75*
G02*
X148065000Y-136949700I-100000J0D01*
G01*
X146790000Y-136949700D01*
G75*
G02*
X146690000Y-136849700I0J100000D01*
G01*
X146690000Y-136649700D01*
G75*
G02*
X146790000Y-136549700I100000J0D01*
G01*
X148065000Y-136549700D01*
G75*
G02*
X148165000Y-136649700I0J-100000D01*
G01*
G37*
G36*
G01*
X148165000Y-135999700D02*
X148165000Y-136199700D01*
G75*
G02*
X148065000Y-136299700I-100000J0D01*
G01*
X146790000Y-136299700D01*
G75*
G02*
X146690000Y-136199700I0J100000D01*
G01*
X146690000Y-135999700D01*
G75*
G02*
X146790000Y-135899700I100000J0D01*
G01*
X148065000Y-135899700D01*
G75*
G02*
X148165000Y-135999700I0J-100000D01*
G01*
G37*
G36*
G01*
X148165000Y-135349700D02*
X148165000Y-135549700D01*
G75*
G02*
X148065000Y-135649700I-100000J0D01*
G01*
X146790000Y-135649700D01*
G75*
G02*
X146690000Y-135549700I0J100000D01*
G01*
X146690000Y-135349700D01*
G75*
G02*
X146790000Y-135249700I100000J0D01*
G01*
X148065000Y-135249700D01*
G75*
G02*
X148165000Y-135349700I0J-100000D01*
G01*
G37*
G36*
G01*
X142440000Y-135349700D02*
X142440000Y-135549700D01*
G75*
G02*
X142340000Y-135649700I-100000J0D01*
G01*
X141065000Y-135649700D01*
G75*
G02*
X140965000Y-135549700I0J100000D01*
G01*
X140965000Y-135349700D01*
G75*
G02*
X141065000Y-135249700I100000J0D01*
G01*
X142340000Y-135249700D01*
G75*
G02*
X142440000Y-135349700I0J-100000D01*
G01*
G37*
G36*
G01*
X142440000Y-135999700D02*
X142440000Y-136199700D01*
G75*
G02*
X142340000Y-136299700I-100000J0D01*
G01*
X141065000Y-136299700D01*
G75*
G02*
X140965000Y-136199700I0J100000D01*
G01*
X140965000Y-135999700D01*
G75*
G02*
X141065000Y-135899700I100000J0D01*
G01*
X142340000Y-135899700D01*
G75*
G02*
X142440000Y-135999700I0J-100000D01*
G01*
G37*
G36*
G01*
X142440000Y-136649700D02*
X142440000Y-136849700D01*
G75*
G02*
X142340000Y-136949700I-100000J0D01*
G01*
X141065000Y-136949700D01*
G75*
G02*
X140965000Y-136849700I0J100000D01*
G01*
X140965000Y-136649700D01*
G75*
G02*
X141065000Y-136549700I100000J0D01*
G01*
X142340000Y-136549700D01*
G75*
G02*
X142440000Y-136649700I0J-100000D01*
G01*
G37*
G36*
G01*
X142440000Y-137299700D02*
X142440000Y-137499700D01*
G75*
G02*
X142340000Y-137599700I-100000J0D01*
G01*
X141065000Y-137599700D01*
G75*
G02*
X140965000Y-137499700I0J100000D01*
G01*
X140965000Y-137299700D01*
G75*
G02*
X141065000Y-137199700I100000J0D01*
G01*
X142340000Y-137199700D01*
G75*
G02*
X142440000Y-137299700I0J-100000D01*
G01*
G37*
G36*
G01*
X142440000Y-137949700D02*
X142440000Y-138149700D01*
G75*
G02*
X142340000Y-138249700I-100000J0D01*
G01*
X141065000Y-138249700D01*
G75*
G02*
X140965000Y-138149700I0J100000D01*
G01*
X140965000Y-137949700D01*
G75*
G02*
X141065000Y-137849700I100000J0D01*
G01*
X142340000Y-137849700D01*
G75*
G02*
X142440000Y-137949700I0J-100000D01*
G01*
G37*
G36*
G01*
X142440000Y-138599700D02*
X142440000Y-138799700D01*
G75*
G02*
X142340000Y-138899700I-100000J0D01*
G01*
X141065000Y-138899700D01*
G75*
G02*
X140965000Y-138799700I0J100000D01*
G01*
X140965000Y-138599700D01*
G75*
G02*
X141065000Y-138499700I100000J0D01*
G01*
X142340000Y-138499700D01*
G75*
G02*
X142440000Y-138599700I0J-100000D01*
G01*
G37*
G36*
G01*
X142440000Y-139249700D02*
X142440000Y-139449700D01*
G75*
G02*
X142340000Y-139549700I-100000J0D01*
G01*
X141065000Y-139549700D01*
G75*
G02*
X140965000Y-139449700I0J100000D01*
G01*
X140965000Y-139249700D01*
G75*
G02*
X141065000Y-139149700I100000J0D01*
G01*
X142340000Y-139149700D01*
G75*
G02*
X142440000Y-139249700I0J-100000D01*
G01*
G37*
G36*
G01*
X142440000Y-139899700D02*
X142440000Y-140099700D01*
G75*
G02*
X142340000Y-140199700I-100000J0D01*
G01*
X141065000Y-140199700D01*
G75*
G02*
X140965000Y-140099700I0J100000D01*
G01*
X140965000Y-139899700D01*
G75*
G02*
X141065000Y-139799700I100000J0D01*
G01*
X142340000Y-139799700D01*
G75*
G02*
X142440000Y-139899700I0J-100000D01*
G01*
G37*
G36*
G01*
X142440000Y-140549700D02*
X142440000Y-140749700D01*
G75*
G02*
X142340000Y-140849700I-100000J0D01*
G01*
X141065000Y-140849700D01*
G75*
G02*
X140965000Y-140749700I0J100000D01*
G01*
X140965000Y-140549700D01*
G75*
G02*
X141065000Y-140449700I100000J0D01*
G01*
X142340000Y-140449700D01*
G75*
G02*
X142440000Y-140549700I0J-100000D01*
G01*
G37*
G36*
G01*
X142440000Y-141199700D02*
X142440000Y-141399700D01*
G75*
G02*
X142340000Y-141499700I-100000J0D01*
G01*
X141065000Y-141499700D01*
G75*
G02*
X140965000Y-141399700I0J100000D01*
G01*
X140965000Y-141199700D01*
G75*
G02*
X141065000Y-141099700I100000J0D01*
G01*
X142340000Y-141099700D01*
G75*
G02*
X142440000Y-141199700I0J-100000D01*
G01*
G37*
G36*
G01*
X143140908Y-120702808D02*
X143140908Y-119852808D01*
G75*
G02*
X143390908Y-119602808I250000J0D01*
G01*
X144290908Y-119602808D01*
G75*
G02*
X144540908Y-119852808I0J-250000D01*
G01*
X144540908Y-120702808D01*
G75*
G02*
X144290908Y-120952808I-250000J0D01*
G01*
X143390908Y-120952808D01*
G75*
G02*
X143140908Y-120702808I0J250000D01*
G01*
G37*
G36*
G01*
X145840908Y-120702808D02*
X145840908Y-119852808D01*
G75*
G02*
X146090908Y-119602808I250000J0D01*
G01*
X146990908Y-119602808D01*
G75*
G02*
X147240908Y-119852808I0J-250000D01*
G01*
X147240908Y-120702808D01*
G75*
G02*
X146990908Y-120952808I-250000J0D01*
G01*
X146090908Y-120952808D01*
G75*
G02*
X145840908Y-120702808I0J250000D01*
G01*
G37*
G36*
G01*
X154601283Y-117752229D02*
X154247729Y-118105783D01*
G75*
G02*
X153929531Y-118105783I-159099J159099D01*
G01*
X153611333Y-117787585D01*
G75*
G02*
X153611333Y-117469387I159099J159099D01*
G01*
X153964887Y-117115833D01*
G75*
G02*
X154283085Y-117115833I159099J-159099D01*
G01*
X154601283Y-117434031D01*
G75*
G02*
X154601283Y-117752229I-159099J-159099D01*
G01*
G37*
G36*
G01*
X153505267Y-116656213D02*
X153151713Y-117009767D01*
G75*
G02*
X152833515Y-117009767I-159099J159099D01*
G01*
X152515317Y-116691569D01*
G75*
G02*
X152515317Y-116373371I159099J159099D01*
G01*
X152868871Y-116019817D01*
G75*
G02*
X153187069Y-116019817I159099J-159099D01*
G01*
X153505267Y-116338015D01*
G75*
G02*
X153505267Y-116656213I-159099J-159099D01*
G01*
G37*
G36*
G01*
X123592400Y-77086600D02*
X123592400Y-76536600D01*
G75*
G02*
X123792400Y-76336600I200000J0D01*
G01*
X124192400Y-76336600D01*
G75*
G02*
X124392400Y-76536600I0J-200000D01*
G01*
X124392400Y-77086600D01*
G75*
G02*
X124192400Y-77286600I-200000J0D01*
G01*
X123792400Y-77286600D01*
G75*
G02*
X123592400Y-77086600I0J200000D01*
G01*
G37*
G36*
G01*
X125242400Y-77086600D02*
X125242400Y-76536600D01*
G75*
G02*
X125442400Y-76336600I200000J0D01*
G01*
X125842400Y-76336600D01*
G75*
G02*
X126042400Y-76536600I0J-200000D01*
G01*
X126042400Y-77086600D01*
G75*
G02*
X125842400Y-77286600I-200000J0D01*
G01*
X125442400Y-77286600D01*
G75*
G02*
X125242400Y-77086600I0J200000D01*
G01*
G37*
G36*
G01*
X119909100Y-139190200D02*
X119909100Y-139690200D01*
G75*
G02*
X119684100Y-139915200I-225000J0D01*
G01*
X119234100Y-139915200D01*
G75*
G02*
X119009100Y-139690200I0J225000D01*
G01*
X119009100Y-139190200D01*
G75*
G02*
X119234100Y-138965200I225000J0D01*
G01*
X119684100Y-138965200D01*
G75*
G02*
X119909100Y-139190200I0J-225000D01*
G01*
G37*
G36*
G01*
X118359100Y-139190200D02*
X118359100Y-139690200D01*
G75*
G02*
X118134100Y-139915200I-225000J0D01*
G01*
X117684100Y-139915200D01*
G75*
G02*
X117459100Y-139690200I0J225000D01*
G01*
X117459100Y-139190200D01*
G75*
G02*
X117684100Y-138965200I225000J0D01*
G01*
X118134100Y-138965200D01*
G75*
G02*
X118359100Y-139190200I0J-225000D01*
G01*
G37*
G36*
G01*
X163226200Y-134065200D02*
X163226200Y-134565200D01*
G75*
G02*
X163001200Y-134790200I-225000J0D01*
G01*
X162551200Y-134790200D01*
G75*
G02*
X162326200Y-134565200I0J225000D01*
G01*
X162326200Y-134065200D01*
G75*
G02*
X162551200Y-133840200I225000J0D01*
G01*
X163001200Y-133840200D01*
G75*
G02*
X163226200Y-134065200I0J-225000D01*
G01*
G37*
G36*
G01*
X161676200Y-134065200D02*
X161676200Y-134565200D01*
G75*
G02*
X161451200Y-134790200I-225000J0D01*
G01*
X161001200Y-134790200D01*
G75*
G02*
X160776200Y-134565200I0J225000D01*
G01*
X160776200Y-134065200D01*
G75*
G02*
X161001200Y-133840200I225000J0D01*
G01*
X161451200Y-133840200D01*
G75*
G02*
X161676200Y-134065200I0J-225000D01*
G01*
G37*
G36*
G01*
X178049000Y-143595700D02*
X177199000Y-143595700D01*
G75*
G02*
X176949000Y-143345700I0J250000D01*
G01*
X176949000Y-142445700D01*
G75*
G02*
X177199000Y-142195700I250000J0D01*
G01*
X178049000Y-142195700D01*
G75*
G02*
X178299000Y-142445700I0J-250000D01*
G01*
X178299000Y-143345700D01*
G75*
G02*
X178049000Y-143595700I-250000J0D01*
G01*
G37*
G36*
G01*
X178049000Y-140895700D02*
X177199000Y-140895700D01*
G75*
G02*
X176949000Y-140645700I0J250000D01*
G01*
X176949000Y-139745700D01*
G75*
G02*
X177199000Y-139495700I250000J0D01*
G01*
X178049000Y-139495700D01*
G75*
G02*
X178299000Y-139745700I0J-250000D01*
G01*
X178299000Y-140645700D01*
G75*
G02*
X178049000Y-140895700I-250000J0D01*
G01*
G37*
D14*
X107774000Y-96796400D03*
D15*
X107774000Y-98796400D03*
G36*
G01*
X117763600Y-149423400D02*
X117763600Y-148573400D01*
G75*
G02*
X118013600Y-148323400I250000J0D01*
G01*
X118913600Y-148323400D01*
G75*
G02*
X119163600Y-148573400I0J-250000D01*
G01*
X119163600Y-149423400D01*
G75*
G02*
X118913600Y-149673400I-250000J0D01*
G01*
X118013600Y-149673400D01*
G75*
G02*
X117763600Y-149423400I0J250000D01*
G01*
G37*
G36*
G01*
X120463600Y-149423400D02*
X120463600Y-148573400D01*
G75*
G02*
X120713600Y-148323400I250000J0D01*
G01*
X121613600Y-148323400D01*
G75*
G02*
X121863600Y-148573400I0J-250000D01*
G01*
X121863600Y-149423400D01*
G75*
G02*
X121613600Y-149673400I-250000J0D01*
G01*
X120713600Y-149673400D01*
G75*
G02*
X120463600Y-149423400I0J250000D01*
G01*
G37*
G36*
G01*
X160105700Y-149663600D02*
X160105700Y-149163600D01*
G75*
G02*
X160330700Y-148938600I225000J0D01*
G01*
X160780700Y-148938600D01*
G75*
G02*
X161005700Y-149163600I0J-225000D01*
G01*
X161005700Y-149663600D01*
G75*
G02*
X160780700Y-149888600I-225000J0D01*
G01*
X160330700Y-149888600D01*
G75*
G02*
X160105700Y-149663600I0J225000D01*
G01*
G37*
G36*
G01*
X161655700Y-149663600D02*
X161655700Y-149163600D01*
G75*
G02*
X161880700Y-148938600I225000J0D01*
G01*
X162330700Y-148938600D01*
G75*
G02*
X162555700Y-149163600I0J-225000D01*
G01*
X162555700Y-149663600D01*
G75*
G02*
X162330700Y-149888600I-225000J0D01*
G01*
X161880700Y-149888600D01*
G75*
G02*
X161655700Y-149663600I0J225000D01*
G01*
G37*
G36*
G01*
X147240908Y-127168008D02*
X147240908Y-128018008D01*
G75*
G02*
X146990908Y-128268008I-250000J0D01*
G01*
X146090908Y-128268008D01*
G75*
G02*
X145840908Y-128018008I0J250000D01*
G01*
X145840908Y-127168008D01*
G75*
G02*
X146090908Y-126918008I250000J0D01*
G01*
X146990908Y-126918008D01*
G75*
G02*
X147240908Y-127168008I0J-250000D01*
G01*
G37*
G36*
G01*
X144540908Y-127168008D02*
X144540908Y-128018008D01*
G75*
G02*
X144290908Y-128268008I-250000J0D01*
G01*
X143390908Y-128268008D01*
G75*
G02*
X143140908Y-128018008I0J250000D01*
G01*
X143140908Y-127168008D01*
G75*
G02*
X143390908Y-126918008I250000J0D01*
G01*
X144290908Y-126918008D01*
G75*
G02*
X144540908Y-127168008I0J-250000D01*
G01*
G37*
D16*
X146843308Y-122285408D03*
G36*
X144476808Y-126235408D02*
G01*
X144476808Y-123110408D01*
X144893308Y-123110408D01*
X144893308Y-121635408D01*
X145793308Y-121635408D01*
X145793308Y-123110408D01*
X146209808Y-123110408D01*
X146209808Y-126235408D01*
X144476808Y-126235408D01*
G37*
X143843308Y-122285408D03*
G36*
G01*
X120206400Y-120163600D02*
X120206400Y-120663600D01*
G75*
G02*
X119981400Y-120888600I-225000J0D01*
G01*
X119531400Y-120888600D01*
G75*
G02*
X119306400Y-120663600I0J225000D01*
G01*
X119306400Y-120163600D01*
G75*
G02*
X119531400Y-119938600I225000J0D01*
G01*
X119981400Y-119938600D01*
G75*
G02*
X120206400Y-120163600I0J-225000D01*
G01*
G37*
G36*
G01*
X118656400Y-120163600D02*
X118656400Y-120663600D01*
G75*
G02*
X118431400Y-120888600I-225000J0D01*
G01*
X117981400Y-120888600D01*
G75*
G02*
X117756400Y-120663600I0J225000D01*
G01*
X117756400Y-120163600D01*
G75*
G02*
X117981400Y-119938600I225000J0D01*
G01*
X118431400Y-119938600D01*
G75*
G02*
X118656400Y-120163600I0J-225000D01*
G01*
G37*
G36*
G01*
X140498700Y-125984000D02*
X139998700Y-125984000D01*
G75*
G02*
X139773700Y-125759000I0J225000D01*
G01*
X139773700Y-125309000D01*
G75*
G02*
X139998700Y-125084000I225000J0D01*
G01*
X140498700Y-125084000D01*
G75*
G02*
X140723700Y-125309000I0J-225000D01*
G01*
X140723700Y-125759000D01*
G75*
G02*
X140498700Y-125984000I-225000J0D01*
G01*
G37*
G36*
G01*
X140498700Y-124434000D02*
X139998700Y-124434000D01*
G75*
G02*
X139773700Y-124209000I0J225000D01*
G01*
X139773700Y-123759000D01*
G75*
G02*
X139998700Y-123534000I225000J0D01*
G01*
X140498700Y-123534000D01*
G75*
G02*
X140723700Y-123759000I0J-225000D01*
G01*
X140723700Y-124209000D01*
G75*
G02*
X140498700Y-124434000I-225000J0D01*
G01*
G37*
G36*
G01*
X119883700Y-130198600D02*
X119883700Y-130698600D01*
G75*
G02*
X119658700Y-130923600I-225000J0D01*
G01*
X119208700Y-130923600D01*
G75*
G02*
X118983700Y-130698600I0J225000D01*
G01*
X118983700Y-130198600D01*
G75*
G02*
X119208700Y-129973600I225000J0D01*
G01*
X119658700Y-129973600D01*
G75*
G02*
X119883700Y-130198600I0J-225000D01*
G01*
G37*
G36*
G01*
X118333700Y-130198600D02*
X118333700Y-130698600D01*
G75*
G02*
X118108700Y-130923600I-225000J0D01*
G01*
X117658700Y-130923600D01*
G75*
G02*
X117433700Y-130698600I0J225000D01*
G01*
X117433700Y-130198600D01*
G75*
G02*
X117658700Y-129973600I225000J0D01*
G01*
X118108700Y-129973600D01*
G75*
G02*
X118333700Y-130198600I0J-225000D01*
G01*
G37*
G36*
G01*
X111578200Y-149857600D02*
X111578200Y-149307600D01*
G75*
G02*
X111778200Y-149107600I200000J0D01*
G01*
X112178200Y-149107600D01*
G75*
G02*
X112378200Y-149307600I0J-200000D01*
G01*
X112378200Y-149857600D01*
G75*
G02*
X112178200Y-150057600I-200000J0D01*
G01*
X111778200Y-150057600D01*
G75*
G02*
X111578200Y-149857600I0J200000D01*
G01*
G37*
G36*
G01*
X113228200Y-149857600D02*
X113228200Y-149307600D01*
G75*
G02*
X113428200Y-149107600I200000J0D01*
G01*
X113828200Y-149107600D01*
G75*
G02*
X114028200Y-149307600I0J-200000D01*
G01*
X114028200Y-149857600D01*
G75*
G02*
X113828200Y-150057600I-200000J0D01*
G01*
X113428200Y-150057600D01*
G75*
G02*
X113228200Y-149857600I0J200000D01*
G01*
G37*
G36*
G01*
X170676317Y-126914371D02*
X171029871Y-126560817D01*
G75*
G02*
X171348069Y-126560817I159099J-159099D01*
G01*
X171666267Y-126879015D01*
G75*
G02*
X171666267Y-127197213I-159099J-159099D01*
G01*
X171312713Y-127550767D01*
G75*
G02*
X170994515Y-127550767I-159099J159099D01*
G01*
X170676317Y-127232569D01*
G75*
G02*
X170676317Y-126914371I159099J159099D01*
G01*
G37*
G36*
G01*
X171772333Y-128010387D02*
X172125887Y-127656833D01*
G75*
G02*
X172444085Y-127656833I159099J-159099D01*
G01*
X172762283Y-127975031D01*
G75*
G02*
X172762283Y-128293229I-159099J-159099D01*
G01*
X172408729Y-128646783D01*
G75*
G02*
X172090531Y-128646783I-159099J159099D01*
G01*
X171772333Y-128328585D01*
G75*
G02*
X171772333Y-128010387I159099J159099D01*
G01*
G37*
G36*
G01*
X111578200Y-148359000D02*
X111578200Y-147809000D01*
G75*
G02*
X111778200Y-147609000I200000J0D01*
G01*
X112178200Y-147609000D01*
G75*
G02*
X112378200Y-147809000I0J-200000D01*
G01*
X112378200Y-148359000D01*
G75*
G02*
X112178200Y-148559000I-200000J0D01*
G01*
X111778200Y-148559000D01*
G75*
G02*
X111578200Y-148359000I0J200000D01*
G01*
G37*
G36*
G01*
X113228200Y-148359000D02*
X113228200Y-147809000D01*
G75*
G02*
X113428200Y-147609000I200000J0D01*
G01*
X113828200Y-147609000D01*
G75*
G02*
X114028200Y-147809000I0J-200000D01*
G01*
X114028200Y-148359000D01*
G75*
G02*
X113828200Y-148559000I-200000J0D01*
G01*
X113428200Y-148559000D01*
G75*
G02*
X113228200Y-148359000I0J200000D01*
G01*
G37*
D17*
X153670608Y-128021408D03*
X153670608Y-130771408D03*
X155870608Y-130771408D03*
X155870608Y-128021408D03*
D18*
X174879000Y-131446600D03*
X176149000Y-131446600D03*
X177419000Y-131446600D03*
X178689000Y-131446600D03*
X178689000Y-125296600D03*
X177419000Y-125296600D03*
X176149000Y-125296600D03*
X174879000Y-125296600D03*
G36*
G01*
X154884900Y-123772400D02*
X154884900Y-124272400D01*
G75*
G02*
X154659900Y-124497400I-225000J0D01*
G01*
X154209900Y-124497400D01*
G75*
G02*
X153984900Y-124272400I0J225000D01*
G01*
X153984900Y-123772400D01*
G75*
G02*
X154209900Y-123547400I225000J0D01*
G01*
X154659900Y-123547400D01*
G75*
G02*
X154884900Y-123772400I0J-225000D01*
G01*
G37*
G36*
G01*
X153334900Y-123772400D02*
X153334900Y-124272400D01*
G75*
G02*
X153109900Y-124497400I-225000J0D01*
G01*
X152659900Y-124497400D01*
G75*
G02*
X152434900Y-124272400I0J225000D01*
G01*
X152434900Y-123772400D01*
G75*
G02*
X152659900Y-123547400I225000J0D01*
G01*
X153109900Y-123547400D01*
G75*
G02*
X153334900Y-123772400I0J-225000D01*
G01*
G37*
G36*
G01*
X154580100Y-149163600D02*
X154580100Y-149663600D01*
G75*
G02*
X154355100Y-149888600I-225000J0D01*
G01*
X153905100Y-149888600D01*
G75*
G02*
X153680100Y-149663600I0J225000D01*
G01*
X153680100Y-149163600D01*
G75*
G02*
X153905100Y-148938600I225000J0D01*
G01*
X154355100Y-148938600D01*
G75*
G02*
X154580100Y-149163600I0J-225000D01*
G01*
G37*
G36*
G01*
X153030100Y-149163600D02*
X153030100Y-149663600D01*
G75*
G02*
X152805100Y-149888600I-225000J0D01*
G01*
X152355100Y-149888600D01*
G75*
G02*
X152130100Y-149663600I0J225000D01*
G01*
X152130100Y-149163600D01*
G75*
G02*
X152355100Y-148938600I225000J0D01*
G01*
X152805100Y-148938600D01*
G75*
G02*
X153030100Y-149163600I0J-225000D01*
G01*
G37*
G36*
G01*
X158614483Y-113739029D02*
X158260929Y-114092583D01*
G75*
G02*
X157942731Y-114092583I-159099J159099D01*
G01*
X157624533Y-113774385D01*
G75*
G02*
X157624533Y-113456187I159099J159099D01*
G01*
X157978087Y-113102633D01*
G75*
G02*
X158296285Y-113102633I159099J-159099D01*
G01*
X158614483Y-113420831D01*
G75*
G02*
X158614483Y-113739029I-159099J-159099D01*
G01*
G37*
G36*
G01*
X157518467Y-112643013D02*
X157164913Y-112996567D01*
G75*
G02*
X156846715Y-112996567I-159099J159099D01*
G01*
X156528517Y-112678369D01*
G75*
G02*
X156528517Y-112360171I159099J159099D01*
G01*
X156882071Y-112006617D01*
G75*
G02*
X157200269Y-112006617I159099J-159099D01*
G01*
X157518467Y-112324815D01*
G75*
G02*
X157518467Y-112643013I-159099J-159099D01*
G01*
G37*
G36*
G01*
X112712500Y-121888329D02*
X112712500Y-121688329D01*
G75*
G02*
X112812500Y-121588329I100000J0D01*
G01*
X114087500Y-121588329D01*
G75*
G02*
X114187500Y-121688329I0J-100000D01*
G01*
X114187500Y-121888329D01*
G75*
G02*
X114087500Y-121988329I-100000J0D01*
G01*
X112812500Y-121988329D01*
G75*
G02*
X112712500Y-121888329I0J100000D01*
G01*
G37*
G36*
G01*
X112712500Y-122538329D02*
X112712500Y-122338329D01*
G75*
G02*
X112812500Y-122238329I100000J0D01*
G01*
X114087500Y-122238329D01*
G75*
G02*
X114187500Y-122338329I0J-100000D01*
G01*
X114187500Y-122538329D01*
G75*
G02*
X114087500Y-122638329I-100000J0D01*
G01*
X112812500Y-122638329D01*
G75*
G02*
X112712500Y-122538329I0J100000D01*
G01*
G37*
G36*
G01*
X112712500Y-123188329D02*
X112712500Y-122988329D01*
G75*
G02*
X112812500Y-122888329I100000J0D01*
G01*
X114087500Y-122888329D01*
G75*
G02*
X114187500Y-122988329I0J-100000D01*
G01*
X114187500Y-123188329D01*
G75*
G02*
X114087500Y-123288329I-100000J0D01*
G01*
X112812500Y-123288329D01*
G75*
G02*
X112712500Y-123188329I0J100000D01*
G01*
G37*
G36*
G01*
X112712500Y-123838329D02*
X112712500Y-123638329D01*
G75*
G02*
X112812500Y-123538329I100000J0D01*
G01*
X114087500Y-123538329D01*
G75*
G02*
X114187500Y-123638329I0J-100000D01*
G01*
X114187500Y-123838329D01*
G75*
G02*
X114087500Y-123938329I-100000J0D01*
G01*
X112812500Y-123938329D01*
G75*
G02*
X112712500Y-123838329I0J100000D01*
G01*
G37*
G36*
G01*
X112712500Y-124488329D02*
X112712500Y-124288329D01*
G75*
G02*
X112812500Y-124188329I100000J0D01*
G01*
X114087500Y-124188329D01*
G75*
G02*
X114187500Y-124288329I0J-100000D01*
G01*
X114187500Y-124488329D01*
G75*
G02*
X114087500Y-124588329I-100000J0D01*
G01*
X112812500Y-124588329D01*
G75*
G02*
X112712500Y-124488329I0J100000D01*
G01*
G37*
G36*
G01*
X112712500Y-125138329D02*
X112712500Y-124938329D01*
G75*
G02*
X112812500Y-124838329I100000J0D01*
G01*
X114087500Y-124838329D01*
G75*
G02*
X114187500Y-124938329I0J-100000D01*
G01*
X114187500Y-125138329D01*
G75*
G02*
X114087500Y-125238329I-100000J0D01*
G01*
X112812500Y-125238329D01*
G75*
G02*
X112712500Y-125138329I0J100000D01*
G01*
G37*
G36*
G01*
X112712500Y-125788329D02*
X112712500Y-125588329D01*
G75*
G02*
X112812500Y-125488329I100000J0D01*
G01*
X114087500Y-125488329D01*
G75*
G02*
X114187500Y-125588329I0J-100000D01*
G01*
X114187500Y-125788329D01*
G75*
G02*
X114087500Y-125888329I-100000J0D01*
G01*
X112812500Y-125888329D01*
G75*
G02*
X112712500Y-125788329I0J100000D01*
G01*
G37*
G36*
G01*
X112712500Y-126438329D02*
X112712500Y-126238329D01*
G75*
G02*
X112812500Y-126138329I100000J0D01*
G01*
X114087500Y-126138329D01*
G75*
G02*
X114187500Y-126238329I0J-100000D01*
G01*
X114187500Y-126438329D01*
G75*
G02*
X114087500Y-126538329I-100000J0D01*
G01*
X112812500Y-126538329D01*
G75*
G02*
X112712500Y-126438329I0J100000D01*
G01*
G37*
G36*
G01*
X112712500Y-127088329D02*
X112712500Y-126888329D01*
G75*
G02*
X112812500Y-126788329I100000J0D01*
G01*
X114087500Y-126788329D01*
G75*
G02*
X114187500Y-126888329I0J-100000D01*
G01*
X114187500Y-127088329D01*
G75*
G02*
X114087500Y-127188329I-100000J0D01*
G01*
X112812500Y-127188329D01*
G75*
G02*
X112712500Y-127088329I0J100000D01*
G01*
G37*
G36*
G01*
X112712500Y-127738329D02*
X112712500Y-127538329D01*
G75*
G02*
X112812500Y-127438329I100000J0D01*
G01*
X114087500Y-127438329D01*
G75*
G02*
X114187500Y-127538329I0J-100000D01*
G01*
X114187500Y-127738329D01*
G75*
G02*
X114087500Y-127838329I-100000J0D01*
G01*
X112812500Y-127838329D01*
G75*
G02*
X112712500Y-127738329I0J100000D01*
G01*
G37*
G36*
G01*
X118437500Y-127738329D02*
X118437500Y-127538329D01*
G75*
G02*
X118537500Y-127438329I100000J0D01*
G01*
X119812500Y-127438329D01*
G75*
G02*
X119912500Y-127538329I0J-100000D01*
G01*
X119912500Y-127738329D01*
G75*
G02*
X119812500Y-127838329I-100000J0D01*
G01*
X118537500Y-127838329D01*
G75*
G02*
X118437500Y-127738329I0J100000D01*
G01*
G37*
G36*
G01*
X118437500Y-127088329D02*
X118437500Y-126888329D01*
G75*
G02*
X118537500Y-126788329I100000J0D01*
G01*
X119812500Y-126788329D01*
G75*
G02*
X119912500Y-126888329I0J-100000D01*
G01*
X119912500Y-127088329D01*
G75*
G02*
X119812500Y-127188329I-100000J0D01*
G01*
X118537500Y-127188329D01*
G75*
G02*
X118437500Y-127088329I0J100000D01*
G01*
G37*
G36*
G01*
X118437500Y-126438329D02*
X118437500Y-126238329D01*
G75*
G02*
X118537500Y-126138329I100000J0D01*
G01*
X119812500Y-126138329D01*
G75*
G02*
X119912500Y-126238329I0J-100000D01*
G01*
X119912500Y-126438329D01*
G75*
G02*
X119812500Y-126538329I-100000J0D01*
G01*
X118537500Y-126538329D01*
G75*
G02*
X118437500Y-126438329I0J100000D01*
G01*
G37*
G36*
G01*
X118437500Y-125788329D02*
X118437500Y-125588329D01*
G75*
G02*
X118537500Y-125488329I100000J0D01*
G01*
X119812500Y-125488329D01*
G75*
G02*
X119912500Y-125588329I0J-100000D01*
G01*
X119912500Y-125788329D01*
G75*
G02*
X119812500Y-125888329I-100000J0D01*
G01*
X118537500Y-125888329D01*
G75*
G02*
X118437500Y-125788329I0J100000D01*
G01*
G37*
G36*
G01*
X118437500Y-125138329D02*
X118437500Y-124938329D01*
G75*
G02*
X118537500Y-124838329I100000J0D01*
G01*
X119812500Y-124838329D01*
G75*
G02*
X119912500Y-124938329I0J-100000D01*
G01*
X119912500Y-125138329D01*
G75*
G02*
X119812500Y-125238329I-100000J0D01*
G01*
X118537500Y-125238329D01*
G75*
G02*
X118437500Y-125138329I0J100000D01*
G01*
G37*
G36*
G01*
X118437500Y-124488329D02*
X118437500Y-124288329D01*
G75*
G02*
X118537500Y-124188329I100000J0D01*
G01*
X119812500Y-124188329D01*
G75*
G02*
X119912500Y-124288329I0J-100000D01*
G01*
X119912500Y-124488329D01*
G75*
G02*
X119812500Y-124588329I-100000J0D01*
G01*
X118537500Y-124588329D01*
G75*
G02*
X118437500Y-124488329I0J100000D01*
G01*
G37*
G36*
G01*
X118437500Y-123838329D02*
X118437500Y-123638329D01*
G75*
G02*
X118537500Y-123538329I100000J0D01*
G01*
X119812500Y-123538329D01*
G75*
G02*
X119912500Y-123638329I0J-100000D01*
G01*
X119912500Y-123838329D01*
G75*
G02*
X119812500Y-123938329I-100000J0D01*
G01*
X118537500Y-123938329D01*
G75*
G02*
X118437500Y-123838329I0J100000D01*
G01*
G37*
G36*
G01*
X118437500Y-123188329D02*
X118437500Y-122988329D01*
G75*
G02*
X118537500Y-122888329I100000J0D01*
G01*
X119812500Y-122888329D01*
G75*
G02*
X119912500Y-122988329I0J-100000D01*
G01*
X119912500Y-123188329D01*
G75*
G02*
X119812500Y-123288329I-100000J0D01*
G01*
X118537500Y-123288329D01*
G75*
G02*
X118437500Y-123188329I0J100000D01*
G01*
G37*
G36*
G01*
X118437500Y-122538329D02*
X118437500Y-122338329D01*
G75*
G02*
X118537500Y-122238329I100000J0D01*
G01*
X119812500Y-122238329D01*
G75*
G02*
X119912500Y-122338329I0J-100000D01*
G01*
X119912500Y-122538329D01*
G75*
G02*
X119812500Y-122638329I-100000J0D01*
G01*
X118537500Y-122638329D01*
G75*
G02*
X118437500Y-122538329I0J100000D01*
G01*
G37*
G36*
G01*
X118437500Y-121888329D02*
X118437500Y-121688329D01*
G75*
G02*
X118537500Y-121588329I100000J0D01*
G01*
X119812500Y-121588329D01*
G75*
G02*
X119912500Y-121688329I0J-100000D01*
G01*
X119912500Y-121888329D01*
G75*
G02*
X119812500Y-121988329I-100000J0D01*
G01*
X118537500Y-121988329D01*
G75*
G02*
X118437500Y-121888329I0J100000D01*
G01*
G37*
G36*
G01*
X121815800Y-123832800D02*
X121265800Y-123832800D01*
G75*
G02*
X121065800Y-123632800I0J200000D01*
G01*
X121065800Y-123232800D01*
G75*
G02*
X121265800Y-123032800I200000J0D01*
G01*
X121815800Y-123032800D01*
G75*
G02*
X122015800Y-123232800I0J-200000D01*
G01*
X122015800Y-123632800D01*
G75*
G02*
X121815800Y-123832800I-200000J0D01*
G01*
G37*
G36*
G01*
X121815800Y-122182800D02*
X121265800Y-122182800D01*
G75*
G02*
X121065800Y-121982800I0J200000D01*
G01*
X121065800Y-121582800D01*
G75*
G02*
X121265800Y-121382800I200000J0D01*
G01*
X121815800Y-121382800D01*
G75*
G02*
X122015800Y-121582800I0J-200000D01*
G01*
X122015800Y-121982800D01*
G75*
G02*
X121815800Y-122182800I-200000J0D01*
G01*
G37*
G36*
G01*
X111213000Y-103463200D02*
X112463000Y-103463200D01*
G75*
G02*
X112713000Y-103713200I0J-250000D01*
G01*
X112713000Y-104463200D01*
G75*
G02*
X112463000Y-104713200I-250000J0D01*
G01*
X111213000Y-104713200D01*
G75*
G02*
X110963000Y-104463200I0J250000D01*
G01*
X110963000Y-103713200D01*
G75*
G02*
X111213000Y-103463200I250000J0D01*
G01*
G37*
G36*
G01*
X111213000Y-106263200D02*
X112463000Y-106263200D01*
G75*
G02*
X112713000Y-106513200I0J-250000D01*
G01*
X112713000Y-107263200D01*
G75*
G02*
X112463000Y-107513200I-250000J0D01*
G01*
X111213000Y-107513200D01*
G75*
G02*
X110963000Y-107263200I0J250000D01*
G01*
X110963000Y-106513200D01*
G75*
G02*
X111213000Y-106263200I250000J0D01*
G01*
G37*
G36*
G01*
X154411896Y-122171489D02*
X154305830Y-122065423D01*
G75*
G02*
X154305830Y-121959357I53033J53033D01*
G01*
X155242746Y-121022441D01*
G75*
G02*
X155348812Y-121022441I53033J-53033D01*
G01*
X155454878Y-121128507D01*
G75*
G02*
X155454878Y-121234573I-53033J-53033D01*
G01*
X154517962Y-122171489D01*
G75*
G02*
X154411896Y-122171489I-53033J53033D01*
G01*
G37*
G36*
G01*
X154765449Y-122525042D02*
X154659383Y-122418976D01*
G75*
G02*
X154659383Y-122312910I53033J53033D01*
G01*
X155596299Y-121375994D01*
G75*
G02*
X155702365Y-121375994I53033J-53033D01*
G01*
X155808431Y-121482060D01*
G75*
G02*
X155808431Y-121588126I-53033J-53033D01*
G01*
X154871515Y-122525042D01*
G75*
G02*
X154765449Y-122525042I-53033J53033D01*
G01*
G37*
G36*
G01*
X155119002Y-122878596D02*
X155012936Y-122772530D01*
G75*
G02*
X155012936Y-122666464I53033J53033D01*
G01*
X155949852Y-121729548D01*
G75*
G02*
X156055918Y-121729548I53033J-53033D01*
G01*
X156161984Y-121835614D01*
G75*
G02*
X156161984Y-121941680I-53033J-53033D01*
G01*
X155225068Y-122878596D01*
G75*
G02*
X155119002Y-122878596I-53033J53033D01*
G01*
G37*
G36*
G01*
X155472556Y-123232149D02*
X155366490Y-123126083D01*
G75*
G02*
X155366490Y-123020017I53033J53033D01*
G01*
X156303406Y-122083101D01*
G75*
G02*
X156409472Y-122083101I53033J-53033D01*
G01*
X156515538Y-122189167D01*
G75*
G02*
X156515538Y-122295233I-53033J-53033D01*
G01*
X155578622Y-123232149D01*
G75*
G02*
X155472556Y-123232149I-53033J53033D01*
G01*
G37*
G36*
G01*
X155826109Y-123585703D02*
X155720043Y-123479637D01*
G75*
G02*
X155720043Y-123373571I53033J53033D01*
G01*
X156656959Y-122436655D01*
G75*
G02*
X156763025Y-122436655I53033J-53033D01*
G01*
X156869091Y-122542721D01*
G75*
G02*
X156869091Y-122648787I-53033J-53033D01*
G01*
X155932175Y-123585703D01*
G75*
G02*
X155826109Y-123585703I-53033J53033D01*
G01*
G37*
G36*
G01*
X156179663Y-123939256D02*
X156073597Y-123833190D01*
G75*
G02*
X156073597Y-123727124I53033J53033D01*
G01*
X157010513Y-122790208D01*
G75*
G02*
X157116579Y-122790208I53033J-53033D01*
G01*
X157222645Y-122896274D01*
G75*
G02*
X157222645Y-123002340I-53033J-53033D01*
G01*
X156285729Y-123939256D01*
G75*
G02*
X156179663Y-123939256I-53033J53033D01*
G01*
G37*
G36*
G01*
X156533216Y-124292809D02*
X156427150Y-124186743D01*
G75*
G02*
X156427150Y-124080677I53033J53033D01*
G01*
X157364066Y-123143761D01*
G75*
G02*
X157470132Y-123143761I53033J-53033D01*
G01*
X157576198Y-123249827D01*
G75*
G02*
X157576198Y-123355893I-53033J-53033D01*
G01*
X156639282Y-124292809D01*
G75*
G02*
X156533216Y-124292809I-53033J53033D01*
G01*
G37*
G36*
G01*
X156886769Y-124646363D02*
X156780703Y-124540297D01*
G75*
G02*
X156780703Y-124434231I53033J53033D01*
G01*
X157717619Y-123497315D01*
G75*
G02*
X157823685Y-123497315I53033J-53033D01*
G01*
X157929751Y-123603381D01*
G75*
G02*
X157929751Y-123709447I-53033J-53033D01*
G01*
X156992835Y-124646363D01*
G75*
G02*
X156886769Y-124646363I-53033J53033D01*
G01*
G37*
G36*
G01*
X157240323Y-124999916D02*
X157134257Y-124893850D01*
G75*
G02*
X157134257Y-124787784I53033J53033D01*
G01*
X158071173Y-123850868D01*
G75*
G02*
X158177239Y-123850868I53033J-53033D01*
G01*
X158283305Y-123956934D01*
G75*
G02*
X158283305Y-124063000I-53033J-53033D01*
G01*
X157346389Y-124999916D01*
G75*
G02*
X157240323Y-124999916I-53033J53033D01*
G01*
G37*
G36*
G01*
X157593876Y-125353470D02*
X157487810Y-125247404D01*
G75*
G02*
X157487810Y-125141338I53033J53033D01*
G01*
X158424726Y-124204422D01*
G75*
G02*
X158530792Y-124204422I53033J-53033D01*
G01*
X158636858Y-124310488D01*
G75*
G02*
X158636858Y-124416554I-53033J-53033D01*
G01*
X157699942Y-125353470D01*
G75*
G02*
X157593876Y-125353470I-53033J53033D01*
G01*
G37*
G36*
G01*
X157947430Y-125707023D02*
X157841364Y-125600957D01*
G75*
G02*
X157841364Y-125494891I53033J53033D01*
G01*
X158778280Y-124557975D01*
G75*
G02*
X158884346Y-124557975I53033J-53033D01*
G01*
X158990412Y-124664041D01*
G75*
G02*
X158990412Y-124770107I-53033J-53033D01*
G01*
X158053496Y-125707023D01*
G75*
G02*
X157947430Y-125707023I-53033J53033D01*
G01*
G37*
G36*
G01*
X158300983Y-126060576D02*
X158194917Y-125954510D01*
G75*
G02*
X158194917Y-125848444I53033J53033D01*
G01*
X159131833Y-124911528D01*
G75*
G02*
X159237899Y-124911528I53033J-53033D01*
G01*
X159343965Y-125017594D01*
G75*
G02*
X159343965Y-125123660I-53033J-53033D01*
G01*
X158407049Y-126060576D01*
G75*
G02*
X158300983Y-126060576I-53033J53033D01*
G01*
G37*
G36*
G01*
X158654536Y-126414130D02*
X158548470Y-126308064D01*
G75*
G02*
X158548470Y-126201998I53033J53033D01*
G01*
X159485386Y-125265082D01*
G75*
G02*
X159591452Y-125265082I53033J-53033D01*
G01*
X159697518Y-125371148D01*
G75*
G02*
X159697518Y-125477214I-53033J-53033D01*
G01*
X158760602Y-126414130D01*
G75*
G02*
X158654536Y-126414130I-53033J53033D01*
G01*
G37*
G36*
G01*
X159008090Y-126767683D02*
X158902024Y-126661617D01*
G75*
G02*
X158902024Y-126555551I53033J53033D01*
G01*
X159838940Y-125618635D01*
G75*
G02*
X159945006Y-125618635I53033J-53033D01*
G01*
X160051072Y-125724701D01*
G75*
G02*
X160051072Y-125830767I-53033J-53033D01*
G01*
X159114156Y-126767683D01*
G75*
G02*
X159008090Y-126767683I-53033J53033D01*
G01*
G37*
G36*
G01*
X159361643Y-127121236D02*
X159255577Y-127015170D01*
G75*
G02*
X159255577Y-126909104I53033J53033D01*
G01*
X160192493Y-125972188D01*
G75*
G02*
X160298559Y-125972188I53033J-53033D01*
G01*
X160404625Y-126078254D01*
G75*
G02*
X160404625Y-126184320I-53033J-53033D01*
G01*
X159467709Y-127121236D01*
G75*
G02*
X159361643Y-127121236I-53033J53033D01*
G01*
G37*
G36*
G01*
X159715196Y-127474790D02*
X159609130Y-127368724D01*
G75*
G02*
X159609130Y-127262658I53033J53033D01*
G01*
X160546046Y-126325742D01*
G75*
G02*
X160652112Y-126325742I53033J-53033D01*
G01*
X160758178Y-126431808D01*
G75*
G02*
X160758178Y-126537874I-53033J-53033D01*
G01*
X159821262Y-127474790D01*
G75*
G02*
X159715196Y-127474790I-53033J53033D01*
G01*
G37*
G36*
G01*
X160068750Y-127828343D02*
X159962684Y-127722277D01*
G75*
G02*
X159962684Y-127616211I53033J53033D01*
G01*
X160899600Y-126679295D01*
G75*
G02*
X161005666Y-126679295I53033J-53033D01*
G01*
X161111732Y-126785361D01*
G75*
G02*
X161111732Y-126891427I-53033J-53033D01*
G01*
X160174816Y-127828343D01*
G75*
G02*
X160068750Y-127828343I-53033J53033D01*
G01*
G37*
G36*
G01*
X160422303Y-128181897D02*
X160316237Y-128075831D01*
G75*
G02*
X160316237Y-127969765I53033J53033D01*
G01*
X161253153Y-127032849D01*
G75*
G02*
X161359219Y-127032849I53033J-53033D01*
G01*
X161465285Y-127138915D01*
G75*
G02*
X161465285Y-127244981I-53033J-53033D01*
G01*
X160528369Y-128181897D01*
G75*
G02*
X160422303Y-128181897I-53033J53033D01*
G01*
G37*
G36*
G01*
X160775857Y-128535450D02*
X160669791Y-128429384D01*
G75*
G02*
X160669791Y-128323318I53033J53033D01*
G01*
X161606707Y-127386402D01*
G75*
G02*
X161712773Y-127386402I53033J-53033D01*
G01*
X161818839Y-127492468D01*
G75*
G02*
X161818839Y-127598534I-53033J-53033D01*
G01*
X160881923Y-128535450D01*
G75*
G02*
X160775857Y-128535450I-53033J53033D01*
G01*
G37*
G36*
G01*
X161129410Y-128889003D02*
X161023344Y-128782937D01*
G75*
G02*
X161023344Y-128676871I53033J53033D01*
G01*
X161960260Y-127739955D01*
G75*
G02*
X162066326Y-127739955I53033J-53033D01*
G01*
X162172392Y-127846021D01*
G75*
G02*
X162172392Y-127952087I-53033J-53033D01*
G01*
X161235476Y-128889003D01*
G75*
G02*
X161129410Y-128889003I-53033J53033D01*
G01*
G37*
G36*
G01*
X161482963Y-129242557D02*
X161376897Y-129136491D01*
G75*
G02*
X161376897Y-129030425I53033J53033D01*
G01*
X162313813Y-128093509D01*
G75*
G02*
X162419879Y-128093509I53033J-53033D01*
G01*
X162525945Y-128199575D01*
G75*
G02*
X162525945Y-128305641I-53033J-53033D01*
G01*
X161589029Y-129242557D01*
G75*
G02*
X161482963Y-129242557I-53033J53033D01*
G01*
G37*
G36*
G01*
X161836517Y-129596110D02*
X161730451Y-129490044D01*
G75*
G02*
X161730451Y-129383978I53033J53033D01*
G01*
X162667367Y-128447062D01*
G75*
G02*
X162773433Y-128447062I53033J-53033D01*
G01*
X162879499Y-128553128D01*
G75*
G02*
X162879499Y-128659194I-53033J-53033D01*
G01*
X161942583Y-129596110D01*
G75*
G02*
X161836517Y-129596110I-53033J53033D01*
G01*
G37*
G36*
G01*
X162190070Y-129949664D02*
X162084004Y-129843598D01*
G75*
G02*
X162084004Y-129737532I53033J53033D01*
G01*
X163020920Y-128800616D01*
G75*
G02*
X163126986Y-128800616I53033J-53033D01*
G01*
X163233052Y-128906682D01*
G75*
G02*
X163233052Y-129012748I-53033J-53033D01*
G01*
X162296136Y-129949664D01*
G75*
G02*
X162190070Y-129949664I-53033J53033D01*
G01*
G37*
G36*
G01*
X162543624Y-130303217D02*
X162437558Y-130197151D01*
G75*
G02*
X162437558Y-130091085I53033J53033D01*
G01*
X163374474Y-129154169D01*
G75*
G02*
X163480540Y-129154169I53033J-53033D01*
G01*
X163586606Y-129260235D01*
G75*
G02*
X163586606Y-129366301I-53033J-53033D01*
G01*
X162649690Y-130303217D01*
G75*
G02*
X162543624Y-130303217I-53033J53033D01*
G01*
G37*
G36*
G01*
X162897177Y-130656770D02*
X162791111Y-130550704D01*
G75*
G02*
X162791111Y-130444638I53033J53033D01*
G01*
X163728027Y-129507722D01*
G75*
G02*
X163834093Y-129507722I53033J-53033D01*
G01*
X163940159Y-129613788D01*
G75*
G02*
X163940159Y-129719854I-53033J-53033D01*
G01*
X163003243Y-130656770D01*
G75*
G02*
X162897177Y-130656770I-53033J53033D01*
G01*
G37*
G36*
G01*
X166079157Y-130656770D02*
X165142241Y-129719854D01*
G75*
G02*
X165142241Y-129613788I53033J53033D01*
G01*
X165248307Y-129507722D01*
G75*
G02*
X165354373Y-129507722I53033J-53033D01*
G01*
X166291289Y-130444638D01*
G75*
G02*
X166291289Y-130550704I-53033J-53033D01*
G01*
X166185223Y-130656770D01*
G75*
G02*
X166079157Y-130656770I-53033J53033D01*
G01*
G37*
G36*
G01*
X166432710Y-130303217D02*
X165495794Y-129366301D01*
G75*
G02*
X165495794Y-129260235I53033J53033D01*
G01*
X165601860Y-129154169D01*
G75*
G02*
X165707926Y-129154169I53033J-53033D01*
G01*
X166644842Y-130091085D01*
G75*
G02*
X166644842Y-130197151I-53033J-53033D01*
G01*
X166538776Y-130303217D01*
G75*
G02*
X166432710Y-130303217I-53033J53033D01*
G01*
G37*
G36*
G01*
X166786264Y-129949664D02*
X165849348Y-129012748D01*
G75*
G02*
X165849348Y-128906682I53033J53033D01*
G01*
X165955414Y-128800616D01*
G75*
G02*
X166061480Y-128800616I53033J-53033D01*
G01*
X166998396Y-129737532D01*
G75*
G02*
X166998396Y-129843598I-53033J-53033D01*
G01*
X166892330Y-129949664D01*
G75*
G02*
X166786264Y-129949664I-53033J53033D01*
G01*
G37*
G36*
G01*
X167139817Y-129596110D02*
X166202901Y-128659194D01*
G75*
G02*
X166202901Y-128553128I53033J53033D01*
G01*
X166308967Y-128447062D01*
G75*
G02*
X166415033Y-128447062I53033J-53033D01*
G01*
X167351949Y-129383978D01*
G75*
G02*
X167351949Y-129490044I-53033J-53033D01*
G01*
X167245883Y-129596110D01*
G75*
G02*
X167139817Y-129596110I-53033J53033D01*
G01*
G37*
G36*
G01*
X167493371Y-129242557D02*
X166556455Y-128305641D01*
G75*
G02*
X166556455Y-128199575I53033J53033D01*
G01*
X166662521Y-128093509D01*
G75*
G02*
X166768587Y-128093509I53033J-53033D01*
G01*
X167705503Y-129030425D01*
G75*
G02*
X167705503Y-129136491I-53033J-53033D01*
G01*
X167599437Y-129242557D01*
G75*
G02*
X167493371Y-129242557I-53033J53033D01*
G01*
G37*
G36*
G01*
X167846924Y-128889003D02*
X166910008Y-127952087D01*
G75*
G02*
X166910008Y-127846021I53033J53033D01*
G01*
X167016074Y-127739955D01*
G75*
G02*
X167122140Y-127739955I53033J-53033D01*
G01*
X168059056Y-128676871D01*
G75*
G02*
X168059056Y-128782937I-53033J-53033D01*
G01*
X167952990Y-128889003D01*
G75*
G02*
X167846924Y-128889003I-53033J53033D01*
G01*
G37*
G36*
G01*
X168200477Y-128535450D02*
X167263561Y-127598534D01*
G75*
G02*
X167263561Y-127492468I53033J53033D01*
G01*
X167369627Y-127386402D01*
G75*
G02*
X167475693Y-127386402I53033J-53033D01*
G01*
X168412609Y-128323318D01*
G75*
G02*
X168412609Y-128429384I-53033J-53033D01*
G01*
X168306543Y-128535450D01*
G75*
G02*
X168200477Y-128535450I-53033J53033D01*
G01*
G37*
G36*
G01*
X168554031Y-128181897D02*
X167617115Y-127244981D01*
G75*
G02*
X167617115Y-127138915I53033J53033D01*
G01*
X167723181Y-127032849D01*
G75*
G02*
X167829247Y-127032849I53033J-53033D01*
G01*
X168766163Y-127969765D01*
G75*
G02*
X168766163Y-128075831I-53033J-53033D01*
G01*
X168660097Y-128181897D01*
G75*
G02*
X168554031Y-128181897I-53033J53033D01*
G01*
G37*
G36*
G01*
X168907584Y-127828343D02*
X167970668Y-126891427D01*
G75*
G02*
X167970668Y-126785361I53033J53033D01*
G01*
X168076734Y-126679295D01*
G75*
G02*
X168182800Y-126679295I53033J-53033D01*
G01*
X169119716Y-127616211D01*
G75*
G02*
X169119716Y-127722277I-53033J-53033D01*
G01*
X169013650Y-127828343D01*
G75*
G02*
X168907584Y-127828343I-53033J53033D01*
G01*
G37*
G36*
G01*
X169261138Y-127474790D02*
X168324222Y-126537874D01*
G75*
G02*
X168324222Y-126431808I53033J53033D01*
G01*
X168430288Y-126325742D01*
G75*
G02*
X168536354Y-126325742I53033J-53033D01*
G01*
X169473270Y-127262658D01*
G75*
G02*
X169473270Y-127368724I-53033J-53033D01*
G01*
X169367204Y-127474790D01*
G75*
G02*
X169261138Y-127474790I-53033J53033D01*
G01*
G37*
G36*
G01*
X169614691Y-127121236D02*
X168677775Y-126184320D01*
G75*
G02*
X168677775Y-126078254I53033J53033D01*
G01*
X168783841Y-125972188D01*
G75*
G02*
X168889907Y-125972188I53033J-53033D01*
G01*
X169826823Y-126909104D01*
G75*
G02*
X169826823Y-127015170I-53033J-53033D01*
G01*
X169720757Y-127121236D01*
G75*
G02*
X169614691Y-127121236I-53033J53033D01*
G01*
G37*
G36*
G01*
X169968244Y-126767683D02*
X169031328Y-125830767D01*
G75*
G02*
X169031328Y-125724701I53033J53033D01*
G01*
X169137394Y-125618635D01*
G75*
G02*
X169243460Y-125618635I53033J-53033D01*
G01*
X170180376Y-126555551D01*
G75*
G02*
X170180376Y-126661617I-53033J-53033D01*
G01*
X170074310Y-126767683D01*
G75*
G02*
X169968244Y-126767683I-53033J53033D01*
G01*
G37*
G36*
G01*
X170321798Y-126414130D02*
X169384882Y-125477214D01*
G75*
G02*
X169384882Y-125371148I53033J53033D01*
G01*
X169490948Y-125265082D01*
G75*
G02*
X169597014Y-125265082I53033J-53033D01*
G01*
X170533930Y-126201998D01*
G75*
G02*
X170533930Y-126308064I-53033J-53033D01*
G01*
X170427864Y-126414130D01*
G75*
G02*
X170321798Y-126414130I-53033J53033D01*
G01*
G37*
G36*
G01*
X170675351Y-126060576D02*
X169738435Y-125123660D01*
G75*
G02*
X169738435Y-125017594I53033J53033D01*
G01*
X169844501Y-124911528D01*
G75*
G02*
X169950567Y-124911528I53033J-53033D01*
G01*
X170887483Y-125848444D01*
G75*
G02*
X170887483Y-125954510I-53033J-53033D01*
G01*
X170781417Y-126060576D01*
G75*
G02*
X170675351Y-126060576I-53033J53033D01*
G01*
G37*
G36*
G01*
X171028904Y-125707023D02*
X170091988Y-124770107D01*
G75*
G02*
X170091988Y-124664041I53033J53033D01*
G01*
X170198054Y-124557975D01*
G75*
G02*
X170304120Y-124557975I53033J-53033D01*
G01*
X171241036Y-125494891D01*
G75*
G02*
X171241036Y-125600957I-53033J-53033D01*
G01*
X171134970Y-125707023D01*
G75*
G02*
X171028904Y-125707023I-53033J53033D01*
G01*
G37*
G36*
G01*
X171382458Y-125353470D02*
X170445542Y-124416554D01*
G75*
G02*
X170445542Y-124310488I53033J53033D01*
G01*
X170551608Y-124204422D01*
G75*
G02*
X170657674Y-124204422I53033J-53033D01*
G01*
X171594590Y-125141338D01*
G75*
G02*
X171594590Y-125247404I-53033J-53033D01*
G01*
X171488524Y-125353470D01*
G75*
G02*
X171382458Y-125353470I-53033J53033D01*
G01*
G37*
G36*
G01*
X171736011Y-124999916D02*
X170799095Y-124063000D01*
G75*
G02*
X170799095Y-123956934I53033J53033D01*
G01*
X170905161Y-123850868D01*
G75*
G02*
X171011227Y-123850868I53033J-53033D01*
G01*
X171948143Y-124787784D01*
G75*
G02*
X171948143Y-124893850I-53033J-53033D01*
G01*
X171842077Y-124999916D01*
G75*
G02*
X171736011Y-124999916I-53033J53033D01*
G01*
G37*
G36*
G01*
X172089565Y-124646363D02*
X171152649Y-123709447D01*
G75*
G02*
X171152649Y-123603381I53033J53033D01*
G01*
X171258715Y-123497315D01*
G75*
G02*
X171364781Y-123497315I53033J-53033D01*
G01*
X172301697Y-124434231D01*
G75*
G02*
X172301697Y-124540297I-53033J-53033D01*
G01*
X172195631Y-124646363D01*
G75*
G02*
X172089565Y-124646363I-53033J53033D01*
G01*
G37*
G36*
G01*
X172443118Y-124292809D02*
X171506202Y-123355893D01*
G75*
G02*
X171506202Y-123249827I53033J53033D01*
G01*
X171612268Y-123143761D01*
G75*
G02*
X171718334Y-123143761I53033J-53033D01*
G01*
X172655250Y-124080677D01*
G75*
G02*
X172655250Y-124186743I-53033J-53033D01*
G01*
X172549184Y-124292809D01*
G75*
G02*
X172443118Y-124292809I-53033J53033D01*
G01*
G37*
G36*
G01*
X172796671Y-123939256D02*
X171859755Y-123002340D01*
G75*
G02*
X171859755Y-122896274I53033J53033D01*
G01*
X171965821Y-122790208D01*
G75*
G02*
X172071887Y-122790208I53033J-53033D01*
G01*
X173008803Y-123727124D01*
G75*
G02*
X173008803Y-123833190I-53033J-53033D01*
G01*
X172902737Y-123939256D01*
G75*
G02*
X172796671Y-123939256I-53033J53033D01*
G01*
G37*
G36*
G01*
X173150225Y-123585703D02*
X172213309Y-122648787D01*
G75*
G02*
X172213309Y-122542721I53033J53033D01*
G01*
X172319375Y-122436655D01*
G75*
G02*
X172425441Y-122436655I53033J-53033D01*
G01*
X173362357Y-123373571D01*
G75*
G02*
X173362357Y-123479637I-53033J-53033D01*
G01*
X173256291Y-123585703D01*
G75*
G02*
X173150225Y-123585703I-53033J53033D01*
G01*
G37*
G36*
G01*
X173503778Y-123232149D02*
X172566862Y-122295233D01*
G75*
G02*
X172566862Y-122189167I53033J53033D01*
G01*
X172672928Y-122083101D01*
G75*
G02*
X172778994Y-122083101I53033J-53033D01*
G01*
X173715910Y-123020017D01*
G75*
G02*
X173715910Y-123126083I-53033J-53033D01*
G01*
X173609844Y-123232149D01*
G75*
G02*
X173503778Y-123232149I-53033J53033D01*
G01*
G37*
G36*
G01*
X173857332Y-122878596D02*
X172920416Y-121941680D01*
G75*
G02*
X172920416Y-121835614I53033J53033D01*
G01*
X173026482Y-121729548D01*
G75*
G02*
X173132548Y-121729548I53033J-53033D01*
G01*
X174069464Y-122666464D01*
G75*
G02*
X174069464Y-122772530I-53033J-53033D01*
G01*
X173963398Y-122878596D01*
G75*
G02*
X173857332Y-122878596I-53033J53033D01*
G01*
G37*
G36*
G01*
X174210885Y-122525042D02*
X173273969Y-121588126D01*
G75*
G02*
X173273969Y-121482060I53033J53033D01*
G01*
X173380035Y-121375994D01*
G75*
G02*
X173486101Y-121375994I53033J-53033D01*
G01*
X174423017Y-122312910D01*
G75*
G02*
X174423017Y-122418976I-53033J-53033D01*
G01*
X174316951Y-122525042D01*
G75*
G02*
X174210885Y-122525042I-53033J53033D01*
G01*
G37*
G36*
G01*
X174564438Y-122171489D02*
X173627522Y-121234573D01*
G75*
G02*
X173627522Y-121128507I53033J53033D01*
G01*
X173733588Y-121022441D01*
G75*
G02*
X173839654Y-121022441I53033J-53033D01*
G01*
X174776570Y-121959357D01*
G75*
G02*
X174776570Y-122065423I-53033J-53033D01*
G01*
X174670504Y-122171489D01*
G75*
G02*
X174564438Y-122171489I-53033J53033D01*
G01*
G37*
G36*
G01*
X173733588Y-119820359D02*
X173627522Y-119714293D01*
G75*
G02*
X173627522Y-119608227I53033J53033D01*
G01*
X174564438Y-118671311D01*
G75*
G02*
X174670504Y-118671311I53033J-53033D01*
G01*
X174776570Y-118777377D01*
G75*
G02*
X174776570Y-118883443I-53033J-53033D01*
G01*
X173839654Y-119820359D01*
G75*
G02*
X173733588Y-119820359I-53033J53033D01*
G01*
G37*
G36*
G01*
X173380035Y-119466806D02*
X173273969Y-119360740D01*
G75*
G02*
X173273969Y-119254674I53033J53033D01*
G01*
X174210885Y-118317758D01*
G75*
G02*
X174316951Y-118317758I53033J-53033D01*
G01*
X174423017Y-118423824D01*
G75*
G02*
X174423017Y-118529890I-53033J-53033D01*
G01*
X173486101Y-119466806D01*
G75*
G02*
X173380035Y-119466806I-53033J53033D01*
G01*
G37*
G36*
G01*
X173026482Y-119113252D02*
X172920416Y-119007186D01*
G75*
G02*
X172920416Y-118901120I53033J53033D01*
G01*
X173857332Y-117964204D01*
G75*
G02*
X173963398Y-117964204I53033J-53033D01*
G01*
X174069464Y-118070270D01*
G75*
G02*
X174069464Y-118176336I-53033J-53033D01*
G01*
X173132548Y-119113252D01*
G75*
G02*
X173026482Y-119113252I-53033J53033D01*
G01*
G37*
G36*
G01*
X172672928Y-118759699D02*
X172566862Y-118653633D01*
G75*
G02*
X172566862Y-118547567I53033J53033D01*
G01*
X173503778Y-117610651D01*
G75*
G02*
X173609844Y-117610651I53033J-53033D01*
G01*
X173715910Y-117716717D01*
G75*
G02*
X173715910Y-117822783I-53033J-53033D01*
G01*
X172778994Y-118759699D01*
G75*
G02*
X172672928Y-118759699I-53033J53033D01*
G01*
G37*
G36*
G01*
X172319375Y-118406145D02*
X172213309Y-118300079D01*
G75*
G02*
X172213309Y-118194013I53033J53033D01*
G01*
X173150225Y-117257097D01*
G75*
G02*
X173256291Y-117257097I53033J-53033D01*
G01*
X173362357Y-117363163D01*
G75*
G02*
X173362357Y-117469229I-53033J-53033D01*
G01*
X172425441Y-118406145D01*
G75*
G02*
X172319375Y-118406145I-53033J53033D01*
G01*
G37*
G36*
G01*
X171965821Y-118052592D02*
X171859755Y-117946526D01*
G75*
G02*
X171859755Y-117840460I53033J53033D01*
G01*
X172796671Y-116903544D01*
G75*
G02*
X172902737Y-116903544I53033J-53033D01*
G01*
X173008803Y-117009610D01*
G75*
G02*
X173008803Y-117115676I-53033J-53033D01*
G01*
X172071887Y-118052592D01*
G75*
G02*
X171965821Y-118052592I-53033J53033D01*
G01*
G37*
G36*
G01*
X171612268Y-117699039D02*
X171506202Y-117592973D01*
G75*
G02*
X171506202Y-117486907I53033J53033D01*
G01*
X172443118Y-116549991D01*
G75*
G02*
X172549184Y-116549991I53033J-53033D01*
G01*
X172655250Y-116656057D01*
G75*
G02*
X172655250Y-116762123I-53033J-53033D01*
G01*
X171718334Y-117699039D01*
G75*
G02*
X171612268Y-117699039I-53033J53033D01*
G01*
G37*
G36*
G01*
X171258715Y-117345485D02*
X171152649Y-117239419D01*
G75*
G02*
X171152649Y-117133353I53033J53033D01*
G01*
X172089565Y-116196437D01*
G75*
G02*
X172195631Y-116196437I53033J-53033D01*
G01*
X172301697Y-116302503D01*
G75*
G02*
X172301697Y-116408569I-53033J-53033D01*
G01*
X171364781Y-117345485D01*
G75*
G02*
X171258715Y-117345485I-53033J53033D01*
G01*
G37*
G36*
G01*
X170905161Y-116991932D02*
X170799095Y-116885866D01*
G75*
G02*
X170799095Y-116779800I53033J53033D01*
G01*
X171736011Y-115842884D01*
G75*
G02*
X171842077Y-115842884I53033J-53033D01*
G01*
X171948143Y-115948950D01*
G75*
G02*
X171948143Y-116055016I-53033J-53033D01*
G01*
X171011227Y-116991932D01*
G75*
G02*
X170905161Y-116991932I-53033J53033D01*
G01*
G37*
G36*
G01*
X170551608Y-116638378D02*
X170445542Y-116532312D01*
G75*
G02*
X170445542Y-116426246I53033J53033D01*
G01*
X171382458Y-115489330D01*
G75*
G02*
X171488524Y-115489330I53033J-53033D01*
G01*
X171594590Y-115595396D01*
G75*
G02*
X171594590Y-115701462I-53033J-53033D01*
G01*
X170657674Y-116638378D01*
G75*
G02*
X170551608Y-116638378I-53033J53033D01*
G01*
G37*
G36*
G01*
X170198054Y-116284825D02*
X170091988Y-116178759D01*
G75*
G02*
X170091988Y-116072693I53033J53033D01*
G01*
X171028904Y-115135777D01*
G75*
G02*
X171134970Y-115135777I53033J-53033D01*
G01*
X171241036Y-115241843D01*
G75*
G02*
X171241036Y-115347909I-53033J-53033D01*
G01*
X170304120Y-116284825D01*
G75*
G02*
X170198054Y-116284825I-53033J53033D01*
G01*
G37*
G36*
G01*
X169844501Y-115931272D02*
X169738435Y-115825206D01*
G75*
G02*
X169738435Y-115719140I53033J53033D01*
G01*
X170675351Y-114782224D01*
G75*
G02*
X170781417Y-114782224I53033J-53033D01*
G01*
X170887483Y-114888290D01*
G75*
G02*
X170887483Y-114994356I-53033J-53033D01*
G01*
X169950567Y-115931272D01*
G75*
G02*
X169844501Y-115931272I-53033J53033D01*
G01*
G37*
G36*
G01*
X169490948Y-115577718D02*
X169384882Y-115471652D01*
G75*
G02*
X169384882Y-115365586I53033J53033D01*
G01*
X170321798Y-114428670D01*
G75*
G02*
X170427864Y-114428670I53033J-53033D01*
G01*
X170533930Y-114534736D01*
G75*
G02*
X170533930Y-114640802I-53033J-53033D01*
G01*
X169597014Y-115577718D01*
G75*
G02*
X169490948Y-115577718I-53033J53033D01*
G01*
G37*
G36*
G01*
X169137394Y-115224165D02*
X169031328Y-115118099D01*
G75*
G02*
X169031328Y-115012033I53033J53033D01*
G01*
X169968244Y-114075117D01*
G75*
G02*
X170074310Y-114075117I53033J-53033D01*
G01*
X170180376Y-114181183D01*
G75*
G02*
X170180376Y-114287249I-53033J-53033D01*
G01*
X169243460Y-115224165D01*
G75*
G02*
X169137394Y-115224165I-53033J53033D01*
G01*
G37*
G36*
G01*
X168783841Y-114870612D02*
X168677775Y-114764546D01*
G75*
G02*
X168677775Y-114658480I53033J53033D01*
G01*
X169614691Y-113721564D01*
G75*
G02*
X169720757Y-113721564I53033J-53033D01*
G01*
X169826823Y-113827630D01*
G75*
G02*
X169826823Y-113933696I-53033J-53033D01*
G01*
X168889907Y-114870612D01*
G75*
G02*
X168783841Y-114870612I-53033J53033D01*
G01*
G37*
G36*
G01*
X168430288Y-114517058D02*
X168324222Y-114410992D01*
G75*
G02*
X168324222Y-114304926I53033J53033D01*
G01*
X169261138Y-113368010D01*
G75*
G02*
X169367204Y-113368010I53033J-53033D01*
G01*
X169473270Y-113474076D01*
G75*
G02*
X169473270Y-113580142I-53033J-53033D01*
G01*
X168536354Y-114517058D01*
G75*
G02*
X168430288Y-114517058I-53033J53033D01*
G01*
G37*
G36*
G01*
X168076734Y-114163505D02*
X167970668Y-114057439D01*
G75*
G02*
X167970668Y-113951373I53033J53033D01*
G01*
X168907584Y-113014457D01*
G75*
G02*
X169013650Y-113014457I53033J-53033D01*
G01*
X169119716Y-113120523D01*
G75*
G02*
X169119716Y-113226589I-53033J-53033D01*
G01*
X168182800Y-114163505D01*
G75*
G02*
X168076734Y-114163505I-53033J53033D01*
G01*
G37*
G36*
G01*
X167723181Y-113809951D02*
X167617115Y-113703885D01*
G75*
G02*
X167617115Y-113597819I53033J53033D01*
G01*
X168554031Y-112660903D01*
G75*
G02*
X168660097Y-112660903I53033J-53033D01*
G01*
X168766163Y-112766969D01*
G75*
G02*
X168766163Y-112873035I-53033J-53033D01*
G01*
X167829247Y-113809951D01*
G75*
G02*
X167723181Y-113809951I-53033J53033D01*
G01*
G37*
G36*
G01*
X167369627Y-113456398D02*
X167263561Y-113350332D01*
G75*
G02*
X167263561Y-113244266I53033J53033D01*
G01*
X168200477Y-112307350D01*
G75*
G02*
X168306543Y-112307350I53033J-53033D01*
G01*
X168412609Y-112413416D01*
G75*
G02*
X168412609Y-112519482I-53033J-53033D01*
G01*
X167475693Y-113456398D01*
G75*
G02*
X167369627Y-113456398I-53033J53033D01*
G01*
G37*
G36*
G01*
X167016074Y-113102845D02*
X166910008Y-112996779D01*
G75*
G02*
X166910008Y-112890713I53033J53033D01*
G01*
X167846924Y-111953797D01*
G75*
G02*
X167952990Y-111953797I53033J-53033D01*
G01*
X168059056Y-112059863D01*
G75*
G02*
X168059056Y-112165929I-53033J-53033D01*
G01*
X167122140Y-113102845D01*
G75*
G02*
X167016074Y-113102845I-53033J53033D01*
G01*
G37*
G36*
G01*
X166662521Y-112749291D02*
X166556455Y-112643225D01*
G75*
G02*
X166556455Y-112537159I53033J53033D01*
G01*
X167493371Y-111600243D01*
G75*
G02*
X167599437Y-111600243I53033J-53033D01*
G01*
X167705503Y-111706309D01*
G75*
G02*
X167705503Y-111812375I-53033J-53033D01*
G01*
X166768587Y-112749291D01*
G75*
G02*
X166662521Y-112749291I-53033J53033D01*
G01*
G37*
G36*
G01*
X166308967Y-112395738D02*
X166202901Y-112289672D01*
G75*
G02*
X166202901Y-112183606I53033J53033D01*
G01*
X167139817Y-111246690D01*
G75*
G02*
X167245883Y-111246690I53033J-53033D01*
G01*
X167351949Y-111352756D01*
G75*
G02*
X167351949Y-111458822I-53033J-53033D01*
G01*
X166415033Y-112395738D01*
G75*
G02*
X166308967Y-112395738I-53033J53033D01*
G01*
G37*
G36*
G01*
X165955414Y-112042184D02*
X165849348Y-111936118D01*
G75*
G02*
X165849348Y-111830052I53033J53033D01*
G01*
X166786264Y-110893136D01*
G75*
G02*
X166892330Y-110893136I53033J-53033D01*
G01*
X166998396Y-110999202D01*
G75*
G02*
X166998396Y-111105268I-53033J-53033D01*
G01*
X166061480Y-112042184D01*
G75*
G02*
X165955414Y-112042184I-53033J53033D01*
G01*
G37*
G36*
G01*
X165601860Y-111688631D02*
X165495794Y-111582565D01*
G75*
G02*
X165495794Y-111476499I53033J53033D01*
G01*
X166432710Y-110539583D01*
G75*
G02*
X166538776Y-110539583I53033J-53033D01*
G01*
X166644842Y-110645649D01*
G75*
G02*
X166644842Y-110751715I-53033J-53033D01*
G01*
X165707926Y-111688631D01*
G75*
G02*
X165601860Y-111688631I-53033J53033D01*
G01*
G37*
G36*
G01*
X165248307Y-111335078D02*
X165142241Y-111229012D01*
G75*
G02*
X165142241Y-111122946I53033J53033D01*
G01*
X166079157Y-110186030D01*
G75*
G02*
X166185223Y-110186030I53033J-53033D01*
G01*
X166291289Y-110292096D01*
G75*
G02*
X166291289Y-110398162I-53033J-53033D01*
G01*
X165354373Y-111335078D01*
G75*
G02*
X165248307Y-111335078I-53033J53033D01*
G01*
G37*
G36*
G01*
X163728027Y-111335078D02*
X162791111Y-110398162D01*
G75*
G02*
X162791111Y-110292096I53033J53033D01*
G01*
X162897177Y-110186030D01*
G75*
G02*
X163003243Y-110186030I53033J-53033D01*
G01*
X163940159Y-111122946D01*
G75*
G02*
X163940159Y-111229012I-53033J-53033D01*
G01*
X163834093Y-111335078D01*
G75*
G02*
X163728027Y-111335078I-53033J53033D01*
G01*
G37*
G36*
G01*
X163374474Y-111688631D02*
X162437558Y-110751715D01*
G75*
G02*
X162437558Y-110645649I53033J53033D01*
G01*
X162543624Y-110539583D01*
G75*
G02*
X162649690Y-110539583I53033J-53033D01*
G01*
X163586606Y-111476499D01*
G75*
G02*
X163586606Y-111582565I-53033J-53033D01*
G01*
X163480540Y-111688631D01*
G75*
G02*
X163374474Y-111688631I-53033J53033D01*
G01*
G37*
G36*
G01*
X163020920Y-112042184D02*
X162084004Y-111105268D01*
G75*
G02*
X162084004Y-110999202I53033J53033D01*
G01*
X162190070Y-110893136D01*
G75*
G02*
X162296136Y-110893136I53033J-53033D01*
G01*
X163233052Y-111830052D01*
G75*
G02*
X163233052Y-111936118I-53033J-53033D01*
G01*
X163126986Y-112042184D01*
G75*
G02*
X163020920Y-112042184I-53033J53033D01*
G01*
G37*
G36*
G01*
X162667367Y-112395738D02*
X161730451Y-111458822D01*
G75*
G02*
X161730451Y-111352756I53033J53033D01*
G01*
X161836517Y-111246690D01*
G75*
G02*
X161942583Y-111246690I53033J-53033D01*
G01*
X162879499Y-112183606D01*
G75*
G02*
X162879499Y-112289672I-53033J-53033D01*
G01*
X162773433Y-112395738D01*
G75*
G02*
X162667367Y-112395738I-53033J53033D01*
G01*
G37*
G36*
G01*
X162313813Y-112749291D02*
X161376897Y-111812375D01*
G75*
G02*
X161376897Y-111706309I53033J53033D01*
G01*
X161482963Y-111600243D01*
G75*
G02*
X161589029Y-111600243I53033J-53033D01*
G01*
X162525945Y-112537159D01*
G75*
G02*
X162525945Y-112643225I-53033J-53033D01*
G01*
X162419879Y-112749291D01*
G75*
G02*
X162313813Y-112749291I-53033J53033D01*
G01*
G37*
G36*
G01*
X161960260Y-113102845D02*
X161023344Y-112165929D01*
G75*
G02*
X161023344Y-112059863I53033J53033D01*
G01*
X161129410Y-111953797D01*
G75*
G02*
X161235476Y-111953797I53033J-53033D01*
G01*
X162172392Y-112890713D01*
G75*
G02*
X162172392Y-112996779I-53033J-53033D01*
G01*
X162066326Y-113102845D01*
G75*
G02*
X161960260Y-113102845I-53033J53033D01*
G01*
G37*
G36*
G01*
X161606707Y-113456398D02*
X160669791Y-112519482D01*
G75*
G02*
X160669791Y-112413416I53033J53033D01*
G01*
X160775857Y-112307350D01*
G75*
G02*
X160881923Y-112307350I53033J-53033D01*
G01*
X161818839Y-113244266D01*
G75*
G02*
X161818839Y-113350332I-53033J-53033D01*
G01*
X161712773Y-113456398D01*
G75*
G02*
X161606707Y-113456398I-53033J53033D01*
G01*
G37*
G36*
G01*
X161253153Y-113809951D02*
X160316237Y-112873035D01*
G75*
G02*
X160316237Y-112766969I53033J53033D01*
G01*
X160422303Y-112660903D01*
G75*
G02*
X160528369Y-112660903I53033J-53033D01*
G01*
X161465285Y-113597819D01*
G75*
G02*
X161465285Y-113703885I-53033J-53033D01*
G01*
X161359219Y-113809951D01*
G75*
G02*
X161253153Y-113809951I-53033J53033D01*
G01*
G37*
G36*
G01*
X160899600Y-114163505D02*
X159962684Y-113226589D01*
G75*
G02*
X159962684Y-113120523I53033J53033D01*
G01*
X160068750Y-113014457D01*
G75*
G02*
X160174816Y-113014457I53033J-53033D01*
G01*
X161111732Y-113951373D01*
G75*
G02*
X161111732Y-114057439I-53033J-53033D01*
G01*
X161005666Y-114163505D01*
G75*
G02*
X160899600Y-114163505I-53033J53033D01*
G01*
G37*
G36*
G01*
X160546046Y-114517058D02*
X159609130Y-113580142D01*
G75*
G02*
X159609130Y-113474076I53033J53033D01*
G01*
X159715196Y-113368010D01*
G75*
G02*
X159821262Y-113368010I53033J-53033D01*
G01*
X160758178Y-114304926D01*
G75*
G02*
X160758178Y-114410992I-53033J-53033D01*
G01*
X160652112Y-114517058D01*
G75*
G02*
X160546046Y-114517058I-53033J53033D01*
G01*
G37*
G36*
G01*
X160192493Y-114870612D02*
X159255577Y-113933696D01*
G75*
G02*
X159255577Y-113827630I53033J53033D01*
G01*
X159361643Y-113721564D01*
G75*
G02*
X159467709Y-113721564I53033J-53033D01*
G01*
X160404625Y-114658480D01*
G75*
G02*
X160404625Y-114764546I-53033J-53033D01*
G01*
X160298559Y-114870612D01*
G75*
G02*
X160192493Y-114870612I-53033J53033D01*
G01*
G37*
G36*
G01*
X159838940Y-115224165D02*
X158902024Y-114287249D01*
G75*
G02*
X158902024Y-114181183I53033J53033D01*
G01*
X159008090Y-114075117D01*
G75*
G02*
X159114156Y-114075117I53033J-53033D01*
G01*
X160051072Y-115012033D01*
G75*
G02*
X160051072Y-115118099I-53033J-53033D01*
G01*
X159945006Y-115224165D01*
G75*
G02*
X159838940Y-115224165I-53033J53033D01*
G01*
G37*
G36*
G01*
X159485386Y-115577718D02*
X158548470Y-114640802D01*
G75*
G02*
X158548470Y-114534736I53033J53033D01*
G01*
X158654536Y-114428670D01*
G75*
G02*
X158760602Y-114428670I53033J-53033D01*
G01*
X159697518Y-115365586D01*
G75*
G02*
X159697518Y-115471652I-53033J-53033D01*
G01*
X159591452Y-115577718D01*
G75*
G02*
X159485386Y-115577718I-53033J53033D01*
G01*
G37*
G36*
G01*
X159131833Y-115931272D02*
X158194917Y-114994356D01*
G75*
G02*
X158194917Y-114888290I53033J53033D01*
G01*
X158300983Y-114782224D01*
G75*
G02*
X158407049Y-114782224I53033J-53033D01*
G01*
X159343965Y-115719140D01*
G75*
G02*
X159343965Y-115825206I-53033J-53033D01*
G01*
X159237899Y-115931272D01*
G75*
G02*
X159131833Y-115931272I-53033J53033D01*
G01*
G37*
G36*
G01*
X158778280Y-116284825D02*
X157841364Y-115347909D01*
G75*
G02*
X157841364Y-115241843I53033J53033D01*
G01*
X157947430Y-115135777D01*
G75*
G02*
X158053496Y-115135777I53033J-53033D01*
G01*
X158990412Y-116072693D01*
G75*
G02*
X158990412Y-116178759I-53033J-53033D01*
G01*
X158884346Y-116284825D01*
G75*
G02*
X158778280Y-116284825I-53033J53033D01*
G01*
G37*
G36*
G01*
X158424726Y-116638378D02*
X157487810Y-115701462D01*
G75*
G02*
X157487810Y-115595396I53033J53033D01*
G01*
X157593876Y-115489330D01*
G75*
G02*
X157699942Y-115489330I53033J-53033D01*
G01*
X158636858Y-116426246D01*
G75*
G02*
X158636858Y-116532312I-53033J-53033D01*
G01*
X158530792Y-116638378D01*
G75*
G02*
X158424726Y-116638378I-53033J53033D01*
G01*
G37*
G36*
G01*
X158071173Y-116991932D02*
X157134257Y-116055016D01*
G75*
G02*
X157134257Y-115948950I53033J53033D01*
G01*
X157240323Y-115842884D01*
G75*
G02*
X157346389Y-115842884I53033J-53033D01*
G01*
X158283305Y-116779800D01*
G75*
G02*
X158283305Y-116885866I-53033J-53033D01*
G01*
X158177239Y-116991932D01*
G75*
G02*
X158071173Y-116991932I-53033J53033D01*
G01*
G37*
G36*
G01*
X157717619Y-117345485D02*
X156780703Y-116408569D01*
G75*
G02*
X156780703Y-116302503I53033J53033D01*
G01*
X156886769Y-116196437D01*
G75*
G02*
X156992835Y-116196437I53033J-53033D01*
G01*
X157929751Y-117133353D01*
G75*
G02*
X157929751Y-117239419I-53033J-53033D01*
G01*
X157823685Y-117345485D01*
G75*
G02*
X157717619Y-117345485I-53033J53033D01*
G01*
G37*
G36*
G01*
X157364066Y-117699039D02*
X156427150Y-116762123D01*
G75*
G02*
X156427150Y-116656057I53033J53033D01*
G01*
X156533216Y-116549991D01*
G75*
G02*
X156639282Y-116549991I53033J-53033D01*
G01*
X157576198Y-117486907D01*
G75*
G02*
X157576198Y-117592973I-53033J-53033D01*
G01*
X157470132Y-117699039D01*
G75*
G02*
X157364066Y-117699039I-53033J53033D01*
G01*
G37*
G36*
G01*
X157010513Y-118052592D02*
X156073597Y-117115676D01*
G75*
G02*
X156073597Y-117009610I53033J53033D01*
G01*
X156179663Y-116903544D01*
G75*
G02*
X156285729Y-116903544I53033J-53033D01*
G01*
X157222645Y-117840460D01*
G75*
G02*
X157222645Y-117946526I-53033J-53033D01*
G01*
X157116579Y-118052592D01*
G75*
G02*
X157010513Y-118052592I-53033J53033D01*
G01*
G37*
G36*
G01*
X156656959Y-118406145D02*
X155720043Y-117469229D01*
G75*
G02*
X155720043Y-117363163I53033J53033D01*
G01*
X155826109Y-117257097D01*
G75*
G02*
X155932175Y-117257097I53033J-53033D01*
G01*
X156869091Y-118194013D01*
G75*
G02*
X156869091Y-118300079I-53033J-53033D01*
G01*
X156763025Y-118406145D01*
G75*
G02*
X156656959Y-118406145I-53033J53033D01*
G01*
G37*
G36*
G01*
X156303406Y-118759699D02*
X155366490Y-117822783D01*
G75*
G02*
X155366490Y-117716717I53033J53033D01*
G01*
X155472556Y-117610651D01*
G75*
G02*
X155578622Y-117610651I53033J-53033D01*
G01*
X156515538Y-118547567D01*
G75*
G02*
X156515538Y-118653633I-53033J-53033D01*
G01*
X156409472Y-118759699D01*
G75*
G02*
X156303406Y-118759699I-53033J53033D01*
G01*
G37*
G36*
G01*
X155949852Y-119113252D02*
X155012936Y-118176336D01*
G75*
G02*
X155012936Y-118070270I53033J53033D01*
G01*
X155119002Y-117964204D01*
G75*
G02*
X155225068Y-117964204I53033J-53033D01*
G01*
X156161984Y-118901120D01*
G75*
G02*
X156161984Y-119007186I-53033J-53033D01*
G01*
X156055918Y-119113252D01*
G75*
G02*
X155949852Y-119113252I-53033J53033D01*
G01*
G37*
G36*
G01*
X155596299Y-119466806D02*
X154659383Y-118529890D01*
G75*
G02*
X154659383Y-118423824I53033J53033D01*
G01*
X154765449Y-118317758D01*
G75*
G02*
X154871515Y-118317758I53033J-53033D01*
G01*
X155808431Y-119254674D01*
G75*
G02*
X155808431Y-119360740I-53033J-53033D01*
G01*
X155702365Y-119466806D01*
G75*
G02*
X155596299Y-119466806I-53033J53033D01*
G01*
G37*
G36*
G01*
X155242746Y-119820359D02*
X154305830Y-118883443D01*
G75*
G02*
X154305830Y-118777377I53033J53033D01*
G01*
X154411896Y-118671311D01*
G75*
G02*
X154517962Y-118671311I53033J-53033D01*
G01*
X155454878Y-119608227D01*
G75*
G02*
X155454878Y-119714293I-53033J-53033D01*
G01*
X155348812Y-119820359D01*
G75*
G02*
X155242746Y-119820359I-53033J53033D01*
G01*
G37*
G36*
G01*
X140279900Y-148105600D02*
X140279900Y-148605600D01*
G75*
G02*
X140054900Y-148830600I-225000J0D01*
G01*
X139604900Y-148830600D01*
G75*
G02*
X139379900Y-148605600I0J225000D01*
G01*
X139379900Y-148105600D01*
G75*
G02*
X139604900Y-147880600I225000J0D01*
G01*
X140054900Y-147880600D01*
G75*
G02*
X140279900Y-148105600I0J-225000D01*
G01*
G37*
G36*
G01*
X138729900Y-148105600D02*
X138729900Y-148605600D01*
G75*
G02*
X138504900Y-148830600I-225000J0D01*
G01*
X138054900Y-148830600D01*
G75*
G02*
X137829900Y-148605600I0J225000D01*
G01*
X137829900Y-148105600D01*
G75*
G02*
X138054900Y-147880600I225000J0D01*
G01*
X138504900Y-147880600D01*
G75*
G02*
X138729900Y-148105600I0J-225000D01*
G01*
G37*
G36*
G01*
X154874108Y-125768208D02*
X154874108Y-126268208D01*
G75*
G02*
X154649108Y-126493208I-225000J0D01*
G01*
X154199108Y-126493208D01*
G75*
G02*
X153974108Y-126268208I0J225000D01*
G01*
X153974108Y-125768208D01*
G75*
G02*
X154199108Y-125543208I225000J0D01*
G01*
X154649108Y-125543208D01*
G75*
G02*
X154874108Y-125768208I0J-225000D01*
G01*
G37*
G36*
G01*
X153324108Y-125768208D02*
X153324108Y-126268208D01*
G75*
G02*
X153099108Y-126493208I-225000J0D01*
G01*
X152649108Y-126493208D01*
G75*
G02*
X152424108Y-126268208I0J225000D01*
G01*
X152424108Y-125768208D01*
G75*
G02*
X152649108Y-125543208I225000J0D01*
G01*
X153099108Y-125543208D01*
G75*
G02*
X153324108Y-125768208I0J-225000D01*
G01*
G37*
D19*
X154141200Y-147609000D03*
X154941200Y-147609000D03*
X155741200Y-147609000D03*
X156541200Y-147609000D03*
X157341200Y-147609000D03*
X158141200Y-147609000D03*
X158941200Y-147609000D03*
X159741200Y-147609000D03*
X160541200Y-147609000D03*
X161341200Y-147609000D03*
X162141200Y-147609000D03*
X162941200Y-147609000D03*
X163741200Y-147609000D03*
X164541200Y-147609000D03*
X165341200Y-147609000D03*
X166141200Y-147609000D03*
X166941200Y-147609000D03*
X167741200Y-147609000D03*
X168541200Y-147609000D03*
X169341200Y-147609000D03*
X170141200Y-147609000D03*
X170941200Y-147609000D03*
X171741200Y-147609000D03*
X172541200Y-147609000D03*
X173341200Y-147609000D03*
X174141200Y-147609000D03*
X174941200Y-147609000D03*
X174941200Y-136109000D03*
X174141200Y-136109000D03*
X173341200Y-136109000D03*
X172541200Y-136109000D03*
X171741200Y-136109000D03*
X170941200Y-136109000D03*
X170141200Y-136109000D03*
X169341200Y-136109000D03*
X168541200Y-136109000D03*
X167741200Y-136109000D03*
X166941200Y-136109000D03*
X166141200Y-136109000D03*
X165341200Y-136109000D03*
X164541200Y-136109000D03*
X163741200Y-136109000D03*
X162941200Y-136109000D03*
X162141200Y-136109000D03*
X161341200Y-136109000D03*
X160541200Y-136109000D03*
X159741200Y-136109000D03*
X158941200Y-136109000D03*
X158141200Y-136109000D03*
X157341200Y-136109000D03*
X156541200Y-136109000D03*
X155741200Y-136109000D03*
X154941200Y-136109000D03*
X154141200Y-136109000D03*
G36*
G01*
X155355900Y-149663600D02*
X155355900Y-149163600D01*
G75*
G02*
X155580900Y-148938600I225000J0D01*
G01*
X156030900Y-148938600D01*
G75*
G02*
X156255900Y-149163600I0J-225000D01*
G01*
X156255900Y-149663600D01*
G75*
G02*
X156030900Y-149888600I-225000J0D01*
G01*
X155580900Y-149888600D01*
G75*
G02*
X155355900Y-149663600I0J225000D01*
G01*
G37*
G36*
G01*
X156905900Y-149663600D02*
X156905900Y-149163600D01*
G75*
G02*
X157130900Y-148938600I225000J0D01*
G01*
X157580900Y-148938600D01*
G75*
G02*
X157805900Y-149163600I0J-225000D01*
G01*
X157805900Y-149663600D01*
G75*
G02*
X157580900Y-149888600I-225000J0D01*
G01*
X157130900Y-149888600D01*
G75*
G02*
X156905900Y-149663600I0J225000D01*
G01*
G37*
G36*
G01*
X173036471Y-116251583D02*
X172682917Y-115898029D01*
G75*
G02*
X172682917Y-115579831I159099J159099D01*
G01*
X173001115Y-115261633D01*
G75*
G02*
X173319313Y-115261633I159099J-159099D01*
G01*
X173672867Y-115615187D01*
G75*
G02*
X173672867Y-115933385I-159099J-159099D01*
G01*
X173354669Y-116251583D01*
G75*
G02*
X173036471Y-116251583I-159099J159099D01*
G01*
G37*
G36*
G01*
X174132487Y-115155567D02*
X173778933Y-114802013D01*
G75*
G02*
X173778933Y-114483815I159099J159099D01*
G01*
X174097131Y-114165617D01*
G75*
G02*
X174415329Y-114165617I159099J-159099D01*
G01*
X174768883Y-114519171D01*
G75*
G02*
X174768883Y-114837369I-159099J-159099D01*
G01*
X174450685Y-115155567D01*
G75*
G02*
X174132487Y-115155567I-159099J159099D01*
G01*
G37*
G36*
G01*
X174828417Y-119664171D02*
X175181971Y-119310617D01*
G75*
G02*
X175500169Y-119310617I159099J-159099D01*
G01*
X175818367Y-119628815D01*
G75*
G02*
X175818367Y-119947013I-159099J-159099D01*
G01*
X175464813Y-120300567D01*
G75*
G02*
X175146615Y-120300567I-159099J159099D01*
G01*
X174828417Y-119982369D01*
G75*
G02*
X174828417Y-119664171I159099J159099D01*
G01*
G37*
G36*
G01*
X175924433Y-120760187D02*
X176277987Y-120406633D01*
G75*
G02*
X176596185Y-120406633I159099J-159099D01*
G01*
X176914383Y-120724831D01*
G75*
G02*
X176914383Y-121043029I-159099J-159099D01*
G01*
X176560829Y-121396583D01*
G75*
G02*
X176242631Y-121396583I-159099J159099D01*
G01*
X175924433Y-121078385D01*
G75*
G02*
X175924433Y-120760187I159099J159099D01*
G01*
G37*
G36*
G01*
X142528900Y-112258200D02*
X142528900Y-111758200D01*
G75*
G02*
X142753900Y-111533200I225000J0D01*
G01*
X143203900Y-111533200D01*
G75*
G02*
X143428900Y-111758200I0J-225000D01*
G01*
X143428900Y-112258200D01*
G75*
G02*
X143203900Y-112483200I-225000J0D01*
G01*
X142753900Y-112483200D01*
G75*
G02*
X142528900Y-112258200I0J225000D01*
G01*
G37*
G36*
G01*
X144078900Y-112258200D02*
X144078900Y-111758200D01*
G75*
G02*
X144303900Y-111533200I225000J0D01*
G01*
X144753900Y-111533200D01*
G75*
G02*
X144978900Y-111758200I0J-225000D01*
G01*
X144978900Y-112258200D01*
G75*
G02*
X144753900Y-112483200I-225000J0D01*
G01*
X144303900Y-112483200D01*
G75*
G02*
X144078900Y-112258200I0J225000D01*
G01*
G37*
G36*
G01*
X158593300Y-134053600D02*
X158593300Y-134553600D01*
G75*
G02*
X158368300Y-134778600I-225000J0D01*
G01*
X157918300Y-134778600D01*
G75*
G02*
X157693300Y-134553600I0J225000D01*
G01*
X157693300Y-134053600D01*
G75*
G02*
X157918300Y-133828600I225000J0D01*
G01*
X158368300Y-133828600D01*
G75*
G02*
X158593300Y-134053600I0J-225000D01*
G01*
G37*
G36*
G01*
X157043300Y-134053600D02*
X157043300Y-134553600D01*
G75*
G02*
X156818300Y-134778600I-225000J0D01*
G01*
X156368300Y-134778600D01*
G75*
G02*
X156143300Y-134553600I0J225000D01*
G01*
X156143300Y-134053600D01*
G75*
G02*
X156368300Y-133828600I225000J0D01*
G01*
X156818300Y-133828600D01*
G75*
G02*
X157043300Y-134053600I0J-225000D01*
G01*
G37*
G36*
G01*
X175382700Y-149163600D02*
X175382700Y-149663600D01*
G75*
G02*
X175157700Y-149888600I-225000J0D01*
G01*
X174707700Y-149888600D01*
G75*
G02*
X174482700Y-149663600I0J225000D01*
G01*
X174482700Y-149163600D01*
G75*
G02*
X174707700Y-148938600I225000J0D01*
G01*
X175157700Y-148938600D01*
G75*
G02*
X175382700Y-149163600I0J-225000D01*
G01*
G37*
G36*
G01*
X173832700Y-149163600D02*
X173832700Y-149663600D01*
G75*
G02*
X173607700Y-149888600I-225000J0D01*
G01*
X173157700Y-149888600D01*
G75*
G02*
X172932700Y-149663600I0J225000D01*
G01*
X172932700Y-149163600D01*
G75*
G02*
X173157700Y-148938600I225000J0D01*
G01*
X173607700Y-148938600D01*
G75*
G02*
X173832700Y-149163600I0J-225000D01*
G01*
G37*
D20*
X179050800Y-133186600D03*
D21*
X178250800Y-133186600D03*
X177450800Y-133186600D03*
D20*
X176650800Y-133186600D03*
X176650800Y-134986600D03*
D21*
X177450800Y-134986600D03*
X178250800Y-134986600D03*
D20*
X179050800Y-134986600D03*
D22*
X121744000Y-106848800D03*
X121744000Y-107348800D03*
X121744000Y-107848800D03*
X121744000Y-108348800D03*
X121744000Y-108848800D03*
X121744000Y-109348800D03*
X121744000Y-109848800D03*
X121744000Y-110348800D03*
X121744000Y-110848800D03*
X121744000Y-111348800D03*
X121744000Y-111848800D03*
X121744000Y-112348800D03*
X121744000Y-112848800D03*
X121744000Y-113348800D03*
X121744000Y-113848800D03*
X121744000Y-114348800D03*
X121744000Y-114848800D03*
X121744000Y-115348800D03*
X121744000Y-115848800D03*
X121744000Y-116348800D03*
X121744000Y-116848800D03*
X121744000Y-117348800D03*
X121744000Y-117848800D03*
X121744000Y-118348800D03*
X141244000Y-118348800D03*
X141244000Y-117848800D03*
X141244000Y-117348800D03*
X141244000Y-116848800D03*
X141244000Y-116348800D03*
X141244000Y-115848800D03*
X141244000Y-115348800D03*
X141244000Y-114848800D03*
X141244000Y-114348800D03*
X141244000Y-113848800D03*
X141244000Y-113348800D03*
X141244000Y-112848800D03*
X141244000Y-112348800D03*
X141244000Y-111848800D03*
X141244000Y-111348800D03*
X141244000Y-110848800D03*
X141244000Y-110348800D03*
X141244000Y-109848800D03*
X141244000Y-109348800D03*
X141244000Y-108848800D03*
X141244000Y-108348800D03*
X141244000Y-107848800D03*
X141244000Y-107348800D03*
X141244000Y-106848800D03*
G36*
G01*
X138694000Y-129455800D02*
X138694000Y-129605800D01*
G75*
G02*
X138619000Y-129680800I-75000J0D01*
G01*
X137219000Y-129680800D01*
G75*
G02*
X137144000Y-129605800I0J75000D01*
G01*
X137144000Y-129455800D01*
G75*
G02*
X137219000Y-129380800I75000J0D01*
G01*
X138619000Y-129380800D01*
G75*
G02*
X138694000Y-129455800I0J-75000D01*
G01*
G37*
G36*
G01*
X138694000Y-128955800D02*
X138694000Y-129105800D01*
G75*
G02*
X138619000Y-129180800I-75000J0D01*
G01*
X137219000Y-129180800D01*
G75*
G02*
X137144000Y-129105800I0J75000D01*
G01*
X137144000Y-128955800D01*
G75*
G02*
X137219000Y-128880800I75000J0D01*
G01*
X138619000Y-128880800D01*
G75*
G02*
X138694000Y-128955800I0J-75000D01*
G01*
G37*
G36*
G01*
X138694000Y-128455800D02*
X138694000Y-128605800D01*
G75*
G02*
X138619000Y-128680800I-75000J0D01*
G01*
X137219000Y-128680800D01*
G75*
G02*
X137144000Y-128605800I0J75000D01*
G01*
X137144000Y-128455800D01*
G75*
G02*
X137219000Y-128380800I75000J0D01*
G01*
X138619000Y-128380800D01*
G75*
G02*
X138694000Y-128455800I0J-75000D01*
G01*
G37*
G36*
G01*
X138694000Y-127955800D02*
X138694000Y-128105800D01*
G75*
G02*
X138619000Y-128180800I-75000J0D01*
G01*
X137219000Y-128180800D01*
G75*
G02*
X137144000Y-128105800I0J75000D01*
G01*
X137144000Y-127955800D01*
G75*
G02*
X137219000Y-127880800I75000J0D01*
G01*
X138619000Y-127880800D01*
G75*
G02*
X138694000Y-127955800I0J-75000D01*
G01*
G37*
G36*
G01*
X138694000Y-127455800D02*
X138694000Y-127605800D01*
G75*
G02*
X138619000Y-127680800I-75000J0D01*
G01*
X137219000Y-127680800D01*
G75*
G02*
X137144000Y-127605800I0J75000D01*
G01*
X137144000Y-127455800D01*
G75*
G02*
X137219000Y-127380800I75000J0D01*
G01*
X138619000Y-127380800D01*
G75*
G02*
X138694000Y-127455800I0J-75000D01*
G01*
G37*
G36*
G01*
X138694000Y-126955800D02*
X138694000Y-127105800D01*
G75*
G02*
X138619000Y-127180800I-75000J0D01*
G01*
X137219000Y-127180800D01*
G75*
G02*
X137144000Y-127105800I0J75000D01*
G01*
X137144000Y-126955800D01*
G75*
G02*
X137219000Y-126880800I75000J0D01*
G01*
X138619000Y-126880800D01*
G75*
G02*
X138694000Y-126955800I0J-75000D01*
G01*
G37*
G36*
G01*
X138694000Y-126455800D02*
X138694000Y-126605800D01*
G75*
G02*
X138619000Y-126680800I-75000J0D01*
G01*
X137219000Y-126680800D01*
G75*
G02*
X137144000Y-126605800I0J75000D01*
G01*
X137144000Y-126455800D01*
G75*
G02*
X137219000Y-126380800I75000J0D01*
G01*
X138619000Y-126380800D01*
G75*
G02*
X138694000Y-126455800I0J-75000D01*
G01*
G37*
G36*
G01*
X138694000Y-125955800D02*
X138694000Y-126105800D01*
G75*
G02*
X138619000Y-126180800I-75000J0D01*
G01*
X137219000Y-126180800D01*
G75*
G02*
X137144000Y-126105800I0J75000D01*
G01*
X137144000Y-125955800D01*
G75*
G02*
X137219000Y-125880800I75000J0D01*
G01*
X138619000Y-125880800D01*
G75*
G02*
X138694000Y-125955800I0J-75000D01*
G01*
G37*
G36*
G01*
X138694000Y-125455800D02*
X138694000Y-125605800D01*
G75*
G02*
X138619000Y-125680800I-75000J0D01*
G01*
X137219000Y-125680800D01*
G75*
G02*
X137144000Y-125605800I0J75000D01*
G01*
X137144000Y-125455800D01*
G75*
G02*
X137219000Y-125380800I75000J0D01*
G01*
X138619000Y-125380800D01*
G75*
G02*
X138694000Y-125455800I0J-75000D01*
G01*
G37*
G36*
G01*
X138694000Y-124955800D02*
X138694000Y-125105800D01*
G75*
G02*
X138619000Y-125180800I-75000J0D01*
G01*
X137219000Y-125180800D01*
G75*
G02*
X137144000Y-125105800I0J75000D01*
G01*
X137144000Y-124955800D01*
G75*
G02*
X137219000Y-124880800I75000J0D01*
G01*
X138619000Y-124880800D01*
G75*
G02*
X138694000Y-124955800I0J-75000D01*
G01*
G37*
G36*
G01*
X138694000Y-124455800D02*
X138694000Y-124605800D01*
G75*
G02*
X138619000Y-124680800I-75000J0D01*
G01*
X137219000Y-124680800D01*
G75*
G02*
X137144000Y-124605800I0J75000D01*
G01*
X137144000Y-124455800D01*
G75*
G02*
X137219000Y-124380800I75000J0D01*
G01*
X138619000Y-124380800D01*
G75*
G02*
X138694000Y-124455800I0J-75000D01*
G01*
G37*
G36*
G01*
X138694000Y-123955800D02*
X138694000Y-124105800D01*
G75*
G02*
X138619000Y-124180800I-75000J0D01*
G01*
X137219000Y-124180800D01*
G75*
G02*
X137144000Y-124105800I0J75000D01*
G01*
X137144000Y-123955800D01*
G75*
G02*
X137219000Y-123880800I75000J0D01*
G01*
X138619000Y-123880800D01*
G75*
G02*
X138694000Y-123955800I0J-75000D01*
G01*
G37*
G36*
G01*
X138694000Y-123455800D02*
X138694000Y-123605800D01*
G75*
G02*
X138619000Y-123680800I-75000J0D01*
G01*
X137219000Y-123680800D01*
G75*
G02*
X137144000Y-123605800I0J75000D01*
G01*
X137144000Y-123455800D01*
G75*
G02*
X137219000Y-123380800I75000J0D01*
G01*
X138619000Y-123380800D01*
G75*
G02*
X138694000Y-123455800I0J-75000D01*
G01*
G37*
G36*
G01*
X138694000Y-122955800D02*
X138694000Y-123105800D01*
G75*
G02*
X138619000Y-123180800I-75000J0D01*
G01*
X137219000Y-123180800D01*
G75*
G02*
X137144000Y-123105800I0J75000D01*
G01*
X137144000Y-122955800D01*
G75*
G02*
X137219000Y-122880800I75000J0D01*
G01*
X138619000Y-122880800D01*
G75*
G02*
X138694000Y-122955800I0J-75000D01*
G01*
G37*
G36*
G01*
X138694000Y-122455800D02*
X138694000Y-122605800D01*
G75*
G02*
X138619000Y-122680800I-75000J0D01*
G01*
X137219000Y-122680800D01*
G75*
G02*
X137144000Y-122605800I0J75000D01*
G01*
X137144000Y-122455800D01*
G75*
G02*
X137219000Y-122380800I75000J0D01*
G01*
X138619000Y-122380800D01*
G75*
G02*
X138694000Y-122455800I0J-75000D01*
G01*
G37*
G36*
G01*
X138694000Y-121955800D02*
X138694000Y-122105800D01*
G75*
G02*
X138619000Y-122180800I-75000J0D01*
G01*
X137219000Y-122180800D01*
G75*
G02*
X137144000Y-122105800I0J75000D01*
G01*
X137144000Y-121955800D01*
G75*
G02*
X137219000Y-121880800I75000J0D01*
G01*
X138619000Y-121880800D01*
G75*
G02*
X138694000Y-121955800I0J-75000D01*
G01*
G37*
G36*
G01*
X125844000Y-121955800D02*
X125844000Y-122105800D01*
G75*
G02*
X125769000Y-122180800I-75000J0D01*
G01*
X124369000Y-122180800D01*
G75*
G02*
X124294000Y-122105800I0J75000D01*
G01*
X124294000Y-121955800D01*
G75*
G02*
X124369000Y-121880800I75000J0D01*
G01*
X125769000Y-121880800D01*
G75*
G02*
X125844000Y-121955800I0J-75000D01*
G01*
G37*
G36*
G01*
X125844000Y-122455800D02*
X125844000Y-122605800D01*
G75*
G02*
X125769000Y-122680800I-75000J0D01*
G01*
X124369000Y-122680800D01*
G75*
G02*
X124294000Y-122605800I0J75000D01*
G01*
X124294000Y-122455800D01*
G75*
G02*
X124369000Y-122380800I75000J0D01*
G01*
X125769000Y-122380800D01*
G75*
G02*
X125844000Y-122455800I0J-75000D01*
G01*
G37*
G36*
G01*
X125844000Y-122955800D02*
X125844000Y-123105800D01*
G75*
G02*
X125769000Y-123180800I-75000J0D01*
G01*
X124369000Y-123180800D01*
G75*
G02*
X124294000Y-123105800I0J75000D01*
G01*
X124294000Y-122955800D01*
G75*
G02*
X124369000Y-122880800I75000J0D01*
G01*
X125769000Y-122880800D01*
G75*
G02*
X125844000Y-122955800I0J-75000D01*
G01*
G37*
G36*
G01*
X125844000Y-123455800D02*
X125844000Y-123605800D01*
G75*
G02*
X125769000Y-123680800I-75000J0D01*
G01*
X124369000Y-123680800D01*
G75*
G02*
X124294000Y-123605800I0J75000D01*
G01*
X124294000Y-123455800D01*
G75*
G02*
X124369000Y-123380800I75000J0D01*
G01*
X125769000Y-123380800D01*
G75*
G02*
X125844000Y-123455800I0J-75000D01*
G01*
G37*
G36*
G01*
X125844000Y-123955800D02*
X125844000Y-124105800D01*
G75*
G02*
X125769000Y-124180800I-75000J0D01*
G01*
X124369000Y-124180800D01*
G75*
G02*
X124294000Y-124105800I0J75000D01*
G01*
X124294000Y-123955800D01*
G75*
G02*
X124369000Y-123880800I75000J0D01*
G01*
X125769000Y-123880800D01*
G75*
G02*
X125844000Y-123955800I0J-75000D01*
G01*
G37*
G36*
G01*
X125844000Y-124455800D02*
X125844000Y-124605800D01*
G75*
G02*
X125769000Y-124680800I-75000J0D01*
G01*
X124369000Y-124680800D01*
G75*
G02*
X124294000Y-124605800I0J75000D01*
G01*
X124294000Y-124455800D01*
G75*
G02*
X124369000Y-124380800I75000J0D01*
G01*
X125769000Y-124380800D01*
G75*
G02*
X125844000Y-124455800I0J-75000D01*
G01*
G37*
G36*
G01*
X125844000Y-124955800D02*
X125844000Y-125105800D01*
G75*
G02*
X125769000Y-125180800I-75000J0D01*
G01*
X124369000Y-125180800D01*
G75*
G02*
X124294000Y-125105800I0J75000D01*
G01*
X124294000Y-124955800D01*
G75*
G02*
X124369000Y-124880800I75000J0D01*
G01*
X125769000Y-124880800D01*
G75*
G02*
X125844000Y-124955800I0J-75000D01*
G01*
G37*
G36*
G01*
X125844000Y-125455800D02*
X125844000Y-125605800D01*
G75*
G02*
X125769000Y-125680800I-75000J0D01*
G01*
X124369000Y-125680800D01*
G75*
G02*
X124294000Y-125605800I0J75000D01*
G01*
X124294000Y-125455800D01*
G75*
G02*
X124369000Y-125380800I75000J0D01*
G01*
X125769000Y-125380800D01*
G75*
G02*
X125844000Y-125455800I0J-75000D01*
G01*
G37*
G36*
G01*
X125844000Y-125955800D02*
X125844000Y-126105800D01*
G75*
G02*
X125769000Y-126180800I-75000J0D01*
G01*
X124369000Y-126180800D01*
G75*
G02*
X124294000Y-126105800I0J75000D01*
G01*
X124294000Y-125955800D01*
G75*
G02*
X124369000Y-125880800I75000J0D01*
G01*
X125769000Y-125880800D01*
G75*
G02*
X125844000Y-125955800I0J-75000D01*
G01*
G37*
G36*
G01*
X125844000Y-126455800D02*
X125844000Y-126605800D01*
G75*
G02*
X125769000Y-126680800I-75000J0D01*
G01*
X124369000Y-126680800D01*
G75*
G02*
X124294000Y-126605800I0J75000D01*
G01*
X124294000Y-126455800D01*
G75*
G02*
X124369000Y-126380800I75000J0D01*
G01*
X125769000Y-126380800D01*
G75*
G02*
X125844000Y-126455800I0J-75000D01*
G01*
G37*
G36*
G01*
X125844000Y-126955800D02*
X125844000Y-127105800D01*
G75*
G02*
X125769000Y-127180800I-75000J0D01*
G01*
X124369000Y-127180800D01*
G75*
G02*
X124294000Y-127105800I0J75000D01*
G01*
X124294000Y-126955800D01*
G75*
G02*
X124369000Y-126880800I75000J0D01*
G01*
X125769000Y-126880800D01*
G75*
G02*
X125844000Y-126955800I0J-75000D01*
G01*
G37*
G36*
G01*
X125844000Y-127455800D02*
X125844000Y-127605800D01*
G75*
G02*
X125769000Y-127680800I-75000J0D01*
G01*
X124369000Y-127680800D01*
G75*
G02*
X124294000Y-127605800I0J75000D01*
G01*
X124294000Y-127455800D01*
G75*
G02*
X124369000Y-127380800I75000J0D01*
G01*
X125769000Y-127380800D01*
G75*
G02*
X125844000Y-127455800I0J-75000D01*
G01*
G37*
G36*
G01*
X125844000Y-127955800D02*
X125844000Y-128105800D01*
G75*
G02*
X125769000Y-128180800I-75000J0D01*
G01*
X124369000Y-128180800D01*
G75*
G02*
X124294000Y-128105800I0J75000D01*
G01*
X124294000Y-127955800D01*
G75*
G02*
X124369000Y-127880800I75000J0D01*
G01*
X125769000Y-127880800D01*
G75*
G02*
X125844000Y-127955800I0J-75000D01*
G01*
G37*
G36*
G01*
X125844000Y-128455800D02*
X125844000Y-128605800D01*
G75*
G02*
X125769000Y-128680800I-75000J0D01*
G01*
X124369000Y-128680800D01*
G75*
G02*
X124294000Y-128605800I0J75000D01*
G01*
X124294000Y-128455800D01*
G75*
G02*
X124369000Y-128380800I75000J0D01*
G01*
X125769000Y-128380800D01*
G75*
G02*
X125844000Y-128455800I0J-75000D01*
G01*
G37*
G36*
G01*
X125844000Y-128955800D02*
X125844000Y-129105800D01*
G75*
G02*
X125769000Y-129180800I-75000J0D01*
G01*
X124369000Y-129180800D01*
G75*
G02*
X124294000Y-129105800I0J75000D01*
G01*
X124294000Y-128955800D01*
G75*
G02*
X124369000Y-128880800I75000J0D01*
G01*
X125769000Y-128880800D01*
G75*
G02*
X125844000Y-128955800I0J-75000D01*
G01*
G37*
G36*
G01*
X125844000Y-129455800D02*
X125844000Y-129605800D01*
G75*
G02*
X125769000Y-129680800I-75000J0D01*
G01*
X124369000Y-129680800D01*
G75*
G02*
X124294000Y-129605800I0J75000D01*
G01*
X124294000Y-129455800D01*
G75*
G02*
X124369000Y-129380800I75000J0D01*
G01*
X125769000Y-129380800D01*
G75*
G02*
X125844000Y-129455800I0J-75000D01*
G01*
G37*
G36*
G01*
X112712500Y-140862800D02*
X112712500Y-140662800D01*
G75*
G02*
X112812500Y-140562800I100000J0D01*
G01*
X114087500Y-140562800D01*
G75*
G02*
X114187500Y-140662800I0J-100000D01*
G01*
X114187500Y-140862800D01*
G75*
G02*
X114087500Y-140962800I-100000J0D01*
G01*
X112812500Y-140962800D01*
G75*
G02*
X112712500Y-140862800I0J100000D01*
G01*
G37*
G36*
G01*
X112712500Y-141512800D02*
X112712500Y-141312800D01*
G75*
G02*
X112812500Y-141212800I100000J0D01*
G01*
X114087500Y-141212800D01*
G75*
G02*
X114187500Y-141312800I0J-100000D01*
G01*
X114187500Y-141512800D01*
G75*
G02*
X114087500Y-141612800I-100000J0D01*
G01*
X112812500Y-141612800D01*
G75*
G02*
X112712500Y-141512800I0J100000D01*
G01*
G37*
G36*
G01*
X112712500Y-142162800D02*
X112712500Y-141962800D01*
G75*
G02*
X112812500Y-141862800I100000J0D01*
G01*
X114087500Y-141862800D01*
G75*
G02*
X114187500Y-141962800I0J-100000D01*
G01*
X114187500Y-142162800D01*
G75*
G02*
X114087500Y-142262800I-100000J0D01*
G01*
X112812500Y-142262800D01*
G75*
G02*
X112712500Y-142162800I0J100000D01*
G01*
G37*
G36*
G01*
X112712500Y-142812800D02*
X112712500Y-142612800D01*
G75*
G02*
X112812500Y-142512800I100000J0D01*
G01*
X114087500Y-142512800D01*
G75*
G02*
X114187500Y-142612800I0J-100000D01*
G01*
X114187500Y-142812800D01*
G75*
G02*
X114087500Y-142912800I-100000J0D01*
G01*
X112812500Y-142912800D01*
G75*
G02*
X112712500Y-142812800I0J100000D01*
G01*
G37*
G36*
G01*
X112712500Y-143462800D02*
X112712500Y-143262800D01*
G75*
G02*
X112812500Y-143162800I100000J0D01*
G01*
X114087500Y-143162800D01*
G75*
G02*
X114187500Y-143262800I0J-100000D01*
G01*
X114187500Y-143462800D01*
G75*
G02*
X114087500Y-143562800I-100000J0D01*
G01*
X112812500Y-143562800D01*
G75*
G02*
X112712500Y-143462800I0J100000D01*
G01*
G37*
G36*
G01*
X112712500Y-144112800D02*
X112712500Y-143912800D01*
G75*
G02*
X112812500Y-143812800I100000J0D01*
G01*
X114087500Y-143812800D01*
G75*
G02*
X114187500Y-143912800I0J-100000D01*
G01*
X114187500Y-144112800D01*
G75*
G02*
X114087500Y-144212800I-100000J0D01*
G01*
X112812500Y-144212800D01*
G75*
G02*
X112712500Y-144112800I0J100000D01*
G01*
G37*
G36*
G01*
X112712500Y-144762800D02*
X112712500Y-144562800D01*
G75*
G02*
X112812500Y-144462800I100000J0D01*
G01*
X114087500Y-144462800D01*
G75*
G02*
X114187500Y-144562800I0J-100000D01*
G01*
X114187500Y-144762800D01*
G75*
G02*
X114087500Y-144862800I-100000J0D01*
G01*
X112812500Y-144862800D01*
G75*
G02*
X112712500Y-144762800I0J100000D01*
G01*
G37*
G36*
G01*
X112712500Y-145412800D02*
X112712500Y-145212800D01*
G75*
G02*
X112812500Y-145112800I100000J0D01*
G01*
X114087500Y-145112800D01*
G75*
G02*
X114187500Y-145212800I0J-100000D01*
G01*
X114187500Y-145412800D01*
G75*
G02*
X114087500Y-145512800I-100000J0D01*
G01*
X112812500Y-145512800D01*
G75*
G02*
X112712500Y-145412800I0J100000D01*
G01*
G37*
G36*
G01*
X112712500Y-146062800D02*
X112712500Y-145862800D01*
G75*
G02*
X112812500Y-145762800I100000J0D01*
G01*
X114087500Y-145762800D01*
G75*
G02*
X114187500Y-145862800I0J-100000D01*
G01*
X114187500Y-146062800D01*
G75*
G02*
X114087500Y-146162800I-100000J0D01*
G01*
X112812500Y-146162800D01*
G75*
G02*
X112712500Y-146062800I0J100000D01*
G01*
G37*
G36*
G01*
X112712500Y-146712800D02*
X112712500Y-146512800D01*
G75*
G02*
X112812500Y-146412800I100000J0D01*
G01*
X114087500Y-146412800D01*
G75*
G02*
X114187500Y-146512800I0J-100000D01*
G01*
X114187500Y-146712800D01*
G75*
G02*
X114087500Y-146812800I-100000J0D01*
G01*
X112812500Y-146812800D01*
G75*
G02*
X112712500Y-146712800I0J100000D01*
G01*
G37*
G36*
G01*
X118437500Y-146712800D02*
X118437500Y-146512800D01*
G75*
G02*
X118537500Y-146412800I100000J0D01*
G01*
X119812500Y-146412800D01*
G75*
G02*
X119912500Y-146512800I0J-100000D01*
G01*
X119912500Y-146712800D01*
G75*
G02*
X119812500Y-146812800I-100000J0D01*
G01*
X118537500Y-146812800D01*
G75*
G02*
X118437500Y-146712800I0J100000D01*
G01*
G37*
G36*
G01*
X118437500Y-146062800D02*
X118437500Y-145862800D01*
G75*
G02*
X118537500Y-145762800I100000J0D01*
G01*
X119812500Y-145762800D01*
G75*
G02*
X119912500Y-145862800I0J-100000D01*
G01*
X119912500Y-146062800D01*
G75*
G02*
X119812500Y-146162800I-100000J0D01*
G01*
X118537500Y-146162800D01*
G75*
G02*
X118437500Y-146062800I0J100000D01*
G01*
G37*
G36*
G01*
X118437500Y-145412800D02*
X118437500Y-145212800D01*
G75*
G02*
X118537500Y-145112800I100000J0D01*
G01*
X119812500Y-145112800D01*
G75*
G02*
X119912500Y-145212800I0J-100000D01*
G01*
X119912500Y-145412800D01*
G75*
G02*
X119812500Y-145512800I-100000J0D01*
G01*
X118537500Y-145512800D01*
G75*
G02*
X118437500Y-145412800I0J100000D01*
G01*
G37*
G36*
G01*
X118437500Y-144762800D02*
X118437500Y-144562800D01*
G75*
G02*
X118537500Y-144462800I100000J0D01*
G01*
X119812500Y-144462800D01*
G75*
G02*
X119912500Y-144562800I0J-100000D01*
G01*
X119912500Y-144762800D01*
G75*
G02*
X119812500Y-144862800I-100000J0D01*
G01*
X118537500Y-144862800D01*
G75*
G02*
X118437500Y-144762800I0J100000D01*
G01*
G37*
G36*
G01*
X118437500Y-144112800D02*
X118437500Y-143912800D01*
G75*
G02*
X118537500Y-143812800I100000J0D01*
G01*
X119812500Y-143812800D01*
G75*
G02*
X119912500Y-143912800I0J-100000D01*
G01*
X119912500Y-144112800D01*
G75*
G02*
X119812500Y-144212800I-100000J0D01*
G01*
X118537500Y-144212800D01*
G75*
G02*
X118437500Y-144112800I0J100000D01*
G01*
G37*
G36*
G01*
X118437500Y-143462800D02*
X118437500Y-143262800D01*
G75*
G02*
X118537500Y-143162800I100000J0D01*
G01*
X119812500Y-143162800D01*
G75*
G02*
X119912500Y-143262800I0J-100000D01*
G01*
X119912500Y-143462800D01*
G75*
G02*
X119812500Y-143562800I-100000J0D01*
G01*
X118537500Y-143562800D01*
G75*
G02*
X118437500Y-143462800I0J100000D01*
G01*
G37*
G36*
G01*
X118437500Y-142812800D02*
X118437500Y-142612800D01*
G75*
G02*
X118537500Y-142512800I100000J0D01*
G01*
X119812500Y-142512800D01*
G75*
G02*
X119912500Y-142612800I0J-100000D01*
G01*
X119912500Y-142812800D01*
G75*
G02*
X119812500Y-142912800I-100000J0D01*
G01*
X118537500Y-142912800D01*
G75*
G02*
X118437500Y-142812800I0J100000D01*
G01*
G37*
G36*
G01*
X118437500Y-142162800D02*
X118437500Y-141962800D01*
G75*
G02*
X118537500Y-141862800I100000J0D01*
G01*
X119812500Y-141862800D01*
G75*
G02*
X119912500Y-141962800I0J-100000D01*
G01*
X119912500Y-142162800D01*
G75*
G02*
X119812500Y-142262800I-100000J0D01*
G01*
X118537500Y-142262800D01*
G75*
G02*
X118437500Y-142162800I0J100000D01*
G01*
G37*
G36*
G01*
X118437500Y-141512800D02*
X118437500Y-141312800D01*
G75*
G02*
X118537500Y-141212800I100000J0D01*
G01*
X119812500Y-141212800D01*
G75*
G02*
X119912500Y-141312800I0J-100000D01*
G01*
X119912500Y-141512800D01*
G75*
G02*
X119812500Y-141612800I-100000J0D01*
G01*
X118537500Y-141612800D01*
G75*
G02*
X118437500Y-141512800I0J100000D01*
G01*
G37*
G36*
G01*
X118437500Y-140862800D02*
X118437500Y-140662800D01*
G75*
G02*
X118537500Y-140562800I100000J0D01*
G01*
X119812500Y-140562800D01*
G75*
G02*
X119912500Y-140662800I0J-100000D01*
G01*
X119912500Y-140862800D01*
G75*
G02*
X119812500Y-140962800I-100000J0D01*
G01*
X118537500Y-140962800D01*
G75*
G02*
X118437500Y-140862800I0J100000D01*
G01*
G37*
G36*
G01*
X140279900Y-141044400D02*
X140279900Y-141544400D01*
G75*
G02*
X140054900Y-141769400I-225000J0D01*
G01*
X139604900Y-141769400D01*
G75*
G02*
X139379900Y-141544400I0J225000D01*
G01*
X139379900Y-141044400D01*
G75*
G02*
X139604900Y-140819400I225000J0D01*
G01*
X140054900Y-140819400D01*
G75*
G02*
X140279900Y-141044400I0J-225000D01*
G01*
G37*
G36*
G01*
X138729900Y-141044400D02*
X138729900Y-141544400D01*
G75*
G02*
X138504900Y-141769400I-225000J0D01*
G01*
X138054900Y-141769400D01*
G75*
G02*
X137829900Y-141544400I0J225000D01*
G01*
X137829900Y-141044400D01*
G75*
G02*
X138054900Y-140819400I225000J0D01*
G01*
X138504900Y-140819400D01*
G75*
G02*
X138729900Y-141044400I0J-225000D01*
G01*
G37*
D23*
X178411400Y-105513600D03*
D24*
X178411400Y-108053600D03*
X178411400Y-110593600D03*
X178411400Y-113133600D03*
X178411400Y-115673600D03*
X178411400Y-118213600D03*
G36*
G01*
X112712500Y-131871200D02*
X112712500Y-131671200D01*
G75*
G02*
X112812500Y-131571200I100000J0D01*
G01*
X114087500Y-131571200D01*
G75*
G02*
X114187500Y-131671200I0J-100000D01*
G01*
X114187500Y-131871200D01*
G75*
G02*
X114087500Y-131971200I-100000J0D01*
G01*
X112812500Y-131971200D01*
G75*
G02*
X112712500Y-131871200I0J100000D01*
G01*
G37*
G36*
G01*
X112712500Y-132521200D02*
X112712500Y-132321200D01*
G75*
G02*
X112812500Y-132221200I100000J0D01*
G01*
X114087500Y-132221200D01*
G75*
G02*
X114187500Y-132321200I0J-100000D01*
G01*
X114187500Y-132521200D01*
G75*
G02*
X114087500Y-132621200I-100000J0D01*
G01*
X112812500Y-132621200D01*
G75*
G02*
X112712500Y-132521200I0J100000D01*
G01*
G37*
G36*
G01*
X112712500Y-133171200D02*
X112712500Y-132971200D01*
G75*
G02*
X112812500Y-132871200I100000J0D01*
G01*
X114087500Y-132871200D01*
G75*
G02*
X114187500Y-132971200I0J-100000D01*
G01*
X114187500Y-133171200D01*
G75*
G02*
X114087500Y-133271200I-100000J0D01*
G01*
X112812500Y-133271200D01*
G75*
G02*
X112712500Y-133171200I0J100000D01*
G01*
G37*
G36*
G01*
X112712500Y-133821200D02*
X112712500Y-133621200D01*
G75*
G02*
X112812500Y-133521200I100000J0D01*
G01*
X114087500Y-133521200D01*
G75*
G02*
X114187500Y-133621200I0J-100000D01*
G01*
X114187500Y-133821200D01*
G75*
G02*
X114087500Y-133921200I-100000J0D01*
G01*
X112812500Y-133921200D01*
G75*
G02*
X112712500Y-133821200I0J100000D01*
G01*
G37*
G36*
G01*
X112712500Y-134471200D02*
X112712500Y-134271200D01*
G75*
G02*
X112812500Y-134171200I100000J0D01*
G01*
X114087500Y-134171200D01*
G75*
G02*
X114187500Y-134271200I0J-100000D01*
G01*
X114187500Y-134471200D01*
G75*
G02*
X114087500Y-134571200I-100000J0D01*
G01*
X112812500Y-134571200D01*
G75*
G02*
X112712500Y-134471200I0J100000D01*
G01*
G37*
G36*
G01*
X112712500Y-135121200D02*
X112712500Y-134921200D01*
G75*
G02*
X112812500Y-134821200I100000J0D01*
G01*
X114087500Y-134821200D01*
G75*
G02*
X114187500Y-134921200I0J-100000D01*
G01*
X114187500Y-135121200D01*
G75*
G02*
X114087500Y-135221200I-100000J0D01*
G01*
X112812500Y-135221200D01*
G75*
G02*
X112712500Y-135121200I0J100000D01*
G01*
G37*
G36*
G01*
X112712500Y-135771200D02*
X112712500Y-135571200D01*
G75*
G02*
X112812500Y-135471200I100000J0D01*
G01*
X114087500Y-135471200D01*
G75*
G02*
X114187500Y-135571200I0J-100000D01*
G01*
X114187500Y-135771200D01*
G75*
G02*
X114087500Y-135871200I-100000J0D01*
G01*
X112812500Y-135871200D01*
G75*
G02*
X112712500Y-135771200I0J100000D01*
G01*
G37*
G36*
G01*
X112712500Y-136421200D02*
X112712500Y-136221200D01*
G75*
G02*
X112812500Y-136121200I100000J0D01*
G01*
X114087500Y-136121200D01*
G75*
G02*
X114187500Y-136221200I0J-100000D01*
G01*
X114187500Y-136421200D01*
G75*
G02*
X114087500Y-136521200I-100000J0D01*
G01*
X112812500Y-136521200D01*
G75*
G02*
X112712500Y-136421200I0J100000D01*
G01*
G37*
G36*
G01*
X112712500Y-137071200D02*
X112712500Y-136871200D01*
G75*
G02*
X112812500Y-136771200I100000J0D01*
G01*
X114087500Y-136771200D01*
G75*
G02*
X114187500Y-136871200I0J-100000D01*
G01*
X114187500Y-137071200D01*
G75*
G02*
X114087500Y-137171200I-100000J0D01*
G01*
X112812500Y-137171200D01*
G75*
G02*
X112712500Y-137071200I0J100000D01*
G01*
G37*
G36*
G01*
X112712500Y-137721200D02*
X112712500Y-137521200D01*
G75*
G02*
X112812500Y-137421200I100000J0D01*
G01*
X114087500Y-137421200D01*
G75*
G02*
X114187500Y-137521200I0J-100000D01*
G01*
X114187500Y-137721200D01*
G75*
G02*
X114087500Y-137821200I-100000J0D01*
G01*
X112812500Y-137821200D01*
G75*
G02*
X112712500Y-137721200I0J100000D01*
G01*
G37*
G36*
G01*
X118437500Y-137721200D02*
X118437500Y-137521200D01*
G75*
G02*
X118537500Y-137421200I100000J0D01*
G01*
X119812500Y-137421200D01*
G75*
G02*
X119912500Y-137521200I0J-100000D01*
G01*
X119912500Y-137721200D01*
G75*
G02*
X119812500Y-137821200I-100000J0D01*
G01*
X118537500Y-137821200D01*
G75*
G02*
X118437500Y-137721200I0J100000D01*
G01*
G37*
G36*
G01*
X118437500Y-137071200D02*
X118437500Y-136871200D01*
G75*
G02*
X118537500Y-136771200I100000J0D01*
G01*
X119812500Y-136771200D01*
G75*
G02*
X119912500Y-136871200I0J-100000D01*
G01*
X119912500Y-137071200D01*
G75*
G02*
X119812500Y-137171200I-100000J0D01*
G01*
X118537500Y-137171200D01*
G75*
G02*
X118437500Y-137071200I0J100000D01*
G01*
G37*
G36*
G01*
X118437500Y-136421200D02*
X118437500Y-136221200D01*
G75*
G02*
X118537500Y-136121200I100000J0D01*
G01*
X119812500Y-136121200D01*
G75*
G02*
X119912500Y-136221200I0J-100000D01*
G01*
X119912500Y-136421200D01*
G75*
G02*
X119812500Y-136521200I-100000J0D01*
G01*
X118537500Y-136521200D01*
G75*
G02*
X118437500Y-136421200I0J100000D01*
G01*
G37*
G36*
G01*
X118437500Y-135771200D02*
X118437500Y-135571200D01*
G75*
G02*
X118537500Y-135471200I100000J0D01*
G01*
X119812500Y-135471200D01*
G75*
G02*
X119912500Y-135571200I0J-100000D01*
G01*
X119912500Y-135771200D01*
G75*
G02*
X119812500Y-135871200I-100000J0D01*
G01*
X118537500Y-135871200D01*
G75*
G02*
X118437500Y-135771200I0J100000D01*
G01*
G37*
G36*
G01*
X118437500Y-135121200D02*
X118437500Y-134921200D01*
G75*
G02*
X118537500Y-134821200I100000J0D01*
G01*
X119812500Y-134821200D01*
G75*
G02*
X119912500Y-134921200I0J-100000D01*
G01*
X119912500Y-135121200D01*
G75*
G02*
X119812500Y-135221200I-100000J0D01*
G01*
X118537500Y-135221200D01*
G75*
G02*
X118437500Y-135121200I0J100000D01*
G01*
G37*
G36*
G01*
X118437500Y-134471200D02*
X118437500Y-134271200D01*
G75*
G02*
X118537500Y-134171200I100000J0D01*
G01*
X119812500Y-134171200D01*
G75*
G02*
X119912500Y-134271200I0J-100000D01*
G01*
X119912500Y-134471200D01*
G75*
G02*
X119812500Y-134571200I-100000J0D01*
G01*
X118537500Y-134571200D01*
G75*
G02*
X118437500Y-134471200I0J100000D01*
G01*
G37*
G36*
G01*
X118437500Y-133821200D02*
X118437500Y-133621200D01*
G75*
G02*
X118537500Y-133521200I100000J0D01*
G01*
X119812500Y-133521200D01*
G75*
G02*
X119912500Y-133621200I0J-100000D01*
G01*
X119912500Y-133821200D01*
G75*
G02*
X119812500Y-133921200I-100000J0D01*
G01*
X118537500Y-133921200D01*
G75*
G02*
X118437500Y-133821200I0J100000D01*
G01*
G37*
G36*
G01*
X118437500Y-133171200D02*
X118437500Y-132971200D01*
G75*
G02*
X118537500Y-132871200I100000J0D01*
G01*
X119812500Y-132871200D01*
G75*
G02*
X119912500Y-132971200I0J-100000D01*
G01*
X119912500Y-133171200D01*
G75*
G02*
X119812500Y-133271200I-100000J0D01*
G01*
X118537500Y-133271200D01*
G75*
G02*
X118437500Y-133171200I0J100000D01*
G01*
G37*
G36*
G01*
X118437500Y-132521200D02*
X118437500Y-132321200D01*
G75*
G02*
X118537500Y-132221200I100000J0D01*
G01*
X119812500Y-132221200D01*
G75*
G02*
X119912500Y-132321200I0J-100000D01*
G01*
X119912500Y-132521200D01*
G75*
G02*
X119812500Y-132621200I-100000J0D01*
G01*
X118537500Y-132621200D01*
G75*
G02*
X118437500Y-132521200I0J100000D01*
G01*
G37*
G36*
G01*
X118437500Y-131871200D02*
X118437500Y-131671200D01*
G75*
G02*
X118537500Y-131571200I100000J0D01*
G01*
X119812500Y-131571200D01*
G75*
G02*
X119912500Y-131671200I0J-100000D01*
G01*
X119912500Y-131871200D01*
G75*
G02*
X119812500Y-131971200I-100000J0D01*
G01*
X118537500Y-131971200D01*
G75*
G02*
X118437500Y-131871200I0J100000D01*
G01*
G37*
G36*
G01*
X164093500Y-149663600D02*
X164093500Y-149163600D01*
G75*
G02*
X164318500Y-148938600I225000J0D01*
G01*
X164768500Y-148938600D01*
G75*
G02*
X164993500Y-149163600I0J-225000D01*
G01*
X164993500Y-149663600D01*
G75*
G02*
X164768500Y-149888600I-225000J0D01*
G01*
X164318500Y-149888600D01*
G75*
G02*
X164093500Y-149663600I0J225000D01*
G01*
G37*
G36*
G01*
X165643500Y-149663600D02*
X165643500Y-149163600D01*
G75*
G02*
X165868500Y-148938600I225000J0D01*
G01*
X166318500Y-148938600D01*
G75*
G02*
X166543500Y-149163600I0J-225000D01*
G01*
X166543500Y-149663600D01*
G75*
G02*
X166318500Y-149888600I-225000J0D01*
G01*
X165868500Y-149888600D01*
G75*
G02*
X165643500Y-149663600I0J225000D01*
G01*
G37*
G36*
G01*
X119032000Y-112757000D02*
X119032000Y-113307000D01*
G75*
G02*
X118832000Y-113507000I-200000J0D01*
G01*
X118432000Y-113507000D01*
G75*
G02*
X118232000Y-113307000I0J200000D01*
G01*
X118232000Y-112757000D01*
G75*
G02*
X118432000Y-112557000I200000J0D01*
G01*
X118832000Y-112557000D01*
G75*
G02*
X119032000Y-112757000I0J-200000D01*
G01*
G37*
G36*
G01*
X117382000Y-112757000D02*
X117382000Y-113307000D01*
G75*
G02*
X117182000Y-113507000I-200000J0D01*
G01*
X116782000Y-113507000D01*
G75*
G02*
X116582000Y-113307000I0J200000D01*
G01*
X116582000Y-112757000D01*
G75*
G02*
X116782000Y-112557000I200000J0D01*
G01*
X117182000Y-112557000D01*
G75*
G02*
X117382000Y-112757000I0J-200000D01*
G01*
G37*
G36*
G01*
X165756100Y-131494000D02*
X165756100Y-131994000D01*
G75*
G02*
X165531100Y-132219000I-225000J0D01*
G01*
X165081100Y-132219000D01*
G75*
G02*
X164856100Y-131994000I0J225000D01*
G01*
X164856100Y-131494000D01*
G75*
G02*
X165081100Y-131269000I225000J0D01*
G01*
X165531100Y-131269000D01*
G75*
G02*
X165756100Y-131494000I0J-225000D01*
G01*
G37*
G36*
G01*
X164206100Y-131494000D02*
X164206100Y-131994000D01*
G75*
G02*
X163981100Y-132219000I-225000J0D01*
G01*
X163531100Y-132219000D01*
G75*
G02*
X163306100Y-131994000I0J225000D01*
G01*
X163306100Y-131494000D01*
G75*
G02*
X163531100Y-131269000I225000J0D01*
G01*
X163981100Y-131269000D01*
G75*
G02*
X164206100Y-131494000I0J-225000D01*
G01*
G37*
D25*
X118110000Y-99060000D03*
X176530000Y-99060000D03*
D26*
X122555000Y-100012500D03*
X122555000Y-96202500D03*
X123825000Y-101917500D03*
X123825000Y-98107500D03*
X125095000Y-100012500D03*
X125095000Y-96202500D03*
X126365000Y-101917500D03*
X126365000Y-98107500D03*
X127635000Y-100012500D03*
X127635000Y-96202500D03*
X128905000Y-101917500D03*
X128905000Y-98107500D03*
X130175000Y-100012500D03*
X130175000Y-96202500D03*
X131445000Y-101917500D03*
X131445000Y-98107500D03*
X132715000Y-100012500D03*
X132715000Y-96202500D03*
X133985000Y-101917500D03*
X133985000Y-98107500D03*
X135255000Y-100012500D03*
X135255000Y-96202500D03*
X136525000Y-101917500D03*
X136525000Y-98107500D03*
X137795000Y-100012500D03*
X137795000Y-96202500D03*
X139065000Y-101917500D03*
X139065000Y-98107500D03*
X140335000Y-100012500D03*
X140335000Y-96202500D03*
X141605000Y-101917500D03*
X141605000Y-98107500D03*
X142875000Y-100012500D03*
X142875000Y-96202500D03*
X144145000Y-101917500D03*
X144145000Y-98107500D03*
X145415000Y-100012500D03*
X145415000Y-96202500D03*
X146685000Y-101917500D03*
X146685000Y-98107500D03*
X147955000Y-100012500D03*
X147955000Y-96202500D03*
X149225000Y-101917500D03*
X149225000Y-98107500D03*
X150495000Y-100012500D03*
X150495000Y-96202500D03*
X151765000Y-101917500D03*
X151765000Y-98107500D03*
X153035000Y-100012500D03*
X153035000Y-96202500D03*
X154305000Y-101917500D03*
X154305000Y-98107500D03*
X155575000Y-100012500D03*
X155575000Y-96202500D03*
X156845000Y-101917500D03*
X156845000Y-98107500D03*
X158115000Y-100012500D03*
X158115000Y-96202500D03*
X159385000Y-101917500D03*
X159385000Y-98107500D03*
X160655000Y-100012500D03*
X160655000Y-96202500D03*
X161925000Y-101917500D03*
X161925000Y-98107500D03*
X163195000Y-100012500D03*
X163195000Y-96202500D03*
X164465000Y-101917500D03*
X164465000Y-98107500D03*
X165735000Y-100012500D03*
X165735000Y-96202500D03*
X167005000Y-101917500D03*
X167005000Y-98107500D03*
X168275000Y-100012500D03*
X168275000Y-96202500D03*
X169545000Y-101917500D03*
X169545000Y-98107500D03*
X170815000Y-100012500D03*
X170815000Y-96202500D03*
X172085000Y-101917500D03*
X172085000Y-98107500D03*
D14*
X107692500Y-148000000D03*
D15*
X109692500Y-148000000D03*
X107692500Y-146000000D03*
X109692500Y-146000000D03*
X107692500Y-144000000D03*
X109692500Y-144000000D03*
X107692500Y-142000000D03*
X109692500Y-142000000D03*
X107692500Y-140000000D03*
X109692500Y-140000000D03*
X107692500Y-138000000D03*
X109692500Y-138000000D03*
X107692500Y-136000000D03*
X109692500Y-136000000D03*
X107692500Y-134000000D03*
X109692500Y-134000000D03*
X107692500Y-132000000D03*
X109692500Y-132000000D03*
X107692500Y-130000000D03*
X109692500Y-130000000D03*
X107692500Y-128000000D03*
X109692500Y-128000000D03*
X107692500Y-126000000D03*
X109692500Y-126000000D03*
X107692500Y-124000000D03*
X109692500Y-124000000D03*
X107692500Y-122000000D03*
X109692500Y-122000000D03*
X107692500Y-120000000D03*
X109692500Y-120000000D03*
X107692500Y-118000000D03*
X109692500Y-118000000D03*
X107692500Y-116000000D03*
X109692500Y-116000000D03*
X107692500Y-114000000D03*
X109692500Y-114000000D03*
X107692500Y-112000000D03*
X109692500Y-112000000D03*
X107692500Y-110000000D03*
X109692500Y-110000000D03*
X107692500Y-108000000D03*
X109692500Y-108000000D03*
X107692500Y-106000000D03*
X109692500Y-106000000D03*
M02*
