G04 #@! TF.GenerationSoftware,KiCad,Pcbnew,6.0.6+dfsg-1~bpo11+1*
G04 #@! TF.CreationDate,2023-01-30T19:54:19+00:00*
G04 #@! TF.ProjectId,CIDER,43494445-522e-46b6-9963-61645f706362,rev?*
G04 #@! TF.SameCoordinates,Original*
G04 #@! TF.FileFunction,Soldermask,Bot*
G04 #@! TF.FilePolarity,Negative*
%FSLAX46Y46*%
G04 Gerber Fmt 4.6, Leading zero omitted, Abs format (unit mm)*
G04 Created by KiCad (PCBNEW 6.0.6+dfsg-1~bpo11+1) date 2023-01-30 19:54:19*
%MOMM*%
%LPD*%
G01*
G04 APERTURE LIST*
%ADD10R,1.700000X1.700000*%
%ADD11O,1.700000X1.700000*%
%ADD12R,1.350000X1.350000*%
%ADD13O,1.350000X1.350000*%
%ADD14C,5.000000*%
%ADD15C,1.524000*%
G04 APERTURE END LIST*
D10*
X178411400Y-105513600D03*
D11*
X178411400Y-108053600D03*
X178411400Y-110593600D03*
X178411400Y-113133600D03*
X178411400Y-115673600D03*
X178411400Y-118213600D03*
D12*
X107723200Y-100611400D03*
D13*
X107723200Y-102611400D03*
G36*
G01*
X111527400Y-121219808D02*
X111527400Y-120669808D01*
G75*
G02*
X111727400Y-120469808I200000J0D01*
G01*
X112127400Y-120469808D01*
G75*
G02*
X112327400Y-120669808I0J-200000D01*
G01*
X112327400Y-121219808D01*
G75*
G02*
X112127400Y-121419808I-200000J0D01*
G01*
X111727400Y-121419808D01*
G75*
G02*
X111527400Y-121219808I0J200000D01*
G01*
G37*
G36*
G01*
X113177400Y-121219808D02*
X113177400Y-120669808D01*
G75*
G02*
X113377400Y-120469808I200000J0D01*
G01*
X113777400Y-120469808D01*
G75*
G02*
X113977400Y-120669808I0J-200000D01*
G01*
X113977400Y-121219808D01*
G75*
G02*
X113777400Y-121419808I-200000J0D01*
G01*
X113377400Y-121419808D01*
G75*
G02*
X113177400Y-121219808I0J200000D01*
G01*
G37*
D12*
X107723200Y-95547400D03*
D13*
X107723200Y-97547400D03*
D14*
X118110000Y-99060000D03*
X176530000Y-99060000D03*
D15*
X122555000Y-100012500D03*
X122555000Y-96202500D03*
X123825000Y-101917500D03*
X123825000Y-98107500D03*
X125095000Y-100012500D03*
X125095000Y-96202500D03*
X126365000Y-101917500D03*
X126365000Y-98107500D03*
X127635000Y-100012500D03*
X127635000Y-96202500D03*
X128905000Y-101917500D03*
X128905000Y-98107500D03*
X130175000Y-100012500D03*
X130175000Y-96202500D03*
X131445000Y-101917500D03*
X131445000Y-98107500D03*
X132715000Y-100012500D03*
X132715000Y-96202500D03*
X133985000Y-101917500D03*
X133985000Y-98107500D03*
X135255000Y-100012500D03*
X135255000Y-96202500D03*
X136525000Y-101917500D03*
X136525000Y-98107500D03*
X137795000Y-100012500D03*
X137795000Y-96202500D03*
X139065000Y-101917500D03*
X139065000Y-98107500D03*
X140335000Y-100012500D03*
X140335000Y-96202500D03*
X141605000Y-101917500D03*
X141605000Y-98107500D03*
X142875000Y-100012500D03*
X142875000Y-96202500D03*
X144145000Y-101917500D03*
X144145000Y-98107500D03*
X145415000Y-100012500D03*
X145415000Y-96202500D03*
X146685000Y-101917500D03*
X146685000Y-98107500D03*
X147955000Y-100012500D03*
X147955000Y-96202500D03*
X149225000Y-101917500D03*
X149225000Y-98107500D03*
X150495000Y-100012500D03*
X150495000Y-96202500D03*
X151765000Y-101917500D03*
X151765000Y-98107500D03*
X153035000Y-100012500D03*
X153035000Y-96202500D03*
X154305000Y-101917500D03*
X154305000Y-98107500D03*
X155575000Y-100012500D03*
X155575000Y-96202500D03*
X156845000Y-101917500D03*
X156845000Y-98107500D03*
X158115000Y-100012500D03*
X158115000Y-96202500D03*
X159385000Y-101917500D03*
X159385000Y-98107500D03*
X160655000Y-100012500D03*
X160655000Y-96202500D03*
X161925000Y-101917500D03*
X161925000Y-98107500D03*
X163195000Y-100012500D03*
X163195000Y-96202500D03*
X164465000Y-101917500D03*
X164465000Y-98107500D03*
X165735000Y-100012500D03*
X165735000Y-96202500D03*
X167005000Y-101917500D03*
X167005000Y-98107500D03*
X168275000Y-100012500D03*
X168275000Y-96202500D03*
X169545000Y-101917500D03*
X169545000Y-98107500D03*
X170815000Y-100012500D03*
X170815000Y-96202500D03*
X172085000Y-101917500D03*
X172085000Y-98107500D03*
G36*
G01*
X111527400Y-123203600D02*
X111527400Y-122653600D01*
G75*
G02*
X111727400Y-122453600I200000J0D01*
G01*
X112127400Y-122453600D01*
G75*
G02*
X112327400Y-122653600I0J-200000D01*
G01*
X112327400Y-123203600D01*
G75*
G02*
X112127400Y-123403600I-200000J0D01*
G01*
X111727400Y-123403600D01*
G75*
G02*
X111527400Y-123203600I0J200000D01*
G01*
G37*
G36*
G01*
X113177400Y-123203600D02*
X113177400Y-122653600D01*
G75*
G02*
X113377400Y-122453600I200000J0D01*
G01*
X113777400Y-122453600D01*
G75*
G02*
X113977400Y-122653600I0J-200000D01*
G01*
X113977400Y-123203600D01*
G75*
G02*
X113777400Y-123403600I-200000J0D01*
G01*
X113377400Y-123403600D01*
G75*
G02*
X113177400Y-123203600I0J200000D01*
G01*
G37*
D12*
X107692500Y-148000000D03*
D13*
X109692500Y-148000000D03*
X107692500Y-146000000D03*
X109692500Y-146000000D03*
X107692500Y-144000000D03*
X109692500Y-144000000D03*
X107692500Y-142000000D03*
X109692500Y-142000000D03*
X107692500Y-140000000D03*
X109692500Y-140000000D03*
X107692500Y-138000000D03*
X109692500Y-138000000D03*
X107692500Y-136000000D03*
X109692500Y-136000000D03*
X107692500Y-134000000D03*
X109692500Y-134000000D03*
X107692500Y-132000000D03*
X109692500Y-132000000D03*
X107692500Y-130000000D03*
X109692500Y-130000000D03*
X107692500Y-128000000D03*
X109692500Y-128000000D03*
X107692500Y-126000000D03*
X109692500Y-126000000D03*
X107692500Y-124000000D03*
X109692500Y-124000000D03*
X107692500Y-122000000D03*
X109692500Y-122000000D03*
X107692500Y-120000000D03*
X109692500Y-120000000D03*
X107692500Y-118000000D03*
X109692500Y-118000000D03*
X107692500Y-116000000D03*
X109692500Y-116000000D03*
X107692500Y-114000000D03*
X109692500Y-114000000D03*
X107692500Y-112000000D03*
X109692500Y-112000000D03*
X107692500Y-110000000D03*
X109692500Y-110000000D03*
X107692500Y-108000000D03*
X109692500Y-108000000D03*
X107692500Y-106000000D03*
X109692500Y-106000000D03*
M02*
