M48
; DRILL file {KiCad 6.0.6+dfsg-1~bpo11+1} date Sat Jan 28 16:09:36 2023
; FORMAT={-:-/ absolute / metric / decimal}
; #@! TF.CreationDate,2023-01-28T16:09:36+00:00
; #@! TF.GenerationSoftware,Kicad,Pcbnew,6.0.6+dfsg-1~bpo11+1
; #@! TF.FileFunction,Plated,1,2,PTH
FMAT,2
METRIC
; #@! TA.AperFunction,Plated,PTH,ViaDrill
T1C0.254
; #@! TA.AperFunction,Plated,PTH,ComponentDrill
T2C0.762
; #@! TA.AperFunction,Plated,PTH,ComponentDrill
T3C0.800
; #@! TA.AperFunction,Plated,PTH,ComponentDrill
T4C1.000
; #@! TA.AperFunction,Plated,PTH,ComponentDrill
T5C3.300
%
G90
G05
T1
X111.762Y-117.349
X112.27Y-116.849
X112.346Y-127.64
X112.778Y-117.849
X113.26Y-118.349
X113.792Y-118.923
X114.302Y-116.323
X114.784Y-115.849
X115.343Y-115.349
X115.8Y-111.464
X115.824Y-119.786
X116.332Y-120.752
X116.334Y-111.02
X116.84Y-120.23
X116.842Y-110.576
X117.35Y-110.132
X117.858Y-109.688
X118.008Y-123.088
X118.366Y-109.244
X118.874Y-108.8
X119.385Y-107.69
X119.902Y-107.988
X120.345Y-126.695
X120.345Y-128.219
X120.396Y-114.833
X120.929Y-127.533
X121.907Y-127.508
X121.945Y-125.222
X123.014Y-112.349
X123.634Y-120.498
X124.866Y-120.955
X125.654Y-121.386
X126.949Y-128.041
X126.98Y-135.46
X126.98Y-145.953
X127.488Y-136.11
X127.488Y-144.645
X127.508Y-127.533
X127.986Y-136.75
X127.991Y-127.025
X127.996Y-143.38
X128.499Y-126.517
X128.505Y-137.41
X128.522Y-142.088
X129.007Y-126.035
X129.012Y-138.06
X129.012Y-141.536
X129.515Y-125.044
X129.52Y-138.71
X129.52Y-140.54
X130.023Y-124.536
X130.029Y-139.34
X130.536Y-147.046
X131.039Y-124.028
X131.044Y-133.739
X131.044Y-139.998
X131.552Y-116.805
X131.552Y-134.389
X131.552Y-143.145
X132.06Y-146.406
X132.569Y-145.745
X133.076Y-117.313
X133.076Y-133.089
X133.076Y-143.801
X133.584Y-116.805
X133.584Y-140.52
X134.093Y-117.313
X134.093Y-145.101
X134.6Y-116.805
X134.6Y-141.028
X134.6Y-144.43
X135.026Y-112.268
X137.185Y-112.293
X139.751Y-114.808
X139.852Y-118.339
X143.535Y-114.224
X145.771Y-112.801
X146.304Y-108.331
X146.304Y-109.347
X146.304Y-110.363
X146.304Y-111.379
X146.812Y-108.839
X146.812Y-109.855
X146.812Y-110.871
X146.812Y-111.887
X153.839Y-111.134
T2
X122.555Y-96.203
X122.555Y-100.012
X123.825Y-98.108
X123.825Y-101.917
X125.095Y-96.203
X125.095Y-100.012
X126.365Y-98.108
X126.365Y-101.917
X127.635Y-96.203
X127.635Y-100.012
X128.905Y-98.108
X128.905Y-101.917
X130.175Y-96.203
X130.175Y-100.012
X131.445Y-98.108
X131.445Y-101.917
X132.715Y-96.203
X132.715Y-100.012
X133.985Y-98.108
X133.985Y-101.917
X135.255Y-96.203
X135.255Y-100.012
X136.525Y-98.108
X136.525Y-101.917
X137.795Y-96.203
X137.795Y-100.012
X139.065Y-98.108
X139.065Y-101.917
X140.335Y-96.203
X140.335Y-100.012
X141.605Y-98.108
X141.605Y-101.917
X142.875Y-96.203
X142.875Y-100.012
X144.145Y-98.108
X144.145Y-101.917
X145.415Y-96.203
X145.415Y-100.012
X146.685Y-98.108
X146.685Y-101.917
X147.955Y-96.203
X147.955Y-100.012
X149.225Y-98.108
X149.225Y-101.917
X150.495Y-96.203
X150.495Y-100.012
X151.765Y-98.108
X151.765Y-101.917
X153.035Y-96.203
X153.035Y-100.012
X154.305Y-98.108
X154.305Y-101.917
X155.575Y-96.203
X155.575Y-100.012
X156.845Y-98.108
X156.845Y-101.917
X158.115Y-96.203
X158.115Y-100.012
X159.385Y-98.108
X159.385Y-101.917
X160.655Y-96.203
X160.655Y-100.012
X161.925Y-98.108
X161.925Y-101.917
X163.195Y-96.203
X163.195Y-100.012
X164.465Y-98.108
X164.465Y-101.917
X165.735Y-96.203
X165.735Y-100.012
X167.005Y-98.108
X167.005Y-101.917
X168.275Y-96.203
X168.275Y-100.012
X169.545Y-98.108
X169.545Y-101.917
X170.815Y-96.203
X170.815Y-100.012
X172.085Y-98.108
X172.085Y-101.917
T3
X107.692Y-106.0
X107.692Y-108.0
X107.692Y-110.0
X107.692Y-112.0
X107.692Y-114.0
X107.692Y-116.0
X107.692Y-118.0
X107.692Y-120.0
X107.692Y-122.0
X107.692Y-124.0
X107.692Y-126.0
X107.692Y-128.0
X107.692Y-130.0
X107.692Y-132.0
X107.692Y-134.0
X107.692Y-136.0
X107.692Y-138.0
X107.692Y-140.0
X107.692Y-142.0
X107.692Y-144.0
X107.692Y-146.0
X107.692Y-148.0
X109.692Y-106.0
X109.692Y-108.0
X109.692Y-110.0
X109.692Y-112.0
X109.692Y-114.0
X109.692Y-116.0
X109.692Y-118.0
X109.692Y-120.0
X109.692Y-122.0
X109.692Y-124.0
X109.692Y-126.0
X109.692Y-128.0
X109.692Y-130.0
X109.692Y-132.0
X109.692Y-134.0
X109.692Y-136.0
X109.692Y-138.0
X109.692Y-140.0
X109.692Y-142.0
X109.692Y-144.0
X109.692Y-146.0
X109.692Y-148.0
T4
X53.782Y-98.825
X53.782Y-101.365
X77.084Y-134.639
X77.084Y-137.179
X80.584Y-113.174
X80.584Y-115.714
X177.907Y-106.518
X177.907Y-109.058
X177.907Y-111.598
X177.907Y-114.138
X177.907Y-116.678
X177.907Y-119.218
X212.225Y-141.855
X212.225Y-144.395
T5
X118.11Y-99.06
X176.53Y-99.06
T0
M30
