M48
; DRILL file {KiCad 6.0.11+dfsg-1~bpo11+1} date Sun Apr 30 07:38:19 2023
; FORMAT={-:-/ absolute / metric / decimal}
; #@! TF.CreationDate,2023-04-30T07:38:19+00:00
; #@! TF.GenerationSoftware,Kicad,Pcbnew,6.0.11+dfsg-1~bpo11+1
; #@! TF.FileFunction,Plated,1,4,PTH
FMAT,2
METRIC
; #@! TA.AperFunction,Plated,PTH,ViaDrill
T1C0.305
; #@! TA.AperFunction,Plated,PTH,ViaDrill
T2C0.508
; #@! TA.AperFunction,Plated,PTH,ComponentDrill
T3C0.775
; #@! TA.AperFunction,Plated,PTH,ComponentDrill
T4C0.800
; #@! TA.AperFunction,Plated,PTH,ComponentDrill
T5C1.000
; #@! TA.AperFunction,Plated,PTH,ComponentDrill
T6C2.300
%
G90
G05
T1
X5.079Y46.585
X5.215Y24.147
X6.344Y33.774
X6.772Y4.517
X6.79Y25.34
X6.86Y34.281
X6.924Y13.493
X6.936Y23.49
X7.181Y22.489
X7.368Y33.281
X7.596Y21.223
X7.883Y32.773
X8.181Y20.675
X8.206Y0.582
X8.382Y32.207
X8.877Y34.761
X8.892Y31.083
X9.12Y29.332
X9.387Y35.281
X9.919Y35.803
X10.16Y23.749
X10.287Y4.572
X10.401Y39.827
X10.414Y15.113
X10.427Y31.535
X10.913Y40.338
X10.922Y30.378
X11.173Y2.132
X11.176Y8.509
X11.417Y40.857
X11.43Y30.9
X11.547Y20.681
X11.95Y41.374
X12.448Y41.899
X12.487Y12.731
X12.563Y28.809
X12.598Y28.042
X12.967Y42.432
X13.462Y43.439
X14.03Y43.974
X14.122Y38.608
X14.122Y36.957
X14.191Y42.927
X14.935Y24.435
X14.935Y22.911
X14.976Y19.361
X14.986Y36.297
X15.025Y29.343
X15.037Y39.726
X15.052Y11.055
X15.519Y23.597
X16.029Y18.422
X16.278Y2.132
X16.766Y25.897
X16.766Y23.966
X17.366Y18.243
X17.526Y39.786
X17.604Y38.781
X18.188Y21.611
X18.255Y36.764
X18.397Y29.674
X18.41Y30.919
X18.518Y25.599
X19.011Y39.791
X19.101Y30.175
X19.558Y15.951
X20.472Y15.697
X21.566Y23.094
X21.57Y15.67
X21.57Y5.177
X22.078Y15.02
X22.078Y6.485
X22.086Y23.597
X22.576Y14.38
X22.586Y7.749
X22.6Y24.119
X23.095Y13.72
X23.102Y24.639
X23.112Y9.042
X23.602Y13.07
X23.602Y9.594
X23.614Y25.15
X24.11Y12.42
X24.11Y10.59
X24.124Y26.074
X24.313Y4.085
X24.618Y11.79
X24.626Y26.595
X25.634Y17.391
X25.634Y11.132
X25.648Y27.09
X26.142Y34.325
X26.142Y16.741
X26.142Y7.984
X26.65Y4.724
X26.89Y1.101
X27.063Y2.587
X27.159Y5.385
X27.666Y33.625
X27.666Y7.329
X27.678Y17.917
X28.174Y34.325
X28.188Y8.619
X28.682Y6.029
X28.683Y33.624
X29.058Y2.794
X29.191Y34.325
X29.21Y6.706
X29.582Y38.843
X29.707Y25.116
X29.737Y33.117
X29.923Y9.836
X30.244Y21.849
X30.482Y34.006
X30.544Y1.054
X30.812Y22.595
X31.115Y31.623
X31.293Y24.104
X31.498Y38.845
X31.653Y20.37
X32.131Y17.018
X32.364Y20.637
X33.123Y9.836
X33.821Y25.099
X33.934Y26.06
X33.936Y42.416
X34.239Y2.134
X34.341Y36.322
X34.417Y21.463
X34.442Y32.791
X34.815Y27.97
X35.776Y2.108
X36.754Y38.781
X36.832Y33.776
X36.922Y43.77
X37.594Y43.203
X38.125Y36.906
X38.508Y43.0
X39.131Y39.98
X40.749Y42.786
X40.767Y41.783
X40.767Y40.767
X40.767Y39.764
X40.907Y38.309
X41.064Y15.686
X41.187Y8.625
X41.402Y42.291
X41.402Y41.275
X41.402Y40.259
X41.402Y39.243
X41.471Y26.959
X41.471Y26.197
X42.233Y26.959
X42.233Y26.197
X42.824Y9.195
X42.926Y21.463
X44.196Y28.448
X44.45Y34.671
X46.408Y1.716
X46.537Y34.662
X46.588Y27.093
X46.748Y19.669
X47.076Y23.579
X48.192Y32.3
X48.43Y40.01
X48.731Y16.263
X48.895Y30.226
X49.543Y1.716
X49.839Y27.245
X49.992Y24.394
X50.321Y16.291
X50.957Y39.285
X51.008Y31.767
X52.731Y2.251
X53.749Y16.826
X53.866Y20.99
X54.564Y35.272
X54.635Y19.914
X54.877Y4.791
X55.101Y16.291
X56.236Y36.424
X56.794Y36.957
X57.133Y19.872
X57.189Y13.681
X57.358Y23.283
X57.531Y9.271
X57.531Y2.251
X58.323Y20.337
X58.831Y16.374
X59.131Y4.791
X59.542Y39.59
X59.896Y20.386
X61.269Y23.639
X61.269Y17.441
X61.445Y1.716
X61.625Y37.456
X63.149Y16.73
X63.686Y26.123
X64.114Y34.967
X65.791Y33.138
X65.841Y28.211
X66.548Y29.769
X66.883Y32.148
X67.211Y1.716
X67.285Y29.667
X67.467Y22.369
X68.123Y26.695
X68.839Y37.558
X69.531Y4.791
X69.804Y29.836
X69.901Y44.247
X70.515Y31.919
X70.566Y15.053
X72.009Y24.638
X72.214Y12.048
X72.239Y7.12
X73.635Y15.164
T2
X37.067Y23.098
X37.139Y31.353
X42.401Y31.353
X42.401Y23.098
T3
X2.282Y45.13
X2.282Y43.13
X2.282Y41.13
X2.282Y39.13
X2.282Y37.13
X2.282Y35.13
X2.282Y33.13
X2.282Y31.13
X2.282Y29.13
X2.282Y27.13
X2.282Y25.13
X2.282Y23.13
X2.282Y21.13
X2.282Y19.13
X2.282Y17.13
X2.282Y15.13
X2.282Y13.13
X2.282Y11.13
X2.282Y9.13
X2.282Y7.13
X2.282Y5.13
X2.282Y3.13
X2.313Y55.583
X2.313Y53.583
X2.313Y50.519
X2.313Y48.519
X4.282Y45.13
X4.282Y43.13
X4.282Y41.13
X4.282Y39.13
X4.282Y37.13
X4.282Y35.13
X4.282Y33.13
X4.282Y31.13
X4.282Y29.13
X4.282Y27.13
X4.282Y25.13
X4.282Y23.13
X4.282Y21.13
X4.282Y19.13
X4.282Y17.13
X4.282Y15.13
X4.282Y13.13
X4.282Y11.13
X4.282Y9.13
X4.282Y7.13
X4.282Y5.13
X4.282Y3.13
T4
X17.145Y54.927
X17.145Y51.117
X18.415Y53.023
X18.415Y49.212
X19.685Y54.927
X19.685Y51.117
X20.955Y53.023
X20.955Y49.212
X22.225Y54.927
X22.225Y51.117
X23.495Y53.023
X23.495Y49.212
X24.765Y54.927
X24.765Y51.117
X26.035Y53.023
X26.035Y49.212
X27.305Y54.927
X27.305Y51.117
X28.575Y53.023
X28.575Y49.212
X29.845Y54.927
X29.845Y51.117
X31.115Y53.023
X31.115Y49.212
X32.385Y54.927
X32.385Y51.117
X33.655Y53.023
X33.655Y49.212
X34.925Y54.927
X34.925Y51.117
X36.195Y53.023
X36.195Y49.212
X37.465Y54.927
X37.465Y51.117
X38.735Y53.023
X38.735Y49.212
X40.005Y54.927
X40.005Y51.117
X41.275Y53.023
X41.275Y49.212
X42.545Y54.927
X42.545Y51.117
X43.815Y53.023
X43.815Y49.212
X45.085Y54.927
X45.085Y51.117
X46.355Y53.023
X46.355Y49.212
X47.625Y54.927
X47.625Y51.117
X48.895Y53.023
X48.895Y49.212
X50.165Y54.927
X50.165Y51.117
X51.435Y53.023
X51.435Y49.212
X52.705Y54.927
X52.705Y51.117
X53.975Y53.023
X53.975Y49.212
X55.245Y54.927
X55.245Y51.117
X56.515Y53.023
X56.515Y49.212
X57.785Y54.927
X57.785Y51.117
X59.055Y53.023
X59.055Y49.212
X60.325Y54.927
X60.325Y51.117
X61.595Y53.023
X61.595Y49.212
X62.865Y54.927
X62.865Y51.117
X64.135Y53.023
X64.135Y49.212
X65.405Y54.927
X65.405Y51.117
X66.675Y53.023
X66.675Y49.212
T5
X17.932Y1.905
X20.472Y1.905
X23.012Y1.905
X73.001Y45.616
X73.001Y43.076
X73.001Y40.536
X73.001Y37.996
X73.001Y35.456
X73.001Y32.916
T6
X12.7Y52.07
X71.12Y52.07
T0
M30
