G04 #@! TF.GenerationSoftware,KiCad,Pcbnew,6.0.6+dfsg-1~bpo11+1*
G04 #@! TF.CreationDate,2023-01-28T16:09:36+00:00*
G04 #@! TF.ProjectId,CIDER,43494445-522e-46b6-9963-61645f706362,rev?*
G04 #@! TF.SameCoordinates,Original*
G04 #@! TF.FileFunction,Legend,Top*
G04 #@! TF.FilePolarity,Positive*
%FSLAX46Y46*%
G04 Gerber Fmt 4.6, Leading zero omitted, Abs format (unit mm)*
G04 Created by KiCad (PCBNEW 6.0.6+dfsg-1~bpo11+1) date 2023-01-28 16:09:36*
%MOMM*%
%LPD*%
G01*
G04 APERTURE LIST*
%ADD10C,0.150000*%
%ADD11C,0.120000*%
%ADD12C,0.100000*%
%ADD13R,1.700000X1.700000*%
%ADD14O,1.700000X1.700000*%
%ADD15R,1.300000X0.900000*%
%ADD16R,1.950000X1.650000*%
%ADD17R,0.458000X1.510000*%
%ADD18R,1.350000X1.350000*%
%ADD19O,1.350000X1.350000*%
%ADD20R,1.100000X0.250000*%
%ADD21C,1.524000*%
%ADD22C,5.000000*%
G04 APERTURE END LIST*
D10*
X88379642Y-150425280D02*
X88046309Y-149949090D01*
X87808214Y-150425280D02*
X87808214Y-149425280D01*
X88189166Y-149425280D01*
X88284404Y-149472900D01*
X88332023Y-149520519D01*
X88379642Y-149615757D01*
X88379642Y-149758614D01*
X88332023Y-149853852D01*
X88284404Y-149901471D01*
X88189166Y-149949090D01*
X87808214Y-149949090D01*
X89332023Y-150425280D02*
X88760595Y-150425280D01*
X89046309Y-150425280D02*
X89046309Y-149425280D01*
X88951071Y-149568138D01*
X88855833Y-149663376D01*
X88760595Y-149710995D01*
X89951071Y-149425280D02*
X90046309Y-149425280D01*
X90141547Y-149472900D01*
X90189166Y-149520519D01*
X90236785Y-149615757D01*
X90284404Y-149806233D01*
X90284404Y-150044328D01*
X90236785Y-150234804D01*
X90189166Y-150330042D01*
X90141547Y-150377661D01*
X90046309Y-150425280D01*
X89951071Y-150425280D01*
X89855833Y-150377661D01*
X89808214Y-150330042D01*
X89760595Y-150234804D01*
X89712976Y-150044328D01*
X89712976Y-149806233D01*
X89760595Y-149615757D01*
X89808214Y-149520519D01*
X89855833Y-149472900D01*
X89951071Y-149425280D01*
X82747833Y-138041280D02*
X82414500Y-137565090D01*
X82176404Y-138041280D02*
X82176404Y-137041280D01*
X82557357Y-137041280D01*
X82652595Y-137088900D01*
X82700214Y-137136519D01*
X82747833Y-137231757D01*
X82747833Y-137374614D01*
X82700214Y-137469852D01*
X82652595Y-137517471D01*
X82557357Y-137565090D01*
X82176404Y-137565090D01*
X83700214Y-138041280D02*
X83128785Y-138041280D01*
X83414500Y-138041280D02*
X83414500Y-137041280D01*
X83319261Y-137184138D01*
X83224023Y-137279376D01*
X83128785Y-137326995D01*
X143803095Y-149088280D02*
X143803095Y-149897804D01*
X143850714Y-149993042D01*
X143898333Y-150040661D01*
X143993571Y-150088280D01*
X144184047Y-150088280D01*
X144279285Y-150040661D01*
X144326904Y-149993042D01*
X144374523Y-149897804D01*
X144374523Y-149088280D01*
X144755476Y-149088280D02*
X145422142Y-149088280D01*
X144993571Y-150088280D01*
X143803095Y-133534480D02*
X143803095Y-134344004D01*
X143850714Y-134439242D01*
X143898333Y-134486861D01*
X143993571Y-134534480D01*
X144184047Y-134534480D01*
X144279285Y-134486861D01*
X144326904Y-134439242D01*
X144374523Y-134344004D01*
X144374523Y-133534480D01*
X145279285Y-133534480D02*
X145088809Y-133534480D01*
X144993571Y-133582100D01*
X144945952Y-133629719D01*
X144850714Y-133772576D01*
X144803095Y-133963052D01*
X144803095Y-134344004D01*
X144850714Y-134439242D01*
X144898333Y-134486861D01*
X144993571Y-134534480D01*
X145184047Y-134534480D01*
X145279285Y-134486861D01*
X145326904Y-134439242D01*
X145374523Y-134344004D01*
X145374523Y-134105909D01*
X145326904Y-134010671D01*
X145279285Y-133963052D01*
X145184047Y-133915433D01*
X144993571Y-133915433D01*
X144898333Y-133963052D01*
X144850714Y-134010671D01*
X144803095Y-134105909D01*
X202283333Y-93662142D02*
X202235714Y-93709761D01*
X202092857Y-93757380D01*
X201997619Y-93757380D01*
X201854761Y-93709761D01*
X201759523Y-93614523D01*
X201711904Y-93519285D01*
X201664285Y-93328809D01*
X201664285Y-93185952D01*
X201711904Y-92995476D01*
X201759523Y-92900238D01*
X201854761Y-92805000D01*
X201997619Y-92757380D01*
X202092857Y-92757380D01*
X202235714Y-92805000D01*
X202283333Y-92852619D01*
X203188095Y-92757380D02*
X202711904Y-92757380D01*
X202664285Y-93233571D01*
X202711904Y-93185952D01*
X202807142Y-93138333D01*
X203045238Y-93138333D01*
X203140476Y-93185952D01*
X203188095Y-93233571D01*
X203235714Y-93328809D01*
X203235714Y-93566904D01*
X203188095Y-93662142D01*
X203140476Y-93709761D01*
X203045238Y-93757380D01*
X202807142Y-93757380D01*
X202711904Y-93709761D01*
X202664285Y-93662142D01*
X91507833Y-132496042D02*
X91460214Y-132543661D01*
X91317357Y-132591280D01*
X91222119Y-132591280D01*
X91079261Y-132543661D01*
X90984023Y-132448423D01*
X90936404Y-132353185D01*
X90888785Y-132162709D01*
X90888785Y-132019852D01*
X90936404Y-131829376D01*
X90984023Y-131734138D01*
X91079261Y-131638900D01*
X91222119Y-131591280D01*
X91317357Y-131591280D01*
X91460214Y-131638900D01*
X91507833Y-131686519D01*
X91841166Y-131591280D02*
X92460214Y-131591280D01*
X92126880Y-131972233D01*
X92269738Y-131972233D01*
X92364976Y-132019852D01*
X92412595Y-132067471D01*
X92460214Y-132162709D01*
X92460214Y-132400804D01*
X92412595Y-132496042D01*
X92364976Y-132543661D01*
X92269738Y-132591280D01*
X91984023Y-132591280D01*
X91888785Y-132543661D01*
X91841166Y-132496042D01*
X52949166Y-95947880D02*
X52949166Y-96662166D01*
X52901547Y-96805023D01*
X52806309Y-96900261D01*
X52663452Y-96947880D01*
X52568214Y-96947880D01*
X53425357Y-96947880D02*
X53425357Y-95947880D01*
X53806309Y-95947880D01*
X53901547Y-95995500D01*
X53949166Y-96043119D01*
X53996785Y-96138357D01*
X53996785Y-96281214D01*
X53949166Y-96376452D01*
X53901547Y-96424071D01*
X53806309Y-96471690D01*
X53425357Y-96471690D01*
X54377738Y-96043119D02*
X54425357Y-95995500D01*
X54520595Y-95947880D01*
X54758690Y-95947880D01*
X54853928Y-95995500D01*
X54901547Y-96043119D01*
X54949166Y-96138357D01*
X54949166Y-96233595D01*
X54901547Y-96376452D01*
X54330119Y-96947880D01*
X54949166Y-96947880D01*
X217312142Y-101712142D02*
X217264523Y-101759761D01*
X217121666Y-101807380D01*
X217026428Y-101807380D01*
X216883571Y-101759761D01*
X216788333Y-101664523D01*
X216740714Y-101569285D01*
X216693095Y-101378809D01*
X216693095Y-101235952D01*
X216740714Y-101045476D01*
X216788333Y-100950238D01*
X216883571Y-100855000D01*
X217026428Y-100807380D01*
X217121666Y-100807380D01*
X217264523Y-100855000D01*
X217312142Y-100902619D01*
X218264523Y-101807380D02*
X217693095Y-101807380D01*
X217978809Y-101807380D02*
X217978809Y-100807380D01*
X217883571Y-100950238D01*
X217788333Y-101045476D01*
X217693095Y-101093095D01*
X219121666Y-101140714D02*
X219121666Y-101807380D01*
X218883571Y-100759761D02*
X218645476Y-101474047D01*
X219264523Y-101474047D01*
X226422142Y-150722142D02*
X226374523Y-150769761D01*
X226231666Y-150817380D01*
X226136428Y-150817380D01*
X225993571Y-150769761D01*
X225898333Y-150674523D01*
X225850714Y-150579285D01*
X225803095Y-150388809D01*
X225803095Y-150245952D01*
X225850714Y-150055476D01*
X225898333Y-149960238D01*
X225993571Y-149865000D01*
X226136428Y-149817380D01*
X226231666Y-149817380D01*
X226374523Y-149865000D01*
X226422142Y-149912619D01*
X226803095Y-149912619D02*
X226850714Y-149865000D01*
X226945952Y-149817380D01*
X227184047Y-149817380D01*
X227279285Y-149865000D01*
X227326904Y-149912619D01*
X227374523Y-150007857D01*
X227374523Y-150103095D01*
X227326904Y-150245952D01*
X226755476Y-150817380D01*
X227374523Y-150817380D01*
X227993571Y-149817380D02*
X228088809Y-149817380D01*
X228184047Y-149865000D01*
X228231666Y-149912619D01*
X228279285Y-150007857D01*
X228326904Y-150198333D01*
X228326904Y-150436428D01*
X228279285Y-150626904D01*
X228231666Y-150722142D01*
X228184047Y-150769761D01*
X228088809Y-150817380D01*
X227993571Y-150817380D01*
X227898333Y-150769761D01*
X227850714Y-150722142D01*
X227803095Y-150626904D01*
X227755476Y-150436428D01*
X227755476Y-150198333D01*
X227803095Y-150007857D01*
X227850714Y-149912619D01*
X227898333Y-149865000D01*
X227993571Y-149817380D01*
X225808333Y-101807380D02*
X225475000Y-101331190D01*
X225236904Y-101807380D02*
X225236904Y-100807380D01*
X225617857Y-100807380D01*
X225713095Y-100855000D01*
X225760714Y-100902619D01*
X225808333Y-100997857D01*
X225808333Y-101140714D01*
X225760714Y-101235952D01*
X225713095Y-101283571D01*
X225617857Y-101331190D01*
X225236904Y-101331190D01*
X226379761Y-101235952D02*
X226284523Y-101188333D01*
X226236904Y-101140714D01*
X226189285Y-101045476D01*
X226189285Y-100997857D01*
X226236904Y-100902619D01*
X226284523Y-100855000D01*
X226379761Y-100807380D01*
X226570238Y-100807380D01*
X226665476Y-100855000D01*
X226713095Y-100902619D01*
X226760714Y-100997857D01*
X226760714Y-101045476D01*
X226713095Y-101140714D01*
X226665476Y-101188333D01*
X226570238Y-101235952D01*
X226379761Y-101235952D01*
X226284523Y-101283571D01*
X226236904Y-101331190D01*
X226189285Y-101426428D01*
X226189285Y-101616904D01*
X226236904Y-101712142D01*
X226284523Y-101759761D01*
X226379761Y-101807380D01*
X226570238Y-101807380D01*
X226665476Y-101759761D01*
X226713095Y-101712142D01*
X226760714Y-101616904D01*
X226760714Y-101426428D01*
X226713095Y-101331190D01*
X226665476Y-101283571D01*
X226570238Y-101235952D01*
X212862142Y-161282142D02*
X212814523Y-161329761D01*
X212671666Y-161377380D01*
X212576428Y-161377380D01*
X212433571Y-161329761D01*
X212338333Y-161234523D01*
X212290714Y-161139285D01*
X212243095Y-160948809D01*
X212243095Y-160805952D01*
X212290714Y-160615476D01*
X212338333Y-160520238D01*
X212433571Y-160425000D01*
X212576428Y-160377380D01*
X212671666Y-160377380D01*
X212814523Y-160425000D01*
X212862142Y-160472619D01*
X213243095Y-160472619D02*
X213290714Y-160425000D01*
X213385952Y-160377380D01*
X213624047Y-160377380D01*
X213719285Y-160425000D01*
X213766904Y-160472619D01*
X213814523Y-160567857D01*
X213814523Y-160663095D01*
X213766904Y-160805952D01*
X213195476Y-161377380D01*
X213814523Y-161377380D01*
X214147857Y-160377380D02*
X214766904Y-160377380D01*
X214433571Y-160758333D01*
X214576428Y-160758333D01*
X214671666Y-160805952D01*
X214719285Y-160853571D01*
X214766904Y-160948809D01*
X214766904Y-161186904D01*
X214719285Y-161282142D01*
X214671666Y-161329761D01*
X214576428Y-161377380D01*
X214290714Y-161377380D01*
X214195476Y-161329761D01*
X214147857Y-161282142D01*
X80962833Y-106861042D02*
X80915214Y-106908661D01*
X80772357Y-106956280D01*
X80677119Y-106956280D01*
X80534261Y-106908661D01*
X80439023Y-106813423D01*
X80391404Y-106718185D01*
X80343785Y-106527709D01*
X80343785Y-106384852D01*
X80391404Y-106194376D01*
X80439023Y-106099138D01*
X80534261Y-106003900D01*
X80677119Y-105956280D01*
X80772357Y-105956280D01*
X80915214Y-106003900D01*
X80962833Y-106051519D01*
X81439023Y-106956280D02*
X81629500Y-106956280D01*
X81724738Y-106908661D01*
X81772357Y-106861042D01*
X81867595Y-106718185D01*
X81915214Y-106527709D01*
X81915214Y-106146757D01*
X81867595Y-106051519D01*
X81819976Y-106003900D01*
X81724738Y-105956280D01*
X81534261Y-105956280D01*
X81439023Y-106003900D01*
X81391404Y-106051519D01*
X81343785Y-106146757D01*
X81343785Y-106384852D01*
X81391404Y-106480090D01*
X81439023Y-106527709D01*
X81534261Y-106575328D01*
X81724738Y-106575328D01*
X81819976Y-106527709D01*
X81867595Y-106480090D01*
X81915214Y-106384852D01*
X89059033Y-148190080D02*
X88725700Y-147713890D01*
X88487604Y-148190080D02*
X88487604Y-147190080D01*
X88868557Y-147190080D01*
X88963795Y-147237700D01*
X89011414Y-147285319D01*
X89059033Y-147380557D01*
X89059033Y-147523414D01*
X89011414Y-147618652D01*
X88963795Y-147666271D01*
X88868557Y-147713890D01*
X88487604Y-147713890D01*
X89535223Y-148190080D02*
X89725700Y-148190080D01*
X89820938Y-148142461D01*
X89868557Y-148094842D01*
X89963795Y-147951985D01*
X90011414Y-147761509D01*
X90011414Y-147380557D01*
X89963795Y-147285319D01*
X89916176Y-147237700D01*
X89820938Y-147190080D01*
X89630461Y-147190080D01*
X89535223Y-147237700D01*
X89487604Y-147285319D01*
X89439985Y-147380557D01*
X89439985Y-147618652D01*
X89487604Y-147713890D01*
X89535223Y-147761509D01*
X89630461Y-147809128D01*
X89820938Y-147809128D01*
X89916176Y-147761509D01*
X89963795Y-147713890D01*
X90011414Y-147618652D01*
X77372595Y-138491280D02*
X77372595Y-139300804D01*
X77420214Y-139396042D01*
X77467833Y-139443661D01*
X77563071Y-139491280D01*
X77753547Y-139491280D01*
X77848785Y-139443661D01*
X77896404Y-139396042D01*
X77944023Y-139300804D01*
X77944023Y-138491280D01*
X78944023Y-139491280D02*
X78372595Y-139491280D01*
X78658309Y-139491280D02*
X78658309Y-138491280D01*
X78563071Y-138634138D01*
X78467833Y-138729376D01*
X78372595Y-138776995D01*
X229342142Y-101712142D02*
X229294523Y-101759761D01*
X229151666Y-101807380D01*
X229056428Y-101807380D01*
X228913571Y-101759761D01*
X228818333Y-101664523D01*
X228770714Y-101569285D01*
X228723095Y-101378809D01*
X228723095Y-101235952D01*
X228770714Y-101045476D01*
X228818333Y-100950238D01*
X228913571Y-100855000D01*
X229056428Y-100807380D01*
X229151666Y-100807380D01*
X229294523Y-100855000D01*
X229342142Y-100902619D01*
X230294523Y-101807380D02*
X229723095Y-101807380D01*
X230008809Y-101807380D02*
X230008809Y-100807380D01*
X229913571Y-100950238D01*
X229818333Y-101045476D01*
X229723095Y-101093095D01*
X230675476Y-100902619D02*
X230723095Y-100855000D01*
X230818333Y-100807380D01*
X231056428Y-100807380D01*
X231151666Y-100855000D01*
X231199285Y-100902619D01*
X231246904Y-100997857D01*
X231246904Y-101093095D01*
X231199285Y-101235952D01*
X230627857Y-101807380D01*
X231246904Y-101807380D01*
X241848333Y-101807380D02*
X241515000Y-101331190D01*
X241276904Y-101807380D02*
X241276904Y-100807380D01*
X241657857Y-100807380D01*
X241753095Y-100855000D01*
X241800714Y-100902619D01*
X241848333Y-100997857D01*
X241848333Y-101140714D01*
X241800714Y-101235952D01*
X241753095Y-101283571D01*
X241657857Y-101331190D01*
X241276904Y-101331190D01*
X242181666Y-100807380D02*
X242848333Y-100807380D01*
X242419761Y-101807380D01*
X130402142Y-173822142D02*
X130354523Y-173869761D01*
X130211666Y-173917380D01*
X130116428Y-173917380D01*
X129973571Y-173869761D01*
X129878333Y-173774523D01*
X129830714Y-173679285D01*
X129783095Y-173488809D01*
X129783095Y-173345952D01*
X129830714Y-173155476D01*
X129878333Y-173060238D01*
X129973571Y-172965000D01*
X130116428Y-172917380D01*
X130211666Y-172917380D01*
X130354523Y-172965000D01*
X130402142Y-173012619D01*
X130783095Y-173012619D02*
X130830714Y-172965000D01*
X130925952Y-172917380D01*
X131164047Y-172917380D01*
X131259285Y-172965000D01*
X131306904Y-173012619D01*
X131354523Y-173107857D01*
X131354523Y-173203095D01*
X131306904Y-173345952D01*
X130735476Y-173917380D01*
X131354523Y-173917380D01*
X131687857Y-172917380D02*
X132354523Y-172917380D01*
X131925952Y-173917380D01*
X221322142Y-104222142D02*
X221274523Y-104269761D01*
X221131666Y-104317380D01*
X221036428Y-104317380D01*
X220893571Y-104269761D01*
X220798333Y-104174523D01*
X220750714Y-104079285D01*
X220703095Y-103888809D01*
X220703095Y-103745952D01*
X220750714Y-103555476D01*
X220798333Y-103460238D01*
X220893571Y-103365000D01*
X221036428Y-103317380D01*
X221131666Y-103317380D01*
X221274523Y-103365000D01*
X221322142Y-103412619D01*
X222274523Y-104317380D02*
X221703095Y-104317380D01*
X221988809Y-104317380D02*
X221988809Y-103317380D01*
X221893571Y-103460238D01*
X221798333Y-103555476D01*
X221703095Y-103603095D01*
X222607857Y-103317380D02*
X223226904Y-103317380D01*
X222893571Y-103698333D01*
X223036428Y-103698333D01*
X223131666Y-103745952D01*
X223179285Y-103793571D01*
X223226904Y-103888809D01*
X223226904Y-104126904D01*
X223179285Y-104222142D01*
X223131666Y-104269761D01*
X223036428Y-104317380D01*
X222750714Y-104317380D01*
X222655476Y-104269761D01*
X222607857Y-104222142D01*
X79457833Y-118326280D02*
X79124500Y-117850090D01*
X78886404Y-118326280D02*
X78886404Y-117326280D01*
X79267357Y-117326280D01*
X79362595Y-117373900D01*
X79410214Y-117421519D01*
X79457833Y-117516757D01*
X79457833Y-117659614D01*
X79410214Y-117754852D01*
X79362595Y-117802471D01*
X79267357Y-117850090D01*
X78886404Y-117850090D01*
X79791166Y-117326280D02*
X80410214Y-117326280D01*
X80076880Y-117707233D01*
X80219738Y-117707233D01*
X80314976Y-117754852D01*
X80362595Y-117802471D01*
X80410214Y-117897709D01*
X80410214Y-118135804D01*
X80362595Y-118231042D01*
X80314976Y-118278661D01*
X80219738Y-118326280D01*
X79934023Y-118326280D01*
X79838785Y-118278661D01*
X79791166Y-118231042D01*
X84747833Y-110011042D02*
X84700214Y-110058661D01*
X84557357Y-110106280D01*
X84462119Y-110106280D01*
X84319261Y-110058661D01*
X84224023Y-109963423D01*
X84176404Y-109868185D01*
X84128785Y-109677709D01*
X84128785Y-109534852D01*
X84176404Y-109344376D01*
X84224023Y-109249138D01*
X84319261Y-109153900D01*
X84462119Y-109106280D01*
X84557357Y-109106280D01*
X84700214Y-109153900D01*
X84747833Y-109201519D01*
X85319261Y-109534852D02*
X85224023Y-109487233D01*
X85176404Y-109439614D01*
X85128785Y-109344376D01*
X85128785Y-109296757D01*
X85176404Y-109201519D01*
X85224023Y-109153900D01*
X85319261Y-109106280D01*
X85509738Y-109106280D01*
X85604976Y-109153900D01*
X85652595Y-109201519D01*
X85700214Y-109296757D01*
X85700214Y-109344376D01*
X85652595Y-109439614D01*
X85604976Y-109487233D01*
X85509738Y-109534852D01*
X85319261Y-109534852D01*
X85224023Y-109582471D01*
X85176404Y-109630090D01*
X85128785Y-109725328D01*
X85128785Y-109915804D01*
X85176404Y-110011042D01*
X85224023Y-110058661D01*
X85319261Y-110106280D01*
X85509738Y-110106280D01*
X85604976Y-110058661D01*
X85652595Y-110011042D01*
X85700214Y-109915804D01*
X85700214Y-109725328D01*
X85652595Y-109630090D01*
X85604976Y-109582471D01*
X85509738Y-109534852D01*
X-8669166Y-103977880D02*
X-9002500Y-103501690D01*
X-9240595Y-103977880D02*
X-9240595Y-102977880D01*
X-8859642Y-102977880D01*
X-8764404Y-103025500D01*
X-8716785Y-103073119D01*
X-8669166Y-103168357D01*
X-8669166Y-103311214D01*
X-8716785Y-103406452D01*
X-8764404Y-103454071D01*
X-8859642Y-103501690D01*
X-9240595Y-103501690D01*
X-7812023Y-103311214D02*
X-7812023Y-103977880D01*
X-8050119Y-102930261D02*
X-8288214Y-103644547D01*
X-7669166Y-103644547D01*
X76251166Y-131761280D02*
X76251166Y-132475566D01*
X76203547Y-132618423D01*
X76108309Y-132713661D01*
X75965452Y-132761280D01*
X75870214Y-132761280D01*
X76727357Y-132761280D02*
X76727357Y-131761280D01*
X77108309Y-131761280D01*
X77203547Y-131808900D01*
X77251166Y-131856519D01*
X77298785Y-131951757D01*
X77298785Y-132094614D01*
X77251166Y-132189852D01*
X77203547Y-132237471D01*
X77108309Y-132285090D01*
X76727357Y-132285090D01*
X78251166Y-132761280D02*
X77679738Y-132761280D01*
X77965452Y-132761280D02*
X77965452Y-131761280D01*
X77870214Y-131904138D01*
X77774976Y-131999376D01*
X77679738Y-132046995D01*
X81724976Y-131566280D02*
X82391642Y-132566280D01*
X82391642Y-131566280D02*
X81724976Y-132566280D01*
X83296404Y-132566280D02*
X82724976Y-132566280D01*
X83010690Y-132566280D02*
X83010690Y-131566280D01*
X82915452Y-131709138D01*
X82820214Y-131804376D01*
X82724976Y-131851995D01*
X233828333Y-101807380D02*
X233495000Y-101331190D01*
X233256904Y-101807380D02*
X233256904Y-100807380D01*
X233637857Y-100807380D01*
X233733095Y-100855000D01*
X233780714Y-100902619D01*
X233828333Y-100997857D01*
X233828333Y-101140714D01*
X233780714Y-101235952D01*
X233733095Y-101283571D01*
X233637857Y-101331190D01*
X233256904Y-101331190D01*
X234733095Y-100807380D02*
X234256904Y-100807380D01*
X234209285Y-101283571D01*
X234256904Y-101235952D01*
X234352142Y-101188333D01*
X234590238Y-101188333D01*
X234685476Y-101235952D01*
X234733095Y-101283571D01*
X234780714Y-101378809D01*
X234780714Y-101616904D01*
X234733095Y-101712142D01*
X234685476Y-101759761D01*
X234590238Y-101807380D01*
X234352142Y-101807380D01*
X234256904Y-101759761D01*
X234209285Y-101712142D01*
X76121642Y-145746042D02*
X76074023Y-145793661D01*
X75931166Y-145841280D01*
X75835928Y-145841280D01*
X75693071Y-145793661D01*
X75597833Y-145698423D01*
X75550214Y-145603185D01*
X75502595Y-145412709D01*
X75502595Y-145269852D01*
X75550214Y-145079376D01*
X75597833Y-144984138D01*
X75693071Y-144888900D01*
X75835928Y-144841280D01*
X75931166Y-144841280D01*
X76074023Y-144888900D01*
X76121642Y-144936519D01*
X77074023Y-145841280D02*
X76502595Y-145841280D01*
X76788309Y-145841280D02*
X76788309Y-144841280D01*
X76693071Y-144984138D01*
X76597833Y-145079376D01*
X76502595Y-145126995D01*
X78026404Y-145841280D02*
X77454976Y-145841280D01*
X77740690Y-145841280D02*
X77740690Y-144841280D01*
X77645452Y-144984138D01*
X77550214Y-145079376D01*
X77454976Y-145126995D01*
X216872142Y-158772142D02*
X216824523Y-158819761D01*
X216681666Y-158867380D01*
X216586428Y-158867380D01*
X216443571Y-158819761D01*
X216348333Y-158724523D01*
X216300714Y-158629285D01*
X216253095Y-158438809D01*
X216253095Y-158295952D01*
X216300714Y-158105476D01*
X216348333Y-158010238D01*
X216443571Y-157915000D01*
X216586428Y-157867380D01*
X216681666Y-157867380D01*
X216824523Y-157915000D01*
X216872142Y-157962619D01*
X217253095Y-157962619D02*
X217300714Y-157915000D01*
X217395952Y-157867380D01*
X217634047Y-157867380D01*
X217729285Y-157915000D01*
X217776904Y-157962619D01*
X217824523Y-158057857D01*
X217824523Y-158153095D01*
X217776904Y-158295952D01*
X217205476Y-158867380D01*
X217824523Y-158867380D01*
X218776904Y-158867380D02*
X218205476Y-158867380D01*
X218491190Y-158867380D02*
X218491190Y-157867380D01*
X218395952Y-158010238D01*
X218300714Y-158105476D01*
X218205476Y-158153095D01*
X-8669166Y-106392642D02*
X-8716785Y-106440261D01*
X-8859642Y-106487880D01*
X-8954880Y-106487880D01*
X-9097738Y-106440261D01*
X-9192976Y-106345023D01*
X-9240595Y-106249785D01*
X-9288214Y-106059309D01*
X-9288214Y-105916452D01*
X-9240595Y-105725976D01*
X-9192976Y-105630738D01*
X-9097738Y-105535500D01*
X-8954880Y-105487880D01*
X-8859642Y-105487880D01*
X-8716785Y-105535500D01*
X-8669166Y-105583119D01*
X-7812023Y-105821214D02*
X-7812023Y-106487880D01*
X-8050119Y-105440261D02*
X-8288214Y-106154547D01*
X-7669166Y-106154547D01*
X115550595Y-119965709D02*
X115550595Y-120775233D01*
X115598214Y-120870471D01*
X115645833Y-120918090D01*
X115741071Y-120965709D01*
X115931547Y-120965709D01*
X116026785Y-120918090D01*
X116074404Y-120870471D01*
X116122023Y-120775233D01*
X116122023Y-119965709D01*
X117074404Y-119965709D02*
X116598214Y-119965709D01*
X116550595Y-120441900D01*
X116598214Y-120394281D01*
X116693452Y-120346662D01*
X116931547Y-120346662D01*
X117026785Y-120394281D01*
X117074404Y-120441900D01*
X117122023Y-120537138D01*
X117122023Y-120775233D01*
X117074404Y-120870471D01*
X117026785Y-120918090D01*
X116931547Y-120965709D01*
X116693452Y-120965709D01*
X116598214Y-120918090D01*
X116550595Y-120870471D01*
X244671666Y-93233571D02*
X244338333Y-93233571D01*
X244338333Y-93757380D02*
X244338333Y-92757380D01*
X244814523Y-92757380D01*
X245719285Y-93757380D02*
X245147857Y-93757380D01*
X245433571Y-93757380D02*
X245433571Y-92757380D01*
X245338333Y-92900238D01*
X245243095Y-92995476D01*
X245147857Y-93043095D01*
X157003778Y-113961474D02*
X157576198Y-114533894D01*
X157677213Y-114567566D01*
X157744557Y-114567566D01*
X157845572Y-114533894D01*
X157980259Y-114399207D01*
X158013931Y-114298192D01*
X158013931Y-114230848D01*
X157980259Y-114129833D01*
X157407839Y-113557413D01*
X157778229Y-113321711D02*
X157778229Y-113254368D01*
X157811900Y-113153352D01*
X157980259Y-112984994D01*
X158081274Y-112951322D01*
X158148618Y-112951322D01*
X158249633Y-112984994D01*
X158316977Y-113052337D01*
X158384320Y-113187024D01*
X158384320Y-113995146D01*
X158822053Y-113557413D01*
X222012142Y-150722142D02*
X221964523Y-150769761D01*
X221821666Y-150817380D01*
X221726428Y-150817380D01*
X221583571Y-150769761D01*
X221488333Y-150674523D01*
X221440714Y-150579285D01*
X221393095Y-150388809D01*
X221393095Y-150245952D01*
X221440714Y-150055476D01*
X221488333Y-149960238D01*
X221583571Y-149865000D01*
X221726428Y-149817380D01*
X221821666Y-149817380D01*
X221964523Y-149865000D01*
X222012142Y-149912619D01*
X222964523Y-150817380D02*
X222393095Y-150817380D01*
X222678809Y-150817380D02*
X222678809Y-149817380D01*
X222583571Y-149960238D01*
X222488333Y-150055476D01*
X222393095Y-150103095D01*
X223869285Y-149817380D02*
X223393095Y-149817380D01*
X223345476Y-150293571D01*
X223393095Y-150245952D01*
X223488333Y-150198333D01*
X223726428Y-150198333D01*
X223821666Y-150245952D01*
X223869285Y-150293571D01*
X223916904Y-150388809D01*
X223916904Y-150626904D01*
X223869285Y-150722142D01*
X223821666Y-150769761D01*
X223726428Y-150817380D01*
X223488333Y-150817380D01*
X223393095Y-150769761D01*
X223345476Y-150722142D01*
X152552142Y-150817380D02*
X152218809Y-150341190D01*
X151980714Y-150817380D02*
X151980714Y-149817380D01*
X152361666Y-149817380D01*
X152456904Y-149865000D01*
X152504523Y-149912619D01*
X152552142Y-150007857D01*
X152552142Y-150150714D01*
X152504523Y-150245952D01*
X152456904Y-150293571D01*
X152361666Y-150341190D01*
X151980714Y-150341190D01*
X153504523Y-150817380D02*
X152933095Y-150817380D01*
X153218809Y-150817380D02*
X153218809Y-149817380D01*
X153123571Y-149960238D01*
X153028333Y-150055476D01*
X152933095Y-150103095D01*
X154456904Y-150817380D02*
X153885476Y-150817380D01*
X154171190Y-150817380D02*
X154171190Y-149817380D01*
X154075952Y-149960238D01*
X153980714Y-150055476D01*
X153885476Y-150103095D01*
X212862142Y-163792142D02*
X212814523Y-163839761D01*
X212671666Y-163887380D01*
X212576428Y-163887380D01*
X212433571Y-163839761D01*
X212338333Y-163744523D01*
X212290714Y-163649285D01*
X212243095Y-163458809D01*
X212243095Y-163315952D01*
X212290714Y-163125476D01*
X212338333Y-163030238D01*
X212433571Y-162935000D01*
X212576428Y-162887380D01*
X212671666Y-162887380D01*
X212814523Y-162935000D01*
X212862142Y-162982619D01*
X213814523Y-163887380D02*
X213243095Y-163887380D01*
X213528809Y-163887380D02*
X213528809Y-162887380D01*
X213433571Y-163030238D01*
X213338333Y-163125476D01*
X213243095Y-163173095D01*
X214385952Y-163315952D02*
X214290714Y-163268333D01*
X214243095Y-163220714D01*
X214195476Y-163125476D01*
X214195476Y-163077857D01*
X214243095Y-162982619D01*
X214290714Y-162935000D01*
X214385952Y-162887380D01*
X214576428Y-162887380D01*
X214671666Y-162935000D01*
X214719285Y-162982619D01*
X214766904Y-163077857D01*
X214766904Y-163125476D01*
X214719285Y-163220714D01*
X214671666Y-163268333D01*
X214576428Y-163315952D01*
X214385952Y-163315952D01*
X214290714Y-163363571D01*
X214243095Y-163411190D01*
X214195476Y-163506428D01*
X214195476Y-163696904D01*
X214243095Y-163792142D01*
X214290714Y-163839761D01*
X214385952Y-163887380D01*
X214576428Y-163887380D01*
X214671666Y-163839761D01*
X214719285Y-163792142D01*
X214766904Y-163696904D01*
X214766904Y-163506428D01*
X214719285Y-163411190D01*
X214671666Y-163363571D01*
X214576428Y-163315952D01*
X79751166Y-110296280D02*
X79751166Y-111010566D01*
X79703547Y-111153423D01*
X79608309Y-111248661D01*
X79465452Y-111296280D01*
X79370214Y-111296280D01*
X80227357Y-111296280D02*
X80227357Y-110296280D01*
X80608309Y-110296280D01*
X80703547Y-110343900D01*
X80751166Y-110391519D01*
X80798785Y-110486757D01*
X80798785Y-110629614D01*
X80751166Y-110724852D01*
X80703547Y-110772471D01*
X80608309Y-110820090D01*
X80227357Y-110820090D01*
X81132119Y-110296280D02*
X81751166Y-110296280D01*
X81417833Y-110677233D01*
X81560690Y-110677233D01*
X81655928Y-110724852D01*
X81703547Y-110772471D01*
X81751166Y-110867709D01*
X81751166Y-111105804D01*
X81703547Y-111201042D01*
X81655928Y-111248661D01*
X81560690Y-111296280D01*
X81274976Y-111296280D01*
X81179738Y-111248661D01*
X81132119Y-111201042D01*
X84747833Y-112521042D02*
X84700214Y-112568661D01*
X84557357Y-112616280D01*
X84462119Y-112616280D01*
X84319261Y-112568661D01*
X84224023Y-112473423D01*
X84176404Y-112378185D01*
X84128785Y-112187709D01*
X84128785Y-112044852D01*
X84176404Y-111854376D01*
X84224023Y-111759138D01*
X84319261Y-111663900D01*
X84462119Y-111616280D01*
X84557357Y-111616280D01*
X84700214Y-111663900D01*
X84747833Y-111711519D01*
X85700214Y-112616280D02*
X85128785Y-112616280D01*
X85414500Y-112616280D02*
X85414500Y-111616280D01*
X85319261Y-111759138D01*
X85224023Y-111854376D01*
X85128785Y-111901995D01*
X87497833Y-137611280D02*
X87164500Y-137135090D01*
X86926404Y-137611280D02*
X86926404Y-136611280D01*
X87307357Y-136611280D01*
X87402595Y-136658900D01*
X87450214Y-136706519D01*
X87497833Y-136801757D01*
X87497833Y-136944614D01*
X87450214Y-137039852D01*
X87402595Y-137087471D01*
X87307357Y-137135090D01*
X86926404Y-137135090D01*
X87878785Y-136706519D02*
X87926404Y-136658900D01*
X88021642Y-136611280D01*
X88259738Y-136611280D01*
X88354976Y-136658900D01*
X88402595Y-136706519D01*
X88450214Y-136801757D01*
X88450214Y-136896995D01*
X88402595Y-137039852D01*
X87831166Y-137611280D01*
X88450214Y-137611280D01*
X151493580Y-142620904D02*
X152303104Y-142620904D01*
X152398342Y-142573285D01*
X152445961Y-142525666D01*
X152493580Y-142430428D01*
X152493580Y-142239952D01*
X152445961Y-142144714D01*
X152398342Y-142097095D01*
X152303104Y-142049476D01*
X151493580Y-142049476D01*
X151922152Y-141430428D02*
X151874533Y-141525666D01*
X151826914Y-141573285D01*
X151731676Y-141620904D01*
X151684057Y-141620904D01*
X151588819Y-141573285D01*
X151541200Y-141525666D01*
X151493580Y-141430428D01*
X151493580Y-141239952D01*
X151541200Y-141144714D01*
X151588819Y-141097095D01*
X151684057Y-141049476D01*
X151731676Y-141049476D01*
X151826914Y-141097095D01*
X151874533Y-141144714D01*
X151922152Y-141239952D01*
X151922152Y-141430428D01*
X151969771Y-141525666D01*
X152017390Y-141573285D01*
X152112628Y-141620904D01*
X152303104Y-141620904D01*
X152398342Y-141573285D01*
X152445961Y-141525666D01*
X152493580Y-141430428D01*
X152493580Y-141239952D01*
X152445961Y-141144714D01*
X152398342Y-141097095D01*
X152303104Y-141049476D01*
X152112628Y-141049476D01*
X152017390Y-141097095D01*
X151969771Y-141144714D01*
X151922152Y-141239952D01*
X237838333Y-101807380D02*
X237505000Y-101331190D01*
X237266904Y-101807380D02*
X237266904Y-100807380D01*
X237647857Y-100807380D01*
X237743095Y-100855000D01*
X237790714Y-100902619D01*
X237838333Y-100997857D01*
X237838333Y-101140714D01*
X237790714Y-101235952D01*
X237743095Y-101283571D01*
X237647857Y-101331190D01*
X237266904Y-101331190D01*
X238695476Y-100807380D02*
X238505000Y-100807380D01*
X238409761Y-100855000D01*
X238362142Y-100902619D01*
X238266904Y-101045476D01*
X238219285Y-101235952D01*
X238219285Y-101616904D01*
X238266904Y-101712142D01*
X238314523Y-101759761D01*
X238409761Y-101807380D01*
X238600238Y-101807380D01*
X238695476Y-101759761D01*
X238743095Y-101712142D01*
X238790714Y-101616904D01*
X238790714Y-101378809D01*
X238743095Y-101283571D01*
X238695476Y-101235952D01*
X238600238Y-101188333D01*
X238409761Y-101188333D01*
X238314523Y-101235952D01*
X238266904Y-101283571D01*
X238219285Y-101378809D01*
X198292142Y-185552142D02*
X198244523Y-185599761D01*
X198101666Y-185647380D01*
X198006428Y-185647380D01*
X197863571Y-185599761D01*
X197768333Y-185504523D01*
X197720714Y-185409285D01*
X197673095Y-185218809D01*
X197673095Y-185075952D01*
X197720714Y-184885476D01*
X197768333Y-184790238D01*
X197863571Y-184695000D01*
X198006428Y-184647380D01*
X198101666Y-184647380D01*
X198244523Y-184695000D01*
X198292142Y-184742619D01*
X198673095Y-184742619D02*
X198720714Y-184695000D01*
X198815952Y-184647380D01*
X199054047Y-184647380D01*
X199149285Y-184695000D01*
X199196904Y-184742619D01*
X199244523Y-184837857D01*
X199244523Y-184933095D01*
X199196904Y-185075952D01*
X198625476Y-185647380D01*
X199244523Y-185647380D01*
X199625476Y-184742619D02*
X199673095Y-184695000D01*
X199768333Y-184647380D01*
X200006428Y-184647380D01*
X200101666Y-184695000D01*
X200149285Y-184742619D01*
X200196904Y-184837857D01*
X200196904Y-184933095D01*
X200149285Y-185075952D01*
X199577857Y-185647380D01*
X200196904Y-185647380D01*
X87497833Y-135006042D02*
X87450214Y-135053661D01*
X87307357Y-135101280D01*
X87212119Y-135101280D01*
X87069261Y-135053661D01*
X86974023Y-134958423D01*
X86926404Y-134863185D01*
X86878785Y-134672709D01*
X86878785Y-134529852D01*
X86926404Y-134339376D01*
X86974023Y-134244138D01*
X87069261Y-134148900D01*
X87212119Y-134101280D01*
X87307357Y-134101280D01*
X87450214Y-134148900D01*
X87497833Y-134196519D01*
X88354976Y-134101280D02*
X88164500Y-134101280D01*
X88069261Y-134148900D01*
X88021642Y-134196519D01*
X87926404Y-134339376D01*
X87878785Y-134529852D01*
X87878785Y-134910804D01*
X87926404Y-135006042D01*
X87974023Y-135053661D01*
X88069261Y-135101280D01*
X88259738Y-135101280D01*
X88354976Y-135053661D01*
X88402595Y-135006042D01*
X88450214Y-134910804D01*
X88450214Y-134672709D01*
X88402595Y-134577471D01*
X88354976Y-134529852D01*
X88259738Y-134482233D01*
X88069261Y-134482233D01*
X87974023Y-134529852D01*
X87926404Y-134577471D01*
X87878785Y-134672709D01*
X87497833Y-132496042D02*
X87450214Y-132543661D01*
X87307357Y-132591280D01*
X87212119Y-132591280D01*
X87069261Y-132543661D01*
X86974023Y-132448423D01*
X86926404Y-132353185D01*
X86878785Y-132162709D01*
X86878785Y-132019852D01*
X86926404Y-131829376D01*
X86974023Y-131734138D01*
X87069261Y-131638900D01*
X87212119Y-131591280D01*
X87307357Y-131591280D01*
X87450214Y-131638900D01*
X87497833Y-131686519D01*
X87831166Y-131591280D02*
X88497833Y-131591280D01*
X88069261Y-132591280D01*
X198692142Y-182542142D02*
X198644523Y-182589761D01*
X198501666Y-182637380D01*
X198406428Y-182637380D01*
X198263571Y-182589761D01*
X198168333Y-182494523D01*
X198120714Y-182399285D01*
X198073095Y-182208809D01*
X198073095Y-182065952D01*
X198120714Y-181875476D01*
X198168333Y-181780238D01*
X198263571Y-181685000D01*
X198406428Y-181637380D01*
X198501666Y-181637380D01*
X198644523Y-181685000D01*
X198692142Y-181732619D01*
X199644523Y-182637380D02*
X199073095Y-182637380D01*
X199358809Y-182637380D02*
X199358809Y-181637380D01*
X199263571Y-181780238D01*
X199168333Y-181875476D01*
X199073095Y-181923095D01*
X200501666Y-181637380D02*
X200311190Y-181637380D01*
X200215952Y-181685000D01*
X200168333Y-181732619D01*
X200073095Y-181875476D01*
X200025476Y-182065952D01*
X200025476Y-182446904D01*
X200073095Y-182542142D01*
X200120714Y-182589761D01*
X200215952Y-182637380D01*
X200406428Y-182637380D01*
X200501666Y-182589761D01*
X200549285Y-182542142D01*
X200596904Y-182446904D01*
X200596904Y-182208809D01*
X200549285Y-182113571D01*
X200501666Y-182065952D01*
X200406428Y-182018333D01*
X200215952Y-182018333D01*
X200120714Y-182065952D01*
X200073095Y-182113571D01*
X200025476Y-182208809D01*
X108359166Y-149512380D02*
X108359166Y-150226666D01*
X108311547Y-150369523D01*
X108216309Y-150464761D01*
X108073452Y-150512380D01*
X107978214Y-150512380D01*
X108740119Y-149512380D02*
X109359166Y-149512380D01*
X109025833Y-149893333D01*
X109168690Y-149893333D01*
X109263928Y-149940952D01*
X109311547Y-149988571D01*
X109359166Y-150083809D01*
X109359166Y-150321904D01*
X109311547Y-150417142D01*
X109263928Y-150464761D01*
X109168690Y-150512380D01*
X108882976Y-150512380D01*
X108787738Y-150464761D01*
X108740119Y-150417142D01*
X146352142Y-164272142D02*
X146304523Y-164319761D01*
X146161666Y-164367380D01*
X146066428Y-164367380D01*
X145923571Y-164319761D01*
X145828333Y-164224523D01*
X145780714Y-164129285D01*
X145733095Y-163938809D01*
X145733095Y-163795952D01*
X145780714Y-163605476D01*
X145828333Y-163510238D01*
X145923571Y-163415000D01*
X146066428Y-163367380D01*
X146161666Y-163367380D01*
X146304523Y-163415000D01*
X146352142Y-163462619D01*
X146733095Y-163462619D02*
X146780714Y-163415000D01*
X146875952Y-163367380D01*
X147114047Y-163367380D01*
X147209285Y-163415000D01*
X147256904Y-163462619D01*
X147304523Y-163557857D01*
X147304523Y-163653095D01*
X147256904Y-163795952D01*
X146685476Y-164367380D01*
X147304523Y-164367380D01*
X148161666Y-163367380D02*
X147971190Y-163367380D01*
X147875952Y-163415000D01*
X147828333Y-163462619D01*
X147733095Y-163605476D01*
X147685476Y-163795952D01*
X147685476Y-164176904D01*
X147733095Y-164272142D01*
X147780714Y-164319761D01*
X147875952Y-164367380D01*
X148066428Y-164367380D01*
X148161666Y-164319761D01*
X148209285Y-164272142D01*
X148256904Y-164176904D01*
X148256904Y-163938809D01*
X148209285Y-163843571D01*
X148161666Y-163795952D01*
X148066428Y-163748333D01*
X147875952Y-163748333D01*
X147780714Y-163795952D01*
X147733095Y-163843571D01*
X147685476Y-163938809D01*
X221612142Y-153732142D02*
X221564523Y-153779761D01*
X221421666Y-153827380D01*
X221326428Y-153827380D01*
X221183571Y-153779761D01*
X221088333Y-153684523D01*
X221040714Y-153589285D01*
X220993095Y-153398809D01*
X220993095Y-153255952D01*
X221040714Y-153065476D01*
X221088333Y-152970238D01*
X221183571Y-152875000D01*
X221326428Y-152827380D01*
X221421666Y-152827380D01*
X221564523Y-152875000D01*
X221612142Y-152922619D01*
X222564523Y-153827380D02*
X221993095Y-153827380D01*
X222278809Y-153827380D02*
X222278809Y-152827380D01*
X222183571Y-152970238D01*
X222088333Y-153065476D01*
X221993095Y-153113095D01*
X223040714Y-153827380D02*
X223231190Y-153827380D01*
X223326428Y-153779761D01*
X223374047Y-153732142D01*
X223469285Y-153589285D01*
X223516904Y-153398809D01*
X223516904Y-153017857D01*
X223469285Y-152922619D01*
X223421666Y-152875000D01*
X223326428Y-152827380D01*
X223135952Y-152827380D01*
X223040714Y-152875000D01*
X222993095Y-152922619D01*
X222945476Y-153017857D01*
X222945476Y-153255952D01*
X222993095Y-153351190D01*
X223040714Y-153398809D01*
X223135952Y-153446428D01*
X223326428Y-153446428D01*
X223421666Y-153398809D01*
X223469285Y-153351190D01*
X223516904Y-153255952D01*
X225622142Y-153732142D02*
X225574523Y-153779761D01*
X225431666Y-153827380D01*
X225336428Y-153827380D01*
X225193571Y-153779761D01*
X225098333Y-153684523D01*
X225050714Y-153589285D01*
X225003095Y-153398809D01*
X225003095Y-153255952D01*
X225050714Y-153065476D01*
X225098333Y-152970238D01*
X225193571Y-152875000D01*
X225336428Y-152827380D01*
X225431666Y-152827380D01*
X225574523Y-152875000D01*
X225622142Y-152922619D01*
X226003095Y-152922619D02*
X226050714Y-152875000D01*
X226145952Y-152827380D01*
X226384047Y-152827380D01*
X226479285Y-152875000D01*
X226526904Y-152922619D01*
X226574523Y-153017857D01*
X226574523Y-153113095D01*
X226526904Y-153255952D01*
X225955476Y-153827380D01*
X226574523Y-153827380D01*
X227479285Y-152827380D02*
X227003095Y-152827380D01*
X226955476Y-153303571D01*
X227003095Y-153255952D01*
X227098333Y-153208333D01*
X227336428Y-153208333D01*
X227431666Y-153255952D01*
X227479285Y-153303571D01*
X227526904Y-153398809D01*
X227526904Y-153636904D01*
X227479285Y-153732142D01*
X227431666Y-153779761D01*
X227336428Y-153827380D01*
X227098333Y-153827380D01*
X227003095Y-153779761D01*
X226955476Y-153732142D01*
X130732095Y-105051180D02*
X130732095Y-105860704D01*
X130779714Y-105955942D01*
X130827333Y-106003561D01*
X130922571Y-106051180D01*
X131113047Y-106051180D01*
X131208285Y-106003561D01*
X131255904Y-105955942D01*
X131303523Y-105860704D01*
X131303523Y-105051180D01*
X131827333Y-106051180D02*
X132017809Y-106051180D01*
X132113047Y-106003561D01*
X132160666Y-105955942D01*
X132255904Y-105813085D01*
X132303523Y-105622609D01*
X132303523Y-105241657D01*
X132255904Y-105146419D01*
X132208285Y-105098800D01*
X132113047Y-105051180D01*
X131922571Y-105051180D01*
X131827333Y-105098800D01*
X131779714Y-105146419D01*
X131732095Y-105241657D01*
X131732095Y-105479752D01*
X131779714Y-105574990D01*
X131827333Y-105622609D01*
X131922571Y-105670228D01*
X132113047Y-105670228D01*
X132208285Y-105622609D01*
X132255904Y-105574990D01*
X132303523Y-105479752D01*
X86187833Y-106861042D02*
X86140214Y-106908661D01*
X85997357Y-106956280D01*
X85902119Y-106956280D01*
X85759261Y-106908661D01*
X85664023Y-106813423D01*
X85616404Y-106718185D01*
X85568785Y-106527709D01*
X85568785Y-106384852D01*
X85616404Y-106194376D01*
X85664023Y-106099138D01*
X85759261Y-106003900D01*
X85902119Y-105956280D01*
X85997357Y-105956280D01*
X86140214Y-106003900D01*
X86187833Y-106051519D01*
X86568785Y-106051519D02*
X86616404Y-106003900D01*
X86711642Y-105956280D01*
X86949738Y-105956280D01*
X87044976Y-106003900D01*
X87092595Y-106051519D01*
X87140214Y-106146757D01*
X87140214Y-106241995D01*
X87092595Y-106384852D01*
X86521166Y-106956280D01*
X87140214Y-106956280D01*
X130255904Y-130183180D02*
X130255904Y-130992704D01*
X130303523Y-131087942D01*
X130351142Y-131135561D01*
X130446380Y-131183180D01*
X130636857Y-131183180D01*
X130732095Y-131135561D01*
X130779714Y-131087942D01*
X130827333Y-130992704D01*
X130827333Y-130183180D01*
X131827333Y-131183180D02*
X131255904Y-131183180D01*
X131541619Y-131183180D02*
X131541619Y-130183180D01*
X131446380Y-130326038D01*
X131351142Y-130421276D01*
X131255904Y-130468895D01*
X132446380Y-130183180D02*
X132541619Y-130183180D01*
X132636857Y-130230800D01*
X132684476Y-130278419D01*
X132732095Y-130373657D01*
X132779714Y-130564133D01*
X132779714Y-130802228D01*
X132732095Y-130992704D01*
X132684476Y-131087942D01*
X132636857Y-131135561D01*
X132541619Y-131183180D01*
X132446380Y-131183180D01*
X132351142Y-131135561D01*
X132303523Y-131087942D01*
X132255904Y-130992704D01*
X132208285Y-130802228D01*
X132208285Y-130564133D01*
X132255904Y-130373657D01*
X132303523Y-130278419D01*
X132351142Y-130230800D01*
X132446380Y-130183180D01*
X115550595Y-138940180D02*
X115550595Y-139749704D01*
X115598214Y-139844942D01*
X115645833Y-139892561D01*
X115741071Y-139940180D01*
X115931547Y-139940180D01*
X116026785Y-139892561D01*
X116074404Y-139844942D01*
X116122023Y-139749704D01*
X116122023Y-138940180D01*
X117026785Y-139273514D02*
X117026785Y-139940180D01*
X116788690Y-138892561D02*
X116550595Y-139606847D01*
X117169642Y-139606847D01*
X207042142Y-174492142D02*
X206994523Y-174539761D01*
X206851666Y-174587380D01*
X206756428Y-174587380D01*
X206613571Y-174539761D01*
X206518333Y-174444523D01*
X206470714Y-174349285D01*
X206423095Y-174158809D01*
X206423095Y-174015952D01*
X206470714Y-173825476D01*
X206518333Y-173730238D01*
X206613571Y-173635000D01*
X206756428Y-173587380D01*
X206851666Y-173587380D01*
X206994523Y-173635000D01*
X207042142Y-173682619D01*
X207994523Y-174587380D02*
X207423095Y-174587380D01*
X207708809Y-174587380D02*
X207708809Y-173587380D01*
X207613571Y-173730238D01*
X207518333Y-173825476D01*
X207423095Y-173873095D01*
X208327857Y-173587380D02*
X208994523Y-173587380D01*
X208565952Y-174587380D01*
X177574166Y-103640280D02*
X177574166Y-104354566D01*
X177526547Y-104497423D01*
X177431309Y-104592661D01*
X177288452Y-104640280D01*
X177193214Y-104640280D01*
X178574166Y-104640280D02*
X178002738Y-104640280D01*
X178288452Y-104640280D02*
X178288452Y-103640280D01*
X178193214Y-103783138D01*
X178097976Y-103878376D01*
X178002738Y-103925995D01*
X211891666Y-138977380D02*
X211891666Y-139691666D01*
X211844047Y-139834523D01*
X211748809Y-139929761D01*
X211605952Y-139977380D01*
X211510714Y-139977380D01*
X212320238Y-139072619D02*
X212367857Y-139025000D01*
X212463095Y-138977380D01*
X212701190Y-138977380D01*
X212796428Y-139025000D01*
X212844047Y-139072619D01*
X212891666Y-139167857D01*
X212891666Y-139263095D01*
X212844047Y-139405952D01*
X212272619Y-139977380D01*
X212891666Y-139977380D01*
X115550595Y-129948580D02*
X115550595Y-130758104D01*
X115598214Y-130853342D01*
X115645833Y-130900961D01*
X115741071Y-130948580D01*
X115931547Y-130948580D01*
X116026785Y-130900961D01*
X116074404Y-130853342D01*
X116122023Y-130758104D01*
X116122023Y-129948580D01*
X116502976Y-129948580D02*
X117122023Y-129948580D01*
X116788690Y-130329533D01*
X116931547Y-130329533D01*
X117026785Y-130377152D01*
X117074404Y-130424771D01*
X117122023Y-130520009D01*
X117122023Y-130758104D01*
X117074404Y-130853342D01*
X117026785Y-130900961D01*
X116931547Y-130948580D01*
X116645833Y-130948580D01*
X116550595Y-130900961D01*
X116502976Y-130853342D01*
X212862142Y-158772142D02*
X212814523Y-158819761D01*
X212671666Y-158867380D01*
X212576428Y-158867380D01*
X212433571Y-158819761D01*
X212338333Y-158724523D01*
X212290714Y-158629285D01*
X212243095Y-158438809D01*
X212243095Y-158295952D01*
X212290714Y-158105476D01*
X212338333Y-158010238D01*
X212433571Y-157915000D01*
X212576428Y-157867380D01*
X212671666Y-157867380D01*
X212814523Y-157915000D01*
X212862142Y-157962619D01*
X213243095Y-157962619D02*
X213290714Y-157915000D01*
X213385952Y-157867380D01*
X213624047Y-157867380D01*
X213719285Y-157915000D01*
X213766904Y-157962619D01*
X213814523Y-158057857D01*
X213814523Y-158153095D01*
X213766904Y-158295952D01*
X213195476Y-158867380D01*
X213814523Y-158867380D01*
X214671666Y-158200714D02*
X214671666Y-158867380D01*
X214433571Y-157819761D02*
X214195476Y-158534047D01*
X214814523Y-158534047D01*
X52819642Y-108902642D02*
X52772023Y-108950261D01*
X52629166Y-108997880D01*
X52533928Y-108997880D01*
X52391071Y-108950261D01*
X52295833Y-108855023D01*
X52248214Y-108759785D01*
X52200595Y-108569309D01*
X52200595Y-108426452D01*
X52248214Y-108235976D01*
X52295833Y-108140738D01*
X52391071Y-108045500D01*
X52533928Y-107997880D01*
X52629166Y-107997880D01*
X52772023Y-108045500D01*
X52819642Y-108093119D01*
X53772023Y-108997880D02*
X53200595Y-108997880D01*
X53486309Y-108997880D02*
X53486309Y-107997880D01*
X53391071Y-108140738D01*
X53295833Y-108235976D01*
X53200595Y-108283595D01*
X54391071Y-107997880D02*
X54486309Y-107997880D01*
X54581547Y-108045500D01*
X54629166Y-108093119D01*
X54676785Y-108188357D01*
X54724404Y-108378833D01*
X54724404Y-108616928D01*
X54676785Y-108807404D01*
X54629166Y-108902642D01*
X54581547Y-108950261D01*
X54486309Y-108997880D01*
X54391071Y-108997880D01*
X54295833Y-108950261D01*
X54248214Y-108902642D01*
X54200595Y-108807404D01*
X54152976Y-108616928D01*
X54152976Y-108378833D01*
X54200595Y-108188357D01*
X54248214Y-108093119D01*
X54295833Y-108045500D01*
X54391071Y-107997880D01*
D11*
X88785242Y-151925400D02*
X89259758Y-151925400D01*
X88785242Y-150880400D02*
X89259758Y-150880400D01*
X82677242Y-138496400D02*
X83151758Y-138496400D01*
X82677242Y-139541400D02*
X83151758Y-139541400D01*
X144565000Y-142050900D02*
X146765000Y-142050900D01*
X144565000Y-148820900D02*
X148165000Y-148820900D01*
X144565000Y-148820900D02*
X142365000Y-148820900D01*
X144565000Y-142050900D02*
X142365000Y-142050900D01*
X144565000Y-134989700D02*
X142365000Y-134989700D01*
X144565000Y-141759700D02*
X148165000Y-141759700D01*
X144565000Y-134989700D02*
X146765000Y-134989700D01*
X144565000Y-141759700D02*
X142365000Y-141759700D01*
X204050000Y-94120000D02*
X200140000Y-94120000D01*
X200140000Y-94120000D02*
X200140000Y-95990000D01*
X200140000Y-95990000D02*
X204050000Y-95990000D01*
X91533920Y-133058900D02*
X91815080Y-133058900D01*
X91533920Y-134078900D02*
X91815080Y-134078900D01*
X55112500Y-100095500D02*
X55112500Y-102695500D01*
X52452500Y-102695500D02*
X55112500Y-102695500D01*
X52452500Y-98825500D02*
X52452500Y-97495500D01*
X52452500Y-97495500D02*
X53782500Y-97495500D01*
X52452500Y-100095500D02*
X55112500Y-100095500D01*
X52452500Y-100095500D02*
X52452500Y-102695500D01*
X217814420Y-103295000D02*
X218095580Y-103295000D01*
X217814420Y-102275000D02*
X218095580Y-102275000D01*
X226924420Y-152305000D02*
X227205580Y-152305000D01*
X226924420Y-151285000D02*
X227205580Y-151285000D01*
X225737742Y-102262500D02*
X226212258Y-102262500D01*
X225737742Y-103307500D02*
X226212258Y-103307500D01*
X213364420Y-162865000D02*
X213645580Y-162865000D01*
X213364420Y-161845000D02*
X213645580Y-161845000D01*
X78819500Y-109188900D02*
X82729500Y-109188900D01*
X82729500Y-107318900D02*
X78819500Y-107318900D01*
X78819500Y-107318900D02*
X78819500Y-109188900D01*
X88988442Y-149690200D02*
X89462958Y-149690200D01*
X88988442Y-148645200D02*
X89462958Y-148645200D01*
X76774500Y-140178900D02*
X76774500Y-140408900D01*
X79494500Y-140178900D02*
X79494500Y-141488900D01*
X75634500Y-140408900D02*
X76774500Y-140408900D01*
X76774500Y-140178900D02*
X79494500Y-140178900D01*
X79494500Y-144898900D02*
X76774500Y-144898900D01*
X76774500Y-144898900D02*
X76774500Y-144668900D01*
X79494500Y-143588900D02*
X79494500Y-144898900D01*
X229844420Y-103295000D02*
X230125580Y-103295000D01*
X229844420Y-102275000D02*
X230125580Y-102275000D01*
X241777742Y-103307500D02*
X242252258Y-103307500D01*
X241777742Y-102262500D02*
X242252258Y-102262500D01*
X130904420Y-174385000D02*
X131185580Y-174385000D01*
X130904420Y-175405000D02*
X131185580Y-175405000D01*
X221824420Y-105805000D02*
X222105580Y-105805000D01*
X221824420Y-104785000D02*
X222105580Y-104785000D01*
X79387242Y-118781400D02*
X79861758Y-118781400D01*
X79387242Y-119826400D02*
X79861758Y-119826400D01*
X84773920Y-111593900D02*
X85055080Y-111593900D01*
X84773920Y-110573900D02*
X85055080Y-110573900D01*
X53225242Y-105478000D02*
X53699758Y-105478000D01*
X53225242Y-104433000D02*
X53699758Y-104433000D01*
X75754500Y-135908900D02*
X78414500Y-135908900D01*
X75754500Y-134638900D02*
X75754500Y-133308900D01*
X78414500Y-135908900D02*
X78414500Y-138508900D01*
X75754500Y-135908900D02*
X75754500Y-138508900D01*
X75754500Y-133308900D02*
X77084500Y-133308900D01*
X75754500Y-138508900D02*
X78414500Y-138508900D01*
X79984500Y-137163900D02*
X85084500Y-137163900D01*
X79984500Y-132913900D02*
X79984500Y-137163900D01*
X233757742Y-102262500D02*
X234232258Y-102262500D01*
X233757742Y-103307500D02*
X234232258Y-103307500D01*
X76623920Y-146308900D02*
X76905080Y-146308900D01*
X76623920Y-147328900D02*
X76905080Y-147328900D01*
X217374420Y-160355000D02*
X217655580Y-160355000D01*
X217374420Y-159335000D02*
X217655580Y-159335000D01*
X53321920Y-107975500D02*
X53603080Y-107975500D01*
X53321920Y-106955500D02*
X53603080Y-106955500D01*
X116312500Y-121328329D02*
X118512500Y-121328329D01*
X116312500Y-121328329D02*
X112712500Y-121328329D01*
X116312500Y-128098329D02*
X114112500Y-128098329D01*
X116312500Y-128098329D02*
X118512500Y-128098329D01*
X244402936Y-94215000D02*
X245607064Y-94215000D01*
X244402936Y-96035000D02*
X245607064Y-96035000D01*
X154981116Y-119926425D02*
X154486142Y-120421400D01*
X174101284Y-120916375D02*
X174596258Y-120421400D01*
X154486142Y-120421400D02*
X154981116Y-120916375D01*
X174596258Y-120421400D02*
X174101284Y-119926425D01*
X165036175Y-129981484D02*
X164541200Y-130476458D01*
X164046225Y-110861316D02*
X164541200Y-110366342D01*
X164541200Y-110366342D02*
X165036175Y-110861316D01*
X154981116Y-120916375D02*
X154068949Y-121828542D01*
X164541200Y-130476458D02*
X164046225Y-129981484D01*
X222393748Y-151310000D02*
X222916252Y-151310000D01*
X222393748Y-152780000D02*
X222916252Y-152780000D01*
X152957742Y-152317500D02*
X153432258Y-152317500D01*
X152957742Y-151272500D02*
X153432258Y-151272500D01*
X213364420Y-164355000D02*
X213645580Y-164355000D01*
X213364420Y-165375000D02*
X213645580Y-165375000D01*
X79254500Y-114443900D02*
X81914500Y-114443900D01*
X79254500Y-117043900D02*
X81914500Y-117043900D01*
X81914500Y-114443900D02*
X81914500Y-117043900D01*
X79254500Y-111843900D02*
X80584500Y-111843900D01*
X79254500Y-114443900D02*
X79254500Y-117043900D01*
X79254500Y-113173900D02*
X79254500Y-111843900D01*
X84773920Y-114103900D02*
X85055080Y-114103900D01*
X84773920Y-113083900D02*
X85055080Y-113083900D01*
X87427242Y-138066400D02*
X87901758Y-138066400D01*
X87427242Y-139111400D02*
X87901758Y-139111400D01*
X175441200Y-136559000D02*
X175841200Y-136559000D01*
X153641200Y-147159000D02*
X153241200Y-147159000D01*
X153641200Y-148359000D02*
X153641200Y-147159000D01*
X153241200Y-147159000D02*
X153241200Y-136559000D01*
X153241200Y-136559000D02*
X153641200Y-136559000D01*
X175441200Y-147159000D02*
X175841200Y-147159000D01*
X175841200Y-147159000D02*
X175841200Y-136559000D01*
X237767742Y-102262500D02*
X238242258Y-102262500D01*
X237767742Y-103307500D02*
X238242258Y-103307500D01*
X198794420Y-186115000D02*
X199075580Y-186115000D01*
X198794420Y-187135000D02*
X199075580Y-187135000D01*
X87523920Y-135568900D02*
X87805080Y-135568900D01*
X87523920Y-136588900D02*
X87805080Y-136588900D01*
X87523920Y-133058900D02*
X87805080Y-133058900D01*
X87523920Y-134078900D02*
X87805080Y-134078900D01*
X199073748Y-184600000D02*
X199596252Y-184600000D01*
X199073748Y-183130000D02*
X199596252Y-183130000D01*
X110752500Y-148000000D02*
X110752500Y-149060000D01*
X108692500Y-149060000D02*
X106632500Y-149060000D01*
X108692500Y-147000000D02*
X108692500Y-149060000D01*
X110752500Y-149060000D02*
X109692500Y-149060000D01*
X106632500Y-149060000D02*
X106632500Y-104940000D01*
X110752500Y-104940000D02*
X106632500Y-104940000D01*
X110752500Y-147000000D02*
X110752500Y-104940000D01*
X110752500Y-147000000D02*
X108692500Y-147000000D01*
X146854420Y-164835000D02*
X147135580Y-164835000D01*
X146854420Y-165855000D02*
X147135580Y-165855000D01*
X222114420Y-155315000D02*
X222395580Y-155315000D01*
X222114420Y-154295000D02*
X222395580Y-154295000D01*
X226124420Y-154295000D02*
X226405580Y-154295000D01*
X226124420Y-155315000D02*
X226405580Y-155315000D01*
X122294000Y-118718800D02*
X140694000Y-118718800D01*
D12*
X140694000Y-106478800D02*
X121294000Y-106478800D01*
D11*
X86093248Y-108918900D02*
X86615752Y-108918900D01*
X86093248Y-107448900D02*
X86615752Y-107448900D01*
X131494000Y-121620800D02*
X137394000Y-121620800D01*
X131494000Y-121620800D02*
X125594000Y-121620800D01*
X131494000Y-129940800D02*
X125594000Y-129940800D01*
X131494000Y-129940800D02*
X138694000Y-129940800D01*
X116312500Y-140302800D02*
X112712500Y-140302800D01*
X116312500Y-147072800D02*
X118512500Y-147072800D01*
X116312500Y-147072800D02*
X114112500Y-147072800D01*
X116312500Y-140302800D02*
X118512500Y-140302800D01*
X207544420Y-175055000D02*
X207825580Y-175055000D01*
X207544420Y-176075000D02*
X207825580Y-176075000D01*
X176577500Y-120547900D02*
X179237500Y-120547900D01*
X176577500Y-107787900D02*
X176577500Y-120547900D01*
X176577500Y-107787900D02*
X179237500Y-107787900D01*
X179237500Y-107787900D02*
X179237500Y-120547900D01*
X176577500Y-106517900D02*
X176577500Y-105187900D01*
X176577500Y-105187900D02*
X177907500Y-105187900D01*
X210895000Y-143125000D02*
X213555000Y-143125000D01*
X213555000Y-143125000D02*
X213555000Y-145725000D01*
X210895000Y-141855000D02*
X210895000Y-140525000D01*
X210895000Y-143125000D02*
X210895000Y-145725000D01*
X210895000Y-145725000D02*
X213555000Y-145725000D01*
X210895000Y-140525000D02*
X212225000Y-140525000D01*
X116312500Y-131311200D02*
X118512500Y-131311200D01*
X116312500Y-138081200D02*
X118512500Y-138081200D01*
X116312500Y-138081200D02*
X114112500Y-138081200D01*
X116312500Y-131311200D02*
X112712500Y-131311200D01*
X213364420Y-160355000D02*
X213645580Y-160355000D01*
X213364420Y-159335000D02*
X213645580Y-159335000D01*
X53321920Y-110485500D02*
X53603080Y-110485500D01*
X53321920Y-109465500D02*
X53603080Y-109465500D01*
%LPC*%
G36*
G01*
X87797500Y-151677900D02*
X87797500Y-151127900D01*
G75*
G02*
X87997500Y-150927900I200000J0D01*
G01*
X88397500Y-150927900D01*
G75*
G02*
X88597500Y-151127900I0J-200000D01*
G01*
X88597500Y-151677900D01*
G75*
G02*
X88397500Y-151877900I-200000J0D01*
G01*
X87997500Y-151877900D01*
G75*
G02*
X87797500Y-151677900I0J200000D01*
G01*
G37*
G36*
G01*
X89447500Y-151677900D02*
X89447500Y-151127900D01*
G75*
G02*
X89647500Y-150927900I200000J0D01*
G01*
X90047500Y-150927900D01*
G75*
G02*
X90247500Y-151127900I0J-200000D01*
G01*
X90247500Y-151677900D01*
G75*
G02*
X90047500Y-151877900I-200000J0D01*
G01*
X89647500Y-151877900D01*
G75*
G02*
X89447500Y-151677900I0J200000D01*
G01*
G37*
G36*
G01*
X81689500Y-139293900D02*
X81689500Y-138743900D01*
G75*
G02*
X81889500Y-138543900I200000J0D01*
G01*
X82289500Y-138543900D01*
G75*
G02*
X82489500Y-138743900I0J-200000D01*
G01*
X82489500Y-139293900D01*
G75*
G02*
X82289500Y-139493900I-200000J0D01*
G01*
X81889500Y-139493900D01*
G75*
G02*
X81689500Y-139293900I0J200000D01*
G01*
G37*
G36*
G01*
X83339500Y-139293900D02*
X83339500Y-138743900D01*
G75*
G02*
X83539500Y-138543900I200000J0D01*
G01*
X83939500Y-138543900D01*
G75*
G02*
X84139500Y-138743900I0J-200000D01*
G01*
X84139500Y-139293900D01*
G75*
G02*
X83939500Y-139493900I-200000J0D01*
G01*
X83539500Y-139493900D01*
G75*
G02*
X83339500Y-139293900I0J200000D01*
G01*
G37*
G36*
G01*
X148165000Y-148260900D02*
X148165000Y-148460900D01*
G75*
G02*
X148065000Y-148560900I-100000J0D01*
G01*
X146790000Y-148560900D01*
G75*
G02*
X146690000Y-148460900I0J100000D01*
G01*
X146690000Y-148260900D01*
G75*
G02*
X146790000Y-148160900I100000J0D01*
G01*
X148065000Y-148160900D01*
G75*
G02*
X148165000Y-148260900I0J-100000D01*
G01*
G37*
G36*
G01*
X148165000Y-147610900D02*
X148165000Y-147810900D01*
G75*
G02*
X148065000Y-147910900I-100000J0D01*
G01*
X146790000Y-147910900D01*
G75*
G02*
X146690000Y-147810900I0J100000D01*
G01*
X146690000Y-147610900D01*
G75*
G02*
X146790000Y-147510900I100000J0D01*
G01*
X148065000Y-147510900D01*
G75*
G02*
X148165000Y-147610900I0J-100000D01*
G01*
G37*
G36*
G01*
X148165000Y-146960900D02*
X148165000Y-147160900D01*
G75*
G02*
X148065000Y-147260900I-100000J0D01*
G01*
X146790000Y-147260900D01*
G75*
G02*
X146690000Y-147160900I0J100000D01*
G01*
X146690000Y-146960900D01*
G75*
G02*
X146790000Y-146860900I100000J0D01*
G01*
X148065000Y-146860900D01*
G75*
G02*
X148165000Y-146960900I0J-100000D01*
G01*
G37*
G36*
G01*
X148165000Y-146310900D02*
X148165000Y-146510900D01*
G75*
G02*
X148065000Y-146610900I-100000J0D01*
G01*
X146790000Y-146610900D01*
G75*
G02*
X146690000Y-146510900I0J100000D01*
G01*
X146690000Y-146310900D01*
G75*
G02*
X146790000Y-146210900I100000J0D01*
G01*
X148065000Y-146210900D01*
G75*
G02*
X148165000Y-146310900I0J-100000D01*
G01*
G37*
G36*
G01*
X148165000Y-145660900D02*
X148165000Y-145860900D01*
G75*
G02*
X148065000Y-145960900I-100000J0D01*
G01*
X146790000Y-145960900D01*
G75*
G02*
X146690000Y-145860900I0J100000D01*
G01*
X146690000Y-145660900D01*
G75*
G02*
X146790000Y-145560900I100000J0D01*
G01*
X148065000Y-145560900D01*
G75*
G02*
X148165000Y-145660900I0J-100000D01*
G01*
G37*
G36*
G01*
X148165000Y-145010900D02*
X148165000Y-145210900D01*
G75*
G02*
X148065000Y-145310900I-100000J0D01*
G01*
X146790000Y-145310900D01*
G75*
G02*
X146690000Y-145210900I0J100000D01*
G01*
X146690000Y-145010900D01*
G75*
G02*
X146790000Y-144910900I100000J0D01*
G01*
X148065000Y-144910900D01*
G75*
G02*
X148165000Y-145010900I0J-100000D01*
G01*
G37*
G36*
G01*
X148165000Y-144360900D02*
X148165000Y-144560900D01*
G75*
G02*
X148065000Y-144660900I-100000J0D01*
G01*
X146790000Y-144660900D01*
G75*
G02*
X146690000Y-144560900I0J100000D01*
G01*
X146690000Y-144360900D01*
G75*
G02*
X146790000Y-144260900I100000J0D01*
G01*
X148065000Y-144260900D01*
G75*
G02*
X148165000Y-144360900I0J-100000D01*
G01*
G37*
G36*
G01*
X148165000Y-143710900D02*
X148165000Y-143910900D01*
G75*
G02*
X148065000Y-144010900I-100000J0D01*
G01*
X146790000Y-144010900D01*
G75*
G02*
X146690000Y-143910900I0J100000D01*
G01*
X146690000Y-143710900D01*
G75*
G02*
X146790000Y-143610900I100000J0D01*
G01*
X148065000Y-143610900D01*
G75*
G02*
X148165000Y-143710900I0J-100000D01*
G01*
G37*
G36*
G01*
X148165000Y-143060900D02*
X148165000Y-143260900D01*
G75*
G02*
X148065000Y-143360900I-100000J0D01*
G01*
X146790000Y-143360900D01*
G75*
G02*
X146690000Y-143260900I0J100000D01*
G01*
X146690000Y-143060900D01*
G75*
G02*
X146790000Y-142960900I100000J0D01*
G01*
X148065000Y-142960900D01*
G75*
G02*
X148165000Y-143060900I0J-100000D01*
G01*
G37*
G36*
G01*
X148165000Y-142410900D02*
X148165000Y-142610900D01*
G75*
G02*
X148065000Y-142710900I-100000J0D01*
G01*
X146790000Y-142710900D01*
G75*
G02*
X146690000Y-142610900I0J100000D01*
G01*
X146690000Y-142410900D01*
G75*
G02*
X146790000Y-142310900I100000J0D01*
G01*
X148065000Y-142310900D01*
G75*
G02*
X148165000Y-142410900I0J-100000D01*
G01*
G37*
G36*
G01*
X142440000Y-142410900D02*
X142440000Y-142610900D01*
G75*
G02*
X142340000Y-142710900I-100000J0D01*
G01*
X141065000Y-142710900D01*
G75*
G02*
X140965000Y-142610900I0J100000D01*
G01*
X140965000Y-142410900D01*
G75*
G02*
X141065000Y-142310900I100000J0D01*
G01*
X142340000Y-142310900D01*
G75*
G02*
X142440000Y-142410900I0J-100000D01*
G01*
G37*
G36*
G01*
X142440000Y-143060900D02*
X142440000Y-143260900D01*
G75*
G02*
X142340000Y-143360900I-100000J0D01*
G01*
X141065000Y-143360900D01*
G75*
G02*
X140965000Y-143260900I0J100000D01*
G01*
X140965000Y-143060900D01*
G75*
G02*
X141065000Y-142960900I100000J0D01*
G01*
X142340000Y-142960900D01*
G75*
G02*
X142440000Y-143060900I0J-100000D01*
G01*
G37*
G36*
G01*
X142440000Y-143710900D02*
X142440000Y-143910900D01*
G75*
G02*
X142340000Y-144010900I-100000J0D01*
G01*
X141065000Y-144010900D01*
G75*
G02*
X140965000Y-143910900I0J100000D01*
G01*
X140965000Y-143710900D01*
G75*
G02*
X141065000Y-143610900I100000J0D01*
G01*
X142340000Y-143610900D01*
G75*
G02*
X142440000Y-143710900I0J-100000D01*
G01*
G37*
G36*
G01*
X142440000Y-144360900D02*
X142440000Y-144560900D01*
G75*
G02*
X142340000Y-144660900I-100000J0D01*
G01*
X141065000Y-144660900D01*
G75*
G02*
X140965000Y-144560900I0J100000D01*
G01*
X140965000Y-144360900D01*
G75*
G02*
X141065000Y-144260900I100000J0D01*
G01*
X142340000Y-144260900D01*
G75*
G02*
X142440000Y-144360900I0J-100000D01*
G01*
G37*
G36*
G01*
X142440000Y-145010900D02*
X142440000Y-145210900D01*
G75*
G02*
X142340000Y-145310900I-100000J0D01*
G01*
X141065000Y-145310900D01*
G75*
G02*
X140965000Y-145210900I0J100000D01*
G01*
X140965000Y-145010900D01*
G75*
G02*
X141065000Y-144910900I100000J0D01*
G01*
X142340000Y-144910900D01*
G75*
G02*
X142440000Y-145010900I0J-100000D01*
G01*
G37*
G36*
G01*
X142440000Y-145660900D02*
X142440000Y-145860900D01*
G75*
G02*
X142340000Y-145960900I-100000J0D01*
G01*
X141065000Y-145960900D01*
G75*
G02*
X140965000Y-145860900I0J100000D01*
G01*
X140965000Y-145660900D01*
G75*
G02*
X141065000Y-145560900I100000J0D01*
G01*
X142340000Y-145560900D01*
G75*
G02*
X142440000Y-145660900I0J-100000D01*
G01*
G37*
G36*
G01*
X142440000Y-146310900D02*
X142440000Y-146510900D01*
G75*
G02*
X142340000Y-146610900I-100000J0D01*
G01*
X141065000Y-146610900D01*
G75*
G02*
X140965000Y-146510900I0J100000D01*
G01*
X140965000Y-146310900D01*
G75*
G02*
X141065000Y-146210900I100000J0D01*
G01*
X142340000Y-146210900D01*
G75*
G02*
X142440000Y-146310900I0J-100000D01*
G01*
G37*
G36*
G01*
X142440000Y-146960900D02*
X142440000Y-147160900D01*
G75*
G02*
X142340000Y-147260900I-100000J0D01*
G01*
X141065000Y-147260900D01*
G75*
G02*
X140965000Y-147160900I0J100000D01*
G01*
X140965000Y-146960900D01*
G75*
G02*
X141065000Y-146860900I100000J0D01*
G01*
X142340000Y-146860900D01*
G75*
G02*
X142440000Y-146960900I0J-100000D01*
G01*
G37*
G36*
G01*
X142440000Y-147610900D02*
X142440000Y-147810900D01*
G75*
G02*
X142340000Y-147910900I-100000J0D01*
G01*
X141065000Y-147910900D01*
G75*
G02*
X140965000Y-147810900I0J100000D01*
G01*
X140965000Y-147610900D01*
G75*
G02*
X141065000Y-147510900I100000J0D01*
G01*
X142340000Y-147510900D01*
G75*
G02*
X142440000Y-147610900I0J-100000D01*
G01*
G37*
G36*
G01*
X142440000Y-148260900D02*
X142440000Y-148460900D01*
G75*
G02*
X142340000Y-148560900I-100000J0D01*
G01*
X141065000Y-148560900D01*
G75*
G02*
X140965000Y-148460900I0J100000D01*
G01*
X140965000Y-148260900D01*
G75*
G02*
X141065000Y-148160900I100000J0D01*
G01*
X142340000Y-148160900D01*
G75*
G02*
X142440000Y-148260900I0J-100000D01*
G01*
G37*
G36*
G01*
X148165000Y-141199700D02*
X148165000Y-141399700D01*
G75*
G02*
X148065000Y-141499700I-100000J0D01*
G01*
X146790000Y-141499700D01*
G75*
G02*
X146690000Y-141399700I0J100000D01*
G01*
X146690000Y-141199700D01*
G75*
G02*
X146790000Y-141099700I100000J0D01*
G01*
X148065000Y-141099700D01*
G75*
G02*
X148165000Y-141199700I0J-100000D01*
G01*
G37*
G36*
G01*
X148165000Y-140549700D02*
X148165000Y-140749700D01*
G75*
G02*
X148065000Y-140849700I-100000J0D01*
G01*
X146790000Y-140849700D01*
G75*
G02*
X146690000Y-140749700I0J100000D01*
G01*
X146690000Y-140549700D01*
G75*
G02*
X146790000Y-140449700I100000J0D01*
G01*
X148065000Y-140449700D01*
G75*
G02*
X148165000Y-140549700I0J-100000D01*
G01*
G37*
G36*
G01*
X148165000Y-139899700D02*
X148165000Y-140099700D01*
G75*
G02*
X148065000Y-140199700I-100000J0D01*
G01*
X146790000Y-140199700D01*
G75*
G02*
X146690000Y-140099700I0J100000D01*
G01*
X146690000Y-139899700D01*
G75*
G02*
X146790000Y-139799700I100000J0D01*
G01*
X148065000Y-139799700D01*
G75*
G02*
X148165000Y-139899700I0J-100000D01*
G01*
G37*
G36*
G01*
X148165000Y-139249700D02*
X148165000Y-139449700D01*
G75*
G02*
X148065000Y-139549700I-100000J0D01*
G01*
X146790000Y-139549700D01*
G75*
G02*
X146690000Y-139449700I0J100000D01*
G01*
X146690000Y-139249700D01*
G75*
G02*
X146790000Y-139149700I100000J0D01*
G01*
X148065000Y-139149700D01*
G75*
G02*
X148165000Y-139249700I0J-100000D01*
G01*
G37*
G36*
G01*
X148165000Y-138599700D02*
X148165000Y-138799700D01*
G75*
G02*
X148065000Y-138899700I-100000J0D01*
G01*
X146790000Y-138899700D01*
G75*
G02*
X146690000Y-138799700I0J100000D01*
G01*
X146690000Y-138599700D01*
G75*
G02*
X146790000Y-138499700I100000J0D01*
G01*
X148065000Y-138499700D01*
G75*
G02*
X148165000Y-138599700I0J-100000D01*
G01*
G37*
G36*
G01*
X148165000Y-137949700D02*
X148165000Y-138149700D01*
G75*
G02*
X148065000Y-138249700I-100000J0D01*
G01*
X146790000Y-138249700D01*
G75*
G02*
X146690000Y-138149700I0J100000D01*
G01*
X146690000Y-137949700D01*
G75*
G02*
X146790000Y-137849700I100000J0D01*
G01*
X148065000Y-137849700D01*
G75*
G02*
X148165000Y-137949700I0J-100000D01*
G01*
G37*
G36*
G01*
X148165000Y-137299700D02*
X148165000Y-137499700D01*
G75*
G02*
X148065000Y-137599700I-100000J0D01*
G01*
X146790000Y-137599700D01*
G75*
G02*
X146690000Y-137499700I0J100000D01*
G01*
X146690000Y-137299700D01*
G75*
G02*
X146790000Y-137199700I100000J0D01*
G01*
X148065000Y-137199700D01*
G75*
G02*
X148165000Y-137299700I0J-100000D01*
G01*
G37*
G36*
G01*
X148165000Y-136649700D02*
X148165000Y-136849700D01*
G75*
G02*
X148065000Y-136949700I-100000J0D01*
G01*
X146790000Y-136949700D01*
G75*
G02*
X146690000Y-136849700I0J100000D01*
G01*
X146690000Y-136649700D01*
G75*
G02*
X146790000Y-136549700I100000J0D01*
G01*
X148065000Y-136549700D01*
G75*
G02*
X148165000Y-136649700I0J-100000D01*
G01*
G37*
G36*
G01*
X148165000Y-135999700D02*
X148165000Y-136199700D01*
G75*
G02*
X148065000Y-136299700I-100000J0D01*
G01*
X146790000Y-136299700D01*
G75*
G02*
X146690000Y-136199700I0J100000D01*
G01*
X146690000Y-135999700D01*
G75*
G02*
X146790000Y-135899700I100000J0D01*
G01*
X148065000Y-135899700D01*
G75*
G02*
X148165000Y-135999700I0J-100000D01*
G01*
G37*
G36*
G01*
X148165000Y-135349700D02*
X148165000Y-135549700D01*
G75*
G02*
X148065000Y-135649700I-100000J0D01*
G01*
X146790000Y-135649700D01*
G75*
G02*
X146690000Y-135549700I0J100000D01*
G01*
X146690000Y-135349700D01*
G75*
G02*
X146790000Y-135249700I100000J0D01*
G01*
X148065000Y-135249700D01*
G75*
G02*
X148165000Y-135349700I0J-100000D01*
G01*
G37*
G36*
G01*
X142440000Y-135349700D02*
X142440000Y-135549700D01*
G75*
G02*
X142340000Y-135649700I-100000J0D01*
G01*
X141065000Y-135649700D01*
G75*
G02*
X140965000Y-135549700I0J100000D01*
G01*
X140965000Y-135349700D01*
G75*
G02*
X141065000Y-135249700I100000J0D01*
G01*
X142340000Y-135249700D01*
G75*
G02*
X142440000Y-135349700I0J-100000D01*
G01*
G37*
G36*
G01*
X142440000Y-135999700D02*
X142440000Y-136199700D01*
G75*
G02*
X142340000Y-136299700I-100000J0D01*
G01*
X141065000Y-136299700D01*
G75*
G02*
X140965000Y-136199700I0J100000D01*
G01*
X140965000Y-135999700D01*
G75*
G02*
X141065000Y-135899700I100000J0D01*
G01*
X142340000Y-135899700D01*
G75*
G02*
X142440000Y-135999700I0J-100000D01*
G01*
G37*
G36*
G01*
X142440000Y-136649700D02*
X142440000Y-136849700D01*
G75*
G02*
X142340000Y-136949700I-100000J0D01*
G01*
X141065000Y-136949700D01*
G75*
G02*
X140965000Y-136849700I0J100000D01*
G01*
X140965000Y-136649700D01*
G75*
G02*
X141065000Y-136549700I100000J0D01*
G01*
X142340000Y-136549700D01*
G75*
G02*
X142440000Y-136649700I0J-100000D01*
G01*
G37*
G36*
G01*
X142440000Y-137299700D02*
X142440000Y-137499700D01*
G75*
G02*
X142340000Y-137599700I-100000J0D01*
G01*
X141065000Y-137599700D01*
G75*
G02*
X140965000Y-137499700I0J100000D01*
G01*
X140965000Y-137299700D01*
G75*
G02*
X141065000Y-137199700I100000J0D01*
G01*
X142340000Y-137199700D01*
G75*
G02*
X142440000Y-137299700I0J-100000D01*
G01*
G37*
G36*
G01*
X142440000Y-137949700D02*
X142440000Y-138149700D01*
G75*
G02*
X142340000Y-138249700I-100000J0D01*
G01*
X141065000Y-138249700D01*
G75*
G02*
X140965000Y-138149700I0J100000D01*
G01*
X140965000Y-137949700D01*
G75*
G02*
X141065000Y-137849700I100000J0D01*
G01*
X142340000Y-137849700D01*
G75*
G02*
X142440000Y-137949700I0J-100000D01*
G01*
G37*
G36*
G01*
X142440000Y-138599700D02*
X142440000Y-138799700D01*
G75*
G02*
X142340000Y-138899700I-100000J0D01*
G01*
X141065000Y-138899700D01*
G75*
G02*
X140965000Y-138799700I0J100000D01*
G01*
X140965000Y-138599700D01*
G75*
G02*
X141065000Y-138499700I100000J0D01*
G01*
X142340000Y-138499700D01*
G75*
G02*
X142440000Y-138599700I0J-100000D01*
G01*
G37*
G36*
G01*
X142440000Y-139249700D02*
X142440000Y-139449700D01*
G75*
G02*
X142340000Y-139549700I-100000J0D01*
G01*
X141065000Y-139549700D01*
G75*
G02*
X140965000Y-139449700I0J100000D01*
G01*
X140965000Y-139249700D01*
G75*
G02*
X141065000Y-139149700I100000J0D01*
G01*
X142340000Y-139149700D01*
G75*
G02*
X142440000Y-139249700I0J-100000D01*
G01*
G37*
G36*
G01*
X142440000Y-139899700D02*
X142440000Y-140099700D01*
G75*
G02*
X142340000Y-140199700I-100000J0D01*
G01*
X141065000Y-140199700D01*
G75*
G02*
X140965000Y-140099700I0J100000D01*
G01*
X140965000Y-139899700D01*
G75*
G02*
X141065000Y-139799700I100000J0D01*
G01*
X142340000Y-139799700D01*
G75*
G02*
X142440000Y-139899700I0J-100000D01*
G01*
G37*
G36*
G01*
X142440000Y-140549700D02*
X142440000Y-140749700D01*
G75*
G02*
X142340000Y-140849700I-100000J0D01*
G01*
X141065000Y-140849700D01*
G75*
G02*
X140965000Y-140749700I0J100000D01*
G01*
X140965000Y-140549700D01*
G75*
G02*
X141065000Y-140449700I100000J0D01*
G01*
X142340000Y-140449700D01*
G75*
G02*
X142440000Y-140549700I0J-100000D01*
G01*
G37*
G36*
G01*
X142440000Y-141199700D02*
X142440000Y-141399700D01*
G75*
G02*
X142340000Y-141499700I-100000J0D01*
G01*
X141065000Y-141499700D01*
G75*
G02*
X140965000Y-141399700I0J100000D01*
G01*
X140965000Y-141199700D01*
G75*
G02*
X141065000Y-141099700I100000J0D01*
G01*
X142340000Y-141099700D01*
G75*
G02*
X142440000Y-141199700I0J-100000D01*
G01*
G37*
G36*
G01*
X200400000Y-95480000D02*
X200400000Y-94630000D01*
G75*
G02*
X200650000Y-94380000I250000J0D01*
G01*
X201550000Y-94380000D01*
G75*
G02*
X201800000Y-94630000I0J-250000D01*
G01*
X201800000Y-95480000D01*
G75*
G02*
X201550000Y-95730000I-250000J0D01*
G01*
X200650000Y-95730000D01*
G75*
G02*
X200400000Y-95480000I0J250000D01*
G01*
G37*
G36*
G01*
X203100000Y-95480000D02*
X203100000Y-94630000D01*
G75*
G02*
X203350000Y-94380000I250000J0D01*
G01*
X204250000Y-94380000D01*
G75*
G02*
X204500000Y-94630000I0J-250000D01*
G01*
X204500000Y-95480000D01*
G75*
G02*
X204250000Y-95730000I-250000J0D01*
G01*
X203350000Y-95730000D01*
G75*
G02*
X203100000Y-95480000I0J250000D01*
G01*
G37*
G36*
G01*
X90449500Y-133818900D02*
X90449500Y-133318900D01*
G75*
G02*
X90674500Y-133093900I225000J0D01*
G01*
X91124500Y-133093900D01*
G75*
G02*
X91349500Y-133318900I0J-225000D01*
G01*
X91349500Y-133818900D01*
G75*
G02*
X91124500Y-134043900I-225000J0D01*
G01*
X90674500Y-134043900D01*
G75*
G02*
X90449500Y-133818900I0J225000D01*
G01*
G37*
G36*
G01*
X91999500Y-133818900D02*
X91999500Y-133318900D01*
G75*
G02*
X92224500Y-133093900I225000J0D01*
G01*
X92674500Y-133093900D01*
G75*
G02*
X92899500Y-133318900I0J-225000D01*
G01*
X92899500Y-133818900D01*
G75*
G02*
X92674500Y-134043900I-225000J0D01*
G01*
X92224500Y-134043900D01*
G75*
G02*
X91999500Y-133818900I0J225000D01*
G01*
G37*
D13*
X53782500Y-98825500D03*
D14*
X53782500Y-101365500D03*
G36*
G01*
X216730000Y-103035000D02*
X216730000Y-102535000D01*
G75*
G02*
X216955000Y-102310000I225000J0D01*
G01*
X217405000Y-102310000D01*
G75*
G02*
X217630000Y-102535000I0J-225000D01*
G01*
X217630000Y-103035000D01*
G75*
G02*
X217405000Y-103260000I-225000J0D01*
G01*
X216955000Y-103260000D01*
G75*
G02*
X216730000Y-103035000I0J225000D01*
G01*
G37*
G36*
G01*
X218280000Y-103035000D02*
X218280000Y-102535000D01*
G75*
G02*
X218505000Y-102310000I225000J0D01*
G01*
X218955000Y-102310000D01*
G75*
G02*
X219180000Y-102535000I0J-225000D01*
G01*
X219180000Y-103035000D01*
G75*
G02*
X218955000Y-103260000I-225000J0D01*
G01*
X218505000Y-103260000D01*
G75*
G02*
X218280000Y-103035000I0J225000D01*
G01*
G37*
G36*
G01*
X225840000Y-152045000D02*
X225840000Y-151545000D01*
G75*
G02*
X226065000Y-151320000I225000J0D01*
G01*
X226515000Y-151320000D01*
G75*
G02*
X226740000Y-151545000I0J-225000D01*
G01*
X226740000Y-152045000D01*
G75*
G02*
X226515000Y-152270000I-225000J0D01*
G01*
X226065000Y-152270000D01*
G75*
G02*
X225840000Y-152045000I0J225000D01*
G01*
G37*
G36*
G01*
X227390000Y-152045000D02*
X227390000Y-151545000D01*
G75*
G02*
X227615000Y-151320000I225000J0D01*
G01*
X228065000Y-151320000D01*
G75*
G02*
X228290000Y-151545000I0J-225000D01*
G01*
X228290000Y-152045000D01*
G75*
G02*
X228065000Y-152270000I-225000J0D01*
G01*
X227615000Y-152270000D01*
G75*
G02*
X227390000Y-152045000I0J225000D01*
G01*
G37*
G36*
G01*
X224750000Y-103060000D02*
X224750000Y-102510000D01*
G75*
G02*
X224950000Y-102310000I200000J0D01*
G01*
X225350000Y-102310000D01*
G75*
G02*
X225550000Y-102510000I0J-200000D01*
G01*
X225550000Y-103060000D01*
G75*
G02*
X225350000Y-103260000I-200000J0D01*
G01*
X224950000Y-103260000D01*
G75*
G02*
X224750000Y-103060000I0J200000D01*
G01*
G37*
G36*
G01*
X226400000Y-103060000D02*
X226400000Y-102510000D01*
G75*
G02*
X226600000Y-102310000I200000J0D01*
G01*
X227000000Y-102310000D01*
G75*
G02*
X227200000Y-102510000I0J-200000D01*
G01*
X227200000Y-103060000D01*
G75*
G02*
X227000000Y-103260000I-200000J0D01*
G01*
X226600000Y-103260000D01*
G75*
G02*
X226400000Y-103060000I0J200000D01*
G01*
G37*
G36*
G01*
X212280000Y-162605000D02*
X212280000Y-162105000D01*
G75*
G02*
X212505000Y-161880000I225000J0D01*
G01*
X212955000Y-161880000D01*
G75*
G02*
X213180000Y-162105000I0J-225000D01*
G01*
X213180000Y-162605000D01*
G75*
G02*
X212955000Y-162830000I-225000J0D01*
G01*
X212505000Y-162830000D01*
G75*
G02*
X212280000Y-162605000I0J225000D01*
G01*
G37*
G36*
G01*
X213830000Y-162605000D02*
X213830000Y-162105000D01*
G75*
G02*
X214055000Y-161880000I225000J0D01*
G01*
X214505000Y-161880000D01*
G75*
G02*
X214730000Y-162105000I0J-225000D01*
G01*
X214730000Y-162605000D01*
G75*
G02*
X214505000Y-162830000I-225000J0D01*
G01*
X214055000Y-162830000D01*
G75*
G02*
X213830000Y-162605000I0J225000D01*
G01*
G37*
G36*
G01*
X79079500Y-108678900D02*
X79079500Y-107828900D01*
G75*
G02*
X79329500Y-107578900I250000J0D01*
G01*
X80229500Y-107578900D01*
G75*
G02*
X80479500Y-107828900I0J-250000D01*
G01*
X80479500Y-108678900D01*
G75*
G02*
X80229500Y-108928900I-250000J0D01*
G01*
X79329500Y-108928900D01*
G75*
G02*
X79079500Y-108678900I0J250000D01*
G01*
G37*
G36*
G01*
X81779500Y-108678900D02*
X81779500Y-107828900D01*
G75*
G02*
X82029500Y-107578900I250000J0D01*
G01*
X82929500Y-107578900D01*
G75*
G02*
X83179500Y-107828900I0J-250000D01*
G01*
X83179500Y-108678900D01*
G75*
G02*
X82929500Y-108928900I-250000J0D01*
G01*
X82029500Y-108928900D01*
G75*
G02*
X81779500Y-108678900I0J250000D01*
G01*
G37*
G36*
G01*
X88000700Y-149442700D02*
X88000700Y-148892700D01*
G75*
G02*
X88200700Y-148692700I200000J0D01*
G01*
X88600700Y-148692700D01*
G75*
G02*
X88800700Y-148892700I0J-200000D01*
G01*
X88800700Y-149442700D01*
G75*
G02*
X88600700Y-149642700I-200000J0D01*
G01*
X88200700Y-149642700D01*
G75*
G02*
X88000700Y-149442700I0J200000D01*
G01*
G37*
G36*
G01*
X89650700Y-149442700D02*
X89650700Y-148892700D01*
G75*
G02*
X89850700Y-148692700I200000J0D01*
G01*
X90250700Y-148692700D01*
G75*
G02*
X90450700Y-148892700I0J-200000D01*
G01*
X90450700Y-149442700D01*
G75*
G02*
X90250700Y-149642700I-200000J0D01*
G01*
X89850700Y-149642700D01*
G75*
G02*
X89650700Y-149442700I0J200000D01*
G01*
G37*
D15*
X76184500Y-141038900D03*
G36*
X80134500Y-143405400D02*
G01*
X77009500Y-143405400D01*
X77009500Y-142988900D01*
X75534500Y-142988900D01*
X75534500Y-142088900D01*
X77009500Y-142088900D01*
X77009500Y-141672400D01*
X80134500Y-141672400D01*
X80134500Y-143405400D01*
G37*
X76184500Y-144038900D03*
G36*
G01*
X228760000Y-103035000D02*
X228760000Y-102535000D01*
G75*
G02*
X228985000Y-102310000I225000J0D01*
G01*
X229435000Y-102310000D01*
G75*
G02*
X229660000Y-102535000I0J-225000D01*
G01*
X229660000Y-103035000D01*
G75*
G02*
X229435000Y-103260000I-225000J0D01*
G01*
X228985000Y-103260000D01*
G75*
G02*
X228760000Y-103035000I0J225000D01*
G01*
G37*
G36*
G01*
X230310000Y-103035000D02*
X230310000Y-102535000D01*
G75*
G02*
X230535000Y-102310000I225000J0D01*
G01*
X230985000Y-102310000D01*
G75*
G02*
X231210000Y-102535000I0J-225000D01*
G01*
X231210000Y-103035000D01*
G75*
G02*
X230985000Y-103260000I-225000J0D01*
G01*
X230535000Y-103260000D01*
G75*
G02*
X230310000Y-103035000I0J225000D01*
G01*
G37*
G36*
G01*
X240790000Y-103060000D02*
X240790000Y-102510000D01*
G75*
G02*
X240990000Y-102310000I200000J0D01*
G01*
X241390000Y-102310000D01*
G75*
G02*
X241590000Y-102510000I0J-200000D01*
G01*
X241590000Y-103060000D01*
G75*
G02*
X241390000Y-103260000I-200000J0D01*
G01*
X240990000Y-103260000D01*
G75*
G02*
X240790000Y-103060000I0J200000D01*
G01*
G37*
G36*
G01*
X242440000Y-103060000D02*
X242440000Y-102510000D01*
G75*
G02*
X242640000Y-102310000I200000J0D01*
G01*
X243040000Y-102310000D01*
G75*
G02*
X243240000Y-102510000I0J-200000D01*
G01*
X243240000Y-103060000D01*
G75*
G02*
X243040000Y-103260000I-200000J0D01*
G01*
X242640000Y-103260000D01*
G75*
G02*
X242440000Y-103060000I0J200000D01*
G01*
G37*
G36*
G01*
X129820000Y-175145000D02*
X129820000Y-174645000D01*
G75*
G02*
X130045000Y-174420000I225000J0D01*
G01*
X130495000Y-174420000D01*
G75*
G02*
X130720000Y-174645000I0J-225000D01*
G01*
X130720000Y-175145000D01*
G75*
G02*
X130495000Y-175370000I-225000J0D01*
G01*
X130045000Y-175370000D01*
G75*
G02*
X129820000Y-175145000I0J225000D01*
G01*
G37*
G36*
G01*
X131370000Y-175145000D02*
X131370000Y-174645000D01*
G75*
G02*
X131595000Y-174420000I225000J0D01*
G01*
X132045000Y-174420000D01*
G75*
G02*
X132270000Y-174645000I0J-225000D01*
G01*
X132270000Y-175145000D01*
G75*
G02*
X132045000Y-175370000I-225000J0D01*
G01*
X131595000Y-175370000D01*
G75*
G02*
X131370000Y-175145000I0J225000D01*
G01*
G37*
G36*
G01*
X220740000Y-105545000D02*
X220740000Y-105045000D01*
G75*
G02*
X220965000Y-104820000I225000J0D01*
G01*
X221415000Y-104820000D01*
G75*
G02*
X221640000Y-105045000I0J-225000D01*
G01*
X221640000Y-105545000D01*
G75*
G02*
X221415000Y-105770000I-225000J0D01*
G01*
X220965000Y-105770000D01*
G75*
G02*
X220740000Y-105545000I0J225000D01*
G01*
G37*
G36*
G01*
X222290000Y-105545000D02*
X222290000Y-105045000D01*
G75*
G02*
X222515000Y-104820000I225000J0D01*
G01*
X222965000Y-104820000D01*
G75*
G02*
X223190000Y-105045000I0J-225000D01*
G01*
X223190000Y-105545000D01*
G75*
G02*
X222965000Y-105770000I-225000J0D01*
G01*
X222515000Y-105770000D01*
G75*
G02*
X222290000Y-105545000I0J225000D01*
G01*
G37*
G36*
G01*
X78399500Y-119578900D02*
X78399500Y-119028900D01*
G75*
G02*
X78599500Y-118828900I200000J0D01*
G01*
X78999500Y-118828900D01*
G75*
G02*
X79199500Y-119028900I0J-200000D01*
G01*
X79199500Y-119578900D01*
G75*
G02*
X78999500Y-119778900I-200000J0D01*
G01*
X78599500Y-119778900D01*
G75*
G02*
X78399500Y-119578900I0J200000D01*
G01*
G37*
G36*
G01*
X80049500Y-119578900D02*
X80049500Y-119028900D01*
G75*
G02*
X80249500Y-118828900I200000J0D01*
G01*
X80649500Y-118828900D01*
G75*
G02*
X80849500Y-119028900I0J-200000D01*
G01*
X80849500Y-119578900D01*
G75*
G02*
X80649500Y-119778900I-200000J0D01*
G01*
X80249500Y-119778900D01*
G75*
G02*
X80049500Y-119578900I0J200000D01*
G01*
G37*
G36*
G01*
X83689500Y-111333900D02*
X83689500Y-110833900D01*
G75*
G02*
X83914500Y-110608900I225000J0D01*
G01*
X84364500Y-110608900D01*
G75*
G02*
X84589500Y-110833900I0J-225000D01*
G01*
X84589500Y-111333900D01*
G75*
G02*
X84364500Y-111558900I-225000J0D01*
G01*
X83914500Y-111558900D01*
G75*
G02*
X83689500Y-111333900I0J225000D01*
G01*
G37*
G36*
G01*
X85239500Y-111333900D02*
X85239500Y-110833900D01*
G75*
G02*
X85464500Y-110608900I225000J0D01*
G01*
X85914500Y-110608900D01*
G75*
G02*
X86139500Y-110833900I0J-225000D01*
G01*
X86139500Y-111333900D01*
G75*
G02*
X85914500Y-111558900I-225000J0D01*
G01*
X85464500Y-111558900D01*
G75*
G02*
X85239500Y-111333900I0J225000D01*
G01*
G37*
G36*
G01*
X52237500Y-105230500D02*
X52237500Y-104680500D01*
G75*
G02*
X52437500Y-104480500I200000J0D01*
G01*
X52837500Y-104480500D01*
G75*
G02*
X53037500Y-104680500I0J-200000D01*
G01*
X53037500Y-105230500D01*
G75*
G02*
X52837500Y-105430500I-200000J0D01*
G01*
X52437500Y-105430500D01*
G75*
G02*
X52237500Y-105230500I0J200000D01*
G01*
G37*
G36*
G01*
X53887500Y-105230500D02*
X53887500Y-104680500D01*
G75*
G02*
X54087500Y-104480500I200000J0D01*
G01*
X54487500Y-104480500D01*
G75*
G02*
X54687500Y-104680500I0J-200000D01*
G01*
X54687500Y-105230500D01*
G75*
G02*
X54487500Y-105430500I-200000J0D01*
G01*
X54087500Y-105430500D01*
G75*
G02*
X53887500Y-105230500I0J200000D01*
G01*
G37*
D13*
X77084500Y-134638900D03*
D14*
X77084500Y-137178900D03*
D16*
X81159500Y-136138900D03*
X83909500Y-136138900D03*
X83909500Y-133938900D03*
X81159500Y-133938900D03*
G36*
G01*
X232770000Y-103060000D02*
X232770000Y-102510000D01*
G75*
G02*
X232970000Y-102310000I200000J0D01*
G01*
X233370000Y-102310000D01*
G75*
G02*
X233570000Y-102510000I0J-200000D01*
G01*
X233570000Y-103060000D01*
G75*
G02*
X233370000Y-103260000I-200000J0D01*
G01*
X232970000Y-103260000D01*
G75*
G02*
X232770000Y-103060000I0J200000D01*
G01*
G37*
G36*
G01*
X234420000Y-103060000D02*
X234420000Y-102510000D01*
G75*
G02*
X234620000Y-102310000I200000J0D01*
G01*
X235020000Y-102310000D01*
G75*
G02*
X235220000Y-102510000I0J-200000D01*
G01*
X235220000Y-103060000D01*
G75*
G02*
X235020000Y-103260000I-200000J0D01*
G01*
X234620000Y-103260000D01*
G75*
G02*
X234420000Y-103060000I0J200000D01*
G01*
G37*
G36*
G01*
X75539500Y-147068900D02*
X75539500Y-146568900D01*
G75*
G02*
X75764500Y-146343900I225000J0D01*
G01*
X76214500Y-146343900D01*
G75*
G02*
X76439500Y-146568900I0J-225000D01*
G01*
X76439500Y-147068900D01*
G75*
G02*
X76214500Y-147293900I-225000J0D01*
G01*
X75764500Y-147293900D01*
G75*
G02*
X75539500Y-147068900I0J225000D01*
G01*
G37*
G36*
G01*
X77089500Y-147068900D02*
X77089500Y-146568900D01*
G75*
G02*
X77314500Y-146343900I225000J0D01*
G01*
X77764500Y-146343900D01*
G75*
G02*
X77989500Y-146568900I0J-225000D01*
G01*
X77989500Y-147068900D01*
G75*
G02*
X77764500Y-147293900I-225000J0D01*
G01*
X77314500Y-147293900D01*
G75*
G02*
X77089500Y-147068900I0J225000D01*
G01*
G37*
G36*
G01*
X216290000Y-160095000D02*
X216290000Y-159595000D01*
G75*
G02*
X216515000Y-159370000I225000J0D01*
G01*
X216965000Y-159370000D01*
G75*
G02*
X217190000Y-159595000I0J-225000D01*
G01*
X217190000Y-160095000D01*
G75*
G02*
X216965000Y-160320000I-225000J0D01*
G01*
X216515000Y-160320000D01*
G75*
G02*
X216290000Y-160095000I0J225000D01*
G01*
G37*
G36*
G01*
X217840000Y-160095000D02*
X217840000Y-159595000D01*
G75*
G02*
X218065000Y-159370000I225000J0D01*
G01*
X218515000Y-159370000D01*
G75*
G02*
X218740000Y-159595000I0J-225000D01*
G01*
X218740000Y-160095000D01*
G75*
G02*
X218515000Y-160320000I-225000J0D01*
G01*
X218065000Y-160320000D01*
G75*
G02*
X217840000Y-160095000I0J225000D01*
G01*
G37*
G36*
G01*
X52237500Y-107715500D02*
X52237500Y-107215500D01*
G75*
G02*
X52462500Y-106990500I225000J0D01*
G01*
X52912500Y-106990500D01*
G75*
G02*
X53137500Y-107215500I0J-225000D01*
G01*
X53137500Y-107715500D01*
G75*
G02*
X52912500Y-107940500I-225000J0D01*
G01*
X52462500Y-107940500D01*
G75*
G02*
X52237500Y-107715500I0J225000D01*
G01*
G37*
G36*
G01*
X53787500Y-107715500D02*
X53787500Y-107215500D01*
G75*
G02*
X54012500Y-106990500I225000J0D01*
G01*
X54462500Y-106990500D01*
G75*
G02*
X54687500Y-107215500I0J-225000D01*
G01*
X54687500Y-107715500D01*
G75*
G02*
X54462500Y-107940500I-225000J0D01*
G01*
X54012500Y-107940500D01*
G75*
G02*
X53787500Y-107715500I0J225000D01*
G01*
G37*
G36*
G01*
X112712500Y-121888329D02*
X112712500Y-121688329D01*
G75*
G02*
X112812500Y-121588329I100000J0D01*
G01*
X114087500Y-121588329D01*
G75*
G02*
X114187500Y-121688329I0J-100000D01*
G01*
X114187500Y-121888329D01*
G75*
G02*
X114087500Y-121988329I-100000J0D01*
G01*
X112812500Y-121988329D01*
G75*
G02*
X112712500Y-121888329I0J100000D01*
G01*
G37*
G36*
G01*
X112712500Y-122538329D02*
X112712500Y-122338329D01*
G75*
G02*
X112812500Y-122238329I100000J0D01*
G01*
X114087500Y-122238329D01*
G75*
G02*
X114187500Y-122338329I0J-100000D01*
G01*
X114187500Y-122538329D01*
G75*
G02*
X114087500Y-122638329I-100000J0D01*
G01*
X112812500Y-122638329D01*
G75*
G02*
X112712500Y-122538329I0J100000D01*
G01*
G37*
G36*
G01*
X112712500Y-123188329D02*
X112712500Y-122988329D01*
G75*
G02*
X112812500Y-122888329I100000J0D01*
G01*
X114087500Y-122888329D01*
G75*
G02*
X114187500Y-122988329I0J-100000D01*
G01*
X114187500Y-123188329D01*
G75*
G02*
X114087500Y-123288329I-100000J0D01*
G01*
X112812500Y-123288329D01*
G75*
G02*
X112712500Y-123188329I0J100000D01*
G01*
G37*
G36*
G01*
X112712500Y-123838329D02*
X112712500Y-123638329D01*
G75*
G02*
X112812500Y-123538329I100000J0D01*
G01*
X114087500Y-123538329D01*
G75*
G02*
X114187500Y-123638329I0J-100000D01*
G01*
X114187500Y-123838329D01*
G75*
G02*
X114087500Y-123938329I-100000J0D01*
G01*
X112812500Y-123938329D01*
G75*
G02*
X112712500Y-123838329I0J100000D01*
G01*
G37*
G36*
G01*
X112712500Y-124488329D02*
X112712500Y-124288329D01*
G75*
G02*
X112812500Y-124188329I100000J0D01*
G01*
X114087500Y-124188329D01*
G75*
G02*
X114187500Y-124288329I0J-100000D01*
G01*
X114187500Y-124488329D01*
G75*
G02*
X114087500Y-124588329I-100000J0D01*
G01*
X112812500Y-124588329D01*
G75*
G02*
X112712500Y-124488329I0J100000D01*
G01*
G37*
G36*
G01*
X112712500Y-125138329D02*
X112712500Y-124938329D01*
G75*
G02*
X112812500Y-124838329I100000J0D01*
G01*
X114087500Y-124838329D01*
G75*
G02*
X114187500Y-124938329I0J-100000D01*
G01*
X114187500Y-125138329D01*
G75*
G02*
X114087500Y-125238329I-100000J0D01*
G01*
X112812500Y-125238329D01*
G75*
G02*
X112712500Y-125138329I0J100000D01*
G01*
G37*
G36*
G01*
X112712500Y-125788329D02*
X112712500Y-125588329D01*
G75*
G02*
X112812500Y-125488329I100000J0D01*
G01*
X114087500Y-125488329D01*
G75*
G02*
X114187500Y-125588329I0J-100000D01*
G01*
X114187500Y-125788329D01*
G75*
G02*
X114087500Y-125888329I-100000J0D01*
G01*
X112812500Y-125888329D01*
G75*
G02*
X112712500Y-125788329I0J100000D01*
G01*
G37*
G36*
G01*
X112712500Y-126438329D02*
X112712500Y-126238329D01*
G75*
G02*
X112812500Y-126138329I100000J0D01*
G01*
X114087500Y-126138329D01*
G75*
G02*
X114187500Y-126238329I0J-100000D01*
G01*
X114187500Y-126438329D01*
G75*
G02*
X114087500Y-126538329I-100000J0D01*
G01*
X112812500Y-126538329D01*
G75*
G02*
X112712500Y-126438329I0J100000D01*
G01*
G37*
G36*
G01*
X112712500Y-127088329D02*
X112712500Y-126888329D01*
G75*
G02*
X112812500Y-126788329I100000J0D01*
G01*
X114087500Y-126788329D01*
G75*
G02*
X114187500Y-126888329I0J-100000D01*
G01*
X114187500Y-127088329D01*
G75*
G02*
X114087500Y-127188329I-100000J0D01*
G01*
X112812500Y-127188329D01*
G75*
G02*
X112712500Y-127088329I0J100000D01*
G01*
G37*
G36*
G01*
X112712500Y-127738329D02*
X112712500Y-127538329D01*
G75*
G02*
X112812500Y-127438329I100000J0D01*
G01*
X114087500Y-127438329D01*
G75*
G02*
X114187500Y-127538329I0J-100000D01*
G01*
X114187500Y-127738329D01*
G75*
G02*
X114087500Y-127838329I-100000J0D01*
G01*
X112812500Y-127838329D01*
G75*
G02*
X112712500Y-127738329I0J100000D01*
G01*
G37*
G36*
G01*
X118437500Y-127738329D02*
X118437500Y-127538329D01*
G75*
G02*
X118537500Y-127438329I100000J0D01*
G01*
X119812500Y-127438329D01*
G75*
G02*
X119912500Y-127538329I0J-100000D01*
G01*
X119912500Y-127738329D01*
G75*
G02*
X119812500Y-127838329I-100000J0D01*
G01*
X118537500Y-127838329D01*
G75*
G02*
X118437500Y-127738329I0J100000D01*
G01*
G37*
G36*
G01*
X118437500Y-127088329D02*
X118437500Y-126888329D01*
G75*
G02*
X118537500Y-126788329I100000J0D01*
G01*
X119812500Y-126788329D01*
G75*
G02*
X119912500Y-126888329I0J-100000D01*
G01*
X119912500Y-127088329D01*
G75*
G02*
X119812500Y-127188329I-100000J0D01*
G01*
X118537500Y-127188329D01*
G75*
G02*
X118437500Y-127088329I0J100000D01*
G01*
G37*
G36*
G01*
X118437500Y-126438329D02*
X118437500Y-126238329D01*
G75*
G02*
X118537500Y-126138329I100000J0D01*
G01*
X119812500Y-126138329D01*
G75*
G02*
X119912500Y-126238329I0J-100000D01*
G01*
X119912500Y-126438329D01*
G75*
G02*
X119812500Y-126538329I-100000J0D01*
G01*
X118537500Y-126538329D01*
G75*
G02*
X118437500Y-126438329I0J100000D01*
G01*
G37*
G36*
G01*
X118437500Y-125788329D02*
X118437500Y-125588329D01*
G75*
G02*
X118537500Y-125488329I100000J0D01*
G01*
X119812500Y-125488329D01*
G75*
G02*
X119912500Y-125588329I0J-100000D01*
G01*
X119912500Y-125788329D01*
G75*
G02*
X119812500Y-125888329I-100000J0D01*
G01*
X118537500Y-125888329D01*
G75*
G02*
X118437500Y-125788329I0J100000D01*
G01*
G37*
G36*
G01*
X118437500Y-125138329D02*
X118437500Y-124938329D01*
G75*
G02*
X118537500Y-124838329I100000J0D01*
G01*
X119812500Y-124838329D01*
G75*
G02*
X119912500Y-124938329I0J-100000D01*
G01*
X119912500Y-125138329D01*
G75*
G02*
X119812500Y-125238329I-100000J0D01*
G01*
X118537500Y-125238329D01*
G75*
G02*
X118437500Y-125138329I0J100000D01*
G01*
G37*
G36*
G01*
X118437500Y-124488329D02*
X118437500Y-124288329D01*
G75*
G02*
X118537500Y-124188329I100000J0D01*
G01*
X119812500Y-124188329D01*
G75*
G02*
X119912500Y-124288329I0J-100000D01*
G01*
X119912500Y-124488329D01*
G75*
G02*
X119812500Y-124588329I-100000J0D01*
G01*
X118537500Y-124588329D01*
G75*
G02*
X118437500Y-124488329I0J100000D01*
G01*
G37*
G36*
G01*
X118437500Y-123838329D02*
X118437500Y-123638329D01*
G75*
G02*
X118537500Y-123538329I100000J0D01*
G01*
X119812500Y-123538329D01*
G75*
G02*
X119912500Y-123638329I0J-100000D01*
G01*
X119912500Y-123838329D01*
G75*
G02*
X119812500Y-123938329I-100000J0D01*
G01*
X118537500Y-123938329D01*
G75*
G02*
X118437500Y-123838329I0J100000D01*
G01*
G37*
G36*
G01*
X118437500Y-123188329D02*
X118437500Y-122988329D01*
G75*
G02*
X118537500Y-122888329I100000J0D01*
G01*
X119812500Y-122888329D01*
G75*
G02*
X119912500Y-122988329I0J-100000D01*
G01*
X119912500Y-123188329D01*
G75*
G02*
X119812500Y-123288329I-100000J0D01*
G01*
X118537500Y-123288329D01*
G75*
G02*
X118437500Y-123188329I0J100000D01*
G01*
G37*
G36*
G01*
X118437500Y-122538329D02*
X118437500Y-122338329D01*
G75*
G02*
X118537500Y-122238329I100000J0D01*
G01*
X119812500Y-122238329D01*
G75*
G02*
X119912500Y-122338329I0J-100000D01*
G01*
X119912500Y-122538329D01*
G75*
G02*
X119812500Y-122638329I-100000J0D01*
G01*
X118537500Y-122638329D01*
G75*
G02*
X118437500Y-122538329I0J100000D01*
G01*
G37*
G36*
G01*
X118437500Y-121888329D02*
X118437500Y-121688329D01*
G75*
G02*
X118537500Y-121588329I100000J0D01*
G01*
X119812500Y-121588329D01*
G75*
G02*
X119912500Y-121688329I0J-100000D01*
G01*
X119912500Y-121888329D01*
G75*
G02*
X119812500Y-121988329I-100000J0D01*
G01*
X118537500Y-121988329D01*
G75*
G02*
X118437500Y-121888329I0J100000D01*
G01*
G37*
G36*
G01*
X242980000Y-95750000D02*
X242980000Y-94500000D01*
G75*
G02*
X243230000Y-94250000I250000J0D01*
G01*
X243980000Y-94250000D01*
G75*
G02*
X244230000Y-94500000I0J-250000D01*
G01*
X244230000Y-95750000D01*
G75*
G02*
X243980000Y-96000000I-250000J0D01*
G01*
X243230000Y-96000000D01*
G75*
G02*
X242980000Y-95750000I0J250000D01*
G01*
G37*
G36*
G01*
X245780000Y-95750000D02*
X245780000Y-94500000D01*
G75*
G02*
X246030000Y-94250000I250000J0D01*
G01*
X246780000Y-94250000D01*
G75*
G02*
X247030000Y-94500000I0J-250000D01*
G01*
X247030000Y-95750000D01*
G75*
G02*
X246780000Y-96000000I-250000J0D01*
G01*
X246030000Y-96000000D01*
G75*
G02*
X245780000Y-95750000I0J250000D01*
G01*
G37*
G36*
G01*
X154411896Y-122171489D02*
X154305830Y-122065423D01*
G75*
G02*
X154305830Y-121959357I53033J53033D01*
G01*
X155242746Y-121022441D01*
G75*
G02*
X155348812Y-121022441I53033J-53033D01*
G01*
X155454878Y-121128507D01*
G75*
G02*
X155454878Y-121234573I-53033J-53033D01*
G01*
X154517962Y-122171489D01*
G75*
G02*
X154411896Y-122171489I-53033J53033D01*
G01*
G37*
G36*
G01*
X154765449Y-122525042D02*
X154659383Y-122418976D01*
G75*
G02*
X154659383Y-122312910I53033J53033D01*
G01*
X155596299Y-121375994D01*
G75*
G02*
X155702365Y-121375994I53033J-53033D01*
G01*
X155808431Y-121482060D01*
G75*
G02*
X155808431Y-121588126I-53033J-53033D01*
G01*
X154871515Y-122525042D01*
G75*
G02*
X154765449Y-122525042I-53033J53033D01*
G01*
G37*
G36*
G01*
X155119002Y-122878596D02*
X155012936Y-122772530D01*
G75*
G02*
X155012936Y-122666464I53033J53033D01*
G01*
X155949852Y-121729548D01*
G75*
G02*
X156055918Y-121729548I53033J-53033D01*
G01*
X156161984Y-121835614D01*
G75*
G02*
X156161984Y-121941680I-53033J-53033D01*
G01*
X155225068Y-122878596D01*
G75*
G02*
X155119002Y-122878596I-53033J53033D01*
G01*
G37*
G36*
G01*
X155472556Y-123232149D02*
X155366490Y-123126083D01*
G75*
G02*
X155366490Y-123020017I53033J53033D01*
G01*
X156303406Y-122083101D01*
G75*
G02*
X156409472Y-122083101I53033J-53033D01*
G01*
X156515538Y-122189167D01*
G75*
G02*
X156515538Y-122295233I-53033J-53033D01*
G01*
X155578622Y-123232149D01*
G75*
G02*
X155472556Y-123232149I-53033J53033D01*
G01*
G37*
G36*
G01*
X155826109Y-123585703D02*
X155720043Y-123479637D01*
G75*
G02*
X155720043Y-123373571I53033J53033D01*
G01*
X156656959Y-122436655D01*
G75*
G02*
X156763025Y-122436655I53033J-53033D01*
G01*
X156869091Y-122542721D01*
G75*
G02*
X156869091Y-122648787I-53033J-53033D01*
G01*
X155932175Y-123585703D01*
G75*
G02*
X155826109Y-123585703I-53033J53033D01*
G01*
G37*
G36*
G01*
X156179663Y-123939256D02*
X156073597Y-123833190D01*
G75*
G02*
X156073597Y-123727124I53033J53033D01*
G01*
X157010513Y-122790208D01*
G75*
G02*
X157116579Y-122790208I53033J-53033D01*
G01*
X157222645Y-122896274D01*
G75*
G02*
X157222645Y-123002340I-53033J-53033D01*
G01*
X156285729Y-123939256D01*
G75*
G02*
X156179663Y-123939256I-53033J53033D01*
G01*
G37*
G36*
G01*
X156533216Y-124292809D02*
X156427150Y-124186743D01*
G75*
G02*
X156427150Y-124080677I53033J53033D01*
G01*
X157364066Y-123143761D01*
G75*
G02*
X157470132Y-123143761I53033J-53033D01*
G01*
X157576198Y-123249827D01*
G75*
G02*
X157576198Y-123355893I-53033J-53033D01*
G01*
X156639282Y-124292809D01*
G75*
G02*
X156533216Y-124292809I-53033J53033D01*
G01*
G37*
G36*
G01*
X156886769Y-124646363D02*
X156780703Y-124540297D01*
G75*
G02*
X156780703Y-124434231I53033J53033D01*
G01*
X157717619Y-123497315D01*
G75*
G02*
X157823685Y-123497315I53033J-53033D01*
G01*
X157929751Y-123603381D01*
G75*
G02*
X157929751Y-123709447I-53033J-53033D01*
G01*
X156992835Y-124646363D01*
G75*
G02*
X156886769Y-124646363I-53033J53033D01*
G01*
G37*
G36*
G01*
X157240323Y-124999916D02*
X157134257Y-124893850D01*
G75*
G02*
X157134257Y-124787784I53033J53033D01*
G01*
X158071173Y-123850868D01*
G75*
G02*
X158177239Y-123850868I53033J-53033D01*
G01*
X158283305Y-123956934D01*
G75*
G02*
X158283305Y-124063000I-53033J-53033D01*
G01*
X157346389Y-124999916D01*
G75*
G02*
X157240323Y-124999916I-53033J53033D01*
G01*
G37*
G36*
G01*
X157593876Y-125353470D02*
X157487810Y-125247404D01*
G75*
G02*
X157487810Y-125141338I53033J53033D01*
G01*
X158424726Y-124204422D01*
G75*
G02*
X158530792Y-124204422I53033J-53033D01*
G01*
X158636858Y-124310488D01*
G75*
G02*
X158636858Y-124416554I-53033J-53033D01*
G01*
X157699942Y-125353470D01*
G75*
G02*
X157593876Y-125353470I-53033J53033D01*
G01*
G37*
G36*
G01*
X157947430Y-125707023D02*
X157841364Y-125600957D01*
G75*
G02*
X157841364Y-125494891I53033J53033D01*
G01*
X158778280Y-124557975D01*
G75*
G02*
X158884346Y-124557975I53033J-53033D01*
G01*
X158990412Y-124664041D01*
G75*
G02*
X158990412Y-124770107I-53033J-53033D01*
G01*
X158053496Y-125707023D01*
G75*
G02*
X157947430Y-125707023I-53033J53033D01*
G01*
G37*
G36*
G01*
X158300983Y-126060576D02*
X158194917Y-125954510D01*
G75*
G02*
X158194917Y-125848444I53033J53033D01*
G01*
X159131833Y-124911528D01*
G75*
G02*
X159237899Y-124911528I53033J-53033D01*
G01*
X159343965Y-125017594D01*
G75*
G02*
X159343965Y-125123660I-53033J-53033D01*
G01*
X158407049Y-126060576D01*
G75*
G02*
X158300983Y-126060576I-53033J53033D01*
G01*
G37*
G36*
G01*
X158654536Y-126414130D02*
X158548470Y-126308064D01*
G75*
G02*
X158548470Y-126201998I53033J53033D01*
G01*
X159485386Y-125265082D01*
G75*
G02*
X159591452Y-125265082I53033J-53033D01*
G01*
X159697518Y-125371148D01*
G75*
G02*
X159697518Y-125477214I-53033J-53033D01*
G01*
X158760602Y-126414130D01*
G75*
G02*
X158654536Y-126414130I-53033J53033D01*
G01*
G37*
G36*
G01*
X159008090Y-126767683D02*
X158902024Y-126661617D01*
G75*
G02*
X158902024Y-126555551I53033J53033D01*
G01*
X159838940Y-125618635D01*
G75*
G02*
X159945006Y-125618635I53033J-53033D01*
G01*
X160051072Y-125724701D01*
G75*
G02*
X160051072Y-125830767I-53033J-53033D01*
G01*
X159114156Y-126767683D01*
G75*
G02*
X159008090Y-126767683I-53033J53033D01*
G01*
G37*
G36*
G01*
X159361643Y-127121236D02*
X159255577Y-127015170D01*
G75*
G02*
X159255577Y-126909104I53033J53033D01*
G01*
X160192493Y-125972188D01*
G75*
G02*
X160298559Y-125972188I53033J-53033D01*
G01*
X160404625Y-126078254D01*
G75*
G02*
X160404625Y-126184320I-53033J-53033D01*
G01*
X159467709Y-127121236D01*
G75*
G02*
X159361643Y-127121236I-53033J53033D01*
G01*
G37*
G36*
G01*
X159715196Y-127474790D02*
X159609130Y-127368724D01*
G75*
G02*
X159609130Y-127262658I53033J53033D01*
G01*
X160546046Y-126325742D01*
G75*
G02*
X160652112Y-126325742I53033J-53033D01*
G01*
X160758178Y-126431808D01*
G75*
G02*
X160758178Y-126537874I-53033J-53033D01*
G01*
X159821262Y-127474790D01*
G75*
G02*
X159715196Y-127474790I-53033J53033D01*
G01*
G37*
G36*
G01*
X160068750Y-127828343D02*
X159962684Y-127722277D01*
G75*
G02*
X159962684Y-127616211I53033J53033D01*
G01*
X160899600Y-126679295D01*
G75*
G02*
X161005666Y-126679295I53033J-53033D01*
G01*
X161111732Y-126785361D01*
G75*
G02*
X161111732Y-126891427I-53033J-53033D01*
G01*
X160174816Y-127828343D01*
G75*
G02*
X160068750Y-127828343I-53033J53033D01*
G01*
G37*
G36*
G01*
X160422303Y-128181897D02*
X160316237Y-128075831D01*
G75*
G02*
X160316237Y-127969765I53033J53033D01*
G01*
X161253153Y-127032849D01*
G75*
G02*
X161359219Y-127032849I53033J-53033D01*
G01*
X161465285Y-127138915D01*
G75*
G02*
X161465285Y-127244981I-53033J-53033D01*
G01*
X160528369Y-128181897D01*
G75*
G02*
X160422303Y-128181897I-53033J53033D01*
G01*
G37*
G36*
G01*
X160775857Y-128535450D02*
X160669791Y-128429384D01*
G75*
G02*
X160669791Y-128323318I53033J53033D01*
G01*
X161606707Y-127386402D01*
G75*
G02*
X161712773Y-127386402I53033J-53033D01*
G01*
X161818839Y-127492468D01*
G75*
G02*
X161818839Y-127598534I-53033J-53033D01*
G01*
X160881923Y-128535450D01*
G75*
G02*
X160775857Y-128535450I-53033J53033D01*
G01*
G37*
G36*
G01*
X161129410Y-128889003D02*
X161023344Y-128782937D01*
G75*
G02*
X161023344Y-128676871I53033J53033D01*
G01*
X161960260Y-127739955D01*
G75*
G02*
X162066326Y-127739955I53033J-53033D01*
G01*
X162172392Y-127846021D01*
G75*
G02*
X162172392Y-127952087I-53033J-53033D01*
G01*
X161235476Y-128889003D01*
G75*
G02*
X161129410Y-128889003I-53033J53033D01*
G01*
G37*
G36*
G01*
X161482963Y-129242557D02*
X161376897Y-129136491D01*
G75*
G02*
X161376897Y-129030425I53033J53033D01*
G01*
X162313813Y-128093509D01*
G75*
G02*
X162419879Y-128093509I53033J-53033D01*
G01*
X162525945Y-128199575D01*
G75*
G02*
X162525945Y-128305641I-53033J-53033D01*
G01*
X161589029Y-129242557D01*
G75*
G02*
X161482963Y-129242557I-53033J53033D01*
G01*
G37*
G36*
G01*
X161836517Y-129596110D02*
X161730451Y-129490044D01*
G75*
G02*
X161730451Y-129383978I53033J53033D01*
G01*
X162667367Y-128447062D01*
G75*
G02*
X162773433Y-128447062I53033J-53033D01*
G01*
X162879499Y-128553128D01*
G75*
G02*
X162879499Y-128659194I-53033J-53033D01*
G01*
X161942583Y-129596110D01*
G75*
G02*
X161836517Y-129596110I-53033J53033D01*
G01*
G37*
G36*
G01*
X162190070Y-129949664D02*
X162084004Y-129843598D01*
G75*
G02*
X162084004Y-129737532I53033J53033D01*
G01*
X163020920Y-128800616D01*
G75*
G02*
X163126986Y-128800616I53033J-53033D01*
G01*
X163233052Y-128906682D01*
G75*
G02*
X163233052Y-129012748I-53033J-53033D01*
G01*
X162296136Y-129949664D01*
G75*
G02*
X162190070Y-129949664I-53033J53033D01*
G01*
G37*
G36*
G01*
X162543624Y-130303217D02*
X162437558Y-130197151D01*
G75*
G02*
X162437558Y-130091085I53033J53033D01*
G01*
X163374474Y-129154169D01*
G75*
G02*
X163480540Y-129154169I53033J-53033D01*
G01*
X163586606Y-129260235D01*
G75*
G02*
X163586606Y-129366301I-53033J-53033D01*
G01*
X162649690Y-130303217D01*
G75*
G02*
X162543624Y-130303217I-53033J53033D01*
G01*
G37*
G36*
G01*
X162897177Y-130656770D02*
X162791111Y-130550704D01*
G75*
G02*
X162791111Y-130444638I53033J53033D01*
G01*
X163728027Y-129507722D01*
G75*
G02*
X163834093Y-129507722I53033J-53033D01*
G01*
X163940159Y-129613788D01*
G75*
G02*
X163940159Y-129719854I-53033J-53033D01*
G01*
X163003243Y-130656770D01*
G75*
G02*
X162897177Y-130656770I-53033J53033D01*
G01*
G37*
G36*
G01*
X166079157Y-130656770D02*
X165142241Y-129719854D01*
G75*
G02*
X165142241Y-129613788I53033J53033D01*
G01*
X165248307Y-129507722D01*
G75*
G02*
X165354373Y-129507722I53033J-53033D01*
G01*
X166291289Y-130444638D01*
G75*
G02*
X166291289Y-130550704I-53033J-53033D01*
G01*
X166185223Y-130656770D01*
G75*
G02*
X166079157Y-130656770I-53033J53033D01*
G01*
G37*
G36*
G01*
X166432710Y-130303217D02*
X165495794Y-129366301D01*
G75*
G02*
X165495794Y-129260235I53033J53033D01*
G01*
X165601860Y-129154169D01*
G75*
G02*
X165707926Y-129154169I53033J-53033D01*
G01*
X166644842Y-130091085D01*
G75*
G02*
X166644842Y-130197151I-53033J-53033D01*
G01*
X166538776Y-130303217D01*
G75*
G02*
X166432710Y-130303217I-53033J53033D01*
G01*
G37*
G36*
G01*
X166786264Y-129949664D02*
X165849348Y-129012748D01*
G75*
G02*
X165849348Y-128906682I53033J53033D01*
G01*
X165955414Y-128800616D01*
G75*
G02*
X166061480Y-128800616I53033J-53033D01*
G01*
X166998396Y-129737532D01*
G75*
G02*
X166998396Y-129843598I-53033J-53033D01*
G01*
X166892330Y-129949664D01*
G75*
G02*
X166786264Y-129949664I-53033J53033D01*
G01*
G37*
G36*
G01*
X167139817Y-129596110D02*
X166202901Y-128659194D01*
G75*
G02*
X166202901Y-128553128I53033J53033D01*
G01*
X166308967Y-128447062D01*
G75*
G02*
X166415033Y-128447062I53033J-53033D01*
G01*
X167351949Y-129383978D01*
G75*
G02*
X167351949Y-129490044I-53033J-53033D01*
G01*
X167245883Y-129596110D01*
G75*
G02*
X167139817Y-129596110I-53033J53033D01*
G01*
G37*
G36*
G01*
X167493371Y-129242557D02*
X166556455Y-128305641D01*
G75*
G02*
X166556455Y-128199575I53033J53033D01*
G01*
X166662521Y-128093509D01*
G75*
G02*
X166768587Y-128093509I53033J-53033D01*
G01*
X167705503Y-129030425D01*
G75*
G02*
X167705503Y-129136491I-53033J-53033D01*
G01*
X167599437Y-129242557D01*
G75*
G02*
X167493371Y-129242557I-53033J53033D01*
G01*
G37*
G36*
G01*
X167846924Y-128889003D02*
X166910008Y-127952087D01*
G75*
G02*
X166910008Y-127846021I53033J53033D01*
G01*
X167016074Y-127739955D01*
G75*
G02*
X167122140Y-127739955I53033J-53033D01*
G01*
X168059056Y-128676871D01*
G75*
G02*
X168059056Y-128782937I-53033J-53033D01*
G01*
X167952990Y-128889003D01*
G75*
G02*
X167846924Y-128889003I-53033J53033D01*
G01*
G37*
G36*
G01*
X168200477Y-128535450D02*
X167263561Y-127598534D01*
G75*
G02*
X167263561Y-127492468I53033J53033D01*
G01*
X167369627Y-127386402D01*
G75*
G02*
X167475693Y-127386402I53033J-53033D01*
G01*
X168412609Y-128323318D01*
G75*
G02*
X168412609Y-128429384I-53033J-53033D01*
G01*
X168306543Y-128535450D01*
G75*
G02*
X168200477Y-128535450I-53033J53033D01*
G01*
G37*
G36*
G01*
X168554031Y-128181897D02*
X167617115Y-127244981D01*
G75*
G02*
X167617115Y-127138915I53033J53033D01*
G01*
X167723181Y-127032849D01*
G75*
G02*
X167829247Y-127032849I53033J-53033D01*
G01*
X168766163Y-127969765D01*
G75*
G02*
X168766163Y-128075831I-53033J-53033D01*
G01*
X168660097Y-128181897D01*
G75*
G02*
X168554031Y-128181897I-53033J53033D01*
G01*
G37*
G36*
G01*
X168907584Y-127828343D02*
X167970668Y-126891427D01*
G75*
G02*
X167970668Y-126785361I53033J53033D01*
G01*
X168076734Y-126679295D01*
G75*
G02*
X168182800Y-126679295I53033J-53033D01*
G01*
X169119716Y-127616211D01*
G75*
G02*
X169119716Y-127722277I-53033J-53033D01*
G01*
X169013650Y-127828343D01*
G75*
G02*
X168907584Y-127828343I-53033J53033D01*
G01*
G37*
G36*
G01*
X169261138Y-127474790D02*
X168324222Y-126537874D01*
G75*
G02*
X168324222Y-126431808I53033J53033D01*
G01*
X168430288Y-126325742D01*
G75*
G02*
X168536354Y-126325742I53033J-53033D01*
G01*
X169473270Y-127262658D01*
G75*
G02*
X169473270Y-127368724I-53033J-53033D01*
G01*
X169367204Y-127474790D01*
G75*
G02*
X169261138Y-127474790I-53033J53033D01*
G01*
G37*
G36*
G01*
X169614691Y-127121236D02*
X168677775Y-126184320D01*
G75*
G02*
X168677775Y-126078254I53033J53033D01*
G01*
X168783841Y-125972188D01*
G75*
G02*
X168889907Y-125972188I53033J-53033D01*
G01*
X169826823Y-126909104D01*
G75*
G02*
X169826823Y-127015170I-53033J-53033D01*
G01*
X169720757Y-127121236D01*
G75*
G02*
X169614691Y-127121236I-53033J53033D01*
G01*
G37*
G36*
G01*
X169968244Y-126767683D02*
X169031328Y-125830767D01*
G75*
G02*
X169031328Y-125724701I53033J53033D01*
G01*
X169137394Y-125618635D01*
G75*
G02*
X169243460Y-125618635I53033J-53033D01*
G01*
X170180376Y-126555551D01*
G75*
G02*
X170180376Y-126661617I-53033J-53033D01*
G01*
X170074310Y-126767683D01*
G75*
G02*
X169968244Y-126767683I-53033J53033D01*
G01*
G37*
G36*
G01*
X170321798Y-126414130D02*
X169384882Y-125477214D01*
G75*
G02*
X169384882Y-125371148I53033J53033D01*
G01*
X169490948Y-125265082D01*
G75*
G02*
X169597014Y-125265082I53033J-53033D01*
G01*
X170533930Y-126201998D01*
G75*
G02*
X170533930Y-126308064I-53033J-53033D01*
G01*
X170427864Y-126414130D01*
G75*
G02*
X170321798Y-126414130I-53033J53033D01*
G01*
G37*
G36*
G01*
X170675351Y-126060576D02*
X169738435Y-125123660D01*
G75*
G02*
X169738435Y-125017594I53033J53033D01*
G01*
X169844501Y-124911528D01*
G75*
G02*
X169950567Y-124911528I53033J-53033D01*
G01*
X170887483Y-125848444D01*
G75*
G02*
X170887483Y-125954510I-53033J-53033D01*
G01*
X170781417Y-126060576D01*
G75*
G02*
X170675351Y-126060576I-53033J53033D01*
G01*
G37*
G36*
G01*
X171028904Y-125707023D02*
X170091988Y-124770107D01*
G75*
G02*
X170091988Y-124664041I53033J53033D01*
G01*
X170198054Y-124557975D01*
G75*
G02*
X170304120Y-124557975I53033J-53033D01*
G01*
X171241036Y-125494891D01*
G75*
G02*
X171241036Y-125600957I-53033J-53033D01*
G01*
X171134970Y-125707023D01*
G75*
G02*
X171028904Y-125707023I-53033J53033D01*
G01*
G37*
G36*
G01*
X171382458Y-125353470D02*
X170445542Y-124416554D01*
G75*
G02*
X170445542Y-124310488I53033J53033D01*
G01*
X170551608Y-124204422D01*
G75*
G02*
X170657674Y-124204422I53033J-53033D01*
G01*
X171594590Y-125141338D01*
G75*
G02*
X171594590Y-125247404I-53033J-53033D01*
G01*
X171488524Y-125353470D01*
G75*
G02*
X171382458Y-125353470I-53033J53033D01*
G01*
G37*
G36*
G01*
X171736011Y-124999916D02*
X170799095Y-124063000D01*
G75*
G02*
X170799095Y-123956934I53033J53033D01*
G01*
X170905161Y-123850868D01*
G75*
G02*
X171011227Y-123850868I53033J-53033D01*
G01*
X171948143Y-124787784D01*
G75*
G02*
X171948143Y-124893850I-53033J-53033D01*
G01*
X171842077Y-124999916D01*
G75*
G02*
X171736011Y-124999916I-53033J53033D01*
G01*
G37*
G36*
G01*
X172089565Y-124646363D02*
X171152649Y-123709447D01*
G75*
G02*
X171152649Y-123603381I53033J53033D01*
G01*
X171258715Y-123497315D01*
G75*
G02*
X171364781Y-123497315I53033J-53033D01*
G01*
X172301697Y-124434231D01*
G75*
G02*
X172301697Y-124540297I-53033J-53033D01*
G01*
X172195631Y-124646363D01*
G75*
G02*
X172089565Y-124646363I-53033J53033D01*
G01*
G37*
G36*
G01*
X172443118Y-124292809D02*
X171506202Y-123355893D01*
G75*
G02*
X171506202Y-123249827I53033J53033D01*
G01*
X171612268Y-123143761D01*
G75*
G02*
X171718334Y-123143761I53033J-53033D01*
G01*
X172655250Y-124080677D01*
G75*
G02*
X172655250Y-124186743I-53033J-53033D01*
G01*
X172549184Y-124292809D01*
G75*
G02*
X172443118Y-124292809I-53033J53033D01*
G01*
G37*
G36*
G01*
X172796671Y-123939256D02*
X171859755Y-123002340D01*
G75*
G02*
X171859755Y-122896274I53033J53033D01*
G01*
X171965821Y-122790208D01*
G75*
G02*
X172071887Y-122790208I53033J-53033D01*
G01*
X173008803Y-123727124D01*
G75*
G02*
X173008803Y-123833190I-53033J-53033D01*
G01*
X172902737Y-123939256D01*
G75*
G02*
X172796671Y-123939256I-53033J53033D01*
G01*
G37*
G36*
G01*
X173150225Y-123585703D02*
X172213309Y-122648787D01*
G75*
G02*
X172213309Y-122542721I53033J53033D01*
G01*
X172319375Y-122436655D01*
G75*
G02*
X172425441Y-122436655I53033J-53033D01*
G01*
X173362357Y-123373571D01*
G75*
G02*
X173362357Y-123479637I-53033J-53033D01*
G01*
X173256291Y-123585703D01*
G75*
G02*
X173150225Y-123585703I-53033J53033D01*
G01*
G37*
G36*
G01*
X173503778Y-123232149D02*
X172566862Y-122295233D01*
G75*
G02*
X172566862Y-122189167I53033J53033D01*
G01*
X172672928Y-122083101D01*
G75*
G02*
X172778994Y-122083101I53033J-53033D01*
G01*
X173715910Y-123020017D01*
G75*
G02*
X173715910Y-123126083I-53033J-53033D01*
G01*
X173609844Y-123232149D01*
G75*
G02*
X173503778Y-123232149I-53033J53033D01*
G01*
G37*
G36*
G01*
X173857332Y-122878596D02*
X172920416Y-121941680D01*
G75*
G02*
X172920416Y-121835614I53033J53033D01*
G01*
X173026482Y-121729548D01*
G75*
G02*
X173132548Y-121729548I53033J-53033D01*
G01*
X174069464Y-122666464D01*
G75*
G02*
X174069464Y-122772530I-53033J-53033D01*
G01*
X173963398Y-122878596D01*
G75*
G02*
X173857332Y-122878596I-53033J53033D01*
G01*
G37*
G36*
G01*
X174210885Y-122525042D02*
X173273969Y-121588126D01*
G75*
G02*
X173273969Y-121482060I53033J53033D01*
G01*
X173380035Y-121375994D01*
G75*
G02*
X173486101Y-121375994I53033J-53033D01*
G01*
X174423017Y-122312910D01*
G75*
G02*
X174423017Y-122418976I-53033J-53033D01*
G01*
X174316951Y-122525042D01*
G75*
G02*
X174210885Y-122525042I-53033J53033D01*
G01*
G37*
G36*
G01*
X174564438Y-122171489D02*
X173627522Y-121234573D01*
G75*
G02*
X173627522Y-121128507I53033J53033D01*
G01*
X173733588Y-121022441D01*
G75*
G02*
X173839654Y-121022441I53033J-53033D01*
G01*
X174776570Y-121959357D01*
G75*
G02*
X174776570Y-122065423I-53033J-53033D01*
G01*
X174670504Y-122171489D01*
G75*
G02*
X174564438Y-122171489I-53033J53033D01*
G01*
G37*
G36*
G01*
X173733588Y-119820359D02*
X173627522Y-119714293D01*
G75*
G02*
X173627522Y-119608227I53033J53033D01*
G01*
X174564438Y-118671311D01*
G75*
G02*
X174670504Y-118671311I53033J-53033D01*
G01*
X174776570Y-118777377D01*
G75*
G02*
X174776570Y-118883443I-53033J-53033D01*
G01*
X173839654Y-119820359D01*
G75*
G02*
X173733588Y-119820359I-53033J53033D01*
G01*
G37*
G36*
G01*
X173380035Y-119466806D02*
X173273969Y-119360740D01*
G75*
G02*
X173273969Y-119254674I53033J53033D01*
G01*
X174210885Y-118317758D01*
G75*
G02*
X174316951Y-118317758I53033J-53033D01*
G01*
X174423017Y-118423824D01*
G75*
G02*
X174423017Y-118529890I-53033J-53033D01*
G01*
X173486101Y-119466806D01*
G75*
G02*
X173380035Y-119466806I-53033J53033D01*
G01*
G37*
G36*
G01*
X173026482Y-119113252D02*
X172920416Y-119007186D01*
G75*
G02*
X172920416Y-118901120I53033J53033D01*
G01*
X173857332Y-117964204D01*
G75*
G02*
X173963398Y-117964204I53033J-53033D01*
G01*
X174069464Y-118070270D01*
G75*
G02*
X174069464Y-118176336I-53033J-53033D01*
G01*
X173132548Y-119113252D01*
G75*
G02*
X173026482Y-119113252I-53033J53033D01*
G01*
G37*
G36*
G01*
X172672928Y-118759699D02*
X172566862Y-118653633D01*
G75*
G02*
X172566862Y-118547567I53033J53033D01*
G01*
X173503778Y-117610651D01*
G75*
G02*
X173609844Y-117610651I53033J-53033D01*
G01*
X173715910Y-117716717D01*
G75*
G02*
X173715910Y-117822783I-53033J-53033D01*
G01*
X172778994Y-118759699D01*
G75*
G02*
X172672928Y-118759699I-53033J53033D01*
G01*
G37*
G36*
G01*
X172319375Y-118406145D02*
X172213309Y-118300079D01*
G75*
G02*
X172213309Y-118194013I53033J53033D01*
G01*
X173150225Y-117257097D01*
G75*
G02*
X173256291Y-117257097I53033J-53033D01*
G01*
X173362357Y-117363163D01*
G75*
G02*
X173362357Y-117469229I-53033J-53033D01*
G01*
X172425441Y-118406145D01*
G75*
G02*
X172319375Y-118406145I-53033J53033D01*
G01*
G37*
G36*
G01*
X171965821Y-118052592D02*
X171859755Y-117946526D01*
G75*
G02*
X171859755Y-117840460I53033J53033D01*
G01*
X172796671Y-116903544D01*
G75*
G02*
X172902737Y-116903544I53033J-53033D01*
G01*
X173008803Y-117009610D01*
G75*
G02*
X173008803Y-117115676I-53033J-53033D01*
G01*
X172071887Y-118052592D01*
G75*
G02*
X171965821Y-118052592I-53033J53033D01*
G01*
G37*
G36*
G01*
X171612268Y-117699039D02*
X171506202Y-117592973D01*
G75*
G02*
X171506202Y-117486907I53033J53033D01*
G01*
X172443118Y-116549991D01*
G75*
G02*
X172549184Y-116549991I53033J-53033D01*
G01*
X172655250Y-116656057D01*
G75*
G02*
X172655250Y-116762123I-53033J-53033D01*
G01*
X171718334Y-117699039D01*
G75*
G02*
X171612268Y-117699039I-53033J53033D01*
G01*
G37*
G36*
G01*
X171258715Y-117345485D02*
X171152649Y-117239419D01*
G75*
G02*
X171152649Y-117133353I53033J53033D01*
G01*
X172089565Y-116196437D01*
G75*
G02*
X172195631Y-116196437I53033J-53033D01*
G01*
X172301697Y-116302503D01*
G75*
G02*
X172301697Y-116408569I-53033J-53033D01*
G01*
X171364781Y-117345485D01*
G75*
G02*
X171258715Y-117345485I-53033J53033D01*
G01*
G37*
G36*
G01*
X170905161Y-116991932D02*
X170799095Y-116885866D01*
G75*
G02*
X170799095Y-116779800I53033J53033D01*
G01*
X171736011Y-115842884D01*
G75*
G02*
X171842077Y-115842884I53033J-53033D01*
G01*
X171948143Y-115948950D01*
G75*
G02*
X171948143Y-116055016I-53033J-53033D01*
G01*
X171011227Y-116991932D01*
G75*
G02*
X170905161Y-116991932I-53033J53033D01*
G01*
G37*
G36*
G01*
X170551608Y-116638378D02*
X170445542Y-116532312D01*
G75*
G02*
X170445542Y-116426246I53033J53033D01*
G01*
X171382458Y-115489330D01*
G75*
G02*
X171488524Y-115489330I53033J-53033D01*
G01*
X171594590Y-115595396D01*
G75*
G02*
X171594590Y-115701462I-53033J-53033D01*
G01*
X170657674Y-116638378D01*
G75*
G02*
X170551608Y-116638378I-53033J53033D01*
G01*
G37*
G36*
G01*
X170198054Y-116284825D02*
X170091988Y-116178759D01*
G75*
G02*
X170091988Y-116072693I53033J53033D01*
G01*
X171028904Y-115135777D01*
G75*
G02*
X171134970Y-115135777I53033J-53033D01*
G01*
X171241036Y-115241843D01*
G75*
G02*
X171241036Y-115347909I-53033J-53033D01*
G01*
X170304120Y-116284825D01*
G75*
G02*
X170198054Y-116284825I-53033J53033D01*
G01*
G37*
G36*
G01*
X169844501Y-115931272D02*
X169738435Y-115825206D01*
G75*
G02*
X169738435Y-115719140I53033J53033D01*
G01*
X170675351Y-114782224D01*
G75*
G02*
X170781417Y-114782224I53033J-53033D01*
G01*
X170887483Y-114888290D01*
G75*
G02*
X170887483Y-114994356I-53033J-53033D01*
G01*
X169950567Y-115931272D01*
G75*
G02*
X169844501Y-115931272I-53033J53033D01*
G01*
G37*
G36*
G01*
X169490948Y-115577718D02*
X169384882Y-115471652D01*
G75*
G02*
X169384882Y-115365586I53033J53033D01*
G01*
X170321798Y-114428670D01*
G75*
G02*
X170427864Y-114428670I53033J-53033D01*
G01*
X170533930Y-114534736D01*
G75*
G02*
X170533930Y-114640802I-53033J-53033D01*
G01*
X169597014Y-115577718D01*
G75*
G02*
X169490948Y-115577718I-53033J53033D01*
G01*
G37*
G36*
G01*
X169137394Y-115224165D02*
X169031328Y-115118099D01*
G75*
G02*
X169031328Y-115012033I53033J53033D01*
G01*
X169968244Y-114075117D01*
G75*
G02*
X170074310Y-114075117I53033J-53033D01*
G01*
X170180376Y-114181183D01*
G75*
G02*
X170180376Y-114287249I-53033J-53033D01*
G01*
X169243460Y-115224165D01*
G75*
G02*
X169137394Y-115224165I-53033J53033D01*
G01*
G37*
G36*
G01*
X168783841Y-114870612D02*
X168677775Y-114764546D01*
G75*
G02*
X168677775Y-114658480I53033J53033D01*
G01*
X169614691Y-113721564D01*
G75*
G02*
X169720757Y-113721564I53033J-53033D01*
G01*
X169826823Y-113827630D01*
G75*
G02*
X169826823Y-113933696I-53033J-53033D01*
G01*
X168889907Y-114870612D01*
G75*
G02*
X168783841Y-114870612I-53033J53033D01*
G01*
G37*
G36*
G01*
X168430288Y-114517058D02*
X168324222Y-114410992D01*
G75*
G02*
X168324222Y-114304926I53033J53033D01*
G01*
X169261138Y-113368010D01*
G75*
G02*
X169367204Y-113368010I53033J-53033D01*
G01*
X169473270Y-113474076D01*
G75*
G02*
X169473270Y-113580142I-53033J-53033D01*
G01*
X168536354Y-114517058D01*
G75*
G02*
X168430288Y-114517058I-53033J53033D01*
G01*
G37*
G36*
G01*
X168076734Y-114163505D02*
X167970668Y-114057439D01*
G75*
G02*
X167970668Y-113951373I53033J53033D01*
G01*
X168907584Y-113014457D01*
G75*
G02*
X169013650Y-113014457I53033J-53033D01*
G01*
X169119716Y-113120523D01*
G75*
G02*
X169119716Y-113226589I-53033J-53033D01*
G01*
X168182800Y-114163505D01*
G75*
G02*
X168076734Y-114163505I-53033J53033D01*
G01*
G37*
G36*
G01*
X167723181Y-113809951D02*
X167617115Y-113703885D01*
G75*
G02*
X167617115Y-113597819I53033J53033D01*
G01*
X168554031Y-112660903D01*
G75*
G02*
X168660097Y-112660903I53033J-53033D01*
G01*
X168766163Y-112766969D01*
G75*
G02*
X168766163Y-112873035I-53033J-53033D01*
G01*
X167829247Y-113809951D01*
G75*
G02*
X167723181Y-113809951I-53033J53033D01*
G01*
G37*
G36*
G01*
X167369627Y-113456398D02*
X167263561Y-113350332D01*
G75*
G02*
X167263561Y-113244266I53033J53033D01*
G01*
X168200477Y-112307350D01*
G75*
G02*
X168306543Y-112307350I53033J-53033D01*
G01*
X168412609Y-112413416D01*
G75*
G02*
X168412609Y-112519482I-53033J-53033D01*
G01*
X167475693Y-113456398D01*
G75*
G02*
X167369627Y-113456398I-53033J53033D01*
G01*
G37*
G36*
G01*
X167016074Y-113102845D02*
X166910008Y-112996779D01*
G75*
G02*
X166910008Y-112890713I53033J53033D01*
G01*
X167846924Y-111953797D01*
G75*
G02*
X167952990Y-111953797I53033J-53033D01*
G01*
X168059056Y-112059863D01*
G75*
G02*
X168059056Y-112165929I-53033J-53033D01*
G01*
X167122140Y-113102845D01*
G75*
G02*
X167016074Y-113102845I-53033J53033D01*
G01*
G37*
G36*
G01*
X166662521Y-112749291D02*
X166556455Y-112643225D01*
G75*
G02*
X166556455Y-112537159I53033J53033D01*
G01*
X167493371Y-111600243D01*
G75*
G02*
X167599437Y-111600243I53033J-53033D01*
G01*
X167705503Y-111706309D01*
G75*
G02*
X167705503Y-111812375I-53033J-53033D01*
G01*
X166768587Y-112749291D01*
G75*
G02*
X166662521Y-112749291I-53033J53033D01*
G01*
G37*
G36*
G01*
X166308967Y-112395738D02*
X166202901Y-112289672D01*
G75*
G02*
X166202901Y-112183606I53033J53033D01*
G01*
X167139817Y-111246690D01*
G75*
G02*
X167245883Y-111246690I53033J-53033D01*
G01*
X167351949Y-111352756D01*
G75*
G02*
X167351949Y-111458822I-53033J-53033D01*
G01*
X166415033Y-112395738D01*
G75*
G02*
X166308967Y-112395738I-53033J53033D01*
G01*
G37*
G36*
G01*
X165955414Y-112042184D02*
X165849348Y-111936118D01*
G75*
G02*
X165849348Y-111830052I53033J53033D01*
G01*
X166786264Y-110893136D01*
G75*
G02*
X166892330Y-110893136I53033J-53033D01*
G01*
X166998396Y-110999202D01*
G75*
G02*
X166998396Y-111105268I-53033J-53033D01*
G01*
X166061480Y-112042184D01*
G75*
G02*
X165955414Y-112042184I-53033J53033D01*
G01*
G37*
G36*
G01*
X165601860Y-111688631D02*
X165495794Y-111582565D01*
G75*
G02*
X165495794Y-111476499I53033J53033D01*
G01*
X166432710Y-110539583D01*
G75*
G02*
X166538776Y-110539583I53033J-53033D01*
G01*
X166644842Y-110645649D01*
G75*
G02*
X166644842Y-110751715I-53033J-53033D01*
G01*
X165707926Y-111688631D01*
G75*
G02*
X165601860Y-111688631I-53033J53033D01*
G01*
G37*
G36*
G01*
X165248307Y-111335078D02*
X165142241Y-111229012D01*
G75*
G02*
X165142241Y-111122946I53033J53033D01*
G01*
X166079157Y-110186030D01*
G75*
G02*
X166185223Y-110186030I53033J-53033D01*
G01*
X166291289Y-110292096D01*
G75*
G02*
X166291289Y-110398162I-53033J-53033D01*
G01*
X165354373Y-111335078D01*
G75*
G02*
X165248307Y-111335078I-53033J53033D01*
G01*
G37*
G36*
G01*
X163728027Y-111335078D02*
X162791111Y-110398162D01*
G75*
G02*
X162791111Y-110292096I53033J53033D01*
G01*
X162897177Y-110186030D01*
G75*
G02*
X163003243Y-110186030I53033J-53033D01*
G01*
X163940159Y-111122946D01*
G75*
G02*
X163940159Y-111229012I-53033J-53033D01*
G01*
X163834093Y-111335078D01*
G75*
G02*
X163728027Y-111335078I-53033J53033D01*
G01*
G37*
G36*
G01*
X163374474Y-111688631D02*
X162437558Y-110751715D01*
G75*
G02*
X162437558Y-110645649I53033J53033D01*
G01*
X162543624Y-110539583D01*
G75*
G02*
X162649690Y-110539583I53033J-53033D01*
G01*
X163586606Y-111476499D01*
G75*
G02*
X163586606Y-111582565I-53033J-53033D01*
G01*
X163480540Y-111688631D01*
G75*
G02*
X163374474Y-111688631I-53033J53033D01*
G01*
G37*
G36*
G01*
X163020920Y-112042184D02*
X162084004Y-111105268D01*
G75*
G02*
X162084004Y-110999202I53033J53033D01*
G01*
X162190070Y-110893136D01*
G75*
G02*
X162296136Y-110893136I53033J-53033D01*
G01*
X163233052Y-111830052D01*
G75*
G02*
X163233052Y-111936118I-53033J-53033D01*
G01*
X163126986Y-112042184D01*
G75*
G02*
X163020920Y-112042184I-53033J53033D01*
G01*
G37*
G36*
G01*
X162667367Y-112395738D02*
X161730451Y-111458822D01*
G75*
G02*
X161730451Y-111352756I53033J53033D01*
G01*
X161836517Y-111246690D01*
G75*
G02*
X161942583Y-111246690I53033J-53033D01*
G01*
X162879499Y-112183606D01*
G75*
G02*
X162879499Y-112289672I-53033J-53033D01*
G01*
X162773433Y-112395738D01*
G75*
G02*
X162667367Y-112395738I-53033J53033D01*
G01*
G37*
G36*
G01*
X162313813Y-112749291D02*
X161376897Y-111812375D01*
G75*
G02*
X161376897Y-111706309I53033J53033D01*
G01*
X161482963Y-111600243D01*
G75*
G02*
X161589029Y-111600243I53033J-53033D01*
G01*
X162525945Y-112537159D01*
G75*
G02*
X162525945Y-112643225I-53033J-53033D01*
G01*
X162419879Y-112749291D01*
G75*
G02*
X162313813Y-112749291I-53033J53033D01*
G01*
G37*
G36*
G01*
X161960260Y-113102845D02*
X161023344Y-112165929D01*
G75*
G02*
X161023344Y-112059863I53033J53033D01*
G01*
X161129410Y-111953797D01*
G75*
G02*
X161235476Y-111953797I53033J-53033D01*
G01*
X162172392Y-112890713D01*
G75*
G02*
X162172392Y-112996779I-53033J-53033D01*
G01*
X162066326Y-113102845D01*
G75*
G02*
X161960260Y-113102845I-53033J53033D01*
G01*
G37*
G36*
G01*
X161606707Y-113456398D02*
X160669791Y-112519482D01*
G75*
G02*
X160669791Y-112413416I53033J53033D01*
G01*
X160775857Y-112307350D01*
G75*
G02*
X160881923Y-112307350I53033J-53033D01*
G01*
X161818839Y-113244266D01*
G75*
G02*
X161818839Y-113350332I-53033J-53033D01*
G01*
X161712773Y-113456398D01*
G75*
G02*
X161606707Y-113456398I-53033J53033D01*
G01*
G37*
G36*
G01*
X161253153Y-113809951D02*
X160316237Y-112873035D01*
G75*
G02*
X160316237Y-112766969I53033J53033D01*
G01*
X160422303Y-112660903D01*
G75*
G02*
X160528369Y-112660903I53033J-53033D01*
G01*
X161465285Y-113597819D01*
G75*
G02*
X161465285Y-113703885I-53033J-53033D01*
G01*
X161359219Y-113809951D01*
G75*
G02*
X161253153Y-113809951I-53033J53033D01*
G01*
G37*
G36*
G01*
X160899600Y-114163505D02*
X159962684Y-113226589D01*
G75*
G02*
X159962684Y-113120523I53033J53033D01*
G01*
X160068750Y-113014457D01*
G75*
G02*
X160174816Y-113014457I53033J-53033D01*
G01*
X161111732Y-113951373D01*
G75*
G02*
X161111732Y-114057439I-53033J-53033D01*
G01*
X161005666Y-114163505D01*
G75*
G02*
X160899600Y-114163505I-53033J53033D01*
G01*
G37*
G36*
G01*
X160546046Y-114517058D02*
X159609130Y-113580142D01*
G75*
G02*
X159609130Y-113474076I53033J53033D01*
G01*
X159715196Y-113368010D01*
G75*
G02*
X159821262Y-113368010I53033J-53033D01*
G01*
X160758178Y-114304926D01*
G75*
G02*
X160758178Y-114410992I-53033J-53033D01*
G01*
X160652112Y-114517058D01*
G75*
G02*
X160546046Y-114517058I-53033J53033D01*
G01*
G37*
G36*
G01*
X160192493Y-114870612D02*
X159255577Y-113933696D01*
G75*
G02*
X159255577Y-113827630I53033J53033D01*
G01*
X159361643Y-113721564D01*
G75*
G02*
X159467709Y-113721564I53033J-53033D01*
G01*
X160404625Y-114658480D01*
G75*
G02*
X160404625Y-114764546I-53033J-53033D01*
G01*
X160298559Y-114870612D01*
G75*
G02*
X160192493Y-114870612I-53033J53033D01*
G01*
G37*
G36*
G01*
X159838940Y-115224165D02*
X158902024Y-114287249D01*
G75*
G02*
X158902024Y-114181183I53033J53033D01*
G01*
X159008090Y-114075117D01*
G75*
G02*
X159114156Y-114075117I53033J-53033D01*
G01*
X160051072Y-115012033D01*
G75*
G02*
X160051072Y-115118099I-53033J-53033D01*
G01*
X159945006Y-115224165D01*
G75*
G02*
X159838940Y-115224165I-53033J53033D01*
G01*
G37*
G36*
G01*
X159485386Y-115577718D02*
X158548470Y-114640802D01*
G75*
G02*
X158548470Y-114534736I53033J53033D01*
G01*
X158654536Y-114428670D01*
G75*
G02*
X158760602Y-114428670I53033J-53033D01*
G01*
X159697518Y-115365586D01*
G75*
G02*
X159697518Y-115471652I-53033J-53033D01*
G01*
X159591452Y-115577718D01*
G75*
G02*
X159485386Y-115577718I-53033J53033D01*
G01*
G37*
G36*
G01*
X159131833Y-115931272D02*
X158194917Y-114994356D01*
G75*
G02*
X158194917Y-114888290I53033J53033D01*
G01*
X158300983Y-114782224D01*
G75*
G02*
X158407049Y-114782224I53033J-53033D01*
G01*
X159343965Y-115719140D01*
G75*
G02*
X159343965Y-115825206I-53033J-53033D01*
G01*
X159237899Y-115931272D01*
G75*
G02*
X159131833Y-115931272I-53033J53033D01*
G01*
G37*
G36*
G01*
X158778280Y-116284825D02*
X157841364Y-115347909D01*
G75*
G02*
X157841364Y-115241843I53033J53033D01*
G01*
X157947430Y-115135777D01*
G75*
G02*
X158053496Y-115135777I53033J-53033D01*
G01*
X158990412Y-116072693D01*
G75*
G02*
X158990412Y-116178759I-53033J-53033D01*
G01*
X158884346Y-116284825D01*
G75*
G02*
X158778280Y-116284825I-53033J53033D01*
G01*
G37*
G36*
G01*
X158424726Y-116638378D02*
X157487810Y-115701462D01*
G75*
G02*
X157487810Y-115595396I53033J53033D01*
G01*
X157593876Y-115489330D01*
G75*
G02*
X157699942Y-115489330I53033J-53033D01*
G01*
X158636858Y-116426246D01*
G75*
G02*
X158636858Y-116532312I-53033J-53033D01*
G01*
X158530792Y-116638378D01*
G75*
G02*
X158424726Y-116638378I-53033J53033D01*
G01*
G37*
G36*
G01*
X158071173Y-116991932D02*
X157134257Y-116055016D01*
G75*
G02*
X157134257Y-115948950I53033J53033D01*
G01*
X157240323Y-115842884D01*
G75*
G02*
X157346389Y-115842884I53033J-53033D01*
G01*
X158283305Y-116779800D01*
G75*
G02*
X158283305Y-116885866I-53033J-53033D01*
G01*
X158177239Y-116991932D01*
G75*
G02*
X158071173Y-116991932I-53033J53033D01*
G01*
G37*
G36*
G01*
X157717619Y-117345485D02*
X156780703Y-116408569D01*
G75*
G02*
X156780703Y-116302503I53033J53033D01*
G01*
X156886769Y-116196437D01*
G75*
G02*
X156992835Y-116196437I53033J-53033D01*
G01*
X157929751Y-117133353D01*
G75*
G02*
X157929751Y-117239419I-53033J-53033D01*
G01*
X157823685Y-117345485D01*
G75*
G02*
X157717619Y-117345485I-53033J53033D01*
G01*
G37*
G36*
G01*
X157364066Y-117699039D02*
X156427150Y-116762123D01*
G75*
G02*
X156427150Y-116656057I53033J53033D01*
G01*
X156533216Y-116549991D01*
G75*
G02*
X156639282Y-116549991I53033J-53033D01*
G01*
X157576198Y-117486907D01*
G75*
G02*
X157576198Y-117592973I-53033J-53033D01*
G01*
X157470132Y-117699039D01*
G75*
G02*
X157364066Y-117699039I-53033J53033D01*
G01*
G37*
G36*
G01*
X157010513Y-118052592D02*
X156073597Y-117115676D01*
G75*
G02*
X156073597Y-117009610I53033J53033D01*
G01*
X156179663Y-116903544D01*
G75*
G02*
X156285729Y-116903544I53033J-53033D01*
G01*
X157222645Y-117840460D01*
G75*
G02*
X157222645Y-117946526I-53033J-53033D01*
G01*
X157116579Y-118052592D01*
G75*
G02*
X157010513Y-118052592I-53033J53033D01*
G01*
G37*
G36*
G01*
X156656959Y-118406145D02*
X155720043Y-117469229D01*
G75*
G02*
X155720043Y-117363163I53033J53033D01*
G01*
X155826109Y-117257097D01*
G75*
G02*
X155932175Y-117257097I53033J-53033D01*
G01*
X156869091Y-118194013D01*
G75*
G02*
X156869091Y-118300079I-53033J-53033D01*
G01*
X156763025Y-118406145D01*
G75*
G02*
X156656959Y-118406145I-53033J53033D01*
G01*
G37*
G36*
G01*
X156303406Y-118759699D02*
X155366490Y-117822783D01*
G75*
G02*
X155366490Y-117716717I53033J53033D01*
G01*
X155472556Y-117610651D01*
G75*
G02*
X155578622Y-117610651I53033J-53033D01*
G01*
X156515538Y-118547567D01*
G75*
G02*
X156515538Y-118653633I-53033J-53033D01*
G01*
X156409472Y-118759699D01*
G75*
G02*
X156303406Y-118759699I-53033J53033D01*
G01*
G37*
G36*
G01*
X155949852Y-119113252D02*
X155012936Y-118176336D01*
G75*
G02*
X155012936Y-118070270I53033J53033D01*
G01*
X155119002Y-117964204D01*
G75*
G02*
X155225068Y-117964204I53033J-53033D01*
G01*
X156161984Y-118901120D01*
G75*
G02*
X156161984Y-119007186I-53033J-53033D01*
G01*
X156055918Y-119113252D01*
G75*
G02*
X155949852Y-119113252I-53033J53033D01*
G01*
G37*
G36*
G01*
X155596299Y-119466806D02*
X154659383Y-118529890D01*
G75*
G02*
X154659383Y-118423824I53033J53033D01*
G01*
X154765449Y-118317758D01*
G75*
G02*
X154871515Y-118317758I53033J-53033D01*
G01*
X155808431Y-119254674D01*
G75*
G02*
X155808431Y-119360740I-53033J-53033D01*
G01*
X155702365Y-119466806D01*
G75*
G02*
X155596299Y-119466806I-53033J53033D01*
G01*
G37*
G36*
G01*
X155242746Y-119820359D02*
X154305830Y-118883443D01*
G75*
G02*
X154305830Y-118777377I53033J53033D01*
G01*
X154411896Y-118671311D01*
G75*
G02*
X154517962Y-118671311I53033J-53033D01*
G01*
X155454878Y-119608227D01*
G75*
G02*
X155454878Y-119714293I-53033J-53033D01*
G01*
X155348812Y-119820359D01*
G75*
G02*
X155242746Y-119820359I-53033J53033D01*
G01*
G37*
G36*
G01*
X221030000Y-152520000D02*
X221030000Y-151570000D01*
G75*
G02*
X221280000Y-151320000I250000J0D01*
G01*
X221955000Y-151320000D01*
G75*
G02*
X222205000Y-151570000I0J-250000D01*
G01*
X222205000Y-152520000D01*
G75*
G02*
X221955000Y-152770000I-250000J0D01*
G01*
X221280000Y-152770000D01*
G75*
G02*
X221030000Y-152520000I0J250000D01*
G01*
G37*
G36*
G01*
X223105000Y-152520000D02*
X223105000Y-151570000D01*
G75*
G02*
X223355000Y-151320000I250000J0D01*
G01*
X224030000Y-151320000D01*
G75*
G02*
X224280000Y-151570000I0J-250000D01*
G01*
X224280000Y-152520000D01*
G75*
G02*
X224030000Y-152770000I-250000J0D01*
G01*
X223355000Y-152770000D01*
G75*
G02*
X223105000Y-152520000I0J250000D01*
G01*
G37*
G36*
G01*
X151970000Y-152070000D02*
X151970000Y-151520000D01*
G75*
G02*
X152170000Y-151320000I200000J0D01*
G01*
X152570000Y-151320000D01*
G75*
G02*
X152770000Y-151520000I0J-200000D01*
G01*
X152770000Y-152070000D01*
G75*
G02*
X152570000Y-152270000I-200000J0D01*
G01*
X152170000Y-152270000D01*
G75*
G02*
X151970000Y-152070000I0J200000D01*
G01*
G37*
G36*
G01*
X153620000Y-152070000D02*
X153620000Y-151520000D01*
G75*
G02*
X153820000Y-151320000I200000J0D01*
G01*
X154220000Y-151320000D01*
G75*
G02*
X154420000Y-151520000I0J-200000D01*
G01*
X154420000Y-152070000D01*
G75*
G02*
X154220000Y-152270000I-200000J0D01*
G01*
X153820000Y-152270000D01*
G75*
G02*
X153620000Y-152070000I0J200000D01*
G01*
G37*
G36*
G01*
X212280000Y-165115000D02*
X212280000Y-164615000D01*
G75*
G02*
X212505000Y-164390000I225000J0D01*
G01*
X212955000Y-164390000D01*
G75*
G02*
X213180000Y-164615000I0J-225000D01*
G01*
X213180000Y-165115000D01*
G75*
G02*
X212955000Y-165340000I-225000J0D01*
G01*
X212505000Y-165340000D01*
G75*
G02*
X212280000Y-165115000I0J225000D01*
G01*
G37*
G36*
G01*
X213830000Y-165115000D02*
X213830000Y-164615000D01*
G75*
G02*
X214055000Y-164390000I225000J0D01*
G01*
X214505000Y-164390000D01*
G75*
G02*
X214730000Y-164615000I0J-225000D01*
G01*
X214730000Y-165115000D01*
G75*
G02*
X214505000Y-165340000I-225000J0D01*
G01*
X214055000Y-165340000D01*
G75*
G02*
X213830000Y-165115000I0J225000D01*
G01*
G37*
D13*
X80584500Y-113173900D03*
D14*
X80584500Y-115713900D03*
G36*
G01*
X83689500Y-113843900D02*
X83689500Y-113343900D01*
G75*
G02*
X83914500Y-113118900I225000J0D01*
G01*
X84364500Y-113118900D01*
G75*
G02*
X84589500Y-113343900I0J-225000D01*
G01*
X84589500Y-113843900D01*
G75*
G02*
X84364500Y-114068900I-225000J0D01*
G01*
X83914500Y-114068900D01*
G75*
G02*
X83689500Y-113843900I0J225000D01*
G01*
G37*
G36*
G01*
X85239500Y-113843900D02*
X85239500Y-113343900D01*
G75*
G02*
X85464500Y-113118900I225000J0D01*
G01*
X85914500Y-113118900D01*
G75*
G02*
X86139500Y-113343900I0J-225000D01*
G01*
X86139500Y-113843900D01*
G75*
G02*
X85914500Y-114068900I-225000J0D01*
G01*
X85464500Y-114068900D01*
G75*
G02*
X85239500Y-113843900I0J225000D01*
G01*
G37*
G36*
G01*
X86439500Y-138863900D02*
X86439500Y-138313900D01*
G75*
G02*
X86639500Y-138113900I200000J0D01*
G01*
X87039500Y-138113900D01*
G75*
G02*
X87239500Y-138313900I0J-200000D01*
G01*
X87239500Y-138863900D01*
G75*
G02*
X87039500Y-139063900I-200000J0D01*
G01*
X86639500Y-139063900D01*
G75*
G02*
X86439500Y-138863900I0J200000D01*
G01*
G37*
G36*
G01*
X88089500Y-138863900D02*
X88089500Y-138313900D01*
G75*
G02*
X88289500Y-138113900I200000J0D01*
G01*
X88689500Y-138113900D01*
G75*
G02*
X88889500Y-138313900I0J-200000D01*
G01*
X88889500Y-138863900D01*
G75*
G02*
X88689500Y-139063900I-200000J0D01*
G01*
X88289500Y-139063900D01*
G75*
G02*
X88089500Y-138863900I0J200000D01*
G01*
G37*
D17*
X154141200Y-147609000D03*
X154941200Y-147609000D03*
X155741200Y-147609000D03*
X156541200Y-147609000D03*
X157341200Y-147609000D03*
X158141200Y-147609000D03*
X158941200Y-147609000D03*
X159741200Y-147609000D03*
X160541200Y-147609000D03*
X161341200Y-147609000D03*
X162141200Y-147609000D03*
X162941200Y-147609000D03*
X163741200Y-147609000D03*
X164541200Y-147609000D03*
X165341200Y-147609000D03*
X166141200Y-147609000D03*
X166941200Y-147609000D03*
X167741200Y-147609000D03*
X168541200Y-147609000D03*
X169341200Y-147609000D03*
X170141200Y-147609000D03*
X170941200Y-147609000D03*
X171741200Y-147609000D03*
X172541200Y-147609000D03*
X173341200Y-147609000D03*
X174141200Y-147609000D03*
X174941200Y-147609000D03*
X174941200Y-136109000D03*
X174141200Y-136109000D03*
X173341200Y-136109000D03*
X172541200Y-136109000D03*
X171741200Y-136109000D03*
X170941200Y-136109000D03*
X170141200Y-136109000D03*
X169341200Y-136109000D03*
X168541200Y-136109000D03*
X167741200Y-136109000D03*
X166941200Y-136109000D03*
X166141200Y-136109000D03*
X165341200Y-136109000D03*
X164541200Y-136109000D03*
X163741200Y-136109000D03*
X162941200Y-136109000D03*
X162141200Y-136109000D03*
X161341200Y-136109000D03*
X160541200Y-136109000D03*
X159741200Y-136109000D03*
X158941200Y-136109000D03*
X158141200Y-136109000D03*
X157341200Y-136109000D03*
X156541200Y-136109000D03*
X155741200Y-136109000D03*
X154941200Y-136109000D03*
X154141200Y-136109000D03*
G36*
G01*
X236780000Y-103060000D02*
X236780000Y-102510000D01*
G75*
G02*
X236980000Y-102310000I200000J0D01*
G01*
X237380000Y-102310000D01*
G75*
G02*
X237580000Y-102510000I0J-200000D01*
G01*
X237580000Y-103060000D01*
G75*
G02*
X237380000Y-103260000I-200000J0D01*
G01*
X236980000Y-103260000D01*
G75*
G02*
X236780000Y-103060000I0J200000D01*
G01*
G37*
G36*
G01*
X238430000Y-103060000D02*
X238430000Y-102510000D01*
G75*
G02*
X238630000Y-102310000I200000J0D01*
G01*
X239030000Y-102310000D01*
G75*
G02*
X239230000Y-102510000I0J-200000D01*
G01*
X239230000Y-103060000D01*
G75*
G02*
X239030000Y-103260000I-200000J0D01*
G01*
X238630000Y-103260000D01*
G75*
G02*
X238430000Y-103060000I0J200000D01*
G01*
G37*
G36*
G01*
X197710000Y-186875000D02*
X197710000Y-186375000D01*
G75*
G02*
X197935000Y-186150000I225000J0D01*
G01*
X198385000Y-186150000D01*
G75*
G02*
X198610000Y-186375000I0J-225000D01*
G01*
X198610000Y-186875000D01*
G75*
G02*
X198385000Y-187100000I-225000J0D01*
G01*
X197935000Y-187100000D01*
G75*
G02*
X197710000Y-186875000I0J225000D01*
G01*
G37*
G36*
G01*
X199260000Y-186875000D02*
X199260000Y-186375000D01*
G75*
G02*
X199485000Y-186150000I225000J0D01*
G01*
X199935000Y-186150000D01*
G75*
G02*
X200160000Y-186375000I0J-225000D01*
G01*
X200160000Y-186875000D01*
G75*
G02*
X199935000Y-187100000I-225000J0D01*
G01*
X199485000Y-187100000D01*
G75*
G02*
X199260000Y-186875000I0J225000D01*
G01*
G37*
G36*
G01*
X86439500Y-136328900D02*
X86439500Y-135828900D01*
G75*
G02*
X86664500Y-135603900I225000J0D01*
G01*
X87114500Y-135603900D01*
G75*
G02*
X87339500Y-135828900I0J-225000D01*
G01*
X87339500Y-136328900D01*
G75*
G02*
X87114500Y-136553900I-225000J0D01*
G01*
X86664500Y-136553900D01*
G75*
G02*
X86439500Y-136328900I0J225000D01*
G01*
G37*
G36*
G01*
X87989500Y-136328900D02*
X87989500Y-135828900D01*
G75*
G02*
X88214500Y-135603900I225000J0D01*
G01*
X88664500Y-135603900D01*
G75*
G02*
X88889500Y-135828900I0J-225000D01*
G01*
X88889500Y-136328900D01*
G75*
G02*
X88664500Y-136553900I-225000J0D01*
G01*
X88214500Y-136553900D01*
G75*
G02*
X87989500Y-136328900I0J225000D01*
G01*
G37*
G36*
G01*
X86439500Y-133818900D02*
X86439500Y-133318900D01*
G75*
G02*
X86664500Y-133093900I225000J0D01*
G01*
X87114500Y-133093900D01*
G75*
G02*
X87339500Y-133318900I0J-225000D01*
G01*
X87339500Y-133818900D01*
G75*
G02*
X87114500Y-134043900I-225000J0D01*
G01*
X86664500Y-134043900D01*
G75*
G02*
X86439500Y-133818900I0J225000D01*
G01*
G37*
G36*
G01*
X87989500Y-133818900D02*
X87989500Y-133318900D01*
G75*
G02*
X88214500Y-133093900I225000J0D01*
G01*
X88664500Y-133093900D01*
G75*
G02*
X88889500Y-133318900I0J-225000D01*
G01*
X88889500Y-133818900D01*
G75*
G02*
X88664500Y-134043900I-225000J0D01*
G01*
X88214500Y-134043900D01*
G75*
G02*
X87989500Y-133818900I0J225000D01*
G01*
G37*
G36*
G01*
X197710000Y-184340000D02*
X197710000Y-183390000D01*
G75*
G02*
X197960000Y-183140000I250000J0D01*
G01*
X198635000Y-183140000D01*
G75*
G02*
X198885000Y-183390000I0J-250000D01*
G01*
X198885000Y-184340000D01*
G75*
G02*
X198635000Y-184590000I-250000J0D01*
G01*
X197960000Y-184590000D01*
G75*
G02*
X197710000Y-184340000I0J250000D01*
G01*
G37*
G36*
G01*
X199785000Y-184340000D02*
X199785000Y-183390000D01*
G75*
G02*
X200035000Y-183140000I250000J0D01*
G01*
X200710000Y-183140000D01*
G75*
G02*
X200960000Y-183390000I0J-250000D01*
G01*
X200960000Y-184340000D01*
G75*
G02*
X200710000Y-184590000I-250000J0D01*
G01*
X200035000Y-184590000D01*
G75*
G02*
X199785000Y-184340000I0J250000D01*
G01*
G37*
D18*
X109692500Y-148000000D03*
D19*
X107692500Y-148000000D03*
X109692500Y-146000000D03*
X107692500Y-146000000D03*
X109692500Y-144000000D03*
X107692500Y-144000000D03*
X109692500Y-142000000D03*
X107692500Y-142000000D03*
X109692500Y-140000000D03*
X107692500Y-140000000D03*
X109692500Y-138000000D03*
X107692500Y-138000000D03*
X109692500Y-136000000D03*
X107692500Y-136000000D03*
X109692500Y-134000000D03*
X107692500Y-134000000D03*
X109692500Y-132000000D03*
X107692500Y-132000000D03*
X109692500Y-130000000D03*
X107692500Y-130000000D03*
X109692500Y-128000000D03*
X107692500Y-128000000D03*
X109692500Y-126000000D03*
X107692500Y-126000000D03*
X109692500Y-124000000D03*
X107692500Y-124000000D03*
X109692500Y-122000000D03*
X107692500Y-122000000D03*
X109692500Y-120000000D03*
X107692500Y-120000000D03*
X109692500Y-118000000D03*
X107692500Y-118000000D03*
X109692500Y-116000000D03*
X107692500Y-116000000D03*
X109692500Y-114000000D03*
X107692500Y-114000000D03*
X109692500Y-112000000D03*
X107692500Y-112000000D03*
X109692500Y-110000000D03*
X107692500Y-110000000D03*
X109692500Y-108000000D03*
X107692500Y-108000000D03*
X109692500Y-106000000D03*
X107692500Y-106000000D03*
G36*
G01*
X145770000Y-165595000D02*
X145770000Y-165095000D01*
G75*
G02*
X145995000Y-164870000I225000J0D01*
G01*
X146445000Y-164870000D01*
G75*
G02*
X146670000Y-165095000I0J-225000D01*
G01*
X146670000Y-165595000D01*
G75*
G02*
X146445000Y-165820000I-225000J0D01*
G01*
X145995000Y-165820000D01*
G75*
G02*
X145770000Y-165595000I0J225000D01*
G01*
G37*
G36*
G01*
X147320000Y-165595000D02*
X147320000Y-165095000D01*
G75*
G02*
X147545000Y-164870000I225000J0D01*
G01*
X147995000Y-164870000D01*
G75*
G02*
X148220000Y-165095000I0J-225000D01*
G01*
X148220000Y-165595000D01*
G75*
G02*
X147995000Y-165820000I-225000J0D01*
G01*
X147545000Y-165820000D01*
G75*
G02*
X147320000Y-165595000I0J225000D01*
G01*
G37*
G36*
G01*
X221030000Y-155055000D02*
X221030000Y-154555000D01*
G75*
G02*
X221255000Y-154330000I225000J0D01*
G01*
X221705000Y-154330000D01*
G75*
G02*
X221930000Y-154555000I0J-225000D01*
G01*
X221930000Y-155055000D01*
G75*
G02*
X221705000Y-155280000I-225000J0D01*
G01*
X221255000Y-155280000D01*
G75*
G02*
X221030000Y-155055000I0J225000D01*
G01*
G37*
G36*
G01*
X222580000Y-155055000D02*
X222580000Y-154555000D01*
G75*
G02*
X222805000Y-154330000I225000J0D01*
G01*
X223255000Y-154330000D01*
G75*
G02*
X223480000Y-154555000I0J-225000D01*
G01*
X223480000Y-155055000D01*
G75*
G02*
X223255000Y-155280000I-225000J0D01*
G01*
X222805000Y-155280000D01*
G75*
G02*
X222580000Y-155055000I0J225000D01*
G01*
G37*
G36*
G01*
X225040000Y-155055000D02*
X225040000Y-154555000D01*
G75*
G02*
X225265000Y-154330000I225000J0D01*
G01*
X225715000Y-154330000D01*
G75*
G02*
X225940000Y-154555000I0J-225000D01*
G01*
X225940000Y-155055000D01*
G75*
G02*
X225715000Y-155280000I-225000J0D01*
G01*
X225265000Y-155280000D01*
G75*
G02*
X225040000Y-155055000I0J225000D01*
G01*
G37*
G36*
G01*
X226590000Y-155055000D02*
X226590000Y-154555000D01*
G75*
G02*
X226815000Y-154330000I225000J0D01*
G01*
X227265000Y-154330000D01*
G75*
G02*
X227490000Y-154555000I0J-225000D01*
G01*
X227490000Y-155055000D01*
G75*
G02*
X227265000Y-155280000I-225000J0D01*
G01*
X226815000Y-155280000D01*
G75*
G02*
X226590000Y-155055000I0J225000D01*
G01*
G37*
D20*
X121744000Y-106848800D03*
X121744000Y-107348800D03*
X121744000Y-107848800D03*
X121744000Y-108348800D03*
X121744000Y-108848800D03*
X121744000Y-109348800D03*
X121744000Y-109848800D03*
X121744000Y-110348800D03*
X121744000Y-110848800D03*
X121744000Y-111348800D03*
X121744000Y-111848800D03*
X121744000Y-112348800D03*
X121744000Y-112848800D03*
X121744000Y-113348800D03*
X121744000Y-113848800D03*
X121744000Y-114348800D03*
X121744000Y-114848800D03*
X121744000Y-115348800D03*
X121744000Y-115848800D03*
X121744000Y-116348800D03*
X121744000Y-116848800D03*
X121744000Y-117348800D03*
X121744000Y-117848800D03*
X121744000Y-118348800D03*
X141244000Y-118348800D03*
X141244000Y-117848800D03*
X141244000Y-117348800D03*
X141244000Y-116848800D03*
X141244000Y-116348800D03*
X141244000Y-115848800D03*
X141244000Y-115348800D03*
X141244000Y-114848800D03*
X141244000Y-114348800D03*
X141244000Y-113848800D03*
X141244000Y-113348800D03*
X141244000Y-112848800D03*
X141244000Y-112348800D03*
X141244000Y-111848800D03*
X141244000Y-111348800D03*
X141244000Y-110848800D03*
X141244000Y-110348800D03*
X141244000Y-109848800D03*
X141244000Y-109348800D03*
X141244000Y-108848800D03*
X141244000Y-108348800D03*
X141244000Y-107848800D03*
X141244000Y-107348800D03*
X141244000Y-106848800D03*
G36*
G01*
X84729500Y-108658900D02*
X84729500Y-107708900D01*
G75*
G02*
X84979500Y-107458900I250000J0D01*
G01*
X85654500Y-107458900D01*
G75*
G02*
X85904500Y-107708900I0J-250000D01*
G01*
X85904500Y-108658900D01*
G75*
G02*
X85654500Y-108908900I-250000J0D01*
G01*
X84979500Y-108908900D01*
G75*
G02*
X84729500Y-108658900I0J250000D01*
G01*
G37*
G36*
G01*
X86804500Y-108658900D02*
X86804500Y-107708900D01*
G75*
G02*
X87054500Y-107458900I250000J0D01*
G01*
X87729500Y-107458900D01*
G75*
G02*
X87979500Y-107708900I0J-250000D01*
G01*
X87979500Y-108658900D01*
G75*
G02*
X87729500Y-108908900I-250000J0D01*
G01*
X87054500Y-108908900D01*
G75*
G02*
X86804500Y-108658900I0J250000D01*
G01*
G37*
G36*
G01*
X138694000Y-129455800D02*
X138694000Y-129605800D01*
G75*
G02*
X138619000Y-129680800I-75000J0D01*
G01*
X137219000Y-129680800D01*
G75*
G02*
X137144000Y-129605800I0J75000D01*
G01*
X137144000Y-129455800D01*
G75*
G02*
X137219000Y-129380800I75000J0D01*
G01*
X138619000Y-129380800D01*
G75*
G02*
X138694000Y-129455800I0J-75000D01*
G01*
G37*
G36*
G01*
X138694000Y-128955800D02*
X138694000Y-129105800D01*
G75*
G02*
X138619000Y-129180800I-75000J0D01*
G01*
X137219000Y-129180800D01*
G75*
G02*
X137144000Y-129105800I0J75000D01*
G01*
X137144000Y-128955800D01*
G75*
G02*
X137219000Y-128880800I75000J0D01*
G01*
X138619000Y-128880800D01*
G75*
G02*
X138694000Y-128955800I0J-75000D01*
G01*
G37*
G36*
G01*
X138694000Y-128455800D02*
X138694000Y-128605800D01*
G75*
G02*
X138619000Y-128680800I-75000J0D01*
G01*
X137219000Y-128680800D01*
G75*
G02*
X137144000Y-128605800I0J75000D01*
G01*
X137144000Y-128455800D01*
G75*
G02*
X137219000Y-128380800I75000J0D01*
G01*
X138619000Y-128380800D01*
G75*
G02*
X138694000Y-128455800I0J-75000D01*
G01*
G37*
G36*
G01*
X138694000Y-127955800D02*
X138694000Y-128105800D01*
G75*
G02*
X138619000Y-128180800I-75000J0D01*
G01*
X137219000Y-128180800D01*
G75*
G02*
X137144000Y-128105800I0J75000D01*
G01*
X137144000Y-127955800D01*
G75*
G02*
X137219000Y-127880800I75000J0D01*
G01*
X138619000Y-127880800D01*
G75*
G02*
X138694000Y-127955800I0J-75000D01*
G01*
G37*
G36*
G01*
X138694000Y-127455800D02*
X138694000Y-127605800D01*
G75*
G02*
X138619000Y-127680800I-75000J0D01*
G01*
X137219000Y-127680800D01*
G75*
G02*
X137144000Y-127605800I0J75000D01*
G01*
X137144000Y-127455800D01*
G75*
G02*
X137219000Y-127380800I75000J0D01*
G01*
X138619000Y-127380800D01*
G75*
G02*
X138694000Y-127455800I0J-75000D01*
G01*
G37*
G36*
G01*
X138694000Y-126955800D02*
X138694000Y-127105800D01*
G75*
G02*
X138619000Y-127180800I-75000J0D01*
G01*
X137219000Y-127180800D01*
G75*
G02*
X137144000Y-127105800I0J75000D01*
G01*
X137144000Y-126955800D01*
G75*
G02*
X137219000Y-126880800I75000J0D01*
G01*
X138619000Y-126880800D01*
G75*
G02*
X138694000Y-126955800I0J-75000D01*
G01*
G37*
G36*
G01*
X138694000Y-126455800D02*
X138694000Y-126605800D01*
G75*
G02*
X138619000Y-126680800I-75000J0D01*
G01*
X137219000Y-126680800D01*
G75*
G02*
X137144000Y-126605800I0J75000D01*
G01*
X137144000Y-126455800D01*
G75*
G02*
X137219000Y-126380800I75000J0D01*
G01*
X138619000Y-126380800D01*
G75*
G02*
X138694000Y-126455800I0J-75000D01*
G01*
G37*
G36*
G01*
X138694000Y-125955800D02*
X138694000Y-126105800D01*
G75*
G02*
X138619000Y-126180800I-75000J0D01*
G01*
X137219000Y-126180800D01*
G75*
G02*
X137144000Y-126105800I0J75000D01*
G01*
X137144000Y-125955800D01*
G75*
G02*
X137219000Y-125880800I75000J0D01*
G01*
X138619000Y-125880800D01*
G75*
G02*
X138694000Y-125955800I0J-75000D01*
G01*
G37*
G36*
G01*
X138694000Y-125455800D02*
X138694000Y-125605800D01*
G75*
G02*
X138619000Y-125680800I-75000J0D01*
G01*
X137219000Y-125680800D01*
G75*
G02*
X137144000Y-125605800I0J75000D01*
G01*
X137144000Y-125455800D01*
G75*
G02*
X137219000Y-125380800I75000J0D01*
G01*
X138619000Y-125380800D01*
G75*
G02*
X138694000Y-125455800I0J-75000D01*
G01*
G37*
G36*
G01*
X138694000Y-124955800D02*
X138694000Y-125105800D01*
G75*
G02*
X138619000Y-125180800I-75000J0D01*
G01*
X137219000Y-125180800D01*
G75*
G02*
X137144000Y-125105800I0J75000D01*
G01*
X137144000Y-124955800D01*
G75*
G02*
X137219000Y-124880800I75000J0D01*
G01*
X138619000Y-124880800D01*
G75*
G02*
X138694000Y-124955800I0J-75000D01*
G01*
G37*
G36*
G01*
X138694000Y-124455800D02*
X138694000Y-124605800D01*
G75*
G02*
X138619000Y-124680800I-75000J0D01*
G01*
X137219000Y-124680800D01*
G75*
G02*
X137144000Y-124605800I0J75000D01*
G01*
X137144000Y-124455800D01*
G75*
G02*
X137219000Y-124380800I75000J0D01*
G01*
X138619000Y-124380800D01*
G75*
G02*
X138694000Y-124455800I0J-75000D01*
G01*
G37*
G36*
G01*
X138694000Y-123955800D02*
X138694000Y-124105800D01*
G75*
G02*
X138619000Y-124180800I-75000J0D01*
G01*
X137219000Y-124180800D01*
G75*
G02*
X137144000Y-124105800I0J75000D01*
G01*
X137144000Y-123955800D01*
G75*
G02*
X137219000Y-123880800I75000J0D01*
G01*
X138619000Y-123880800D01*
G75*
G02*
X138694000Y-123955800I0J-75000D01*
G01*
G37*
G36*
G01*
X138694000Y-123455800D02*
X138694000Y-123605800D01*
G75*
G02*
X138619000Y-123680800I-75000J0D01*
G01*
X137219000Y-123680800D01*
G75*
G02*
X137144000Y-123605800I0J75000D01*
G01*
X137144000Y-123455800D01*
G75*
G02*
X137219000Y-123380800I75000J0D01*
G01*
X138619000Y-123380800D01*
G75*
G02*
X138694000Y-123455800I0J-75000D01*
G01*
G37*
G36*
G01*
X138694000Y-122955800D02*
X138694000Y-123105800D01*
G75*
G02*
X138619000Y-123180800I-75000J0D01*
G01*
X137219000Y-123180800D01*
G75*
G02*
X137144000Y-123105800I0J75000D01*
G01*
X137144000Y-122955800D01*
G75*
G02*
X137219000Y-122880800I75000J0D01*
G01*
X138619000Y-122880800D01*
G75*
G02*
X138694000Y-122955800I0J-75000D01*
G01*
G37*
G36*
G01*
X138694000Y-122455800D02*
X138694000Y-122605800D01*
G75*
G02*
X138619000Y-122680800I-75000J0D01*
G01*
X137219000Y-122680800D01*
G75*
G02*
X137144000Y-122605800I0J75000D01*
G01*
X137144000Y-122455800D01*
G75*
G02*
X137219000Y-122380800I75000J0D01*
G01*
X138619000Y-122380800D01*
G75*
G02*
X138694000Y-122455800I0J-75000D01*
G01*
G37*
G36*
G01*
X138694000Y-121955800D02*
X138694000Y-122105800D01*
G75*
G02*
X138619000Y-122180800I-75000J0D01*
G01*
X137219000Y-122180800D01*
G75*
G02*
X137144000Y-122105800I0J75000D01*
G01*
X137144000Y-121955800D01*
G75*
G02*
X137219000Y-121880800I75000J0D01*
G01*
X138619000Y-121880800D01*
G75*
G02*
X138694000Y-121955800I0J-75000D01*
G01*
G37*
G36*
G01*
X125844000Y-121955800D02*
X125844000Y-122105800D01*
G75*
G02*
X125769000Y-122180800I-75000J0D01*
G01*
X124369000Y-122180800D01*
G75*
G02*
X124294000Y-122105800I0J75000D01*
G01*
X124294000Y-121955800D01*
G75*
G02*
X124369000Y-121880800I75000J0D01*
G01*
X125769000Y-121880800D01*
G75*
G02*
X125844000Y-121955800I0J-75000D01*
G01*
G37*
G36*
G01*
X125844000Y-122455800D02*
X125844000Y-122605800D01*
G75*
G02*
X125769000Y-122680800I-75000J0D01*
G01*
X124369000Y-122680800D01*
G75*
G02*
X124294000Y-122605800I0J75000D01*
G01*
X124294000Y-122455800D01*
G75*
G02*
X124369000Y-122380800I75000J0D01*
G01*
X125769000Y-122380800D01*
G75*
G02*
X125844000Y-122455800I0J-75000D01*
G01*
G37*
G36*
G01*
X125844000Y-122955800D02*
X125844000Y-123105800D01*
G75*
G02*
X125769000Y-123180800I-75000J0D01*
G01*
X124369000Y-123180800D01*
G75*
G02*
X124294000Y-123105800I0J75000D01*
G01*
X124294000Y-122955800D01*
G75*
G02*
X124369000Y-122880800I75000J0D01*
G01*
X125769000Y-122880800D01*
G75*
G02*
X125844000Y-122955800I0J-75000D01*
G01*
G37*
G36*
G01*
X125844000Y-123455800D02*
X125844000Y-123605800D01*
G75*
G02*
X125769000Y-123680800I-75000J0D01*
G01*
X124369000Y-123680800D01*
G75*
G02*
X124294000Y-123605800I0J75000D01*
G01*
X124294000Y-123455800D01*
G75*
G02*
X124369000Y-123380800I75000J0D01*
G01*
X125769000Y-123380800D01*
G75*
G02*
X125844000Y-123455800I0J-75000D01*
G01*
G37*
G36*
G01*
X125844000Y-123955800D02*
X125844000Y-124105800D01*
G75*
G02*
X125769000Y-124180800I-75000J0D01*
G01*
X124369000Y-124180800D01*
G75*
G02*
X124294000Y-124105800I0J75000D01*
G01*
X124294000Y-123955800D01*
G75*
G02*
X124369000Y-123880800I75000J0D01*
G01*
X125769000Y-123880800D01*
G75*
G02*
X125844000Y-123955800I0J-75000D01*
G01*
G37*
G36*
G01*
X125844000Y-124455800D02*
X125844000Y-124605800D01*
G75*
G02*
X125769000Y-124680800I-75000J0D01*
G01*
X124369000Y-124680800D01*
G75*
G02*
X124294000Y-124605800I0J75000D01*
G01*
X124294000Y-124455800D01*
G75*
G02*
X124369000Y-124380800I75000J0D01*
G01*
X125769000Y-124380800D01*
G75*
G02*
X125844000Y-124455800I0J-75000D01*
G01*
G37*
G36*
G01*
X125844000Y-124955800D02*
X125844000Y-125105800D01*
G75*
G02*
X125769000Y-125180800I-75000J0D01*
G01*
X124369000Y-125180800D01*
G75*
G02*
X124294000Y-125105800I0J75000D01*
G01*
X124294000Y-124955800D01*
G75*
G02*
X124369000Y-124880800I75000J0D01*
G01*
X125769000Y-124880800D01*
G75*
G02*
X125844000Y-124955800I0J-75000D01*
G01*
G37*
G36*
G01*
X125844000Y-125455800D02*
X125844000Y-125605800D01*
G75*
G02*
X125769000Y-125680800I-75000J0D01*
G01*
X124369000Y-125680800D01*
G75*
G02*
X124294000Y-125605800I0J75000D01*
G01*
X124294000Y-125455800D01*
G75*
G02*
X124369000Y-125380800I75000J0D01*
G01*
X125769000Y-125380800D01*
G75*
G02*
X125844000Y-125455800I0J-75000D01*
G01*
G37*
G36*
G01*
X125844000Y-125955800D02*
X125844000Y-126105800D01*
G75*
G02*
X125769000Y-126180800I-75000J0D01*
G01*
X124369000Y-126180800D01*
G75*
G02*
X124294000Y-126105800I0J75000D01*
G01*
X124294000Y-125955800D01*
G75*
G02*
X124369000Y-125880800I75000J0D01*
G01*
X125769000Y-125880800D01*
G75*
G02*
X125844000Y-125955800I0J-75000D01*
G01*
G37*
G36*
G01*
X125844000Y-126455800D02*
X125844000Y-126605800D01*
G75*
G02*
X125769000Y-126680800I-75000J0D01*
G01*
X124369000Y-126680800D01*
G75*
G02*
X124294000Y-126605800I0J75000D01*
G01*
X124294000Y-126455800D01*
G75*
G02*
X124369000Y-126380800I75000J0D01*
G01*
X125769000Y-126380800D01*
G75*
G02*
X125844000Y-126455800I0J-75000D01*
G01*
G37*
G36*
G01*
X125844000Y-126955800D02*
X125844000Y-127105800D01*
G75*
G02*
X125769000Y-127180800I-75000J0D01*
G01*
X124369000Y-127180800D01*
G75*
G02*
X124294000Y-127105800I0J75000D01*
G01*
X124294000Y-126955800D01*
G75*
G02*
X124369000Y-126880800I75000J0D01*
G01*
X125769000Y-126880800D01*
G75*
G02*
X125844000Y-126955800I0J-75000D01*
G01*
G37*
G36*
G01*
X125844000Y-127455800D02*
X125844000Y-127605800D01*
G75*
G02*
X125769000Y-127680800I-75000J0D01*
G01*
X124369000Y-127680800D01*
G75*
G02*
X124294000Y-127605800I0J75000D01*
G01*
X124294000Y-127455800D01*
G75*
G02*
X124369000Y-127380800I75000J0D01*
G01*
X125769000Y-127380800D01*
G75*
G02*
X125844000Y-127455800I0J-75000D01*
G01*
G37*
G36*
G01*
X125844000Y-127955800D02*
X125844000Y-128105800D01*
G75*
G02*
X125769000Y-128180800I-75000J0D01*
G01*
X124369000Y-128180800D01*
G75*
G02*
X124294000Y-128105800I0J75000D01*
G01*
X124294000Y-127955800D01*
G75*
G02*
X124369000Y-127880800I75000J0D01*
G01*
X125769000Y-127880800D01*
G75*
G02*
X125844000Y-127955800I0J-75000D01*
G01*
G37*
G36*
G01*
X125844000Y-128455800D02*
X125844000Y-128605800D01*
G75*
G02*
X125769000Y-128680800I-75000J0D01*
G01*
X124369000Y-128680800D01*
G75*
G02*
X124294000Y-128605800I0J75000D01*
G01*
X124294000Y-128455800D01*
G75*
G02*
X124369000Y-128380800I75000J0D01*
G01*
X125769000Y-128380800D01*
G75*
G02*
X125844000Y-128455800I0J-75000D01*
G01*
G37*
G36*
G01*
X125844000Y-128955800D02*
X125844000Y-129105800D01*
G75*
G02*
X125769000Y-129180800I-75000J0D01*
G01*
X124369000Y-129180800D01*
G75*
G02*
X124294000Y-129105800I0J75000D01*
G01*
X124294000Y-128955800D01*
G75*
G02*
X124369000Y-128880800I75000J0D01*
G01*
X125769000Y-128880800D01*
G75*
G02*
X125844000Y-128955800I0J-75000D01*
G01*
G37*
G36*
G01*
X125844000Y-129455800D02*
X125844000Y-129605800D01*
G75*
G02*
X125769000Y-129680800I-75000J0D01*
G01*
X124369000Y-129680800D01*
G75*
G02*
X124294000Y-129605800I0J75000D01*
G01*
X124294000Y-129455800D01*
G75*
G02*
X124369000Y-129380800I75000J0D01*
G01*
X125769000Y-129380800D01*
G75*
G02*
X125844000Y-129455800I0J-75000D01*
G01*
G37*
G36*
G01*
X112712500Y-140862800D02*
X112712500Y-140662800D01*
G75*
G02*
X112812500Y-140562800I100000J0D01*
G01*
X114087500Y-140562800D01*
G75*
G02*
X114187500Y-140662800I0J-100000D01*
G01*
X114187500Y-140862800D01*
G75*
G02*
X114087500Y-140962800I-100000J0D01*
G01*
X112812500Y-140962800D01*
G75*
G02*
X112712500Y-140862800I0J100000D01*
G01*
G37*
G36*
G01*
X112712500Y-141512800D02*
X112712500Y-141312800D01*
G75*
G02*
X112812500Y-141212800I100000J0D01*
G01*
X114087500Y-141212800D01*
G75*
G02*
X114187500Y-141312800I0J-100000D01*
G01*
X114187500Y-141512800D01*
G75*
G02*
X114087500Y-141612800I-100000J0D01*
G01*
X112812500Y-141612800D01*
G75*
G02*
X112712500Y-141512800I0J100000D01*
G01*
G37*
G36*
G01*
X112712500Y-142162800D02*
X112712500Y-141962800D01*
G75*
G02*
X112812500Y-141862800I100000J0D01*
G01*
X114087500Y-141862800D01*
G75*
G02*
X114187500Y-141962800I0J-100000D01*
G01*
X114187500Y-142162800D01*
G75*
G02*
X114087500Y-142262800I-100000J0D01*
G01*
X112812500Y-142262800D01*
G75*
G02*
X112712500Y-142162800I0J100000D01*
G01*
G37*
G36*
G01*
X112712500Y-142812800D02*
X112712500Y-142612800D01*
G75*
G02*
X112812500Y-142512800I100000J0D01*
G01*
X114087500Y-142512800D01*
G75*
G02*
X114187500Y-142612800I0J-100000D01*
G01*
X114187500Y-142812800D01*
G75*
G02*
X114087500Y-142912800I-100000J0D01*
G01*
X112812500Y-142912800D01*
G75*
G02*
X112712500Y-142812800I0J100000D01*
G01*
G37*
G36*
G01*
X112712500Y-143462800D02*
X112712500Y-143262800D01*
G75*
G02*
X112812500Y-143162800I100000J0D01*
G01*
X114087500Y-143162800D01*
G75*
G02*
X114187500Y-143262800I0J-100000D01*
G01*
X114187500Y-143462800D01*
G75*
G02*
X114087500Y-143562800I-100000J0D01*
G01*
X112812500Y-143562800D01*
G75*
G02*
X112712500Y-143462800I0J100000D01*
G01*
G37*
G36*
G01*
X112712500Y-144112800D02*
X112712500Y-143912800D01*
G75*
G02*
X112812500Y-143812800I100000J0D01*
G01*
X114087500Y-143812800D01*
G75*
G02*
X114187500Y-143912800I0J-100000D01*
G01*
X114187500Y-144112800D01*
G75*
G02*
X114087500Y-144212800I-100000J0D01*
G01*
X112812500Y-144212800D01*
G75*
G02*
X112712500Y-144112800I0J100000D01*
G01*
G37*
G36*
G01*
X112712500Y-144762800D02*
X112712500Y-144562800D01*
G75*
G02*
X112812500Y-144462800I100000J0D01*
G01*
X114087500Y-144462800D01*
G75*
G02*
X114187500Y-144562800I0J-100000D01*
G01*
X114187500Y-144762800D01*
G75*
G02*
X114087500Y-144862800I-100000J0D01*
G01*
X112812500Y-144862800D01*
G75*
G02*
X112712500Y-144762800I0J100000D01*
G01*
G37*
G36*
G01*
X112712500Y-145412800D02*
X112712500Y-145212800D01*
G75*
G02*
X112812500Y-145112800I100000J0D01*
G01*
X114087500Y-145112800D01*
G75*
G02*
X114187500Y-145212800I0J-100000D01*
G01*
X114187500Y-145412800D01*
G75*
G02*
X114087500Y-145512800I-100000J0D01*
G01*
X112812500Y-145512800D01*
G75*
G02*
X112712500Y-145412800I0J100000D01*
G01*
G37*
G36*
G01*
X112712500Y-146062800D02*
X112712500Y-145862800D01*
G75*
G02*
X112812500Y-145762800I100000J0D01*
G01*
X114087500Y-145762800D01*
G75*
G02*
X114187500Y-145862800I0J-100000D01*
G01*
X114187500Y-146062800D01*
G75*
G02*
X114087500Y-146162800I-100000J0D01*
G01*
X112812500Y-146162800D01*
G75*
G02*
X112712500Y-146062800I0J100000D01*
G01*
G37*
G36*
G01*
X112712500Y-146712800D02*
X112712500Y-146512800D01*
G75*
G02*
X112812500Y-146412800I100000J0D01*
G01*
X114087500Y-146412800D01*
G75*
G02*
X114187500Y-146512800I0J-100000D01*
G01*
X114187500Y-146712800D01*
G75*
G02*
X114087500Y-146812800I-100000J0D01*
G01*
X112812500Y-146812800D01*
G75*
G02*
X112712500Y-146712800I0J100000D01*
G01*
G37*
G36*
G01*
X118437500Y-146712800D02*
X118437500Y-146512800D01*
G75*
G02*
X118537500Y-146412800I100000J0D01*
G01*
X119812500Y-146412800D01*
G75*
G02*
X119912500Y-146512800I0J-100000D01*
G01*
X119912500Y-146712800D01*
G75*
G02*
X119812500Y-146812800I-100000J0D01*
G01*
X118537500Y-146812800D01*
G75*
G02*
X118437500Y-146712800I0J100000D01*
G01*
G37*
G36*
G01*
X118437500Y-146062800D02*
X118437500Y-145862800D01*
G75*
G02*
X118537500Y-145762800I100000J0D01*
G01*
X119812500Y-145762800D01*
G75*
G02*
X119912500Y-145862800I0J-100000D01*
G01*
X119912500Y-146062800D01*
G75*
G02*
X119812500Y-146162800I-100000J0D01*
G01*
X118537500Y-146162800D01*
G75*
G02*
X118437500Y-146062800I0J100000D01*
G01*
G37*
G36*
G01*
X118437500Y-145412800D02*
X118437500Y-145212800D01*
G75*
G02*
X118537500Y-145112800I100000J0D01*
G01*
X119812500Y-145112800D01*
G75*
G02*
X119912500Y-145212800I0J-100000D01*
G01*
X119912500Y-145412800D01*
G75*
G02*
X119812500Y-145512800I-100000J0D01*
G01*
X118537500Y-145512800D01*
G75*
G02*
X118437500Y-145412800I0J100000D01*
G01*
G37*
G36*
G01*
X118437500Y-144762800D02*
X118437500Y-144562800D01*
G75*
G02*
X118537500Y-144462800I100000J0D01*
G01*
X119812500Y-144462800D01*
G75*
G02*
X119912500Y-144562800I0J-100000D01*
G01*
X119912500Y-144762800D01*
G75*
G02*
X119812500Y-144862800I-100000J0D01*
G01*
X118537500Y-144862800D01*
G75*
G02*
X118437500Y-144762800I0J100000D01*
G01*
G37*
G36*
G01*
X118437500Y-144112800D02*
X118437500Y-143912800D01*
G75*
G02*
X118537500Y-143812800I100000J0D01*
G01*
X119812500Y-143812800D01*
G75*
G02*
X119912500Y-143912800I0J-100000D01*
G01*
X119912500Y-144112800D01*
G75*
G02*
X119812500Y-144212800I-100000J0D01*
G01*
X118537500Y-144212800D01*
G75*
G02*
X118437500Y-144112800I0J100000D01*
G01*
G37*
G36*
G01*
X118437500Y-143462800D02*
X118437500Y-143262800D01*
G75*
G02*
X118537500Y-143162800I100000J0D01*
G01*
X119812500Y-143162800D01*
G75*
G02*
X119912500Y-143262800I0J-100000D01*
G01*
X119912500Y-143462800D01*
G75*
G02*
X119812500Y-143562800I-100000J0D01*
G01*
X118537500Y-143562800D01*
G75*
G02*
X118437500Y-143462800I0J100000D01*
G01*
G37*
G36*
G01*
X118437500Y-142812800D02*
X118437500Y-142612800D01*
G75*
G02*
X118537500Y-142512800I100000J0D01*
G01*
X119812500Y-142512800D01*
G75*
G02*
X119912500Y-142612800I0J-100000D01*
G01*
X119912500Y-142812800D01*
G75*
G02*
X119812500Y-142912800I-100000J0D01*
G01*
X118537500Y-142912800D01*
G75*
G02*
X118437500Y-142812800I0J100000D01*
G01*
G37*
G36*
G01*
X118437500Y-142162800D02*
X118437500Y-141962800D01*
G75*
G02*
X118537500Y-141862800I100000J0D01*
G01*
X119812500Y-141862800D01*
G75*
G02*
X119912500Y-141962800I0J-100000D01*
G01*
X119912500Y-142162800D01*
G75*
G02*
X119812500Y-142262800I-100000J0D01*
G01*
X118537500Y-142262800D01*
G75*
G02*
X118437500Y-142162800I0J100000D01*
G01*
G37*
G36*
G01*
X118437500Y-141512800D02*
X118437500Y-141312800D01*
G75*
G02*
X118537500Y-141212800I100000J0D01*
G01*
X119812500Y-141212800D01*
G75*
G02*
X119912500Y-141312800I0J-100000D01*
G01*
X119912500Y-141512800D01*
G75*
G02*
X119812500Y-141612800I-100000J0D01*
G01*
X118537500Y-141612800D01*
G75*
G02*
X118437500Y-141512800I0J100000D01*
G01*
G37*
G36*
G01*
X118437500Y-140862800D02*
X118437500Y-140662800D01*
G75*
G02*
X118537500Y-140562800I100000J0D01*
G01*
X119812500Y-140562800D01*
G75*
G02*
X119912500Y-140662800I0J-100000D01*
G01*
X119912500Y-140862800D01*
G75*
G02*
X119812500Y-140962800I-100000J0D01*
G01*
X118537500Y-140962800D01*
G75*
G02*
X118437500Y-140862800I0J100000D01*
G01*
G37*
G36*
G01*
X206460000Y-175815000D02*
X206460000Y-175315000D01*
G75*
G02*
X206685000Y-175090000I225000J0D01*
G01*
X207135000Y-175090000D01*
G75*
G02*
X207360000Y-175315000I0J-225000D01*
G01*
X207360000Y-175815000D01*
G75*
G02*
X207135000Y-176040000I-225000J0D01*
G01*
X206685000Y-176040000D01*
G75*
G02*
X206460000Y-175815000I0J225000D01*
G01*
G37*
G36*
G01*
X208010000Y-175815000D02*
X208010000Y-175315000D01*
G75*
G02*
X208235000Y-175090000I225000J0D01*
G01*
X208685000Y-175090000D01*
G75*
G02*
X208910000Y-175315000I0J-225000D01*
G01*
X208910000Y-175815000D01*
G75*
G02*
X208685000Y-176040000I-225000J0D01*
G01*
X208235000Y-176040000D01*
G75*
G02*
X208010000Y-175815000I0J225000D01*
G01*
G37*
D13*
X177907500Y-106517900D03*
D14*
X177907500Y-109057900D03*
X177907500Y-111597900D03*
X177907500Y-114137900D03*
X177907500Y-116677900D03*
X177907500Y-119217900D03*
D13*
X212225000Y-141855000D03*
D14*
X212225000Y-144395000D03*
G36*
G01*
X112712500Y-131871200D02*
X112712500Y-131671200D01*
G75*
G02*
X112812500Y-131571200I100000J0D01*
G01*
X114087500Y-131571200D01*
G75*
G02*
X114187500Y-131671200I0J-100000D01*
G01*
X114187500Y-131871200D01*
G75*
G02*
X114087500Y-131971200I-100000J0D01*
G01*
X112812500Y-131971200D01*
G75*
G02*
X112712500Y-131871200I0J100000D01*
G01*
G37*
G36*
G01*
X112712500Y-132521200D02*
X112712500Y-132321200D01*
G75*
G02*
X112812500Y-132221200I100000J0D01*
G01*
X114087500Y-132221200D01*
G75*
G02*
X114187500Y-132321200I0J-100000D01*
G01*
X114187500Y-132521200D01*
G75*
G02*
X114087500Y-132621200I-100000J0D01*
G01*
X112812500Y-132621200D01*
G75*
G02*
X112712500Y-132521200I0J100000D01*
G01*
G37*
G36*
G01*
X112712500Y-133171200D02*
X112712500Y-132971200D01*
G75*
G02*
X112812500Y-132871200I100000J0D01*
G01*
X114087500Y-132871200D01*
G75*
G02*
X114187500Y-132971200I0J-100000D01*
G01*
X114187500Y-133171200D01*
G75*
G02*
X114087500Y-133271200I-100000J0D01*
G01*
X112812500Y-133271200D01*
G75*
G02*
X112712500Y-133171200I0J100000D01*
G01*
G37*
G36*
G01*
X112712500Y-133821200D02*
X112712500Y-133621200D01*
G75*
G02*
X112812500Y-133521200I100000J0D01*
G01*
X114087500Y-133521200D01*
G75*
G02*
X114187500Y-133621200I0J-100000D01*
G01*
X114187500Y-133821200D01*
G75*
G02*
X114087500Y-133921200I-100000J0D01*
G01*
X112812500Y-133921200D01*
G75*
G02*
X112712500Y-133821200I0J100000D01*
G01*
G37*
G36*
G01*
X112712500Y-134471200D02*
X112712500Y-134271200D01*
G75*
G02*
X112812500Y-134171200I100000J0D01*
G01*
X114087500Y-134171200D01*
G75*
G02*
X114187500Y-134271200I0J-100000D01*
G01*
X114187500Y-134471200D01*
G75*
G02*
X114087500Y-134571200I-100000J0D01*
G01*
X112812500Y-134571200D01*
G75*
G02*
X112712500Y-134471200I0J100000D01*
G01*
G37*
G36*
G01*
X112712500Y-135121200D02*
X112712500Y-134921200D01*
G75*
G02*
X112812500Y-134821200I100000J0D01*
G01*
X114087500Y-134821200D01*
G75*
G02*
X114187500Y-134921200I0J-100000D01*
G01*
X114187500Y-135121200D01*
G75*
G02*
X114087500Y-135221200I-100000J0D01*
G01*
X112812500Y-135221200D01*
G75*
G02*
X112712500Y-135121200I0J100000D01*
G01*
G37*
G36*
G01*
X112712500Y-135771200D02*
X112712500Y-135571200D01*
G75*
G02*
X112812500Y-135471200I100000J0D01*
G01*
X114087500Y-135471200D01*
G75*
G02*
X114187500Y-135571200I0J-100000D01*
G01*
X114187500Y-135771200D01*
G75*
G02*
X114087500Y-135871200I-100000J0D01*
G01*
X112812500Y-135871200D01*
G75*
G02*
X112712500Y-135771200I0J100000D01*
G01*
G37*
G36*
G01*
X112712500Y-136421200D02*
X112712500Y-136221200D01*
G75*
G02*
X112812500Y-136121200I100000J0D01*
G01*
X114087500Y-136121200D01*
G75*
G02*
X114187500Y-136221200I0J-100000D01*
G01*
X114187500Y-136421200D01*
G75*
G02*
X114087500Y-136521200I-100000J0D01*
G01*
X112812500Y-136521200D01*
G75*
G02*
X112712500Y-136421200I0J100000D01*
G01*
G37*
G36*
G01*
X112712500Y-137071200D02*
X112712500Y-136871200D01*
G75*
G02*
X112812500Y-136771200I100000J0D01*
G01*
X114087500Y-136771200D01*
G75*
G02*
X114187500Y-136871200I0J-100000D01*
G01*
X114187500Y-137071200D01*
G75*
G02*
X114087500Y-137171200I-100000J0D01*
G01*
X112812500Y-137171200D01*
G75*
G02*
X112712500Y-137071200I0J100000D01*
G01*
G37*
G36*
G01*
X112712500Y-137721200D02*
X112712500Y-137521200D01*
G75*
G02*
X112812500Y-137421200I100000J0D01*
G01*
X114087500Y-137421200D01*
G75*
G02*
X114187500Y-137521200I0J-100000D01*
G01*
X114187500Y-137721200D01*
G75*
G02*
X114087500Y-137821200I-100000J0D01*
G01*
X112812500Y-137821200D01*
G75*
G02*
X112712500Y-137721200I0J100000D01*
G01*
G37*
G36*
G01*
X118437500Y-137721200D02*
X118437500Y-137521200D01*
G75*
G02*
X118537500Y-137421200I100000J0D01*
G01*
X119812500Y-137421200D01*
G75*
G02*
X119912500Y-137521200I0J-100000D01*
G01*
X119912500Y-137721200D01*
G75*
G02*
X119812500Y-137821200I-100000J0D01*
G01*
X118537500Y-137821200D01*
G75*
G02*
X118437500Y-137721200I0J100000D01*
G01*
G37*
G36*
G01*
X118437500Y-137071200D02*
X118437500Y-136871200D01*
G75*
G02*
X118537500Y-136771200I100000J0D01*
G01*
X119812500Y-136771200D01*
G75*
G02*
X119912500Y-136871200I0J-100000D01*
G01*
X119912500Y-137071200D01*
G75*
G02*
X119812500Y-137171200I-100000J0D01*
G01*
X118537500Y-137171200D01*
G75*
G02*
X118437500Y-137071200I0J100000D01*
G01*
G37*
G36*
G01*
X118437500Y-136421200D02*
X118437500Y-136221200D01*
G75*
G02*
X118537500Y-136121200I100000J0D01*
G01*
X119812500Y-136121200D01*
G75*
G02*
X119912500Y-136221200I0J-100000D01*
G01*
X119912500Y-136421200D01*
G75*
G02*
X119812500Y-136521200I-100000J0D01*
G01*
X118537500Y-136521200D01*
G75*
G02*
X118437500Y-136421200I0J100000D01*
G01*
G37*
G36*
G01*
X118437500Y-135771200D02*
X118437500Y-135571200D01*
G75*
G02*
X118537500Y-135471200I100000J0D01*
G01*
X119812500Y-135471200D01*
G75*
G02*
X119912500Y-135571200I0J-100000D01*
G01*
X119912500Y-135771200D01*
G75*
G02*
X119812500Y-135871200I-100000J0D01*
G01*
X118537500Y-135871200D01*
G75*
G02*
X118437500Y-135771200I0J100000D01*
G01*
G37*
G36*
G01*
X118437500Y-135121200D02*
X118437500Y-134921200D01*
G75*
G02*
X118537500Y-134821200I100000J0D01*
G01*
X119812500Y-134821200D01*
G75*
G02*
X119912500Y-134921200I0J-100000D01*
G01*
X119912500Y-135121200D01*
G75*
G02*
X119812500Y-135221200I-100000J0D01*
G01*
X118537500Y-135221200D01*
G75*
G02*
X118437500Y-135121200I0J100000D01*
G01*
G37*
G36*
G01*
X118437500Y-134471200D02*
X118437500Y-134271200D01*
G75*
G02*
X118537500Y-134171200I100000J0D01*
G01*
X119812500Y-134171200D01*
G75*
G02*
X119912500Y-134271200I0J-100000D01*
G01*
X119912500Y-134471200D01*
G75*
G02*
X119812500Y-134571200I-100000J0D01*
G01*
X118537500Y-134571200D01*
G75*
G02*
X118437500Y-134471200I0J100000D01*
G01*
G37*
G36*
G01*
X118437500Y-133821200D02*
X118437500Y-133621200D01*
G75*
G02*
X118537500Y-133521200I100000J0D01*
G01*
X119812500Y-133521200D01*
G75*
G02*
X119912500Y-133621200I0J-100000D01*
G01*
X119912500Y-133821200D01*
G75*
G02*
X119812500Y-133921200I-100000J0D01*
G01*
X118537500Y-133921200D01*
G75*
G02*
X118437500Y-133821200I0J100000D01*
G01*
G37*
G36*
G01*
X118437500Y-133171200D02*
X118437500Y-132971200D01*
G75*
G02*
X118537500Y-132871200I100000J0D01*
G01*
X119812500Y-132871200D01*
G75*
G02*
X119912500Y-132971200I0J-100000D01*
G01*
X119912500Y-133171200D01*
G75*
G02*
X119812500Y-133271200I-100000J0D01*
G01*
X118537500Y-133271200D01*
G75*
G02*
X118437500Y-133171200I0J100000D01*
G01*
G37*
G36*
G01*
X118437500Y-132521200D02*
X118437500Y-132321200D01*
G75*
G02*
X118537500Y-132221200I100000J0D01*
G01*
X119812500Y-132221200D01*
G75*
G02*
X119912500Y-132321200I0J-100000D01*
G01*
X119912500Y-132521200D01*
G75*
G02*
X119812500Y-132621200I-100000J0D01*
G01*
X118537500Y-132621200D01*
G75*
G02*
X118437500Y-132521200I0J100000D01*
G01*
G37*
G36*
G01*
X118437500Y-131871200D02*
X118437500Y-131671200D01*
G75*
G02*
X118537500Y-131571200I100000J0D01*
G01*
X119812500Y-131571200D01*
G75*
G02*
X119912500Y-131671200I0J-100000D01*
G01*
X119912500Y-131871200D01*
G75*
G02*
X119812500Y-131971200I-100000J0D01*
G01*
X118537500Y-131971200D01*
G75*
G02*
X118437500Y-131871200I0J100000D01*
G01*
G37*
G36*
G01*
X212280000Y-160095000D02*
X212280000Y-159595000D01*
G75*
G02*
X212505000Y-159370000I225000J0D01*
G01*
X212955000Y-159370000D01*
G75*
G02*
X213180000Y-159595000I0J-225000D01*
G01*
X213180000Y-160095000D01*
G75*
G02*
X212955000Y-160320000I-225000J0D01*
G01*
X212505000Y-160320000D01*
G75*
G02*
X212280000Y-160095000I0J225000D01*
G01*
G37*
G36*
G01*
X213830000Y-160095000D02*
X213830000Y-159595000D01*
G75*
G02*
X214055000Y-159370000I225000J0D01*
G01*
X214505000Y-159370000D01*
G75*
G02*
X214730000Y-159595000I0J-225000D01*
G01*
X214730000Y-160095000D01*
G75*
G02*
X214505000Y-160320000I-225000J0D01*
G01*
X214055000Y-160320000D01*
G75*
G02*
X213830000Y-160095000I0J225000D01*
G01*
G37*
G36*
G01*
X52237500Y-110225500D02*
X52237500Y-109725500D01*
G75*
G02*
X52462500Y-109500500I225000J0D01*
G01*
X52912500Y-109500500D01*
G75*
G02*
X53137500Y-109725500I0J-225000D01*
G01*
X53137500Y-110225500D01*
G75*
G02*
X52912500Y-110450500I-225000J0D01*
G01*
X52462500Y-110450500D01*
G75*
G02*
X52237500Y-110225500I0J225000D01*
G01*
G37*
G36*
G01*
X53787500Y-110225500D02*
X53787500Y-109725500D01*
G75*
G02*
X54012500Y-109500500I225000J0D01*
G01*
X54462500Y-109500500D01*
G75*
G02*
X54687500Y-109725500I0J-225000D01*
G01*
X54687500Y-110225500D01*
G75*
G02*
X54462500Y-110450500I-225000J0D01*
G01*
X54012500Y-110450500D01*
G75*
G02*
X53787500Y-110225500I0J225000D01*
G01*
G37*
D21*
X122555000Y-100012500D03*
X122555000Y-96202500D03*
X123825000Y-101917500D03*
X123825000Y-98107500D03*
X125095000Y-100012500D03*
X125095000Y-96202500D03*
X126365000Y-101917500D03*
X126365000Y-98107500D03*
X127635000Y-100012500D03*
X127635000Y-96202500D03*
X128905000Y-101917500D03*
X128905000Y-98107500D03*
X130175000Y-100012500D03*
X130175000Y-96202500D03*
X131445000Y-101917500D03*
X131445000Y-98107500D03*
X132715000Y-100012500D03*
X132715000Y-96202500D03*
X133985000Y-101917500D03*
X133985000Y-98107500D03*
X135255000Y-100012500D03*
X135255000Y-96202500D03*
X136525000Y-101917500D03*
X136525000Y-98107500D03*
X137795000Y-100012500D03*
X137795000Y-96202500D03*
X139065000Y-101917500D03*
X139065000Y-98107500D03*
X140335000Y-100012500D03*
X140335000Y-96202500D03*
X141605000Y-101917500D03*
X141605000Y-98107500D03*
X142875000Y-100012500D03*
X142875000Y-96202500D03*
X144145000Y-101917500D03*
X144145000Y-98107500D03*
X145415000Y-100012500D03*
X145415000Y-96202500D03*
X146685000Y-101917500D03*
X146685000Y-98107500D03*
X147955000Y-100012500D03*
X147955000Y-96202500D03*
X149225000Y-101917500D03*
X149225000Y-98107500D03*
X150495000Y-100012500D03*
X150495000Y-96202500D03*
X151765000Y-101917500D03*
X151765000Y-98107500D03*
X153035000Y-100012500D03*
X153035000Y-96202500D03*
X154305000Y-101917500D03*
X154305000Y-98107500D03*
X155575000Y-100012500D03*
X155575000Y-96202500D03*
X156845000Y-101917500D03*
X156845000Y-98107500D03*
X158115000Y-100012500D03*
X158115000Y-96202500D03*
X159385000Y-101917500D03*
X159385000Y-98107500D03*
X160655000Y-100012500D03*
X160655000Y-96202500D03*
X161925000Y-101917500D03*
X161925000Y-98107500D03*
X163195000Y-100012500D03*
X163195000Y-96202500D03*
X164465000Y-101917500D03*
X164465000Y-98107500D03*
X165735000Y-100012500D03*
X165735000Y-96202500D03*
X167005000Y-101917500D03*
X167005000Y-98107500D03*
X168275000Y-100012500D03*
X168275000Y-96202500D03*
X169545000Y-101917500D03*
X169545000Y-98107500D03*
X170815000Y-100012500D03*
X170815000Y-96202500D03*
X172085000Y-101917500D03*
X172085000Y-98107500D03*
D22*
X176530000Y-99060000D03*
X118110000Y-99060000D03*
M02*
