G04 #@! TF.GenerationSoftware,KiCad,Pcbnew,6.0.6+dfsg-1~bpo11+1*
G04 #@! TF.CreationDate,2023-01-30T19:54:19+00:00*
G04 #@! TF.ProjectId,CIDER,43494445-522e-46b6-9963-61645f706362,rev?*
G04 #@! TF.SameCoordinates,Original*
G04 #@! TF.FileFunction,Legend,Bot*
G04 #@! TF.FilePolarity,Positive*
%FSLAX46Y46*%
G04 Gerber Fmt 4.6, Leading zero omitted, Abs format (unit mm)*
G04 Created by KiCad (PCBNEW 6.0.6+dfsg-1~bpo11+1) date 2023-01-30 19:54:19*
%MOMM*%
%LPD*%
G01*
G04 APERTURE LIST*
%ADD10C,0.150000*%
%ADD11C,0.120000*%
%ADD12R,1.700000X1.700000*%
%ADD13O,1.700000X1.700000*%
%ADD14R,1.350000X1.350000*%
%ADD15O,1.350000X1.350000*%
%ADD16C,5.000000*%
%ADD17C,1.524000*%
G04 APERTURE END LIST*
D10*
G36*
X108161508Y-149988718D02*
G01*
X107145508Y-149988718D01*
X107653508Y-149226718D01*
X108161508Y-149988718D01*
G37*
X108161508Y-149988718D02*
X107145508Y-149988718D01*
X107653508Y-149226718D01*
X108161508Y-149988718D01*
X108090457Y-150999132D02*
X108090457Y-150427703D01*
X108090457Y-150713418D02*
X107090457Y-150713418D01*
X107233315Y-150618179D01*
X107328553Y-150522941D01*
X107376172Y-150427703D01*
X133583200Y-149118980D02*
X133583200Y-148118980D01*
X133202247Y-148118980D01*
X133107009Y-148166600D01*
X133059390Y-148214219D01*
X133011771Y-148309457D01*
X133011771Y-148452314D01*
X133059390Y-148547552D01*
X133107009Y-148595171D01*
X133202247Y-148642790D01*
X133583200Y-148642790D01*
X132011771Y-149118980D02*
X132345104Y-148642790D01*
X132583200Y-149118980D02*
X132583200Y-148118980D01*
X132202247Y-148118980D01*
X132107009Y-148166600D01*
X132059390Y-148214219D01*
X132011771Y-148309457D01*
X132011771Y-148452314D01*
X132059390Y-148547552D01*
X132107009Y-148595171D01*
X132202247Y-148642790D01*
X132583200Y-148642790D01*
X131392723Y-148118980D02*
X131202247Y-148118980D01*
X131107009Y-148166600D01*
X131011771Y-148261838D01*
X130964152Y-148452314D01*
X130964152Y-148785647D01*
X131011771Y-148976123D01*
X131107009Y-149071361D01*
X131202247Y-149118980D01*
X131392723Y-149118980D01*
X131487961Y-149071361D01*
X131583200Y-148976123D01*
X131630819Y-148785647D01*
X131630819Y-148452314D01*
X131583200Y-148261838D01*
X131487961Y-148166600D01*
X131392723Y-148118980D01*
X130678438Y-148118980D02*
X130107009Y-148118980D01*
X130392723Y-149118980D02*
X130392723Y-148118980D01*
X129583200Y-148118980D02*
X129392723Y-148118980D01*
X129297485Y-148166600D01*
X129202247Y-148261838D01*
X129154628Y-148452314D01*
X129154628Y-148785647D01*
X129202247Y-148976123D01*
X129297485Y-149071361D01*
X129392723Y-149118980D01*
X129583200Y-149118980D01*
X129678438Y-149071361D01*
X129773676Y-148976123D01*
X129821295Y-148785647D01*
X129821295Y-148452314D01*
X129773676Y-148261838D01*
X129678438Y-148166600D01*
X129583200Y-148118980D01*
X128011771Y-148833266D02*
X127535580Y-148833266D01*
X128107009Y-149118980D02*
X127773676Y-148118980D01*
X127440342Y-149118980D01*
X133678438Y-149728980D02*
X133678438Y-150443266D01*
X133726057Y-150586123D01*
X133821295Y-150681361D01*
X133964152Y-150728980D01*
X134059390Y-150728980D01*
X133249866Y-150443266D02*
X132773676Y-150443266D01*
X133345104Y-150728980D02*
X133011771Y-149728980D01*
X132678438Y-150728980D01*
X132345104Y-150728980D02*
X132345104Y-149728980D01*
X131773676Y-150728980D01*
X131773676Y-149728980D01*
X130583200Y-149824219D02*
X130535580Y-149776600D01*
X130440342Y-149728980D01*
X130202247Y-149728980D01*
X130107009Y-149776600D01*
X130059390Y-149824219D01*
X130011771Y-149919457D01*
X130011771Y-150014695D01*
X130059390Y-150157552D01*
X130630819Y-150728980D01*
X130011771Y-150728980D01*
X129392723Y-149728980D02*
X129297485Y-149728980D01*
X129202247Y-149776600D01*
X129154628Y-149824219D01*
X129107009Y-149919457D01*
X129059390Y-150109933D01*
X129059390Y-150348028D01*
X129107009Y-150538504D01*
X129154628Y-150633742D01*
X129202247Y-150681361D01*
X129297485Y-150728980D01*
X129392723Y-150728980D01*
X129487961Y-150681361D01*
X129535580Y-150633742D01*
X129583200Y-150538504D01*
X129630819Y-150348028D01*
X129630819Y-150109933D01*
X129583200Y-149919457D01*
X129535580Y-149824219D01*
X129487961Y-149776600D01*
X129392723Y-149728980D01*
X128678438Y-149824219D02*
X128630819Y-149776600D01*
X128535580Y-149728980D01*
X128297485Y-149728980D01*
X128202247Y-149776600D01*
X128154628Y-149824219D01*
X128107009Y-149919457D01*
X128107009Y-150014695D01*
X128154628Y-150157552D01*
X128726057Y-150728980D01*
X128107009Y-150728980D01*
X127773676Y-149728980D02*
X127154628Y-149728980D01*
X127487961Y-150109933D01*
X127345104Y-150109933D01*
X127249866Y-150157552D01*
X127202247Y-150205171D01*
X127154628Y-150300409D01*
X127154628Y-150538504D01*
X127202247Y-150633742D01*
X127249866Y-150681361D01*
X127345104Y-150728980D01*
X127630819Y-150728980D01*
X127726057Y-150681361D01*
X127773676Y-150633742D01*
X112887158Y-120062980D02*
X113220492Y-119586790D01*
X113458587Y-120062980D02*
X113458587Y-119062980D01*
X113077634Y-119062980D01*
X112982396Y-119110600D01*
X112934777Y-119158219D01*
X112887158Y-119253457D01*
X112887158Y-119396314D01*
X112934777Y-119491552D01*
X112982396Y-119539171D01*
X113077634Y-119586790D01*
X113458587Y-119586790D01*
X112315730Y-119491552D02*
X112410968Y-119443933D01*
X112458587Y-119396314D01*
X112506206Y-119301076D01*
X112506206Y-119253457D01*
X112458587Y-119158219D01*
X112410968Y-119110600D01*
X112315730Y-119062980D01*
X112125253Y-119062980D01*
X112030015Y-119110600D01*
X111982396Y-119158219D01*
X111934777Y-119253457D01*
X111934777Y-119301076D01*
X111982396Y-119396314D01*
X112030015Y-119443933D01*
X112125253Y-119491552D01*
X112315730Y-119491552D01*
X112410968Y-119539171D01*
X112458587Y-119586790D01*
X112506206Y-119682028D01*
X112506206Y-119872504D01*
X112458587Y-119967742D01*
X112410968Y-120015361D01*
X112315730Y-120062980D01*
X112125253Y-120062980D01*
X112030015Y-120015361D01*
X111982396Y-119967742D01*
X111934777Y-119872504D01*
X111934777Y-119682028D01*
X111982396Y-119586790D01*
X112030015Y-119539171D01*
X112125253Y-119491552D01*
X118797023Y-104735357D02*
X118749404Y-104687738D01*
X118606547Y-104640119D01*
X118511309Y-104640119D01*
X118368452Y-104687738D01*
X118273214Y-104782976D01*
X118225595Y-104878214D01*
X118177976Y-105068690D01*
X118177976Y-105211547D01*
X118225595Y-105402023D01*
X118273214Y-105497261D01*
X118368452Y-105592500D01*
X118511309Y-105640119D01*
X118606547Y-105640119D01*
X118749404Y-105592500D01*
X118797023Y-105544880D01*
X119225595Y-104640119D02*
X119225595Y-105640119D01*
X119797023Y-104640119D01*
X119797023Y-105640119D01*
X120797023Y-104640119D02*
X120225595Y-104640119D01*
X120511309Y-104640119D02*
X120511309Y-105640119D01*
X120416071Y-105497261D01*
X120320833Y-105402023D01*
X120225595Y-105354404D01*
X113039558Y-124720372D02*
X113372892Y-124244182D01*
X113610987Y-124720372D02*
X113610987Y-123720372D01*
X113230034Y-123720372D01*
X113134796Y-123767992D01*
X113087177Y-123815611D01*
X113039558Y-123910849D01*
X113039558Y-124053706D01*
X113087177Y-124148944D01*
X113134796Y-124196563D01*
X113230034Y-124244182D01*
X113610987Y-124244182D01*
X112706225Y-123720372D02*
X112039558Y-123720372D01*
X112468130Y-124720372D01*
D11*
X108783200Y-100611400D02*
X108783200Y-99551400D01*
X108783200Y-99551400D02*
X107723200Y-99551400D01*
X108783200Y-103671400D02*
X106663200Y-103671400D01*
X108783200Y-101611400D02*
X108783200Y-103671400D01*
X106663200Y-101611400D02*
X106663200Y-103671400D01*
X108783200Y-101611400D02*
X106663200Y-101611400D01*
X112515142Y-121467308D02*
X112989658Y-121467308D01*
X112515142Y-120422308D02*
X112989658Y-120422308D01*
X108783200Y-94487400D02*
X107723200Y-94487400D01*
X108783200Y-98607400D02*
X106663200Y-98607400D01*
X106663200Y-96547400D02*
X106663200Y-98607400D01*
X108783200Y-96547400D02*
X108783200Y-98607400D01*
X108783200Y-95547400D02*
X108783200Y-94487400D01*
X108783200Y-96547400D02*
X106663200Y-96547400D01*
X123825000Y-105511600D02*
X121285000Y-105511600D01*
X114935000Y-103822500D02*
X179705000Y-103822500D01*
X179705000Y-94297500D02*
X114935000Y-94297500D01*
X179705000Y-103822500D02*
X179705000Y-94297500D01*
X122555000Y-104241600D02*
X123825000Y-105511600D01*
X114935000Y-94297500D02*
X114935000Y-103822500D01*
X121285000Y-105511600D02*
X122555000Y-104241600D01*
X112515142Y-122406100D02*
X112989658Y-122406100D01*
X112515142Y-123451100D02*
X112989658Y-123451100D01*
X108692500Y-149060000D02*
X110752500Y-149060000D01*
X106632500Y-149060000D02*
X107692500Y-149060000D01*
X110752500Y-149060000D02*
X110752500Y-104940000D01*
X106632500Y-104940000D02*
X110752500Y-104940000D01*
X108692500Y-147000000D02*
X108692500Y-149060000D01*
X106632500Y-148000000D02*
X106632500Y-149060000D01*
X106632500Y-147000000D02*
X108692500Y-147000000D01*
X106632500Y-147000000D02*
X106632500Y-104940000D01*
%LPC*%
D12*
X178411400Y-105513600D03*
D13*
X178411400Y-108053600D03*
X178411400Y-110593600D03*
X178411400Y-113133600D03*
X178411400Y-115673600D03*
X178411400Y-118213600D03*
D14*
X107723200Y-100611400D03*
D15*
X107723200Y-102611400D03*
G36*
G01*
X111527400Y-121219808D02*
X111527400Y-120669808D01*
G75*
G02*
X111727400Y-120469808I200000J0D01*
G01*
X112127400Y-120469808D01*
G75*
G02*
X112327400Y-120669808I0J-200000D01*
G01*
X112327400Y-121219808D01*
G75*
G02*
X112127400Y-121419808I-200000J0D01*
G01*
X111727400Y-121419808D01*
G75*
G02*
X111527400Y-121219808I0J200000D01*
G01*
G37*
G36*
G01*
X113177400Y-121219808D02*
X113177400Y-120669808D01*
G75*
G02*
X113377400Y-120469808I200000J0D01*
G01*
X113777400Y-120469808D01*
G75*
G02*
X113977400Y-120669808I0J-200000D01*
G01*
X113977400Y-121219808D01*
G75*
G02*
X113777400Y-121419808I-200000J0D01*
G01*
X113377400Y-121419808D01*
G75*
G02*
X113177400Y-121219808I0J200000D01*
G01*
G37*
D14*
X107723200Y-95547400D03*
D15*
X107723200Y-97547400D03*
D16*
X118110000Y-99060000D03*
X176530000Y-99060000D03*
D17*
X122555000Y-100012500D03*
X122555000Y-96202500D03*
X123825000Y-101917500D03*
X123825000Y-98107500D03*
X125095000Y-100012500D03*
X125095000Y-96202500D03*
X126365000Y-101917500D03*
X126365000Y-98107500D03*
X127635000Y-100012500D03*
X127635000Y-96202500D03*
X128905000Y-101917500D03*
X128905000Y-98107500D03*
X130175000Y-100012500D03*
X130175000Y-96202500D03*
X131445000Y-101917500D03*
X131445000Y-98107500D03*
X132715000Y-100012500D03*
X132715000Y-96202500D03*
X133985000Y-101917500D03*
X133985000Y-98107500D03*
X135255000Y-100012500D03*
X135255000Y-96202500D03*
X136525000Y-101917500D03*
X136525000Y-98107500D03*
X137795000Y-100012500D03*
X137795000Y-96202500D03*
X139065000Y-101917500D03*
X139065000Y-98107500D03*
X140335000Y-100012500D03*
X140335000Y-96202500D03*
X141605000Y-101917500D03*
X141605000Y-98107500D03*
X142875000Y-100012500D03*
X142875000Y-96202500D03*
X144145000Y-101917500D03*
X144145000Y-98107500D03*
X145415000Y-100012500D03*
X145415000Y-96202500D03*
X146685000Y-101917500D03*
X146685000Y-98107500D03*
X147955000Y-100012500D03*
X147955000Y-96202500D03*
X149225000Y-101917500D03*
X149225000Y-98107500D03*
X150495000Y-100012500D03*
X150495000Y-96202500D03*
X151765000Y-101917500D03*
X151765000Y-98107500D03*
X153035000Y-100012500D03*
X153035000Y-96202500D03*
X154305000Y-101917500D03*
X154305000Y-98107500D03*
X155575000Y-100012500D03*
X155575000Y-96202500D03*
X156845000Y-101917500D03*
X156845000Y-98107500D03*
X158115000Y-100012500D03*
X158115000Y-96202500D03*
X159385000Y-101917500D03*
X159385000Y-98107500D03*
X160655000Y-100012500D03*
X160655000Y-96202500D03*
X161925000Y-101917500D03*
X161925000Y-98107500D03*
X163195000Y-100012500D03*
X163195000Y-96202500D03*
X164465000Y-101917500D03*
X164465000Y-98107500D03*
X165735000Y-100012500D03*
X165735000Y-96202500D03*
X167005000Y-101917500D03*
X167005000Y-98107500D03*
X168275000Y-100012500D03*
X168275000Y-96202500D03*
X169545000Y-101917500D03*
X169545000Y-98107500D03*
X170815000Y-100012500D03*
X170815000Y-96202500D03*
X172085000Y-101917500D03*
X172085000Y-98107500D03*
G36*
G01*
X111527400Y-123203600D02*
X111527400Y-122653600D01*
G75*
G02*
X111727400Y-122453600I200000J0D01*
G01*
X112127400Y-122453600D01*
G75*
G02*
X112327400Y-122653600I0J-200000D01*
G01*
X112327400Y-123203600D01*
G75*
G02*
X112127400Y-123403600I-200000J0D01*
G01*
X111727400Y-123403600D01*
G75*
G02*
X111527400Y-123203600I0J200000D01*
G01*
G37*
G36*
G01*
X113177400Y-123203600D02*
X113177400Y-122653600D01*
G75*
G02*
X113377400Y-122453600I200000J0D01*
G01*
X113777400Y-122453600D01*
G75*
G02*
X113977400Y-122653600I0J-200000D01*
G01*
X113977400Y-123203600D01*
G75*
G02*
X113777400Y-123403600I-200000J0D01*
G01*
X113377400Y-123403600D01*
G75*
G02*
X113177400Y-123203600I0J200000D01*
G01*
G37*
D14*
X107692500Y-148000000D03*
D15*
X109692500Y-148000000D03*
X107692500Y-146000000D03*
X109692500Y-146000000D03*
X107692500Y-144000000D03*
X109692500Y-144000000D03*
X107692500Y-142000000D03*
X109692500Y-142000000D03*
X107692500Y-140000000D03*
X109692500Y-140000000D03*
X107692500Y-138000000D03*
X109692500Y-138000000D03*
X107692500Y-136000000D03*
X109692500Y-136000000D03*
X107692500Y-134000000D03*
X109692500Y-134000000D03*
X107692500Y-132000000D03*
X109692500Y-132000000D03*
X107692500Y-130000000D03*
X109692500Y-130000000D03*
X107692500Y-128000000D03*
X109692500Y-128000000D03*
X107692500Y-126000000D03*
X109692500Y-126000000D03*
X107692500Y-124000000D03*
X109692500Y-124000000D03*
X107692500Y-122000000D03*
X109692500Y-122000000D03*
X107692500Y-120000000D03*
X109692500Y-120000000D03*
X107692500Y-118000000D03*
X109692500Y-118000000D03*
X107692500Y-116000000D03*
X109692500Y-116000000D03*
X107692500Y-114000000D03*
X109692500Y-114000000D03*
X107692500Y-112000000D03*
X109692500Y-112000000D03*
X107692500Y-110000000D03*
X109692500Y-110000000D03*
X107692500Y-108000000D03*
X109692500Y-108000000D03*
X107692500Y-106000000D03*
X109692500Y-106000000D03*
M02*
