G04 #@! TF.GenerationSoftware,KiCad,Pcbnew,6.0.11+dfsg-1~bpo11+1*
G04 #@! TF.CreationDate,2023-05-13T22:55:43+00:00*
G04 #@! TF.ProjectId,CIDER,43494445-522e-46b6-9963-61645f706362,rev?*
G04 #@! TF.SameCoordinates,Original*
G04 #@! TF.FileFunction,Soldermask,Bot*
G04 #@! TF.FilePolarity,Negative*
%FSLAX46Y46*%
G04 Gerber Fmt 4.6, Leading zero omitted, Abs format (unit mm)*
G04 Created by KiCad (PCBNEW 6.0.11+dfsg-1~bpo11+1) date 2023-05-13 22:55:43*
%MOMM*%
%LPD*%
G01*
G04 APERTURE LIST*
%ADD10R,1.375400X1.375400*%
%ADD11O,1.375400X1.375400*%
%ADD12C,1.448000*%
%ADD13R,1.700000X1.700000*%
%ADD14O,1.700000X1.700000*%
%ADD15C,1.300000*%
%ADD16C,4.000000*%
%ADD17C,1.500000*%
G04 APERTURE END LIST*
D10*
X2313200Y48518600D03*
D11*
X2313200Y50518600D03*
D10*
X2313200Y53582600D03*
D11*
X2313200Y55582600D03*
D12*
X72555400Y2565000D03*
D13*
X23012400Y1905000D03*
D14*
X20472400Y1905000D03*
X17932400Y1905000D03*
D15*
X72555400Y55447800D03*
X12700000Y55447800D03*
D13*
X73001400Y45616400D03*
D14*
X73001400Y43076400D03*
X73001400Y40536400D03*
X73001400Y37996400D03*
X73001400Y35456400D03*
X73001400Y32916400D03*
D16*
X71120000Y52070000D03*
X12700000Y52070000D03*
D17*
X17145000Y51117500D03*
X17145000Y54927500D03*
X18415000Y49212500D03*
X18415000Y53022500D03*
X19685000Y51117500D03*
X19685000Y54927500D03*
X20955000Y49212500D03*
X20955000Y53022500D03*
X22225000Y51117500D03*
X22225000Y54927500D03*
X23495000Y49212500D03*
X23495000Y53022500D03*
X24765000Y51117500D03*
X24765000Y54927500D03*
X26035000Y49212500D03*
X26035000Y53022500D03*
X27305000Y51117500D03*
X27305000Y54927500D03*
X28575000Y49212500D03*
X28575000Y53022500D03*
X29845000Y51117500D03*
X29845000Y54927500D03*
X31115000Y49212500D03*
X31115000Y53022500D03*
X32385000Y51117500D03*
X32385000Y54927500D03*
X33655000Y49212500D03*
X33655000Y53022500D03*
X34925000Y51117500D03*
X34925000Y54927500D03*
X36195000Y49212500D03*
X36195000Y53022500D03*
X37465000Y51117500D03*
X37465000Y54927500D03*
X38735000Y49212500D03*
X38735000Y53022500D03*
X40005000Y51117500D03*
X40005000Y54927500D03*
X41275000Y49212500D03*
X41275000Y53022500D03*
X42545000Y51117500D03*
X42545000Y54927500D03*
X43815000Y49212500D03*
X43815000Y53022500D03*
X45085000Y51117500D03*
X45085000Y54927500D03*
X46355000Y49212500D03*
X46355000Y53022500D03*
X47625000Y51117500D03*
X47625000Y54927500D03*
X48895000Y49212500D03*
X48895000Y53022500D03*
X50165000Y51117500D03*
X50165000Y54927500D03*
X51435000Y49212500D03*
X51435000Y53022500D03*
X52705000Y51117500D03*
X52705000Y54927500D03*
X53975000Y49212500D03*
X53975000Y53022500D03*
X55245000Y51117500D03*
X55245000Y54927500D03*
X56515000Y49212500D03*
X56515000Y53022500D03*
X57785000Y51117500D03*
X57785000Y54927500D03*
X59055000Y49212500D03*
X59055000Y53022500D03*
X60325000Y51117500D03*
X60325000Y54927500D03*
X61595000Y49212500D03*
X61595000Y53022500D03*
X62865000Y51117500D03*
X62865000Y54927500D03*
X64135000Y49212500D03*
X64135000Y53022500D03*
X65405000Y51117500D03*
X65405000Y54927500D03*
X66675000Y49212500D03*
X66675000Y53022500D03*
D10*
X2282500Y3130000D03*
D11*
X4282500Y3130000D03*
X2282500Y5130000D03*
X4282500Y5130000D03*
X2282500Y7130000D03*
X4282500Y7130000D03*
X2282500Y9130000D03*
X4282500Y9130000D03*
X2282500Y11130000D03*
X4282500Y11130000D03*
X2282500Y13130000D03*
X4282500Y13130000D03*
X2282500Y15130000D03*
X4282500Y15130000D03*
X2282500Y17130000D03*
X4282500Y17130000D03*
X2282500Y19130000D03*
X4282500Y19130000D03*
X2282500Y21130000D03*
X4282500Y21130000D03*
X2282500Y23130000D03*
X4282500Y23130000D03*
X2282500Y25130000D03*
X4282500Y25130000D03*
X2282500Y27130000D03*
X4282500Y27130000D03*
X2282500Y29130000D03*
X4282500Y29130000D03*
X2282500Y31130000D03*
X4282500Y31130000D03*
X2282500Y33130000D03*
X4282500Y33130000D03*
X2282500Y35130000D03*
X4282500Y35130000D03*
X2282500Y37130000D03*
X4282500Y37130000D03*
X2282500Y39130000D03*
X4282500Y39130000D03*
X2282500Y41130000D03*
X4282500Y41130000D03*
X2282500Y43130000D03*
X4282500Y43130000D03*
X2282500Y45130000D03*
X4282500Y45130000D03*
M02*
