G04 #@! TF.GenerationSoftware,KiCad,Pcbnew,6.0.11+dfsg-1~bpo11+1*
G04 #@! TF.CreationDate,2023-04-25T15:57:02+00:00*
G04 #@! TF.ProjectId,CIDER,43494445-522e-46b6-9963-61645f706362,rev?*
G04 #@! TF.SameCoordinates,Original*
G04 #@! TF.FileFunction,Soldermask,Top*
G04 #@! TF.FilePolarity,Negative*
%FSLAX46Y46*%
G04 Gerber Fmt 4.6, Leading zero omitted, Abs format (unit mm)*
G04 Created by KiCad (PCBNEW 6.0.11+dfsg-1~bpo11+1) date 2023-04-25 15:57:02*
%MOMM*%
%LPD*%
G01*
G04 APERTURE LIST*
%ADD10R,0.900000X1.300000*%
%ADD11R,0.800000X0.500000*%
%ADD12R,0.800000X0.400000*%
%ADD13R,1.700000X1.700000*%
%ADD14O,1.700000X1.700000*%
%ADD15R,1.650000X1.950000*%
%ADD16R,0.760000X1.250000*%
%ADD17R,0.458000X1.510000*%
%ADD18R,0.500000X0.800000*%
%ADD19R,0.400000X0.800000*%
%ADD20R,1.100000X0.250000*%
%ADD21R,1.375400X1.375400*%
%ADD22O,1.375400X1.375400*%
%ADD23C,4.000000*%
%ADD24C,1.500000*%
G04 APERTURE END LIST*
G36*
G01*
X51894808Y19604392D02*
X51894808Y20154392D01*
G75*
G02*
X52094808Y20354392I200000J0D01*
G01*
X52494808Y20354392D01*
G75*
G02*
X52694808Y20154392I0J-200000D01*
G01*
X52694808Y19604392D01*
G75*
G02*
X52494808Y19404392I-200000J0D01*
G01*
X52094808Y19404392D01*
G75*
G02*
X51894808Y19604392I0J200000D01*
G01*
G37*
G36*
G01*
X53544808Y19604392D02*
X53544808Y20154392D01*
G75*
G02*
X53744808Y20354392I200000J0D01*
G01*
X54144808Y20354392D01*
G75*
G02*
X54344808Y20154392I0J-200000D01*
G01*
X54344808Y19604392D01*
G75*
G02*
X54144808Y19404392I-200000J0D01*
G01*
X53744808Y19404392D01*
G75*
G02*
X53544808Y19604392I0J200000D01*
G01*
G37*
G36*
G01*
X40684100Y2869100D02*
X40684100Y2669100D01*
G75*
G02*
X40584100Y2569100I-100000J0D01*
G01*
X39309100Y2569100D01*
G75*
G02*
X39209100Y2669100I0J100000D01*
G01*
X39209100Y2869100D01*
G75*
G02*
X39309100Y2969100I100000J0D01*
G01*
X40584100Y2969100D01*
G75*
G02*
X40684100Y2869100I0J-100000D01*
G01*
G37*
G36*
G01*
X40684100Y3519100D02*
X40684100Y3319100D01*
G75*
G02*
X40584100Y3219100I-100000J0D01*
G01*
X39309100Y3219100D01*
G75*
G02*
X39209100Y3319100I0J100000D01*
G01*
X39209100Y3519100D01*
G75*
G02*
X39309100Y3619100I100000J0D01*
G01*
X40584100Y3619100D01*
G75*
G02*
X40684100Y3519100I0J-100000D01*
G01*
G37*
G36*
G01*
X40684100Y4169100D02*
X40684100Y3969100D01*
G75*
G02*
X40584100Y3869100I-100000J0D01*
G01*
X39309100Y3869100D01*
G75*
G02*
X39209100Y3969100I0J100000D01*
G01*
X39209100Y4169100D01*
G75*
G02*
X39309100Y4269100I100000J0D01*
G01*
X40584100Y4269100D01*
G75*
G02*
X40684100Y4169100I0J-100000D01*
G01*
G37*
G36*
G01*
X40684100Y4819100D02*
X40684100Y4619100D01*
G75*
G02*
X40584100Y4519100I-100000J0D01*
G01*
X39309100Y4519100D01*
G75*
G02*
X39209100Y4619100I0J100000D01*
G01*
X39209100Y4819100D01*
G75*
G02*
X39309100Y4919100I100000J0D01*
G01*
X40584100Y4919100D01*
G75*
G02*
X40684100Y4819100I0J-100000D01*
G01*
G37*
G36*
G01*
X40684100Y5469100D02*
X40684100Y5269100D01*
G75*
G02*
X40584100Y5169100I-100000J0D01*
G01*
X39309100Y5169100D01*
G75*
G02*
X39209100Y5269100I0J100000D01*
G01*
X39209100Y5469100D01*
G75*
G02*
X39309100Y5569100I100000J0D01*
G01*
X40584100Y5569100D01*
G75*
G02*
X40684100Y5469100I0J-100000D01*
G01*
G37*
G36*
G01*
X40684100Y6119100D02*
X40684100Y5919100D01*
G75*
G02*
X40584100Y5819100I-100000J0D01*
G01*
X39309100Y5819100D01*
G75*
G02*
X39209100Y5919100I0J100000D01*
G01*
X39209100Y6119100D01*
G75*
G02*
X39309100Y6219100I100000J0D01*
G01*
X40584100Y6219100D01*
G75*
G02*
X40684100Y6119100I0J-100000D01*
G01*
G37*
G36*
G01*
X40684100Y6769100D02*
X40684100Y6569100D01*
G75*
G02*
X40584100Y6469100I-100000J0D01*
G01*
X39309100Y6469100D01*
G75*
G02*
X39209100Y6569100I0J100000D01*
G01*
X39209100Y6769100D01*
G75*
G02*
X39309100Y6869100I100000J0D01*
G01*
X40584100Y6869100D01*
G75*
G02*
X40684100Y6769100I0J-100000D01*
G01*
G37*
G36*
G01*
X40684100Y7419100D02*
X40684100Y7219100D01*
G75*
G02*
X40584100Y7119100I-100000J0D01*
G01*
X39309100Y7119100D01*
G75*
G02*
X39209100Y7219100I0J100000D01*
G01*
X39209100Y7419100D01*
G75*
G02*
X39309100Y7519100I100000J0D01*
G01*
X40584100Y7519100D01*
G75*
G02*
X40684100Y7419100I0J-100000D01*
G01*
G37*
G36*
G01*
X40684100Y8069100D02*
X40684100Y7869100D01*
G75*
G02*
X40584100Y7769100I-100000J0D01*
G01*
X39309100Y7769100D01*
G75*
G02*
X39209100Y7869100I0J100000D01*
G01*
X39209100Y8069100D01*
G75*
G02*
X39309100Y8169100I100000J0D01*
G01*
X40584100Y8169100D01*
G75*
G02*
X40684100Y8069100I0J-100000D01*
G01*
G37*
G36*
G01*
X40684100Y8719100D02*
X40684100Y8519100D01*
G75*
G02*
X40584100Y8419100I-100000J0D01*
G01*
X39309100Y8419100D01*
G75*
G02*
X39209100Y8519100I0J100000D01*
G01*
X39209100Y8719100D01*
G75*
G02*
X39309100Y8819100I100000J0D01*
G01*
X40584100Y8819100D01*
G75*
G02*
X40684100Y8719100I0J-100000D01*
G01*
G37*
G36*
G01*
X34959100Y8719100D02*
X34959100Y8519100D01*
G75*
G02*
X34859100Y8419100I-100000J0D01*
G01*
X33584100Y8419100D01*
G75*
G02*
X33484100Y8519100I0J100000D01*
G01*
X33484100Y8719100D01*
G75*
G02*
X33584100Y8819100I100000J0D01*
G01*
X34859100Y8819100D01*
G75*
G02*
X34959100Y8719100I0J-100000D01*
G01*
G37*
G36*
G01*
X34959100Y8069100D02*
X34959100Y7869100D01*
G75*
G02*
X34859100Y7769100I-100000J0D01*
G01*
X33584100Y7769100D01*
G75*
G02*
X33484100Y7869100I0J100000D01*
G01*
X33484100Y8069100D01*
G75*
G02*
X33584100Y8169100I100000J0D01*
G01*
X34859100Y8169100D01*
G75*
G02*
X34959100Y8069100I0J-100000D01*
G01*
G37*
G36*
G01*
X34959100Y7419100D02*
X34959100Y7219100D01*
G75*
G02*
X34859100Y7119100I-100000J0D01*
G01*
X33584100Y7119100D01*
G75*
G02*
X33484100Y7219100I0J100000D01*
G01*
X33484100Y7419100D01*
G75*
G02*
X33584100Y7519100I100000J0D01*
G01*
X34859100Y7519100D01*
G75*
G02*
X34959100Y7419100I0J-100000D01*
G01*
G37*
G36*
G01*
X34959100Y6769100D02*
X34959100Y6569100D01*
G75*
G02*
X34859100Y6469100I-100000J0D01*
G01*
X33584100Y6469100D01*
G75*
G02*
X33484100Y6569100I0J100000D01*
G01*
X33484100Y6769100D01*
G75*
G02*
X33584100Y6869100I100000J0D01*
G01*
X34859100Y6869100D01*
G75*
G02*
X34959100Y6769100I0J-100000D01*
G01*
G37*
G36*
G01*
X34959100Y6119100D02*
X34959100Y5919100D01*
G75*
G02*
X34859100Y5819100I-100000J0D01*
G01*
X33584100Y5819100D01*
G75*
G02*
X33484100Y5919100I0J100000D01*
G01*
X33484100Y6119100D01*
G75*
G02*
X33584100Y6219100I100000J0D01*
G01*
X34859100Y6219100D01*
G75*
G02*
X34959100Y6119100I0J-100000D01*
G01*
G37*
G36*
G01*
X34959100Y5469100D02*
X34959100Y5269100D01*
G75*
G02*
X34859100Y5169100I-100000J0D01*
G01*
X33584100Y5169100D01*
G75*
G02*
X33484100Y5269100I0J100000D01*
G01*
X33484100Y5469100D01*
G75*
G02*
X33584100Y5569100I100000J0D01*
G01*
X34859100Y5569100D01*
G75*
G02*
X34959100Y5469100I0J-100000D01*
G01*
G37*
G36*
G01*
X34959100Y4819100D02*
X34959100Y4619100D01*
G75*
G02*
X34859100Y4519100I-100000J0D01*
G01*
X33584100Y4519100D01*
G75*
G02*
X33484100Y4619100I0J100000D01*
G01*
X33484100Y4819100D01*
G75*
G02*
X33584100Y4919100I100000J0D01*
G01*
X34859100Y4919100D01*
G75*
G02*
X34959100Y4819100I0J-100000D01*
G01*
G37*
G36*
G01*
X34959100Y4169100D02*
X34959100Y3969100D01*
G75*
G02*
X34859100Y3869100I-100000J0D01*
G01*
X33584100Y3869100D01*
G75*
G02*
X33484100Y3969100I0J100000D01*
G01*
X33484100Y4169100D01*
G75*
G02*
X33584100Y4269100I100000J0D01*
G01*
X34859100Y4269100D01*
G75*
G02*
X34959100Y4169100I0J-100000D01*
G01*
G37*
G36*
G01*
X34959100Y3519100D02*
X34959100Y3319100D01*
G75*
G02*
X34859100Y3219100I-100000J0D01*
G01*
X33584100Y3219100D01*
G75*
G02*
X33484100Y3319100I0J100000D01*
G01*
X33484100Y3519100D01*
G75*
G02*
X33584100Y3619100I100000J0D01*
G01*
X34859100Y3619100D01*
G75*
G02*
X34959100Y3519100I0J-100000D01*
G01*
G37*
G36*
G01*
X34959100Y2869100D02*
X34959100Y2669100D01*
G75*
G02*
X34859100Y2569100I-100000J0D01*
G01*
X33584100Y2569100D01*
G75*
G02*
X33484100Y2669100I0J100000D01*
G01*
X33484100Y2869100D01*
G75*
G02*
X33584100Y2969100I100000J0D01*
G01*
X34859100Y2969100D01*
G75*
G02*
X34959100Y2869100I0J-100000D01*
G01*
G37*
G36*
G01*
X40684100Y9930300D02*
X40684100Y9730300D01*
G75*
G02*
X40584100Y9630300I-100000J0D01*
G01*
X39309100Y9630300D01*
G75*
G02*
X39209100Y9730300I0J100000D01*
G01*
X39209100Y9930300D01*
G75*
G02*
X39309100Y10030300I100000J0D01*
G01*
X40584100Y10030300D01*
G75*
G02*
X40684100Y9930300I0J-100000D01*
G01*
G37*
G36*
G01*
X40684100Y10580300D02*
X40684100Y10380300D01*
G75*
G02*
X40584100Y10280300I-100000J0D01*
G01*
X39309100Y10280300D01*
G75*
G02*
X39209100Y10380300I0J100000D01*
G01*
X39209100Y10580300D01*
G75*
G02*
X39309100Y10680300I100000J0D01*
G01*
X40584100Y10680300D01*
G75*
G02*
X40684100Y10580300I0J-100000D01*
G01*
G37*
G36*
G01*
X40684100Y11230300D02*
X40684100Y11030300D01*
G75*
G02*
X40584100Y10930300I-100000J0D01*
G01*
X39309100Y10930300D01*
G75*
G02*
X39209100Y11030300I0J100000D01*
G01*
X39209100Y11230300D01*
G75*
G02*
X39309100Y11330300I100000J0D01*
G01*
X40584100Y11330300D01*
G75*
G02*
X40684100Y11230300I0J-100000D01*
G01*
G37*
G36*
G01*
X40684100Y11880300D02*
X40684100Y11680300D01*
G75*
G02*
X40584100Y11580300I-100000J0D01*
G01*
X39309100Y11580300D01*
G75*
G02*
X39209100Y11680300I0J100000D01*
G01*
X39209100Y11880300D01*
G75*
G02*
X39309100Y11980300I100000J0D01*
G01*
X40584100Y11980300D01*
G75*
G02*
X40684100Y11880300I0J-100000D01*
G01*
G37*
G36*
G01*
X40684100Y12530300D02*
X40684100Y12330300D01*
G75*
G02*
X40584100Y12230300I-100000J0D01*
G01*
X39309100Y12230300D01*
G75*
G02*
X39209100Y12330300I0J100000D01*
G01*
X39209100Y12530300D01*
G75*
G02*
X39309100Y12630300I100000J0D01*
G01*
X40584100Y12630300D01*
G75*
G02*
X40684100Y12530300I0J-100000D01*
G01*
G37*
G36*
G01*
X40684100Y13180300D02*
X40684100Y12980300D01*
G75*
G02*
X40584100Y12880300I-100000J0D01*
G01*
X39309100Y12880300D01*
G75*
G02*
X39209100Y12980300I0J100000D01*
G01*
X39209100Y13180300D01*
G75*
G02*
X39309100Y13280300I100000J0D01*
G01*
X40584100Y13280300D01*
G75*
G02*
X40684100Y13180300I0J-100000D01*
G01*
G37*
G36*
G01*
X40684100Y13830300D02*
X40684100Y13630300D01*
G75*
G02*
X40584100Y13530300I-100000J0D01*
G01*
X39309100Y13530300D01*
G75*
G02*
X39209100Y13630300I0J100000D01*
G01*
X39209100Y13830300D01*
G75*
G02*
X39309100Y13930300I100000J0D01*
G01*
X40584100Y13930300D01*
G75*
G02*
X40684100Y13830300I0J-100000D01*
G01*
G37*
G36*
G01*
X40684100Y14480300D02*
X40684100Y14280300D01*
G75*
G02*
X40584100Y14180300I-100000J0D01*
G01*
X39309100Y14180300D01*
G75*
G02*
X39209100Y14280300I0J100000D01*
G01*
X39209100Y14480300D01*
G75*
G02*
X39309100Y14580300I100000J0D01*
G01*
X40584100Y14580300D01*
G75*
G02*
X40684100Y14480300I0J-100000D01*
G01*
G37*
G36*
G01*
X40684100Y15130300D02*
X40684100Y14930300D01*
G75*
G02*
X40584100Y14830300I-100000J0D01*
G01*
X39309100Y14830300D01*
G75*
G02*
X39209100Y14930300I0J100000D01*
G01*
X39209100Y15130300D01*
G75*
G02*
X39309100Y15230300I100000J0D01*
G01*
X40584100Y15230300D01*
G75*
G02*
X40684100Y15130300I0J-100000D01*
G01*
G37*
G36*
G01*
X40684100Y15780300D02*
X40684100Y15580300D01*
G75*
G02*
X40584100Y15480300I-100000J0D01*
G01*
X39309100Y15480300D01*
G75*
G02*
X39209100Y15580300I0J100000D01*
G01*
X39209100Y15780300D01*
G75*
G02*
X39309100Y15880300I100000J0D01*
G01*
X40584100Y15880300D01*
G75*
G02*
X40684100Y15780300I0J-100000D01*
G01*
G37*
G36*
G01*
X34959100Y15780300D02*
X34959100Y15580300D01*
G75*
G02*
X34859100Y15480300I-100000J0D01*
G01*
X33584100Y15480300D01*
G75*
G02*
X33484100Y15580300I0J100000D01*
G01*
X33484100Y15780300D01*
G75*
G02*
X33584100Y15880300I100000J0D01*
G01*
X34859100Y15880300D01*
G75*
G02*
X34959100Y15780300I0J-100000D01*
G01*
G37*
G36*
G01*
X34959100Y15130300D02*
X34959100Y14930300D01*
G75*
G02*
X34859100Y14830300I-100000J0D01*
G01*
X33584100Y14830300D01*
G75*
G02*
X33484100Y14930300I0J100000D01*
G01*
X33484100Y15130300D01*
G75*
G02*
X33584100Y15230300I100000J0D01*
G01*
X34859100Y15230300D01*
G75*
G02*
X34959100Y15130300I0J-100000D01*
G01*
G37*
G36*
G01*
X34959100Y14480300D02*
X34959100Y14280300D01*
G75*
G02*
X34859100Y14180300I-100000J0D01*
G01*
X33584100Y14180300D01*
G75*
G02*
X33484100Y14280300I0J100000D01*
G01*
X33484100Y14480300D01*
G75*
G02*
X33584100Y14580300I100000J0D01*
G01*
X34859100Y14580300D01*
G75*
G02*
X34959100Y14480300I0J-100000D01*
G01*
G37*
G36*
G01*
X34959100Y13830300D02*
X34959100Y13630300D01*
G75*
G02*
X34859100Y13530300I-100000J0D01*
G01*
X33584100Y13530300D01*
G75*
G02*
X33484100Y13630300I0J100000D01*
G01*
X33484100Y13830300D01*
G75*
G02*
X33584100Y13930300I100000J0D01*
G01*
X34859100Y13930300D01*
G75*
G02*
X34959100Y13830300I0J-100000D01*
G01*
G37*
G36*
G01*
X34959100Y13180300D02*
X34959100Y12980300D01*
G75*
G02*
X34859100Y12880300I-100000J0D01*
G01*
X33584100Y12880300D01*
G75*
G02*
X33484100Y12980300I0J100000D01*
G01*
X33484100Y13180300D01*
G75*
G02*
X33584100Y13280300I100000J0D01*
G01*
X34859100Y13280300D01*
G75*
G02*
X34959100Y13180300I0J-100000D01*
G01*
G37*
G36*
G01*
X34959100Y12530300D02*
X34959100Y12330300D01*
G75*
G02*
X34859100Y12230300I-100000J0D01*
G01*
X33584100Y12230300D01*
G75*
G02*
X33484100Y12330300I0J100000D01*
G01*
X33484100Y12530300D01*
G75*
G02*
X33584100Y12630300I100000J0D01*
G01*
X34859100Y12630300D01*
G75*
G02*
X34959100Y12530300I0J-100000D01*
G01*
G37*
G36*
G01*
X34959100Y11880300D02*
X34959100Y11680300D01*
G75*
G02*
X34859100Y11580300I-100000J0D01*
G01*
X33584100Y11580300D01*
G75*
G02*
X33484100Y11680300I0J100000D01*
G01*
X33484100Y11880300D01*
G75*
G02*
X33584100Y11980300I100000J0D01*
G01*
X34859100Y11980300D01*
G75*
G02*
X34959100Y11880300I0J-100000D01*
G01*
G37*
G36*
G01*
X34959100Y11230300D02*
X34959100Y11030300D01*
G75*
G02*
X34859100Y10930300I-100000J0D01*
G01*
X33584100Y10930300D01*
G75*
G02*
X33484100Y11030300I0J100000D01*
G01*
X33484100Y11230300D01*
G75*
G02*
X33584100Y11330300I100000J0D01*
G01*
X34859100Y11330300D01*
G75*
G02*
X34959100Y11230300I0J-100000D01*
G01*
G37*
G36*
G01*
X34959100Y10580300D02*
X34959100Y10380300D01*
G75*
G02*
X34859100Y10280300I-100000J0D01*
G01*
X33584100Y10280300D01*
G75*
G02*
X33484100Y10380300I0J100000D01*
G01*
X33484100Y10580300D01*
G75*
G02*
X33584100Y10680300I100000J0D01*
G01*
X34859100Y10680300D01*
G75*
G02*
X34959100Y10580300I0J-100000D01*
G01*
G37*
G36*
G01*
X34959100Y9930300D02*
X34959100Y9730300D01*
G75*
G02*
X34859100Y9630300I-100000J0D01*
G01*
X33584100Y9630300D01*
G75*
G02*
X33484100Y9730300I0J100000D01*
G01*
X33484100Y9930300D01*
G75*
G02*
X33584100Y10030300I100000J0D01*
G01*
X34859100Y10030300D01*
G75*
G02*
X34959100Y9930300I0J-100000D01*
G01*
G37*
G36*
G01*
X37730908Y30928300D02*
X37730908Y31778300D01*
G75*
G02*
X37980908Y32028300I250000J0D01*
G01*
X38880908Y32028300D01*
G75*
G02*
X39130908Y31778300I0J-250000D01*
G01*
X39130908Y30928300D01*
G75*
G02*
X38880908Y30678300I-250000J0D01*
G01*
X37980908Y30678300D01*
G75*
G02*
X37730908Y30928300I0J250000D01*
G01*
G37*
G36*
G01*
X40430908Y30928300D02*
X40430908Y31778300D01*
G75*
G02*
X40680908Y32028300I250000J0D01*
G01*
X41580908Y32028300D01*
G75*
G02*
X41830908Y31778300I0J-250000D01*
G01*
X41830908Y30928300D01*
G75*
G02*
X41580908Y30678300I-250000J0D01*
G01*
X40680908Y30678300D01*
G75*
G02*
X40430908Y30928300I0J250000D01*
G01*
G37*
G36*
G01*
X49191283Y33377771D02*
X48837729Y33024217D01*
G75*
G02*
X48519531Y33024217I-159099J159099D01*
G01*
X48201333Y33342415D01*
G75*
G02*
X48201333Y33660613I159099J159099D01*
G01*
X48554887Y34014167D01*
G75*
G02*
X48873085Y34014167I159099J-159099D01*
G01*
X49191283Y33695969D01*
G75*
G02*
X49191283Y33377771I-159099J-159099D01*
G01*
G37*
G36*
G01*
X48095267Y34473787D02*
X47741713Y34120233D01*
G75*
G02*
X47423515Y34120233I-159099J159099D01*
G01*
X47105317Y34438431D01*
G75*
G02*
X47105317Y34756629I159099J159099D01*
G01*
X47458871Y35110183D01*
G75*
G02*
X47777069Y35110183I159099J-159099D01*
G01*
X48095267Y34791985D01*
G75*
G02*
X48095267Y34473787I-159099J-159099D01*
G01*
G37*
G36*
G01*
X9123000Y40137800D02*
X9673000Y40137800D01*
G75*
G02*
X9873000Y39937800I0J-200000D01*
G01*
X9873000Y39537800D01*
G75*
G02*
X9673000Y39337800I-200000J0D01*
G01*
X9123000Y39337800D01*
G75*
G02*
X8923000Y39537800I0J200000D01*
G01*
X8923000Y39937800D01*
G75*
G02*
X9123000Y40137800I200000J0D01*
G01*
G37*
G36*
G01*
X9123000Y38487800D02*
X9673000Y38487800D01*
G75*
G02*
X9873000Y38287800I0J-200000D01*
G01*
X9873000Y37887800D01*
G75*
G02*
X9673000Y37687800I-200000J0D01*
G01*
X9123000Y37687800D01*
G75*
G02*
X8923000Y37887800I0J200000D01*
G01*
X8923000Y38287800D01*
G75*
G02*
X9123000Y38487800I200000J0D01*
G01*
G37*
G36*
G01*
X14499100Y11939800D02*
X14499100Y11439800D01*
G75*
G02*
X14274100Y11214800I-225000J0D01*
G01*
X13824100Y11214800D01*
G75*
G02*
X13599100Y11439800I0J225000D01*
G01*
X13599100Y11939800D01*
G75*
G02*
X13824100Y12164800I225000J0D01*
G01*
X14274100Y12164800D01*
G75*
G02*
X14499100Y11939800I0J-225000D01*
G01*
G37*
G36*
G01*
X12949100Y11939800D02*
X12949100Y11439800D01*
G75*
G02*
X12724100Y11214800I-225000J0D01*
G01*
X12274100Y11214800D01*
G75*
G02*
X12049100Y11439800I0J225000D01*
G01*
X12049100Y11939800D01*
G75*
G02*
X12274100Y12164800I225000J0D01*
G01*
X12724100Y12164800D01*
G75*
G02*
X12949100Y11939800I0J-225000D01*
G01*
G37*
G36*
G01*
X57816200Y17064800D02*
X57816200Y16564800D01*
G75*
G02*
X57591200Y16339800I-225000J0D01*
G01*
X57141200Y16339800D01*
G75*
G02*
X56916200Y16564800I0J225000D01*
G01*
X56916200Y17064800D01*
G75*
G02*
X57141200Y17289800I225000J0D01*
G01*
X57591200Y17289800D01*
G75*
G02*
X57816200Y17064800I0J-225000D01*
G01*
G37*
G36*
G01*
X56266200Y17064800D02*
X56266200Y16564800D01*
G75*
G02*
X56041200Y16339800I-225000J0D01*
G01*
X55591200Y16339800D01*
G75*
G02*
X55366200Y16564800I0J225000D01*
G01*
X55366200Y17064800D01*
G75*
G02*
X55591200Y17289800I225000J0D01*
G01*
X56041200Y17289800D01*
G75*
G02*
X56266200Y17064800I0J-225000D01*
G01*
G37*
G36*
G01*
X72639000Y7534300D02*
X71789000Y7534300D01*
G75*
G02*
X71539000Y7784300I0J250000D01*
G01*
X71539000Y8684300D01*
G75*
G02*
X71789000Y8934300I250000J0D01*
G01*
X72639000Y8934300D01*
G75*
G02*
X72889000Y8684300I0J-250000D01*
G01*
X72889000Y7784300D01*
G75*
G02*
X72639000Y7534300I-250000J0D01*
G01*
G37*
G36*
G01*
X72639000Y10234300D02*
X71789000Y10234300D01*
G75*
G02*
X71539000Y10484300I0J250000D01*
G01*
X71539000Y11384300D01*
G75*
G02*
X71789000Y11634300I250000J0D01*
G01*
X72639000Y11634300D01*
G75*
G02*
X72889000Y11384300I0J-250000D01*
G01*
X72889000Y10484300D01*
G75*
G02*
X72639000Y10234300I-250000J0D01*
G01*
G37*
G36*
G01*
X11612300Y1706600D02*
X11612300Y2556600D01*
G75*
G02*
X11862300Y2806600I250000J0D01*
G01*
X12762300Y2806600D01*
G75*
G02*
X13012300Y2556600I0J-250000D01*
G01*
X13012300Y1706600D01*
G75*
G02*
X12762300Y1456600I-250000J0D01*
G01*
X11862300Y1456600D01*
G75*
G02*
X11612300Y1706600I0J250000D01*
G01*
G37*
G36*
G01*
X14312300Y1706600D02*
X14312300Y2556600D01*
G75*
G02*
X14562300Y2806600I250000J0D01*
G01*
X15462300Y2806600D01*
G75*
G02*
X15712300Y2556600I0J-250000D01*
G01*
X15712300Y1706600D01*
G75*
G02*
X15462300Y1456600I-250000J0D01*
G01*
X14562300Y1456600D01*
G75*
G02*
X14312300Y1706600I0J250000D01*
G01*
G37*
G36*
G01*
X54695700Y1466400D02*
X54695700Y1966400D01*
G75*
G02*
X54920700Y2191400I225000J0D01*
G01*
X55370700Y2191400D01*
G75*
G02*
X55595700Y1966400I0J-225000D01*
G01*
X55595700Y1466400D01*
G75*
G02*
X55370700Y1241400I-225000J0D01*
G01*
X54920700Y1241400D01*
G75*
G02*
X54695700Y1466400I0J225000D01*
G01*
G37*
G36*
G01*
X56245700Y1466400D02*
X56245700Y1966400D01*
G75*
G02*
X56470700Y2191400I225000J0D01*
G01*
X56920700Y2191400D01*
G75*
G02*
X57145700Y1966400I0J-225000D01*
G01*
X57145700Y1466400D01*
G75*
G02*
X56920700Y1241400I-225000J0D01*
G01*
X56470700Y1241400D01*
G75*
G02*
X56245700Y1466400I0J225000D01*
G01*
G37*
G36*
G01*
X41830908Y23523300D02*
X41830908Y22673300D01*
G75*
G02*
X41580908Y22423300I-250000J0D01*
G01*
X40680908Y22423300D01*
G75*
G02*
X40430908Y22673300I0J250000D01*
G01*
X40430908Y23523300D01*
G75*
G02*
X40680908Y23773300I250000J0D01*
G01*
X41580908Y23773300D01*
G75*
G02*
X41830908Y23523300I0J-250000D01*
G01*
G37*
G36*
G01*
X39130908Y23523300D02*
X39130908Y22673300D01*
G75*
G02*
X38880908Y22423300I-250000J0D01*
G01*
X37980908Y22423300D01*
G75*
G02*
X37730908Y22673300I0J250000D01*
G01*
X37730908Y23523300D01*
G75*
G02*
X37980908Y23773300I250000J0D01*
G01*
X38880908Y23773300D01*
G75*
G02*
X39130908Y23523300I0J-250000D01*
G01*
G37*
D10*
X41433308Y28844592D03*
G36*
X39066808Y24894592D02*
G01*
X39066808Y28019592D01*
X39483308Y28019592D01*
X39483308Y29494592D01*
X40383308Y29494592D01*
X40383308Y28019592D01*
X40799808Y28019592D01*
X40799808Y24894592D01*
X39066808Y24894592D01*
G37*
X38433308Y28844592D03*
G36*
G01*
X14796400Y30966400D02*
X14796400Y30466400D01*
G75*
G02*
X14571400Y30241400I-225000J0D01*
G01*
X14121400Y30241400D01*
G75*
G02*
X13896400Y30466400I0J225000D01*
G01*
X13896400Y30966400D01*
G75*
G02*
X14121400Y31191400I225000J0D01*
G01*
X14571400Y31191400D01*
G75*
G02*
X14796400Y30966400I0J-225000D01*
G01*
G37*
G36*
G01*
X13246400Y30966400D02*
X13246400Y30466400D01*
G75*
G02*
X13021400Y30241400I-225000J0D01*
G01*
X12571400Y30241400D01*
G75*
G02*
X12346400Y30466400I0J225000D01*
G01*
X12346400Y30966400D01*
G75*
G02*
X12571400Y31191400I225000J0D01*
G01*
X13021400Y31191400D01*
G75*
G02*
X13246400Y30966400I0J-225000D01*
G01*
G37*
G36*
G01*
X6287200Y19815900D02*
X5737200Y19815900D01*
G75*
G02*
X5537200Y20015900I0J200000D01*
G01*
X5537200Y20415900D01*
G75*
G02*
X5737200Y20615900I200000J0D01*
G01*
X6287200Y20615900D01*
G75*
G02*
X6487200Y20415900I0J-200000D01*
G01*
X6487200Y20015900D01*
G75*
G02*
X6287200Y19815900I-200000J0D01*
G01*
G37*
G36*
G01*
X6287200Y21465900D02*
X5737200Y21465900D01*
G75*
G02*
X5537200Y21665900I0J200000D01*
G01*
X5537200Y22065900D01*
G75*
G02*
X5737200Y22265900I200000J0D01*
G01*
X6287200Y22265900D01*
G75*
G02*
X6487200Y22065900I0J-200000D01*
G01*
X6487200Y21665900D01*
G75*
G02*
X6287200Y21465900I-200000J0D01*
G01*
G37*
G36*
G01*
X35088700Y25146000D02*
X34588700Y25146000D01*
G75*
G02*
X34363700Y25371000I0J225000D01*
G01*
X34363700Y25821000D01*
G75*
G02*
X34588700Y26046000I225000J0D01*
G01*
X35088700Y26046000D01*
G75*
G02*
X35313700Y25821000I0J-225000D01*
G01*
X35313700Y25371000D01*
G75*
G02*
X35088700Y25146000I-225000J0D01*
G01*
G37*
G36*
G01*
X35088700Y26696000D02*
X34588700Y26696000D01*
G75*
G02*
X34363700Y26921000I0J225000D01*
G01*
X34363700Y27371000D01*
G75*
G02*
X34588700Y27596000I225000J0D01*
G01*
X35088700Y27596000D01*
G75*
G02*
X35313700Y27371000I0J-225000D01*
G01*
X35313700Y26921000D01*
G75*
G02*
X35088700Y26696000I-225000J0D01*
G01*
G37*
G36*
G01*
X14473700Y20931400D02*
X14473700Y20431400D01*
G75*
G02*
X14248700Y20206400I-225000J0D01*
G01*
X13798700Y20206400D01*
G75*
G02*
X13573700Y20431400I0J225000D01*
G01*
X13573700Y20931400D01*
G75*
G02*
X13798700Y21156400I225000J0D01*
G01*
X14248700Y21156400D01*
G75*
G02*
X14473700Y20931400I0J-225000D01*
G01*
G37*
G36*
G01*
X12923700Y20931400D02*
X12923700Y20431400D01*
G75*
G02*
X12698700Y20206400I-225000J0D01*
G01*
X12248700Y20206400D01*
G75*
G02*
X12023700Y20431400I0J225000D01*
G01*
X12023700Y20931400D01*
G75*
G02*
X12248700Y21156400I225000J0D01*
G01*
X12698700Y21156400D01*
G75*
G02*
X12923700Y20931400I0J-225000D01*
G01*
G37*
D11*
X45101200Y12436500D03*
D12*
X45101200Y11636500D03*
X45101200Y10836500D03*
D11*
X45101200Y10036500D03*
X46901200Y10036500D03*
D12*
X46901200Y10836500D03*
X46901200Y11636500D03*
D11*
X46901200Y12436500D03*
G36*
G01*
X5422200Y40171500D02*
X5422200Y40721500D01*
G75*
G02*
X5622200Y40921500I200000J0D01*
G01*
X6022200Y40921500D01*
G75*
G02*
X6222200Y40721500I0J-200000D01*
G01*
X6222200Y40171500D01*
G75*
G02*
X6022200Y39971500I-200000J0D01*
G01*
X5622200Y39971500D01*
G75*
G02*
X5422200Y40171500I0J200000D01*
G01*
G37*
G36*
G01*
X7072200Y40171500D02*
X7072200Y40721500D01*
G75*
G02*
X7272200Y40921500I200000J0D01*
G01*
X7672200Y40921500D01*
G75*
G02*
X7872200Y40721500I0J-200000D01*
G01*
X7872200Y40171500D01*
G75*
G02*
X7672200Y39971500I-200000J0D01*
G01*
X7272200Y39971500D01*
G75*
G02*
X7072200Y40171500I0J200000D01*
G01*
G37*
D13*
X23012400Y1905000D03*
D14*
X20472400Y1905000D03*
X17932400Y1905000D03*
G36*
G01*
X6168200Y1272400D02*
X6168200Y1822400D01*
G75*
G02*
X6368200Y2022400I200000J0D01*
G01*
X6768200Y2022400D01*
G75*
G02*
X6968200Y1822400I0J-200000D01*
G01*
X6968200Y1272400D01*
G75*
G02*
X6768200Y1072400I-200000J0D01*
G01*
X6368200Y1072400D01*
G75*
G02*
X6168200Y1272400I0J200000D01*
G01*
G37*
G36*
G01*
X7818200Y1272400D02*
X7818200Y1822400D01*
G75*
G02*
X8018200Y2022400I200000J0D01*
G01*
X8418200Y2022400D01*
G75*
G02*
X8618200Y1822400I0J-200000D01*
G01*
X8618200Y1272400D01*
G75*
G02*
X8418200Y1072400I-200000J0D01*
G01*
X8018200Y1072400D01*
G75*
G02*
X7818200Y1272400I0J200000D01*
G01*
G37*
D11*
X41977000Y5373000D03*
D12*
X41977000Y4573000D03*
X41977000Y3773000D03*
D11*
X41977000Y2973000D03*
X43777000Y2973000D03*
D12*
X43777000Y3773000D03*
X43777000Y4573000D03*
D11*
X43777000Y5373000D03*
G36*
G01*
X29763000Y867600D02*
X29763000Y1367600D01*
G75*
G02*
X29988000Y1592600I225000J0D01*
G01*
X30438000Y1592600D01*
G75*
G02*
X30663000Y1367600I0J-225000D01*
G01*
X30663000Y867600D01*
G75*
G02*
X30438000Y642600I-225000J0D01*
G01*
X29988000Y642600D01*
G75*
G02*
X29763000Y867600I0J225000D01*
G01*
G37*
G36*
G01*
X31313000Y867600D02*
X31313000Y1367600D01*
G75*
G02*
X31538000Y1592600I225000J0D01*
G01*
X31988000Y1592600D01*
G75*
G02*
X32213000Y1367600I0J-225000D01*
G01*
X32213000Y867600D01*
G75*
G02*
X31988000Y642600I-225000J0D01*
G01*
X31538000Y642600D01*
G75*
G02*
X31313000Y867600I0J225000D01*
G01*
G37*
G36*
G01*
X65266317Y24215629D02*
X65619871Y24569183D01*
G75*
G02*
X65938069Y24569183I159099J-159099D01*
G01*
X66256267Y24250985D01*
G75*
G02*
X66256267Y23932787I-159099J-159099D01*
G01*
X65902713Y23579233D01*
G75*
G02*
X65584515Y23579233I-159099J159099D01*
G01*
X65266317Y23897431D01*
G75*
G02*
X65266317Y24215629I159099J159099D01*
G01*
G37*
G36*
G01*
X66362333Y23119613D02*
X66715887Y23473167D01*
G75*
G02*
X67034085Y23473167I159099J-159099D01*
G01*
X67352283Y23154969D01*
G75*
G02*
X67352283Y22836771I-159099J-159099D01*
G01*
X66998729Y22483217D01*
G75*
G02*
X66680531Y22483217I-159099J159099D01*
G01*
X66362333Y22801415D01*
G75*
G02*
X66362333Y23119613I159099J159099D01*
G01*
G37*
G36*
G01*
X6168200Y2771000D02*
X6168200Y3321000D01*
G75*
G02*
X6368200Y3521000I200000J0D01*
G01*
X6768200Y3521000D01*
G75*
G02*
X6968200Y3321000I0J-200000D01*
G01*
X6968200Y2771000D01*
G75*
G02*
X6768200Y2571000I-200000J0D01*
G01*
X6368200Y2571000D01*
G75*
G02*
X6168200Y2771000I0J200000D01*
G01*
G37*
G36*
G01*
X7818200Y2771000D02*
X7818200Y3321000D01*
G75*
G02*
X8018200Y3521000I200000J0D01*
G01*
X8418200Y3521000D01*
G75*
G02*
X8618200Y3321000I0J-200000D01*
G01*
X8618200Y2771000D01*
G75*
G02*
X8418200Y2571000I-200000J0D01*
G01*
X8018200Y2571000D01*
G75*
G02*
X7818200Y2771000I0J200000D01*
G01*
G37*
G36*
G01*
X19111200Y47018300D02*
X19111200Y46168300D01*
G75*
G02*
X18861200Y45918300I-250000J0D01*
G01*
X17961200Y45918300D01*
G75*
G02*
X17711200Y46168300I0J250000D01*
G01*
X17711200Y47018300D01*
G75*
G02*
X17961200Y47268300I250000J0D01*
G01*
X18861200Y47268300D01*
G75*
G02*
X19111200Y47018300I0J-250000D01*
G01*
G37*
G36*
G01*
X16411200Y47018300D02*
X16411200Y46168300D01*
G75*
G02*
X16161200Y45918300I-250000J0D01*
G01*
X15261200Y45918300D01*
G75*
G02*
X15011200Y46168300I0J250000D01*
G01*
X15011200Y47018300D01*
G75*
G02*
X15261200Y47268300I250000J0D01*
G01*
X16161200Y47268300D01*
G75*
G02*
X16411200Y47018300I0J-250000D01*
G01*
G37*
D15*
X48260608Y22415900D03*
X48260608Y19665900D03*
X50460608Y19665900D03*
X50460608Y22415900D03*
G36*
G01*
X7461800Y48511750D02*
X7461800Y49024250D01*
G75*
G02*
X7680550Y49243000I218750J0D01*
G01*
X8118050Y49243000D01*
G75*
G02*
X8336800Y49024250I0J-218750D01*
G01*
X8336800Y48511750D01*
G75*
G02*
X8118050Y48293000I-218750J0D01*
G01*
X7680550Y48293000D01*
G75*
G02*
X7461800Y48511750I0J218750D01*
G01*
G37*
G36*
G01*
X9036800Y48511750D02*
X9036800Y49024250D01*
G75*
G02*
X9255550Y49243000I218750J0D01*
G01*
X9693050Y49243000D01*
G75*
G02*
X9911800Y49024250I0J-218750D01*
G01*
X9911800Y48511750D01*
G75*
G02*
X9693050Y48293000I-218750J0D01*
G01*
X9255550Y48293000D01*
G75*
G02*
X9036800Y48511750I0J218750D01*
G01*
G37*
G36*
G01*
X25174800Y2730400D02*
X25174800Y3030400D01*
G75*
G02*
X25324800Y3180400I150000J0D01*
G01*
X26349800Y3180400D01*
G75*
G02*
X26499800Y3030400I0J-150000D01*
G01*
X26499800Y2730400D01*
G75*
G02*
X26349800Y2580400I-150000J0D01*
G01*
X25324800Y2580400D01*
G75*
G02*
X25174800Y2730400I0J150000D01*
G01*
G37*
G36*
G01*
X25174800Y1780400D02*
X25174800Y2080400D01*
G75*
G02*
X25324800Y2230400I150000J0D01*
G01*
X26349800Y2230400D01*
G75*
G02*
X26499800Y2080400I0J-150000D01*
G01*
X26499800Y1780400D01*
G75*
G02*
X26349800Y1630400I-150000J0D01*
G01*
X25324800Y1630400D01*
G75*
G02*
X25174800Y1780400I0J150000D01*
G01*
G37*
G36*
G01*
X25174800Y830400D02*
X25174800Y1130400D01*
G75*
G02*
X25324800Y1280400I150000J0D01*
G01*
X26349800Y1280400D01*
G75*
G02*
X26499800Y1130400I0J-150000D01*
G01*
X26499800Y830400D01*
G75*
G02*
X26349800Y680400I-150000J0D01*
G01*
X25324800Y680400D01*
G75*
G02*
X25174800Y830400I0J150000D01*
G01*
G37*
G36*
G01*
X27449800Y830400D02*
X27449800Y1130400D01*
G75*
G02*
X27599800Y1280400I150000J0D01*
G01*
X28624800Y1280400D01*
G75*
G02*
X28774800Y1130400I0J-150000D01*
G01*
X28774800Y830400D01*
G75*
G02*
X28624800Y680400I-150000J0D01*
G01*
X27599800Y680400D01*
G75*
G02*
X27449800Y830400I0J150000D01*
G01*
G37*
G36*
G01*
X27449800Y2730400D02*
X27449800Y3030400D01*
G75*
G02*
X27599800Y3180400I150000J0D01*
G01*
X28624800Y3180400D01*
G75*
G02*
X28774800Y3030400I0J-150000D01*
G01*
X28774800Y2730400D01*
G75*
G02*
X28624800Y2580400I-150000J0D01*
G01*
X27599800Y2580400D01*
G75*
G02*
X27449800Y2730400I0J150000D01*
G01*
G37*
D16*
X69469000Y19683400D03*
X70739000Y19683400D03*
X72009000Y19683400D03*
X73279000Y19683400D03*
X73279000Y25833400D03*
X72009000Y25833400D03*
X70739000Y25833400D03*
X69469000Y25833400D03*
D11*
X45101200Y8421000D03*
D12*
X45101200Y7621000D03*
X45101200Y6821000D03*
D11*
X45101200Y6021000D03*
X46901200Y6021000D03*
D12*
X46901200Y6821000D03*
X46901200Y7621000D03*
D11*
X46901200Y8421000D03*
G36*
G01*
X49474900Y27357600D02*
X49474900Y26857600D01*
G75*
G02*
X49249900Y26632600I-225000J0D01*
G01*
X48799900Y26632600D01*
G75*
G02*
X48574900Y26857600I0J225000D01*
G01*
X48574900Y27357600D01*
G75*
G02*
X48799900Y27582600I225000J0D01*
G01*
X49249900Y27582600D01*
G75*
G02*
X49474900Y27357600I0J-225000D01*
G01*
G37*
G36*
G01*
X47924900Y27357600D02*
X47924900Y26857600D01*
G75*
G02*
X47699900Y26632600I-225000J0D01*
G01*
X47249900Y26632600D01*
G75*
G02*
X47024900Y26857600I0J225000D01*
G01*
X47024900Y27357600D01*
G75*
G02*
X47249900Y27582600I225000J0D01*
G01*
X47699900Y27582600D01*
G75*
G02*
X47924900Y27357600I0J-225000D01*
G01*
G37*
G36*
G01*
X49170100Y1966400D02*
X49170100Y1466400D01*
G75*
G02*
X48945100Y1241400I-225000J0D01*
G01*
X48495100Y1241400D01*
G75*
G02*
X48270100Y1466400I0J225000D01*
G01*
X48270100Y1966400D01*
G75*
G02*
X48495100Y2191400I225000J0D01*
G01*
X48945100Y2191400D01*
G75*
G02*
X49170100Y1966400I0J-225000D01*
G01*
G37*
G36*
G01*
X47620100Y1966400D02*
X47620100Y1466400D01*
G75*
G02*
X47395100Y1241400I-225000J0D01*
G01*
X46945100Y1241400D01*
G75*
G02*
X46720100Y1466400I0J225000D01*
G01*
X46720100Y1966400D01*
G75*
G02*
X46945100Y2191400I225000J0D01*
G01*
X47395100Y2191400D01*
G75*
G02*
X47620100Y1966400I0J-225000D01*
G01*
G37*
G36*
G01*
X53204483Y37390971D02*
X52850929Y37037417D01*
G75*
G02*
X52532731Y37037417I-159099J159099D01*
G01*
X52214533Y37355615D01*
G75*
G02*
X52214533Y37673813I159099J159099D01*
G01*
X52568087Y38027367D01*
G75*
G02*
X52886285Y38027367I159099J-159099D01*
G01*
X53204483Y37709169D01*
G75*
G02*
X53204483Y37390971I-159099J-159099D01*
G01*
G37*
G36*
G01*
X52108467Y38486987D02*
X51754913Y38133433D01*
G75*
G02*
X51436715Y38133433I-159099J159099D01*
G01*
X51118517Y38451631D01*
G75*
G02*
X51118517Y38769829I159099J159099D01*
G01*
X51472071Y39123383D01*
G75*
G02*
X51790269Y39123383I159099J-159099D01*
G01*
X52108467Y38805185D01*
G75*
G02*
X52108467Y38486987I-159099J-159099D01*
G01*
G37*
G36*
G01*
X7302500Y29241671D02*
X7302500Y29441671D01*
G75*
G02*
X7402500Y29541671I100000J0D01*
G01*
X8677500Y29541671D01*
G75*
G02*
X8777500Y29441671I0J-100000D01*
G01*
X8777500Y29241671D01*
G75*
G02*
X8677500Y29141671I-100000J0D01*
G01*
X7402500Y29141671D01*
G75*
G02*
X7302500Y29241671I0J100000D01*
G01*
G37*
G36*
G01*
X7302500Y28591671D02*
X7302500Y28791671D01*
G75*
G02*
X7402500Y28891671I100000J0D01*
G01*
X8677500Y28891671D01*
G75*
G02*
X8777500Y28791671I0J-100000D01*
G01*
X8777500Y28591671D01*
G75*
G02*
X8677500Y28491671I-100000J0D01*
G01*
X7402500Y28491671D01*
G75*
G02*
X7302500Y28591671I0J100000D01*
G01*
G37*
G36*
G01*
X7302500Y27941671D02*
X7302500Y28141671D01*
G75*
G02*
X7402500Y28241671I100000J0D01*
G01*
X8677500Y28241671D01*
G75*
G02*
X8777500Y28141671I0J-100000D01*
G01*
X8777500Y27941671D01*
G75*
G02*
X8677500Y27841671I-100000J0D01*
G01*
X7402500Y27841671D01*
G75*
G02*
X7302500Y27941671I0J100000D01*
G01*
G37*
G36*
G01*
X7302500Y27291671D02*
X7302500Y27491671D01*
G75*
G02*
X7402500Y27591671I100000J0D01*
G01*
X8677500Y27591671D01*
G75*
G02*
X8777500Y27491671I0J-100000D01*
G01*
X8777500Y27291671D01*
G75*
G02*
X8677500Y27191671I-100000J0D01*
G01*
X7402500Y27191671D01*
G75*
G02*
X7302500Y27291671I0J100000D01*
G01*
G37*
G36*
G01*
X7302500Y26641671D02*
X7302500Y26841671D01*
G75*
G02*
X7402500Y26941671I100000J0D01*
G01*
X8677500Y26941671D01*
G75*
G02*
X8777500Y26841671I0J-100000D01*
G01*
X8777500Y26641671D01*
G75*
G02*
X8677500Y26541671I-100000J0D01*
G01*
X7402500Y26541671D01*
G75*
G02*
X7302500Y26641671I0J100000D01*
G01*
G37*
G36*
G01*
X7302500Y25991671D02*
X7302500Y26191671D01*
G75*
G02*
X7402500Y26291671I100000J0D01*
G01*
X8677500Y26291671D01*
G75*
G02*
X8777500Y26191671I0J-100000D01*
G01*
X8777500Y25991671D01*
G75*
G02*
X8677500Y25891671I-100000J0D01*
G01*
X7402500Y25891671D01*
G75*
G02*
X7302500Y25991671I0J100000D01*
G01*
G37*
G36*
G01*
X7302500Y25341671D02*
X7302500Y25541671D01*
G75*
G02*
X7402500Y25641671I100000J0D01*
G01*
X8677500Y25641671D01*
G75*
G02*
X8777500Y25541671I0J-100000D01*
G01*
X8777500Y25341671D01*
G75*
G02*
X8677500Y25241671I-100000J0D01*
G01*
X7402500Y25241671D01*
G75*
G02*
X7302500Y25341671I0J100000D01*
G01*
G37*
G36*
G01*
X7302500Y24691671D02*
X7302500Y24891671D01*
G75*
G02*
X7402500Y24991671I100000J0D01*
G01*
X8677500Y24991671D01*
G75*
G02*
X8777500Y24891671I0J-100000D01*
G01*
X8777500Y24691671D01*
G75*
G02*
X8677500Y24591671I-100000J0D01*
G01*
X7402500Y24591671D01*
G75*
G02*
X7302500Y24691671I0J100000D01*
G01*
G37*
G36*
G01*
X7302500Y24041671D02*
X7302500Y24241671D01*
G75*
G02*
X7402500Y24341671I100000J0D01*
G01*
X8677500Y24341671D01*
G75*
G02*
X8777500Y24241671I0J-100000D01*
G01*
X8777500Y24041671D01*
G75*
G02*
X8677500Y23941671I-100000J0D01*
G01*
X7402500Y23941671D01*
G75*
G02*
X7302500Y24041671I0J100000D01*
G01*
G37*
G36*
G01*
X7302500Y23391671D02*
X7302500Y23591671D01*
G75*
G02*
X7402500Y23691671I100000J0D01*
G01*
X8677500Y23691671D01*
G75*
G02*
X8777500Y23591671I0J-100000D01*
G01*
X8777500Y23391671D01*
G75*
G02*
X8677500Y23291671I-100000J0D01*
G01*
X7402500Y23291671D01*
G75*
G02*
X7302500Y23391671I0J100000D01*
G01*
G37*
G36*
G01*
X13027500Y23391671D02*
X13027500Y23591671D01*
G75*
G02*
X13127500Y23691671I100000J0D01*
G01*
X14402500Y23691671D01*
G75*
G02*
X14502500Y23591671I0J-100000D01*
G01*
X14502500Y23391671D01*
G75*
G02*
X14402500Y23291671I-100000J0D01*
G01*
X13127500Y23291671D01*
G75*
G02*
X13027500Y23391671I0J100000D01*
G01*
G37*
G36*
G01*
X13027500Y24041671D02*
X13027500Y24241671D01*
G75*
G02*
X13127500Y24341671I100000J0D01*
G01*
X14402500Y24341671D01*
G75*
G02*
X14502500Y24241671I0J-100000D01*
G01*
X14502500Y24041671D01*
G75*
G02*
X14402500Y23941671I-100000J0D01*
G01*
X13127500Y23941671D01*
G75*
G02*
X13027500Y24041671I0J100000D01*
G01*
G37*
G36*
G01*
X13027500Y24691671D02*
X13027500Y24891671D01*
G75*
G02*
X13127500Y24991671I100000J0D01*
G01*
X14402500Y24991671D01*
G75*
G02*
X14502500Y24891671I0J-100000D01*
G01*
X14502500Y24691671D01*
G75*
G02*
X14402500Y24591671I-100000J0D01*
G01*
X13127500Y24591671D01*
G75*
G02*
X13027500Y24691671I0J100000D01*
G01*
G37*
G36*
G01*
X13027500Y25341671D02*
X13027500Y25541671D01*
G75*
G02*
X13127500Y25641671I100000J0D01*
G01*
X14402500Y25641671D01*
G75*
G02*
X14502500Y25541671I0J-100000D01*
G01*
X14502500Y25341671D01*
G75*
G02*
X14402500Y25241671I-100000J0D01*
G01*
X13127500Y25241671D01*
G75*
G02*
X13027500Y25341671I0J100000D01*
G01*
G37*
G36*
G01*
X13027500Y25991671D02*
X13027500Y26191671D01*
G75*
G02*
X13127500Y26291671I100000J0D01*
G01*
X14402500Y26291671D01*
G75*
G02*
X14502500Y26191671I0J-100000D01*
G01*
X14502500Y25991671D01*
G75*
G02*
X14402500Y25891671I-100000J0D01*
G01*
X13127500Y25891671D01*
G75*
G02*
X13027500Y25991671I0J100000D01*
G01*
G37*
G36*
G01*
X13027500Y26641671D02*
X13027500Y26841671D01*
G75*
G02*
X13127500Y26941671I100000J0D01*
G01*
X14402500Y26941671D01*
G75*
G02*
X14502500Y26841671I0J-100000D01*
G01*
X14502500Y26641671D01*
G75*
G02*
X14402500Y26541671I-100000J0D01*
G01*
X13127500Y26541671D01*
G75*
G02*
X13027500Y26641671I0J100000D01*
G01*
G37*
G36*
G01*
X13027500Y27291671D02*
X13027500Y27491671D01*
G75*
G02*
X13127500Y27591671I100000J0D01*
G01*
X14402500Y27591671D01*
G75*
G02*
X14502500Y27491671I0J-100000D01*
G01*
X14502500Y27291671D01*
G75*
G02*
X14402500Y27191671I-100000J0D01*
G01*
X13127500Y27191671D01*
G75*
G02*
X13027500Y27291671I0J100000D01*
G01*
G37*
G36*
G01*
X13027500Y27941671D02*
X13027500Y28141671D01*
G75*
G02*
X13127500Y28241671I100000J0D01*
G01*
X14402500Y28241671D01*
G75*
G02*
X14502500Y28141671I0J-100000D01*
G01*
X14502500Y27941671D01*
G75*
G02*
X14402500Y27841671I-100000J0D01*
G01*
X13127500Y27841671D01*
G75*
G02*
X13027500Y27941671I0J100000D01*
G01*
G37*
G36*
G01*
X13027500Y28591671D02*
X13027500Y28791671D01*
G75*
G02*
X13127500Y28891671I100000J0D01*
G01*
X14402500Y28891671D01*
G75*
G02*
X14502500Y28791671I0J-100000D01*
G01*
X14502500Y28591671D01*
G75*
G02*
X14402500Y28491671I-100000J0D01*
G01*
X13127500Y28491671D01*
G75*
G02*
X13027500Y28591671I0J100000D01*
G01*
G37*
G36*
G01*
X13027500Y29241671D02*
X13027500Y29441671D01*
G75*
G02*
X13127500Y29541671I100000J0D01*
G01*
X14402500Y29541671D01*
G75*
G02*
X14502500Y29441671I0J-100000D01*
G01*
X14502500Y29241671D01*
G75*
G02*
X14402500Y29141671I-100000J0D01*
G01*
X13127500Y29141671D01*
G75*
G02*
X13027500Y29241671I0J100000D01*
G01*
G37*
G36*
G01*
X16405800Y27297200D02*
X15855800Y27297200D01*
G75*
G02*
X15655800Y27497200I0J200000D01*
G01*
X15655800Y27897200D01*
G75*
G02*
X15855800Y28097200I200000J0D01*
G01*
X16405800Y28097200D01*
G75*
G02*
X16605800Y27897200I0J-200000D01*
G01*
X16605800Y27497200D01*
G75*
G02*
X16405800Y27297200I-200000J0D01*
G01*
G37*
G36*
G01*
X16405800Y28947200D02*
X15855800Y28947200D01*
G75*
G02*
X15655800Y29147200I0J200000D01*
G01*
X15655800Y29547200D01*
G75*
G02*
X15855800Y29747200I200000J0D01*
G01*
X16405800Y29747200D01*
G75*
G02*
X16605800Y29547200I0J-200000D01*
G01*
X16605800Y29147200D01*
G75*
G02*
X16405800Y28947200I-200000J0D01*
G01*
G37*
G36*
G01*
X5803000Y47084600D02*
X7053000Y47084600D01*
G75*
G02*
X7303000Y46834600I0J-250000D01*
G01*
X7303000Y46084600D01*
G75*
G02*
X7053000Y45834600I-250000J0D01*
G01*
X5803000Y45834600D01*
G75*
G02*
X5553000Y46084600I0J250000D01*
G01*
X5553000Y46834600D01*
G75*
G02*
X5803000Y47084600I250000J0D01*
G01*
G37*
G36*
G01*
X5803000Y44284600D02*
X7053000Y44284600D01*
G75*
G02*
X7303000Y44034600I0J-250000D01*
G01*
X7303000Y43284600D01*
G75*
G02*
X7053000Y43034600I-250000J0D01*
G01*
X5803000Y43034600D01*
G75*
G02*
X5553000Y43284600I0J250000D01*
G01*
X5553000Y44034600D01*
G75*
G02*
X5803000Y44284600I250000J0D01*
G01*
G37*
G36*
G01*
X49001896Y28958511D02*
X48895830Y29064577D01*
G75*
G02*
X48895830Y29170643I53033J53033D01*
G01*
X49832746Y30107559D01*
G75*
G02*
X49938812Y30107559I53033J-53033D01*
G01*
X50044878Y30001493D01*
G75*
G02*
X50044878Y29895427I-53033J-53033D01*
G01*
X49107962Y28958511D01*
G75*
G02*
X49001896Y28958511I-53033J53033D01*
G01*
G37*
G36*
G01*
X49355449Y28604958D02*
X49249383Y28711024D01*
G75*
G02*
X49249383Y28817090I53033J53033D01*
G01*
X50186299Y29754006D01*
G75*
G02*
X50292365Y29754006I53033J-53033D01*
G01*
X50398431Y29647940D01*
G75*
G02*
X50398431Y29541874I-53033J-53033D01*
G01*
X49461515Y28604958D01*
G75*
G02*
X49355449Y28604958I-53033J53033D01*
G01*
G37*
G36*
G01*
X49709002Y28251404D02*
X49602936Y28357470D01*
G75*
G02*
X49602936Y28463536I53033J53033D01*
G01*
X50539852Y29400452D01*
G75*
G02*
X50645918Y29400452I53033J-53033D01*
G01*
X50751984Y29294386D01*
G75*
G02*
X50751984Y29188320I-53033J-53033D01*
G01*
X49815068Y28251404D01*
G75*
G02*
X49709002Y28251404I-53033J53033D01*
G01*
G37*
G36*
G01*
X50062556Y27897851D02*
X49956490Y28003917D01*
G75*
G02*
X49956490Y28109983I53033J53033D01*
G01*
X50893406Y29046899D01*
G75*
G02*
X50999472Y29046899I53033J-53033D01*
G01*
X51105538Y28940833D01*
G75*
G02*
X51105538Y28834767I-53033J-53033D01*
G01*
X50168622Y27897851D01*
G75*
G02*
X50062556Y27897851I-53033J53033D01*
G01*
G37*
G36*
G01*
X50416109Y27544297D02*
X50310043Y27650363D01*
G75*
G02*
X50310043Y27756429I53033J53033D01*
G01*
X51246959Y28693345D01*
G75*
G02*
X51353025Y28693345I53033J-53033D01*
G01*
X51459091Y28587279D01*
G75*
G02*
X51459091Y28481213I-53033J-53033D01*
G01*
X50522175Y27544297D01*
G75*
G02*
X50416109Y27544297I-53033J53033D01*
G01*
G37*
G36*
G01*
X50769663Y27190744D02*
X50663597Y27296810D01*
G75*
G02*
X50663597Y27402876I53033J53033D01*
G01*
X51600513Y28339792D01*
G75*
G02*
X51706579Y28339792I53033J-53033D01*
G01*
X51812645Y28233726D01*
G75*
G02*
X51812645Y28127660I-53033J-53033D01*
G01*
X50875729Y27190744D01*
G75*
G02*
X50769663Y27190744I-53033J53033D01*
G01*
G37*
G36*
G01*
X51123216Y26837191D02*
X51017150Y26943257D01*
G75*
G02*
X51017150Y27049323I53033J53033D01*
G01*
X51954066Y27986239D01*
G75*
G02*
X52060132Y27986239I53033J-53033D01*
G01*
X52166198Y27880173D01*
G75*
G02*
X52166198Y27774107I-53033J-53033D01*
G01*
X51229282Y26837191D01*
G75*
G02*
X51123216Y26837191I-53033J53033D01*
G01*
G37*
G36*
G01*
X51476769Y26483637D02*
X51370703Y26589703D01*
G75*
G02*
X51370703Y26695769I53033J53033D01*
G01*
X52307619Y27632685D01*
G75*
G02*
X52413685Y27632685I53033J-53033D01*
G01*
X52519751Y27526619D01*
G75*
G02*
X52519751Y27420553I-53033J-53033D01*
G01*
X51582835Y26483637D01*
G75*
G02*
X51476769Y26483637I-53033J53033D01*
G01*
G37*
G36*
G01*
X51830323Y26130084D02*
X51724257Y26236150D01*
G75*
G02*
X51724257Y26342216I53033J53033D01*
G01*
X52661173Y27279132D01*
G75*
G02*
X52767239Y27279132I53033J-53033D01*
G01*
X52873305Y27173066D01*
G75*
G02*
X52873305Y27067000I-53033J-53033D01*
G01*
X51936389Y26130084D01*
G75*
G02*
X51830323Y26130084I-53033J53033D01*
G01*
G37*
G36*
G01*
X52183876Y25776530D02*
X52077810Y25882596D01*
G75*
G02*
X52077810Y25988662I53033J53033D01*
G01*
X53014726Y26925578D01*
G75*
G02*
X53120792Y26925578I53033J-53033D01*
G01*
X53226858Y26819512D01*
G75*
G02*
X53226858Y26713446I-53033J-53033D01*
G01*
X52289942Y25776530D01*
G75*
G02*
X52183876Y25776530I-53033J53033D01*
G01*
G37*
G36*
G01*
X52537430Y25422977D02*
X52431364Y25529043D01*
G75*
G02*
X52431364Y25635109I53033J53033D01*
G01*
X53368280Y26572025D01*
G75*
G02*
X53474346Y26572025I53033J-53033D01*
G01*
X53580412Y26465959D01*
G75*
G02*
X53580412Y26359893I-53033J-53033D01*
G01*
X52643496Y25422977D01*
G75*
G02*
X52537430Y25422977I-53033J53033D01*
G01*
G37*
G36*
G01*
X52890983Y25069424D02*
X52784917Y25175490D01*
G75*
G02*
X52784917Y25281556I53033J53033D01*
G01*
X53721833Y26218472D01*
G75*
G02*
X53827899Y26218472I53033J-53033D01*
G01*
X53933965Y26112406D01*
G75*
G02*
X53933965Y26006340I-53033J-53033D01*
G01*
X52997049Y25069424D01*
G75*
G02*
X52890983Y25069424I-53033J53033D01*
G01*
G37*
G36*
G01*
X53244536Y24715870D02*
X53138470Y24821936D01*
G75*
G02*
X53138470Y24928002I53033J53033D01*
G01*
X54075386Y25864918D01*
G75*
G02*
X54181452Y25864918I53033J-53033D01*
G01*
X54287518Y25758852D01*
G75*
G02*
X54287518Y25652786I-53033J-53033D01*
G01*
X53350602Y24715870D01*
G75*
G02*
X53244536Y24715870I-53033J53033D01*
G01*
G37*
G36*
G01*
X53598090Y24362317D02*
X53492024Y24468383D01*
G75*
G02*
X53492024Y24574449I53033J53033D01*
G01*
X54428940Y25511365D01*
G75*
G02*
X54535006Y25511365I53033J-53033D01*
G01*
X54641072Y25405299D01*
G75*
G02*
X54641072Y25299233I-53033J-53033D01*
G01*
X53704156Y24362317D01*
G75*
G02*
X53598090Y24362317I-53033J53033D01*
G01*
G37*
G36*
G01*
X53951643Y24008764D02*
X53845577Y24114830D01*
G75*
G02*
X53845577Y24220896I53033J53033D01*
G01*
X54782493Y25157812D01*
G75*
G02*
X54888559Y25157812I53033J-53033D01*
G01*
X54994625Y25051746D01*
G75*
G02*
X54994625Y24945680I-53033J-53033D01*
G01*
X54057709Y24008764D01*
G75*
G02*
X53951643Y24008764I-53033J53033D01*
G01*
G37*
G36*
G01*
X54305196Y23655210D02*
X54199130Y23761276D01*
G75*
G02*
X54199130Y23867342I53033J53033D01*
G01*
X55136046Y24804258D01*
G75*
G02*
X55242112Y24804258I53033J-53033D01*
G01*
X55348178Y24698192D01*
G75*
G02*
X55348178Y24592126I-53033J-53033D01*
G01*
X54411262Y23655210D01*
G75*
G02*
X54305196Y23655210I-53033J53033D01*
G01*
G37*
G36*
G01*
X54658750Y23301657D02*
X54552684Y23407723D01*
G75*
G02*
X54552684Y23513789I53033J53033D01*
G01*
X55489600Y24450705D01*
G75*
G02*
X55595666Y24450705I53033J-53033D01*
G01*
X55701732Y24344639D01*
G75*
G02*
X55701732Y24238573I-53033J-53033D01*
G01*
X54764816Y23301657D01*
G75*
G02*
X54658750Y23301657I-53033J53033D01*
G01*
G37*
G36*
G01*
X55012303Y22948103D02*
X54906237Y23054169D01*
G75*
G02*
X54906237Y23160235I53033J53033D01*
G01*
X55843153Y24097151D01*
G75*
G02*
X55949219Y24097151I53033J-53033D01*
G01*
X56055285Y23991085D01*
G75*
G02*
X56055285Y23885019I-53033J-53033D01*
G01*
X55118369Y22948103D01*
G75*
G02*
X55012303Y22948103I-53033J53033D01*
G01*
G37*
G36*
G01*
X55365857Y22594550D02*
X55259791Y22700616D01*
G75*
G02*
X55259791Y22806682I53033J53033D01*
G01*
X56196707Y23743598D01*
G75*
G02*
X56302773Y23743598I53033J-53033D01*
G01*
X56408839Y23637532D01*
G75*
G02*
X56408839Y23531466I-53033J-53033D01*
G01*
X55471923Y22594550D01*
G75*
G02*
X55365857Y22594550I-53033J53033D01*
G01*
G37*
G36*
G01*
X55719410Y22240997D02*
X55613344Y22347063D01*
G75*
G02*
X55613344Y22453129I53033J53033D01*
G01*
X56550260Y23390045D01*
G75*
G02*
X56656326Y23390045I53033J-53033D01*
G01*
X56762392Y23283979D01*
G75*
G02*
X56762392Y23177913I-53033J-53033D01*
G01*
X55825476Y22240997D01*
G75*
G02*
X55719410Y22240997I-53033J53033D01*
G01*
G37*
G36*
G01*
X56072963Y21887443D02*
X55966897Y21993509D01*
G75*
G02*
X55966897Y22099575I53033J53033D01*
G01*
X56903813Y23036491D01*
G75*
G02*
X57009879Y23036491I53033J-53033D01*
G01*
X57115945Y22930425D01*
G75*
G02*
X57115945Y22824359I-53033J-53033D01*
G01*
X56179029Y21887443D01*
G75*
G02*
X56072963Y21887443I-53033J53033D01*
G01*
G37*
G36*
G01*
X56426517Y21533890D02*
X56320451Y21639956D01*
G75*
G02*
X56320451Y21746022I53033J53033D01*
G01*
X57257367Y22682938D01*
G75*
G02*
X57363433Y22682938I53033J-53033D01*
G01*
X57469499Y22576872D01*
G75*
G02*
X57469499Y22470806I-53033J-53033D01*
G01*
X56532583Y21533890D01*
G75*
G02*
X56426517Y21533890I-53033J53033D01*
G01*
G37*
G36*
G01*
X56780070Y21180336D02*
X56674004Y21286402D01*
G75*
G02*
X56674004Y21392468I53033J53033D01*
G01*
X57610920Y22329384D01*
G75*
G02*
X57716986Y22329384I53033J-53033D01*
G01*
X57823052Y22223318D01*
G75*
G02*
X57823052Y22117252I-53033J-53033D01*
G01*
X56886136Y21180336D01*
G75*
G02*
X56780070Y21180336I-53033J53033D01*
G01*
G37*
G36*
G01*
X57133624Y20826783D02*
X57027558Y20932849D01*
G75*
G02*
X57027558Y21038915I53033J53033D01*
G01*
X57964474Y21975831D01*
G75*
G02*
X58070540Y21975831I53033J-53033D01*
G01*
X58176606Y21869765D01*
G75*
G02*
X58176606Y21763699I-53033J-53033D01*
G01*
X57239690Y20826783D01*
G75*
G02*
X57133624Y20826783I-53033J53033D01*
G01*
G37*
G36*
G01*
X57487177Y20473230D02*
X57381111Y20579296D01*
G75*
G02*
X57381111Y20685362I53033J53033D01*
G01*
X58318027Y21622278D01*
G75*
G02*
X58424093Y21622278I53033J-53033D01*
G01*
X58530159Y21516212D01*
G75*
G02*
X58530159Y21410146I-53033J-53033D01*
G01*
X57593243Y20473230D01*
G75*
G02*
X57487177Y20473230I-53033J53033D01*
G01*
G37*
G36*
G01*
X60669157Y20473230D02*
X59732241Y21410146D01*
G75*
G02*
X59732241Y21516212I53033J53033D01*
G01*
X59838307Y21622278D01*
G75*
G02*
X59944373Y21622278I53033J-53033D01*
G01*
X60881289Y20685362D01*
G75*
G02*
X60881289Y20579296I-53033J-53033D01*
G01*
X60775223Y20473230D01*
G75*
G02*
X60669157Y20473230I-53033J53033D01*
G01*
G37*
G36*
G01*
X61022710Y20826783D02*
X60085794Y21763699D01*
G75*
G02*
X60085794Y21869765I53033J53033D01*
G01*
X60191860Y21975831D01*
G75*
G02*
X60297926Y21975831I53033J-53033D01*
G01*
X61234842Y21038915D01*
G75*
G02*
X61234842Y20932849I-53033J-53033D01*
G01*
X61128776Y20826783D01*
G75*
G02*
X61022710Y20826783I-53033J53033D01*
G01*
G37*
G36*
G01*
X61376264Y21180336D02*
X60439348Y22117252D01*
G75*
G02*
X60439348Y22223318I53033J53033D01*
G01*
X60545414Y22329384D01*
G75*
G02*
X60651480Y22329384I53033J-53033D01*
G01*
X61588396Y21392468D01*
G75*
G02*
X61588396Y21286402I-53033J-53033D01*
G01*
X61482330Y21180336D01*
G75*
G02*
X61376264Y21180336I-53033J53033D01*
G01*
G37*
G36*
G01*
X61729817Y21533890D02*
X60792901Y22470806D01*
G75*
G02*
X60792901Y22576872I53033J53033D01*
G01*
X60898967Y22682938D01*
G75*
G02*
X61005033Y22682938I53033J-53033D01*
G01*
X61941949Y21746022D01*
G75*
G02*
X61941949Y21639956I-53033J-53033D01*
G01*
X61835883Y21533890D01*
G75*
G02*
X61729817Y21533890I-53033J53033D01*
G01*
G37*
G36*
G01*
X62083371Y21887443D02*
X61146455Y22824359D01*
G75*
G02*
X61146455Y22930425I53033J53033D01*
G01*
X61252521Y23036491D01*
G75*
G02*
X61358587Y23036491I53033J-53033D01*
G01*
X62295503Y22099575D01*
G75*
G02*
X62295503Y21993509I-53033J-53033D01*
G01*
X62189437Y21887443D01*
G75*
G02*
X62083371Y21887443I-53033J53033D01*
G01*
G37*
G36*
G01*
X62436924Y22240997D02*
X61500008Y23177913D01*
G75*
G02*
X61500008Y23283979I53033J53033D01*
G01*
X61606074Y23390045D01*
G75*
G02*
X61712140Y23390045I53033J-53033D01*
G01*
X62649056Y22453129D01*
G75*
G02*
X62649056Y22347063I-53033J-53033D01*
G01*
X62542990Y22240997D01*
G75*
G02*
X62436924Y22240997I-53033J53033D01*
G01*
G37*
G36*
G01*
X62790477Y22594550D02*
X61853561Y23531466D01*
G75*
G02*
X61853561Y23637532I53033J53033D01*
G01*
X61959627Y23743598D01*
G75*
G02*
X62065693Y23743598I53033J-53033D01*
G01*
X63002609Y22806682D01*
G75*
G02*
X63002609Y22700616I-53033J-53033D01*
G01*
X62896543Y22594550D01*
G75*
G02*
X62790477Y22594550I-53033J53033D01*
G01*
G37*
G36*
G01*
X63144031Y22948103D02*
X62207115Y23885019D01*
G75*
G02*
X62207115Y23991085I53033J53033D01*
G01*
X62313181Y24097151D01*
G75*
G02*
X62419247Y24097151I53033J-53033D01*
G01*
X63356163Y23160235D01*
G75*
G02*
X63356163Y23054169I-53033J-53033D01*
G01*
X63250097Y22948103D01*
G75*
G02*
X63144031Y22948103I-53033J53033D01*
G01*
G37*
G36*
G01*
X63497584Y23301657D02*
X62560668Y24238573D01*
G75*
G02*
X62560668Y24344639I53033J53033D01*
G01*
X62666734Y24450705D01*
G75*
G02*
X62772800Y24450705I53033J-53033D01*
G01*
X63709716Y23513789D01*
G75*
G02*
X63709716Y23407723I-53033J-53033D01*
G01*
X63603650Y23301657D01*
G75*
G02*
X63497584Y23301657I-53033J53033D01*
G01*
G37*
G36*
G01*
X63851138Y23655210D02*
X62914222Y24592126D01*
G75*
G02*
X62914222Y24698192I53033J53033D01*
G01*
X63020288Y24804258D01*
G75*
G02*
X63126354Y24804258I53033J-53033D01*
G01*
X64063270Y23867342D01*
G75*
G02*
X64063270Y23761276I-53033J-53033D01*
G01*
X63957204Y23655210D01*
G75*
G02*
X63851138Y23655210I-53033J53033D01*
G01*
G37*
G36*
G01*
X64204691Y24008764D02*
X63267775Y24945680D01*
G75*
G02*
X63267775Y25051746I53033J53033D01*
G01*
X63373841Y25157812D01*
G75*
G02*
X63479907Y25157812I53033J-53033D01*
G01*
X64416823Y24220896D01*
G75*
G02*
X64416823Y24114830I-53033J-53033D01*
G01*
X64310757Y24008764D01*
G75*
G02*
X64204691Y24008764I-53033J53033D01*
G01*
G37*
G36*
G01*
X64558244Y24362317D02*
X63621328Y25299233D01*
G75*
G02*
X63621328Y25405299I53033J53033D01*
G01*
X63727394Y25511365D01*
G75*
G02*
X63833460Y25511365I53033J-53033D01*
G01*
X64770376Y24574449D01*
G75*
G02*
X64770376Y24468383I-53033J-53033D01*
G01*
X64664310Y24362317D01*
G75*
G02*
X64558244Y24362317I-53033J53033D01*
G01*
G37*
G36*
G01*
X64911798Y24715870D02*
X63974882Y25652786D01*
G75*
G02*
X63974882Y25758852I53033J53033D01*
G01*
X64080948Y25864918D01*
G75*
G02*
X64187014Y25864918I53033J-53033D01*
G01*
X65123930Y24928002D01*
G75*
G02*
X65123930Y24821936I-53033J-53033D01*
G01*
X65017864Y24715870D01*
G75*
G02*
X64911798Y24715870I-53033J53033D01*
G01*
G37*
G36*
G01*
X65265351Y25069424D02*
X64328435Y26006340D01*
G75*
G02*
X64328435Y26112406I53033J53033D01*
G01*
X64434501Y26218472D01*
G75*
G02*
X64540567Y26218472I53033J-53033D01*
G01*
X65477483Y25281556D01*
G75*
G02*
X65477483Y25175490I-53033J-53033D01*
G01*
X65371417Y25069424D01*
G75*
G02*
X65265351Y25069424I-53033J53033D01*
G01*
G37*
G36*
G01*
X65618904Y25422977D02*
X64681988Y26359893D01*
G75*
G02*
X64681988Y26465959I53033J53033D01*
G01*
X64788054Y26572025D01*
G75*
G02*
X64894120Y26572025I53033J-53033D01*
G01*
X65831036Y25635109D01*
G75*
G02*
X65831036Y25529043I-53033J-53033D01*
G01*
X65724970Y25422977D01*
G75*
G02*
X65618904Y25422977I-53033J53033D01*
G01*
G37*
G36*
G01*
X65972458Y25776530D02*
X65035542Y26713446D01*
G75*
G02*
X65035542Y26819512I53033J53033D01*
G01*
X65141608Y26925578D01*
G75*
G02*
X65247674Y26925578I53033J-53033D01*
G01*
X66184590Y25988662D01*
G75*
G02*
X66184590Y25882596I-53033J-53033D01*
G01*
X66078524Y25776530D01*
G75*
G02*
X65972458Y25776530I-53033J53033D01*
G01*
G37*
G36*
G01*
X66326011Y26130084D02*
X65389095Y27067000D01*
G75*
G02*
X65389095Y27173066I53033J53033D01*
G01*
X65495161Y27279132D01*
G75*
G02*
X65601227Y27279132I53033J-53033D01*
G01*
X66538143Y26342216D01*
G75*
G02*
X66538143Y26236150I-53033J-53033D01*
G01*
X66432077Y26130084D01*
G75*
G02*
X66326011Y26130084I-53033J53033D01*
G01*
G37*
G36*
G01*
X66679565Y26483637D02*
X65742649Y27420553D01*
G75*
G02*
X65742649Y27526619I53033J53033D01*
G01*
X65848715Y27632685D01*
G75*
G02*
X65954781Y27632685I53033J-53033D01*
G01*
X66891697Y26695769D01*
G75*
G02*
X66891697Y26589703I-53033J-53033D01*
G01*
X66785631Y26483637D01*
G75*
G02*
X66679565Y26483637I-53033J53033D01*
G01*
G37*
G36*
G01*
X67033118Y26837191D02*
X66096202Y27774107D01*
G75*
G02*
X66096202Y27880173I53033J53033D01*
G01*
X66202268Y27986239D01*
G75*
G02*
X66308334Y27986239I53033J-53033D01*
G01*
X67245250Y27049323D01*
G75*
G02*
X67245250Y26943257I-53033J-53033D01*
G01*
X67139184Y26837191D01*
G75*
G02*
X67033118Y26837191I-53033J53033D01*
G01*
G37*
G36*
G01*
X67386671Y27190744D02*
X66449755Y28127660D01*
G75*
G02*
X66449755Y28233726I53033J53033D01*
G01*
X66555821Y28339792D01*
G75*
G02*
X66661887Y28339792I53033J-53033D01*
G01*
X67598803Y27402876D01*
G75*
G02*
X67598803Y27296810I-53033J-53033D01*
G01*
X67492737Y27190744D01*
G75*
G02*
X67386671Y27190744I-53033J53033D01*
G01*
G37*
G36*
G01*
X67740225Y27544297D02*
X66803309Y28481213D01*
G75*
G02*
X66803309Y28587279I53033J53033D01*
G01*
X66909375Y28693345D01*
G75*
G02*
X67015441Y28693345I53033J-53033D01*
G01*
X67952357Y27756429D01*
G75*
G02*
X67952357Y27650363I-53033J-53033D01*
G01*
X67846291Y27544297D01*
G75*
G02*
X67740225Y27544297I-53033J53033D01*
G01*
G37*
G36*
G01*
X68093778Y27897851D02*
X67156862Y28834767D01*
G75*
G02*
X67156862Y28940833I53033J53033D01*
G01*
X67262928Y29046899D01*
G75*
G02*
X67368994Y29046899I53033J-53033D01*
G01*
X68305910Y28109983D01*
G75*
G02*
X68305910Y28003917I-53033J-53033D01*
G01*
X68199844Y27897851D01*
G75*
G02*
X68093778Y27897851I-53033J53033D01*
G01*
G37*
G36*
G01*
X68447332Y28251404D02*
X67510416Y29188320D01*
G75*
G02*
X67510416Y29294386I53033J53033D01*
G01*
X67616482Y29400452D01*
G75*
G02*
X67722548Y29400452I53033J-53033D01*
G01*
X68659464Y28463536D01*
G75*
G02*
X68659464Y28357470I-53033J-53033D01*
G01*
X68553398Y28251404D01*
G75*
G02*
X68447332Y28251404I-53033J53033D01*
G01*
G37*
G36*
G01*
X68800885Y28604958D02*
X67863969Y29541874D01*
G75*
G02*
X67863969Y29647940I53033J53033D01*
G01*
X67970035Y29754006D01*
G75*
G02*
X68076101Y29754006I53033J-53033D01*
G01*
X69013017Y28817090D01*
G75*
G02*
X69013017Y28711024I-53033J-53033D01*
G01*
X68906951Y28604958D01*
G75*
G02*
X68800885Y28604958I-53033J53033D01*
G01*
G37*
G36*
G01*
X69154438Y28958511D02*
X68217522Y29895427D01*
G75*
G02*
X68217522Y30001493I53033J53033D01*
G01*
X68323588Y30107559D01*
G75*
G02*
X68429654Y30107559I53033J-53033D01*
G01*
X69366570Y29170643D01*
G75*
G02*
X69366570Y29064577I-53033J-53033D01*
G01*
X69260504Y28958511D01*
G75*
G02*
X69154438Y28958511I-53033J53033D01*
G01*
G37*
G36*
G01*
X68323588Y31309641D02*
X68217522Y31415707D01*
G75*
G02*
X68217522Y31521773I53033J53033D01*
G01*
X69154438Y32458689D01*
G75*
G02*
X69260504Y32458689I53033J-53033D01*
G01*
X69366570Y32352623D01*
G75*
G02*
X69366570Y32246557I-53033J-53033D01*
G01*
X68429654Y31309641D01*
G75*
G02*
X68323588Y31309641I-53033J53033D01*
G01*
G37*
G36*
G01*
X67970035Y31663194D02*
X67863969Y31769260D01*
G75*
G02*
X67863969Y31875326I53033J53033D01*
G01*
X68800885Y32812242D01*
G75*
G02*
X68906951Y32812242I53033J-53033D01*
G01*
X69013017Y32706176D01*
G75*
G02*
X69013017Y32600110I-53033J-53033D01*
G01*
X68076101Y31663194D01*
G75*
G02*
X67970035Y31663194I-53033J53033D01*
G01*
G37*
G36*
G01*
X67616482Y32016748D02*
X67510416Y32122814D01*
G75*
G02*
X67510416Y32228880I53033J53033D01*
G01*
X68447332Y33165796D01*
G75*
G02*
X68553398Y33165796I53033J-53033D01*
G01*
X68659464Y33059730D01*
G75*
G02*
X68659464Y32953664I-53033J-53033D01*
G01*
X67722548Y32016748D01*
G75*
G02*
X67616482Y32016748I-53033J53033D01*
G01*
G37*
G36*
G01*
X67262928Y32370301D02*
X67156862Y32476367D01*
G75*
G02*
X67156862Y32582433I53033J53033D01*
G01*
X68093778Y33519349D01*
G75*
G02*
X68199844Y33519349I53033J-53033D01*
G01*
X68305910Y33413283D01*
G75*
G02*
X68305910Y33307217I-53033J-53033D01*
G01*
X67368994Y32370301D01*
G75*
G02*
X67262928Y32370301I-53033J53033D01*
G01*
G37*
G36*
G01*
X66909375Y32723855D02*
X66803309Y32829921D01*
G75*
G02*
X66803309Y32935987I53033J53033D01*
G01*
X67740225Y33872903D01*
G75*
G02*
X67846291Y33872903I53033J-53033D01*
G01*
X67952357Y33766837D01*
G75*
G02*
X67952357Y33660771I-53033J-53033D01*
G01*
X67015441Y32723855D01*
G75*
G02*
X66909375Y32723855I-53033J53033D01*
G01*
G37*
G36*
G01*
X66555821Y33077408D02*
X66449755Y33183474D01*
G75*
G02*
X66449755Y33289540I53033J53033D01*
G01*
X67386671Y34226456D01*
G75*
G02*
X67492737Y34226456I53033J-53033D01*
G01*
X67598803Y34120390D01*
G75*
G02*
X67598803Y34014324I-53033J-53033D01*
G01*
X66661887Y33077408D01*
G75*
G02*
X66555821Y33077408I-53033J53033D01*
G01*
G37*
G36*
G01*
X66202268Y33430961D02*
X66096202Y33537027D01*
G75*
G02*
X66096202Y33643093I53033J53033D01*
G01*
X67033118Y34580009D01*
G75*
G02*
X67139184Y34580009I53033J-53033D01*
G01*
X67245250Y34473943D01*
G75*
G02*
X67245250Y34367877I-53033J-53033D01*
G01*
X66308334Y33430961D01*
G75*
G02*
X66202268Y33430961I-53033J53033D01*
G01*
G37*
G36*
G01*
X65848715Y33784515D02*
X65742649Y33890581D01*
G75*
G02*
X65742649Y33996647I53033J53033D01*
G01*
X66679565Y34933563D01*
G75*
G02*
X66785631Y34933563I53033J-53033D01*
G01*
X66891697Y34827497D01*
G75*
G02*
X66891697Y34721431I-53033J-53033D01*
G01*
X65954781Y33784515D01*
G75*
G02*
X65848715Y33784515I-53033J53033D01*
G01*
G37*
G36*
G01*
X65495161Y34138068D02*
X65389095Y34244134D01*
G75*
G02*
X65389095Y34350200I53033J53033D01*
G01*
X66326011Y35287116D01*
G75*
G02*
X66432077Y35287116I53033J-53033D01*
G01*
X66538143Y35181050D01*
G75*
G02*
X66538143Y35074984I-53033J-53033D01*
G01*
X65601227Y34138068D01*
G75*
G02*
X65495161Y34138068I-53033J53033D01*
G01*
G37*
G36*
G01*
X65141608Y34491622D02*
X65035542Y34597688D01*
G75*
G02*
X65035542Y34703754I53033J53033D01*
G01*
X65972458Y35640670D01*
G75*
G02*
X66078524Y35640670I53033J-53033D01*
G01*
X66184590Y35534604D01*
G75*
G02*
X66184590Y35428538I-53033J-53033D01*
G01*
X65247674Y34491622D01*
G75*
G02*
X65141608Y34491622I-53033J53033D01*
G01*
G37*
G36*
G01*
X64788054Y34845175D02*
X64681988Y34951241D01*
G75*
G02*
X64681988Y35057307I53033J53033D01*
G01*
X65618904Y35994223D01*
G75*
G02*
X65724970Y35994223I53033J-53033D01*
G01*
X65831036Y35888157D01*
G75*
G02*
X65831036Y35782091I-53033J-53033D01*
G01*
X64894120Y34845175D01*
G75*
G02*
X64788054Y34845175I-53033J53033D01*
G01*
G37*
G36*
G01*
X64434501Y35198728D02*
X64328435Y35304794D01*
G75*
G02*
X64328435Y35410860I53033J53033D01*
G01*
X65265351Y36347776D01*
G75*
G02*
X65371417Y36347776I53033J-53033D01*
G01*
X65477483Y36241710D01*
G75*
G02*
X65477483Y36135644I-53033J-53033D01*
G01*
X64540567Y35198728D01*
G75*
G02*
X64434501Y35198728I-53033J53033D01*
G01*
G37*
G36*
G01*
X64080948Y35552282D02*
X63974882Y35658348D01*
G75*
G02*
X63974882Y35764414I53033J53033D01*
G01*
X64911798Y36701330D01*
G75*
G02*
X65017864Y36701330I53033J-53033D01*
G01*
X65123930Y36595264D01*
G75*
G02*
X65123930Y36489198I-53033J-53033D01*
G01*
X64187014Y35552282D01*
G75*
G02*
X64080948Y35552282I-53033J53033D01*
G01*
G37*
G36*
G01*
X63727394Y35905835D02*
X63621328Y36011901D01*
G75*
G02*
X63621328Y36117967I53033J53033D01*
G01*
X64558244Y37054883D01*
G75*
G02*
X64664310Y37054883I53033J-53033D01*
G01*
X64770376Y36948817D01*
G75*
G02*
X64770376Y36842751I-53033J-53033D01*
G01*
X63833460Y35905835D01*
G75*
G02*
X63727394Y35905835I-53033J53033D01*
G01*
G37*
G36*
G01*
X63373841Y36259388D02*
X63267775Y36365454D01*
G75*
G02*
X63267775Y36471520I53033J53033D01*
G01*
X64204691Y37408436D01*
G75*
G02*
X64310757Y37408436I53033J-53033D01*
G01*
X64416823Y37302370D01*
G75*
G02*
X64416823Y37196304I-53033J-53033D01*
G01*
X63479907Y36259388D01*
G75*
G02*
X63373841Y36259388I-53033J53033D01*
G01*
G37*
G36*
G01*
X63020288Y36612942D02*
X62914222Y36719008D01*
G75*
G02*
X62914222Y36825074I53033J53033D01*
G01*
X63851138Y37761990D01*
G75*
G02*
X63957204Y37761990I53033J-53033D01*
G01*
X64063270Y37655924D01*
G75*
G02*
X64063270Y37549858I-53033J-53033D01*
G01*
X63126354Y36612942D01*
G75*
G02*
X63020288Y36612942I-53033J53033D01*
G01*
G37*
G36*
G01*
X62666734Y36966495D02*
X62560668Y37072561D01*
G75*
G02*
X62560668Y37178627I53033J53033D01*
G01*
X63497584Y38115543D01*
G75*
G02*
X63603650Y38115543I53033J-53033D01*
G01*
X63709716Y38009477D01*
G75*
G02*
X63709716Y37903411I-53033J-53033D01*
G01*
X62772800Y36966495D01*
G75*
G02*
X62666734Y36966495I-53033J53033D01*
G01*
G37*
G36*
G01*
X62313181Y37320049D02*
X62207115Y37426115D01*
G75*
G02*
X62207115Y37532181I53033J53033D01*
G01*
X63144031Y38469097D01*
G75*
G02*
X63250097Y38469097I53033J-53033D01*
G01*
X63356163Y38363031D01*
G75*
G02*
X63356163Y38256965I-53033J-53033D01*
G01*
X62419247Y37320049D01*
G75*
G02*
X62313181Y37320049I-53033J53033D01*
G01*
G37*
G36*
G01*
X61959627Y37673602D02*
X61853561Y37779668D01*
G75*
G02*
X61853561Y37885734I53033J53033D01*
G01*
X62790477Y38822650D01*
G75*
G02*
X62896543Y38822650I53033J-53033D01*
G01*
X63002609Y38716584D01*
G75*
G02*
X63002609Y38610518I-53033J-53033D01*
G01*
X62065693Y37673602D01*
G75*
G02*
X61959627Y37673602I-53033J53033D01*
G01*
G37*
G36*
G01*
X61606074Y38027155D02*
X61500008Y38133221D01*
G75*
G02*
X61500008Y38239287I53033J53033D01*
G01*
X62436924Y39176203D01*
G75*
G02*
X62542990Y39176203I53033J-53033D01*
G01*
X62649056Y39070137D01*
G75*
G02*
X62649056Y38964071I-53033J-53033D01*
G01*
X61712140Y38027155D01*
G75*
G02*
X61606074Y38027155I-53033J53033D01*
G01*
G37*
G36*
G01*
X61252521Y38380709D02*
X61146455Y38486775D01*
G75*
G02*
X61146455Y38592841I53033J53033D01*
G01*
X62083371Y39529757D01*
G75*
G02*
X62189437Y39529757I53033J-53033D01*
G01*
X62295503Y39423691D01*
G75*
G02*
X62295503Y39317625I-53033J-53033D01*
G01*
X61358587Y38380709D01*
G75*
G02*
X61252521Y38380709I-53033J53033D01*
G01*
G37*
G36*
G01*
X60898967Y38734262D02*
X60792901Y38840328D01*
G75*
G02*
X60792901Y38946394I53033J53033D01*
G01*
X61729817Y39883310D01*
G75*
G02*
X61835883Y39883310I53033J-53033D01*
G01*
X61941949Y39777244D01*
G75*
G02*
X61941949Y39671178I-53033J-53033D01*
G01*
X61005033Y38734262D01*
G75*
G02*
X60898967Y38734262I-53033J53033D01*
G01*
G37*
G36*
G01*
X60545414Y39087816D02*
X60439348Y39193882D01*
G75*
G02*
X60439348Y39299948I53033J53033D01*
G01*
X61376264Y40236864D01*
G75*
G02*
X61482330Y40236864I53033J-53033D01*
G01*
X61588396Y40130798D01*
G75*
G02*
X61588396Y40024732I-53033J-53033D01*
G01*
X60651480Y39087816D01*
G75*
G02*
X60545414Y39087816I-53033J53033D01*
G01*
G37*
G36*
G01*
X60191860Y39441369D02*
X60085794Y39547435D01*
G75*
G02*
X60085794Y39653501I53033J53033D01*
G01*
X61022710Y40590417D01*
G75*
G02*
X61128776Y40590417I53033J-53033D01*
G01*
X61234842Y40484351D01*
G75*
G02*
X61234842Y40378285I-53033J-53033D01*
G01*
X60297926Y39441369D01*
G75*
G02*
X60191860Y39441369I-53033J53033D01*
G01*
G37*
G36*
G01*
X59838307Y39794922D02*
X59732241Y39900988D01*
G75*
G02*
X59732241Y40007054I53033J53033D01*
G01*
X60669157Y40943970D01*
G75*
G02*
X60775223Y40943970I53033J-53033D01*
G01*
X60881289Y40837904D01*
G75*
G02*
X60881289Y40731838I-53033J-53033D01*
G01*
X59944373Y39794922D01*
G75*
G02*
X59838307Y39794922I-53033J53033D01*
G01*
G37*
G36*
G01*
X58318027Y39794922D02*
X57381111Y40731838D01*
G75*
G02*
X57381111Y40837904I53033J53033D01*
G01*
X57487177Y40943970D01*
G75*
G02*
X57593243Y40943970I53033J-53033D01*
G01*
X58530159Y40007054D01*
G75*
G02*
X58530159Y39900988I-53033J-53033D01*
G01*
X58424093Y39794922D01*
G75*
G02*
X58318027Y39794922I-53033J53033D01*
G01*
G37*
G36*
G01*
X57964474Y39441369D02*
X57027558Y40378285D01*
G75*
G02*
X57027558Y40484351I53033J53033D01*
G01*
X57133624Y40590417D01*
G75*
G02*
X57239690Y40590417I53033J-53033D01*
G01*
X58176606Y39653501D01*
G75*
G02*
X58176606Y39547435I-53033J-53033D01*
G01*
X58070540Y39441369D01*
G75*
G02*
X57964474Y39441369I-53033J53033D01*
G01*
G37*
G36*
G01*
X57610920Y39087816D02*
X56674004Y40024732D01*
G75*
G02*
X56674004Y40130798I53033J53033D01*
G01*
X56780070Y40236864D01*
G75*
G02*
X56886136Y40236864I53033J-53033D01*
G01*
X57823052Y39299948D01*
G75*
G02*
X57823052Y39193882I-53033J-53033D01*
G01*
X57716986Y39087816D01*
G75*
G02*
X57610920Y39087816I-53033J53033D01*
G01*
G37*
G36*
G01*
X57257367Y38734262D02*
X56320451Y39671178D01*
G75*
G02*
X56320451Y39777244I53033J53033D01*
G01*
X56426517Y39883310D01*
G75*
G02*
X56532583Y39883310I53033J-53033D01*
G01*
X57469499Y38946394D01*
G75*
G02*
X57469499Y38840328I-53033J-53033D01*
G01*
X57363433Y38734262D01*
G75*
G02*
X57257367Y38734262I-53033J53033D01*
G01*
G37*
G36*
G01*
X56903813Y38380709D02*
X55966897Y39317625D01*
G75*
G02*
X55966897Y39423691I53033J53033D01*
G01*
X56072963Y39529757D01*
G75*
G02*
X56179029Y39529757I53033J-53033D01*
G01*
X57115945Y38592841D01*
G75*
G02*
X57115945Y38486775I-53033J-53033D01*
G01*
X57009879Y38380709D01*
G75*
G02*
X56903813Y38380709I-53033J53033D01*
G01*
G37*
G36*
G01*
X56550260Y38027155D02*
X55613344Y38964071D01*
G75*
G02*
X55613344Y39070137I53033J53033D01*
G01*
X55719410Y39176203D01*
G75*
G02*
X55825476Y39176203I53033J-53033D01*
G01*
X56762392Y38239287D01*
G75*
G02*
X56762392Y38133221I-53033J-53033D01*
G01*
X56656326Y38027155D01*
G75*
G02*
X56550260Y38027155I-53033J53033D01*
G01*
G37*
G36*
G01*
X56196707Y37673602D02*
X55259791Y38610518D01*
G75*
G02*
X55259791Y38716584I53033J53033D01*
G01*
X55365857Y38822650D01*
G75*
G02*
X55471923Y38822650I53033J-53033D01*
G01*
X56408839Y37885734D01*
G75*
G02*
X56408839Y37779668I-53033J-53033D01*
G01*
X56302773Y37673602D01*
G75*
G02*
X56196707Y37673602I-53033J53033D01*
G01*
G37*
G36*
G01*
X55843153Y37320049D02*
X54906237Y38256965D01*
G75*
G02*
X54906237Y38363031I53033J53033D01*
G01*
X55012303Y38469097D01*
G75*
G02*
X55118369Y38469097I53033J-53033D01*
G01*
X56055285Y37532181D01*
G75*
G02*
X56055285Y37426115I-53033J-53033D01*
G01*
X55949219Y37320049D01*
G75*
G02*
X55843153Y37320049I-53033J53033D01*
G01*
G37*
G36*
G01*
X55489600Y36966495D02*
X54552684Y37903411D01*
G75*
G02*
X54552684Y38009477I53033J53033D01*
G01*
X54658750Y38115543D01*
G75*
G02*
X54764816Y38115543I53033J-53033D01*
G01*
X55701732Y37178627D01*
G75*
G02*
X55701732Y37072561I-53033J-53033D01*
G01*
X55595666Y36966495D01*
G75*
G02*
X55489600Y36966495I-53033J53033D01*
G01*
G37*
G36*
G01*
X55136046Y36612942D02*
X54199130Y37549858D01*
G75*
G02*
X54199130Y37655924I53033J53033D01*
G01*
X54305196Y37761990D01*
G75*
G02*
X54411262Y37761990I53033J-53033D01*
G01*
X55348178Y36825074D01*
G75*
G02*
X55348178Y36719008I-53033J-53033D01*
G01*
X55242112Y36612942D01*
G75*
G02*
X55136046Y36612942I-53033J53033D01*
G01*
G37*
G36*
G01*
X54782493Y36259388D02*
X53845577Y37196304D01*
G75*
G02*
X53845577Y37302370I53033J53033D01*
G01*
X53951643Y37408436D01*
G75*
G02*
X54057709Y37408436I53033J-53033D01*
G01*
X54994625Y36471520D01*
G75*
G02*
X54994625Y36365454I-53033J-53033D01*
G01*
X54888559Y36259388D01*
G75*
G02*
X54782493Y36259388I-53033J53033D01*
G01*
G37*
G36*
G01*
X54428940Y35905835D02*
X53492024Y36842751D01*
G75*
G02*
X53492024Y36948817I53033J53033D01*
G01*
X53598090Y37054883D01*
G75*
G02*
X53704156Y37054883I53033J-53033D01*
G01*
X54641072Y36117967D01*
G75*
G02*
X54641072Y36011901I-53033J-53033D01*
G01*
X54535006Y35905835D01*
G75*
G02*
X54428940Y35905835I-53033J53033D01*
G01*
G37*
G36*
G01*
X54075386Y35552282D02*
X53138470Y36489198D01*
G75*
G02*
X53138470Y36595264I53033J53033D01*
G01*
X53244536Y36701330D01*
G75*
G02*
X53350602Y36701330I53033J-53033D01*
G01*
X54287518Y35764414D01*
G75*
G02*
X54287518Y35658348I-53033J-53033D01*
G01*
X54181452Y35552282D01*
G75*
G02*
X54075386Y35552282I-53033J53033D01*
G01*
G37*
G36*
G01*
X53721833Y35198728D02*
X52784917Y36135644D01*
G75*
G02*
X52784917Y36241710I53033J53033D01*
G01*
X52890983Y36347776D01*
G75*
G02*
X52997049Y36347776I53033J-53033D01*
G01*
X53933965Y35410860D01*
G75*
G02*
X53933965Y35304794I-53033J-53033D01*
G01*
X53827899Y35198728D01*
G75*
G02*
X53721833Y35198728I-53033J53033D01*
G01*
G37*
G36*
G01*
X53368280Y34845175D02*
X52431364Y35782091D01*
G75*
G02*
X52431364Y35888157I53033J53033D01*
G01*
X52537430Y35994223D01*
G75*
G02*
X52643496Y35994223I53033J-53033D01*
G01*
X53580412Y35057307D01*
G75*
G02*
X53580412Y34951241I-53033J-53033D01*
G01*
X53474346Y34845175D01*
G75*
G02*
X53368280Y34845175I-53033J53033D01*
G01*
G37*
G36*
G01*
X53014726Y34491622D02*
X52077810Y35428538D01*
G75*
G02*
X52077810Y35534604I53033J53033D01*
G01*
X52183876Y35640670D01*
G75*
G02*
X52289942Y35640670I53033J-53033D01*
G01*
X53226858Y34703754D01*
G75*
G02*
X53226858Y34597688I-53033J-53033D01*
G01*
X53120792Y34491622D01*
G75*
G02*
X53014726Y34491622I-53033J53033D01*
G01*
G37*
G36*
G01*
X52661173Y34138068D02*
X51724257Y35074984D01*
G75*
G02*
X51724257Y35181050I53033J53033D01*
G01*
X51830323Y35287116D01*
G75*
G02*
X51936389Y35287116I53033J-53033D01*
G01*
X52873305Y34350200D01*
G75*
G02*
X52873305Y34244134I-53033J-53033D01*
G01*
X52767239Y34138068D01*
G75*
G02*
X52661173Y34138068I-53033J53033D01*
G01*
G37*
G36*
G01*
X52307619Y33784515D02*
X51370703Y34721431D01*
G75*
G02*
X51370703Y34827497I53033J53033D01*
G01*
X51476769Y34933563D01*
G75*
G02*
X51582835Y34933563I53033J-53033D01*
G01*
X52519751Y33996647D01*
G75*
G02*
X52519751Y33890581I-53033J-53033D01*
G01*
X52413685Y33784515D01*
G75*
G02*
X52307619Y33784515I-53033J53033D01*
G01*
G37*
G36*
G01*
X51954066Y33430961D02*
X51017150Y34367877D01*
G75*
G02*
X51017150Y34473943I53033J53033D01*
G01*
X51123216Y34580009D01*
G75*
G02*
X51229282Y34580009I53033J-53033D01*
G01*
X52166198Y33643093D01*
G75*
G02*
X52166198Y33537027I-53033J-53033D01*
G01*
X52060132Y33430961D01*
G75*
G02*
X51954066Y33430961I-53033J53033D01*
G01*
G37*
G36*
G01*
X51600513Y33077408D02*
X50663597Y34014324D01*
G75*
G02*
X50663597Y34120390I53033J53033D01*
G01*
X50769663Y34226456D01*
G75*
G02*
X50875729Y34226456I53033J-53033D01*
G01*
X51812645Y33289540D01*
G75*
G02*
X51812645Y33183474I-53033J-53033D01*
G01*
X51706579Y33077408D01*
G75*
G02*
X51600513Y33077408I-53033J53033D01*
G01*
G37*
G36*
G01*
X51246959Y32723855D02*
X50310043Y33660771D01*
G75*
G02*
X50310043Y33766837I53033J53033D01*
G01*
X50416109Y33872903D01*
G75*
G02*
X50522175Y33872903I53033J-53033D01*
G01*
X51459091Y32935987D01*
G75*
G02*
X51459091Y32829921I-53033J-53033D01*
G01*
X51353025Y32723855D01*
G75*
G02*
X51246959Y32723855I-53033J53033D01*
G01*
G37*
G36*
G01*
X50893406Y32370301D02*
X49956490Y33307217D01*
G75*
G02*
X49956490Y33413283I53033J53033D01*
G01*
X50062556Y33519349D01*
G75*
G02*
X50168622Y33519349I53033J-53033D01*
G01*
X51105538Y32582433D01*
G75*
G02*
X51105538Y32476367I-53033J-53033D01*
G01*
X50999472Y32370301D01*
G75*
G02*
X50893406Y32370301I-53033J53033D01*
G01*
G37*
G36*
G01*
X50539852Y32016748D02*
X49602936Y32953664D01*
G75*
G02*
X49602936Y33059730I53033J53033D01*
G01*
X49709002Y33165796D01*
G75*
G02*
X49815068Y33165796I53033J-53033D01*
G01*
X50751984Y32228880D01*
G75*
G02*
X50751984Y32122814I-53033J-53033D01*
G01*
X50645918Y32016748D01*
G75*
G02*
X50539852Y32016748I-53033J53033D01*
G01*
G37*
G36*
G01*
X50186299Y31663194D02*
X49249383Y32600110D01*
G75*
G02*
X49249383Y32706176I53033J53033D01*
G01*
X49355449Y32812242D01*
G75*
G02*
X49461515Y32812242I53033J-53033D01*
G01*
X50398431Y31875326D01*
G75*
G02*
X50398431Y31769260I-53033J-53033D01*
G01*
X50292365Y31663194D01*
G75*
G02*
X50186299Y31663194I-53033J53033D01*
G01*
G37*
G36*
G01*
X49832746Y31309641D02*
X48895830Y32246557D01*
G75*
G02*
X48895830Y32352623I53033J53033D01*
G01*
X49001896Y32458689D01*
G75*
G02*
X49107962Y32458689I53033J-53033D01*
G01*
X50044878Y31521773D01*
G75*
G02*
X50044878Y31415707I-53033J-53033D01*
G01*
X49938812Y31309641D01*
G75*
G02*
X49832746Y31309641I-53033J53033D01*
G01*
G37*
G36*
G01*
X32799000Y3024400D02*
X32799000Y2524400D01*
G75*
G02*
X32574000Y2299400I-225000J0D01*
G01*
X32124000Y2299400D01*
G75*
G02*
X31899000Y2524400I0J225000D01*
G01*
X31899000Y3024400D01*
G75*
G02*
X32124000Y3249400I225000J0D01*
G01*
X32574000Y3249400D01*
G75*
G02*
X32799000Y3024400I0J-225000D01*
G01*
G37*
G36*
G01*
X31249000Y3024400D02*
X31249000Y2524400D01*
G75*
G02*
X31024000Y2299400I-225000J0D01*
G01*
X30574000Y2299400D01*
G75*
G02*
X30349000Y2524400I0J225000D01*
G01*
X30349000Y3024400D01*
G75*
G02*
X30574000Y3249400I225000J0D01*
G01*
X31024000Y3249400D01*
G75*
G02*
X31249000Y3024400I0J-225000D01*
G01*
G37*
G36*
G01*
X49464108Y24669100D02*
X49464108Y24169100D01*
G75*
G02*
X49239108Y23944100I-225000J0D01*
G01*
X48789108Y23944100D01*
G75*
G02*
X48564108Y24169100I0J225000D01*
G01*
X48564108Y24669100D01*
G75*
G02*
X48789108Y24894100I225000J0D01*
G01*
X49239108Y24894100D01*
G75*
G02*
X49464108Y24669100I0J-225000D01*
G01*
G37*
G36*
G01*
X47914108Y24669100D02*
X47914108Y24169100D01*
G75*
G02*
X47689108Y23944100I-225000J0D01*
G01*
X47239108Y23944100D01*
G75*
G02*
X47014108Y24169100I0J225000D01*
G01*
X47014108Y24669100D01*
G75*
G02*
X47239108Y24894100I225000J0D01*
G01*
X47689108Y24894100D01*
G75*
G02*
X47914108Y24669100I0J-225000D01*
G01*
G37*
G36*
G01*
X5422200Y41695500D02*
X5422200Y42245500D01*
G75*
G02*
X5622200Y42445500I200000J0D01*
G01*
X6022200Y42445500D01*
G75*
G02*
X6222200Y42245500I0J-200000D01*
G01*
X6222200Y41695500D01*
G75*
G02*
X6022200Y41495500I-200000J0D01*
G01*
X5622200Y41495500D01*
G75*
G02*
X5422200Y41695500I0J200000D01*
G01*
G37*
G36*
G01*
X7072200Y41695500D02*
X7072200Y42245500D01*
G75*
G02*
X7272200Y42445500I200000J0D01*
G01*
X7672200Y42445500D01*
G75*
G02*
X7872200Y42245500I0J-200000D01*
G01*
X7872200Y41695500D01*
G75*
G02*
X7672200Y41495500I-200000J0D01*
G01*
X7272200Y41495500D01*
G75*
G02*
X7072200Y41695500I0J200000D01*
G01*
G37*
G36*
G01*
X9911800Y50770200D02*
X9911800Y50220200D01*
G75*
G02*
X9711800Y50020200I-200000J0D01*
G01*
X9311800Y50020200D01*
G75*
G02*
X9111800Y50220200I0J200000D01*
G01*
X9111800Y50770200D01*
G75*
G02*
X9311800Y50970200I200000J0D01*
G01*
X9711800Y50970200D01*
G75*
G02*
X9911800Y50770200I0J-200000D01*
G01*
G37*
G36*
G01*
X8261800Y50770200D02*
X8261800Y50220200D01*
G75*
G02*
X8061800Y50020200I-200000J0D01*
G01*
X7661800Y50020200D01*
G75*
G02*
X7461800Y50220200I0J200000D01*
G01*
X7461800Y50770200D01*
G75*
G02*
X7661800Y50970200I200000J0D01*
G01*
X8061800Y50970200D01*
G75*
G02*
X8261800Y50770200I0J-200000D01*
G01*
G37*
D17*
X48731200Y3521000D03*
X49531200Y3521000D03*
X50331200Y3521000D03*
X51131200Y3521000D03*
X51931200Y3521000D03*
X52731200Y3521000D03*
X53531200Y3521000D03*
X54331200Y3521000D03*
X55131200Y3521000D03*
X55931200Y3521000D03*
X56731200Y3521000D03*
X57531200Y3521000D03*
X58331200Y3521000D03*
X59131200Y3521000D03*
X59931200Y3521000D03*
X60731200Y3521000D03*
X61531200Y3521000D03*
X62331200Y3521000D03*
X63131200Y3521000D03*
X63931200Y3521000D03*
X64731200Y3521000D03*
X65531200Y3521000D03*
X66331200Y3521000D03*
X67131200Y3521000D03*
X67931200Y3521000D03*
X68731200Y3521000D03*
X69531200Y3521000D03*
X69531200Y15021000D03*
X68731200Y15021000D03*
X67931200Y15021000D03*
X67131200Y15021000D03*
X66331200Y15021000D03*
X65531200Y15021000D03*
X64731200Y15021000D03*
X63931200Y15021000D03*
X63131200Y15021000D03*
X62331200Y15021000D03*
X61531200Y15021000D03*
X60731200Y15021000D03*
X59931200Y15021000D03*
X59131200Y15021000D03*
X58331200Y15021000D03*
X57531200Y15021000D03*
X56731200Y15021000D03*
X55931200Y15021000D03*
X55131200Y15021000D03*
X54331200Y15021000D03*
X53531200Y15021000D03*
X52731200Y15021000D03*
X51931200Y15021000D03*
X51131200Y15021000D03*
X50331200Y15021000D03*
X49531200Y15021000D03*
X48731200Y15021000D03*
G36*
G01*
X49945900Y1466400D02*
X49945900Y1966400D01*
G75*
G02*
X50170900Y2191400I225000J0D01*
G01*
X50620900Y2191400D01*
G75*
G02*
X50845900Y1966400I0J-225000D01*
G01*
X50845900Y1466400D01*
G75*
G02*
X50620900Y1241400I-225000J0D01*
G01*
X50170900Y1241400D01*
G75*
G02*
X49945900Y1466400I0J225000D01*
G01*
G37*
G36*
G01*
X51495900Y1466400D02*
X51495900Y1966400D01*
G75*
G02*
X51720900Y2191400I225000J0D01*
G01*
X52170900Y2191400D01*
G75*
G02*
X52395900Y1966400I0J-225000D01*
G01*
X52395900Y1466400D01*
G75*
G02*
X52170900Y1241400I-225000J0D01*
G01*
X51720900Y1241400D01*
G75*
G02*
X51495900Y1466400I0J225000D01*
G01*
G37*
G36*
G01*
X67626471Y34878417D02*
X67272917Y35231971D01*
G75*
G02*
X67272917Y35550169I159099J159099D01*
G01*
X67591115Y35868367D01*
G75*
G02*
X67909313Y35868367I159099J-159099D01*
G01*
X68262867Y35514813D01*
G75*
G02*
X68262867Y35196615I-159099J-159099D01*
G01*
X67944669Y34878417D01*
G75*
G02*
X67626471Y34878417I-159099J159099D01*
G01*
G37*
G36*
G01*
X68722487Y35974433D02*
X68368933Y36327987D01*
G75*
G02*
X68368933Y36646185I159099J159099D01*
G01*
X68687131Y36964383D01*
G75*
G02*
X69005329Y36964383I159099J-159099D01*
G01*
X69358883Y36610829D01*
G75*
G02*
X69358883Y36292631I-159099J-159099D01*
G01*
X69040685Y35974433D01*
G75*
G02*
X68722487Y35974433I-159099J159099D01*
G01*
G37*
G36*
G01*
X69418417Y31465829D02*
X69771971Y31819383D01*
G75*
G02*
X70090169Y31819383I159099J-159099D01*
G01*
X70408367Y31501185D01*
G75*
G02*
X70408367Y31182987I-159099J-159099D01*
G01*
X70054813Y30829433D01*
G75*
G02*
X69736615Y30829433I-159099J159099D01*
G01*
X69418417Y31147631D01*
G75*
G02*
X69418417Y31465829I159099J159099D01*
G01*
G37*
G36*
G01*
X70514433Y30369813D02*
X70867987Y30723367D01*
G75*
G02*
X71186185Y30723367I159099J-159099D01*
G01*
X71504383Y30405169D01*
G75*
G02*
X71504383Y30086971I-159099J-159099D01*
G01*
X71150829Y29733417D01*
G75*
G02*
X70832631Y29733417I-159099J159099D01*
G01*
X70514433Y30051615D01*
G75*
G02*
X70514433Y30369813I159099J159099D01*
G01*
G37*
G36*
G01*
X37118900Y38871800D02*
X37118900Y39371800D01*
G75*
G02*
X37343900Y39596800I225000J0D01*
G01*
X37793900Y39596800D01*
G75*
G02*
X38018900Y39371800I0J-225000D01*
G01*
X38018900Y38871800D01*
G75*
G02*
X37793900Y38646800I-225000J0D01*
G01*
X37343900Y38646800D01*
G75*
G02*
X37118900Y38871800I0J225000D01*
G01*
G37*
G36*
G01*
X38668900Y38871800D02*
X38668900Y39371800D01*
G75*
G02*
X38893900Y39596800I225000J0D01*
G01*
X39343900Y39596800D01*
G75*
G02*
X39568900Y39371800I0J-225000D01*
G01*
X39568900Y38871800D01*
G75*
G02*
X39343900Y38646800I-225000J0D01*
G01*
X38893900Y38646800D01*
G75*
G02*
X38668900Y38871800I0J225000D01*
G01*
G37*
G36*
G01*
X53183300Y17076400D02*
X53183300Y16576400D01*
G75*
G02*
X52958300Y16351400I-225000J0D01*
G01*
X52508300Y16351400D01*
G75*
G02*
X52283300Y16576400I0J225000D01*
G01*
X52283300Y17076400D01*
G75*
G02*
X52508300Y17301400I225000J0D01*
G01*
X52958300Y17301400D01*
G75*
G02*
X53183300Y17076400I0J-225000D01*
G01*
G37*
G36*
G01*
X51633300Y17076400D02*
X51633300Y16576400D01*
G75*
G02*
X51408300Y16351400I-225000J0D01*
G01*
X50958300Y16351400D01*
G75*
G02*
X50733300Y16576400I0J225000D01*
G01*
X50733300Y17076400D01*
G75*
G02*
X50958300Y17301400I225000J0D01*
G01*
X51408300Y17301400D01*
G75*
G02*
X51633300Y17076400I0J-225000D01*
G01*
G37*
D11*
X41977000Y15484500D03*
D12*
X41977000Y14684500D03*
X41977000Y13884500D03*
D11*
X41977000Y13084500D03*
X43777000Y13084500D03*
D12*
X43777000Y13884500D03*
X43777000Y14684500D03*
D11*
X43777000Y15484500D03*
G36*
G01*
X69972700Y1966400D02*
X69972700Y1466400D01*
G75*
G02*
X69747700Y1241400I-225000J0D01*
G01*
X69297700Y1241400D01*
G75*
G02*
X69072700Y1466400I0J225000D01*
G01*
X69072700Y1966400D01*
G75*
G02*
X69297700Y2191400I225000J0D01*
G01*
X69747700Y2191400D01*
G75*
G02*
X69972700Y1966400I0J-225000D01*
G01*
G37*
G36*
G01*
X68422700Y1966400D02*
X68422700Y1466400D01*
G75*
G02*
X68197700Y1241400I-225000J0D01*
G01*
X67747700Y1241400D01*
G75*
G02*
X67522700Y1466400I0J225000D01*
G01*
X67522700Y1966400D01*
G75*
G02*
X67747700Y2191400I225000J0D01*
G01*
X68197700Y2191400D01*
G75*
G02*
X68422700Y1966400I0J-225000D01*
G01*
G37*
D18*
X73640800Y17943400D03*
D19*
X72840800Y17943400D03*
X72040800Y17943400D03*
D18*
X71240800Y17943400D03*
X71240800Y16143400D03*
D19*
X72040800Y16143400D03*
X72840800Y16143400D03*
D18*
X73640800Y16143400D03*
D20*
X16334000Y44281200D03*
X16334000Y43781200D03*
X16334000Y43281200D03*
X16334000Y42781200D03*
X16334000Y42281200D03*
X16334000Y41781200D03*
X16334000Y41281200D03*
X16334000Y40781200D03*
X16334000Y40281200D03*
X16334000Y39781200D03*
X16334000Y39281200D03*
X16334000Y38781200D03*
X16334000Y38281200D03*
X16334000Y37781200D03*
X16334000Y37281200D03*
X16334000Y36781200D03*
X16334000Y36281200D03*
X16334000Y35781200D03*
X16334000Y35281200D03*
X16334000Y34781200D03*
X16334000Y34281200D03*
X16334000Y33781200D03*
X16334000Y33281200D03*
X16334000Y32781200D03*
X35834000Y32781200D03*
X35834000Y33281200D03*
X35834000Y33781200D03*
X35834000Y34281200D03*
X35834000Y34781200D03*
X35834000Y35281200D03*
X35834000Y35781200D03*
X35834000Y36281200D03*
X35834000Y36781200D03*
X35834000Y37281200D03*
X35834000Y37781200D03*
X35834000Y38281200D03*
X35834000Y38781200D03*
X35834000Y39281200D03*
X35834000Y39781200D03*
X35834000Y40281200D03*
X35834000Y40781200D03*
X35834000Y41281200D03*
X35834000Y41781200D03*
X35834000Y42281200D03*
X35834000Y42781200D03*
X35834000Y43281200D03*
X35834000Y43781200D03*
X35834000Y44281200D03*
G36*
G01*
X33284000Y21674200D02*
X33284000Y21524200D01*
G75*
G02*
X33209000Y21449200I-75000J0D01*
G01*
X31809000Y21449200D01*
G75*
G02*
X31734000Y21524200I0J75000D01*
G01*
X31734000Y21674200D01*
G75*
G02*
X31809000Y21749200I75000J0D01*
G01*
X33209000Y21749200D01*
G75*
G02*
X33284000Y21674200I0J-75000D01*
G01*
G37*
G36*
G01*
X33284000Y22174200D02*
X33284000Y22024200D01*
G75*
G02*
X33209000Y21949200I-75000J0D01*
G01*
X31809000Y21949200D01*
G75*
G02*
X31734000Y22024200I0J75000D01*
G01*
X31734000Y22174200D01*
G75*
G02*
X31809000Y22249200I75000J0D01*
G01*
X33209000Y22249200D01*
G75*
G02*
X33284000Y22174200I0J-75000D01*
G01*
G37*
G36*
G01*
X33284000Y22674200D02*
X33284000Y22524200D01*
G75*
G02*
X33209000Y22449200I-75000J0D01*
G01*
X31809000Y22449200D01*
G75*
G02*
X31734000Y22524200I0J75000D01*
G01*
X31734000Y22674200D01*
G75*
G02*
X31809000Y22749200I75000J0D01*
G01*
X33209000Y22749200D01*
G75*
G02*
X33284000Y22674200I0J-75000D01*
G01*
G37*
G36*
G01*
X33284000Y23174200D02*
X33284000Y23024200D01*
G75*
G02*
X33209000Y22949200I-75000J0D01*
G01*
X31809000Y22949200D01*
G75*
G02*
X31734000Y23024200I0J75000D01*
G01*
X31734000Y23174200D01*
G75*
G02*
X31809000Y23249200I75000J0D01*
G01*
X33209000Y23249200D01*
G75*
G02*
X33284000Y23174200I0J-75000D01*
G01*
G37*
G36*
G01*
X33284000Y23674200D02*
X33284000Y23524200D01*
G75*
G02*
X33209000Y23449200I-75000J0D01*
G01*
X31809000Y23449200D01*
G75*
G02*
X31734000Y23524200I0J75000D01*
G01*
X31734000Y23674200D01*
G75*
G02*
X31809000Y23749200I75000J0D01*
G01*
X33209000Y23749200D01*
G75*
G02*
X33284000Y23674200I0J-75000D01*
G01*
G37*
G36*
G01*
X33284000Y24174200D02*
X33284000Y24024200D01*
G75*
G02*
X33209000Y23949200I-75000J0D01*
G01*
X31809000Y23949200D01*
G75*
G02*
X31734000Y24024200I0J75000D01*
G01*
X31734000Y24174200D01*
G75*
G02*
X31809000Y24249200I75000J0D01*
G01*
X33209000Y24249200D01*
G75*
G02*
X33284000Y24174200I0J-75000D01*
G01*
G37*
G36*
G01*
X33284000Y24674200D02*
X33284000Y24524200D01*
G75*
G02*
X33209000Y24449200I-75000J0D01*
G01*
X31809000Y24449200D01*
G75*
G02*
X31734000Y24524200I0J75000D01*
G01*
X31734000Y24674200D01*
G75*
G02*
X31809000Y24749200I75000J0D01*
G01*
X33209000Y24749200D01*
G75*
G02*
X33284000Y24674200I0J-75000D01*
G01*
G37*
G36*
G01*
X33284000Y25174200D02*
X33284000Y25024200D01*
G75*
G02*
X33209000Y24949200I-75000J0D01*
G01*
X31809000Y24949200D01*
G75*
G02*
X31734000Y25024200I0J75000D01*
G01*
X31734000Y25174200D01*
G75*
G02*
X31809000Y25249200I75000J0D01*
G01*
X33209000Y25249200D01*
G75*
G02*
X33284000Y25174200I0J-75000D01*
G01*
G37*
G36*
G01*
X33284000Y25674200D02*
X33284000Y25524200D01*
G75*
G02*
X33209000Y25449200I-75000J0D01*
G01*
X31809000Y25449200D01*
G75*
G02*
X31734000Y25524200I0J75000D01*
G01*
X31734000Y25674200D01*
G75*
G02*
X31809000Y25749200I75000J0D01*
G01*
X33209000Y25749200D01*
G75*
G02*
X33284000Y25674200I0J-75000D01*
G01*
G37*
G36*
G01*
X33284000Y26174200D02*
X33284000Y26024200D01*
G75*
G02*
X33209000Y25949200I-75000J0D01*
G01*
X31809000Y25949200D01*
G75*
G02*
X31734000Y26024200I0J75000D01*
G01*
X31734000Y26174200D01*
G75*
G02*
X31809000Y26249200I75000J0D01*
G01*
X33209000Y26249200D01*
G75*
G02*
X33284000Y26174200I0J-75000D01*
G01*
G37*
G36*
G01*
X33284000Y26674200D02*
X33284000Y26524200D01*
G75*
G02*
X33209000Y26449200I-75000J0D01*
G01*
X31809000Y26449200D01*
G75*
G02*
X31734000Y26524200I0J75000D01*
G01*
X31734000Y26674200D01*
G75*
G02*
X31809000Y26749200I75000J0D01*
G01*
X33209000Y26749200D01*
G75*
G02*
X33284000Y26674200I0J-75000D01*
G01*
G37*
G36*
G01*
X33284000Y27174200D02*
X33284000Y27024200D01*
G75*
G02*
X33209000Y26949200I-75000J0D01*
G01*
X31809000Y26949200D01*
G75*
G02*
X31734000Y27024200I0J75000D01*
G01*
X31734000Y27174200D01*
G75*
G02*
X31809000Y27249200I75000J0D01*
G01*
X33209000Y27249200D01*
G75*
G02*
X33284000Y27174200I0J-75000D01*
G01*
G37*
G36*
G01*
X33284000Y27674200D02*
X33284000Y27524200D01*
G75*
G02*
X33209000Y27449200I-75000J0D01*
G01*
X31809000Y27449200D01*
G75*
G02*
X31734000Y27524200I0J75000D01*
G01*
X31734000Y27674200D01*
G75*
G02*
X31809000Y27749200I75000J0D01*
G01*
X33209000Y27749200D01*
G75*
G02*
X33284000Y27674200I0J-75000D01*
G01*
G37*
G36*
G01*
X33284000Y28174200D02*
X33284000Y28024200D01*
G75*
G02*
X33209000Y27949200I-75000J0D01*
G01*
X31809000Y27949200D01*
G75*
G02*
X31734000Y28024200I0J75000D01*
G01*
X31734000Y28174200D01*
G75*
G02*
X31809000Y28249200I75000J0D01*
G01*
X33209000Y28249200D01*
G75*
G02*
X33284000Y28174200I0J-75000D01*
G01*
G37*
G36*
G01*
X33284000Y28674200D02*
X33284000Y28524200D01*
G75*
G02*
X33209000Y28449200I-75000J0D01*
G01*
X31809000Y28449200D01*
G75*
G02*
X31734000Y28524200I0J75000D01*
G01*
X31734000Y28674200D01*
G75*
G02*
X31809000Y28749200I75000J0D01*
G01*
X33209000Y28749200D01*
G75*
G02*
X33284000Y28674200I0J-75000D01*
G01*
G37*
G36*
G01*
X33284000Y29174200D02*
X33284000Y29024200D01*
G75*
G02*
X33209000Y28949200I-75000J0D01*
G01*
X31809000Y28949200D01*
G75*
G02*
X31734000Y29024200I0J75000D01*
G01*
X31734000Y29174200D01*
G75*
G02*
X31809000Y29249200I75000J0D01*
G01*
X33209000Y29249200D01*
G75*
G02*
X33284000Y29174200I0J-75000D01*
G01*
G37*
G36*
G01*
X20434000Y29174200D02*
X20434000Y29024200D01*
G75*
G02*
X20359000Y28949200I-75000J0D01*
G01*
X18959000Y28949200D01*
G75*
G02*
X18884000Y29024200I0J75000D01*
G01*
X18884000Y29174200D01*
G75*
G02*
X18959000Y29249200I75000J0D01*
G01*
X20359000Y29249200D01*
G75*
G02*
X20434000Y29174200I0J-75000D01*
G01*
G37*
G36*
G01*
X20434000Y28674200D02*
X20434000Y28524200D01*
G75*
G02*
X20359000Y28449200I-75000J0D01*
G01*
X18959000Y28449200D01*
G75*
G02*
X18884000Y28524200I0J75000D01*
G01*
X18884000Y28674200D01*
G75*
G02*
X18959000Y28749200I75000J0D01*
G01*
X20359000Y28749200D01*
G75*
G02*
X20434000Y28674200I0J-75000D01*
G01*
G37*
G36*
G01*
X20434000Y28174200D02*
X20434000Y28024200D01*
G75*
G02*
X20359000Y27949200I-75000J0D01*
G01*
X18959000Y27949200D01*
G75*
G02*
X18884000Y28024200I0J75000D01*
G01*
X18884000Y28174200D01*
G75*
G02*
X18959000Y28249200I75000J0D01*
G01*
X20359000Y28249200D01*
G75*
G02*
X20434000Y28174200I0J-75000D01*
G01*
G37*
G36*
G01*
X20434000Y27674200D02*
X20434000Y27524200D01*
G75*
G02*
X20359000Y27449200I-75000J0D01*
G01*
X18959000Y27449200D01*
G75*
G02*
X18884000Y27524200I0J75000D01*
G01*
X18884000Y27674200D01*
G75*
G02*
X18959000Y27749200I75000J0D01*
G01*
X20359000Y27749200D01*
G75*
G02*
X20434000Y27674200I0J-75000D01*
G01*
G37*
G36*
G01*
X20434000Y27174200D02*
X20434000Y27024200D01*
G75*
G02*
X20359000Y26949200I-75000J0D01*
G01*
X18959000Y26949200D01*
G75*
G02*
X18884000Y27024200I0J75000D01*
G01*
X18884000Y27174200D01*
G75*
G02*
X18959000Y27249200I75000J0D01*
G01*
X20359000Y27249200D01*
G75*
G02*
X20434000Y27174200I0J-75000D01*
G01*
G37*
G36*
G01*
X20434000Y26674200D02*
X20434000Y26524200D01*
G75*
G02*
X20359000Y26449200I-75000J0D01*
G01*
X18959000Y26449200D01*
G75*
G02*
X18884000Y26524200I0J75000D01*
G01*
X18884000Y26674200D01*
G75*
G02*
X18959000Y26749200I75000J0D01*
G01*
X20359000Y26749200D01*
G75*
G02*
X20434000Y26674200I0J-75000D01*
G01*
G37*
G36*
G01*
X20434000Y26174200D02*
X20434000Y26024200D01*
G75*
G02*
X20359000Y25949200I-75000J0D01*
G01*
X18959000Y25949200D01*
G75*
G02*
X18884000Y26024200I0J75000D01*
G01*
X18884000Y26174200D01*
G75*
G02*
X18959000Y26249200I75000J0D01*
G01*
X20359000Y26249200D01*
G75*
G02*
X20434000Y26174200I0J-75000D01*
G01*
G37*
G36*
G01*
X20434000Y25674200D02*
X20434000Y25524200D01*
G75*
G02*
X20359000Y25449200I-75000J0D01*
G01*
X18959000Y25449200D01*
G75*
G02*
X18884000Y25524200I0J75000D01*
G01*
X18884000Y25674200D01*
G75*
G02*
X18959000Y25749200I75000J0D01*
G01*
X20359000Y25749200D01*
G75*
G02*
X20434000Y25674200I0J-75000D01*
G01*
G37*
G36*
G01*
X20434000Y25174200D02*
X20434000Y25024200D01*
G75*
G02*
X20359000Y24949200I-75000J0D01*
G01*
X18959000Y24949200D01*
G75*
G02*
X18884000Y25024200I0J75000D01*
G01*
X18884000Y25174200D01*
G75*
G02*
X18959000Y25249200I75000J0D01*
G01*
X20359000Y25249200D01*
G75*
G02*
X20434000Y25174200I0J-75000D01*
G01*
G37*
G36*
G01*
X20434000Y24674200D02*
X20434000Y24524200D01*
G75*
G02*
X20359000Y24449200I-75000J0D01*
G01*
X18959000Y24449200D01*
G75*
G02*
X18884000Y24524200I0J75000D01*
G01*
X18884000Y24674200D01*
G75*
G02*
X18959000Y24749200I75000J0D01*
G01*
X20359000Y24749200D01*
G75*
G02*
X20434000Y24674200I0J-75000D01*
G01*
G37*
G36*
G01*
X20434000Y24174200D02*
X20434000Y24024200D01*
G75*
G02*
X20359000Y23949200I-75000J0D01*
G01*
X18959000Y23949200D01*
G75*
G02*
X18884000Y24024200I0J75000D01*
G01*
X18884000Y24174200D01*
G75*
G02*
X18959000Y24249200I75000J0D01*
G01*
X20359000Y24249200D01*
G75*
G02*
X20434000Y24174200I0J-75000D01*
G01*
G37*
G36*
G01*
X20434000Y23674200D02*
X20434000Y23524200D01*
G75*
G02*
X20359000Y23449200I-75000J0D01*
G01*
X18959000Y23449200D01*
G75*
G02*
X18884000Y23524200I0J75000D01*
G01*
X18884000Y23674200D01*
G75*
G02*
X18959000Y23749200I75000J0D01*
G01*
X20359000Y23749200D01*
G75*
G02*
X20434000Y23674200I0J-75000D01*
G01*
G37*
G36*
G01*
X20434000Y23174200D02*
X20434000Y23024200D01*
G75*
G02*
X20359000Y22949200I-75000J0D01*
G01*
X18959000Y22949200D01*
G75*
G02*
X18884000Y23024200I0J75000D01*
G01*
X18884000Y23174200D01*
G75*
G02*
X18959000Y23249200I75000J0D01*
G01*
X20359000Y23249200D01*
G75*
G02*
X20434000Y23174200I0J-75000D01*
G01*
G37*
G36*
G01*
X20434000Y22674200D02*
X20434000Y22524200D01*
G75*
G02*
X20359000Y22449200I-75000J0D01*
G01*
X18959000Y22449200D01*
G75*
G02*
X18884000Y22524200I0J75000D01*
G01*
X18884000Y22674200D01*
G75*
G02*
X18959000Y22749200I75000J0D01*
G01*
X20359000Y22749200D01*
G75*
G02*
X20434000Y22674200I0J-75000D01*
G01*
G37*
G36*
G01*
X20434000Y22174200D02*
X20434000Y22024200D01*
G75*
G02*
X20359000Y21949200I-75000J0D01*
G01*
X18959000Y21949200D01*
G75*
G02*
X18884000Y22024200I0J75000D01*
G01*
X18884000Y22174200D01*
G75*
G02*
X18959000Y22249200I75000J0D01*
G01*
X20359000Y22249200D01*
G75*
G02*
X20434000Y22174200I0J-75000D01*
G01*
G37*
G36*
G01*
X20434000Y21674200D02*
X20434000Y21524200D01*
G75*
G02*
X20359000Y21449200I-75000J0D01*
G01*
X18959000Y21449200D01*
G75*
G02*
X18884000Y21524200I0J75000D01*
G01*
X18884000Y21674200D01*
G75*
G02*
X18959000Y21749200I75000J0D01*
G01*
X20359000Y21749200D01*
G75*
G02*
X20434000Y21674200I0J-75000D01*
G01*
G37*
G36*
G01*
X7302500Y10267200D02*
X7302500Y10467200D01*
G75*
G02*
X7402500Y10567200I100000J0D01*
G01*
X8677500Y10567200D01*
G75*
G02*
X8777500Y10467200I0J-100000D01*
G01*
X8777500Y10267200D01*
G75*
G02*
X8677500Y10167200I-100000J0D01*
G01*
X7402500Y10167200D01*
G75*
G02*
X7302500Y10267200I0J100000D01*
G01*
G37*
G36*
G01*
X7302500Y9617200D02*
X7302500Y9817200D01*
G75*
G02*
X7402500Y9917200I100000J0D01*
G01*
X8677500Y9917200D01*
G75*
G02*
X8777500Y9817200I0J-100000D01*
G01*
X8777500Y9617200D01*
G75*
G02*
X8677500Y9517200I-100000J0D01*
G01*
X7402500Y9517200D01*
G75*
G02*
X7302500Y9617200I0J100000D01*
G01*
G37*
G36*
G01*
X7302500Y8967200D02*
X7302500Y9167200D01*
G75*
G02*
X7402500Y9267200I100000J0D01*
G01*
X8677500Y9267200D01*
G75*
G02*
X8777500Y9167200I0J-100000D01*
G01*
X8777500Y8967200D01*
G75*
G02*
X8677500Y8867200I-100000J0D01*
G01*
X7402500Y8867200D01*
G75*
G02*
X7302500Y8967200I0J100000D01*
G01*
G37*
G36*
G01*
X7302500Y8317200D02*
X7302500Y8517200D01*
G75*
G02*
X7402500Y8617200I100000J0D01*
G01*
X8677500Y8617200D01*
G75*
G02*
X8777500Y8517200I0J-100000D01*
G01*
X8777500Y8317200D01*
G75*
G02*
X8677500Y8217200I-100000J0D01*
G01*
X7402500Y8217200D01*
G75*
G02*
X7302500Y8317200I0J100000D01*
G01*
G37*
G36*
G01*
X7302500Y7667200D02*
X7302500Y7867200D01*
G75*
G02*
X7402500Y7967200I100000J0D01*
G01*
X8677500Y7967200D01*
G75*
G02*
X8777500Y7867200I0J-100000D01*
G01*
X8777500Y7667200D01*
G75*
G02*
X8677500Y7567200I-100000J0D01*
G01*
X7402500Y7567200D01*
G75*
G02*
X7302500Y7667200I0J100000D01*
G01*
G37*
G36*
G01*
X7302500Y7017200D02*
X7302500Y7217200D01*
G75*
G02*
X7402500Y7317200I100000J0D01*
G01*
X8677500Y7317200D01*
G75*
G02*
X8777500Y7217200I0J-100000D01*
G01*
X8777500Y7017200D01*
G75*
G02*
X8677500Y6917200I-100000J0D01*
G01*
X7402500Y6917200D01*
G75*
G02*
X7302500Y7017200I0J100000D01*
G01*
G37*
G36*
G01*
X7302500Y6367200D02*
X7302500Y6567200D01*
G75*
G02*
X7402500Y6667200I100000J0D01*
G01*
X8677500Y6667200D01*
G75*
G02*
X8777500Y6567200I0J-100000D01*
G01*
X8777500Y6367200D01*
G75*
G02*
X8677500Y6267200I-100000J0D01*
G01*
X7402500Y6267200D01*
G75*
G02*
X7302500Y6367200I0J100000D01*
G01*
G37*
G36*
G01*
X7302500Y5717200D02*
X7302500Y5917200D01*
G75*
G02*
X7402500Y6017200I100000J0D01*
G01*
X8677500Y6017200D01*
G75*
G02*
X8777500Y5917200I0J-100000D01*
G01*
X8777500Y5717200D01*
G75*
G02*
X8677500Y5617200I-100000J0D01*
G01*
X7402500Y5617200D01*
G75*
G02*
X7302500Y5717200I0J100000D01*
G01*
G37*
G36*
G01*
X7302500Y5067200D02*
X7302500Y5267200D01*
G75*
G02*
X7402500Y5367200I100000J0D01*
G01*
X8677500Y5367200D01*
G75*
G02*
X8777500Y5267200I0J-100000D01*
G01*
X8777500Y5067200D01*
G75*
G02*
X8677500Y4967200I-100000J0D01*
G01*
X7402500Y4967200D01*
G75*
G02*
X7302500Y5067200I0J100000D01*
G01*
G37*
G36*
G01*
X7302500Y4417200D02*
X7302500Y4617200D01*
G75*
G02*
X7402500Y4717200I100000J0D01*
G01*
X8677500Y4717200D01*
G75*
G02*
X8777500Y4617200I0J-100000D01*
G01*
X8777500Y4417200D01*
G75*
G02*
X8677500Y4317200I-100000J0D01*
G01*
X7402500Y4317200D01*
G75*
G02*
X7302500Y4417200I0J100000D01*
G01*
G37*
G36*
G01*
X13027500Y4417200D02*
X13027500Y4617200D01*
G75*
G02*
X13127500Y4717200I100000J0D01*
G01*
X14402500Y4717200D01*
G75*
G02*
X14502500Y4617200I0J-100000D01*
G01*
X14502500Y4417200D01*
G75*
G02*
X14402500Y4317200I-100000J0D01*
G01*
X13127500Y4317200D01*
G75*
G02*
X13027500Y4417200I0J100000D01*
G01*
G37*
G36*
G01*
X13027500Y5067200D02*
X13027500Y5267200D01*
G75*
G02*
X13127500Y5367200I100000J0D01*
G01*
X14402500Y5367200D01*
G75*
G02*
X14502500Y5267200I0J-100000D01*
G01*
X14502500Y5067200D01*
G75*
G02*
X14402500Y4967200I-100000J0D01*
G01*
X13127500Y4967200D01*
G75*
G02*
X13027500Y5067200I0J100000D01*
G01*
G37*
G36*
G01*
X13027500Y5717200D02*
X13027500Y5917200D01*
G75*
G02*
X13127500Y6017200I100000J0D01*
G01*
X14402500Y6017200D01*
G75*
G02*
X14502500Y5917200I0J-100000D01*
G01*
X14502500Y5717200D01*
G75*
G02*
X14402500Y5617200I-100000J0D01*
G01*
X13127500Y5617200D01*
G75*
G02*
X13027500Y5717200I0J100000D01*
G01*
G37*
G36*
G01*
X13027500Y6367200D02*
X13027500Y6567200D01*
G75*
G02*
X13127500Y6667200I100000J0D01*
G01*
X14402500Y6667200D01*
G75*
G02*
X14502500Y6567200I0J-100000D01*
G01*
X14502500Y6367200D01*
G75*
G02*
X14402500Y6267200I-100000J0D01*
G01*
X13127500Y6267200D01*
G75*
G02*
X13027500Y6367200I0J100000D01*
G01*
G37*
G36*
G01*
X13027500Y7017200D02*
X13027500Y7217200D01*
G75*
G02*
X13127500Y7317200I100000J0D01*
G01*
X14402500Y7317200D01*
G75*
G02*
X14502500Y7217200I0J-100000D01*
G01*
X14502500Y7017200D01*
G75*
G02*
X14402500Y6917200I-100000J0D01*
G01*
X13127500Y6917200D01*
G75*
G02*
X13027500Y7017200I0J100000D01*
G01*
G37*
G36*
G01*
X13027500Y7667200D02*
X13027500Y7867200D01*
G75*
G02*
X13127500Y7967200I100000J0D01*
G01*
X14402500Y7967200D01*
G75*
G02*
X14502500Y7867200I0J-100000D01*
G01*
X14502500Y7667200D01*
G75*
G02*
X14402500Y7567200I-100000J0D01*
G01*
X13127500Y7567200D01*
G75*
G02*
X13027500Y7667200I0J100000D01*
G01*
G37*
G36*
G01*
X13027500Y8317200D02*
X13027500Y8517200D01*
G75*
G02*
X13127500Y8617200I100000J0D01*
G01*
X14402500Y8617200D01*
G75*
G02*
X14502500Y8517200I0J-100000D01*
G01*
X14502500Y8317200D01*
G75*
G02*
X14402500Y8217200I-100000J0D01*
G01*
X13127500Y8217200D01*
G75*
G02*
X13027500Y8317200I0J100000D01*
G01*
G37*
G36*
G01*
X13027500Y8967200D02*
X13027500Y9167200D01*
G75*
G02*
X13127500Y9267200I100000J0D01*
G01*
X14402500Y9267200D01*
G75*
G02*
X14502500Y9167200I0J-100000D01*
G01*
X14502500Y8967200D01*
G75*
G02*
X14402500Y8867200I-100000J0D01*
G01*
X13127500Y8867200D01*
G75*
G02*
X13027500Y8967200I0J100000D01*
G01*
G37*
G36*
G01*
X13027500Y9617200D02*
X13027500Y9817200D01*
G75*
G02*
X13127500Y9917200I100000J0D01*
G01*
X14402500Y9917200D01*
G75*
G02*
X14502500Y9817200I0J-100000D01*
G01*
X14502500Y9617200D01*
G75*
G02*
X14402500Y9517200I-100000J0D01*
G01*
X13127500Y9517200D01*
G75*
G02*
X13027500Y9617200I0J100000D01*
G01*
G37*
G36*
G01*
X13027500Y10267200D02*
X13027500Y10467200D01*
G75*
G02*
X13127500Y10567200I100000J0D01*
G01*
X14402500Y10567200D01*
G75*
G02*
X14502500Y10467200I0J-100000D01*
G01*
X14502500Y10267200D01*
G75*
G02*
X14402500Y10167200I-100000J0D01*
G01*
X13127500Y10167200D01*
G75*
G02*
X13027500Y10267200I0J100000D01*
G01*
G37*
G36*
G01*
X9911800Y55857600D02*
X9911800Y55307600D01*
G75*
G02*
X9711800Y55107600I-200000J0D01*
G01*
X9311800Y55107600D01*
G75*
G02*
X9111800Y55307600I0J200000D01*
G01*
X9111800Y55857600D01*
G75*
G02*
X9311800Y56057600I200000J0D01*
G01*
X9711800Y56057600D01*
G75*
G02*
X9911800Y55857600I0J-200000D01*
G01*
G37*
G36*
G01*
X8261800Y55857600D02*
X8261800Y55307600D01*
G75*
G02*
X8061800Y55107600I-200000J0D01*
G01*
X7661800Y55107600D01*
G75*
G02*
X7461800Y55307600I0J200000D01*
G01*
X7461800Y55857600D01*
G75*
G02*
X7661800Y56057600I200000J0D01*
G01*
X8061800Y56057600D01*
G75*
G02*
X8261800Y55857600I0J-200000D01*
G01*
G37*
G36*
G01*
X32799000Y10085600D02*
X32799000Y9585600D01*
G75*
G02*
X32574000Y9360600I-225000J0D01*
G01*
X32124000Y9360600D01*
G75*
G02*
X31899000Y9585600I0J225000D01*
G01*
X31899000Y10085600D01*
G75*
G02*
X32124000Y10310600I225000J0D01*
G01*
X32574000Y10310600D01*
G75*
G02*
X32799000Y10085600I0J-225000D01*
G01*
G37*
G36*
G01*
X31249000Y10085600D02*
X31249000Y9585600D01*
G75*
G02*
X31024000Y9360600I-225000J0D01*
G01*
X30574000Y9360600D01*
G75*
G02*
X30349000Y9585600I0J225000D01*
G01*
X30349000Y10085600D01*
G75*
G02*
X30574000Y10310600I225000J0D01*
G01*
X31024000Y10310600D01*
G75*
G02*
X31249000Y10085600I0J-225000D01*
G01*
G37*
D13*
X73001400Y45616400D03*
D14*
X73001400Y43076400D03*
X73001400Y40536400D03*
X73001400Y37996400D03*
X73001400Y35456400D03*
X73001400Y32916400D03*
G36*
G01*
X7302500Y19258800D02*
X7302500Y19458800D01*
G75*
G02*
X7402500Y19558800I100000J0D01*
G01*
X8677500Y19558800D01*
G75*
G02*
X8777500Y19458800I0J-100000D01*
G01*
X8777500Y19258800D01*
G75*
G02*
X8677500Y19158800I-100000J0D01*
G01*
X7402500Y19158800D01*
G75*
G02*
X7302500Y19258800I0J100000D01*
G01*
G37*
G36*
G01*
X7302500Y18608800D02*
X7302500Y18808800D01*
G75*
G02*
X7402500Y18908800I100000J0D01*
G01*
X8677500Y18908800D01*
G75*
G02*
X8777500Y18808800I0J-100000D01*
G01*
X8777500Y18608800D01*
G75*
G02*
X8677500Y18508800I-100000J0D01*
G01*
X7402500Y18508800D01*
G75*
G02*
X7302500Y18608800I0J100000D01*
G01*
G37*
G36*
G01*
X7302500Y17958800D02*
X7302500Y18158800D01*
G75*
G02*
X7402500Y18258800I100000J0D01*
G01*
X8677500Y18258800D01*
G75*
G02*
X8777500Y18158800I0J-100000D01*
G01*
X8777500Y17958800D01*
G75*
G02*
X8677500Y17858800I-100000J0D01*
G01*
X7402500Y17858800D01*
G75*
G02*
X7302500Y17958800I0J100000D01*
G01*
G37*
G36*
G01*
X7302500Y17308800D02*
X7302500Y17508800D01*
G75*
G02*
X7402500Y17608800I100000J0D01*
G01*
X8677500Y17608800D01*
G75*
G02*
X8777500Y17508800I0J-100000D01*
G01*
X8777500Y17308800D01*
G75*
G02*
X8677500Y17208800I-100000J0D01*
G01*
X7402500Y17208800D01*
G75*
G02*
X7302500Y17308800I0J100000D01*
G01*
G37*
G36*
G01*
X7302500Y16658800D02*
X7302500Y16858800D01*
G75*
G02*
X7402500Y16958800I100000J0D01*
G01*
X8677500Y16958800D01*
G75*
G02*
X8777500Y16858800I0J-100000D01*
G01*
X8777500Y16658800D01*
G75*
G02*
X8677500Y16558800I-100000J0D01*
G01*
X7402500Y16558800D01*
G75*
G02*
X7302500Y16658800I0J100000D01*
G01*
G37*
G36*
G01*
X7302500Y16008800D02*
X7302500Y16208800D01*
G75*
G02*
X7402500Y16308800I100000J0D01*
G01*
X8677500Y16308800D01*
G75*
G02*
X8777500Y16208800I0J-100000D01*
G01*
X8777500Y16008800D01*
G75*
G02*
X8677500Y15908800I-100000J0D01*
G01*
X7402500Y15908800D01*
G75*
G02*
X7302500Y16008800I0J100000D01*
G01*
G37*
G36*
G01*
X7302500Y15358800D02*
X7302500Y15558800D01*
G75*
G02*
X7402500Y15658800I100000J0D01*
G01*
X8677500Y15658800D01*
G75*
G02*
X8777500Y15558800I0J-100000D01*
G01*
X8777500Y15358800D01*
G75*
G02*
X8677500Y15258800I-100000J0D01*
G01*
X7402500Y15258800D01*
G75*
G02*
X7302500Y15358800I0J100000D01*
G01*
G37*
G36*
G01*
X7302500Y14708800D02*
X7302500Y14908800D01*
G75*
G02*
X7402500Y15008800I100000J0D01*
G01*
X8677500Y15008800D01*
G75*
G02*
X8777500Y14908800I0J-100000D01*
G01*
X8777500Y14708800D01*
G75*
G02*
X8677500Y14608800I-100000J0D01*
G01*
X7402500Y14608800D01*
G75*
G02*
X7302500Y14708800I0J100000D01*
G01*
G37*
G36*
G01*
X7302500Y14058800D02*
X7302500Y14258800D01*
G75*
G02*
X7402500Y14358800I100000J0D01*
G01*
X8677500Y14358800D01*
G75*
G02*
X8777500Y14258800I0J-100000D01*
G01*
X8777500Y14058800D01*
G75*
G02*
X8677500Y13958800I-100000J0D01*
G01*
X7402500Y13958800D01*
G75*
G02*
X7302500Y14058800I0J100000D01*
G01*
G37*
G36*
G01*
X7302500Y13408800D02*
X7302500Y13608800D01*
G75*
G02*
X7402500Y13708800I100000J0D01*
G01*
X8677500Y13708800D01*
G75*
G02*
X8777500Y13608800I0J-100000D01*
G01*
X8777500Y13408800D01*
G75*
G02*
X8677500Y13308800I-100000J0D01*
G01*
X7402500Y13308800D01*
G75*
G02*
X7302500Y13408800I0J100000D01*
G01*
G37*
G36*
G01*
X13027500Y13408800D02*
X13027500Y13608800D01*
G75*
G02*
X13127500Y13708800I100000J0D01*
G01*
X14402500Y13708800D01*
G75*
G02*
X14502500Y13608800I0J-100000D01*
G01*
X14502500Y13408800D01*
G75*
G02*
X14402500Y13308800I-100000J0D01*
G01*
X13127500Y13308800D01*
G75*
G02*
X13027500Y13408800I0J100000D01*
G01*
G37*
G36*
G01*
X13027500Y14058800D02*
X13027500Y14258800D01*
G75*
G02*
X13127500Y14358800I100000J0D01*
G01*
X14402500Y14358800D01*
G75*
G02*
X14502500Y14258800I0J-100000D01*
G01*
X14502500Y14058800D01*
G75*
G02*
X14402500Y13958800I-100000J0D01*
G01*
X13127500Y13958800D01*
G75*
G02*
X13027500Y14058800I0J100000D01*
G01*
G37*
G36*
G01*
X13027500Y14708800D02*
X13027500Y14908800D01*
G75*
G02*
X13127500Y15008800I100000J0D01*
G01*
X14402500Y15008800D01*
G75*
G02*
X14502500Y14908800I0J-100000D01*
G01*
X14502500Y14708800D01*
G75*
G02*
X14402500Y14608800I-100000J0D01*
G01*
X13127500Y14608800D01*
G75*
G02*
X13027500Y14708800I0J100000D01*
G01*
G37*
G36*
G01*
X13027500Y15358800D02*
X13027500Y15558800D01*
G75*
G02*
X13127500Y15658800I100000J0D01*
G01*
X14402500Y15658800D01*
G75*
G02*
X14502500Y15558800I0J-100000D01*
G01*
X14502500Y15358800D01*
G75*
G02*
X14402500Y15258800I-100000J0D01*
G01*
X13127500Y15258800D01*
G75*
G02*
X13027500Y15358800I0J100000D01*
G01*
G37*
G36*
G01*
X13027500Y16008800D02*
X13027500Y16208800D01*
G75*
G02*
X13127500Y16308800I100000J0D01*
G01*
X14402500Y16308800D01*
G75*
G02*
X14502500Y16208800I0J-100000D01*
G01*
X14502500Y16008800D01*
G75*
G02*
X14402500Y15908800I-100000J0D01*
G01*
X13127500Y15908800D01*
G75*
G02*
X13027500Y16008800I0J100000D01*
G01*
G37*
G36*
G01*
X13027500Y16658800D02*
X13027500Y16858800D01*
G75*
G02*
X13127500Y16958800I100000J0D01*
G01*
X14402500Y16958800D01*
G75*
G02*
X14502500Y16858800I0J-100000D01*
G01*
X14502500Y16658800D01*
G75*
G02*
X14402500Y16558800I-100000J0D01*
G01*
X13127500Y16558800D01*
G75*
G02*
X13027500Y16658800I0J100000D01*
G01*
G37*
G36*
G01*
X13027500Y17308800D02*
X13027500Y17508800D01*
G75*
G02*
X13127500Y17608800I100000J0D01*
G01*
X14402500Y17608800D01*
G75*
G02*
X14502500Y17508800I0J-100000D01*
G01*
X14502500Y17308800D01*
G75*
G02*
X14402500Y17208800I-100000J0D01*
G01*
X13127500Y17208800D01*
G75*
G02*
X13027500Y17308800I0J100000D01*
G01*
G37*
G36*
G01*
X13027500Y17958800D02*
X13027500Y18158800D01*
G75*
G02*
X13127500Y18258800I100000J0D01*
G01*
X14402500Y18258800D01*
G75*
G02*
X14502500Y18158800I0J-100000D01*
G01*
X14502500Y17958800D01*
G75*
G02*
X14402500Y17858800I-100000J0D01*
G01*
X13127500Y17858800D01*
G75*
G02*
X13027500Y17958800I0J100000D01*
G01*
G37*
G36*
G01*
X13027500Y18608800D02*
X13027500Y18808800D01*
G75*
G02*
X13127500Y18908800I100000J0D01*
G01*
X14402500Y18908800D01*
G75*
G02*
X14502500Y18808800I0J-100000D01*
G01*
X14502500Y18608800D01*
G75*
G02*
X14402500Y18508800I-100000J0D01*
G01*
X13127500Y18508800D01*
G75*
G02*
X13027500Y18608800I0J100000D01*
G01*
G37*
G36*
G01*
X13027500Y19258800D02*
X13027500Y19458800D01*
G75*
G02*
X13127500Y19558800I100000J0D01*
G01*
X14402500Y19558800D01*
G75*
G02*
X14502500Y19458800I0J-100000D01*
G01*
X14502500Y19258800D01*
G75*
G02*
X14402500Y19158800I-100000J0D01*
G01*
X13127500Y19158800D01*
G75*
G02*
X13027500Y19258800I0J100000D01*
G01*
G37*
G36*
G01*
X58683500Y1466400D02*
X58683500Y1966400D01*
G75*
G02*
X58908500Y2191400I225000J0D01*
G01*
X59358500Y2191400D01*
G75*
G02*
X59583500Y1966400I0J-225000D01*
G01*
X59583500Y1466400D01*
G75*
G02*
X59358500Y1241400I-225000J0D01*
G01*
X58908500Y1241400D01*
G75*
G02*
X58683500Y1466400I0J225000D01*
G01*
G37*
G36*
G01*
X60233500Y1466400D02*
X60233500Y1966400D01*
G75*
G02*
X60458500Y2191400I225000J0D01*
G01*
X60908500Y2191400D01*
G75*
G02*
X61133500Y1966400I0J-225000D01*
G01*
X61133500Y1466400D01*
G75*
G02*
X60908500Y1241400I-225000J0D01*
G01*
X60458500Y1241400D01*
G75*
G02*
X60233500Y1466400I0J225000D01*
G01*
G37*
G36*
G01*
X13622000Y38373000D02*
X13622000Y37823000D01*
G75*
G02*
X13422000Y37623000I-200000J0D01*
G01*
X13022000Y37623000D01*
G75*
G02*
X12822000Y37823000I0J200000D01*
G01*
X12822000Y38373000D01*
G75*
G02*
X13022000Y38573000I200000J0D01*
G01*
X13422000Y38573000D01*
G75*
G02*
X13622000Y38373000I0J-200000D01*
G01*
G37*
G36*
G01*
X11972000Y38373000D02*
X11972000Y37823000D01*
G75*
G02*
X11772000Y37623000I-200000J0D01*
G01*
X11372000Y37623000D01*
G75*
G02*
X11172000Y37823000I0J200000D01*
G01*
X11172000Y38373000D01*
G75*
G02*
X11372000Y38573000I200000J0D01*
G01*
X11772000Y38573000D01*
G75*
G02*
X11972000Y38373000I0J-200000D01*
G01*
G37*
G36*
G01*
X60346100Y19636000D02*
X60346100Y19136000D01*
G75*
G02*
X60121100Y18911000I-225000J0D01*
G01*
X59671100Y18911000D01*
G75*
G02*
X59446100Y19136000I0J225000D01*
G01*
X59446100Y19636000D01*
G75*
G02*
X59671100Y19861000I225000J0D01*
G01*
X60121100Y19861000D01*
G75*
G02*
X60346100Y19636000I0J-225000D01*
G01*
G37*
G36*
G01*
X58796100Y19636000D02*
X58796100Y19136000D01*
G75*
G02*
X58571100Y18911000I-225000J0D01*
G01*
X58121100Y18911000D01*
G75*
G02*
X57896100Y19136000I0J225000D01*
G01*
X57896100Y19636000D01*
G75*
G02*
X58121100Y19861000I225000J0D01*
G01*
X58571100Y19861000D01*
G75*
G02*
X58796100Y19636000I0J-225000D01*
G01*
G37*
D21*
X2313200Y50518600D03*
D22*
X2313200Y48518600D03*
D21*
X2313200Y55582600D03*
D22*
X2313200Y53582600D03*
D23*
X71120000Y52070000D03*
X12700000Y52070000D03*
D24*
X17145000Y51117500D03*
X17145000Y54927500D03*
X18415000Y49212500D03*
X18415000Y53022500D03*
X19685000Y51117500D03*
X19685000Y54927500D03*
X20955000Y49212500D03*
X20955000Y53022500D03*
X22225000Y51117500D03*
X22225000Y54927500D03*
X23495000Y49212500D03*
X23495000Y53022500D03*
X24765000Y51117500D03*
X24765000Y54927500D03*
X26035000Y49212500D03*
X26035000Y53022500D03*
X27305000Y51117500D03*
X27305000Y54927500D03*
X28575000Y49212500D03*
X28575000Y53022500D03*
X29845000Y51117500D03*
X29845000Y54927500D03*
X31115000Y49212500D03*
X31115000Y53022500D03*
X32385000Y51117500D03*
X32385000Y54927500D03*
X33655000Y49212500D03*
X33655000Y53022500D03*
X34925000Y51117500D03*
X34925000Y54927500D03*
X36195000Y49212500D03*
X36195000Y53022500D03*
X37465000Y51117500D03*
X37465000Y54927500D03*
X38735000Y49212500D03*
X38735000Y53022500D03*
X40005000Y51117500D03*
X40005000Y54927500D03*
X41275000Y49212500D03*
X41275000Y53022500D03*
X42545000Y51117500D03*
X42545000Y54927500D03*
X43815000Y49212500D03*
X43815000Y53022500D03*
X45085000Y51117500D03*
X45085000Y54927500D03*
X46355000Y49212500D03*
X46355000Y53022500D03*
X47625000Y51117500D03*
X47625000Y54927500D03*
X48895000Y49212500D03*
X48895000Y53022500D03*
X50165000Y51117500D03*
X50165000Y54927500D03*
X51435000Y49212500D03*
X51435000Y53022500D03*
X52705000Y51117500D03*
X52705000Y54927500D03*
X53975000Y49212500D03*
X53975000Y53022500D03*
X55245000Y51117500D03*
X55245000Y54927500D03*
X56515000Y49212500D03*
X56515000Y53022500D03*
X57785000Y51117500D03*
X57785000Y54927500D03*
X59055000Y49212500D03*
X59055000Y53022500D03*
X60325000Y51117500D03*
X60325000Y54927500D03*
X61595000Y49212500D03*
X61595000Y53022500D03*
X62865000Y51117500D03*
X62865000Y54927500D03*
X64135000Y49212500D03*
X64135000Y53022500D03*
X65405000Y51117500D03*
X65405000Y54927500D03*
X66675000Y49212500D03*
X66675000Y53022500D03*
D21*
X2282500Y3130000D03*
D22*
X4282500Y3130000D03*
X2282500Y5130000D03*
X4282500Y5130000D03*
X2282500Y7130000D03*
X4282500Y7130000D03*
X2282500Y9130000D03*
X4282500Y9130000D03*
X2282500Y11130000D03*
X4282500Y11130000D03*
X2282500Y13130000D03*
X4282500Y13130000D03*
X2282500Y15130000D03*
X4282500Y15130000D03*
X2282500Y17130000D03*
X4282500Y17130000D03*
X2282500Y19130000D03*
X4282500Y19130000D03*
X2282500Y21130000D03*
X4282500Y21130000D03*
X2282500Y23130000D03*
X4282500Y23130000D03*
X2282500Y25130000D03*
X4282500Y25130000D03*
X2282500Y27130000D03*
X4282500Y27130000D03*
X2282500Y29130000D03*
X4282500Y29130000D03*
X2282500Y31130000D03*
X4282500Y31130000D03*
X2282500Y33130000D03*
X4282500Y33130000D03*
X2282500Y35130000D03*
X4282500Y35130000D03*
X2282500Y37130000D03*
X4282500Y37130000D03*
X2282500Y39130000D03*
X4282500Y39130000D03*
X2282500Y41130000D03*
X4282500Y41130000D03*
X2282500Y43130000D03*
X4282500Y43130000D03*
X2282500Y45130000D03*
X4282500Y45130000D03*
M02*
