G04 #@! TF.GenerationSoftware,KiCad,Pcbnew,6.0.6+dfsg-1~bpo11+1*
G04 #@! TF.CreationDate,2023-01-28T16:09:36+00:00*
G04 #@! TF.ProjectId,CIDER,43494445-522e-46b6-9963-61645f706362,rev?*
G04 #@! TF.SameCoordinates,Original*
G04 #@! TF.FileFunction,Legend,Bot*
G04 #@! TF.FilePolarity,Positive*
%FSLAX46Y46*%
G04 Gerber Fmt 4.6, Leading zero omitted, Abs format (unit mm)*
G04 Created by KiCad (PCBNEW 6.0.6+dfsg-1~bpo11+1) date 2023-01-28 16:09:36*
%MOMM*%
%LPD*%
G01*
G04 APERTURE LIST*
%ADD10C,0.150000*%
%ADD11C,0.120000*%
%ADD12R,1.700000X1.700000*%
%ADD13O,1.700000X1.700000*%
%ADD14R,1.350000X1.350000*%
%ADD15O,1.350000X1.350000*%
%ADD16C,1.524000*%
%ADD17C,5.000000*%
G04 APERTURE END LIST*
D10*
X118797023Y-104735357D02*
X118749404Y-104687738D01*
X118606547Y-104640119D01*
X118511309Y-104640119D01*
X118368452Y-104687738D01*
X118273214Y-104782976D01*
X118225595Y-104878214D01*
X118177976Y-105068690D01*
X118177976Y-105211547D01*
X118225595Y-105402023D01*
X118273214Y-105497261D01*
X118368452Y-105592500D01*
X118511309Y-105640119D01*
X118606547Y-105640119D01*
X118749404Y-105592500D01*
X118797023Y-105544880D01*
X119225595Y-104640119D02*
X119225595Y-105640119D01*
X119797023Y-104640119D01*
X119797023Y-105640119D01*
X120797023Y-104640119D02*
X120225595Y-104640119D01*
X120511309Y-104640119D02*
X120511309Y-105640119D01*
X120416071Y-105497261D01*
X120320833Y-105402023D01*
X120225595Y-105354404D01*
D11*
X114935000Y-94297500D02*
X114935000Y-103822500D01*
X122555000Y-105092500D02*
X123825000Y-106362500D01*
X123825000Y-106362500D02*
X121285000Y-106362500D01*
X114935000Y-103822500D02*
X179705000Y-103822500D01*
X179705000Y-94297500D02*
X114935000Y-94297500D01*
X179705000Y-103822500D02*
X179705000Y-94297500D01*
X121285000Y-106362500D02*
X122555000Y-105092500D01*
%LPC*%
D12*
X53782500Y-98825500D03*
D13*
X53782500Y-101365500D03*
D12*
X77084500Y-134638900D03*
D13*
X77084500Y-137178900D03*
D12*
X80584500Y-113173900D03*
D13*
X80584500Y-115713900D03*
D14*
X109692500Y-148000000D03*
D15*
X107692500Y-148000000D03*
X109692500Y-146000000D03*
X107692500Y-146000000D03*
X109692500Y-144000000D03*
X107692500Y-144000000D03*
X109692500Y-142000000D03*
X107692500Y-142000000D03*
X109692500Y-140000000D03*
X107692500Y-140000000D03*
X109692500Y-138000000D03*
X107692500Y-138000000D03*
X109692500Y-136000000D03*
X107692500Y-136000000D03*
X109692500Y-134000000D03*
X107692500Y-134000000D03*
X109692500Y-132000000D03*
X107692500Y-132000000D03*
X109692500Y-130000000D03*
X107692500Y-130000000D03*
X109692500Y-128000000D03*
X107692500Y-128000000D03*
X109692500Y-126000000D03*
X107692500Y-126000000D03*
X109692500Y-124000000D03*
X107692500Y-124000000D03*
X109692500Y-122000000D03*
X107692500Y-122000000D03*
X109692500Y-120000000D03*
X107692500Y-120000000D03*
X109692500Y-118000000D03*
X107692500Y-118000000D03*
X109692500Y-116000000D03*
X107692500Y-116000000D03*
X109692500Y-114000000D03*
X107692500Y-114000000D03*
X109692500Y-112000000D03*
X107692500Y-112000000D03*
X109692500Y-110000000D03*
X107692500Y-110000000D03*
X109692500Y-108000000D03*
X107692500Y-108000000D03*
X109692500Y-106000000D03*
X107692500Y-106000000D03*
D12*
X177907500Y-106517900D03*
D13*
X177907500Y-109057900D03*
X177907500Y-111597900D03*
X177907500Y-114137900D03*
X177907500Y-116677900D03*
X177907500Y-119217900D03*
D12*
X212225000Y-141855000D03*
D13*
X212225000Y-144395000D03*
D16*
X122555000Y-100012500D03*
X122555000Y-96202500D03*
X123825000Y-101917500D03*
X123825000Y-98107500D03*
X125095000Y-100012500D03*
X125095000Y-96202500D03*
X126365000Y-101917500D03*
X126365000Y-98107500D03*
X127635000Y-100012500D03*
X127635000Y-96202500D03*
X128905000Y-101917500D03*
X128905000Y-98107500D03*
X130175000Y-100012500D03*
X130175000Y-96202500D03*
X131445000Y-101917500D03*
X131445000Y-98107500D03*
X132715000Y-100012500D03*
X132715000Y-96202500D03*
X133985000Y-101917500D03*
X133985000Y-98107500D03*
X135255000Y-100012500D03*
X135255000Y-96202500D03*
X136525000Y-101917500D03*
X136525000Y-98107500D03*
X137795000Y-100012500D03*
X137795000Y-96202500D03*
X139065000Y-101917500D03*
X139065000Y-98107500D03*
X140335000Y-100012500D03*
X140335000Y-96202500D03*
X141605000Y-101917500D03*
X141605000Y-98107500D03*
X142875000Y-100012500D03*
X142875000Y-96202500D03*
X144145000Y-101917500D03*
X144145000Y-98107500D03*
X145415000Y-100012500D03*
X145415000Y-96202500D03*
X146685000Y-101917500D03*
X146685000Y-98107500D03*
X147955000Y-100012500D03*
X147955000Y-96202500D03*
X149225000Y-101917500D03*
X149225000Y-98107500D03*
X150495000Y-100012500D03*
X150495000Y-96202500D03*
X151765000Y-101917500D03*
X151765000Y-98107500D03*
X153035000Y-100012500D03*
X153035000Y-96202500D03*
X154305000Y-101917500D03*
X154305000Y-98107500D03*
X155575000Y-100012500D03*
X155575000Y-96202500D03*
X156845000Y-101917500D03*
X156845000Y-98107500D03*
X158115000Y-100012500D03*
X158115000Y-96202500D03*
X159385000Y-101917500D03*
X159385000Y-98107500D03*
X160655000Y-100012500D03*
X160655000Y-96202500D03*
X161925000Y-101917500D03*
X161925000Y-98107500D03*
X163195000Y-100012500D03*
X163195000Y-96202500D03*
X164465000Y-101917500D03*
X164465000Y-98107500D03*
X165735000Y-100012500D03*
X165735000Y-96202500D03*
X167005000Y-101917500D03*
X167005000Y-98107500D03*
X168275000Y-100012500D03*
X168275000Y-96202500D03*
X169545000Y-101917500D03*
X169545000Y-98107500D03*
X170815000Y-100012500D03*
X170815000Y-96202500D03*
X172085000Y-101917500D03*
X172085000Y-98107500D03*
D17*
X176530000Y-99060000D03*
X118110000Y-99060000D03*
M02*
