G04 #@! TF.GenerationSoftware,KiCad,Pcbnew,6.0.6+dfsg-1~bpo11+1*
G04 #@! TF.CreationDate,2023-01-30T14:54:24+00:00*
G04 #@! TF.ProjectId,CIDER,43494445-522e-46b6-9963-61645f706362,rev?*
G04 #@! TF.SameCoordinates,Original*
G04 #@! TF.FileFunction,Legend,Bot*
G04 #@! TF.FilePolarity,Positive*
%FSLAX46Y46*%
G04 Gerber Fmt 4.6, Leading zero omitted, Abs format (unit mm)*
G04 Created by KiCad (PCBNEW 6.0.6+dfsg-1~bpo11+1) date 2023-01-30 14:54:24*
%MOMM*%
%LPD*%
G01*
G04 APERTURE LIST*
%ADD10C,0.150000*%
%ADD11C,0.120000*%
%ADD12R,1.350000X1.350000*%
%ADD13O,1.350000X1.350000*%
%ADD14R,1.700000X1.700000*%
%ADD15O,1.700000X1.700000*%
%ADD16C,5.000000*%
%ADD17C,1.524000*%
G04 APERTURE END LIST*
D10*
G36*
X108161508Y-149988718D02*
G01*
X107145508Y-149988718D01*
X107653508Y-149226718D01*
X108161508Y-149988718D01*
G37*
X108161508Y-149988718D02*
X107145508Y-149988718D01*
X107653508Y-149226718D01*
X108161508Y-149988718D01*
X108090457Y-150999132D02*
X108090457Y-150427703D01*
X108090457Y-150713418D02*
X107090457Y-150713418D01*
X107233315Y-150618179D01*
X107328553Y-150522941D01*
X107376172Y-150427703D01*
X112182466Y-120062980D02*
X112515800Y-119586790D01*
X112753895Y-120062980D02*
X112753895Y-119062980D01*
X112372942Y-119062980D01*
X112277704Y-119110600D01*
X112230085Y-119158219D01*
X112182466Y-119253457D01*
X112182466Y-119396314D01*
X112230085Y-119491552D01*
X112277704Y-119539171D01*
X112372942Y-119586790D01*
X112753895Y-119586790D01*
X111611038Y-119491552D02*
X111706276Y-119443933D01*
X111753895Y-119396314D01*
X111801514Y-119301076D01*
X111801514Y-119253457D01*
X111753895Y-119158219D01*
X111706276Y-119110600D01*
X111611038Y-119062980D01*
X111420561Y-119062980D01*
X111325323Y-119110600D01*
X111277704Y-119158219D01*
X111230085Y-119253457D01*
X111230085Y-119301076D01*
X111277704Y-119396314D01*
X111325323Y-119443933D01*
X111420561Y-119491552D01*
X111611038Y-119491552D01*
X111706276Y-119539171D01*
X111753895Y-119586790D01*
X111801514Y-119682028D01*
X111801514Y-119872504D01*
X111753895Y-119967742D01*
X111706276Y-120015361D01*
X111611038Y-120062980D01*
X111420561Y-120062980D01*
X111325323Y-120015361D01*
X111277704Y-119967742D01*
X111230085Y-119872504D01*
X111230085Y-119682028D01*
X111277704Y-119586790D01*
X111325323Y-119539171D01*
X111420561Y-119491552D01*
X118797023Y-104735357D02*
X118749404Y-104687738D01*
X118606547Y-104640119D01*
X118511309Y-104640119D01*
X118368452Y-104687738D01*
X118273214Y-104782976D01*
X118225595Y-104878214D01*
X118177976Y-105068690D01*
X118177976Y-105211547D01*
X118225595Y-105402023D01*
X118273214Y-105497261D01*
X118368452Y-105592500D01*
X118511309Y-105640119D01*
X118606547Y-105640119D01*
X118749404Y-105592500D01*
X118797023Y-105544880D01*
X119225595Y-104640119D02*
X119225595Y-105640119D01*
X119797023Y-104640119D01*
X119797023Y-105640119D01*
X120797023Y-104640119D02*
X120225595Y-104640119D01*
X120511309Y-104640119D02*
X120511309Y-105640119D01*
X120416071Y-105497261D01*
X120320833Y-105402023D01*
X120225595Y-105354404D01*
X112334866Y-124736580D02*
X112668200Y-124260390D01*
X112906295Y-124736580D02*
X112906295Y-123736580D01*
X112525342Y-123736580D01*
X112430104Y-123784200D01*
X112382485Y-123831819D01*
X112334866Y-123927057D01*
X112334866Y-124069914D01*
X112382485Y-124165152D01*
X112430104Y-124212771D01*
X112525342Y-124260390D01*
X112906295Y-124260390D01*
X112001533Y-123736580D02*
X111334866Y-123736580D01*
X111763438Y-124736580D01*
D11*
X111810450Y-121467308D02*
X112284966Y-121467308D01*
X111810450Y-120422308D02*
X112284966Y-120422308D01*
X123825000Y-105511600D02*
X121285000Y-105511600D01*
X114935000Y-103822500D02*
X179705000Y-103822500D01*
X179705000Y-94297500D02*
X114935000Y-94297500D01*
X179705000Y-103822500D02*
X179705000Y-94297500D01*
X122555000Y-104241600D02*
X123825000Y-105511600D01*
X114935000Y-94297500D02*
X114935000Y-103822500D01*
X121285000Y-105511600D02*
X122555000Y-104241600D01*
X111810450Y-122422308D02*
X112284966Y-122422308D01*
X111810450Y-123467308D02*
X112284966Y-123467308D01*
X108692500Y-149060000D02*
X110752500Y-149060000D01*
X106632500Y-149060000D02*
X107692500Y-149060000D01*
X110752500Y-149060000D02*
X110752500Y-104940000D01*
X106632500Y-104940000D02*
X110752500Y-104940000D01*
X108692500Y-147000000D02*
X108692500Y-149060000D01*
X106632500Y-148000000D02*
X106632500Y-149060000D01*
X106632500Y-147000000D02*
X108692500Y-147000000D01*
X106632500Y-147000000D02*
X106632500Y-104940000D01*
%LPC*%
D12*
X107774000Y-96796400D03*
D13*
X107774000Y-98796400D03*
D14*
X178411400Y-105513600D03*
D15*
X178411400Y-108053600D03*
X178411400Y-110593600D03*
X178411400Y-113133600D03*
X178411400Y-115673600D03*
X178411400Y-118213600D03*
G36*
G01*
X110822708Y-121219808D02*
X110822708Y-120669808D01*
G75*
G02*
X111022708Y-120469808I200000J0D01*
G01*
X111422708Y-120469808D01*
G75*
G02*
X111622708Y-120669808I0J-200000D01*
G01*
X111622708Y-121219808D01*
G75*
G02*
X111422708Y-121419808I-200000J0D01*
G01*
X111022708Y-121419808D01*
G75*
G02*
X110822708Y-121219808I0J200000D01*
G01*
G37*
G36*
G01*
X112472708Y-121219808D02*
X112472708Y-120669808D01*
G75*
G02*
X112672708Y-120469808I200000J0D01*
G01*
X113072708Y-120469808D01*
G75*
G02*
X113272708Y-120669808I0J-200000D01*
G01*
X113272708Y-121219808D01*
G75*
G02*
X113072708Y-121419808I-200000J0D01*
G01*
X112672708Y-121419808D01*
G75*
G02*
X112472708Y-121219808I0J200000D01*
G01*
G37*
D16*
X118110000Y-99060000D03*
X176530000Y-99060000D03*
D17*
X122555000Y-100012500D03*
X122555000Y-96202500D03*
X123825000Y-101917500D03*
X123825000Y-98107500D03*
X125095000Y-100012500D03*
X125095000Y-96202500D03*
X126365000Y-101917500D03*
X126365000Y-98107500D03*
X127635000Y-100012500D03*
X127635000Y-96202500D03*
X128905000Y-101917500D03*
X128905000Y-98107500D03*
X130175000Y-100012500D03*
X130175000Y-96202500D03*
X131445000Y-101917500D03*
X131445000Y-98107500D03*
X132715000Y-100012500D03*
X132715000Y-96202500D03*
X133985000Y-101917500D03*
X133985000Y-98107500D03*
X135255000Y-100012500D03*
X135255000Y-96202500D03*
X136525000Y-101917500D03*
X136525000Y-98107500D03*
X137795000Y-100012500D03*
X137795000Y-96202500D03*
X139065000Y-101917500D03*
X139065000Y-98107500D03*
X140335000Y-100012500D03*
X140335000Y-96202500D03*
X141605000Y-101917500D03*
X141605000Y-98107500D03*
X142875000Y-100012500D03*
X142875000Y-96202500D03*
X144145000Y-101917500D03*
X144145000Y-98107500D03*
X145415000Y-100012500D03*
X145415000Y-96202500D03*
X146685000Y-101917500D03*
X146685000Y-98107500D03*
X147955000Y-100012500D03*
X147955000Y-96202500D03*
X149225000Y-101917500D03*
X149225000Y-98107500D03*
X150495000Y-100012500D03*
X150495000Y-96202500D03*
X151765000Y-101917500D03*
X151765000Y-98107500D03*
X153035000Y-100012500D03*
X153035000Y-96202500D03*
X154305000Y-101917500D03*
X154305000Y-98107500D03*
X155575000Y-100012500D03*
X155575000Y-96202500D03*
X156845000Y-101917500D03*
X156845000Y-98107500D03*
X158115000Y-100012500D03*
X158115000Y-96202500D03*
X159385000Y-101917500D03*
X159385000Y-98107500D03*
X160655000Y-100012500D03*
X160655000Y-96202500D03*
X161925000Y-101917500D03*
X161925000Y-98107500D03*
X163195000Y-100012500D03*
X163195000Y-96202500D03*
X164465000Y-101917500D03*
X164465000Y-98107500D03*
X165735000Y-100012500D03*
X165735000Y-96202500D03*
X167005000Y-101917500D03*
X167005000Y-98107500D03*
X168275000Y-100012500D03*
X168275000Y-96202500D03*
X169545000Y-101917500D03*
X169545000Y-98107500D03*
X170815000Y-100012500D03*
X170815000Y-96202500D03*
X172085000Y-101917500D03*
X172085000Y-98107500D03*
G36*
G01*
X110822708Y-123219808D02*
X110822708Y-122669808D01*
G75*
G02*
X111022708Y-122469808I200000J0D01*
G01*
X111422708Y-122469808D01*
G75*
G02*
X111622708Y-122669808I0J-200000D01*
G01*
X111622708Y-123219808D01*
G75*
G02*
X111422708Y-123419808I-200000J0D01*
G01*
X111022708Y-123419808D01*
G75*
G02*
X110822708Y-123219808I0J200000D01*
G01*
G37*
G36*
G01*
X112472708Y-123219808D02*
X112472708Y-122669808D01*
G75*
G02*
X112672708Y-122469808I200000J0D01*
G01*
X113072708Y-122469808D01*
G75*
G02*
X113272708Y-122669808I0J-200000D01*
G01*
X113272708Y-123219808D01*
G75*
G02*
X113072708Y-123419808I-200000J0D01*
G01*
X112672708Y-123419808D01*
G75*
G02*
X112472708Y-123219808I0J200000D01*
G01*
G37*
D12*
X107692500Y-148000000D03*
D13*
X109692500Y-148000000D03*
X107692500Y-146000000D03*
X109692500Y-146000000D03*
X107692500Y-144000000D03*
X109692500Y-144000000D03*
X107692500Y-142000000D03*
X109692500Y-142000000D03*
X107692500Y-140000000D03*
X109692500Y-140000000D03*
X107692500Y-138000000D03*
X109692500Y-138000000D03*
X107692500Y-136000000D03*
X109692500Y-136000000D03*
X107692500Y-134000000D03*
X109692500Y-134000000D03*
X107692500Y-132000000D03*
X109692500Y-132000000D03*
X107692500Y-130000000D03*
X109692500Y-130000000D03*
X107692500Y-128000000D03*
X109692500Y-128000000D03*
X107692500Y-126000000D03*
X109692500Y-126000000D03*
X107692500Y-124000000D03*
X109692500Y-124000000D03*
X107692500Y-122000000D03*
X109692500Y-122000000D03*
X107692500Y-120000000D03*
X109692500Y-120000000D03*
X107692500Y-118000000D03*
X109692500Y-118000000D03*
X107692500Y-116000000D03*
X109692500Y-116000000D03*
X107692500Y-114000000D03*
X109692500Y-114000000D03*
X107692500Y-112000000D03*
X109692500Y-112000000D03*
X107692500Y-110000000D03*
X109692500Y-110000000D03*
X107692500Y-108000000D03*
X109692500Y-108000000D03*
X107692500Y-106000000D03*
X109692500Y-106000000D03*
M02*
