G04 #@! TF.GenerationSoftware,KiCad,Pcbnew,6.0.6+dfsg-1~bpo11+1*
G04 #@! TF.CreationDate,2023-01-28T16:09:36+00:00*
G04 #@! TF.ProjectId,CIDER,43494445-522e-46b6-9963-61645f706362,rev?*
G04 #@! TF.SameCoordinates,Original*
G04 #@! TF.FileFunction,Soldermask,Top*
G04 #@! TF.FilePolarity,Negative*
%FSLAX46Y46*%
G04 Gerber Fmt 4.6, Leading zero omitted, Abs format (unit mm)*
G04 Created by KiCad (PCBNEW 6.0.6+dfsg-1~bpo11+1) date 2023-01-28 16:09:36*
%MOMM*%
%LPD*%
G01*
G04 APERTURE LIST*
%ADD10R,1.700000X1.700000*%
%ADD11O,1.700000X1.700000*%
%ADD12R,1.300000X0.900000*%
%ADD13R,1.950000X1.650000*%
%ADD14R,0.458000X1.510000*%
%ADD15R,1.350000X1.350000*%
%ADD16O,1.350000X1.350000*%
%ADD17R,1.100000X0.250000*%
%ADD18C,1.524000*%
%ADD19C,5.000000*%
G04 APERTURE END LIST*
G36*
G01*
X87797500Y-151677900D02*
X87797500Y-151127900D01*
G75*
G02*
X87997500Y-150927900I200000J0D01*
G01*
X88397500Y-150927900D01*
G75*
G02*
X88597500Y-151127900I0J-200000D01*
G01*
X88597500Y-151677900D01*
G75*
G02*
X88397500Y-151877900I-200000J0D01*
G01*
X87997500Y-151877900D01*
G75*
G02*
X87797500Y-151677900I0J200000D01*
G01*
G37*
G36*
G01*
X89447500Y-151677900D02*
X89447500Y-151127900D01*
G75*
G02*
X89647500Y-150927900I200000J0D01*
G01*
X90047500Y-150927900D01*
G75*
G02*
X90247500Y-151127900I0J-200000D01*
G01*
X90247500Y-151677900D01*
G75*
G02*
X90047500Y-151877900I-200000J0D01*
G01*
X89647500Y-151877900D01*
G75*
G02*
X89447500Y-151677900I0J200000D01*
G01*
G37*
G36*
G01*
X81689500Y-139293900D02*
X81689500Y-138743900D01*
G75*
G02*
X81889500Y-138543900I200000J0D01*
G01*
X82289500Y-138543900D01*
G75*
G02*
X82489500Y-138743900I0J-200000D01*
G01*
X82489500Y-139293900D01*
G75*
G02*
X82289500Y-139493900I-200000J0D01*
G01*
X81889500Y-139493900D01*
G75*
G02*
X81689500Y-139293900I0J200000D01*
G01*
G37*
G36*
G01*
X83339500Y-139293900D02*
X83339500Y-138743900D01*
G75*
G02*
X83539500Y-138543900I200000J0D01*
G01*
X83939500Y-138543900D01*
G75*
G02*
X84139500Y-138743900I0J-200000D01*
G01*
X84139500Y-139293900D01*
G75*
G02*
X83939500Y-139493900I-200000J0D01*
G01*
X83539500Y-139493900D01*
G75*
G02*
X83339500Y-139293900I0J200000D01*
G01*
G37*
G36*
G01*
X148165000Y-148260900D02*
X148165000Y-148460900D01*
G75*
G02*
X148065000Y-148560900I-100000J0D01*
G01*
X146790000Y-148560900D01*
G75*
G02*
X146690000Y-148460900I0J100000D01*
G01*
X146690000Y-148260900D01*
G75*
G02*
X146790000Y-148160900I100000J0D01*
G01*
X148065000Y-148160900D01*
G75*
G02*
X148165000Y-148260900I0J-100000D01*
G01*
G37*
G36*
G01*
X148165000Y-147610900D02*
X148165000Y-147810900D01*
G75*
G02*
X148065000Y-147910900I-100000J0D01*
G01*
X146790000Y-147910900D01*
G75*
G02*
X146690000Y-147810900I0J100000D01*
G01*
X146690000Y-147610900D01*
G75*
G02*
X146790000Y-147510900I100000J0D01*
G01*
X148065000Y-147510900D01*
G75*
G02*
X148165000Y-147610900I0J-100000D01*
G01*
G37*
G36*
G01*
X148165000Y-146960900D02*
X148165000Y-147160900D01*
G75*
G02*
X148065000Y-147260900I-100000J0D01*
G01*
X146790000Y-147260900D01*
G75*
G02*
X146690000Y-147160900I0J100000D01*
G01*
X146690000Y-146960900D01*
G75*
G02*
X146790000Y-146860900I100000J0D01*
G01*
X148065000Y-146860900D01*
G75*
G02*
X148165000Y-146960900I0J-100000D01*
G01*
G37*
G36*
G01*
X148165000Y-146310900D02*
X148165000Y-146510900D01*
G75*
G02*
X148065000Y-146610900I-100000J0D01*
G01*
X146790000Y-146610900D01*
G75*
G02*
X146690000Y-146510900I0J100000D01*
G01*
X146690000Y-146310900D01*
G75*
G02*
X146790000Y-146210900I100000J0D01*
G01*
X148065000Y-146210900D01*
G75*
G02*
X148165000Y-146310900I0J-100000D01*
G01*
G37*
G36*
G01*
X148165000Y-145660900D02*
X148165000Y-145860900D01*
G75*
G02*
X148065000Y-145960900I-100000J0D01*
G01*
X146790000Y-145960900D01*
G75*
G02*
X146690000Y-145860900I0J100000D01*
G01*
X146690000Y-145660900D01*
G75*
G02*
X146790000Y-145560900I100000J0D01*
G01*
X148065000Y-145560900D01*
G75*
G02*
X148165000Y-145660900I0J-100000D01*
G01*
G37*
G36*
G01*
X148165000Y-145010900D02*
X148165000Y-145210900D01*
G75*
G02*
X148065000Y-145310900I-100000J0D01*
G01*
X146790000Y-145310900D01*
G75*
G02*
X146690000Y-145210900I0J100000D01*
G01*
X146690000Y-145010900D01*
G75*
G02*
X146790000Y-144910900I100000J0D01*
G01*
X148065000Y-144910900D01*
G75*
G02*
X148165000Y-145010900I0J-100000D01*
G01*
G37*
G36*
G01*
X148165000Y-144360900D02*
X148165000Y-144560900D01*
G75*
G02*
X148065000Y-144660900I-100000J0D01*
G01*
X146790000Y-144660900D01*
G75*
G02*
X146690000Y-144560900I0J100000D01*
G01*
X146690000Y-144360900D01*
G75*
G02*
X146790000Y-144260900I100000J0D01*
G01*
X148065000Y-144260900D01*
G75*
G02*
X148165000Y-144360900I0J-100000D01*
G01*
G37*
G36*
G01*
X148165000Y-143710900D02*
X148165000Y-143910900D01*
G75*
G02*
X148065000Y-144010900I-100000J0D01*
G01*
X146790000Y-144010900D01*
G75*
G02*
X146690000Y-143910900I0J100000D01*
G01*
X146690000Y-143710900D01*
G75*
G02*
X146790000Y-143610900I100000J0D01*
G01*
X148065000Y-143610900D01*
G75*
G02*
X148165000Y-143710900I0J-100000D01*
G01*
G37*
G36*
G01*
X148165000Y-143060900D02*
X148165000Y-143260900D01*
G75*
G02*
X148065000Y-143360900I-100000J0D01*
G01*
X146790000Y-143360900D01*
G75*
G02*
X146690000Y-143260900I0J100000D01*
G01*
X146690000Y-143060900D01*
G75*
G02*
X146790000Y-142960900I100000J0D01*
G01*
X148065000Y-142960900D01*
G75*
G02*
X148165000Y-143060900I0J-100000D01*
G01*
G37*
G36*
G01*
X148165000Y-142410900D02*
X148165000Y-142610900D01*
G75*
G02*
X148065000Y-142710900I-100000J0D01*
G01*
X146790000Y-142710900D01*
G75*
G02*
X146690000Y-142610900I0J100000D01*
G01*
X146690000Y-142410900D01*
G75*
G02*
X146790000Y-142310900I100000J0D01*
G01*
X148065000Y-142310900D01*
G75*
G02*
X148165000Y-142410900I0J-100000D01*
G01*
G37*
G36*
G01*
X142440000Y-142410900D02*
X142440000Y-142610900D01*
G75*
G02*
X142340000Y-142710900I-100000J0D01*
G01*
X141065000Y-142710900D01*
G75*
G02*
X140965000Y-142610900I0J100000D01*
G01*
X140965000Y-142410900D01*
G75*
G02*
X141065000Y-142310900I100000J0D01*
G01*
X142340000Y-142310900D01*
G75*
G02*
X142440000Y-142410900I0J-100000D01*
G01*
G37*
G36*
G01*
X142440000Y-143060900D02*
X142440000Y-143260900D01*
G75*
G02*
X142340000Y-143360900I-100000J0D01*
G01*
X141065000Y-143360900D01*
G75*
G02*
X140965000Y-143260900I0J100000D01*
G01*
X140965000Y-143060900D01*
G75*
G02*
X141065000Y-142960900I100000J0D01*
G01*
X142340000Y-142960900D01*
G75*
G02*
X142440000Y-143060900I0J-100000D01*
G01*
G37*
G36*
G01*
X142440000Y-143710900D02*
X142440000Y-143910900D01*
G75*
G02*
X142340000Y-144010900I-100000J0D01*
G01*
X141065000Y-144010900D01*
G75*
G02*
X140965000Y-143910900I0J100000D01*
G01*
X140965000Y-143710900D01*
G75*
G02*
X141065000Y-143610900I100000J0D01*
G01*
X142340000Y-143610900D01*
G75*
G02*
X142440000Y-143710900I0J-100000D01*
G01*
G37*
G36*
G01*
X142440000Y-144360900D02*
X142440000Y-144560900D01*
G75*
G02*
X142340000Y-144660900I-100000J0D01*
G01*
X141065000Y-144660900D01*
G75*
G02*
X140965000Y-144560900I0J100000D01*
G01*
X140965000Y-144360900D01*
G75*
G02*
X141065000Y-144260900I100000J0D01*
G01*
X142340000Y-144260900D01*
G75*
G02*
X142440000Y-144360900I0J-100000D01*
G01*
G37*
G36*
G01*
X142440000Y-145010900D02*
X142440000Y-145210900D01*
G75*
G02*
X142340000Y-145310900I-100000J0D01*
G01*
X141065000Y-145310900D01*
G75*
G02*
X140965000Y-145210900I0J100000D01*
G01*
X140965000Y-145010900D01*
G75*
G02*
X141065000Y-144910900I100000J0D01*
G01*
X142340000Y-144910900D01*
G75*
G02*
X142440000Y-145010900I0J-100000D01*
G01*
G37*
G36*
G01*
X142440000Y-145660900D02*
X142440000Y-145860900D01*
G75*
G02*
X142340000Y-145960900I-100000J0D01*
G01*
X141065000Y-145960900D01*
G75*
G02*
X140965000Y-145860900I0J100000D01*
G01*
X140965000Y-145660900D01*
G75*
G02*
X141065000Y-145560900I100000J0D01*
G01*
X142340000Y-145560900D01*
G75*
G02*
X142440000Y-145660900I0J-100000D01*
G01*
G37*
G36*
G01*
X142440000Y-146310900D02*
X142440000Y-146510900D01*
G75*
G02*
X142340000Y-146610900I-100000J0D01*
G01*
X141065000Y-146610900D01*
G75*
G02*
X140965000Y-146510900I0J100000D01*
G01*
X140965000Y-146310900D01*
G75*
G02*
X141065000Y-146210900I100000J0D01*
G01*
X142340000Y-146210900D01*
G75*
G02*
X142440000Y-146310900I0J-100000D01*
G01*
G37*
G36*
G01*
X142440000Y-146960900D02*
X142440000Y-147160900D01*
G75*
G02*
X142340000Y-147260900I-100000J0D01*
G01*
X141065000Y-147260900D01*
G75*
G02*
X140965000Y-147160900I0J100000D01*
G01*
X140965000Y-146960900D01*
G75*
G02*
X141065000Y-146860900I100000J0D01*
G01*
X142340000Y-146860900D01*
G75*
G02*
X142440000Y-146960900I0J-100000D01*
G01*
G37*
G36*
G01*
X142440000Y-147610900D02*
X142440000Y-147810900D01*
G75*
G02*
X142340000Y-147910900I-100000J0D01*
G01*
X141065000Y-147910900D01*
G75*
G02*
X140965000Y-147810900I0J100000D01*
G01*
X140965000Y-147610900D01*
G75*
G02*
X141065000Y-147510900I100000J0D01*
G01*
X142340000Y-147510900D01*
G75*
G02*
X142440000Y-147610900I0J-100000D01*
G01*
G37*
G36*
G01*
X142440000Y-148260900D02*
X142440000Y-148460900D01*
G75*
G02*
X142340000Y-148560900I-100000J0D01*
G01*
X141065000Y-148560900D01*
G75*
G02*
X140965000Y-148460900I0J100000D01*
G01*
X140965000Y-148260900D01*
G75*
G02*
X141065000Y-148160900I100000J0D01*
G01*
X142340000Y-148160900D01*
G75*
G02*
X142440000Y-148260900I0J-100000D01*
G01*
G37*
G36*
G01*
X148165000Y-141199700D02*
X148165000Y-141399700D01*
G75*
G02*
X148065000Y-141499700I-100000J0D01*
G01*
X146790000Y-141499700D01*
G75*
G02*
X146690000Y-141399700I0J100000D01*
G01*
X146690000Y-141199700D01*
G75*
G02*
X146790000Y-141099700I100000J0D01*
G01*
X148065000Y-141099700D01*
G75*
G02*
X148165000Y-141199700I0J-100000D01*
G01*
G37*
G36*
G01*
X148165000Y-140549700D02*
X148165000Y-140749700D01*
G75*
G02*
X148065000Y-140849700I-100000J0D01*
G01*
X146790000Y-140849700D01*
G75*
G02*
X146690000Y-140749700I0J100000D01*
G01*
X146690000Y-140549700D01*
G75*
G02*
X146790000Y-140449700I100000J0D01*
G01*
X148065000Y-140449700D01*
G75*
G02*
X148165000Y-140549700I0J-100000D01*
G01*
G37*
G36*
G01*
X148165000Y-139899700D02*
X148165000Y-140099700D01*
G75*
G02*
X148065000Y-140199700I-100000J0D01*
G01*
X146790000Y-140199700D01*
G75*
G02*
X146690000Y-140099700I0J100000D01*
G01*
X146690000Y-139899700D01*
G75*
G02*
X146790000Y-139799700I100000J0D01*
G01*
X148065000Y-139799700D01*
G75*
G02*
X148165000Y-139899700I0J-100000D01*
G01*
G37*
G36*
G01*
X148165000Y-139249700D02*
X148165000Y-139449700D01*
G75*
G02*
X148065000Y-139549700I-100000J0D01*
G01*
X146790000Y-139549700D01*
G75*
G02*
X146690000Y-139449700I0J100000D01*
G01*
X146690000Y-139249700D01*
G75*
G02*
X146790000Y-139149700I100000J0D01*
G01*
X148065000Y-139149700D01*
G75*
G02*
X148165000Y-139249700I0J-100000D01*
G01*
G37*
G36*
G01*
X148165000Y-138599700D02*
X148165000Y-138799700D01*
G75*
G02*
X148065000Y-138899700I-100000J0D01*
G01*
X146790000Y-138899700D01*
G75*
G02*
X146690000Y-138799700I0J100000D01*
G01*
X146690000Y-138599700D01*
G75*
G02*
X146790000Y-138499700I100000J0D01*
G01*
X148065000Y-138499700D01*
G75*
G02*
X148165000Y-138599700I0J-100000D01*
G01*
G37*
G36*
G01*
X148165000Y-137949700D02*
X148165000Y-138149700D01*
G75*
G02*
X148065000Y-138249700I-100000J0D01*
G01*
X146790000Y-138249700D01*
G75*
G02*
X146690000Y-138149700I0J100000D01*
G01*
X146690000Y-137949700D01*
G75*
G02*
X146790000Y-137849700I100000J0D01*
G01*
X148065000Y-137849700D01*
G75*
G02*
X148165000Y-137949700I0J-100000D01*
G01*
G37*
G36*
G01*
X148165000Y-137299700D02*
X148165000Y-137499700D01*
G75*
G02*
X148065000Y-137599700I-100000J0D01*
G01*
X146790000Y-137599700D01*
G75*
G02*
X146690000Y-137499700I0J100000D01*
G01*
X146690000Y-137299700D01*
G75*
G02*
X146790000Y-137199700I100000J0D01*
G01*
X148065000Y-137199700D01*
G75*
G02*
X148165000Y-137299700I0J-100000D01*
G01*
G37*
G36*
G01*
X148165000Y-136649700D02*
X148165000Y-136849700D01*
G75*
G02*
X148065000Y-136949700I-100000J0D01*
G01*
X146790000Y-136949700D01*
G75*
G02*
X146690000Y-136849700I0J100000D01*
G01*
X146690000Y-136649700D01*
G75*
G02*
X146790000Y-136549700I100000J0D01*
G01*
X148065000Y-136549700D01*
G75*
G02*
X148165000Y-136649700I0J-100000D01*
G01*
G37*
G36*
G01*
X148165000Y-135999700D02*
X148165000Y-136199700D01*
G75*
G02*
X148065000Y-136299700I-100000J0D01*
G01*
X146790000Y-136299700D01*
G75*
G02*
X146690000Y-136199700I0J100000D01*
G01*
X146690000Y-135999700D01*
G75*
G02*
X146790000Y-135899700I100000J0D01*
G01*
X148065000Y-135899700D01*
G75*
G02*
X148165000Y-135999700I0J-100000D01*
G01*
G37*
G36*
G01*
X148165000Y-135349700D02*
X148165000Y-135549700D01*
G75*
G02*
X148065000Y-135649700I-100000J0D01*
G01*
X146790000Y-135649700D01*
G75*
G02*
X146690000Y-135549700I0J100000D01*
G01*
X146690000Y-135349700D01*
G75*
G02*
X146790000Y-135249700I100000J0D01*
G01*
X148065000Y-135249700D01*
G75*
G02*
X148165000Y-135349700I0J-100000D01*
G01*
G37*
G36*
G01*
X142440000Y-135349700D02*
X142440000Y-135549700D01*
G75*
G02*
X142340000Y-135649700I-100000J0D01*
G01*
X141065000Y-135649700D01*
G75*
G02*
X140965000Y-135549700I0J100000D01*
G01*
X140965000Y-135349700D01*
G75*
G02*
X141065000Y-135249700I100000J0D01*
G01*
X142340000Y-135249700D01*
G75*
G02*
X142440000Y-135349700I0J-100000D01*
G01*
G37*
G36*
G01*
X142440000Y-135999700D02*
X142440000Y-136199700D01*
G75*
G02*
X142340000Y-136299700I-100000J0D01*
G01*
X141065000Y-136299700D01*
G75*
G02*
X140965000Y-136199700I0J100000D01*
G01*
X140965000Y-135999700D01*
G75*
G02*
X141065000Y-135899700I100000J0D01*
G01*
X142340000Y-135899700D01*
G75*
G02*
X142440000Y-135999700I0J-100000D01*
G01*
G37*
G36*
G01*
X142440000Y-136649700D02*
X142440000Y-136849700D01*
G75*
G02*
X142340000Y-136949700I-100000J0D01*
G01*
X141065000Y-136949700D01*
G75*
G02*
X140965000Y-136849700I0J100000D01*
G01*
X140965000Y-136649700D01*
G75*
G02*
X141065000Y-136549700I100000J0D01*
G01*
X142340000Y-136549700D01*
G75*
G02*
X142440000Y-136649700I0J-100000D01*
G01*
G37*
G36*
G01*
X142440000Y-137299700D02*
X142440000Y-137499700D01*
G75*
G02*
X142340000Y-137599700I-100000J0D01*
G01*
X141065000Y-137599700D01*
G75*
G02*
X140965000Y-137499700I0J100000D01*
G01*
X140965000Y-137299700D01*
G75*
G02*
X141065000Y-137199700I100000J0D01*
G01*
X142340000Y-137199700D01*
G75*
G02*
X142440000Y-137299700I0J-100000D01*
G01*
G37*
G36*
G01*
X142440000Y-137949700D02*
X142440000Y-138149700D01*
G75*
G02*
X142340000Y-138249700I-100000J0D01*
G01*
X141065000Y-138249700D01*
G75*
G02*
X140965000Y-138149700I0J100000D01*
G01*
X140965000Y-137949700D01*
G75*
G02*
X141065000Y-137849700I100000J0D01*
G01*
X142340000Y-137849700D01*
G75*
G02*
X142440000Y-137949700I0J-100000D01*
G01*
G37*
G36*
G01*
X142440000Y-138599700D02*
X142440000Y-138799700D01*
G75*
G02*
X142340000Y-138899700I-100000J0D01*
G01*
X141065000Y-138899700D01*
G75*
G02*
X140965000Y-138799700I0J100000D01*
G01*
X140965000Y-138599700D01*
G75*
G02*
X141065000Y-138499700I100000J0D01*
G01*
X142340000Y-138499700D01*
G75*
G02*
X142440000Y-138599700I0J-100000D01*
G01*
G37*
G36*
G01*
X142440000Y-139249700D02*
X142440000Y-139449700D01*
G75*
G02*
X142340000Y-139549700I-100000J0D01*
G01*
X141065000Y-139549700D01*
G75*
G02*
X140965000Y-139449700I0J100000D01*
G01*
X140965000Y-139249700D01*
G75*
G02*
X141065000Y-139149700I100000J0D01*
G01*
X142340000Y-139149700D01*
G75*
G02*
X142440000Y-139249700I0J-100000D01*
G01*
G37*
G36*
G01*
X142440000Y-139899700D02*
X142440000Y-140099700D01*
G75*
G02*
X142340000Y-140199700I-100000J0D01*
G01*
X141065000Y-140199700D01*
G75*
G02*
X140965000Y-140099700I0J100000D01*
G01*
X140965000Y-139899700D01*
G75*
G02*
X141065000Y-139799700I100000J0D01*
G01*
X142340000Y-139799700D01*
G75*
G02*
X142440000Y-139899700I0J-100000D01*
G01*
G37*
G36*
G01*
X142440000Y-140549700D02*
X142440000Y-140749700D01*
G75*
G02*
X142340000Y-140849700I-100000J0D01*
G01*
X141065000Y-140849700D01*
G75*
G02*
X140965000Y-140749700I0J100000D01*
G01*
X140965000Y-140549700D01*
G75*
G02*
X141065000Y-140449700I100000J0D01*
G01*
X142340000Y-140449700D01*
G75*
G02*
X142440000Y-140549700I0J-100000D01*
G01*
G37*
G36*
G01*
X142440000Y-141199700D02*
X142440000Y-141399700D01*
G75*
G02*
X142340000Y-141499700I-100000J0D01*
G01*
X141065000Y-141499700D01*
G75*
G02*
X140965000Y-141399700I0J100000D01*
G01*
X140965000Y-141199700D01*
G75*
G02*
X141065000Y-141099700I100000J0D01*
G01*
X142340000Y-141099700D01*
G75*
G02*
X142440000Y-141199700I0J-100000D01*
G01*
G37*
G36*
G01*
X200400000Y-95480000D02*
X200400000Y-94630000D01*
G75*
G02*
X200650000Y-94380000I250000J0D01*
G01*
X201550000Y-94380000D01*
G75*
G02*
X201800000Y-94630000I0J-250000D01*
G01*
X201800000Y-95480000D01*
G75*
G02*
X201550000Y-95730000I-250000J0D01*
G01*
X200650000Y-95730000D01*
G75*
G02*
X200400000Y-95480000I0J250000D01*
G01*
G37*
G36*
G01*
X203100000Y-95480000D02*
X203100000Y-94630000D01*
G75*
G02*
X203350000Y-94380000I250000J0D01*
G01*
X204250000Y-94380000D01*
G75*
G02*
X204500000Y-94630000I0J-250000D01*
G01*
X204500000Y-95480000D01*
G75*
G02*
X204250000Y-95730000I-250000J0D01*
G01*
X203350000Y-95730000D01*
G75*
G02*
X203100000Y-95480000I0J250000D01*
G01*
G37*
G36*
G01*
X90449500Y-133818900D02*
X90449500Y-133318900D01*
G75*
G02*
X90674500Y-133093900I225000J0D01*
G01*
X91124500Y-133093900D01*
G75*
G02*
X91349500Y-133318900I0J-225000D01*
G01*
X91349500Y-133818900D01*
G75*
G02*
X91124500Y-134043900I-225000J0D01*
G01*
X90674500Y-134043900D01*
G75*
G02*
X90449500Y-133818900I0J225000D01*
G01*
G37*
G36*
G01*
X91999500Y-133818900D02*
X91999500Y-133318900D01*
G75*
G02*
X92224500Y-133093900I225000J0D01*
G01*
X92674500Y-133093900D01*
G75*
G02*
X92899500Y-133318900I0J-225000D01*
G01*
X92899500Y-133818900D01*
G75*
G02*
X92674500Y-134043900I-225000J0D01*
G01*
X92224500Y-134043900D01*
G75*
G02*
X91999500Y-133818900I0J225000D01*
G01*
G37*
D10*
X53782500Y-98825500D03*
D11*
X53782500Y-101365500D03*
G36*
G01*
X216730000Y-103035000D02*
X216730000Y-102535000D01*
G75*
G02*
X216955000Y-102310000I225000J0D01*
G01*
X217405000Y-102310000D01*
G75*
G02*
X217630000Y-102535000I0J-225000D01*
G01*
X217630000Y-103035000D01*
G75*
G02*
X217405000Y-103260000I-225000J0D01*
G01*
X216955000Y-103260000D01*
G75*
G02*
X216730000Y-103035000I0J225000D01*
G01*
G37*
G36*
G01*
X218280000Y-103035000D02*
X218280000Y-102535000D01*
G75*
G02*
X218505000Y-102310000I225000J0D01*
G01*
X218955000Y-102310000D01*
G75*
G02*
X219180000Y-102535000I0J-225000D01*
G01*
X219180000Y-103035000D01*
G75*
G02*
X218955000Y-103260000I-225000J0D01*
G01*
X218505000Y-103260000D01*
G75*
G02*
X218280000Y-103035000I0J225000D01*
G01*
G37*
G36*
G01*
X225840000Y-152045000D02*
X225840000Y-151545000D01*
G75*
G02*
X226065000Y-151320000I225000J0D01*
G01*
X226515000Y-151320000D01*
G75*
G02*
X226740000Y-151545000I0J-225000D01*
G01*
X226740000Y-152045000D01*
G75*
G02*
X226515000Y-152270000I-225000J0D01*
G01*
X226065000Y-152270000D01*
G75*
G02*
X225840000Y-152045000I0J225000D01*
G01*
G37*
G36*
G01*
X227390000Y-152045000D02*
X227390000Y-151545000D01*
G75*
G02*
X227615000Y-151320000I225000J0D01*
G01*
X228065000Y-151320000D01*
G75*
G02*
X228290000Y-151545000I0J-225000D01*
G01*
X228290000Y-152045000D01*
G75*
G02*
X228065000Y-152270000I-225000J0D01*
G01*
X227615000Y-152270000D01*
G75*
G02*
X227390000Y-152045000I0J225000D01*
G01*
G37*
G36*
G01*
X224750000Y-103060000D02*
X224750000Y-102510000D01*
G75*
G02*
X224950000Y-102310000I200000J0D01*
G01*
X225350000Y-102310000D01*
G75*
G02*
X225550000Y-102510000I0J-200000D01*
G01*
X225550000Y-103060000D01*
G75*
G02*
X225350000Y-103260000I-200000J0D01*
G01*
X224950000Y-103260000D01*
G75*
G02*
X224750000Y-103060000I0J200000D01*
G01*
G37*
G36*
G01*
X226400000Y-103060000D02*
X226400000Y-102510000D01*
G75*
G02*
X226600000Y-102310000I200000J0D01*
G01*
X227000000Y-102310000D01*
G75*
G02*
X227200000Y-102510000I0J-200000D01*
G01*
X227200000Y-103060000D01*
G75*
G02*
X227000000Y-103260000I-200000J0D01*
G01*
X226600000Y-103260000D01*
G75*
G02*
X226400000Y-103060000I0J200000D01*
G01*
G37*
G36*
G01*
X212280000Y-162605000D02*
X212280000Y-162105000D01*
G75*
G02*
X212505000Y-161880000I225000J0D01*
G01*
X212955000Y-161880000D01*
G75*
G02*
X213180000Y-162105000I0J-225000D01*
G01*
X213180000Y-162605000D01*
G75*
G02*
X212955000Y-162830000I-225000J0D01*
G01*
X212505000Y-162830000D01*
G75*
G02*
X212280000Y-162605000I0J225000D01*
G01*
G37*
G36*
G01*
X213830000Y-162605000D02*
X213830000Y-162105000D01*
G75*
G02*
X214055000Y-161880000I225000J0D01*
G01*
X214505000Y-161880000D01*
G75*
G02*
X214730000Y-162105000I0J-225000D01*
G01*
X214730000Y-162605000D01*
G75*
G02*
X214505000Y-162830000I-225000J0D01*
G01*
X214055000Y-162830000D01*
G75*
G02*
X213830000Y-162605000I0J225000D01*
G01*
G37*
G36*
G01*
X79079500Y-108678900D02*
X79079500Y-107828900D01*
G75*
G02*
X79329500Y-107578900I250000J0D01*
G01*
X80229500Y-107578900D01*
G75*
G02*
X80479500Y-107828900I0J-250000D01*
G01*
X80479500Y-108678900D01*
G75*
G02*
X80229500Y-108928900I-250000J0D01*
G01*
X79329500Y-108928900D01*
G75*
G02*
X79079500Y-108678900I0J250000D01*
G01*
G37*
G36*
G01*
X81779500Y-108678900D02*
X81779500Y-107828900D01*
G75*
G02*
X82029500Y-107578900I250000J0D01*
G01*
X82929500Y-107578900D01*
G75*
G02*
X83179500Y-107828900I0J-250000D01*
G01*
X83179500Y-108678900D01*
G75*
G02*
X82929500Y-108928900I-250000J0D01*
G01*
X82029500Y-108928900D01*
G75*
G02*
X81779500Y-108678900I0J250000D01*
G01*
G37*
G36*
G01*
X88000700Y-149442700D02*
X88000700Y-148892700D01*
G75*
G02*
X88200700Y-148692700I200000J0D01*
G01*
X88600700Y-148692700D01*
G75*
G02*
X88800700Y-148892700I0J-200000D01*
G01*
X88800700Y-149442700D01*
G75*
G02*
X88600700Y-149642700I-200000J0D01*
G01*
X88200700Y-149642700D01*
G75*
G02*
X88000700Y-149442700I0J200000D01*
G01*
G37*
G36*
G01*
X89650700Y-149442700D02*
X89650700Y-148892700D01*
G75*
G02*
X89850700Y-148692700I200000J0D01*
G01*
X90250700Y-148692700D01*
G75*
G02*
X90450700Y-148892700I0J-200000D01*
G01*
X90450700Y-149442700D01*
G75*
G02*
X90250700Y-149642700I-200000J0D01*
G01*
X89850700Y-149642700D01*
G75*
G02*
X89650700Y-149442700I0J200000D01*
G01*
G37*
D12*
X76184500Y-141038900D03*
G36*
X80134500Y-143405400D02*
G01*
X77009500Y-143405400D01*
X77009500Y-142988900D01*
X75534500Y-142988900D01*
X75534500Y-142088900D01*
X77009500Y-142088900D01*
X77009500Y-141672400D01*
X80134500Y-141672400D01*
X80134500Y-143405400D01*
G37*
X76184500Y-144038900D03*
G36*
G01*
X228760000Y-103035000D02*
X228760000Y-102535000D01*
G75*
G02*
X228985000Y-102310000I225000J0D01*
G01*
X229435000Y-102310000D01*
G75*
G02*
X229660000Y-102535000I0J-225000D01*
G01*
X229660000Y-103035000D01*
G75*
G02*
X229435000Y-103260000I-225000J0D01*
G01*
X228985000Y-103260000D01*
G75*
G02*
X228760000Y-103035000I0J225000D01*
G01*
G37*
G36*
G01*
X230310000Y-103035000D02*
X230310000Y-102535000D01*
G75*
G02*
X230535000Y-102310000I225000J0D01*
G01*
X230985000Y-102310000D01*
G75*
G02*
X231210000Y-102535000I0J-225000D01*
G01*
X231210000Y-103035000D01*
G75*
G02*
X230985000Y-103260000I-225000J0D01*
G01*
X230535000Y-103260000D01*
G75*
G02*
X230310000Y-103035000I0J225000D01*
G01*
G37*
G36*
G01*
X240790000Y-103060000D02*
X240790000Y-102510000D01*
G75*
G02*
X240990000Y-102310000I200000J0D01*
G01*
X241390000Y-102310000D01*
G75*
G02*
X241590000Y-102510000I0J-200000D01*
G01*
X241590000Y-103060000D01*
G75*
G02*
X241390000Y-103260000I-200000J0D01*
G01*
X240990000Y-103260000D01*
G75*
G02*
X240790000Y-103060000I0J200000D01*
G01*
G37*
G36*
G01*
X242440000Y-103060000D02*
X242440000Y-102510000D01*
G75*
G02*
X242640000Y-102310000I200000J0D01*
G01*
X243040000Y-102310000D01*
G75*
G02*
X243240000Y-102510000I0J-200000D01*
G01*
X243240000Y-103060000D01*
G75*
G02*
X243040000Y-103260000I-200000J0D01*
G01*
X242640000Y-103260000D01*
G75*
G02*
X242440000Y-103060000I0J200000D01*
G01*
G37*
G36*
G01*
X129820000Y-175145000D02*
X129820000Y-174645000D01*
G75*
G02*
X130045000Y-174420000I225000J0D01*
G01*
X130495000Y-174420000D01*
G75*
G02*
X130720000Y-174645000I0J-225000D01*
G01*
X130720000Y-175145000D01*
G75*
G02*
X130495000Y-175370000I-225000J0D01*
G01*
X130045000Y-175370000D01*
G75*
G02*
X129820000Y-175145000I0J225000D01*
G01*
G37*
G36*
G01*
X131370000Y-175145000D02*
X131370000Y-174645000D01*
G75*
G02*
X131595000Y-174420000I225000J0D01*
G01*
X132045000Y-174420000D01*
G75*
G02*
X132270000Y-174645000I0J-225000D01*
G01*
X132270000Y-175145000D01*
G75*
G02*
X132045000Y-175370000I-225000J0D01*
G01*
X131595000Y-175370000D01*
G75*
G02*
X131370000Y-175145000I0J225000D01*
G01*
G37*
G36*
G01*
X220740000Y-105545000D02*
X220740000Y-105045000D01*
G75*
G02*
X220965000Y-104820000I225000J0D01*
G01*
X221415000Y-104820000D01*
G75*
G02*
X221640000Y-105045000I0J-225000D01*
G01*
X221640000Y-105545000D01*
G75*
G02*
X221415000Y-105770000I-225000J0D01*
G01*
X220965000Y-105770000D01*
G75*
G02*
X220740000Y-105545000I0J225000D01*
G01*
G37*
G36*
G01*
X222290000Y-105545000D02*
X222290000Y-105045000D01*
G75*
G02*
X222515000Y-104820000I225000J0D01*
G01*
X222965000Y-104820000D01*
G75*
G02*
X223190000Y-105045000I0J-225000D01*
G01*
X223190000Y-105545000D01*
G75*
G02*
X222965000Y-105770000I-225000J0D01*
G01*
X222515000Y-105770000D01*
G75*
G02*
X222290000Y-105545000I0J225000D01*
G01*
G37*
G36*
G01*
X78399500Y-119578900D02*
X78399500Y-119028900D01*
G75*
G02*
X78599500Y-118828900I200000J0D01*
G01*
X78999500Y-118828900D01*
G75*
G02*
X79199500Y-119028900I0J-200000D01*
G01*
X79199500Y-119578900D01*
G75*
G02*
X78999500Y-119778900I-200000J0D01*
G01*
X78599500Y-119778900D01*
G75*
G02*
X78399500Y-119578900I0J200000D01*
G01*
G37*
G36*
G01*
X80049500Y-119578900D02*
X80049500Y-119028900D01*
G75*
G02*
X80249500Y-118828900I200000J0D01*
G01*
X80649500Y-118828900D01*
G75*
G02*
X80849500Y-119028900I0J-200000D01*
G01*
X80849500Y-119578900D01*
G75*
G02*
X80649500Y-119778900I-200000J0D01*
G01*
X80249500Y-119778900D01*
G75*
G02*
X80049500Y-119578900I0J200000D01*
G01*
G37*
G36*
G01*
X83689500Y-111333900D02*
X83689500Y-110833900D01*
G75*
G02*
X83914500Y-110608900I225000J0D01*
G01*
X84364500Y-110608900D01*
G75*
G02*
X84589500Y-110833900I0J-225000D01*
G01*
X84589500Y-111333900D01*
G75*
G02*
X84364500Y-111558900I-225000J0D01*
G01*
X83914500Y-111558900D01*
G75*
G02*
X83689500Y-111333900I0J225000D01*
G01*
G37*
G36*
G01*
X85239500Y-111333900D02*
X85239500Y-110833900D01*
G75*
G02*
X85464500Y-110608900I225000J0D01*
G01*
X85914500Y-110608900D01*
G75*
G02*
X86139500Y-110833900I0J-225000D01*
G01*
X86139500Y-111333900D01*
G75*
G02*
X85914500Y-111558900I-225000J0D01*
G01*
X85464500Y-111558900D01*
G75*
G02*
X85239500Y-111333900I0J225000D01*
G01*
G37*
G36*
G01*
X52237500Y-105230500D02*
X52237500Y-104680500D01*
G75*
G02*
X52437500Y-104480500I200000J0D01*
G01*
X52837500Y-104480500D01*
G75*
G02*
X53037500Y-104680500I0J-200000D01*
G01*
X53037500Y-105230500D01*
G75*
G02*
X52837500Y-105430500I-200000J0D01*
G01*
X52437500Y-105430500D01*
G75*
G02*
X52237500Y-105230500I0J200000D01*
G01*
G37*
G36*
G01*
X53887500Y-105230500D02*
X53887500Y-104680500D01*
G75*
G02*
X54087500Y-104480500I200000J0D01*
G01*
X54487500Y-104480500D01*
G75*
G02*
X54687500Y-104680500I0J-200000D01*
G01*
X54687500Y-105230500D01*
G75*
G02*
X54487500Y-105430500I-200000J0D01*
G01*
X54087500Y-105430500D01*
G75*
G02*
X53887500Y-105230500I0J200000D01*
G01*
G37*
D10*
X77084500Y-134638900D03*
D11*
X77084500Y-137178900D03*
D13*
X81159500Y-136138900D03*
X83909500Y-136138900D03*
X83909500Y-133938900D03*
X81159500Y-133938900D03*
G36*
G01*
X232770000Y-103060000D02*
X232770000Y-102510000D01*
G75*
G02*
X232970000Y-102310000I200000J0D01*
G01*
X233370000Y-102310000D01*
G75*
G02*
X233570000Y-102510000I0J-200000D01*
G01*
X233570000Y-103060000D01*
G75*
G02*
X233370000Y-103260000I-200000J0D01*
G01*
X232970000Y-103260000D01*
G75*
G02*
X232770000Y-103060000I0J200000D01*
G01*
G37*
G36*
G01*
X234420000Y-103060000D02*
X234420000Y-102510000D01*
G75*
G02*
X234620000Y-102310000I200000J0D01*
G01*
X235020000Y-102310000D01*
G75*
G02*
X235220000Y-102510000I0J-200000D01*
G01*
X235220000Y-103060000D01*
G75*
G02*
X235020000Y-103260000I-200000J0D01*
G01*
X234620000Y-103260000D01*
G75*
G02*
X234420000Y-103060000I0J200000D01*
G01*
G37*
G36*
G01*
X75539500Y-147068900D02*
X75539500Y-146568900D01*
G75*
G02*
X75764500Y-146343900I225000J0D01*
G01*
X76214500Y-146343900D01*
G75*
G02*
X76439500Y-146568900I0J-225000D01*
G01*
X76439500Y-147068900D01*
G75*
G02*
X76214500Y-147293900I-225000J0D01*
G01*
X75764500Y-147293900D01*
G75*
G02*
X75539500Y-147068900I0J225000D01*
G01*
G37*
G36*
G01*
X77089500Y-147068900D02*
X77089500Y-146568900D01*
G75*
G02*
X77314500Y-146343900I225000J0D01*
G01*
X77764500Y-146343900D01*
G75*
G02*
X77989500Y-146568900I0J-225000D01*
G01*
X77989500Y-147068900D01*
G75*
G02*
X77764500Y-147293900I-225000J0D01*
G01*
X77314500Y-147293900D01*
G75*
G02*
X77089500Y-147068900I0J225000D01*
G01*
G37*
G36*
G01*
X216290000Y-160095000D02*
X216290000Y-159595000D01*
G75*
G02*
X216515000Y-159370000I225000J0D01*
G01*
X216965000Y-159370000D01*
G75*
G02*
X217190000Y-159595000I0J-225000D01*
G01*
X217190000Y-160095000D01*
G75*
G02*
X216965000Y-160320000I-225000J0D01*
G01*
X216515000Y-160320000D01*
G75*
G02*
X216290000Y-160095000I0J225000D01*
G01*
G37*
G36*
G01*
X217840000Y-160095000D02*
X217840000Y-159595000D01*
G75*
G02*
X218065000Y-159370000I225000J0D01*
G01*
X218515000Y-159370000D01*
G75*
G02*
X218740000Y-159595000I0J-225000D01*
G01*
X218740000Y-160095000D01*
G75*
G02*
X218515000Y-160320000I-225000J0D01*
G01*
X218065000Y-160320000D01*
G75*
G02*
X217840000Y-160095000I0J225000D01*
G01*
G37*
G36*
G01*
X52237500Y-107715500D02*
X52237500Y-107215500D01*
G75*
G02*
X52462500Y-106990500I225000J0D01*
G01*
X52912500Y-106990500D01*
G75*
G02*
X53137500Y-107215500I0J-225000D01*
G01*
X53137500Y-107715500D01*
G75*
G02*
X52912500Y-107940500I-225000J0D01*
G01*
X52462500Y-107940500D01*
G75*
G02*
X52237500Y-107715500I0J225000D01*
G01*
G37*
G36*
G01*
X53787500Y-107715500D02*
X53787500Y-107215500D01*
G75*
G02*
X54012500Y-106990500I225000J0D01*
G01*
X54462500Y-106990500D01*
G75*
G02*
X54687500Y-107215500I0J-225000D01*
G01*
X54687500Y-107715500D01*
G75*
G02*
X54462500Y-107940500I-225000J0D01*
G01*
X54012500Y-107940500D01*
G75*
G02*
X53787500Y-107715500I0J225000D01*
G01*
G37*
G36*
G01*
X112712500Y-121888329D02*
X112712500Y-121688329D01*
G75*
G02*
X112812500Y-121588329I100000J0D01*
G01*
X114087500Y-121588329D01*
G75*
G02*
X114187500Y-121688329I0J-100000D01*
G01*
X114187500Y-121888329D01*
G75*
G02*
X114087500Y-121988329I-100000J0D01*
G01*
X112812500Y-121988329D01*
G75*
G02*
X112712500Y-121888329I0J100000D01*
G01*
G37*
G36*
G01*
X112712500Y-122538329D02*
X112712500Y-122338329D01*
G75*
G02*
X112812500Y-122238329I100000J0D01*
G01*
X114087500Y-122238329D01*
G75*
G02*
X114187500Y-122338329I0J-100000D01*
G01*
X114187500Y-122538329D01*
G75*
G02*
X114087500Y-122638329I-100000J0D01*
G01*
X112812500Y-122638329D01*
G75*
G02*
X112712500Y-122538329I0J100000D01*
G01*
G37*
G36*
G01*
X112712500Y-123188329D02*
X112712500Y-122988329D01*
G75*
G02*
X112812500Y-122888329I100000J0D01*
G01*
X114087500Y-122888329D01*
G75*
G02*
X114187500Y-122988329I0J-100000D01*
G01*
X114187500Y-123188329D01*
G75*
G02*
X114087500Y-123288329I-100000J0D01*
G01*
X112812500Y-123288329D01*
G75*
G02*
X112712500Y-123188329I0J100000D01*
G01*
G37*
G36*
G01*
X112712500Y-123838329D02*
X112712500Y-123638329D01*
G75*
G02*
X112812500Y-123538329I100000J0D01*
G01*
X114087500Y-123538329D01*
G75*
G02*
X114187500Y-123638329I0J-100000D01*
G01*
X114187500Y-123838329D01*
G75*
G02*
X114087500Y-123938329I-100000J0D01*
G01*
X112812500Y-123938329D01*
G75*
G02*
X112712500Y-123838329I0J100000D01*
G01*
G37*
G36*
G01*
X112712500Y-124488329D02*
X112712500Y-124288329D01*
G75*
G02*
X112812500Y-124188329I100000J0D01*
G01*
X114087500Y-124188329D01*
G75*
G02*
X114187500Y-124288329I0J-100000D01*
G01*
X114187500Y-124488329D01*
G75*
G02*
X114087500Y-124588329I-100000J0D01*
G01*
X112812500Y-124588329D01*
G75*
G02*
X112712500Y-124488329I0J100000D01*
G01*
G37*
G36*
G01*
X112712500Y-125138329D02*
X112712500Y-124938329D01*
G75*
G02*
X112812500Y-124838329I100000J0D01*
G01*
X114087500Y-124838329D01*
G75*
G02*
X114187500Y-124938329I0J-100000D01*
G01*
X114187500Y-125138329D01*
G75*
G02*
X114087500Y-125238329I-100000J0D01*
G01*
X112812500Y-125238329D01*
G75*
G02*
X112712500Y-125138329I0J100000D01*
G01*
G37*
G36*
G01*
X112712500Y-125788329D02*
X112712500Y-125588329D01*
G75*
G02*
X112812500Y-125488329I100000J0D01*
G01*
X114087500Y-125488329D01*
G75*
G02*
X114187500Y-125588329I0J-100000D01*
G01*
X114187500Y-125788329D01*
G75*
G02*
X114087500Y-125888329I-100000J0D01*
G01*
X112812500Y-125888329D01*
G75*
G02*
X112712500Y-125788329I0J100000D01*
G01*
G37*
G36*
G01*
X112712500Y-126438329D02*
X112712500Y-126238329D01*
G75*
G02*
X112812500Y-126138329I100000J0D01*
G01*
X114087500Y-126138329D01*
G75*
G02*
X114187500Y-126238329I0J-100000D01*
G01*
X114187500Y-126438329D01*
G75*
G02*
X114087500Y-126538329I-100000J0D01*
G01*
X112812500Y-126538329D01*
G75*
G02*
X112712500Y-126438329I0J100000D01*
G01*
G37*
G36*
G01*
X112712500Y-127088329D02*
X112712500Y-126888329D01*
G75*
G02*
X112812500Y-126788329I100000J0D01*
G01*
X114087500Y-126788329D01*
G75*
G02*
X114187500Y-126888329I0J-100000D01*
G01*
X114187500Y-127088329D01*
G75*
G02*
X114087500Y-127188329I-100000J0D01*
G01*
X112812500Y-127188329D01*
G75*
G02*
X112712500Y-127088329I0J100000D01*
G01*
G37*
G36*
G01*
X112712500Y-127738329D02*
X112712500Y-127538329D01*
G75*
G02*
X112812500Y-127438329I100000J0D01*
G01*
X114087500Y-127438329D01*
G75*
G02*
X114187500Y-127538329I0J-100000D01*
G01*
X114187500Y-127738329D01*
G75*
G02*
X114087500Y-127838329I-100000J0D01*
G01*
X112812500Y-127838329D01*
G75*
G02*
X112712500Y-127738329I0J100000D01*
G01*
G37*
G36*
G01*
X118437500Y-127738329D02*
X118437500Y-127538329D01*
G75*
G02*
X118537500Y-127438329I100000J0D01*
G01*
X119812500Y-127438329D01*
G75*
G02*
X119912500Y-127538329I0J-100000D01*
G01*
X119912500Y-127738329D01*
G75*
G02*
X119812500Y-127838329I-100000J0D01*
G01*
X118537500Y-127838329D01*
G75*
G02*
X118437500Y-127738329I0J100000D01*
G01*
G37*
G36*
G01*
X118437500Y-127088329D02*
X118437500Y-126888329D01*
G75*
G02*
X118537500Y-126788329I100000J0D01*
G01*
X119812500Y-126788329D01*
G75*
G02*
X119912500Y-126888329I0J-100000D01*
G01*
X119912500Y-127088329D01*
G75*
G02*
X119812500Y-127188329I-100000J0D01*
G01*
X118537500Y-127188329D01*
G75*
G02*
X118437500Y-127088329I0J100000D01*
G01*
G37*
G36*
G01*
X118437500Y-126438329D02*
X118437500Y-126238329D01*
G75*
G02*
X118537500Y-126138329I100000J0D01*
G01*
X119812500Y-126138329D01*
G75*
G02*
X119912500Y-126238329I0J-100000D01*
G01*
X119912500Y-126438329D01*
G75*
G02*
X119812500Y-126538329I-100000J0D01*
G01*
X118537500Y-126538329D01*
G75*
G02*
X118437500Y-126438329I0J100000D01*
G01*
G37*
G36*
G01*
X118437500Y-125788329D02*
X118437500Y-125588329D01*
G75*
G02*
X118537500Y-125488329I100000J0D01*
G01*
X119812500Y-125488329D01*
G75*
G02*
X119912500Y-125588329I0J-100000D01*
G01*
X119912500Y-125788329D01*
G75*
G02*
X119812500Y-125888329I-100000J0D01*
G01*
X118537500Y-125888329D01*
G75*
G02*
X118437500Y-125788329I0J100000D01*
G01*
G37*
G36*
G01*
X118437500Y-125138329D02*
X118437500Y-124938329D01*
G75*
G02*
X118537500Y-124838329I100000J0D01*
G01*
X119812500Y-124838329D01*
G75*
G02*
X119912500Y-124938329I0J-100000D01*
G01*
X119912500Y-125138329D01*
G75*
G02*
X119812500Y-125238329I-100000J0D01*
G01*
X118537500Y-125238329D01*
G75*
G02*
X118437500Y-125138329I0J100000D01*
G01*
G37*
G36*
G01*
X118437500Y-124488329D02*
X118437500Y-124288329D01*
G75*
G02*
X118537500Y-124188329I100000J0D01*
G01*
X119812500Y-124188329D01*
G75*
G02*
X119912500Y-124288329I0J-100000D01*
G01*
X119912500Y-124488329D01*
G75*
G02*
X119812500Y-124588329I-100000J0D01*
G01*
X118537500Y-124588329D01*
G75*
G02*
X118437500Y-124488329I0J100000D01*
G01*
G37*
G36*
G01*
X118437500Y-123838329D02*
X118437500Y-123638329D01*
G75*
G02*
X118537500Y-123538329I100000J0D01*
G01*
X119812500Y-123538329D01*
G75*
G02*
X119912500Y-123638329I0J-100000D01*
G01*
X119912500Y-123838329D01*
G75*
G02*
X119812500Y-123938329I-100000J0D01*
G01*
X118537500Y-123938329D01*
G75*
G02*
X118437500Y-123838329I0J100000D01*
G01*
G37*
G36*
G01*
X118437500Y-123188329D02*
X118437500Y-122988329D01*
G75*
G02*
X118537500Y-122888329I100000J0D01*
G01*
X119812500Y-122888329D01*
G75*
G02*
X119912500Y-122988329I0J-100000D01*
G01*
X119912500Y-123188329D01*
G75*
G02*
X119812500Y-123288329I-100000J0D01*
G01*
X118537500Y-123288329D01*
G75*
G02*
X118437500Y-123188329I0J100000D01*
G01*
G37*
G36*
G01*
X118437500Y-122538329D02*
X118437500Y-122338329D01*
G75*
G02*
X118537500Y-122238329I100000J0D01*
G01*
X119812500Y-122238329D01*
G75*
G02*
X119912500Y-122338329I0J-100000D01*
G01*
X119912500Y-122538329D01*
G75*
G02*
X119812500Y-122638329I-100000J0D01*
G01*
X118537500Y-122638329D01*
G75*
G02*
X118437500Y-122538329I0J100000D01*
G01*
G37*
G36*
G01*
X118437500Y-121888329D02*
X118437500Y-121688329D01*
G75*
G02*
X118537500Y-121588329I100000J0D01*
G01*
X119812500Y-121588329D01*
G75*
G02*
X119912500Y-121688329I0J-100000D01*
G01*
X119912500Y-121888329D01*
G75*
G02*
X119812500Y-121988329I-100000J0D01*
G01*
X118537500Y-121988329D01*
G75*
G02*
X118437500Y-121888329I0J100000D01*
G01*
G37*
G36*
G01*
X242980000Y-95750000D02*
X242980000Y-94500000D01*
G75*
G02*
X243230000Y-94250000I250000J0D01*
G01*
X243980000Y-94250000D01*
G75*
G02*
X244230000Y-94500000I0J-250000D01*
G01*
X244230000Y-95750000D01*
G75*
G02*
X243980000Y-96000000I-250000J0D01*
G01*
X243230000Y-96000000D01*
G75*
G02*
X242980000Y-95750000I0J250000D01*
G01*
G37*
G36*
G01*
X245780000Y-95750000D02*
X245780000Y-94500000D01*
G75*
G02*
X246030000Y-94250000I250000J0D01*
G01*
X246780000Y-94250000D01*
G75*
G02*
X247030000Y-94500000I0J-250000D01*
G01*
X247030000Y-95750000D01*
G75*
G02*
X246780000Y-96000000I-250000J0D01*
G01*
X246030000Y-96000000D01*
G75*
G02*
X245780000Y-95750000I0J250000D01*
G01*
G37*
G36*
G01*
X154411896Y-122171489D02*
X154305830Y-122065423D01*
G75*
G02*
X154305830Y-121959357I53033J53033D01*
G01*
X155242746Y-121022441D01*
G75*
G02*
X155348812Y-121022441I53033J-53033D01*
G01*
X155454878Y-121128507D01*
G75*
G02*
X155454878Y-121234573I-53033J-53033D01*
G01*
X154517962Y-122171489D01*
G75*
G02*
X154411896Y-122171489I-53033J53033D01*
G01*
G37*
G36*
G01*
X154765449Y-122525042D02*
X154659383Y-122418976D01*
G75*
G02*
X154659383Y-122312910I53033J53033D01*
G01*
X155596299Y-121375994D01*
G75*
G02*
X155702365Y-121375994I53033J-53033D01*
G01*
X155808431Y-121482060D01*
G75*
G02*
X155808431Y-121588126I-53033J-53033D01*
G01*
X154871515Y-122525042D01*
G75*
G02*
X154765449Y-122525042I-53033J53033D01*
G01*
G37*
G36*
G01*
X155119002Y-122878596D02*
X155012936Y-122772530D01*
G75*
G02*
X155012936Y-122666464I53033J53033D01*
G01*
X155949852Y-121729548D01*
G75*
G02*
X156055918Y-121729548I53033J-53033D01*
G01*
X156161984Y-121835614D01*
G75*
G02*
X156161984Y-121941680I-53033J-53033D01*
G01*
X155225068Y-122878596D01*
G75*
G02*
X155119002Y-122878596I-53033J53033D01*
G01*
G37*
G36*
G01*
X155472556Y-123232149D02*
X155366490Y-123126083D01*
G75*
G02*
X155366490Y-123020017I53033J53033D01*
G01*
X156303406Y-122083101D01*
G75*
G02*
X156409472Y-122083101I53033J-53033D01*
G01*
X156515538Y-122189167D01*
G75*
G02*
X156515538Y-122295233I-53033J-53033D01*
G01*
X155578622Y-123232149D01*
G75*
G02*
X155472556Y-123232149I-53033J53033D01*
G01*
G37*
G36*
G01*
X155826109Y-123585703D02*
X155720043Y-123479637D01*
G75*
G02*
X155720043Y-123373571I53033J53033D01*
G01*
X156656959Y-122436655D01*
G75*
G02*
X156763025Y-122436655I53033J-53033D01*
G01*
X156869091Y-122542721D01*
G75*
G02*
X156869091Y-122648787I-53033J-53033D01*
G01*
X155932175Y-123585703D01*
G75*
G02*
X155826109Y-123585703I-53033J53033D01*
G01*
G37*
G36*
G01*
X156179663Y-123939256D02*
X156073597Y-123833190D01*
G75*
G02*
X156073597Y-123727124I53033J53033D01*
G01*
X157010513Y-122790208D01*
G75*
G02*
X157116579Y-122790208I53033J-53033D01*
G01*
X157222645Y-122896274D01*
G75*
G02*
X157222645Y-123002340I-53033J-53033D01*
G01*
X156285729Y-123939256D01*
G75*
G02*
X156179663Y-123939256I-53033J53033D01*
G01*
G37*
G36*
G01*
X156533216Y-124292809D02*
X156427150Y-124186743D01*
G75*
G02*
X156427150Y-124080677I53033J53033D01*
G01*
X157364066Y-123143761D01*
G75*
G02*
X157470132Y-123143761I53033J-53033D01*
G01*
X157576198Y-123249827D01*
G75*
G02*
X157576198Y-123355893I-53033J-53033D01*
G01*
X156639282Y-124292809D01*
G75*
G02*
X156533216Y-124292809I-53033J53033D01*
G01*
G37*
G36*
G01*
X156886769Y-124646363D02*
X156780703Y-124540297D01*
G75*
G02*
X156780703Y-124434231I53033J53033D01*
G01*
X157717619Y-123497315D01*
G75*
G02*
X157823685Y-123497315I53033J-53033D01*
G01*
X157929751Y-123603381D01*
G75*
G02*
X157929751Y-123709447I-53033J-53033D01*
G01*
X156992835Y-124646363D01*
G75*
G02*
X156886769Y-124646363I-53033J53033D01*
G01*
G37*
G36*
G01*
X157240323Y-124999916D02*
X157134257Y-124893850D01*
G75*
G02*
X157134257Y-124787784I53033J53033D01*
G01*
X158071173Y-123850868D01*
G75*
G02*
X158177239Y-123850868I53033J-53033D01*
G01*
X158283305Y-123956934D01*
G75*
G02*
X158283305Y-124063000I-53033J-53033D01*
G01*
X157346389Y-124999916D01*
G75*
G02*
X157240323Y-124999916I-53033J53033D01*
G01*
G37*
G36*
G01*
X157593876Y-125353470D02*
X157487810Y-125247404D01*
G75*
G02*
X157487810Y-125141338I53033J53033D01*
G01*
X158424726Y-124204422D01*
G75*
G02*
X158530792Y-124204422I53033J-53033D01*
G01*
X158636858Y-124310488D01*
G75*
G02*
X158636858Y-124416554I-53033J-53033D01*
G01*
X157699942Y-125353470D01*
G75*
G02*
X157593876Y-125353470I-53033J53033D01*
G01*
G37*
G36*
G01*
X157947430Y-125707023D02*
X157841364Y-125600957D01*
G75*
G02*
X157841364Y-125494891I53033J53033D01*
G01*
X158778280Y-124557975D01*
G75*
G02*
X158884346Y-124557975I53033J-53033D01*
G01*
X158990412Y-124664041D01*
G75*
G02*
X158990412Y-124770107I-53033J-53033D01*
G01*
X158053496Y-125707023D01*
G75*
G02*
X157947430Y-125707023I-53033J53033D01*
G01*
G37*
G36*
G01*
X158300983Y-126060576D02*
X158194917Y-125954510D01*
G75*
G02*
X158194917Y-125848444I53033J53033D01*
G01*
X159131833Y-124911528D01*
G75*
G02*
X159237899Y-124911528I53033J-53033D01*
G01*
X159343965Y-125017594D01*
G75*
G02*
X159343965Y-125123660I-53033J-53033D01*
G01*
X158407049Y-126060576D01*
G75*
G02*
X158300983Y-126060576I-53033J53033D01*
G01*
G37*
G36*
G01*
X158654536Y-126414130D02*
X158548470Y-126308064D01*
G75*
G02*
X158548470Y-126201998I53033J53033D01*
G01*
X159485386Y-125265082D01*
G75*
G02*
X159591452Y-125265082I53033J-53033D01*
G01*
X159697518Y-125371148D01*
G75*
G02*
X159697518Y-125477214I-53033J-53033D01*
G01*
X158760602Y-126414130D01*
G75*
G02*
X158654536Y-126414130I-53033J53033D01*
G01*
G37*
G36*
G01*
X159008090Y-126767683D02*
X158902024Y-126661617D01*
G75*
G02*
X158902024Y-126555551I53033J53033D01*
G01*
X159838940Y-125618635D01*
G75*
G02*
X159945006Y-125618635I53033J-53033D01*
G01*
X160051072Y-125724701D01*
G75*
G02*
X160051072Y-125830767I-53033J-53033D01*
G01*
X159114156Y-126767683D01*
G75*
G02*
X159008090Y-126767683I-53033J53033D01*
G01*
G37*
G36*
G01*
X159361643Y-127121236D02*
X159255577Y-127015170D01*
G75*
G02*
X159255577Y-126909104I53033J53033D01*
G01*
X160192493Y-125972188D01*
G75*
G02*
X160298559Y-125972188I53033J-53033D01*
G01*
X160404625Y-126078254D01*
G75*
G02*
X160404625Y-126184320I-53033J-53033D01*
G01*
X159467709Y-127121236D01*
G75*
G02*
X159361643Y-127121236I-53033J53033D01*
G01*
G37*
G36*
G01*
X159715196Y-127474790D02*
X159609130Y-127368724D01*
G75*
G02*
X159609130Y-127262658I53033J53033D01*
G01*
X160546046Y-126325742D01*
G75*
G02*
X160652112Y-126325742I53033J-53033D01*
G01*
X160758178Y-126431808D01*
G75*
G02*
X160758178Y-126537874I-53033J-53033D01*
G01*
X159821262Y-127474790D01*
G75*
G02*
X159715196Y-127474790I-53033J53033D01*
G01*
G37*
G36*
G01*
X160068750Y-127828343D02*
X159962684Y-127722277D01*
G75*
G02*
X159962684Y-127616211I53033J53033D01*
G01*
X160899600Y-126679295D01*
G75*
G02*
X161005666Y-126679295I53033J-53033D01*
G01*
X161111732Y-126785361D01*
G75*
G02*
X161111732Y-126891427I-53033J-53033D01*
G01*
X160174816Y-127828343D01*
G75*
G02*
X160068750Y-127828343I-53033J53033D01*
G01*
G37*
G36*
G01*
X160422303Y-128181897D02*
X160316237Y-128075831D01*
G75*
G02*
X160316237Y-127969765I53033J53033D01*
G01*
X161253153Y-127032849D01*
G75*
G02*
X161359219Y-127032849I53033J-53033D01*
G01*
X161465285Y-127138915D01*
G75*
G02*
X161465285Y-127244981I-53033J-53033D01*
G01*
X160528369Y-128181897D01*
G75*
G02*
X160422303Y-128181897I-53033J53033D01*
G01*
G37*
G36*
G01*
X160775857Y-128535450D02*
X160669791Y-128429384D01*
G75*
G02*
X160669791Y-128323318I53033J53033D01*
G01*
X161606707Y-127386402D01*
G75*
G02*
X161712773Y-127386402I53033J-53033D01*
G01*
X161818839Y-127492468D01*
G75*
G02*
X161818839Y-127598534I-53033J-53033D01*
G01*
X160881923Y-128535450D01*
G75*
G02*
X160775857Y-128535450I-53033J53033D01*
G01*
G37*
G36*
G01*
X161129410Y-128889003D02*
X161023344Y-128782937D01*
G75*
G02*
X161023344Y-128676871I53033J53033D01*
G01*
X161960260Y-127739955D01*
G75*
G02*
X162066326Y-127739955I53033J-53033D01*
G01*
X162172392Y-127846021D01*
G75*
G02*
X162172392Y-127952087I-53033J-53033D01*
G01*
X161235476Y-128889003D01*
G75*
G02*
X161129410Y-128889003I-53033J53033D01*
G01*
G37*
G36*
G01*
X161482963Y-129242557D02*
X161376897Y-129136491D01*
G75*
G02*
X161376897Y-129030425I53033J53033D01*
G01*
X162313813Y-128093509D01*
G75*
G02*
X162419879Y-128093509I53033J-53033D01*
G01*
X162525945Y-128199575D01*
G75*
G02*
X162525945Y-128305641I-53033J-53033D01*
G01*
X161589029Y-129242557D01*
G75*
G02*
X161482963Y-129242557I-53033J53033D01*
G01*
G37*
G36*
G01*
X161836517Y-129596110D02*
X161730451Y-129490044D01*
G75*
G02*
X161730451Y-129383978I53033J53033D01*
G01*
X162667367Y-128447062D01*
G75*
G02*
X162773433Y-128447062I53033J-53033D01*
G01*
X162879499Y-128553128D01*
G75*
G02*
X162879499Y-128659194I-53033J-53033D01*
G01*
X161942583Y-129596110D01*
G75*
G02*
X161836517Y-129596110I-53033J53033D01*
G01*
G37*
G36*
G01*
X162190070Y-129949664D02*
X162084004Y-129843598D01*
G75*
G02*
X162084004Y-129737532I53033J53033D01*
G01*
X163020920Y-128800616D01*
G75*
G02*
X163126986Y-128800616I53033J-53033D01*
G01*
X163233052Y-128906682D01*
G75*
G02*
X163233052Y-129012748I-53033J-53033D01*
G01*
X162296136Y-129949664D01*
G75*
G02*
X162190070Y-129949664I-53033J53033D01*
G01*
G37*
G36*
G01*
X162543624Y-130303217D02*
X162437558Y-130197151D01*
G75*
G02*
X162437558Y-130091085I53033J53033D01*
G01*
X163374474Y-129154169D01*
G75*
G02*
X163480540Y-129154169I53033J-53033D01*
G01*
X163586606Y-129260235D01*
G75*
G02*
X163586606Y-129366301I-53033J-53033D01*
G01*
X162649690Y-130303217D01*
G75*
G02*
X162543624Y-130303217I-53033J53033D01*
G01*
G37*
G36*
G01*
X162897177Y-130656770D02*
X162791111Y-130550704D01*
G75*
G02*
X162791111Y-130444638I53033J53033D01*
G01*
X163728027Y-129507722D01*
G75*
G02*
X163834093Y-129507722I53033J-53033D01*
G01*
X163940159Y-129613788D01*
G75*
G02*
X163940159Y-129719854I-53033J-53033D01*
G01*
X163003243Y-130656770D01*
G75*
G02*
X162897177Y-130656770I-53033J53033D01*
G01*
G37*
G36*
G01*
X166079157Y-130656770D02*
X165142241Y-129719854D01*
G75*
G02*
X165142241Y-129613788I53033J53033D01*
G01*
X165248307Y-129507722D01*
G75*
G02*
X165354373Y-129507722I53033J-53033D01*
G01*
X166291289Y-130444638D01*
G75*
G02*
X166291289Y-130550704I-53033J-53033D01*
G01*
X166185223Y-130656770D01*
G75*
G02*
X166079157Y-130656770I-53033J53033D01*
G01*
G37*
G36*
G01*
X166432710Y-130303217D02*
X165495794Y-129366301D01*
G75*
G02*
X165495794Y-129260235I53033J53033D01*
G01*
X165601860Y-129154169D01*
G75*
G02*
X165707926Y-129154169I53033J-53033D01*
G01*
X166644842Y-130091085D01*
G75*
G02*
X166644842Y-130197151I-53033J-53033D01*
G01*
X166538776Y-130303217D01*
G75*
G02*
X166432710Y-130303217I-53033J53033D01*
G01*
G37*
G36*
G01*
X166786264Y-129949664D02*
X165849348Y-129012748D01*
G75*
G02*
X165849348Y-128906682I53033J53033D01*
G01*
X165955414Y-128800616D01*
G75*
G02*
X166061480Y-128800616I53033J-53033D01*
G01*
X166998396Y-129737532D01*
G75*
G02*
X166998396Y-129843598I-53033J-53033D01*
G01*
X166892330Y-129949664D01*
G75*
G02*
X166786264Y-129949664I-53033J53033D01*
G01*
G37*
G36*
G01*
X167139817Y-129596110D02*
X166202901Y-128659194D01*
G75*
G02*
X166202901Y-128553128I53033J53033D01*
G01*
X166308967Y-128447062D01*
G75*
G02*
X166415033Y-128447062I53033J-53033D01*
G01*
X167351949Y-129383978D01*
G75*
G02*
X167351949Y-129490044I-53033J-53033D01*
G01*
X167245883Y-129596110D01*
G75*
G02*
X167139817Y-129596110I-53033J53033D01*
G01*
G37*
G36*
G01*
X167493371Y-129242557D02*
X166556455Y-128305641D01*
G75*
G02*
X166556455Y-128199575I53033J53033D01*
G01*
X166662521Y-128093509D01*
G75*
G02*
X166768587Y-128093509I53033J-53033D01*
G01*
X167705503Y-129030425D01*
G75*
G02*
X167705503Y-129136491I-53033J-53033D01*
G01*
X167599437Y-129242557D01*
G75*
G02*
X167493371Y-129242557I-53033J53033D01*
G01*
G37*
G36*
G01*
X167846924Y-128889003D02*
X166910008Y-127952087D01*
G75*
G02*
X166910008Y-127846021I53033J53033D01*
G01*
X167016074Y-127739955D01*
G75*
G02*
X167122140Y-127739955I53033J-53033D01*
G01*
X168059056Y-128676871D01*
G75*
G02*
X168059056Y-128782937I-53033J-53033D01*
G01*
X167952990Y-128889003D01*
G75*
G02*
X167846924Y-128889003I-53033J53033D01*
G01*
G37*
G36*
G01*
X168200477Y-128535450D02*
X167263561Y-127598534D01*
G75*
G02*
X167263561Y-127492468I53033J53033D01*
G01*
X167369627Y-127386402D01*
G75*
G02*
X167475693Y-127386402I53033J-53033D01*
G01*
X168412609Y-128323318D01*
G75*
G02*
X168412609Y-128429384I-53033J-53033D01*
G01*
X168306543Y-128535450D01*
G75*
G02*
X168200477Y-128535450I-53033J53033D01*
G01*
G37*
G36*
G01*
X168554031Y-128181897D02*
X167617115Y-127244981D01*
G75*
G02*
X167617115Y-127138915I53033J53033D01*
G01*
X167723181Y-127032849D01*
G75*
G02*
X167829247Y-127032849I53033J-53033D01*
G01*
X168766163Y-127969765D01*
G75*
G02*
X168766163Y-128075831I-53033J-53033D01*
G01*
X168660097Y-128181897D01*
G75*
G02*
X168554031Y-128181897I-53033J53033D01*
G01*
G37*
G36*
G01*
X168907584Y-127828343D02*
X167970668Y-126891427D01*
G75*
G02*
X167970668Y-126785361I53033J53033D01*
G01*
X168076734Y-126679295D01*
G75*
G02*
X168182800Y-126679295I53033J-53033D01*
G01*
X169119716Y-127616211D01*
G75*
G02*
X169119716Y-127722277I-53033J-53033D01*
G01*
X169013650Y-127828343D01*
G75*
G02*
X168907584Y-127828343I-53033J53033D01*
G01*
G37*
G36*
G01*
X169261138Y-127474790D02*
X168324222Y-126537874D01*
G75*
G02*
X168324222Y-126431808I53033J53033D01*
G01*
X168430288Y-126325742D01*
G75*
G02*
X168536354Y-126325742I53033J-53033D01*
G01*
X169473270Y-127262658D01*
G75*
G02*
X169473270Y-127368724I-53033J-53033D01*
G01*
X169367204Y-127474790D01*
G75*
G02*
X169261138Y-127474790I-53033J53033D01*
G01*
G37*
G36*
G01*
X169614691Y-127121236D02*
X168677775Y-126184320D01*
G75*
G02*
X168677775Y-126078254I53033J53033D01*
G01*
X168783841Y-125972188D01*
G75*
G02*
X168889907Y-125972188I53033J-53033D01*
G01*
X169826823Y-126909104D01*
G75*
G02*
X169826823Y-127015170I-53033J-53033D01*
G01*
X169720757Y-127121236D01*
G75*
G02*
X169614691Y-127121236I-53033J53033D01*
G01*
G37*
G36*
G01*
X169968244Y-126767683D02*
X169031328Y-125830767D01*
G75*
G02*
X169031328Y-125724701I53033J53033D01*
G01*
X169137394Y-125618635D01*
G75*
G02*
X169243460Y-125618635I53033J-53033D01*
G01*
X170180376Y-126555551D01*
G75*
G02*
X170180376Y-126661617I-53033J-53033D01*
G01*
X170074310Y-126767683D01*
G75*
G02*
X169968244Y-126767683I-53033J53033D01*
G01*
G37*
G36*
G01*
X170321798Y-126414130D02*
X169384882Y-125477214D01*
G75*
G02*
X169384882Y-125371148I53033J53033D01*
G01*
X169490948Y-125265082D01*
G75*
G02*
X169597014Y-125265082I53033J-53033D01*
G01*
X170533930Y-126201998D01*
G75*
G02*
X170533930Y-126308064I-53033J-53033D01*
G01*
X170427864Y-126414130D01*
G75*
G02*
X170321798Y-126414130I-53033J53033D01*
G01*
G37*
G36*
G01*
X170675351Y-126060576D02*
X169738435Y-125123660D01*
G75*
G02*
X169738435Y-125017594I53033J53033D01*
G01*
X169844501Y-124911528D01*
G75*
G02*
X169950567Y-124911528I53033J-53033D01*
G01*
X170887483Y-125848444D01*
G75*
G02*
X170887483Y-125954510I-53033J-53033D01*
G01*
X170781417Y-126060576D01*
G75*
G02*
X170675351Y-126060576I-53033J53033D01*
G01*
G37*
G36*
G01*
X171028904Y-125707023D02*
X170091988Y-124770107D01*
G75*
G02*
X170091988Y-124664041I53033J53033D01*
G01*
X170198054Y-124557975D01*
G75*
G02*
X170304120Y-124557975I53033J-53033D01*
G01*
X171241036Y-125494891D01*
G75*
G02*
X171241036Y-125600957I-53033J-53033D01*
G01*
X171134970Y-125707023D01*
G75*
G02*
X171028904Y-125707023I-53033J53033D01*
G01*
G37*
G36*
G01*
X171382458Y-125353470D02*
X170445542Y-124416554D01*
G75*
G02*
X170445542Y-124310488I53033J53033D01*
G01*
X170551608Y-124204422D01*
G75*
G02*
X170657674Y-124204422I53033J-53033D01*
G01*
X171594590Y-125141338D01*
G75*
G02*
X171594590Y-125247404I-53033J-53033D01*
G01*
X171488524Y-125353470D01*
G75*
G02*
X171382458Y-125353470I-53033J53033D01*
G01*
G37*
G36*
G01*
X171736011Y-124999916D02*
X170799095Y-124063000D01*
G75*
G02*
X170799095Y-123956934I53033J53033D01*
G01*
X170905161Y-123850868D01*
G75*
G02*
X171011227Y-123850868I53033J-53033D01*
G01*
X171948143Y-124787784D01*
G75*
G02*
X171948143Y-124893850I-53033J-53033D01*
G01*
X171842077Y-124999916D01*
G75*
G02*
X171736011Y-124999916I-53033J53033D01*
G01*
G37*
G36*
G01*
X172089565Y-124646363D02*
X171152649Y-123709447D01*
G75*
G02*
X171152649Y-123603381I53033J53033D01*
G01*
X171258715Y-123497315D01*
G75*
G02*
X171364781Y-123497315I53033J-53033D01*
G01*
X172301697Y-124434231D01*
G75*
G02*
X172301697Y-124540297I-53033J-53033D01*
G01*
X172195631Y-124646363D01*
G75*
G02*
X172089565Y-124646363I-53033J53033D01*
G01*
G37*
G36*
G01*
X172443118Y-124292809D02*
X171506202Y-123355893D01*
G75*
G02*
X171506202Y-123249827I53033J53033D01*
G01*
X171612268Y-123143761D01*
G75*
G02*
X171718334Y-123143761I53033J-53033D01*
G01*
X172655250Y-124080677D01*
G75*
G02*
X172655250Y-124186743I-53033J-53033D01*
G01*
X172549184Y-124292809D01*
G75*
G02*
X172443118Y-124292809I-53033J53033D01*
G01*
G37*
G36*
G01*
X172796671Y-123939256D02*
X171859755Y-123002340D01*
G75*
G02*
X171859755Y-122896274I53033J53033D01*
G01*
X171965821Y-122790208D01*
G75*
G02*
X172071887Y-122790208I53033J-53033D01*
G01*
X173008803Y-123727124D01*
G75*
G02*
X173008803Y-123833190I-53033J-53033D01*
G01*
X172902737Y-123939256D01*
G75*
G02*
X172796671Y-123939256I-53033J53033D01*
G01*
G37*
G36*
G01*
X173150225Y-123585703D02*
X172213309Y-122648787D01*
G75*
G02*
X172213309Y-122542721I53033J53033D01*
G01*
X172319375Y-122436655D01*
G75*
G02*
X172425441Y-122436655I53033J-53033D01*
G01*
X173362357Y-123373571D01*
G75*
G02*
X173362357Y-123479637I-53033J-53033D01*
G01*
X173256291Y-123585703D01*
G75*
G02*
X173150225Y-123585703I-53033J53033D01*
G01*
G37*
G36*
G01*
X173503778Y-123232149D02*
X172566862Y-122295233D01*
G75*
G02*
X172566862Y-122189167I53033J53033D01*
G01*
X172672928Y-122083101D01*
G75*
G02*
X172778994Y-122083101I53033J-53033D01*
G01*
X173715910Y-123020017D01*
G75*
G02*
X173715910Y-123126083I-53033J-53033D01*
G01*
X173609844Y-123232149D01*
G75*
G02*
X173503778Y-123232149I-53033J53033D01*
G01*
G37*
G36*
G01*
X173857332Y-122878596D02*
X172920416Y-121941680D01*
G75*
G02*
X172920416Y-121835614I53033J53033D01*
G01*
X173026482Y-121729548D01*
G75*
G02*
X173132548Y-121729548I53033J-53033D01*
G01*
X174069464Y-122666464D01*
G75*
G02*
X174069464Y-122772530I-53033J-53033D01*
G01*
X173963398Y-122878596D01*
G75*
G02*
X173857332Y-122878596I-53033J53033D01*
G01*
G37*
G36*
G01*
X174210885Y-122525042D02*
X173273969Y-121588126D01*
G75*
G02*
X173273969Y-121482060I53033J53033D01*
G01*
X173380035Y-121375994D01*
G75*
G02*
X173486101Y-121375994I53033J-53033D01*
G01*
X174423017Y-122312910D01*
G75*
G02*
X174423017Y-122418976I-53033J-53033D01*
G01*
X174316951Y-122525042D01*
G75*
G02*
X174210885Y-122525042I-53033J53033D01*
G01*
G37*
G36*
G01*
X174564438Y-122171489D02*
X173627522Y-121234573D01*
G75*
G02*
X173627522Y-121128507I53033J53033D01*
G01*
X173733588Y-121022441D01*
G75*
G02*
X173839654Y-121022441I53033J-53033D01*
G01*
X174776570Y-121959357D01*
G75*
G02*
X174776570Y-122065423I-53033J-53033D01*
G01*
X174670504Y-122171489D01*
G75*
G02*
X174564438Y-122171489I-53033J53033D01*
G01*
G37*
G36*
G01*
X173733588Y-119820359D02*
X173627522Y-119714293D01*
G75*
G02*
X173627522Y-119608227I53033J53033D01*
G01*
X174564438Y-118671311D01*
G75*
G02*
X174670504Y-118671311I53033J-53033D01*
G01*
X174776570Y-118777377D01*
G75*
G02*
X174776570Y-118883443I-53033J-53033D01*
G01*
X173839654Y-119820359D01*
G75*
G02*
X173733588Y-119820359I-53033J53033D01*
G01*
G37*
G36*
G01*
X173380035Y-119466806D02*
X173273969Y-119360740D01*
G75*
G02*
X173273969Y-119254674I53033J53033D01*
G01*
X174210885Y-118317758D01*
G75*
G02*
X174316951Y-118317758I53033J-53033D01*
G01*
X174423017Y-118423824D01*
G75*
G02*
X174423017Y-118529890I-53033J-53033D01*
G01*
X173486101Y-119466806D01*
G75*
G02*
X173380035Y-119466806I-53033J53033D01*
G01*
G37*
G36*
G01*
X173026482Y-119113252D02*
X172920416Y-119007186D01*
G75*
G02*
X172920416Y-118901120I53033J53033D01*
G01*
X173857332Y-117964204D01*
G75*
G02*
X173963398Y-117964204I53033J-53033D01*
G01*
X174069464Y-118070270D01*
G75*
G02*
X174069464Y-118176336I-53033J-53033D01*
G01*
X173132548Y-119113252D01*
G75*
G02*
X173026482Y-119113252I-53033J53033D01*
G01*
G37*
G36*
G01*
X172672928Y-118759699D02*
X172566862Y-118653633D01*
G75*
G02*
X172566862Y-118547567I53033J53033D01*
G01*
X173503778Y-117610651D01*
G75*
G02*
X173609844Y-117610651I53033J-53033D01*
G01*
X173715910Y-117716717D01*
G75*
G02*
X173715910Y-117822783I-53033J-53033D01*
G01*
X172778994Y-118759699D01*
G75*
G02*
X172672928Y-118759699I-53033J53033D01*
G01*
G37*
G36*
G01*
X172319375Y-118406145D02*
X172213309Y-118300079D01*
G75*
G02*
X172213309Y-118194013I53033J53033D01*
G01*
X173150225Y-117257097D01*
G75*
G02*
X173256291Y-117257097I53033J-53033D01*
G01*
X173362357Y-117363163D01*
G75*
G02*
X173362357Y-117469229I-53033J-53033D01*
G01*
X172425441Y-118406145D01*
G75*
G02*
X172319375Y-118406145I-53033J53033D01*
G01*
G37*
G36*
G01*
X171965821Y-118052592D02*
X171859755Y-117946526D01*
G75*
G02*
X171859755Y-117840460I53033J53033D01*
G01*
X172796671Y-116903544D01*
G75*
G02*
X172902737Y-116903544I53033J-53033D01*
G01*
X173008803Y-117009610D01*
G75*
G02*
X173008803Y-117115676I-53033J-53033D01*
G01*
X172071887Y-118052592D01*
G75*
G02*
X171965821Y-118052592I-53033J53033D01*
G01*
G37*
G36*
G01*
X171612268Y-117699039D02*
X171506202Y-117592973D01*
G75*
G02*
X171506202Y-117486907I53033J53033D01*
G01*
X172443118Y-116549991D01*
G75*
G02*
X172549184Y-116549991I53033J-53033D01*
G01*
X172655250Y-116656057D01*
G75*
G02*
X172655250Y-116762123I-53033J-53033D01*
G01*
X171718334Y-117699039D01*
G75*
G02*
X171612268Y-117699039I-53033J53033D01*
G01*
G37*
G36*
G01*
X171258715Y-117345485D02*
X171152649Y-117239419D01*
G75*
G02*
X171152649Y-117133353I53033J53033D01*
G01*
X172089565Y-116196437D01*
G75*
G02*
X172195631Y-116196437I53033J-53033D01*
G01*
X172301697Y-116302503D01*
G75*
G02*
X172301697Y-116408569I-53033J-53033D01*
G01*
X171364781Y-117345485D01*
G75*
G02*
X171258715Y-117345485I-53033J53033D01*
G01*
G37*
G36*
G01*
X170905161Y-116991932D02*
X170799095Y-116885866D01*
G75*
G02*
X170799095Y-116779800I53033J53033D01*
G01*
X171736011Y-115842884D01*
G75*
G02*
X171842077Y-115842884I53033J-53033D01*
G01*
X171948143Y-115948950D01*
G75*
G02*
X171948143Y-116055016I-53033J-53033D01*
G01*
X171011227Y-116991932D01*
G75*
G02*
X170905161Y-116991932I-53033J53033D01*
G01*
G37*
G36*
G01*
X170551608Y-116638378D02*
X170445542Y-116532312D01*
G75*
G02*
X170445542Y-116426246I53033J53033D01*
G01*
X171382458Y-115489330D01*
G75*
G02*
X171488524Y-115489330I53033J-53033D01*
G01*
X171594590Y-115595396D01*
G75*
G02*
X171594590Y-115701462I-53033J-53033D01*
G01*
X170657674Y-116638378D01*
G75*
G02*
X170551608Y-116638378I-53033J53033D01*
G01*
G37*
G36*
G01*
X170198054Y-116284825D02*
X170091988Y-116178759D01*
G75*
G02*
X170091988Y-116072693I53033J53033D01*
G01*
X171028904Y-115135777D01*
G75*
G02*
X171134970Y-115135777I53033J-53033D01*
G01*
X171241036Y-115241843D01*
G75*
G02*
X171241036Y-115347909I-53033J-53033D01*
G01*
X170304120Y-116284825D01*
G75*
G02*
X170198054Y-116284825I-53033J53033D01*
G01*
G37*
G36*
G01*
X169844501Y-115931272D02*
X169738435Y-115825206D01*
G75*
G02*
X169738435Y-115719140I53033J53033D01*
G01*
X170675351Y-114782224D01*
G75*
G02*
X170781417Y-114782224I53033J-53033D01*
G01*
X170887483Y-114888290D01*
G75*
G02*
X170887483Y-114994356I-53033J-53033D01*
G01*
X169950567Y-115931272D01*
G75*
G02*
X169844501Y-115931272I-53033J53033D01*
G01*
G37*
G36*
G01*
X169490948Y-115577718D02*
X169384882Y-115471652D01*
G75*
G02*
X169384882Y-115365586I53033J53033D01*
G01*
X170321798Y-114428670D01*
G75*
G02*
X170427864Y-114428670I53033J-53033D01*
G01*
X170533930Y-114534736D01*
G75*
G02*
X170533930Y-114640802I-53033J-53033D01*
G01*
X169597014Y-115577718D01*
G75*
G02*
X169490948Y-115577718I-53033J53033D01*
G01*
G37*
G36*
G01*
X169137394Y-115224165D02*
X169031328Y-115118099D01*
G75*
G02*
X169031328Y-115012033I53033J53033D01*
G01*
X169968244Y-114075117D01*
G75*
G02*
X170074310Y-114075117I53033J-53033D01*
G01*
X170180376Y-114181183D01*
G75*
G02*
X170180376Y-114287249I-53033J-53033D01*
G01*
X169243460Y-115224165D01*
G75*
G02*
X169137394Y-115224165I-53033J53033D01*
G01*
G37*
G36*
G01*
X168783841Y-114870612D02*
X168677775Y-114764546D01*
G75*
G02*
X168677775Y-114658480I53033J53033D01*
G01*
X169614691Y-113721564D01*
G75*
G02*
X169720757Y-113721564I53033J-53033D01*
G01*
X169826823Y-113827630D01*
G75*
G02*
X169826823Y-113933696I-53033J-53033D01*
G01*
X168889907Y-114870612D01*
G75*
G02*
X168783841Y-114870612I-53033J53033D01*
G01*
G37*
G36*
G01*
X168430288Y-114517058D02*
X168324222Y-114410992D01*
G75*
G02*
X168324222Y-114304926I53033J53033D01*
G01*
X169261138Y-113368010D01*
G75*
G02*
X169367204Y-113368010I53033J-53033D01*
G01*
X169473270Y-113474076D01*
G75*
G02*
X169473270Y-113580142I-53033J-53033D01*
G01*
X168536354Y-114517058D01*
G75*
G02*
X168430288Y-114517058I-53033J53033D01*
G01*
G37*
G36*
G01*
X168076734Y-114163505D02*
X167970668Y-114057439D01*
G75*
G02*
X167970668Y-113951373I53033J53033D01*
G01*
X168907584Y-113014457D01*
G75*
G02*
X169013650Y-113014457I53033J-53033D01*
G01*
X169119716Y-113120523D01*
G75*
G02*
X169119716Y-113226589I-53033J-53033D01*
G01*
X168182800Y-114163505D01*
G75*
G02*
X168076734Y-114163505I-53033J53033D01*
G01*
G37*
G36*
G01*
X167723181Y-113809951D02*
X167617115Y-113703885D01*
G75*
G02*
X167617115Y-113597819I53033J53033D01*
G01*
X168554031Y-112660903D01*
G75*
G02*
X168660097Y-112660903I53033J-53033D01*
G01*
X168766163Y-112766969D01*
G75*
G02*
X168766163Y-112873035I-53033J-53033D01*
G01*
X167829247Y-113809951D01*
G75*
G02*
X167723181Y-113809951I-53033J53033D01*
G01*
G37*
G36*
G01*
X167369627Y-113456398D02*
X167263561Y-113350332D01*
G75*
G02*
X167263561Y-113244266I53033J53033D01*
G01*
X168200477Y-112307350D01*
G75*
G02*
X168306543Y-112307350I53033J-53033D01*
G01*
X168412609Y-112413416D01*
G75*
G02*
X168412609Y-112519482I-53033J-53033D01*
G01*
X167475693Y-113456398D01*
G75*
G02*
X167369627Y-113456398I-53033J53033D01*
G01*
G37*
G36*
G01*
X167016074Y-113102845D02*
X166910008Y-112996779D01*
G75*
G02*
X166910008Y-112890713I53033J53033D01*
G01*
X167846924Y-111953797D01*
G75*
G02*
X167952990Y-111953797I53033J-53033D01*
G01*
X168059056Y-112059863D01*
G75*
G02*
X168059056Y-112165929I-53033J-53033D01*
G01*
X167122140Y-113102845D01*
G75*
G02*
X167016074Y-113102845I-53033J53033D01*
G01*
G37*
G36*
G01*
X166662521Y-112749291D02*
X166556455Y-112643225D01*
G75*
G02*
X166556455Y-112537159I53033J53033D01*
G01*
X167493371Y-111600243D01*
G75*
G02*
X167599437Y-111600243I53033J-53033D01*
G01*
X167705503Y-111706309D01*
G75*
G02*
X167705503Y-111812375I-53033J-53033D01*
G01*
X166768587Y-112749291D01*
G75*
G02*
X166662521Y-112749291I-53033J53033D01*
G01*
G37*
G36*
G01*
X166308967Y-112395738D02*
X166202901Y-112289672D01*
G75*
G02*
X166202901Y-112183606I53033J53033D01*
G01*
X167139817Y-111246690D01*
G75*
G02*
X167245883Y-111246690I53033J-53033D01*
G01*
X167351949Y-111352756D01*
G75*
G02*
X167351949Y-111458822I-53033J-53033D01*
G01*
X166415033Y-112395738D01*
G75*
G02*
X166308967Y-112395738I-53033J53033D01*
G01*
G37*
G36*
G01*
X165955414Y-112042184D02*
X165849348Y-111936118D01*
G75*
G02*
X165849348Y-111830052I53033J53033D01*
G01*
X166786264Y-110893136D01*
G75*
G02*
X166892330Y-110893136I53033J-53033D01*
G01*
X166998396Y-110999202D01*
G75*
G02*
X166998396Y-111105268I-53033J-53033D01*
G01*
X166061480Y-112042184D01*
G75*
G02*
X165955414Y-112042184I-53033J53033D01*
G01*
G37*
G36*
G01*
X165601860Y-111688631D02*
X165495794Y-111582565D01*
G75*
G02*
X165495794Y-111476499I53033J53033D01*
G01*
X166432710Y-110539583D01*
G75*
G02*
X166538776Y-110539583I53033J-53033D01*
G01*
X166644842Y-110645649D01*
G75*
G02*
X166644842Y-110751715I-53033J-53033D01*
G01*
X165707926Y-111688631D01*
G75*
G02*
X165601860Y-111688631I-53033J53033D01*
G01*
G37*
G36*
G01*
X165248307Y-111335078D02*
X165142241Y-111229012D01*
G75*
G02*
X165142241Y-111122946I53033J53033D01*
G01*
X166079157Y-110186030D01*
G75*
G02*
X166185223Y-110186030I53033J-53033D01*
G01*
X166291289Y-110292096D01*
G75*
G02*
X166291289Y-110398162I-53033J-53033D01*
G01*
X165354373Y-111335078D01*
G75*
G02*
X165248307Y-111335078I-53033J53033D01*
G01*
G37*
G36*
G01*
X163728027Y-111335078D02*
X162791111Y-110398162D01*
G75*
G02*
X162791111Y-110292096I53033J53033D01*
G01*
X162897177Y-110186030D01*
G75*
G02*
X163003243Y-110186030I53033J-53033D01*
G01*
X163940159Y-111122946D01*
G75*
G02*
X163940159Y-111229012I-53033J-53033D01*
G01*
X163834093Y-111335078D01*
G75*
G02*
X163728027Y-111335078I-53033J53033D01*
G01*
G37*
G36*
G01*
X163374474Y-111688631D02*
X162437558Y-110751715D01*
G75*
G02*
X162437558Y-110645649I53033J53033D01*
G01*
X162543624Y-110539583D01*
G75*
G02*
X162649690Y-110539583I53033J-53033D01*
G01*
X163586606Y-111476499D01*
G75*
G02*
X163586606Y-111582565I-53033J-53033D01*
G01*
X163480540Y-111688631D01*
G75*
G02*
X163374474Y-111688631I-53033J53033D01*
G01*
G37*
G36*
G01*
X163020920Y-112042184D02*
X162084004Y-111105268D01*
G75*
G02*
X162084004Y-110999202I53033J53033D01*
G01*
X162190070Y-110893136D01*
G75*
G02*
X162296136Y-110893136I53033J-53033D01*
G01*
X163233052Y-111830052D01*
G75*
G02*
X163233052Y-111936118I-53033J-53033D01*
G01*
X163126986Y-112042184D01*
G75*
G02*
X163020920Y-112042184I-53033J53033D01*
G01*
G37*
G36*
G01*
X162667367Y-112395738D02*
X161730451Y-111458822D01*
G75*
G02*
X161730451Y-111352756I53033J53033D01*
G01*
X161836517Y-111246690D01*
G75*
G02*
X161942583Y-111246690I53033J-53033D01*
G01*
X162879499Y-112183606D01*
G75*
G02*
X162879499Y-112289672I-53033J-53033D01*
G01*
X162773433Y-112395738D01*
G75*
G02*
X162667367Y-112395738I-53033J53033D01*
G01*
G37*
G36*
G01*
X162313813Y-112749291D02*
X161376897Y-111812375D01*
G75*
G02*
X161376897Y-111706309I53033J53033D01*
G01*
X161482963Y-111600243D01*
G75*
G02*
X161589029Y-111600243I53033J-53033D01*
G01*
X162525945Y-112537159D01*
G75*
G02*
X162525945Y-112643225I-53033J-53033D01*
G01*
X162419879Y-112749291D01*
G75*
G02*
X162313813Y-112749291I-53033J53033D01*
G01*
G37*
G36*
G01*
X161960260Y-113102845D02*
X161023344Y-112165929D01*
G75*
G02*
X161023344Y-112059863I53033J53033D01*
G01*
X161129410Y-111953797D01*
G75*
G02*
X161235476Y-111953797I53033J-53033D01*
G01*
X162172392Y-112890713D01*
G75*
G02*
X162172392Y-112996779I-53033J-53033D01*
G01*
X162066326Y-113102845D01*
G75*
G02*
X161960260Y-113102845I-53033J53033D01*
G01*
G37*
G36*
G01*
X161606707Y-113456398D02*
X160669791Y-112519482D01*
G75*
G02*
X160669791Y-112413416I53033J53033D01*
G01*
X160775857Y-112307350D01*
G75*
G02*
X160881923Y-112307350I53033J-53033D01*
G01*
X161818839Y-113244266D01*
G75*
G02*
X161818839Y-113350332I-53033J-53033D01*
G01*
X161712773Y-113456398D01*
G75*
G02*
X161606707Y-113456398I-53033J53033D01*
G01*
G37*
G36*
G01*
X161253153Y-113809951D02*
X160316237Y-112873035D01*
G75*
G02*
X160316237Y-112766969I53033J53033D01*
G01*
X160422303Y-112660903D01*
G75*
G02*
X160528369Y-112660903I53033J-53033D01*
G01*
X161465285Y-113597819D01*
G75*
G02*
X161465285Y-113703885I-53033J-53033D01*
G01*
X161359219Y-113809951D01*
G75*
G02*
X161253153Y-113809951I-53033J53033D01*
G01*
G37*
G36*
G01*
X160899600Y-114163505D02*
X159962684Y-113226589D01*
G75*
G02*
X159962684Y-113120523I53033J53033D01*
G01*
X160068750Y-113014457D01*
G75*
G02*
X160174816Y-113014457I53033J-53033D01*
G01*
X161111732Y-113951373D01*
G75*
G02*
X161111732Y-114057439I-53033J-53033D01*
G01*
X161005666Y-114163505D01*
G75*
G02*
X160899600Y-114163505I-53033J53033D01*
G01*
G37*
G36*
G01*
X160546046Y-114517058D02*
X159609130Y-113580142D01*
G75*
G02*
X159609130Y-113474076I53033J53033D01*
G01*
X159715196Y-113368010D01*
G75*
G02*
X159821262Y-113368010I53033J-53033D01*
G01*
X160758178Y-114304926D01*
G75*
G02*
X160758178Y-114410992I-53033J-53033D01*
G01*
X160652112Y-114517058D01*
G75*
G02*
X160546046Y-114517058I-53033J53033D01*
G01*
G37*
G36*
G01*
X160192493Y-114870612D02*
X159255577Y-113933696D01*
G75*
G02*
X159255577Y-113827630I53033J53033D01*
G01*
X159361643Y-113721564D01*
G75*
G02*
X159467709Y-113721564I53033J-53033D01*
G01*
X160404625Y-114658480D01*
G75*
G02*
X160404625Y-114764546I-53033J-53033D01*
G01*
X160298559Y-114870612D01*
G75*
G02*
X160192493Y-114870612I-53033J53033D01*
G01*
G37*
G36*
G01*
X159838940Y-115224165D02*
X158902024Y-114287249D01*
G75*
G02*
X158902024Y-114181183I53033J53033D01*
G01*
X159008090Y-114075117D01*
G75*
G02*
X159114156Y-114075117I53033J-53033D01*
G01*
X160051072Y-115012033D01*
G75*
G02*
X160051072Y-115118099I-53033J-53033D01*
G01*
X159945006Y-115224165D01*
G75*
G02*
X159838940Y-115224165I-53033J53033D01*
G01*
G37*
G36*
G01*
X159485386Y-115577718D02*
X158548470Y-114640802D01*
G75*
G02*
X158548470Y-114534736I53033J53033D01*
G01*
X158654536Y-114428670D01*
G75*
G02*
X158760602Y-114428670I53033J-53033D01*
G01*
X159697518Y-115365586D01*
G75*
G02*
X159697518Y-115471652I-53033J-53033D01*
G01*
X159591452Y-115577718D01*
G75*
G02*
X159485386Y-115577718I-53033J53033D01*
G01*
G37*
G36*
G01*
X159131833Y-115931272D02*
X158194917Y-114994356D01*
G75*
G02*
X158194917Y-114888290I53033J53033D01*
G01*
X158300983Y-114782224D01*
G75*
G02*
X158407049Y-114782224I53033J-53033D01*
G01*
X159343965Y-115719140D01*
G75*
G02*
X159343965Y-115825206I-53033J-53033D01*
G01*
X159237899Y-115931272D01*
G75*
G02*
X159131833Y-115931272I-53033J53033D01*
G01*
G37*
G36*
G01*
X158778280Y-116284825D02*
X157841364Y-115347909D01*
G75*
G02*
X157841364Y-115241843I53033J53033D01*
G01*
X157947430Y-115135777D01*
G75*
G02*
X158053496Y-115135777I53033J-53033D01*
G01*
X158990412Y-116072693D01*
G75*
G02*
X158990412Y-116178759I-53033J-53033D01*
G01*
X158884346Y-116284825D01*
G75*
G02*
X158778280Y-116284825I-53033J53033D01*
G01*
G37*
G36*
G01*
X158424726Y-116638378D02*
X157487810Y-115701462D01*
G75*
G02*
X157487810Y-115595396I53033J53033D01*
G01*
X157593876Y-115489330D01*
G75*
G02*
X157699942Y-115489330I53033J-53033D01*
G01*
X158636858Y-116426246D01*
G75*
G02*
X158636858Y-116532312I-53033J-53033D01*
G01*
X158530792Y-116638378D01*
G75*
G02*
X158424726Y-116638378I-53033J53033D01*
G01*
G37*
G36*
G01*
X158071173Y-116991932D02*
X157134257Y-116055016D01*
G75*
G02*
X157134257Y-115948950I53033J53033D01*
G01*
X157240323Y-115842884D01*
G75*
G02*
X157346389Y-115842884I53033J-53033D01*
G01*
X158283305Y-116779800D01*
G75*
G02*
X158283305Y-116885866I-53033J-53033D01*
G01*
X158177239Y-116991932D01*
G75*
G02*
X158071173Y-116991932I-53033J53033D01*
G01*
G37*
G36*
G01*
X157717619Y-117345485D02*
X156780703Y-116408569D01*
G75*
G02*
X156780703Y-116302503I53033J53033D01*
G01*
X156886769Y-116196437D01*
G75*
G02*
X156992835Y-116196437I53033J-53033D01*
G01*
X157929751Y-117133353D01*
G75*
G02*
X157929751Y-117239419I-53033J-53033D01*
G01*
X157823685Y-117345485D01*
G75*
G02*
X157717619Y-117345485I-53033J53033D01*
G01*
G37*
G36*
G01*
X157364066Y-117699039D02*
X156427150Y-116762123D01*
G75*
G02*
X156427150Y-116656057I53033J53033D01*
G01*
X156533216Y-116549991D01*
G75*
G02*
X156639282Y-116549991I53033J-53033D01*
G01*
X157576198Y-117486907D01*
G75*
G02*
X157576198Y-117592973I-53033J-53033D01*
G01*
X157470132Y-117699039D01*
G75*
G02*
X157364066Y-117699039I-53033J53033D01*
G01*
G37*
G36*
G01*
X157010513Y-118052592D02*
X156073597Y-117115676D01*
G75*
G02*
X156073597Y-117009610I53033J53033D01*
G01*
X156179663Y-116903544D01*
G75*
G02*
X156285729Y-116903544I53033J-53033D01*
G01*
X157222645Y-117840460D01*
G75*
G02*
X157222645Y-117946526I-53033J-53033D01*
G01*
X157116579Y-118052592D01*
G75*
G02*
X157010513Y-118052592I-53033J53033D01*
G01*
G37*
G36*
G01*
X156656959Y-118406145D02*
X155720043Y-117469229D01*
G75*
G02*
X155720043Y-117363163I53033J53033D01*
G01*
X155826109Y-117257097D01*
G75*
G02*
X155932175Y-117257097I53033J-53033D01*
G01*
X156869091Y-118194013D01*
G75*
G02*
X156869091Y-118300079I-53033J-53033D01*
G01*
X156763025Y-118406145D01*
G75*
G02*
X156656959Y-118406145I-53033J53033D01*
G01*
G37*
G36*
G01*
X156303406Y-118759699D02*
X155366490Y-117822783D01*
G75*
G02*
X155366490Y-117716717I53033J53033D01*
G01*
X155472556Y-117610651D01*
G75*
G02*
X155578622Y-117610651I53033J-53033D01*
G01*
X156515538Y-118547567D01*
G75*
G02*
X156515538Y-118653633I-53033J-53033D01*
G01*
X156409472Y-118759699D01*
G75*
G02*
X156303406Y-118759699I-53033J53033D01*
G01*
G37*
G36*
G01*
X155949852Y-119113252D02*
X155012936Y-118176336D01*
G75*
G02*
X155012936Y-118070270I53033J53033D01*
G01*
X155119002Y-117964204D01*
G75*
G02*
X155225068Y-117964204I53033J-53033D01*
G01*
X156161984Y-118901120D01*
G75*
G02*
X156161984Y-119007186I-53033J-53033D01*
G01*
X156055918Y-119113252D01*
G75*
G02*
X155949852Y-119113252I-53033J53033D01*
G01*
G37*
G36*
G01*
X155596299Y-119466806D02*
X154659383Y-118529890D01*
G75*
G02*
X154659383Y-118423824I53033J53033D01*
G01*
X154765449Y-118317758D01*
G75*
G02*
X154871515Y-118317758I53033J-53033D01*
G01*
X155808431Y-119254674D01*
G75*
G02*
X155808431Y-119360740I-53033J-53033D01*
G01*
X155702365Y-119466806D01*
G75*
G02*
X155596299Y-119466806I-53033J53033D01*
G01*
G37*
G36*
G01*
X155242746Y-119820359D02*
X154305830Y-118883443D01*
G75*
G02*
X154305830Y-118777377I53033J53033D01*
G01*
X154411896Y-118671311D01*
G75*
G02*
X154517962Y-118671311I53033J-53033D01*
G01*
X155454878Y-119608227D01*
G75*
G02*
X155454878Y-119714293I-53033J-53033D01*
G01*
X155348812Y-119820359D01*
G75*
G02*
X155242746Y-119820359I-53033J53033D01*
G01*
G37*
G36*
G01*
X221030000Y-152520000D02*
X221030000Y-151570000D01*
G75*
G02*
X221280000Y-151320000I250000J0D01*
G01*
X221955000Y-151320000D01*
G75*
G02*
X222205000Y-151570000I0J-250000D01*
G01*
X222205000Y-152520000D01*
G75*
G02*
X221955000Y-152770000I-250000J0D01*
G01*
X221280000Y-152770000D01*
G75*
G02*
X221030000Y-152520000I0J250000D01*
G01*
G37*
G36*
G01*
X223105000Y-152520000D02*
X223105000Y-151570000D01*
G75*
G02*
X223355000Y-151320000I250000J0D01*
G01*
X224030000Y-151320000D01*
G75*
G02*
X224280000Y-151570000I0J-250000D01*
G01*
X224280000Y-152520000D01*
G75*
G02*
X224030000Y-152770000I-250000J0D01*
G01*
X223355000Y-152770000D01*
G75*
G02*
X223105000Y-152520000I0J250000D01*
G01*
G37*
G36*
G01*
X151970000Y-152070000D02*
X151970000Y-151520000D01*
G75*
G02*
X152170000Y-151320000I200000J0D01*
G01*
X152570000Y-151320000D01*
G75*
G02*
X152770000Y-151520000I0J-200000D01*
G01*
X152770000Y-152070000D01*
G75*
G02*
X152570000Y-152270000I-200000J0D01*
G01*
X152170000Y-152270000D01*
G75*
G02*
X151970000Y-152070000I0J200000D01*
G01*
G37*
G36*
G01*
X153620000Y-152070000D02*
X153620000Y-151520000D01*
G75*
G02*
X153820000Y-151320000I200000J0D01*
G01*
X154220000Y-151320000D01*
G75*
G02*
X154420000Y-151520000I0J-200000D01*
G01*
X154420000Y-152070000D01*
G75*
G02*
X154220000Y-152270000I-200000J0D01*
G01*
X153820000Y-152270000D01*
G75*
G02*
X153620000Y-152070000I0J200000D01*
G01*
G37*
G36*
G01*
X212280000Y-165115000D02*
X212280000Y-164615000D01*
G75*
G02*
X212505000Y-164390000I225000J0D01*
G01*
X212955000Y-164390000D01*
G75*
G02*
X213180000Y-164615000I0J-225000D01*
G01*
X213180000Y-165115000D01*
G75*
G02*
X212955000Y-165340000I-225000J0D01*
G01*
X212505000Y-165340000D01*
G75*
G02*
X212280000Y-165115000I0J225000D01*
G01*
G37*
G36*
G01*
X213830000Y-165115000D02*
X213830000Y-164615000D01*
G75*
G02*
X214055000Y-164390000I225000J0D01*
G01*
X214505000Y-164390000D01*
G75*
G02*
X214730000Y-164615000I0J-225000D01*
G01*
X214730000Y-165115000D01*
G75*
G02*
X214505000Y-165340000I-225000J0D01*
G01*
X214055000Y-165340000D01*
G75*
G02*
X213830000Y-165115000I0J225000D01*
G01*
G37*
D10*
X80584500Y-113173900D03*
D11*
X80584500Y-115713900D03*
G36*
G01*
X83689500Y-113843900D02*
X83689500Y-113343900D01*
G75*
G02*
X83914500Y-113118900I225000J0D01*
G01*
X84364500Y-113118900D01*
G75*
G02*
X84589500Y-113343900I0J-225000D01*
G01*
X84589500Y-113843900D01*
G75*
G02*
X84364500Y-114068900I-225000J0D01*
G01*
X83914500Y-114068900D01*
G75*
G02*
X83689500Y-113843900I0J225000D01*
G01*
G37*
G36*
G01*
X85239500Y-113843900D02*
X85239500Y-113343900D01*
G75*
G02*
X85464500Y-113118900I225000J0D01*
G01*
X85914500Y-113118900D01*
G75*
G02*
X86139500Y-113343900I0J-225000D01*
G01*
X86139500Y-113843900D01*
G75*
G02*
X85914500Y-114068900I-225000J0D01*
G01*
X85464500Y-114068900D01*
G75*
G02*
X85239500Y-113843900I0J225000D01*
G01*
G37*
G36*
G01*
X86439500Y-138863900D02*
X86439500Y-138313900D01*
G75*
G02*
X86639500Y-138113900I200000J0D01*
G01*
X87039500Y-138113900D01*
G75*
G02*
X87239500Y-138313900I0J-200000D01*
G01*
X87239500Y-138863900D01*
G75*
G02*
X87039500Y-139063900I-200000J0D01*
G01*
X86639500Y-139063900D01*
G75*
G02*
X86439500Y-138863900I0J200000D01*
G01*
G37*
G36*
G01*
X88089500Y-138863900D02*
X88089500Y-138313900D01*
G75*
G02*
X88289500Y-138113900I200000J0D01*
G01*
X88689500Y-138113900D01*
G75*
G02*
X88889500Y-138313900I0J-200000D01*
G01*
X88889500Y-138863900D01*
G75*
G02*
X88689500Y-139063900I-200000J0D01*
G01*
X88289500Y-139063900D01*
G75*
G02*
X88089500Y-138863900I0J200000D01*
G01*
G37*
D14*
X154141200Y-147609000D03*
X154941200Y-147609000D03*
X155741200Y-147609000D03*
X156541200Y-147609000D03*
X157341200Y-147609000D03*
X158141200Y-147609000D03*
X158941200Y-147609000D03*
X159741200Y-147609000D03*
X160541200Y-147609000D03*
X161341200Y-147609000D03*
X162141200Y-147609000D03*
X162941200Y-147609000D03*
X163741200Y-147609000D03*
X164541200Y-147609000D03*
X165341200Y-147609000D03*
X166141200Y-147609000D03*
X166941200Y-147609000D03*
X167741200Y-147609000D03*
X168541200Y-147609000D03*
X169341200Y-147609000D03*
X170141200Y-147609000D03*
X170941200Y-147609000D03*
X171741200Y-147609000D03*
X172541200Y-147609000D03*
X173341200Y-147609000D03*
X174141200Y-147609000D03*
X174941200Y-147609000D03*
X174941200Y-136109000D03*
X174141200Y-136109000D03*
X173341200Y-136109000D03*
X172541200Y-136109000D03*
X171741200Y-136109000D03*
X170941200Y-136109000D03*
X170141200Y-136109000D03*
X169341200Y-136109000D03*
X168541200Y-136109000D03*
X167741200Y-136109000D03*
X166941200Y-136109000D03*
X166141200Y-136109000D03*
X165341200Y-136109000D03*
X164541200Y-136109000D03*
X163741200Y-136109000D03*
X162941200Y-136109000D03*
X162141200Y-136109000D03*
X161341200Y-136109000D03*
X160541200Y-136109000D03*
X159741200Y-136109000D03*
X158941200Y-136109000D03*
X158141200Y-136109000D03*
X157341200Y-136109000D03*
X156541200Y-136109000D03*
X155741200Y-136109000D03*
X154941200Y-136109000D03*
X154141200Y-136109000D03*
G36*
G01*
X236780000Y-103060000D02*
X236780000Y-102510000D01*
G75*
G02*
X236980000Y-102310000I200000J0D01*
G01*
X237380000Y-102310000D01*
G75*
G02*
X237580000Y-102510000I0J-200000D01*
G01*
X237580000Y-103060000D01*
G75*
G02*
X237380000Y-103260000I-200000J0D01*
G01*
X236980000Y-103260000D01*
G75*
G02*
X236780000Y-103060000I0J200000D01*
G01*
G37*
G36*
G01*
X238430000Y-103060000D02*
X238430000Y-102510000D01*
G75*
G02*
X238630000Y-102310000I200000J0D01*
G01*
X239030000Y-102310000D01*
G75*
G02*
X239230000Y-102510000I0J-200000D01*
G01*
X239230000Y-103060000D01*
G75*
G02*
X239030000Y-103260000I-200000J0D01*
G01*
X238630000Y-103260000D01*
G75*
G02*
X238430000Y-103060000I0J200000D01*
G01*
G37*
G36*
G01*
X197710000Y-186875000D02*
X197710000Y-186375000D01*
G75*
G02*
X197935000Y-186150000I225000J0D01*
G01*
X198385000Y-186150000D01*
G75*
G02*
X198610000Y-186375000I0J-225000D01*
G01*
X198610000Y-186875000D01*
G75*
G02*
X198385000Y-187100000I-225000J0D01*
G01*
X197935000Y-187100000D01*
G75*
G02*
X197710000Y-186875000I0J225000D01*
G01*
G37*
G36*
G01*
X199260000Y-186875000D02*
X199260000Y-186375000D01*
G75*
G02*
X199485000Y-186150000I225000J0D01*
G01*
X199935000Y-186150000D01*
G75*
G02*
X200160000Y-186375000I0J-225000D01*
G01*
X200160000Y-186875000D01*
G75*
G02*
X199935000Y-187100000I-225000J0D01*
G01*
X199485000Y-187100000D01*
G75*
G02*
X199260000Y-186875000I0J225000D01*
G01*
G37*
G36*
G01*
X86439500Y-136328900D02*
X86439500Y-135828900D01*
G75*
G02*
X86664500Y-135603900I225000J0D01*
G01*
X87114500Y-135603900D01*
G75*
G02*
X87339500Y-135828900I0J-225000D01*
G01*
X87339500Y-136328900D01*
G75*
G02*
X87114500Y-136553900I-225000J0D01*
G01*
X86664500Y-136553900D01*
G75*
G02*
X86439500Y-136328900I0J225000D01*
G01*
G37*
G36*
G01*
X87989500Y-136328900D02*
X87989500Y-135828900D01*
G75*
G02*
X88214500Y-135603900I225000J0D01*
G01*
X88664500Y-135603900D01*
G75*
G02*
X88889500Y-135828900I0J-225000D01*
G01*
X88889500Y-136328900D01*
G75*
G02*
X88664500Y-136553900I-225000J0D01*
G01*
X88214500Y-136553900D01*
G75*
G02*
X87989500Y-136328900I0J225000D01*
G01*
G37*
G36*
G01*
X86439500Y-133818900D02*
X86439500Y-133318900D01*
G75*
G02*
X86664500Y-133093900I225000J0D01*
G01*
X87114500Y-133093900D01*
G75*
G02*
X87339500Y-133318900I0J-225000D01*
G01*
X87339500Y-133818900D01*
G75*
G02*
X87114500Y-134043900I-225000J0D01*
G01*
X86664500Y-134043900D01*
G75*
G02*
X86439500Y-133818900I0J225000D01*
G01*
G37*
G36*
G01*
X87989500Y-133818900D02*
X87989500Y-133318900D01*
G75*
G02*
X88214500Y-133093900I225000J0D01*
G01*
X88664500Y-133093900D01*
G75*
G02*
X88889500Y-133318900I0J-225000D01*
G01*
X88889500Y-133818900D01*
G75*
G02*
X88664500Y-134043900I-225000J0D01*
G01*
X88214500Y-134043900D01*
G75*
G02*
X87989500Y-133818900I0J225000D01*
G01*
G37*
G36*
G01*
X197710000Y-184340000D02*
X197710000Y-183390000D01*
G75*
G02*
X197960000Y-183140000I250000J0D01*
G01*
X198635000Y-183140000D01*
G75*
G02*
X198885000Y-183390000I0J-250000D01*
G01*
X198885000Y-184340000D01*
G75*
G02*
X198635000Y-184590000I-250000J0D01*
G01*
X197960000Y-184590000D01*
G75*
G02*
X197710000Y-184340000I0J250000D01*
G01*
G37*
G36*
G01*
X199785000Y-184340000D02*
X199785000Y-183390000D01*
G75*
G02*
X200035000Y-183140000I250000J0D01*
G01*
X200710000Y-183140000D01*
G75*
G02*
X200960000Y-183390000I0J-250000D01*
G01*
X200960000Y-184340000D01*
G75*
G02*
X200710000Y-184590000I-250000J0D01*
G01*
X200035000Y-184590000D01*
G75*
G02*
X199785000Y-184340000I0J250000D01*
G01*
G37*
D15*
X109692500Y-148000000D03*
D16*
X107692500Y-148000000D03*
X109692500Y-146000000D03*
X107692500Y-146000000D03*
X109692500Y-144000000D03*
X107692500Y-144000000D03*
X109692500Y-142000000D03*
X107692500Y-142000000D03*
X109692500Y-140000000D03*
X107692500Y-140000000D03*
X109692500Y-138000000D03*
X107692500Y-138000000D03*
X109692500Y-136000000D03*
X107692500Y-136000000D03*
X109692500Y-134000000D03*
X107692500Y-134000000D03*
X109692500Y-132000000D03*
X107692500Y-132000000D03*
X109692500Y-130000000D03*
X107692500Y-130000000D03*
X109692500Y-128000000D03*
X107692500Y-128000000D03*
X109692500Y-126000000D03*
X107692500Y-126000000D03*
X109692500Y-124000000D03*
X107692500Y-124000000D03*
X109692500Y-122000000D03*
X107692500Y-122000000D03*
X109692500Y-120000000D03*
X107692500Y-120000000D03*
X109692500Y-118000000D03*
X107692500Y-118000000D03*
X109692500Y-116000000D03*
X107692500Y-116000000D03*
X109692500Y-114000000D03*
X107692500Y-114000000D03*
X109692500Y-112000000D03*
X107692500Y-112000000D03*
X109692500Y-110000000D03*
X107692500Y-110000000D03*
X109692500Y-108000000D03*
X107692500Y-108000000D03*
X109692500Y-106000000D03*
X107692500Y-106000000D03*
G36*
G01*
X145770000Y-165595000D02*
X145770000Y-165095000D01*
G75*
G02*
X145995000Y-164870000I225000J0D01*
G01*
X146445000Y-164870000D01*
G75*
G02*
X146670000Y-165095000I0J-225000D01*
G01*
X146670000Y-165595000D01*
G75*
G02*
X146445000Y-165820000I-225000J0D01*
G01*
X145995000Y-165820000D01*
G75*
G02*
X145770000Y-165595000I0J225000D01*
G01*
G37*
G36*
G01*
X147320000Y-165595000D02*
X147320000Y-165095000D01*
G75*
G02*
X147545000Y-164870000I225000J0D01*
G01*
X147995000Y-164870000D01*
G75*
G02*
X148220000Y-165095000I0J-225000D01*
G01*
X148220000Y-165595000D01*
G75*
G02*
X147995000Y-165820000I-225000J0D01*
G01*
X147545000Y-165820000D01*
G75*
G02*
X147320000Y-165595000I0J225000D01*
G01*
G37*
G36*
G01*
X221030000Y-155055000D02*
X221030000Y-154555000D01*
G75*
G02*
X221255000Y-154330000I225000J0D01*
G01*
X221705000Y-154330000D01*
G75*
G02*
X221930000Y-154555000I0J-225000D01*
G01*
X221930000Y-155055000D01*
G75*
G02*
X221705000Y-155280000I-225000J0D01*
G01*
X221255000Y-155280000D01*
G75*
G02*
X221030000Y-155055000I0J225000D01*
G01*
G37*
G36*
G01*
X222580000Y-155055000D02*
X222580000Y-154555000D01*
G75*
G02*
X222805000Y-154330000I225000J0D01*
G01*
X223255000Y-154330000D01*
G75*
G02*
X223480000Y-154555000I0J-225000D01*
G01*
X223480000Y-155055000D01*
G75*
G02*
X223255000Y-155280000I-225000J0D01*
G01*
X222805000Y-155280000D01*
G75*
G02*
X222580000Y-155055000I0J225000D01*
G01*
G37*
G36*
G01*
X225040000Y-155055000D02*
X225040000Y-154555000D01*
G75*
G02*
X225265000Y-154330000I225000J0D01*
G01*
X225715000Y-154330000D01*
G75*
G02*
X225940000Y-154555000I0J-225000D01*
G01*
X225940000Y-155055000D01*
G75*
G02*
X225715000Y-155280000I-225000J0D01*
G01*
X225265000Y-155280000D01*
G75*
G02*
X225040000Y-155055000I0J225000D01*
G01*
G37*
G36*
G01*
X226590000Y-155055000D02*
X226590000Y-154555000D01*
G75*
G02*
X226815000Y-154330000I225000J0D01*
G01*
X227265000Y-154330000D01*
G75*
G02*
X227490000Y-154555000I0J-225000D01*
G01*
X227490000Y-155055000D01*
G75*
G02*
X227265000Y-155280000I-225000J0D01*
G01*
X226815000Y-155280000D01*
G75*
G02*
X226590000Y-155055000I0J225000D01*
G01*
G37*
D17*
X121744000Y-106848800D03*
X121744000Y-107348800D03*
X121744000Y-107848800D03*
X121744000Y-108348800D03*
X121744000Y-108848800D03*
X121744000Y-109348800D03*
X121744000Y-109848800D03*
X121744000Y-110348800D03*
X121744000Y-110848800D03*
X121744000Y-111348800D03*
X121744000Y-111848800D03*
X121744000Y-112348800D03*
X121744000Y-112848800D03*
X121744000Y-113348800D03*
X121744000Y-113848800D03*
X121744000Y-114348800D03*
X121744000Y-114848800D03*
X121744000Y-115348800D03*
X121744000Y-115848800D03*
X121744000Y-116348800D03*
X121744000Y-116848800D03*
X121744000Y-117348800D03*
X121744000Y-117848800D03*
X121744000Y-118348800D03*
X141244000Y-118348800D03*
X141244000Y-117848800D03*
X141244000Y-117348800D03*
X141244000Y-116848800D03*
X141244000Y-116348800D03*
X141244000Y-115848800D03*
X141244000Y-115348800D03*
X141244000Y-114848800D03*
X141244000Y-114348800D03*
X141244000Y-113848800D03*
X141244000Y-113348800D03*
X141244000Y-112848800D03*
X141244000Y-112348800D03*
X141244000Y-111848800D03*
X141244000Y-111348800D03*
X141244000Y-110848800D03*
X141244000Y-110348800D03*
X141244000Y-109848800D03*
X141244000Y-109348800D03*
X141244000Y-108848800D03*
X141244000Y-108348800D03*
X141244000Y-107848800D03*
X141244000Y-107348800D03*
X141244000Y-106848800D03*
G36*
G01*
X84729500Y-108658900D02*
X84729500Y-107708900D01*
G75*
G02*
X84979500Y-107458900I250000J0D01*
G01*
X85654500Y-107458900D01*
G75*
G02*
X85904500Y-107708900I0J-250000D01*
G01*
X85904500Y-108658900D01*
G75*
G02*
X85654500Y-108908900I-250000J0D01*
G01*
X84979500Y-108908900D01*
G75*
G02*
X84729500Y-108658900I0J250000D01*
G01*
G37*
G36*
G01*
X86804500Y-108658900D02*
X86804500Y-107708900D01*
G75*
G02*
X87054500Y-107458900I250000J0D01*
G01*
X87729500Y-107458900D01*
G75*
G02*
X87979500Y-107708900I0J-250000D01*
G01*
X87979500Y-108658900D01*
G75*
G02*
X87729500Y-108908900I-250000J0D01*
G01*
X87054500Y-108908900D01*
G75*
G02*
X86804500Y-108658900I0J250000D01*
G01*
G37*
G36*
G01*
X138694000Y-129455800D02*
X138694000Y-129605800D01*
G75*
G02*
X138619000Y-129680800I-75000J0D01*
G01*
X137219000Y-129680800D01*
G75*
G02*
X137144000Y-129605800I0J75000D01*
G01*
X137144000Y-129455800D01*
G75*
G02*
X137219000Y-129380800I75000J0D01*
G01*
X138619000Y-129380800D01*
G75*
G02*
X138694000Y-129455800I0J-75000D01*
G01*
G37*
G36*
G01*
X138694000Y-128955800D02*
X138694000Y-129105800D01*
G75*
G02*
X138619000Y-129180800I-75000J0D01*
G01*
X137219000Y-129180800D01*
G75*
G02*
X137144000Y-129105800I0J75000D01*
G01*
X137144000Y-128955800D01*
G75*
G02*
X137219000Y-128880800I75000J0D01*
G01*
X138619000Y-128880800D01*
G75*
G02*
X138694000Y-128955800I0J-75000D01*
G01*
G37*
G36*
G01*
X138694000Y-128455800D02*
X138694000Y-128605800D01*
G75*
G02*
X138619000Y-128680800I-75000J0D01*
G01*
X137219000Y-128680800D01*
G75*
G02*
X137144000Y-128605800I0J75000D01*
G01*
X137144000Y-128455800D01*
G75*
G02*
X137219000Y-128380800I75000J0D01*
G01*
X138619000Y-128380800D01*
G75*
G02*
X138694000Y-128455800I0J-75000D01*
G01*
G37*
G36*
G01*
X138694000Y-127955800D02*
X138694000Y-128105800D01*
G75*
G02*
X138619000Y-128180800I-75000J0D01*
G01*
X137219000Y-128180800D01*
G75*
G02*
X137144000Y-128105800I0J75000D01*
G01*
X137144000Y-127955800D01*
G75*
G02*
X137219000Y-127880800I75000J0D01*
G01*
X138619000Y-127880800D01*
G75*
G02*
X138694000Y-127955800I0J-75000D01*
G01*
G37*
G36*
G01*
X138694000Y-127455800D02*
X138694000Y-127605800D01*
G75*
G02*
X138619000Y-127680800I-75000J0D01*
G01*
X137219000Y-127680800D01*
G75*
G02*
X137144000Y-127605800I0J75000D01*
G01*
X137144000Y-127455800D01*
G75*
G02*
X137219000Y-127380800I75000J0D01*
G01*
X138619000Y-127380800D01*
G75*
G02*
X138694000Y-127455800I0J-75000D01*
G01*
G37*
G36*
G01*
X138694000Y-126955800D02*
X138694000Y-127105800D01*
G75*
G02*
X138619000Y-127180800I-75000J0D01*
G01*
X137219000Y-127180800D01*
G75*
G02*
X137144000Y-127105800I0J75000D01*
G01*
X137144000Y-126955800D01*
G75*
G02*
X137219000Y-126880800I75000J0D01*
G01*
X138619000Y-126880800D01*
G75*
G02*
X138694000Y-126955800I0J-75000D01*
G01*
G37*
G36*
G01*
X138694000Y-126455800D02*
X138694000Y-126605800D01*
G75*
G02*
X138619000Y-126680800I-75000J0D01*
G01*
X137219000Y-126680800D01*
G75*
G02*
X137144000Y-126605800I0J75000D01*
G01*
X137144000Y-126455800D01*
G75*
G02*
X137219000Y-126380800I75000J0D01*
G01*
X138619000Y-126380800D01*
G75*
G02*
X138694000Y-126455800I0J-75000D01*
G01*
G37*
G36*
G01*
X138694000Y-125955800D02*
X138694000Y-126105800D01*
G75*
G02*
X138619000Y-126180800I-75000J0D01*
G01*
X137219000Y-126180800D01*
G75*
G02*
X137144000Y-126105800I0J75000D01*
G01*
X137144000Y-125955800D01*
G75*
G02*
X137219000Y-125880800I75000J0D01*
G01*
X138619000Y-125880800D01*
G75*
G02*
X138694000Y-125955800I0J-75000D01*
G01*
G37*
G36*
G01*
X138694000Y-125455800D02*
X138694000Y-125605800D01*
G75*
G02*
X138619000Y-125680800I-75000J0D01*
G01*
X137219000Y-125680800D01*
G75*
G02*
X137144000Y-125605800I0J75000D01*
G01*
X137144000Y-125455800D01*
G75*
G02*
X137219000Y-125380800I75000J0D01*
G01*
X138619000Y-125380800D01*
G75*
G02*
X138694000Y-125455800I0J-75000D01*
G01*
G37*
G36*
G01*
X138694000Y-124955800D02*
X138694000Y-125105800D01*
G75*
G02*
X138619000Y-125180800I-75000J0D01*
G01*
X137219000Y-125180800D01*
G75*
G02*
X137144000Y-125105800I0J75000D01*
G01*
X137144000Y-124955800D01*
G75*
G02*
X137219000Y-124880800I75000J0D01*
G01*
X138619000Y-124880800D01*
G75*
G02*
X138694000Y-124955800I0J-75000D01*
G01*
G37*
G36*
G01*
X138694000Y-124455800D02*
X138694000Y-124605800D01*
G75*
G02*
X138619000Y-124680800I-75000J0D01*
G01*
X137219000Y-124680800D01*
G75*
G02*
X137144000Y-124605800I0J75000D01*
G01*
X137144000Y-124455800D01*
G75*
G02*
X137219000Y-124380800I75000J0D01*
G01*
X138619000Y-124380800D01*
G75*
G02*
X138694000Y-124455800I0J-75000D01*
G01*
G37*
G36*
G01*
X138694000Y-123955800D02*
X138694000Y-124105800D01*
G75*
G02*
X138619000Y-124180800I-75000J0D01*
G01*
X137219000Y-124180800D01*
G75*
G02*
X137144000Y-124105800I0J75000D01*
G01*
X137144000Y-123955800D01*
G75*
G02*
X137219000Y-123880800I75000J0D01*
G01*
X138619000Y-123880800D01*
G75*
G02*
X138694000Y-123955800I0J-75000D01*
G01*
G37*
G36*
G01*
X138694000Y-123455800D02*
X138694000Y-123605800D01*
G75*
G02*
X138619000Y-123680800I-75000J0D01*
G01*
X137219000Y-123680800D01*
G75*
G02*
X137144000Y-123605800I0J75000D01*
G01*
X137144000Y-123455800D01*
G75*
G02*
X137219000Y-123380800I75000J0D01*
G01*
X138619000Y-123380800D01*
G75*
G02*
X138694000Y-123455800I0J-75000D01*
G01*
G37*
G36*
G01*
X138694000Y-122955800D02*
X138694000Y-123105800D01*
G75*
G02*
X138619000Y-123180800I-75000J0D01*
G01*
X137219000Y-123180800D01*
G75*
G02*
X137144000Y-123105800I0J75000D01*
G01*
X137144000Y-122955800D01*
G75*
G02*
X137219000Y-122880800I75000J0D01*
G01*
X138619000Y-122880800D01*
G75*
G02*
X138694000Y-122955800I0J-75000D01*
G01*
G37*
G36*
G01*
X138694000Y-122455800D02*
X138694000Y-122605800D01*
G75*
G02*
X138619000Y-122680800I-75000J0D01*
G01*
X137219000Y-122680800D01*
G75*
G02*
X137144000Y-122605800I0J75000D01*
G01*
X137144000Y-122455800D01*
G75*
G02*
X137219000Y-122380800I75000J0D01*
G01*
X138619000Y-122380800D01*
G75*
G02*
X138694000Y-122455800I0J-75000D01*
G01*
G37*
G36*
G01*
X138694000Y-121955800D02*
X138694000Y-122105800D01*
G75*
G02*
X138619000Y-122180800I-75000J0D01*
G01*
X137219000Y-122180800D01*
G75*
G02*
X137144000Y-122105800I0J75000D01*
G01*
X137144000Y-121955800D01*
G75*
G02*
X137219000Y-121880800I75000J0D01*
G01*
X138619000Y-121880800D01*
G75*
G02*
X138694000Y-121955800I0J-75000D01*
G01*
G37*
G36*
G01*
X125844000Y-121955800D02*
X125844000Y-122105800D01*
G75*
G02*
X125769000Y-122180800I-75000J0D01*
G01*
X124369000Y-122180800D01*
G75*
G02*
X124294000Y-122105800I0J75000D01*
G01*
X124294000Y-121955800D01*
G75*
G02*
X124369000Y-121880800I75000J0D01*
G01*
X125769000Y-121880800D01*
G75*
G02*
X125844000Y-121955800I0J-75000D01*
G01*
G37*
G36*
G01*
X125844000Y-122455800D02*
X125844000Y-122605800D01*
G75*
G02*
X125769000Y-122680800I-75000J0D01*
G01*
X124369000Y-122680800D01*
G75*
G02*
X124294000Y-122605800I0J75000D01*
G01*
X124294000Y-122455800D01*
G75*
G02*
X124369000Y-122380800I75000J0D01*
G01*
X125769000Y-122380800D01*
G75*
G02*
X125844000Y-122455800I0J-75000D01*
G01*
G37*
G36*
G01*
X125844000Y-122955800D02*
X125844000Y-123105800D01*
G75*
G02*
X125769000Y-123180800I-75000J0D01*
G01*
X124369000Y-123180800D01*
G75*
G02*
X124294000Y-123105800I0J75000D01*
G01*
X124294000Y-122955800D01*
G75*
G02*
X124369000Y-122880800I75000J0D01*
G01*
X125769000Y-122880800D01*
G75*
G02*
X125844000Y-122955800I0J-75000D01*
G01*
G37*
G36*
G01*
X125844000Y-123455800D02*
X125844000Y-123605800D01*
G75*
G02*
X125769000Y-123680800I-75000J0D01*
G01*
X124369000Y-123680800D01*
G75*
G02*
X124294000Y-123605800I0J75000D01*
G01*
X124294000Y-123455800D01*
G75*
G02*
X124369000Y-123380800I75000J0D01*
G01*
X125769000Y-123380800D01*
G75*
G02*
X125844000Y-123455800I0J-75000D01*
G01*
G37*
G36*
G01*
X125844000Y-123955800D02*
X125844000Y-124105800D01*
G75*
G02*
X125769000Y-124180800I-75000J0D01*
G01*
X124369000Y-124180800D01*
G75*
G02*
X124294000Y-124105800I0J75000D01*
G01*
X124294000Y-123955800D01*
G75*
G02*
X124369000Y-123880800I75000J0D01*
G01*
X125769000Y-123880800D01*
G75*
G02*
X125844000Y-123955800I0J-75000D01*
G01*
G37*
G36*
G01*
X125844000Y-124455800D02*
X125844000Y-124605800D01*
G75*
G02*
X125769000Y-124680800I-75000J0D01*
G01*
X124369000Y-124680800D01*
G75*
G02*
X124294000Y-124605800I0J75000D01*
G01*
X124294000Y-124455800D01*
G75*
G02*
X124369000Y-124380800I75000J0D01*
G01*
X125769000Y-124380800D01*
G75*
G02*
X125844000Y-124455800I0J-75000D01*
G01*
G37*
G36*
G01*
X125844000Y-124955800D02*
X125844000Y-125105800D01*
G75*
G02*
X125769000Y-125180800I-75000J0D01*
G01*
X124369000Y-125180800D01*
G75*
G02*
X124294000Y-125105800I0J75000D01*
G01*
X124294000Y-124955800D01*
G75*
G02*
X124369000Y-124880800I75000J0D01*
G01*
X125769000Y-124880800D01*
G75*
G02*
X125844000Y-124955800I0J-75000D01*
G01*
G37*
G36*
G01*
X125844000Y-125455800D02*
X125844000Y-125605800D01*
G75*
G02*
X125769000Y-125680800I-75000J0D01*
G01*
X124369000Y-125680800D01*
G75*
G02*
X124294000Y-125605800I0J75000D01*
G01*
X124294000Y-125455800D01*
G75*
G02*
X124369000Y-125380800I75000J0D01*
G01*
X125769000Y-125380800D01*
G75*
G02*
X125844000Y-125455800I0J-75000D01*
G01*
G37*
G36*
G01*
X125844000Y-125955800D02*
X125844000Y-126105800D01*
G75*
G02*
X125769000Y-126180800I-75000J0D01*
G01*
X124369000Y-126180800D01*
G75*
G02*
X124294000Y-126105800I0J75000D01*
G01*
X124294000Y-125955800D01*
G75*
G02*
X124369000Y-125880800I75000J0D01*
G01*
X125769000Y-125880800D01*
G75*
G02*
X125844000Y-125955800I0J-75000D01*
G01*
G37*
G36*
G01*
X125844000Y-126455800D02*
X125844000Y-126605800D01*
G75*
G02*
X125769000Y-126680800I-75000J0D01*
G01*
X124369000Y-126680800D01*
G75*
G02*
X124294000Y-126605800I0J75000D01*
G01*
X124294000Y-126455800D01*
G75*
G02*
X124369000Y-126380800I75000J0D01*
G01*
X125769000Y-126380800D01*
G75*
G02*
X125844000Y-126455800I0J-75000D01*
G01*
G37*
G36*
G01*
X125844000Y-126955800D02*
X125844000Y-127105800D01*
G75*
G02*
X125769000Y-127180800I-75000J0D01*
G01*
X124369000Y-127180800D01*
G75*
G02*
X124294000Y-127105800I0J75000D01*
G01*
X124294000Y-126955800D01*
G75*
G02*
X124369000Y-126880800I75000J0D01*
G01*
X125769000Y-126880800D01*
G75*
G02*
X125844000Y-126955800I0J-75000D01*
G01*
G37*
G36*
G01*
X125844000Y-127455800D02*
X125844000Y-127605800D01*
G75*
G02*
X125769000Y-127680800I-75000J0D01*
G01*
X124369000Y-127680800D01*
G75*
G02*
X124294000Y-127605800I0J75000D01*
G01*
X124294000Y-127455800D01*
G75*
G02*
X124369000Y-127380800I75000J0D01*
G01*
X125769000Y-127380800D01*
G75*
G02*
X125844000Y-127455800I0J-75000D01*
G01*
G37*
G36*
G01*
X125844000Y-127955800D02*
X125844000Y-128105800D01*
G75*
G02*
X125769000Y-128180800I-75000J0D01*
G01*
X124369000Y-128180800D01*
G75*
G02*
X124294000Y-128105800I0J75000D01*
G01*
X124294000Y-127955800D01*
G75*
G02*
X124369000Y-127880800I75000J0D01*
G01*
X125769000Y-127880800D01*
G75*
G02*
X125844000Y-127955800I0J-75000D01*
G01*
G37*
G36*
G01*
X125844000Y-128455800D02*
X125844000Y-128605800D01*
G75*
G02*
X125769000Y-128680800I-75000J0D01*
G01*
X124369000Y-128680800D01*
G75*
G02*
X124294000Y-128605800I0J75000D01*
G01*
X124294000Y-128455800D01*
G75*
G02*
X124369000Y-128380800I75000J0D01*
G01*
X125769000Y-128380800D01*
G75*
G02*
X125844000Y-128455800I0J-75000D01*
G01*
G37*
G36*
G01*
X125844000Y-128955800D02*
X125844000Y-129105800D01*
G75*
G02*
X125769000Y-129180800I-75000J0D01*
G01*
X124369000Y-129180800D01*
G75*
G02*
X124294000Y-129105800I0J75000D01*
G01*
X124294000Y-128955800D01*
G75*
G02*
X124369000Y-128880800I75000J0D01*
G01*
X125769000Y-128880800D01*
G75*
G02*
X125844000Y-128955800I0J-75000D01*
G01*
G37*
G36*
G01*
X125844000Y-129455800D02*
X125844000Y-129605800D01*
G75*
G02*
X125769000Y-129680800I-75000J0D01*
G01*
X124369000Y-129680800D01*
G75*
G02*
X124294000Y-129605800I0J75000D01*
G01*
X124294000Y-129455800D01*
G75*
G02*
X124369000Y-129380800I75000J0D01*
G01*
X125769000Y-129380800D01*
G75*
G02*
X125844000Y-129455800I0J-75000D01*
G01*
G37*
G36*
G01*
X112712500Y-140862800D02*
X112712500Y-140662800D01*
G75*
G02*
X112812500Y-140562800I100000J0D01*
G01*
X114087500Y-140562800D01*
G75*
G02*
X114187500Y-140662800I0J-100000D01*
G01*
X114187500Y-140862800D01*
G75*
G02*
X114087500Y-140962800I-100000J0D01*
G01*
X112812500Y-140962800D01*
G75*
G02*
X112712500Y-140862800I0J100000D01*
G01*
G37*
G36*
G01*
X112712500Y-141512800D02*
X112712500Y-141312800D01*
G75*
G02*
X112812500Y-141212800I100000J0D01*
G01*
X114087500Y-141212800D01*
G75*
G02*
X114187500Y-141312800I0J-100000D01*
G01*
X114187500Y-141512800D01*
G75*
G02*
X114087500Y-141612800I-100000J0D01*
G01*
X112812500Y-141612800D01*
G75*
G02*
X112712500Y-141512800I0J100000D01*
G01*
G37*
G36*
G01*
X112712500Y-142162800D02*
X112712500Y-141962800D01*
G75*
G02*
X112812500Y-141862800I100000J0D01*
G01*
X114087500Y-141862800D01*
G75*
G02*
X114187500Y-141962800I0J-100000D01*
G01*
X114187500Y-142162800D01*
G75*
G02*
X114087500Y-142262800I-100000J0D01*
G01*
X112812500Y-142262800D01*
G75*
G02*
X112712500Y-142162800I0J100000D01*
G01*
G37*
G36*
G01*
X112712500Y-142812800D02*
X112712500Y-142612800D01*
G75*
G02*
X112812500Y-142512800I100000J0D01*
G01*
X114087500Y-142512800D01*
G75*
G02*
X114187500Y-142612800I0J-100000D01*
G01*
X114187500Y-142812800D01*
G75*
G02*
X114087500Y-142912800I-100000J0D01*
G01*
X112812500Y-142912800D01*
G75*
G02*
X112712500Y-142812800I0J100000D01*
G01*
G37*
G36*
G01*
X112712500Y-143462800D02*
X112712500Y-143262800D01*
G75*
G02*
X112812500Y-143162800I100000J0D01*
G01*
X114087500Y-143162800D01*
G75*
G02*
X114187500Y-143262800I0J-100000D01*
G01*
X114187500Y-143462800D01*
G75*
G02*
X114087500Y-143562800I-100000J0D01*
G01*
X112812500Y-143562800D01*
G75*
G02*
X112712500Y-143462800I0J100000D01*
G01*
G37*
G36*
G01*
X112712500Y-144112800D02*
X112712500Y-143912800D01*
G75*
G02*
X112812500Y-143812800I100000J0D01*
G01*
X114087500Y-143812800D01*
G75*
G02*
X114187500Y-143912800I0J-100000D01*
G01*
X114187500Y-144112800D01*
G75*
G02*
X114087500Y-144212800I-100000J0D01*
G01*
X112812500Y-144212800D01*
G75*
G02*
X112712500Y-144112800I0J100000D01*
G01*
G37*
G36*
G01*
X112712500Y-144762800D02*
X112712500Y-144562800D01*
G75*
G02*
X112812500Y-144462800I100000J0D01*
G01*
X114087500Y-144462800D01*
G75*
G02*
X114187500Y-144562800I0J-100000D01*
G01*
X114187500Y-144762800D01*
G75*
G02*
X114087500Y-144862800I-100000J0D01*
G01*
X112812500Y-144862800D01*
G75*
G02*
X112712500Y-144762800I0J100000D01*
G01*
G37*
G36*
G01*
X112712500Y-145412800D02*
X112712500Y-145212800D01*
G75*
G02*
X112812500Y-145112800I100000J0D01*
G01*
X114087500Y-145112800D01*
G75*
G02*
X114187500Y-145212800I0J-100000D01*
G01*
X114187500Y-145412800D01*
G75*
G02*
X114087500Y-145512800I-100000J0D01*
G01*
X112812500Y-145512800D01*
G75*
G02*
X112712500Y-145412800I0J100000D01*
G01*
G37*
G36*
G01*
X112712500Y-146062800D02*
X112712500Y-145862800D01*
G75*
G02*
X112812500Y-145762800I100000J0D01*
G01*
X114087500Y-145762800D01*
G75*
G02*
X114187500Y-145862800I0J-100000D01*
G01*
X114187500Y-146062800D01*
G75*
G02*
X114087500Y-146162800I-100000J0D01*
G01*
X112812500Y-146162800D01*
G75*
G02*
X112712500Y-146062800I0J100000D01*
G01*
G37*
G36*
G01*
X112712500Y-146712800D02*
X112712500Y-146512800D01*
G75*
G02*
X112812500Y-146412800I100000J0D01*
G01*
X114087500Y-146412800D01*
G75*
G02*
X114187500Y-146512800I0J-100000D01*
G01*
X114187500Y-146712800D01*
G75*
G02*
X114087500Y-146812800I-100000J0D01*
G01*
X112812500Y-146812800D01*
G75*
G02*
X112712500Y-146712800I0J100000D01*
G01*
G37*
G36*
G01*
X118437500Y-146712800D02*
X118437500Y-146512800D01*
G75*
G02*
X118537500Y-146412800I100000J0D01*
G01*
X119812500Y-146412800D01*
G75*
G02*
X119912500Y-146512800I0J-100000D01*
G01*
X119912500Y-146712800D01*
G75*
G02*
X119812500Y-146812800I-100000J0D01*
G01*
X118537500Y-146812800D01*
G75*
G02*
X118437500Y-146712800I0J100000D01*
G01*
G37*
G36*
G01*
X118437500Y-146062800D02*
X118437500Y-145862800D01*
G75*
G02*
X118537500Y-145762800I100000J0D01*
G01*
X119812500Y-145762800D01*
G75*
G02*
X119912500Y-145862800I0J-100000D01*
G01*
X119912500Y-146062800D01*
G75*
G02*
X119812500Y-146162800I-100000J0D01*
G01*
X118537500Y-146162800D01*
G75*
G02*
X118437500Y-146062800I0J100000D01*
G01*
G37*
G36*
G01*
X118437500Y-145412800D02*
X118437500Y-145212800D01*
G75*
G02*
X118537500Y-145112800I100000J0D01*
G01*
X119812500Y-145112800D01*
G75*
G02*
X119912500Y-145212800I0J-100000D01*
G01*
X119912500Y-145412800D01*
G75*
G02*
X119812500Y-145512800I-100000J0D01*
G01*
X118537500Y-145512800D01*
G75*
G02*
X118437500Y-145412800I0J100000D01*
G01*
G37*
G36*
G01*
X118437500Y-144762800D02*
X118437500Y-144562800D01*
G75*
G02*
X118537500Y-144462800I100000J0D01*
G01*
X119812500Y-144462800D01*
G75*
G02*
X119912500Y-144562800I0J-100000D01*
G01*
X119912500Y-144762800D01*
G75*
G02*
X119812500Y-144862800I-100000J0D01*
G01*
X118537500Y-144862800D01*
G75*
G02*
X118437500Y-144762800I0J100000D01*
G01*
G37*
G36*
G01*
X118437500Y-144112800D02*
X118437500Y-143912800D01*
G75*
G02*
X118537500Y-143812800I100000J0D01*
G01*
X119812500Y-143812800D01*
G75*
G02*
X119912500Y-143912800I0J-100000D01*
G01*
X119912500Y-144112800D01*
G75*
G02*
X119812500Y-144212800I-100000J0D01*
G01*
X118537500Y-144212800D01*
G75*
G02*
X118437500Y-144112800I0J100000D01*
G01*
G37*
G36*
G01*
X118437500Y-143462800D02*
X118437500Y-143262800D01*
G75*
G02*
X118537500Y-143162800I100000J0D01*
G01*
X119812500Y-143162800D01*
G75*
G02*
X119912500Y-143262800I0J-100000D01*
G01*
X119912500Y-143462800D01*
G75*
G02*
X119812500Y-143562800I-100000J0D01*
G01*
X118537500Y-143562800D01*
G75*
G02*
X118437500Y-143462800I0J100000D01*
G01*
G37*
G36*
G01*
X118437500Y-142812800D02*
X118437500Y-142612800D01*
G75*
G02*
X118537500Y-142512800I100000J0D01*
G01*
X119812500Y-142512800D01*
G75*
G02*
X119912500Y-142612800I0J-100000D01*
G01*
X119912500Y-142812800D01*
G75*
G02*
X119812500Y-142912800I-100000J0D01*
G01*
X118537500Y-142912800D01*
G75*
G02*
X118437500Y-142812800I0J100000D01*
G01*
G37*
G36*
G01*
X118437500Y-142162800D02*
X118437500Y-141962800D01*
G75*
G02*
X118537500Y-141862800I100000J0D01*
G01*
X119812500Y-141862800D01*
G75*
G02*
X119912500Y-141962800I0J-100000D01*
G01*
X119912500Y-142162800D01*
G75*
G02*
X119812500Y-142262800I-100000J0D01*
G01*
X118537500Y-142262800D01*
G75*
G02*
X118437500Y-142162800I0J100000D01*
G01*
G37*
G36*
G01*
X118437500Y-141512800D02*
X118437500Y-141312800D01*
G75*
G02*
X118537500Y-141212800I100000J0D01*
G01*
X119812500Y-141212800D01*
G75*
G02*
X119912500Y-141312800I0J-100000D01*
G01*
X119912500Y-141512800D01*
G75*
G02*
X119812500Y-141612800I-100000J0D01*
G01*
X118537500Y-141612800D01*
G75*
G02*
X118437500Y-141512800I0J100000D01*
G01*
G37*
G36*
G01*
X118437500Y-140862800D02*
X118437500Y-140662800D01*
G75*
G02*
X118537500Y-140562800I100000J0D01*
G01*
X119812500Y-140562800D01*
G75*
G02*
X119912500Y-140662800I0J-100000D01*
G01*
X119912500Y-140862800D01*
G75*
G02*
X119812500Y-140962800I-100000J0D01*
G01*
X118537500Y-140962800D01*
G75*
G02*
X118437500Y-140862800I0J100000D01*
G01*
G37*
G36*
G01*
X206460000Y-175815000D02*
X206460000Y-175315000D01*
G75*
G02*
X206685000Y-175090000I225000J0D01*
G01*
X207135000Y-175090000D01*
G75*
G02*
X207360000Y-175315000I0J-225000D01*
G01*
X207360000Y-175815000D01*
G75*
G02*
X207135000Y-176040000I-225000J0D01*
G01*
X206685000Y-176040000D01*
G75*
G02*
X206460000Y-175815000I0J225000D01*
G01*
G37*
G36*
G01*
X208010000Y-175815000D02*
X208010000Y-175315000D01*
G75*
G02*
X208235000Y-175090000I225000J0D01*
G01*
X208685000Y-175090000D01*
G75*
G02*
X208910000Y-175315000I0J-225000D01*
G01*
X208910000Y-175815000D01*
G75*
G02*
X208685000Y-176040000I-225000J0D01*
G01*
X208235000Y-176040000D01*
G75*
G02*
X208010000Y-175815000I0J225000D01*
G01*
G37*
D10*
X177907500Y-106517900D03*
D11*
X177907500Y-109057900D03*
X177907500Y-111597900D03*
X177907500Y-114137900D03*
X177907500Y-116677900D03*
X177907500Y-119217900D03*
D10*
X212225000Y-141855000D03*
D11*
X212225000Y-144395000D03*
G36*
G01*
X112712500Y-131871200D02*
X112712500Y-131671200D01*
G75*
G02*
X112812500Y-131571200I100000J0D01*
G01*
X114087500Y-131571200D01*
G75*
G02*
X114187500Y-131671200I0J-100000D01*
G01*
X114187500Y-131871200D01*
G75*
G02*
X114087500Y-131971200I-100000J0D01*
G01*
X112812500Y-131971200D01*
G75*
G02*
X112712500Y-131871200I0J100000D01*
G01*
G37*
G36*
G01*
X112712500Y-132521200D02*
X112712500Y-132321200D01*
G75*
G02*
X112812500Y-132221200I100000J0D01*
G01*
X114087500Y-132221200D01*
G75*
G02*
X114187500Y-132321200I0J-100000D01*
G01*
X114187500Y-132521200D01*
G75*
G02*
X114087500Y-132621200I-100000J0D01*
G01*
X112812500Y-132621200D01*
G75*
G02*
X112712500Y-132521200I0J100000D01*
G01*
G37*
G36*
G01*
X112712500Y-133171200D02*
X112712500Y-132971200D01*
G75*
G02*
X112812500Y-132871200I100000J0D01*
G01*
X114087500Y-132871200D01*
G75*
G02*
X114187500Y-132971200I0J-100000D01*
G01*
X114187500Y-133171200D01*
G75*
G02*
X114087500Y-133271200I-100000J0D01*
G01*
X112812500Y-133271200D01*
G75*
G02*
X112712500Y-133171200I0J100000D01*
G01*
G37*
G36*
G01*
X112712500Y-133821200D02*
X112712500Y-133621200D01*
G75*
G02*
X112812500Y-133521200I100000J0D01*
G01*
X114087500Y-133521200D01*
G75*
G02*
X114187500Y-133621200I0J-100000D01*
G01*
X114187500Y-133821200D01*
G75*
G02*
X114087500Y-133921200I-100000J0D01*
G01*
X112812500Y-133921200D01*
G75*
G02*
X112712500Y-133821200I0J100000D01*
G01*
G37*
G36*
G01*
X112712500Y-134471200D02*
X112712500Y-134271200D01*
G75*
G02*
X112812500Y-134171200I100000J0D01*
G01*
X114087500Y-134171200D01*
G75*
G02*
X114187500Y-134271200I0J-100000D01*
G01*
X114187500Y-134471200D01*
G75*
G02*
X114087500Y-134571200I-100000J0D01*
G01*
X112812500Y-134571200D01*
G75*
G02*
X112712500Y-134471200I0J100000D01*
G01*
G37*
G36*
G01*
X112712500Y-135121200D02*
X112712500Y-134921200D01*
G75*
G02*
X112812500Y-134821200I100000J0D01*
G01*
X114087500Y-134821200D01*
G75*
G02*
X114187500Y-134921200I0J-100000D01*
G01*
X114187500Y-135121200D01*
G75*
G02*
X114087500Y-135221200I-100000J0D01*
G01*
X112812500Y-135221200D01*
G75*
G02*
X112712500Y-135121200I0J100000D01*
G01*
G37*
G36*
G01*
X112712500Y-135771200D02*
X112712500Y-135571200D01*
G75*
G02*
X112812500Y-135471200I100000J0D01*
G01*
X114087500Y-135471200D01*
G75*
G02*
X114187500Y-135571200I0J-100000D01*
G01*
X114187500Y-135771200D01*
G75*
G02*
X114087500Y-135871200I-100000J0D01*
G01*
X112812500Y-135871200D01*
G75*
G02*
X112712500Y-135771200I0J100000D01*
G01*
G37*
G36*
G01*
X112712500Y-136421200D02*
X112712500Y-136221200D01*
G75*
G02*
X112812500Y-136121200I100000J0D01*
G01*
X114087500Y-136121200D01*
G75*
G02*
X114187500Y-136221200I0J-100000D01*
G01*
X114187500Y-136421200D01*
G75*
G02*
X114087500Y-136521200I-100000J0D01*
G01*
X112812500Y-136521200D01*
G75*
G02*
X112712500Y-136421200I0J100000D01*
G01*
G37*
G36*
G01*
X112712500Y-137071200D02*
X112712500Y-136871200D01*
G75*
G02*
X112812500Y-136771200I100000J0D01*
G01*
X114087500Y-136771200D01*
G75*
G02*
X114187500Y-136871200I0J-100000D01*
G01*
X114187500Y-137071200D01*
G75*
G02*
X114087500Y-137171200I-100000J0D01*
G01*
X112812500Y-137171200D01*
G75*
G02*
X112712500Y-137071200I0J100000D01*
G01*
G37*
G36*
G01*
X112712500Y-137721200D02*
X112712500Y-137521200D01*
G75*
G02*
X112812500Y-137421200I100000J0D01*
G01*
X114087500Y-137421200D01*
G75*
G02*
X114187500Y-137521200I0J-100000D01*
G01*
X114187500Y-137721200D01*
G75*
G02*
X114087500Y-137821200I-100000J0D01*
G01*
X112812500Y-137821200D01*
G75*
G02*
X112712500Y-137721200I0J100000D01*
G01*
G37*
G36*
G01*
X118437500Y-137721200D02*
X118437500Y-137521200D01*
G75*
G02*
X118537500Y-137421200I100000J0D01*
G01*
X119812500Y-137421200D01*
G75*
G02*
X119912500Y-137521200I0J-100000D01*
G01*
X119912500Y-137721200D01*
G75*
G02*
X119812500Y-137821200I-100000J0D01*
G01*
X118537500Y-137821200D01*
G75*
G02*
X118437500Y-137721200I0J100000D01*
G01*
G37*
G36*
G01*
X118437500Y-137071200D02*
X118437500Y-136871200D01*
G75*
G02*
X118537500Y-136771200I100000J0D01*
G01*
X119812500Y-136771200D01*
G75*
G02*
X119912500Y-136871200I0J-100000D01*
G01*
X119912500Y-137071200D01*
G75*
G02*
X119812500Y-137171200I-100000J0D01*
G01*
X118537500Y-137171200D01*
G75*
G02*
X118437500Y-137071200I0J100000D01*
G01*
G37*
G36*
G01*
X118437500Y-136421200D02*
X118437500Y-136221200D01*
G75*
G02*
X118537500Y-136121200I100000J0D01*
G01*
X119812500Y-136121200D01*
G75*
G02*
X119912500Y-136221200I0J-100000D01*
G01*
X119912500Y-136421200D01*
G75*
G02*
X119812500Y-136521200I-100000J0D01*
G01*
X118537500Y-136521200D01*
G75*
G02*
X118437500Y-136421200I0J100000D01*
G01*
G37*
G36*
G01*
X118437500Y-135771200D02*
X118437500Y-135571200D01*
G75*
G02*
X118537500Y-135471200I100000J0D01*
G01*
X119812500Y-135471200D01*
G75*
G02*
X119912500Y-135571200I0J-100000D01*
G01*
X119912500Y-135771200D01*
G75*
G02*
X119812500Y-135871200I-100000J0D01*
G01*
X118537500Y-135871200D01*
G75*
G02*
X118437500Y-135771200I0J100000D01*
G01*
G37*
G36*
G01*
X118437500Y-135121200D02*
X118437500Y-134921200D01*
G75*
G02*
X118537500Y-134821200I100000J0D01*
G01*
X119812500Y-134821200D01*
G75*
G02*
X119912500Y-134921200I0J-100000D01*
G01*
X119912500Y-135121200D01*
G75*
G02*
X119812500Y-135221200I-100000J0D01*
G01*
X118537500Y-135221200D01*
G75*
G02*
X118437500Y-135121200I0J100000D01*
G01*
G37*
G36*
G01*
X118437500Y-134471200D02*
X118437500Y-134271200D01*
G75*
G02*
X118537500Y-134171200I100000J0D01*
G01*
X119812500Y-134171200D01*
G75*
G02*
X119912500Y-134271200I0J-100000D01*
G01*
X119912500Y-134471200D01*
G75*
G02*
X119812500Y-134571200I-100000J0D01*
G01*
X118537500Y-134571200D01*
G75*
G02*
X118437500Y-134471200I0J100000D01*
G01*
G37*
G36*
G01*
X118437500Y-133821200D02*
X118437500Y-133621200D01*
G75*
G02*
X118537500Y-133521200I100000J0D01*
G01*
X119812500Y-133521200D01*
G75*
G02*
X119912500Y-133621200I0J-100000D01*
G01*
X119912500Y-133821200D01*
G75*
G02*
X119812500Y-133921200I-100000J0D01*
G01*
X118537500Y-133921200D01*
G75*
G02*
X118437500Y-133821200I0J100000D01*
G01*
G37*
G36*
G01*
X118437500Y-133171200D02*
X118437500Y-132971200D01*
G75*
G02*
X118537500Y-132871200I100000J0D01*
G01*
X119812500Y-132871200D01*
G75*
G02*
X119912500Y-132971200I0J-100000D01*
G01*
X119912500Y-133171200D01*
G75*
G02*
X119812500Y-133271200I-100000J0D01*
G01*
X118537500Y-133271200D01*
G75*
G02*
X118437500Y-133171200I0J100000D01*
G01*
G37*
G36*
G01*
X118437500Y-132521200D02*
X118437500Y-132321200D01*
G75*
G02*
X118537500Y-132221200I100000J0D01*
G01*
X119812500Y-132221200D01*
G75*
G02*
X119912500Y-132321200I0J-100000D01*
G01*
X119912500Y-132521200D01*
G75*
G02*
X119812500Y-132621200I-100000J0D01*
G01*
X118537500Y-132621200D01*
G75*
G02*
X118437500Y-132521200I0J100000D01*
G01*
G37*
G36*
G01*
X118437500Y-131871200D02*
X118437500Y-131671200D01*
G75*
G02*
X118537500Y-131571200I100000J0D01*
G01*
X119812500Y-131571200D01*
G75*
G02*
X119912500Y-131671200I0J-100000D01*
G01*
X119912500Y-131871200D01*
G75*
G02*
X119812500Y-131971200I-100000J0D01*
G01*
X118537500Y-131971200D01*
G75*
G02*
X118437500Y-131871200I0J100000D01*
G01*
G37*
G36*
G01*
X212280000Y-160095000D02*
X212280000Y-159595000D01*
G75*
G02*
X212505000Y-159370000I225000J0D01*
G01*
X212955000Y-159370000D01*
G75*
G02*
X213180000Y-159595000I0J-225000D01*
G01*
X213180000Y-160095000D01*
G75*
G02*
X212955000Y-160320000I-225000J0D01*
G01*
X212505000Y-160320000D01*
G75*
G02*
X212280000Y-160095000I0J225000D01*
G01*
G37*
G36*
G01*
X213830000Y-160095000D02*
X213830000Y-159595000D01*
G75*
G02*
X214055000Y-159370000I225000J0D01*
G01*
X214505000Y-159370000D01*
G75*
G02*
X214730000Y-159595000I0J-225000D01*
G01*
X214730000Y-160095000D01*
G75*
G02*
X214505000Y-160320000I-225000J0D01*
G01*
X214055000Y-160320000D01*
G75*
G02*
X213830000Y-160095000I0J225000D01*
G01*
G37*
G36*
G01*
X52237500Y-110225500D02*
X52237500Y-109725500D01*
G75*
G02*
X52462500Y-109500500I225000J0D01*
G01*
X52912500Y-109500500D01*
G75*
G02*
X53137500Y-109725500I0J-225000D01*
G01*
X53137500Y-110225500D01*
G75*
G02*
X52912500Y-110450500I-225000J0D01*
G01*
X52462500Y-110450500D01*
G75*
G02*
X52237500Y-110225500I0J225000D01*
G01*
G37*
G36*
G01*
X53787500Y-110225500D02*
X53787500Y-109725500D01*
G75*
G02*
X54012500Y-109500500I225000J0D01*
G01*
X54462500Y-109500500D01*
G75*
G02*
X54687500Y-109725500I0J-225000D01*
G01*
X54687500Y-110225500D01*
G75*
G02*
X54462500Y-110450500I-225000J0D01*
G01*
X54012500Y-110450500D01*
G75*
G02*
X53787500Y-110225500I0J225000D01*
G01*
G37*
D18*
X122555000Y-100012500D03*
X122555000Y-96202500D03*
X123825000Y-101917500D03*
X123825000Y-98107500D03*
X125095000Y-100012500D03*
X125095000Y-96202500D03*
X126365000Y-101917500D03*
X126365000Y-98107500D03*
X127635000Y-100012500D03*
X127635000Y-96202500D03*
X128905000Y-101917500D03*
X128905000Y-98107500D03*
X130175000Y-100012500D03*
X130175000Y-96202500D03*
X131445000Y-101917500D03*
X131445000Y-98107500D03*
X132715000Y-100012500D03*
X132715000Y-96202500D03*
X133985000Y-101917500D03*
X133985000Y-98107500D03*
X135255000Y-100012500D03*
X135255000Y-96202500D03*
X136525000Y-101917500D03*
X136525000Y-98107500D03*
X137795000Y-100012500D03*
X137795000Y-96202500D03*
X139065000Y-101917500D03*
X139065000Y-98107500D03*
X140335000Y-100012500D03*
X140335000Y-96202500D03*
X141605000Y-101917500D03*
X141605000Y-98107500D03*
X142875000Y-100012500D03*
X142875000Y-96202500D03*
X144145000Y-101917500D03*
X144145000Y-98107500D03*
X145415000Y-100012500D03*
X145415000Y-96202500D03*
X146685000Y-101917500D03*
X146685000Y-98107500D03*
X147955000Y-100012500D03*
X147955000Y-96202500D03*
X149225000Y-101917500D03*
X149225000Y-98107500D03*
X150495000Y-100012500D03*
X150495000Y-96202500D03*
X151765000Y-101917500D03*
X151765000Y-98107500D03*
X153035000Y-100012500D03*
X153035000Y-96202500D03*
X154305000Y-101917500D03*
X154305000Y-98107500D03*
X155575000Y-100012500D03*
X155575000Y-96202500D03*
X156845000Y-101917500D03*
X156845000Y-98107500D03*
X158115000Y-100012500D03*
X158115000Y-96202500D03*
X159385000Y-101917500D03*
X159385000Y-98107500D03*
X160655000Y-100012500D03*
X160655000Y-96202500D03*
X161925000Y-101917500D03*
X161925000Y-98107500D03*
X163195000Y-100012500D03*
X163195000Y-96202500D03*
X164465000Y-101917500D03*
X164465000Y-98107500D03*
X165735000Y-100012500D03*
X165735000Y-96202500D03*
X167005000Y-101917500D03*
X167005000Y-98107500D03*
X168275000Y-100012500D03*
X168275000Y-96202500D03*
X169545000Y-101917500D03*
X169545000Y-98107500D03*
X170815000Y-100012500D03*
X170815000Y-96202500D03*
X172085000Y-101917500D03*
X172085000Y-98107500D03*
D19*
X176530000Y-99060000D03*
X118110000Y-99060000D03*
M02*
