M48
; DRILL file {KiCad 6.0.6+dfsg-1~bpo11+1} date Tue Feb  7 12:33:41 2023
; FORMAT={-:-/ absolute / metric / decimal}
; #@! TF.CreationDate,2023-02-07T12:33:41+00:00
; #@! TF.GenerationSoftware,Kicad,Pcbnew,6.0.6+dfsg-1~bpo11+1
; #@! TF.FileFunction,Plated,1,4,PTH
FMAT,2
METRIC
; #@! TA.AperFunction,Plated,PTH,ViaDrill
T1C0.305
; #@! TA.AperFunction,Plated,PTH,ViaDrill
T2C0.508
; #@! TA.AperFunction,Plated,PTH,ComponentDrill
T3C0.800
; #@! TA.AperFunction,Plated,PTH,ComponentDrill
T4C1.000
; #@! TA.AperFunction,Plated,PTH,ComponentDrill
T5C2.300
%
G90
G05
T1
X110.625Y-126.983
X111.754Y-117.356
X111.828Y-102.655
X112.182Y-146.613
X112.2Y-125.79
X112.27Y-116.849
X112.334Y-137.637
X112.346Y-127.64
X112.591Y-128.641
X112.778Y-117.849
X113.006Y-129.907
X113.293Y-118.357
X113.591Y-130.455
X113.616Y-150.548
X113.792Y-118.923
X114.287Y-116.369
X114.302Y-120.047
X114.53Y-121.798
X114.797Y-115.849
X115.089Y-100.627
X115.14Y-95.547
X115.329Y-115.327
X115.811Y-111.303
X115.837Y-119.595
X116.323Y-110.792
X116.332Y-120.752
X116.827Y-110.273
X116.84Y-120.23
X116.957Y-130.449
X117.324Y-148.998
X117.36Y-109.756
X117.858Y-109.231
X117.897Y-138.399
X117.973Y-122.321
X118.008Y-123.088
X118.377Y-108.698
X118.872Y-107.691
X119.407Y-112.067
X119.44Y-107.156
X119.601Y-108.203
X120.345Y-126.695
X120.345Y-128.219
X120.386Y-131.769
X120.396Y-114.833
X120.435Y-121.787
X120.462Y-140.075
X120.929Y-127.533
X121.439Y-132.708
X122.176Y-125.233
X122.176Y-127.164
X122.43Y-148.998
X122.776Y-132.887
X123.014Y-112.349
X123.598Y-129.519
X123.665Y-114.366
X123.82Y-120.211
X123.928Y-125.531
X124.944Y-120.699
X125.478Y-121.423
X126.976Y-128.036
X126.98Y-135.46
X126.98Y-145.953
X127.488Y-136.11
X127.488Y-144.645
X127.496Y-127.533
X127.986Y-136.75
X127.996Y-143.38
X128.01Y-127.011
X128.505Y-137.41
X128.512Y-126.491
X128.522Y-142.088
X129.012Y-138.06
X129.012Y-141.536
X129.024Y-125.98
X129.52Y-138.71
X129.52Y-140.54
X129.534Y-125.056
X130.029Y-139.34
X130.036Y-124.535
X130.536Y-147.046
X131.044Y-133.739
X131.044Y-139.998
X131.058Y-124.04
X131.552Y-116.805
X131.552Y-134.389
X131.552Y-143.145
X132.06Y-146.406
X132.569Y-145.745
X133.076Y-117.505
X133.076Y-143.801
X133.088Y-133.213
X133.584Y-116.805
X133.598Y-142.511
X134.093Y-145.101
X134.093Y-117.505
X134.6Y-116.805
X134.62Y-144.424
X134.992Y-112.287
X135.117Y-126.014
X135.147Y-118.013
X135.333Y-141.294
X135.333Y-148.356
X135.654Y-129.281
X135.892Y-117.124
X136.222Y-128.535
X136.703Y-127.026
X136.908Y-112.285
X137.063Y-130.76
X137.774Y-130.493
X138.533Y-141.294
X138.559Y-148.356
X139.231Y-126.031
X139.344Y-125.07
X139.346Y-108.714
X139.751Y-114.808
X139.852Y-118.339
X140.225Y-123.16
X142.164Y-112.349
X142.242Y-117.354
X142.332Y-107.36
X143.004Y-107.927
X143.535Y-114.224
X143.918Y-108.13
X144.541Y-111.15
X146.159Y-108.344
X146.177Y-109.347
X146.177Y-110.363
X146.177Y-111.366
X146.317Y-112.821
X146.474Y-135.444
X146.597Y-142.505
X146.812Y-108.839
X146.812Y-109.855
X146.812Y-110.871
X146.812Y-111.887
X146.881Y-124.171
X146.881Y-124.933
X147.643Y-124.171
X147.643Y-124.933
X151.818Y-149.414
X151.947Y-116.468
X151.998Y-124.037
X151.998Y-126.711
X152.158Y-131.461
X153.602Y-118.83
X153.84Y-111.12
X154.141Y-134.867
X154.953Y-149.414
X155.249Y-123.885
X155.402Y-126.736
X155.731Y-134.839
X156.367Y-111.845
X156.418Y-119.363
X158.141Y-148.879
X159.159Y-134.304
X159.276Y-130.14
X159.974Y-115.858
X160.045Y-131.216
X160.287Y-146.339
X160.511Y-134.839
X161.646Y-114.706
X162.204Y-114.173
X162.543Y-131.258
X162.599Y-137.449
X162.768Y-127.847
X162.941Y-148.879
X163.733Y-130.793
X164.241Y-134.756
X164.541Y-146.339
X164.952Y-111.54
X165.306Y-130.744
X166.679Y-127.491
X166.679Y-133.689
X166.856Y-149.414
X167.035Y-113.674
X168.559Y-134.4
X169.096Y-125.007
X169.524Y-116.163
X171.201Y-117.992
X171.251Y-122.919
X171.958Y-121.361
X172.293Y-118.982
X172.621Y-149.414
X172.695Y-121.463
X172.877Y-128.761
X173.533Y-124.435
X174.249Y-113.572
X174.941Y-146.339
X175.214Y-121.294
X175.925Y-119.211
X175.976Y-136.077
X177.419Y-126.492
X177.624Y-139.082
X177.649Y-144.01
X179.045Y-135.966
T2
X142.477Y-128.032
X142.549Y-119.777
X147.811Y-119.777
X147.811Y-128.032
T3
X107.692Y-106.0
X107.692Y-108.0
X107.692Y-110.0
X107.692Y-112.0
X107.692Y-114.0
X107.692Y-116.0
X107.692Y-118.0
X107.692Y-120.0
X107.692Y-122.0
X107.692Y-124.0
X107.692Y-126.0
X107.692Y-128.0
X107.692Y-130.0
X107.692Y-132.0
X107.692Y-134.0
X107.692Y-136.0
X107.692Y-138.0
X107.692Y-140.0
X107.692Y-142.0
X107.692Y-144.0
X107.692Y-146.0
X107.692Y-148.0
X107.723Y-95.547
X107.723Y-97.547
X107.723Y-100.611
X107.723Y-102.611
X109.692Y-106.0
X109.692Y-108.0
X109.692Y-110.0
X109.692Y-112.0
X109.692Y-114.0
X109.692Y-116.0
X109.692Y-118.0
X109.692Y-120.0
X109.692Y-122.0
X109.692Y-124.0
X109.692Y-126.0
X109.692Y-128.0
X109.692Y-130.0
X109.692Y-132.0
X109.692Y-134.0
X109.692Y-136.0
X109.692Y-138.0
X109.692Y-140.0
X109.692Y-142.0
X109.692Y-144.0
X109.692Y-146.0
X109.692Y-148.0
X122.555Y-96.203
X122.555Y-100.012
X123.825Y-98.108
X123.825Y-101.917
X125.095Y-96.203
X125.095Y-100.012
X126.365Y-98.108
X126.365Y-101.917
X127.635Y-96.203
X127.635Y-100.012
X128.905Y-98.108
X128.905Y-101.917
X130.175Y-96.203
X130.175Y-100.012
X131.445Y-98.108
X131.445Y-101.917
X132.715Y-96.203
X132.715Y-100.012
X133.985Y-98.108
X133.985Y-101.917
X135.255Y-96.203
X135.255Y-100.012
X136.525Y-98.108
X136.525Y-101.917
X137.795Y-96.203
X137.795Y-100.012
X139.065Y-98.108
X139.065Y-101.917
X140.335Y-96.203
X140.335Y-100.012
X141.605Y-98.108
X141.605Y-101.917
X142.875Y-96.203
X142.875Y-100.012
X144.145Y-98.108
X144.145Y-101.917
X145.415Y-96.203
X145.415Y-100.012
X146.685Y-98.108
X146.685Y-101.917
X147.955Y-96.203
X147.955Y-100.012
X149.225Y-98.108
X149.225Y-101.917
X150.495Y-96.203
X150.495Y-100.012
X151.765Y-98.108
X151.765Y-101.917
X153.035Y-96.203
X153.035Y-100.012
X154.305Y-98.108
X154.305Y-101.917
X155.575Y-96.203
X155.575Y-100.012
X156.845Y-98.108
X156.845Y-101.917
X158.115Y-96.203
X158.115Y-100.012
X159.385Y-98.108
X159.385Y-101.917
X160.655Y-96.203
X160.655Y-100.012
X161.925Y-98.108
X161.925Y-101.917
X163.195Y-96.203
X163.195Y-100.012
X164.465Y-98.108
X164.465Y-101.917
X165.735Y-96.203
X165.735Y-100.012
X167.005Y-98.108
X167.005Y-101.917
X168.275Y-96.203
X168.275Y-100.012
X169.545Y-98.108
X169.545Y-101.917
X170.815Y-96.203
X170.815Y-100.012
X172.085Y-98.108
X172.085Y-101.917
T4
X178.411Y-105.514
X178.411Y-108.054
X178.411Y-110.594
X178.411Y-113.134
X178.411Y-115.674
X178.411Y-118.214
T5
X118.11Y-99.06
X176.53Y-99.06
T0
M30
